<svg xmlns="http://www.w3.org/2000/svg" fill="none" viewBox="0 0 156 95"><g stroke="#495747" stroke-miterlimit="10" stroke-width="3.46"><path d="M32.5 82.97a20.4 20.4 0 1 0 0-40.8 20.4 20.4 0 0 0 0 40.8z"/><path stroke-linecap="round" d="M33.19 76.06a14.6 14.6 0 0 1-14.52-14.52m105.44-12.62a14.6 14.6 0 0 1 14.52 14.52"/><path d="m7.78 44.6 20.4-23.86A22.98 22.98 0 0 1 66.9 37.51l-4.5 25.24"/><path d="m33.02 17.29 9.68-10.9a14.3 14.3 0 0 1 9.85-3.8c7.78 0 14.17 6.23 14.35 14v.7L65 28.35m59.11-11.93-10.2-10.89a16 16 0 0 0-10.02-3.8 14.35 14.35 0 0 0-14.35 14v.7l1.9 11.05"/><path d="m149.18 46.15-20.75-26.44a22.98 22.98 0 0 0-38.72 16.77l3.8 22.3M32.15 93.17a30.42 30.42 0 1 0 0-60.85 30.42 30.42 0 0 0 0 60.85z"/><path d="M124.11 82.97a20.4 20.4 0 1 0 0-40.8 20.4 20.4 0 0 0 0 40.8z"/><path d="M123.77 93.17a30.42 30.42 0 1 0 0-60.85 30.42 30.42 0 0 0 0 60.85zM67.42 37.68h21.6M62.4 65.69s14.35-15.9 30.94 0M64.48 51.68s12.79-8.98 28.17.7"/></g></svg>