<svg xmlns="http://www.w3.org/2000/svg" fill="none" viewBox="0 0 11 13"><path fill="#495747" fill-rule="evenodd" d="M1.501.5C.676.5.001 1.175.001 2L0 11.607c0 .723.862 1.154 1.44.72l3.267-2.45a.658.658 0 0 1 .792 0l3.266 2.45c.579.434 1.44.003 1.44-.72V2.001c0-.826-.675-1.501-1.5-1.501H1.5Zm0 .6h7.204c.501 0 .9.4.9.9v9.606c0 .267-.267.4-.48.24L5.86 9.398a1.263 1.263 0 0 0-1.512 0l-3.266 2.45c-.213.16-.48.026-.48-.24V2c0-.501.4-.9.9-.9V1.1Z" clip-rule="evenodd"/><path fill="#495747" fill-rule="evenodd" d="M3.3 1.7c-.493 0-.9.407-.9.9 0 .494.407.9.9.9h3.6c.494 0 .9-.406.9-.9 0-.493-.406-.9-.9-.9H3.3Zm0 .6h3.6c.172 0 .3.129.3.3 0 .172-.128.3-.3.3H3.3a.293.293 0 0 1-.3-.3c0-.171.129-.3.3-.3Z" clip-rule="evenodd"/></svg>