<svg xmlns="http://www.w3.org/2000/svg" width="17" height="19" fill="none" viewBox="0 0 17 19"><path fill="#495747" fill-rule="evenodd" d="M2.734 3.856a.797.797 0 0 0-.797.797v11.164c0 .44.357.797.797.797h11.163c.44 0 .798-.357.798-.797V4.653a.797.797 0 0 0-.798-.797zm-2.392.797a2.39 2.39 0 0 1 2.392-2.392h11.163a2.39 2.39 0 0 1 2.393 2.392v11.164a2.39 2.39 0 0 1-2.393 2.392H2.734a2.39 2.39 0 0 1-2.392-2.392z" clip-rule="evenodd"/><path fill="#495747" fill-rule="evenodd" d="M11.505.667c.44 0 .798.357.798.797v3.19a.797.797 0 0 1-1.595 0v-3.19c0-.44.357-.797.797-.797M5.126.667c.44 0 .797.357.797.797v3.19a.797.797 0 0 1-1.594 0v-3.19c0-.44.357-.797.797-.797M.342 7.843c0-.44.357-.798.797-.798h14.353a.797.797 0 1 1 0 1.595H1.14a.797.797 0 0 1-.797-.797" clip-rule="evenodd"/></svg>