<svg xmlns="http://www.w3.org/2000/svg" width="28" height="27" fill="none" viewBox="0 0 28 27"><path fill="#fff" d="M1.72 2.31 17.52.55c.782-.11 1.46.55 1.46 1.375v10.063c0 .825-.678 1.485-1.408 1.43l-8.29-.55c-.47-.055-.94.165-1.252.55l-3.18 4.124c-.366.44-1.044.22-1.044-.33l-.156-3.355c-.052-.77-.626-1.43-1.356-1.484l-.469-.055c-.782 0-1.304-.605-1.304-1.375V3.684c0-.715.522-1.32 1.2-1.374"/><path fill="#495747" d="M4.432 18.366c-.104 0-.209 0-.365-.055a1.25 1.25 0 0 1-.782-1.045l-.157-3.41c-.052-.494-.417-.934-.886-.934l-.47-.055C.783 12.812 0 11.987 0 10.942V3.684c0-.99.73-1.87 1.669-1.925l15.798-1.76a1.84 1.84 0 0 1 1.46.495c.418.385.626.88.626 1.43v10.063c0 .55-.209 1.045-.573 1.43-.366.385-.887.55-1.408.55l-8.29-.55a.76.76 0 0 0-.783.385l-3.18 4.124c-.261.275-.574.44-.887.44M1.772 2.859c-.416 0-.73.385-.73.825v7.258c0 .44.314.825.783.88l.47.055c.99.055 1.824.935 1.876 1.98l.209 3.354s0 .055.052.055h.052l3.18-4.124c.418-.55 1.044-.825 1.67-.77l8.29.55c.208 0 .47-.055.626-.22a.9.9 0 0 0 .26-.605V1.979c0-.22-.104-.495-.26-.66-.209-.165-.418-.22-.678-.22z"/><path fill="#fff" d="m26.28 10.888-15.8-1.705c-.782-.11-1.46.55-1.46 1.375v10.063c0 .825.678 1.485 1.408 1.43l8.29-.55c.47-.055.94.165 1.252.55l3.18 4.124c.366.44 1.044.22 1.044-.33l.208-3.354c.052-.77.626-1.43 1.356-1.485l.47-.055c.677-.055 1.25-.66 1.25-1.43v-7.203c0-.715-.52-1.32-1.199-1.43"/><path fill="#495747" d="M23.568 27c-.313 0-.626-.165-.886-.44L19.5 22.436a.92.92 0 0 0-.782-.385l-8.29.55c-.522.055-.991-.165-1.408-.55a2.05 2.05 0 0 1-.574-1.43V10.558c0-.55.209-1.1.626-1.43.365-.385.938-.55 1.46-.495l15.799 1.705c.938.11 1.668.935 1.668 1.925v7.258c0 1.045-.782 1.87-1.72 1.98l-.47.055c-.47.055-.886.44-.886.935l-.209 3.354c-.052.495-.313.88-.782 1.045-.156.055-.26.11-.365.11m-4.797-6.049c.626 0 1.2.275 1.564.77l3.18 4.124s.053.055.053 0c.052 0 .052-.055.052-.055l.209-3.354c.052-1.045.886-1.925 1.877-1.98l.47-.055c.416-.055.781-.385.781-.88v-7.203c0-.44-.313-.825-.73-.88L10.428 9.733c-.208 0-.469.055-.625.22a.94.94 0 0 0-.261.66v10.063c0 .22.104.44.26.605s.366.275.626.22l8.29-.55z"/><path fill="#495747" d="M24.61 14.242s-.052 0 0 0l-12.983-1.32c-.26-.054-.521-.274-.469-.604.052-.275.26-.55.574-.495l12.93 1.32c.261.055.522.275.47.604-.052.276-.26.495-.521.495M24.61 17.047s-.052 0 0 0l-12.983-1.32c-.26-.055-.521-.275-.469-.605.052-.275.26-.55.574-.495l12.93 1.32c.261.055.522.275.47.605-.052.275-.26.495-.521.495M24.61 19.851s-.052 0 0 0l-12.983-1.32c-.26-.054-.521-.274-.469-.604.052-.275.26-.55.574-.495l12.93 1.32c.261.055.522.274.47.604-.052.275-.26.495-.521.495"/></svg>