<svg xmlns="http://www.w3.org/2000/svg" width="18" height="19" fill="none" viewBox="0 0 18 19"><path fill="#495747" fill-rule="evenodd" d="M8.927 2.26a7.176 7.176 0 1 0 0 14.354 7.176 7.176 0 0 0 0-14.353M.156 9.438a8.771 8.771 0 1 1 17.542 0 8.771 8.771 0 0 1-17.542 0" clip-rule="evenodd"/><path fill="#495747" fill-rule="evenodd" d="M8.927 3.855c.44 0 .798.357.798.798v4.291l2.748 1.375a.797.797 0 1 1-.713 1.426L8.57 10.15a.8.8 0 0 1-.44-.713V4.653c0-.44.357-.798.797-.798" clip-rule="evenodd"/></svg>