<svg xmlns="http://www.w3.org/2000/svg" viewBox="0 0 114.29 114.29"><path d="M90.88 45.34a22.2 22.2 0 0 0-6.77 1.07L77.14 28l-.93.35 1-.46h8.62a1.62 1.62 0 0 1 1.61 1.62 2.88 2.88 0 0 1-2.88 2.88h-1.84a1.71 1.71 0 0 0 0 3.41h1.84a6.29 6.29 0 0 0 6.29-6.29 5 5 0 0 0-5-5h-8.64A3.49 3.49 0 0 0 74 29.19l4.14 10.94L62 59.38a9.68 9.68 0 0 0-7.36-1l-9.06-21.74h1.19a5 5 0 0 0 5-5v-1.73a3.36 3.36 0 0 0-3.35-3.35h-12a3.36 3.36 0 0 0-3.35 3.35v1.71a5 5 0 0 0 5 5h3.79l1.75 4.2-8.07 8a22.5 22.5 0 1 0 9 26.82l11.76 1.8 1 .13v-.11a9.71 9.71 0 0 0 7.29-16l14.88-17.68 1.47 3.89a22.47 22.47 0 1 0 9.94-2.33M46.77 33.23H38.1a1.62 1.62 0 0 1-1.62-1.61L36.42 30l12-.06v1.71a1.61 1.61 0 0 1-1.65 1.58m-23.29 53.7a19.09 19.09 0 1 1 9.62-35.58L24 60.43a4 4 0 0 0-.49 0 7.34 7.34 0 0 0 0 14.67 7.25 7.25 0 0 0 4.85-1.84l12.73 1.94a19.1 19.1 0 0 1-17.61 11.73m7-21.42 11.62-1.77a18 18 0 0 1 0 8.14L30.44 70.1a7.1 7.1 0 0 0 .41-2.37 7 7 0 0 0-.36-2.22Zm-7 6.15a3.93 3.93 0 1 1 3.93-3.93 3.93 3.93 0 0 1-3.9 3.93Zm17.59-11.21-12.59 1.91a7.4 7.4 0 0 0-.88-.71l8.3-8.28a19.25 19.25 0 0 1 5.17 7.08M38.32 51l6.73-6.72 6.11 14.68-6.63 1A22.4 22.4 0 0 0 38.32 51m18.86 23.11a6.31 6.31 0 1 1 0-12.61 6.2 6.2 0 0 1 2.59.56l-3.9 4.65a1.71 1.71 0 0 0 .22 2.4 1.75 1.75 0 0 0 2.4-.21l3.89-4.66a6.3 6.3 0 0 1-5.2 9.87m-11.7-10.88 3.44-.52a9.66 9.66 0 0 0 0 10.21l-3.45-.52a21.8 21.8 0 0 0 .53-4.56 21.5 21.5 0 0 0-.52-4.61m45.4 23.7a19.08 19.08 0 0 1-8.72-36.05L86.36 62a7.26 7.26 0 0 0-2.82 5.75 7.34 7.34 0 1 0 7.34-7.33 7 7 0 0 0-1.42.15L85.32 49.6a18.6 18.6 0 0 1 5.56-.85 19.09 19.09 0 0 1 0 38.18m3.93-19.2a3.93 3.93 0 1 1-3.93-3.93 3.94 3.94 0 0 1 3.93 3.93" data-name="Layer 2" style="fill:#495747"/></svg>