<svg xmlns="http://www.w3.org/2000/svg" viewBox="0 0 114.29 114.29"><defs><style>.cls-1{fill:#495747;}</style></defs><g id="Layer_2" data-name="Layer 2"><path class="cls-1" d="M90.88,45.34a22.17,22.17,0,0,0-6.77,1.07L77.14,28l-.93.35h0l1-.46h8.62a1.62,1.62,0,0,1,1.61,1.62,2.88,2.88,0,0,1-2.88,2.88H82.72a1.71,1.71,0,0,0,0,3.41h1.84a6.29,6.29,0,0,0,6.29-6.29,5,5,0,0,0-5-5H77.21A3.49,3.49,0,0,0,74,29.19l4.14,10.94L62,59.38a9.68,9.68,0,0,0-7.36-1L45.58,36.64h1.19a5,5,0,0,0,5-5V29.91a3.36,3.36,0,0,0-3.35-3.35h-12a3.36,3.36,0,0,0-3.35,3.35v1.71a5,5,0,0,0,5,5h3.79l1.75,4.2-8.07,8a22.5,22.5,0,1,0,9,26.82l11.76,1.8,1,.13v-.11a9.71,9.71,0,0,0,7.29-16L79.47,43.78l1.47,3.89a22.47,22.47,0,1,0,9.94-2.33ZM46.77,33.23H38.1a1.62,1.62,0,0,1-1.62-1.61L36.42,30l12-.06v1.71A1.61,1.61,0,0,1,46.77,33.23ZM23.48,86.93A19.09,19.09,0,1,1,33.1,51.35L24,60.43a3.91,3.91,0,0,0-.49,0,7.34,7.34,0,0,0,0,14.67,7.25,7.25,0,0,0,4.85-1.84l12.73,1.94A19.1,19.1,0,0,1,23.48,86.93Zm7-21.42,11.62-1.77a18,18,0,0,1,0,8.14L30.44,70.1a7.12,7.12,0,0,0,.41-2.37A7,7,0,0,0,30.49,65.51Zm-7,6.15a3.93,3.93,0,1,1,3.93-3.93A3.93,3.93,0,0,1,23.51,71.66ZM41.07,60.45,28.48,62.36a7.39,7.39,0,0,0-.88-.71l8.3-8.28A19.25,19.25,0,0,1,41.07,60.45ZM38.32,51l6.73-6.72,6.11,14.68-6.63,1A22.41,22.41,0,0,0,38.32,51ZM57.18,74.11a6.31,6.31,0,1,1,0-12.61,6.22,6.22,0,0,1,2.59.56l-3.9,4.65a1.71,1.71,0,0,0,.22,2.4,1.75,1.75,0,0,0,2.4-.21l3.89-4.66a6.3,6.3,0,0,1-5.2,9.87ZM45.48,63.23l3.44-.52a9.66,9.66,0,0,0,0,10.21l-3.45-.52A21.78,21.78,0,0,0,46,67.84,21.54,21.54,0,0,0,45.48,63.23Zm45.4,23.7a19.08,19.08,0,0,1-8.72-36.05L86.36,62a7.26,7.26,0,0,0-2.82,5.75,7.34,7.34,0,1,0,7.34-7.33,6.92,6.92,0,0,0-1.42.15L85.32,49.6a18.57,18.57,0,0,1,5.56-.85,19.09,19.09,0,0,1,0,38.18Zm3.93-19.2a3.93,3.93,0,1,1-3.93-3.93A3.94,3.94,0,0,1,94.81,67.73Z"/></g></svg>