<svg width="26" height="19" viewBox="0 0 26 19" fill="none" xmlns="http://www.w3.org/2000/svg">
<g clip-path="url(#clip0)">
<path d="M22.8445 0.263911H2.489C1.94219 0.268157 1.4192 0.490416 1.03402 0.882246C0.64885 1.27408 0.432718 1.80371 0.432734 2.35571V16.6604C0.432734 17.2109 0.649376 17.7389 1.035 18.1282C1.42063 18.5174 1.94365 18.7361 2.489 18.7361H22.8445C23.3898 18.7361 23.9129 18.5174 24.2985 18.1282C24.6841 17.7389 24.9007 17.2109 24.9007 16.6604V2.35571C24.9008 1.80371 24.6846 1.27408 24.2995 0.882246C23.9143 0.490416 23.3913 0.268157 22.8445 0.263911ZM24.1356 2.35571V16.6604C24.1327 16.843 24.0948 17.0233 24.024 17.1914L15.7671 9.56438L23.9762 1.71208C24.0835 1.90915 24.1384 2.13088 24.1356 2.35571ZM22.8445 1.03627C23.0438 1.04232 23.2396 1.09172 23.4183 1.18109L13.8543 10.3689C13.7058 10.5222 13.5285 10.644 13.3328 10.7271C13.1371 10.8102 12.9269 10.8531 12.7146 10.8531C12.5022 10.8531 12.292 10.8102 12.0963 10.7271C11.9006 10.644 11.7233 10.5222 11.5748 10.3689L2.0108 1.16499C2.17368 1.08095 2.3539 1.03684 2.53682 1.03627H22.8445ZM1.30944 17.0949C1.28536 16.9511 1.28536 16.8042 1.30944 16.6604V2.35571C1.27563 2.13787 1.30325 1.91482 1.38914 1.71208L9.50264 9.50002L1.30944 17.0949ZM2.52088 17.9638C2.2555 17.9912 1.98821 17.935 1.75576 17.8029L10.0605 10.1115L10.9851 11.0126C11.4428 11.4463 12.0469 11.688 12.6747 11.6884C13.27 11.6671 13.837 11.4268 14.2687 11.0126L15.1295 10.1919L23.498 17.8029C23.3041 17.9316 23.0765 17.9988 22.8445 17.996L2.52088 17.9638Z" fill="#495747"/>
<path fill-rule="evenodd" clip-rule="evenodd" d="M2.489 -0.116089H22.8445V0.263911L22.8474 -0.116077C23.4957 -0.111044 24.1149 0.152467 24.5704 0.615857C25.0259 1.07913 25.2808 1.70458 25.2807 2.35571V16.6604C25.2807 17.3106 25.0249 17.9348 24.5684 18.3956C24.1118 18.8565 23.4918 19.1161 22.8445 19.1161H2.489C1.8417 19.1161 1.22165 18.8565 0.76504 18.3956C0.308552 17.9348 0.0527344 17.3106 0.0527344 16.6604V2.35572C0.0527344 2.35572 0.0527344 2.35573 0.0527344 2.35572C0.0527182 1.70459 0.307633 1.07912 0.763032 0.615857C1.21855 0.152467 1.83781 -0.111044 2.48605 -0.116077L2.489 -0.116089ZM0.432734 2.35571V16.6604C0.432734 17.2109 0.649376 17.7389 1.035 18.1282C1.42063 18.5174 1.94365 18.7361 2.489 18.7361H22.8445C23.3898 18.7361 23.9129 18.5174 24.2985 18.1282C24.6841 17.7389 24.9007 17.2109 24.9007 16.6604V2.35571C24.9008 1.80371 24.6846 1.27408 24.2995 0.882246C23.9143 0.490416 23.3913 0.268157 22.8445 0.263911H2.489C1.94219 0.268157 1.4192 0.490416 1.03402 0.882246C0.64885 1.27408 0.432718 1.80371 0.432734 2.35571ZM11.5748 10.3689C11.7233 10.5222 11.9006 10.644 12.0963 10.7271C12.292 10.8102 12.5022 10.8531 12.7146 10.8531C12.9269 10.8531 13.1371 10.8102 13.3328 10.7271C13.5285 10.644 13.7058 10.5222 13.8543 10.3689L23.4183 1.18109C23.288 1.11594 23.1487 1.07204 23.0056 1.05068C22.9523 1.04274 22.8985 1.03791 22.8445 1.03627H2.53682C2.50125 1.03638 2.46577 1.03814 2.43051 1.04152C2.28445 1.05551 2.142 1.09729 2.0108 1.16499L11.5748 10.3689ZM2.81992 1.41627L11.848 10.1044C11.9612 10.2213 12.0961 10.3141 12.2449 10.3773C12.3937 10.4405 12.5533 10.4731 12.7146 10.4731C12.8758 10.4731 13.0354 10.4405 13.1842 10.3773C13.3331 10.3141 13.4681 10.2214 13.5813 10.1045L13.5908 10.0947L22.625 1.41627H2.81992ZM10.9851 11.0126L10.0605 10.1115L1.75576 17.8029C1.88125 17.8742 2.0169 17.9234 2.15692 17.9493C2.27626 17.9713 2.39877 17.9764 2.52088 17.9638L22.8445 17.996C22.9356 17.9971 23.0261 17.9874 23.1141 17.9674C23.2502 17.9365 23.3803 17.881 23.498 17.8029L15.1295 10.1919L14.2687 11.0126C13.837 11.4268 13.27 11.6671 12.6747 11.6884C12.0469 11.688 11.4428 11.4463 10.9851 11.0126ZM14.5313 11.2872C14.5312 11.2873 14.5315 11.2871 14.5313 11.2872C14.0326 11.7655 13.3771 12.0436 12.6883 12.0681L12.6745 12.0686C11.949 12.0682 11.2515 11.7887 10.7237 11.2884L10.7198 11.2847L10.0539 10.6356L2.55151 17.5838L22.7275 17.6158L15.1356 10.7111L14.5313 11.2872ZM24.1356 2.35571C24.1367 2.27148 24.1296 2.18768 24.1147 2.10546C24.0899 1.9682 24.0433 1.83532 23.9762 1.71208L15.7671 9.56438L24.024 17.1914C24.0804 17.0575 24.1159 16.9159 24.1295 16.7715C24.133 16.7346 24.135 16.6976 24.1356 16.6604V2.35571ZM23.7556 16.4262V2.44894L16.3219 9.55955L23.7556 16.4262ZM23.8531 2.35571H24.1356L23.8567 2.3523L23.8531 2.35571ZM1.30944 17.0949C1.28536 16.9511 1.28536 16.8042 1.30944 16.6604V2.35571C1.29879 2.28709 1.29424 2.21796 1.29568 2.1491C1.29882 1.99937 1.33031 1.85096 1.38914 1.71208L9.50264 9.50002L1.30944 17.0949ZM1.68944 16.2245L8.94887 9.4952L1.68944 2.52706V16.2245Z" fill="#495747"/>
</g>
<defs>
<clipPath id="clip0">
<rect width="25.3333" height="19" fill="white"/>
</clipPath>
</defs>
</svg>
