<svg xmlns="http://www.w3.org/2000/svg" width="26" height="19" fill="none" viewBox="0 0 26 19"><g fill="#495747" clip-path="url(#a)"><path d="M22.845.264H2.488a2.06 2.06 0 0 0-1.455.618 2.1 2.1 0 0 0-.601 1.474V16.66c0 .55.216 1.079.602 1.468.386.39.909.608 1.454.608h20.356c.545 0 1.068-.219 1.454-.608.385-.39.602-.917.602-1.468V2.356c0-.552-.216-1.082-.602-1.474a2.06 2.06 0 0 0-1.454-.618m1.29 2.092V16.66c-.002.183-.04.363-.111.531l-8.257-7.627 8.21-7.852c.107.197.161.419.159.644m-1.29-1.32c.199.006.395.056.573.145l-9.564 9.188a1.6 1.6 0 0 1-1.14.484 1.58 1.58 0 0 1-1.14-.484L2.012 1.165c.163-.084.343-.128.526-.129zM1.308 17.095a1.3 1.3 0 0 1 0-.435V2.356a1.2 1.2 0 0 1 .08-.644L9.503 9.5zm1.212.869a1.3 1.3 0 0 1-.765-.161l8.305-7.692.924.902a2.46 2.46 0 0 0 1.69.675 2.43 2.43 0 0 0 1.594-.675l.86-.821 8.369 7.61a1.16 1.16 0 0 1-.654.194z"/><path fill-rule="evenodd" d="M2.489-.116h20.356v.38l.002-.38a2.44 2.44 0 0 1 1.723.732c.456.463.71 1.089.71 1.74V16.66c0 .65-.255 1.275-.712 1.736-.456.46-1.076.72-1.724.72H2.49c-.647 0-1.267-.26-1.724-.72a2.47 2.47 0 0 1-.712-1.736V2.356c0-.651.255-1.277.71-1.74a2.44 2.44 0 0 1 1.723-.732zM.433 2.356V16.66c0 .55.216 1.079.602 1.468.386.39.909.608 1.454.608h20.356c.545 0 1.068-.219 1.454-.608.385-.39.602-.917.602-1.468V2.356c0-.552-.216-1.082-.602-1.474a2.06 2.06 0 0 0-1.454-.618H2.488a2.06 2.06 0 0 0-1.455.618 2.1 2.1 0 0 0-.601 1.474m11.142 8.013a1.6 1.6 0 0 0 1.14.484 1.58 1.58 0 0 0 1.14-.484l9.563-9.188a1.4 1.4 0 0 0-.573-.145H2.537a1.15 1.15 0 0 0-.526.129zM2.82 1.416l9.028 8.688a1.21 1.21 0 0 0 .867.37 1.2 1.2 0 0 0 .866-.37l.01-.01 9.034-8.678zm8.165 9.597-.925-.902-8.304 7.692a1.3 1.3 0 0 0 .765.16l20.324.033a1.15 1.15 0 0 0 .653-.193l-8.369-7.611-.86.82a2.43 2.43 0 0 1-1.594.676 2.46 2.46 0 0 1-1.69-.675m3.546.274a2.8 2.8 0 0 1-1.843.781h-.014c-.725 0-1.422-.28-1.95-.78l-.004-.003-.666-.65-7.502 6.949 20.176.032-7.592-6.905zm9.605-8.931a1.3 1.3 0 0 0-.16-.644l-8.209 7.852 8.257 7.627a1.4 1.4 0 0 0 .112-.53zm-.38 14.07V2.45l-7.434 7.11zm.097-14.07h.283l-.28-.004zM1.31 17.095a1.3 1.3 0 0 1 0-.435V2.356a1.2 1.2 0 0 1 .08-.644L9.503 9.5zm.38-.87 7.26-6.73-7.26-6.968z" clip-rule="evenodd"/></g><defs><clipPath id="a"><path fill="#fff" d="M0 0h25.333v19H0z"/></clipPath></defs></svg>