<svg width="12" height="12" viewBox="0 0 12 12" fill="none" xmlns="http://www.w3.org/2000/svg">
<path d="M2.25 1.875L9.75 10.125" stroke="#495747" stroke-width="0.8" stroke-linecap="round" stroke-linejoin="round"/>
<path d="M7.26074 7.3873C6.91664 7.70252 6.46645 7.87658 5.9998 7.8748C5.62136 7.87476 5.25179 7.76021 4.93968 7.5462C4.62756 7.33219 4.38751 7.02874 4.25108 6.67575C4.11465 6.32276 4.08823 5.93675 4.17529 5.56846C4.26235 5.20017 4.45882 4.86685 4.73886 4.6123" stroke="#495747" stroke-width="0.8" stroke-linecap="round" stroke-linejoin="round"/>
<path d="M3.46875 3.21582C1.55625 4.18145 0.75 6.0002 0.75 6.0002C0.75 6.0002 2.25 9.3752 6 9.3752C6.87871 9.38236 7.74645 9.17988 8.53125 8.78457" stroke="#495747" stroke-width="0.8" stroke-linecap="round" stroke-linejoin="round"/>
<path d="M9.77773 7.92657C10.7996 7.01251 11.2496 6.00001 11.2496 6.00001C11.2496 6.00001 9.74961 2.62501 5.99961 2.62501C5.67451 2.62437 5.34993 2.65103 5.0293 2.7047" stroke="#495747" stroke-width="0.8" stroke-linecap="round" stroke-linejoin="round"/>
<path d="M6.35156 4.1582C6.7503 4.23375 7.11365 4.43695 7.38677 4.73713C7.65989 5.03731 7.82797 5.41818 7.86563 5.82227" stroke="#495747" stroke-width="0.8" stroke-linecap="round" stroke-linejoin="round"/>
</svg>
