<svg xmlns="http://www.w3.org/2000/svg" viewBox="0 0 114.29 114.29"><defs><style>.cls-1{fill:#495747}</style></defs><g id="Layer_2" data-name="Layer 2"><path d="M80.86 56.42c-.62-.36-1.25-.67-1.85-1l-3-1.42c-1.53-.72-3-1.43-4.57-2.16a5.14 5.14 0 0 1-2.75-3.07c-.25-.77-.49-1.54-.73-2.31v-.16c-.35-1.13-.7-2.25-1.09-3.36a23.5 23.5 0 0 0-3.21-6.42 5.62 5.62 0 0 0-3.4-2.38 18.5 18.5 0 0 0-4.31-.42 15.62 15.62 0 0 0-9.07 3.7c-2.78 2.25-5.54 4.6-8.21 6.87l-.67.57a7.9 7.9 0 0 0-2.66 5.15q-.51 4.06-1 8.13l-.53 4.2a4.84 4.84 0 0 0 4.1 5.51 4.75 4.75 0 0 0 5.48-4.14c.2-1.37.37-2.74.54-4.11l.27-2.6c.13-1 .26-2 .38-3a3.27 3.27 0 0 1 .78-2.06c.65-.64 1.34-1.25 2-1.86-.56 2.67-1.13 5.35-1.71 8-.38 1.77-.62 3.51.63 5.45 4 6.15 8 12.46 11.85 18.62l5.26 8.31q1.65 2.61 3.31 5.21a6 6 0 0 0 5.08 2.8 6.2 6.2 0 0 0 2.09-.37 5.91 5.91 0 0 0 3.84-4.4 6.7 6.7 0 0 0 .09-2.11 7.34 7.34 0 0 0-1.35-3.18l-6.7-10.62-9.33-14.73-.09-.15c.11-.95.27-1.88.46-2.79.24-1.08.49-2.15.77-3.29 0-.12.06-.23.08-.34a6.55 6.55 0 0 0 2.18 2c1.41.79 2.88 1.49 4.35 2.2l.43.21c.83.4 1.66.78 2.49 1.16l.22.11c1.5.69 3 1.41 4.52 2.17a5.17 5.17 0 0 0 4.16.27 4.42 4.42 0 0 0 2.6-2.55 4.7 4.7 0 0 0-1.73-5.64m-3.57 5.14c-1.54-.8-3.13-1.53-4.69-2.26L70 58.08l-.5-.25c-1.37-.65-2.78-1.33-4.11-2.07a4.07 4.07 0 0 1-1.58-1.9c-.25-.49-.48-1-.72-1.5l-.51-1.07-.86-.79-.76.08-1.23.15-.42 1.92c-.13.57-.25 1.14-.38 1.7l-.36 1.49-.07.31c-.27 1.1-.53 2.19-.77 3.3a34 34 0 0 0-.55 3.37 3 3 0 0 0 .6 1.93L68 81l5.79 9.14a4.8 4.8 0 0 1 .89 1.86 2.89 2.89 0 0 1-5.29 2c-1.11-1.72-2.2-3.45-3.3-5.19l-5.25-8.31C57 74.37 53 68.06 49 61.82c-.56-.85-.51-1.6-.19-3.07l1.62-7.59 1-4.77v-1.64l-2.23-.4-.58.5c-.51.45-1 .88-1.55 1.33-1.3 1.1-2.64 2.25-3.9 3.46a6.3 6.3 0 0 0-1.74 4c-.12 1-.25 2-.38 3l-.33 2.61c-.17 1.35-.34 2.71-.53 4a1.67 1.67 0 0 1-1.91 1.47 1.72 1.72 0 0 1-1.4-2l.59-4.73c.32-2.53.63-5.07 1-7.6A4.76 4.76 0 0 1 40 47.32l.58-.49c2.68-2.28 5.46-4.65 8.24-6.89a12.33 12.33 0 0 1 7.23-3h.93a25 25 0 0 1 2.68.36 2.1 2.1 0 0 1 1.1.78c.11.13.22.26.31.39A20.5 20.5 0 0 1 63.82 44c.38 1.07.72 2.16 1.06 3.27.26.84.52 1.68.8 2.52a8.17 8.17 0 0 0 4.38 4.91l4.13 2 .46.21 3 1.42c.56.27 1.11.54 1.63.83a1.65 1.65 0 0 1 .36 1.77 1.27 1.27 0 0 1-.77.75 2 2 0 0 1-1.58-.12" class="cls-1"/><path d="m48.26 68.75-.89-1.18a7 7 0 0 0-.37-.45l-2-2.24-1 2.8c-.08.22-.15.4-.2.58-.61 2.22-1.21 4.44-1.82 6.66l-.21.8a8.7 8.7 0 0 1-1.33 3.15c-1.94 2.54-3.9 5.2-5.62 7.54-.75 1-1.49 2-2.25 3a5.53 5.53 0 0 0-.57 6.12 5.41 5.41 0 0 0 4.41 3h.46a5.82 5.82 0 0 0 4.68-2.42q4.59-6.18 9.17-12.39a4.9 4.9 0 0 0 .8-1.5c.15-.53.29-1 .43-1.51.4-1.44.73-2.67 1-3.86a3 3 0 0 0-.47-2.35c-1.34-1.91-2.76-3.8-4.22-5.75M39 94.22a2.67 2.67 0 0 1-2.34 1.13 2.22 2.22 0 0 1-1.85-1.27 2.36 2.36 0 0 1 .3-2.74l2.25-3c1.82-2.47 3.7-5 5.59-7.49a11.6 11.6 0 0 0 1.86-4.25l.11-.4q.66-2.4 1.3-4.78 1.83 2.43 3.63 4.88c-.38 1.51-.8 3.09-1.38 5.09a2.3 2.3 0 0 1-.31.5Q43.63 88 39 94.22M61.29 34.2a9.22 9.22 0 1 0-9.2-9.27 9.27 9.27 0 0 0 9.2 9.27m-6-9.28a6 6 0 0 1 6-6 6.05 6.05 0 0 1 0 12.1 6.08 6.08 0 0 1-6.02-6.1Zm6 8.28" class="cls-1"/></g></svg>