<svg xmlns="http://www.w3.org/2000/svg" width="32" height="32" viewBox="0 0 256 256"><path fill="currentColor" d="M137.54 186.36a8 8 0 0 1 0 11.31l-9.94 10a56 56 0 0 1-79.22-79.27l24.12-24.12a56 56 0 0 1 76.81-2.28 8 8 0 1 1-10.64 12 40 40 0 0 0-54.85 1.63l-24.11 24.09a40 40 0 0 0 56.58 56.58l9.94-9.94a8 8 0 0 1 11.31 0Zm70.08-138a56.08 56.08 0 0 0-79.22 0l-9.94 9.95a8 8 0 0 0 11.32 11.31l9.94-9.94a40 40 0 0 1 56.58 56.58l-24.12 24.14a40 40 0 0 1-54.85 1.6 8 8 0 1 0-10.64 12 56 56 0 0 0 76.81-2.26l24.12-24.12a56.08 56.08 0 0 0 0-79.24Z"/></svg>
