<svg xmlns="http://www.w3.org/2000/svg" width="20" height="26" fill="none" viewBox="0 0 20 26"><g clip-path="url(#a)"><mask id="b" width="20" height="27" x="-.422" y="-.387" fill="#000" maskUnits="userSpaceOnUse"><path fill="#fff" d="M-.422-.387h20v27h-20z"/><path d="M9.998 1.47a6.25 6.25 0 0 1 4.287 1.859 5.94 5.94 0 0 1 1.87 4.137v3.341h2.066v12.396a1.216 1.216 0 0 1-1.338 1.336H2.778a1.22 1.22 0 0 1-1.338-1.337v-12.43h2.058V8.067a6.6 6.6 0 0 1 .412-2.442 6.1 6.1 0 0 1 3.67-3.657 7 7 0 0 1 2.418-.497m0-.857a7.8 7.8 0 0 0-2.744.523A6.92 6.92 0 0 0 3.12 5.282a7.4 7.4 0 0 0-.48 2.758v1.85H1.278c-.515 0-.695.18-.695.703v12.575a2.054 2.054 0 0 0 2.195 2.193h14.156a2.06 2.06 0 0 0 2.195-2.193v-12.55c0-.53-.18-.702-.72-.702h-1.337V7.381a6.74 6.74 0 0 0-2.135-4.652A7.03 7.03 0 0 0 9.997.613"/><path d="M9.295 21.678h-.37a1.04 1.04 0 0 1-.796-.326 1.1 1.1 0 0 1-.223-.856L8 19.69c.06-.574.12-1.148.189-1.713a2.65 2.65 0 0 1-.806-1.893 2.42 2.42 0 0 1 .78-1.765 2.57 2.57 0 0 1 1.852-.668 2.507 2.507 0 0 1 2.324 2.626 2.46 2.46 0 0 1-.764 1.64l-.042.111c.068.557.137 1.123.197 1.714l.085.805a.975.975 0 0 1-1.037 1.182H9.295zm.566-7.205a1.6 1.6 0 0 0-1.107.446 1.53 1.53 0 0 0-.514 1.156 1.64 1.64 0 0 0 .523 1.208.86.86 0 0 1 .283.797c-.069.565-.137 1.13-.197 1.713l-.086.814a.4.4 0 0 0 0 .188h2.204a.4.4 0 0 0 0-.188l-.095-.814c-.06-.565-.12-1.122-.188-1.713a.92.92 0 0 1 .3-.857 1.59 1.59 0 0 0 .137-2.184 1.66 1.66 0 0 0-1.166-.6zm4.578-4.137H5.308V7.595a4.52 4.52 0 0 1 3.805-4.217 4.53 4.53 0 0 1 4.932 2.82 6 6 0 0 1 .394 1.67zM6.2 9.479h7.383V7.937a5.6 5.6 0 0 0-.266-1.439 3.676 3.676 0 0 0-4.007-2.27 3.68 3.68 0 0 0-3.084 3.418v1.25z"/></mask><path fill="#495747" d="M9.998 1.47a6.25 6.25 0 0 1 4.287 1.859 5.94 5.94 0 0 1 1.87 4.137v3.341h2.066v12.396a1.216 1.216 0 0 1-1.338 1.336H2.778a1.22 1.22 0 0 1-1.338-1.337v-12.43h2.058V8.067a6.6 6.6 0 0 1 .412-2.442 6.1 6.1 0 0 1 3.67-3.657 7 7 0 0 1 2.418-.497m0-.857a7.8 7.8 0 0 0-2.744.523A6.92 6.92 0 0 0 3.12 5.282a7.4 7.4 0 0 0-.48 2.758v1.85H1.278c-.515 0-.695.18-.695.703v12.575a2.054 2.054 0 0 0 2.195 2.193h14.156a2.06 2.06 0 0 0 2.195-2.193v-12.55c0-.53-.18-.702-.72-.702h-1.337V7.381a6.74 6.74 0 0 0-2.135-4.652A7.03 7.03 0 0 0 9.997.613"/><path fill="#495747" d="M9.295 21.678h-.37a1.04 1.04 0 0 1-.796-.326 1.1 1.1 0 0 1-.223-.856L8 19.69c.06-.574.12-1.148.189-1.713a2.65 2.65 0 0 1-.806-1.893 2.42 2.42 0 0 1 .78-1.765 2.57 2.57 0 0 1 1.852-.668 2.507 2.507 0 0 1 2.324 2.626 2.46 2.46 0 0 1-.764 1.64l-.042.111c.068.557.137 1.123.197 1.714l.085.805a.975.975 0 0 1-1.037 1.182H9.295zm.566-7.205a1.6 1.6 0 0 0-1.107.446 1.53 1.53 0 0 0-.514 1.156 1.64 1.64 0 0 0 .523 1.208.86.86 0 0 1 .283.797c-.069.565-.137 1.13-.197 1.713l-.086.814a.4.4 0 0 0 0 .188h2.204a.4.4 0 0 0 0-.188l-.095-.814c-.06-.565-.12-1.122-.188-1.713a.92.92 0 0 1 .3-.857 1.59 1.59 0 0 0 .137-2.184 1.66 1.66 0 0 0-1.166-.6zm4.578-4.137H5.308V7.595a4.52 4.52 0 0 1 3.805-4.217 4.53 4.53 0 0 1 4.932 2.82 6 6 0 0 1 .394 1.67zM6.2 9.479h7.383V7.937a5.6 5.6 0 0 0-.266-1.439 3.676 3.676 0 0 0-4.007-2.27 3.68 3.68 0 0 0-3.084 3.418v1.25z"/><path stroke="#495747" stroke-width=".743" d="M9.998 1.47a6.25 6.25 0 0 1 4.287 1.859 5.94 5.94 0 0 1 1.87 4.137v3.341h2.066v12.396a1.216 1.216 0 0 1-1.338 1.336H2.778a1.22 1.22 0 0 1-1.338-1.337v-12.43h2.058V8.067a6.6 6.6 0 0 1 .412-2.442 6.1 6.1 0 0 1 3.67-3.657 7 7 0 0 1 2.418-.497Zm0-.857a7.8 7.8 0 0 0-2.744.523A6.92 6.92 0 0 0 3.12 5.282a7.4 7.4 0 0 0-.48 2.758v1.85H1.278c-.515 0-.695.18-.695.703v12.575a2.054 2.054 0 0 0 2.195 2.193h14.156a2.06 2.06 0 0 0 2.195-2.193v-12.55c0-.53-.18-.702-.72-.702h-1.337V7.381a6.74 6.74 0 0 0-2.135-4.652A7.03 7.03 0 0 0 9.997.613Z" mask="url(#b)"/><path stroke="#495747" stroke-width=".743" d="M9.295 21.678h-.37a1.04 1.04 0 0 1-.796-.326 1.1 1.1 0 0 1-.223-.856L8 19.69c.06-.574.12-1.148.189-1.713a2.65 2.65 0 0 1-.806-1.893 2.42 2.42 0 0 1 .78-1.765 2.57 2.57 0 0 1 1.852-.668 2.507 2.507 0 0 1 2.324 2.626 2.46 2.46 0 0 1-.764 1.64l-.042.111c.068.557.137 1.123.197 1.714l.085.805a.975.975 0 0 1-1.037 1.182H9.295zm.566-7.205a1.6 1.6 0 0 0-1.107.446 1.53 1.53 0 0 0-.514 1.156 1.64 1.64 0 0 0 .523 1.208.86.86 0 0 1 .283.797c-.069.565-.137 1.13-.197 1.713l-.086.814a.4.4 0 0 0 0 .188h2.204a.4.4 0 0 0 0-.188l-.095-.814c-.06-.565-.12-1.122-.188-1.713a.92.92 0 0 1 .3-.857 1.59 1.59 0 0 0 .137-2.184 1.66 1.66 0 0 0-1.166-.6zm4.578-4.137H5.308V7.595a4.52 4.52 0 0 1 3.805-4.217 4.53 4.53 0 0 1 4.932 2.82 6 6 0 0 1 .394 1.67zM6.2 9.479h7.383V7.937a5.6 5.6 0 0 0-.266-1.439 3.676 3.676 0 0 0-4.007-2.27 3.68 3.68 0 0 0-3.084 3.418v1.25z" mask="url(#b)"/></g><defs><clipPath id="a"><path fill="#fff" d="M0 0h19.809v26H0z"/></clipPath></defs></svg>