<svg xmlns="http://www.w3.org/2000/svg" width="41" height="45" fill="none" viewBox="0 0 41 45"><path fill="#495747" d="M7.5 44.2c-.7 0-1.4-.5-1.5-1.1l-6-27c-.1-.4 0-.7.2-1s.6-.6 1-.6l12.5-2.2c.1 0 .2 0 .2-.1l8.5-5.3c.3-.2.8-.3 1.2-.2l10.1 1.8c.6.1 1.1.5 1.2 1.1l5.5 24.9c.1.4 0 .8-.3 1.1q-.45.6-1.2.6l-8.9.1c-.1 0-.2 0-.3.1L21 41.8c-.2.1-.4.2-.6.2L7.8 44.2zM23.4 7.5c-.1 0-.3 0-.4.1l-8.5 5.3c-.2.1-.4.2-.6.2L1.4 15.3c-.2 0-.3.1-.4.2 0 .1-.1.2-.1.3l5.9 27c.1.3.4.4.7.4L20.2 41c.1 0 .2 0 .2-.1l8.7-5.4c.2-.2.5-.2.8-.2l9.1-.1c.2 0 .4-.1.5-.2s.1-.2.1-.3l-5.5-25c0-.2-.2-.3-.5-.4L23.5 7.5z"/><path fill="#495747" d="m23.19 7.078-.877.2 6.585 28.757.877-.2zM14.534 12.495l-.883.175 5.73 29.04.884-.174zM11.8 39.7c-.2 0-.4-.2-.5-.4 0 0 0-.4-.1-1 0-.3.2-.5.5-.5s.5.2.5.5c0 .6.1.9.1.9 0 .3-.2.5-.5.5"/><path fill="#495747" d="M11.7 36.8c-.3 0-.5-.2-.5-.5 0-.7.1-1.3.1-2 0-.3.3-.4.5-.4.3 0 .4.3.4.5-.1.6-.1 1.3-.1 1.9.1.3-.1.5-.4.5m.5-3.8q-.15 0 0 0c-.3-.1-.5-.3-.5-.6.1-.7.3-1.3.5-1.9q.15-.45.6-.3c.2.1.4.3.3.6-.2.6-.3 1.2-.5 1.9 0 .1-.2.3-.4.3m1.1-3.8h-.2c-.2-.1-.3-.4-.2-.6l.9-1.8c.1-.2.4-.3.7-.2.2.1.3.4.2.7-.3.5-.6 1.1-.9 1.7-.2.1-.3.2-.5.2m2.1-3.3c-.1 0-.2 0-.3-.1-.2-.2-.2-.5 0-.7.5-.5 1-1 1.5-1.4.2-.2.5-.1.7.1s.1.5-.1.7c-.5.4-.9.8-1.4 1.3-.2.1-.3.1-.4.1m3-2.3c-.2 0-.3-.1-.4-.3s0-.5.2-.6c.3-.1.5-.2.8-.4.4-.1.7-.3 1-.4.2-.1.5 0 .6.3.1.2 0 .5-.3.6s-.7.3-1 .4c-.2.1-.5.2-.7.3 0 0-.1.1-.2.1m3.6-1.5c-.2 0-.4-.1-.4-.3-.1-.2 0-.5.3-.6.7-.3 1.3-.5 1.8-.7.2-.1.5 0 .6.3.1.2 0 .5-.3.6-.6.2-1.2.5-1.8.7-.1-.1-.1 0-.2 0m3.6-1.6c-.2 0-.3-.1-.4-.3s0-.5.2-.6c.7-.3 1.2-.6 1.7-.9.2-.1.5-.1.7.2.1.2.1.5-.2.6q-.75.45-1.8.9c0 .1-.1.1-.2.1m3.3-2.1c-.1 0-.2 0-.3-.1-.2-.2-.2-.5 0-.7.4-.4.7-.9 1-1.5.1-.2.4-.3.6-.2s.3.4.2.6c-.3.7-.7 1.2-1.2 1.7-.1.2-.2.2-.3.2M30.7 15h-.1c-.2-.1-.4-.3-.3-.6l.3-.9q.15-.45.6-.3t.3.6l-.3.9c-.1.2-.3.3-.5.3"/><path fill="#afd0b8" d="M31 0c-1.2 0-5.5.6-5.5 5.9 0 3.7 3.7 7 5 8q.45.3.9 0c1.3-1 5-4.3 5-8C36.4.6 32.1 0 31 0m.3 6.5c-1.2.2-2.2-.8-1.9-1.9.1-.6.6-1.2 1.2-1.3 1.2-.2 2.2.8 1.9 1.9 0 .7-.6 1.2-1.2 1.3"/></svg>