<svg width="31" height="31" viewBox="0 0 31 31" fill="none" xmlns="http://www.w3.org/2000/svg">
<path d="M22.4252 3.12805C22.7829 2.77042 23.2074 2.48672 23.6747 2.29317C24.142 2.09962 24.6428 2 25.1486 2C25.6544 2 26.1552 2.09962 26.6225 2.29317C27.0897 2.48672 27.5143 2.77042 27.8719 3.12805C28.2296 3.48569 28.5133 3.91027 28.7068 4.37754C28.9004 4.84482 29 5.34564 29 5.85142C29 6.35719 28.9004 6.85801 28.7068 7.32529C28.5133 7.79257 28.2296 8.21714 27.8719 8.57478L9.48925 26.9575L2 29L4.04252 21.5108L22.4252 3.12805Z" stroke="#CE6854" stroke-width="2.72336" stroke-linecap="round" stroke-linejoin="round"/>
</svg>
