<svg width="15" height="16" viewBox="0 0 15 16" fill="none" xmlns="http://www.w3.org/2000/svg">
<g clip-path="url(#clip0)">
<path d="M11.5337 4.61701H10.6376C10.6366 3.5719 10.2209 2.56991 9.48191 1.83091C8.7429 1.09191 7.74091 0.676259 6.69581 0.675171H4.17204C3.12765 0.677346 2.12671 1.09348 1.3886 1.83236C0.650484 2.57124 0.2354 3.57261 0.234314 4.61701V15.4725H1.05639V4.61701C1.05639 3.79031 1.38451 2.99741 1.96869 2.41245C2.55287 1.8275 3.34534 1.49833 4.17204 1.49724H6.69581C7.52289 1.49833 8.31578 1.82737 8.90061 2.4122C9.48545 2.99704 9.81449 3.78993 9.81557 4.61701H8.58246C7.73543 4.61701 6.92308 4.95349 6.32414 5.55244C5.72519 6.15138 5.38871 6.96373 5.38871 7.81076C5.38871 7.86091 5.40863 7.909 5.44409 7.94446C5.47955 7.97992 5.52764 7.99984 5.57779 7.99984H14.5425C14.5923 7.99879 14.6398 7.97853 14.675 7.9433C14.7103 7.90807 14.7305 7.86058 14.7316 7.81076C14.7305 6.96335 14.3931 6.15102 13.7935 5.55219C13.1939 4.95336 12.3811 4.61701 11.5337 4.61701Z" fill="#495747"/>
<path d="M7.0616 8.73559C7.02096 8.73504 6.98063 8.74264 6.94298 8.75793C6.90533 8.77323 6.87112 8.79592 6.84238 8.82465C6.81365 8.85339 6.79096 8.88759 6.77566 8.92525C6.76037 8.9629 6.75277 9.00323 6.75332 9.04387V9.66043C6.75332 9.74219 6.7858 9.8206 6.84362 9.87841C6.90143 9.93622 6.97984 9.9687 7.0616 9.9687C7.14336 9.9687 7.22177 9.93622 7.27959 9.87841C7.3374 9.8206 7.36988 9.74219 7.36988 9.66043V9.04387C7.36988 8.96211 7.3374 8.8837 7.27959 8.82589C7.22177 8.76807 7.14336 8.73559 7.0616 8.73559Z" fill="#495747"/>
<path d="M7.06157 10.4373C6.97981 10.4373 6.9014 10.4698 6.84359 10.5276C6.78577 10.5854 6.7533 10.6638 6.7533 10.7456V11.8307C6.7533 11.9125 6.78577 11.9909 6.84359 12.0487C6.9014 12.1065 6.97981 12.139 7.06157 12.139C7.14333 12.139 7.22175 12.1065 7.27956 12.0487C7.33737 11.9909 7.36985 11.9125 7.36985 11.8307V10.762C7.3715 10.7203 7.36478 10.6787 7.35008 10.6396C7.33538 10.6006 7.313 10.5649 7.28426 10.5346C7.25552 10.5043 7.22101 10.4801 7.18276 10.4634C7.14452 10.4467 7.10331 10.4378 7.06157 10.4373Z" fill="#495747"/>
<path d="M7.06157 12.6076C6.97981 12.6076 6.9014 12.64 6.84359 12.6979C6.78577 12.7557 6.7533 12.8341 6.7533 12.9158V13.5324C6.7533 13.6142 6.78577 13.6926 6.84359 13.7504C6.9014 13.8082 6.97981 13.8407 7.06157 13.8407C7.14333 13.8407 7.22175 13.8082 7.27956 13.7504C7.33737 13.6926 7.36985 13.6142 7.36985 13.5324V12.9158C7.36879 12.8344 7.33596 12.7566 7.27838 12.699C7.2208 12.6414 7.143 12.6086 7.06157 12.6076Z" fill="#495747"/>
<path d="M9.2072 8.73559C9.12544 8.73559 9.04703 8.76807 8.98922 8.82589C8.9314 8.8837 8.89893 8.96211 8.89893 9.04387V9.66043C8.89893 9.74219 8.9314 9.8206 8.98922 9.87841C9.04703 9.93622 9.12544 9.9687 9.2072 9.9687C9.28896 9.9687 9.36738 9.93622 9.42519 9.87841C9.483 9.8206 9.51548 9.74219 9.51548 9.66043V9.04387C9.51603 9.00323 9.50844 8.9629 9.49314 8.92525C9.47784 8.88759 9.45516 8.85339 9.42642 8.82465C9.39768 8.79592 9.36348 8.77323 9.32583 8.75793C9.28818 8.74264 9.24784 8.73504 9.2072 8.73559Z" fill="#495747"/>
<path d="M9.2072 10.4373C9.12577 10.4384 9.04798 10.4712 8.9904 10.5288C8.93281 10.5864 8.89999 10.6642 8.89893 10.7456V11.8307C8.89893 11.9125 8.9314 11.9909 8.98922 12.0487C9.04703 12.1065 9.12544 12.139 9.2072 12.139C9.28896 12.139 9.36738 12.1065 9.42519 12.0487C9.483 11.9909 9.51548 11.9125 9.51548 11.8307V10.762C9.51772 10.7202 9.5114 10.6783 9.49691 10.639C9.48242 10.5997 9.46007 10.5637 9.43121 10.5333C9.40236 10.5029 9.36762 10.4787 9.3291 10.4622C9.29059 10.4457 9.24911 10.4372 9.2072 10.4373Z" fill="#495747"/>
<path d="M9.2072 12.6076C9.12577 12.6086 9.04798 12.6414 8.9904 12.699C8.93281 12.7566 8.89999 12.8344 8.89893 12.9158V13.5324C8.89893 13.6142 8.9314 13.6926 8.98922 13.7504C9.04703 13.8082 9.12544 13.8407 9.2072 13.8407C9.28896 13.8407 9.36738 13.8082 9.42519 13.7504C9.483 13.6926 9.51548 13.6142 9.51548 13.5324V12.9158C9.51548 12.8341 9.483 12.7557 9.42519 12.6979C9.36738 12.64 9.28896 12.6076 9.2072 12.6076Z" fill="#495747"/>
<path d="M11.3569 8.7356C11.2752 8.7356 11.1968 8.76807 11.1389 8.82589C11.0811 8.8837 11.0486 8.96211 11.0486 9.04387V9.66043C11.0486 9.74219 11.0811 9.8206 11.1389 9.87841C11.1968 9.93623 11.2752 9.9687 11.3569 9.9687C11.4387 9.9687 11.5171 9.93623 11.5749 9.87841C11.6327 9.8206 11.6652 9.74219 11.6652 9.66043V9.04387C11.6652 8.96211 11.6327 8.8837 11.5749 8.82589C11.5171 8.76807 11.4387 8.7356 11.3569 8.7356Z" fill="#495747"/>
<path d="M11.3569 10.4373C11.2755 10.4384 11.1977 10.4712 11.1401 10.5288C11.0825 10.5864 11.0497 10.6641 11.0486 10.7456V11.8307C11.0486 11.9125 11.0811 11.9909 11.1389 12.0487C11.1968 12.1065 11.2752 12.139 11.3569 12.139C11.4387 12.139 11.5171 12.1065 11.5749 12.0487C11.6327 11.9909 11.6652 11.9125 11.6652 11.8307V10.762C11.6669 10.7203 11.6601 10.6787 11.6454 10.6396C11.6307 10.6006 11.6083 10.5649 11.5796 10.5346C11.5509 10.5043 11.5164 10.4801 11.4781 10.4634C11.4399 10.4467 11.3987 10.4378 11.3569 10.4373Z" fill="#495747"/>
<path d="M11.3569 12.6076C11.2755 12.6086 11.1977 12.6414 11.1401 12.699C11.0825 12.7566 11.0497 12.8344 11.0486 12.9158V13.5324C11.0486 13.6142 11.0811 13.6926 11.1389 13.7504C11.1968 13.8082 11.2752 13.8407 11.3569 13.8407C11.4387 13.8407 11.5171 13.8082 11.5749 13.7504C11.6327 13.6926 11.6652 13.6142 11.6652 13.5324V12.9158C11.6641 12.8344 11.6313 12.7566 11.5737 12.699C11.5161 12.6414 11.4384 12.6086 11.3569 12.6076Z" fill="#495747"/>
<path d="M13.5067 8.73559C13.466 8.73504 13.4257 8.74264 13.388 8.75793C13.3504 8.77323 13.3162 8.79592 13.2875 8.82465C13.2587 8.85339 13.236 8.88759 13.2207 8.92525C13.2054 8.9629 13.1978 9.00323 13.1984 9.04387V9.66043C13.1984 9.74219 13.2309 9.8206 13.2887 9.87841C13.3465 9.93622 13.4249 9.9687 13.5067 9.9687C13.5884 9.9687 13.6668 9.93622 13.7247 9.87841C13.7825 9.8206 13.8149 9.74219 13.8149 9.66043V9.04387C13.8149 8.96211 13.7825 8.8837 13.7247 8.82589C13.6668 8.76807 13.5884 8.73559 13.5067 8.73559Z" fill="#495747"/>
<path d="M13.5067 10.4373C13.4249 10.4373 13.3465 10.4698 13.2887 10.5276C13.2309 10.5854 13.1984 10.6638 13.1984 10.7456V11.8307C13.1984 11.9125 13.2309 11.9909 13.2887 12.0487C13.3465 12.1065 13.4249 12.139 13.5067 12.139C13.5885 12.139 13.6669 12.1065 13.7247 12.0487C13.7825 11.9909 13.815 11.9125 13.815 11.8307V10.762C13.8166 10.7203 13.8099 10.6787 13.7952 10.6396C13.7805 10.6006 13.7581 10.5649 13.7294 10.5346C13.7007 10.5043 13.6661 10.4801 13.6279 10.4634C13.5896 10.4467 13.5484 10.4378 13.5067 10.4373Z" fill="#495747"/>
<path d="M13.5067 12.6076C13.4249 12.6076 13.3465 12.64 13.2887 12.6979C13.2309 12.7557 13.1984 12.8341 13.1984 12.9158V13.5324C13.1984 13.6142 13.2309 13.6926 13.2887 13.7504C13.3465 13.8082 13.4249 13.8407 13.5067 13.8407C13.5885 13.8407 13.6669 13.8082 13.7247 13.7504C13.7825 13.6926 13.815 13.6142 13.815 13.5324V12.9158C13.8139 12.8344 13.7811 12.7566 13.7235 12.699C13.6659 12.6414 13.5881 12.6086 13.5067 12.6076Z" fill="#495747"/>
</g>
<defs>
<clipPath id="clip0">
<rect width="14.7973" height="15.2083" fill="white" transform="translate(0 0.486084)"/>
</clipPath>
</defs>
</svg>
