<svg xmlns="http://www.w3.org/2000/svg" width="32" height="32" fill="var(--color-green)" viewBox="0 0 256 256"><path d="M62 236a10 10 0 1 1-10-10 10 10 0 0 1 10 10m22-42a10 10 0 1 0 10 10 10 10 0 0 0-10-10m-64 0a10 10 0 1 0 10 10 10 10 0 0 0-10-10m32-32a10 10 0 1 0 10 10 10 10 0 0 0-10-10M254 40a6 6 0 0 1-6 6h-29.51l-28.9 28.89-21.76 127.43a14 14 0 0 1-23.71 7.57l-98-98a14 14 0 0 1 7.6-23.71l127.4-21.76 30.65-30.65A6 6 0 0 1 216 34h32a6 6 0 0 1 6 6m-77.34 39.34L55.7 100a2 2 0 0 0-1.11 3.39l98 98a2 2 0 0 0 3.39-1.09Z"/></svg>