<svg xmlns="http://www.w3.org/2000/svg" width="23" height="19" fill="none" viewBox="0 0 23 19"><path fill="#495747" d="M15.315 14.893c-.332 0-.553.22-.553.548v1.478c0 .548-.332.986-.719.986H1.825c-.387 0-.72-.438-.72-.986V2.081c0-.548.333-.986.72-.986h12.274c.387 0 .718.438.718.986V3.45c0 .328.222.547.553.547s.553-.219.553-.547V2.08C15.923.93 15.093 0 14.1 0H1.825C.829 0 0 .93 0 2.08v14.84C0 18.07.83 19 1.825 19h12.274c.995 0 1.824-.93 1.824-2.08v-1.48c-.055-.328-.276-.547-.608-.547"/><path fill="#495747" d="m22.834 9.09-4.81-4.764a.54.54 0 0 0-.774 0 .526.526 0 0 0 0 .766l3.87 3.833H8.57c-.332 0-.553.22-.553.548s.221.547.553.547h12.495l-3.87 3.833a.526.526 0 0 0 0 .767.6.6 0 0 0 .387.164.6.6 0 0 0 .387-.164l4.81-4.764a.5.5 0 0 0 .166-.383c0-.165 0-.274-.11-.384"/></svg>