<svg xmlns="http://www.w3.org/2000/svg" width="32" height="40" fill="none" viewBox="0 0 32 40"><path fill="#495747" d="M24.968 39.822c-.089 0-.223 0-.312-.044L4.718 36.404c-1.024-.178-1.692-1.154-1.558-2.175L8.323 3.996c.089-.489.356-.933.756-1.2.4-.31.89-.399 1.424-.31l19.94 3.374c1.023.178 1.69 1.154 1.557 2.176l-5.207 30.233c-.134.932-.935 1.553-1.825 1.553M10.192 3.285a.9.9 0 0 0-.579.178c-.222.133-.356.4-.4.621L4.05 34.406c-.089.533.267 1.066.801 1.154l19.939 3.374c.534.09 1.068-.266 1.157-.799L31.11 7.858c.089-.533-.267-1.066-.801-1.154L10.369 3.33c-.044-.045-.133-.045-.177-.045"/><path fill="#afd0b8" d="M24.122 3.064c-.445-.089-.8-.444-.845-.888-.134-1.065-.98-1.998-2.092-2.175a2.54 2.54 0 0 0-2.67 1.376c-.223.4-.668.622-1.113.533l-.98-.133a.87.87 0 0 0-1.023.71l-.445 2.708a.867.867 0 0 0 .712 1.021l8.723 1.465a.87.87 0 0 0 1.024-.71l.445-2.708a.867.867 0 0 0-.712-1.021z"/><path fill="#fff" d="M20.873 2.353a.489.489 0 1 0 .001-.978.489.489 0 0 0 0 .978"/><path fill="#495747" d="M28.662 11.276h-.089L10.415 8.17a.46.46 0 0 1-.356-.533.46.46 0 0 1 .534-.355l18.158 3.108a.46.46 0 0 1 .356.532.43.43 0 0 1-.445.355m-2.047 12.119h-.09L8.368 20.29a.46.46 0 0 1-.356-.533.46.46 0 0 1 .534-.355l18.159 3.107a.46.46 0 0 1 .356.533c-.045.178-.267.355-.445.355m-2.093 12.119h-.09L6.276 32.408a.46.46 0 0 1-.356-.532.46.46 0 0 1 .534-.356l18.159 3.108a.46.46 0 0 1 .356.533.48.48 0 0 1-.445.355M21.808 14.25h-.089L9.747 12.21a.46.46 0 0 1-.356-.533.46.46 0 0 1 .534-.355l11.972 2.042a.46.46 0 0 1 .356.533.43.43 0 0 1-.445.355m6.187 1.064h-.09l-4.54-.754a.46.46 0 0 1-.355-.533.46.46 0 0 1 .534-.355l4.495.754a.46.46 0 0 1 .356.533c0 .222-.223.355-.4.355m-16.023 1.421h-.089l-2.804-.488a.46.46 0 0 1-.356-.533.46.46 0 0 1 .534-.355l2.804.488a.46.46 0 0 1 .356.533c-.044.222-.267.355-.445.355m15.31 2.619h-.089L13.62 17.048a.46.46 0 0 1-.356-.533.46.46 0 0 1 .534-.355l13.575 2.308a.46.46 0 0 1 .355.533.43.43 0 0 1-.445.355m-7.567 7.014h-.089L7.655 24.329a.46.46 0 0 1-.356-.532.46.46 0 0 1 .534-.355l11.972 2.042a.46.46 0 0 1 .356.532.43.43 0 0 1-.445.356m6.187 1.064h-.09l-4.539-.799a.46.46 0 0 1-.356-.533.46.46 0 0 1 .534-.355l4.54.755a.46.46 0 0 1 .356.533c-.045.222-.223.4-.445.4M9.88 28.857h-.089l-2.803-.488a.46.46 0 0 1-.357-.533.46.46 0 0 1 .535-.355l2.803.488a.46.46 0 0 1 .357.533.48.48 0 0 1-.446.355m15.355 2.619h-.089l-13.574-2.308a.46.46 0 0 1-.356-.533.46.46 0 0 1 .534-.355l13.574 2.308a.46.46 0 0 1 .356.533c-.044.178-.267.355-.445.355"/><path fill="#fff" d="m2.937 20.555-.979-1.465c-.089-.133-.311-.133-.356.044l-.534 1.687-.578 1.865c-.045.133-.045.266-.045.444L2.67 38.979c.045.4.4.666.801.621l2.315-.31a.71.71 0 0 0 .623-.8L4.184 22.642c0-.133-.09-.31-.178-.443z"/><path fill="#495747" d="M3.382 40c-.267 0-.49-.044-.712-.222-.267-.178-.4-.444-.445-.755L0 23.174c-.045-.222 0-.444.045-.666l1.112-3.551a.69.69 0 0 1 .534-.444.64.64 0 0 1 .623.266l2.048 3.108c.133.177.178.4.222.621l2.225 15.85a1.1 1.1 0 0 1-.222.843 1.2 1.2 0 0 1-.757.444L3.56 40zM1.87 19.756l-.934 3.063c-.045.089-.045.178-.045.267l2.225 15.849c0 .088.045.133.09.177.044.044.133.044.177.044l2.315-.31c.089 0 .133-.045.178-.09.044-.044.044-.132.044-.177L3.694 22.73a.6.6 0 0 0-.089-.266z"/><path fill="#495747" d="m1.157 20.422 1.513-.178-.756-1.154z"/><path fill="#495747" d="m.757 20.733 1.112-2.087 1.157 1.776zm1.157-1.244-.356.666.712-.088z"/></svg>