<svg xmlns="http://www.w3.org/2000/svg" data-name="Layer 1" viewBox="0 0 30.63 20.1"><path d="M7.07 2.26 24.7 19.78" style="stroke:#495747;stroke-linecap:round;stroke-miterlimit:10;fill:none"/><path d="m9.34 10.64.38.4 3.4 3.45a.48.48 0 0 1 .13.37L13 18.3h3.1L11 7.36 9.34 5.77ZM17 18.3h5.01l-9.38-9.28zm-10.98 0h5.85l-2.92-6.48zm-.32-7.74L1.94 18.3h3l-.26-3.55a.46.46 0 0 1 .14-.38l3.73-3.73V5l-.32-.32Zm22.93 7.74L20.94 2.41H9.52l.88 1.87L24.57 18.3z" style="fill:none"/><path d="M17 18.3 12.63 9 11 7.36l5.1 10.94H13l.3-3.44a.48.48 0 0 0-.13-.37L9.72 11l-.38-.4V5.77L8.55 5v5.64l-3.73 3.73a.46.46 0 0 0-.14.38l.26 3.55h-3l3.76-7.74 2.53-5.9-.62-.61L5 10.14l-3.85 7.94a.83.83 0 0 0 0 .81.6.6 0 0 0 .52.31h3.61v.05-.05h17.63l-.9-.9Zm-11 0 3-6.48 2.92 6.48Zm23.43-.22-8-16.49v-.07H8.7l-.33.75 2 2-.85-1.86h11.42l7.69 15.89h-4.17l.28.32a7 7 0 0 1 .54.58h3.58a.63.63 0 0 0 .53-.31.86.86 0 0 0 .04-.81" style="fill:#495747"/></svg>