<svg xmlns="http://www.w3.org/2000/svg" width="55" height="31" fill="none" viewBox="0 0 55 31"><path fill="#495747" d="M53.5 30.8H1c-.8 0-1.3-.8-.9-1.5l7.4-12.9 7.1-13.9h24.2l15.4 26.7c.5.8 0 1.6-.7 1.6m-52.4-1h52.3L38.3 3.6h-23L8.5 16.9z"/><path fill="#495747" d="M30.1 30.8c-.2 0-.4-.1-.5-.3L13.1.8c-.1-.3 0-.6.2-.7.3-.1.6 0 .7.2L30.5 30c.1.3 0 .6-.2.7-.1.1-.1.1-.2.1"/><path fill="#495747" d="M15 3.9v13.6l-1 .8-6.5 5.4.6 6.6L15 17.5"/><path fill="#495747" d="M8.1 30.8H8c-.2 0-.4-.2-.4-.5L7 23.8c0-.2.1-.3.2-.4l6.5-5.4.8-.7V3.9c0-.3.2-.5.5-.5s.5.2.5.5v13.6c0 .1 0 .2-.1.2L8.6 30.5c-.1.2-.3.3-.5.3m0-6.8.4 4.5 4.7-8.8z"/><path fill="#495747" d="m15 17.5 1 .8 6.5 5.6-.6 6.4z"/><path fill="#495747" d="M21.9 30.8c-.2 0-.4-.1-.5-.3l-6.9-12.8c-.1-.2-.1-.5.1-.7s.5-.2.7 0l1 .9 6.6 5.6c.1.1.2.3.2.5l-.6 6.4c0 .2-.2.4-.4.5zm-5.1-11.1 4.7 8.8.4-4.4zM15.1 3.9c-.1 0-.2 0-.3-.1-.3-.1-.3-.5-.2-.7L16.2.3c.1-.3.5-.3.7-.2.3.1.3.5.2.7l-1.6 2.8c-.1.2-.3.3-.4.3M38.6 4.1 36.7.8c-.1-.3-.1-.6.2-.7s.6-.1.7.2l1 1.8L39.7.3c.2-.2.5-.3.7-.2.2.2.3.5.2.7z"/></svg>