<svg xmlns="http://www.w3.org/2000/svg" fill="none" viewBox="0 0 48 48"><style>.icon-color{fill:#495747}</style><rect width="48" height="48" rx="24" style="fill:#fff"/><path d="M14.03 15.87v16.37c0 1.05.85 1.91 1.9 1.91h1.82l-2.06 2.61a.33.33 0 1 0 .52.41l.75-.94H31.8l.75.94a.33.33 0 1 0 .52-.4l-2.06-2.62h1.17c.32 0 1.26-.05 1.9-.67.44-.4.66-.96.66-1.66V15.89c0-.05.08-1.28-1.08-2.54-1.63-1.76-4.75-2.65-9.28-2.65-4.54 0-7.66.9-9.29 2.65a3.6 3.6 0 0 0-1.06 2.52m17.26 19.7H17.48l1.09-1.4.01-.02h11.6c0 .01 0 .02.02.03l1.09 1.38Zm2.78-3.75c0 .5-.14.9-.43 1.18-.57.53-1.51.49-1.54.48H15.94c-.69 0-1.25-.55-1.25-1.24V25.8h19.38zm0-6.69H14.7v-7.35h19.38v7.35Zm-9.69-13.77c5.38 0 7.74 1.32 8.77 2.42.98 1.04.93 2.02.92 2.09v1.24H14.7v-1.27s-.07-.99.9-2.04c1.02-1.1 3.38-2.44 8.8-2.44Z" class="icon-color"/><path d="M18.29 31.54a1.83 1.83 0 1 0 0-3.65 1.83 1.83 0 0 0 0 3.65m0-2.98a1.16 1.16 0 1 1 0 2.32 1.16 1.16 0 0 1 0-2.32m12.21 2.98a1.83 1.83 0 1 0 0-3.65 1.83 1.83 0 0 0 0 3.65m0-2.98a1.16 1.16 0 1 1 0 2.32 1.16 1.16 0 0 1 0-2.32m-8.61-12.88h5.02c.67 0 1.21-.55 1.21-1.22v-.08c0-.67-.54-1.22-1.2-1.22h-5.03c-.67 0-1.21.55-1.21 1.22v.08c0 .67.54 1.22 1.2 1.22Zm-.55-1.3c0-.3.25-.55.55-.55h5.02c.3 0 .55.24.55.55v.08c0 .3-.25.55-.55.55H21.9a.55.55 0 0 1-.55-.54v-.1Z" class="icon-color"/><rect width="39" height="39" x="4.5" y="4.5" stroke-width="3" rx="19.5" style="stroke:#04bc16"/></svg>