<svg xmlns="http://www.w3.org/2000/svg" fill="none" viewBox="0 0 22 28"><path stroke="#495747" stroke-linecap="round" stroke-linejoin="round" stroke-width="1.905" d="M.994 12.999h20.007M.994 6.33h20.007M7.186 22.527l-2.858 3.811m10.481-3.811 2.858 3.811m.476-24.772H3.853a2.86 2.86 0 0 0-2.86 2.859v15.243a2.86 2.86 0 0 0 2.858 2.858h14.291A2.86 2.86 0 0 0 21 19.668V4.425a2.86 2.86 0 0 0-2.858-2.859ZM10.998 6.33V13"/><path fill="#495747" d="M5.757 19.669a1.43 1.43 0 1 0 0-2.858 1.43 1.43 0 0 0 0 2.858m10.481 0a1.43 1.43 0 1 0 0-2.858 1.43 1.43 0 0 0 0 2.858"/></svg>