<svg xmlns="http://www.w3.org/2000/svg" fill="none" viewBox="0 0 22 28">
    <path stroke="#495747" stroke-linecap="round" stroke-linejoin="round" stroke-width="1.905" d="M.994 12.999h20.007M.994 6.33h20.007M7.186 22.527l-2.858 3.811M14.809 22.527l2.858 3.811M18.143 1.566H3.853A2.858 2.858 0 0 0 .993 4.425v15.243a2.858 2.858 0 0 0 2.858 2.858h14.291a2.858 2.858 0 0 0 2.858-2.858V4.425a2.858 2.858 0 0 0-2.858-2.859ZM10.998 6.33V13"/>
    <path fill="#495747" d="M5.757 19.669a1.43 1.43 0 1 0 0-2.858 1.43 1.43 0 0 0 0 2.858ZM16.238 19.669a1.43 1.43 0 1 0 0-2.858 1.43 1.43 0 0 0 0 2.858Z"/>
</svg>
