<svg xmlns="http://www.w3.org/2000/svg" fill="none" viewBox="0 0 76 75"><rect width="75" height="75" x=".5" fill="#CFE3D4" rx="37.5"/><path fill="#495747" d="M54.555 33.14a7.48 7.48 0 0 0-4.968-2.323c-1.386-5.19-6.144-8.88-11.573-8.88-5.43 0-10.189 3.69-11.574 8.88a7.48 7.48 0 0 0-4.968 2.322c-1.842 1.932-2.538 4.632-1.794 7.344.876 3.222 3.895 5.407 7.236 5.418h.03a7.443 7.443 0 0 0 4.83-1.758 11.902 11.902 0 0 0 6.246 1.758h.012a.894.894 0 0 0 .889-.888v-.048c0-.48-.39-.864-.864-.864h-.066c-2.047 0-3.966-.756-5.73-1.788a1.1 1.1 0 0 0-1.326.174 5.718 5.718 0 0 1-4.338 1.602c-2.892-.168-5.262-2.568-5.394-5.46a5.697 5.697 0 0 1 1.584-4.242 5.713 5.713 0 0 1 4.158-1.782l.948.042.15-.75c.954-4.728 5.148-8.154 9.978-8.154s9.024 3.431 9.978 8.154l.15.75.948-.042a5.68 5.68 0 0 1 4.158 1.782 5.72 5.72 0 0 1 1.584 4.242c-.132 2.892-2.502 5.292-5.394 5.46a5.731 5.731 0 0 1-4.332-1.596 1.11 1.11 0 0 0-1.392-.144c-.006.006-.012.006-.012.013-.48.33-.39.947.018 1.361.09.09.174.193.534.42 1.638 1.044 3.365 1.86 5.292 1.747 3.798-.222 6.906-3.372 7.086-7.176a7.505 7.505 0 0 0-2.083-5.575Z"/><path fill="#495747" d="m48.052 39.121-5.124-5.124a2.042 2.042 0 0 0-2.898 0l-5.124 5.124a.894.894 0 0 0 0 1.272.894.894 0 0 0 1.272 0l4.404-4.404v16.098a.899.899 0 1 0 1.8 0V35.99l4.404 4.404a.894.894 0 0 0 1.272 0 .911.911 0 0 0-.006-1.272Z"/></svg>