<svg xmlns="http://www.w3.org/2000/svg" width="17" height="20" fill="none" viewBox="0 0 17 20"><path fill="#fff" d="M15.097 19.34c.825 0 1.459-.792 1.332-1.584-.698-3.829-3.933-6.733-7.866-6.733S1.396 13.927.634 17.756c-.126.858.508 1.584 1.332 1.584z"/><path fill="#495747" d="M15.097 20H1.967c-.571 0-1.142-.264-1.523-.726-.38-.462-.507-1.056-.38-1.65.76-4.225 4.376-7.261 8.5-7.261s7.675 3.036 8.5 7.26c.126.595-.064 1.189-.381 1.65-.444.463-1.015.727-1.586.727M8.5 11.683c-3.489 0-6.534 2.574-7.231 6.205a.59.59 0 0 0 .127.528c.126.198.317.264.57.264h13.131c.19 0 .38-.066.57-.264a.59.59 0 0 0 .128-.528c-.698-3.565-3.743-6.205-7.295-6.205"/><path fill="#fff" d="M8.5 8.845c2.172 0 3.933-1.832 3.933-4.093 0-2.26-1.76-4.092-3.933-4.092S4.567 2.492 4.567 4.752 6.328 8.845 8.5 8.845"/><path fill="#495747" d="M8.5 9.439c-2.474 0-4.567-2.112-4.567-4.753S6.026 0 8.5 0s4.567 2.112 4.567 4.752S11.037 9.44 8.5 9.44m0-8.119c-1.776 0-3.298 1.518-3.298 3.432 0 1.915 1.458 3.433 3.298 3.433s3.299-1.518 3.299-3.433S10.339 1.32 8.5 1.32"/></svg>