<svg xmlns="http://www.w3.org/2000/svg" width="16" height="19" fill="none" viewBox="0 0 16 19"><path stroke="#495747" stroke-linecap="round" stroke-miterlimit="10" d="M8 17.158c-3.242 0-5.933-2.419-6.055-5.47-.061-.864.183-1.727.55-2.476a25.5 25.5 0 0 1 4.16-6.506.8.8 0 0 1 .183-.23c.795-.806 1.529-.864 2.263 0a40 40 0 0 1 2.691 3.57c.795 1.209 1.468 2.475 1.957 3.8 1.101 2.993-1.04 6.62-4.71 7.196-.366.058-.672.058-1.039.116Z"/><path d="M8.673 14.049s2.202-.058 2.446-2.764z"/><path stroke="#495747" stroke-linecap="round" stroke-miterlimit="10" d="M8.673 14.049s2.202-.058 2.446-2.764"/></svg>