<svg width="93" height="93" viewBox="0 0 93 93" fill="none" xmlns="http://www.w3.org/2000/svg">
<path d="M46.5 91C71.0767 91 91 71.0767 91 46.5C91 21.9233 71.0767 2 46.5 2C21.9233 2 2 21.9233 2 46.5C2 71.0767 21.9233 91 46.5 91Z" stroke="#495747" stroke-width="2.72171" stroke-miterlimit="10"/>
<path d="M77.7996 15.3365L15.3363 77.7999" stroke="#495747" stroke-width="2.72171" stroke-miterlimit="10"/>
<path d="M68.9541 30.7141C70.315 33.0275 71.8119 35.2049 73.1728 37.3823C73.445 37.7905 73.8532 38.1988 74.3976 38.471C76.4388 39.4236 78.4801 40.3762 80.5214 41.1927C82.6988 42.1453 83.6514 43.7783 83.3792 46.2278C83.2431 47.4526 83.3792 48.5413 83.3792 49.7661C83.5153 52.2156 81.6101 54.393 79.1606 54.393C79.0245 54.393 78.8884 54.393 78.6162 54.393C77.7997 54.393 77.1193 53.8486 76.9832 53.1682C75.7584 48.4052 71.8119 46.3639 68.2737 46.3639C64.8716 46.3639 61.3333 48.5413 60.1086 52.4878C59.7003 53.5765 58.6116 54.393 57.3869 54.393H34.6606C33.4358 54.393 32.3471 53.7125 31.9389 52.4878C31.3945 50.7187 30.4419 49.2217 28.8089 48.133C27.1759 46.9083 25.4067 46.3639 23.5015 46.3639C19.8272 46.5 16.289 48.6774 15.2003 53.0321C14.9282 53.9847 13.9756 54.5291 13.023 54.393C11.1178 53.9847 9.7569 52.4878 9.7569 50.3104C9.7569 48.9495 9.7569 47.4526 9.7569 46.0918C9.7569 44.0505 11.1178 42.1453 13.159 41.6009C16.9694 40.5122 20.9159 39.4236 24.7263 38.471C25.5428 38.1988 26.0872 37.9266 26.6315 37.2462C28.5367 34.7966 30.4419 32.3471 32.3471 29.7615C33.1636 28.8089 34.2523 28.1284 35.6132 28.2645L65.8242 28.6728C67.0489 28.8089 68.2737 29.4893 68.9541 30.7141Z" stroke="#495747" stroke-width="2.72171" stroke-miterlimit="10"/>
<path d="M23.6376 49.6299C26.7676 49.6299 29.2171 52.0794 29.2171 55.2094C29.2171 58.2033 26.6315 60.7889 23.6376 60.7889C20.5076 60.7889 18.0581 58.2033 18.0581 55.0733C18.0581 52.0794 20.6437 49.6299 23.6376 49.6299Z" stroke="#495747" stroke-width="2.72171" stroke-miterlimit="10"/>
<path d="M68.5459 49.6299C71.6758 49.6299 74.1254 52.0794 74.1254 55.2094C74.1254 58.2033 71.5397 60.7889 68.5459 60.7889C65.4159 60.7889 62.9663 58.2033 62.9663 55.0733C62.9663 52.0794 65.4159 49.6299 68.5459 49.6299Z" stroke="#495747" stroke-width="2.72171" stroke-miterlimit="10"/>
</svg>
