<svg width="215" height="178" viewBox="0 0 215 178" fill="none" xmlns="http://www.w3.org/2000/svg">
<g clip-path="url(#clip0)">
<path d="M200.596 60.8704C203.107 61.2657 204.428 62.715 206.014 63.5055C207.468 64.296 208.261 64.296 208.789 62.4515C210.639 56.3908 212.621 50.3301 214.604 44.4011C215 43.3471 215.264 42.4248 213.943 41.8978C210.243 40.4485 206.807 38.3404 202.843 38.2087C194.782 37.9452 186.853 38.0769 178.792 38.2087C177.999 38.2087 176.678 37.8134 176.414 38.8675C175.753 41.6343 174.299 40.3168 173.11 39.658C166.106 35.9689 152.231 36.6276 146.681 43.7424C145.36 45.4552 144.302 45.3234 143.113 43.6106C141.659 41.3708 139.545 39.658 137.034 38.8675C134.259 38.0769 133.731 36.3641 133.995 33.9926C134.127 32.4115 133.995 30.9622 133.995 29.3812C133.995 25.4285 134.524 21.3441 133.599 17.655C130.824 5.53364 116.816 3.68908 109.02 9.74977C107.566 10.8038 107.037 11.1991 105.848 9.35451C103.602 5.66539 100.166 3.29381 96.2016 1.84452C89.0658 -0.395304 81.6656 0.263467 74.3977 -4.15882e-05C71.6226 -0.131796 70.8297 0.790484 70.8297 3.55732C70.9619 13.7024 70.8297 23.8475 70.9619 34.1243C70.9619 36.2324 70.3012 37.2864 68.1868 36.8911C61.7117 35.5736 55.8973 37.0229 50.3472 40.185C48.7615 41.1073 47.8365 40.712 46.7793 39.3945C45.8543 38.0769 44.7972 36.8911 42.815 36.8911C30.5255 36.6276 18.236 37.5499 6.07866 36.2324C3.83219 35.9689 3.17147 37.0229 3.30361 39.131C3.43576 43.3471 3.30361 47.4315 3.30361 51.6476C3.30361 58.3671 3.30361 58.3671 10.043 58.6306C12.0252 58.7623 12.6859 58.8941 11.3645 61.0022C7.92869 66.2723 4.62506 71.6743 1.32143 77.0762C0.924999 77.735 -1.60038e-05 78.262 0.264274 79.316C0.660709 81.0288 6.60724 85.5085 8.58941 85.5085C20.6146 85.5085 32.5077 85.5085 44.5329 85.5085C46.1186 85.5085 47.7043 85.5085 47.5722 83.2686C47.4401 81.8193 48.1008 81.8193 49.4222 82.3464C53.1223 84.0592 55.5009 86.299 56.6902 90.3834C59.3331 99.3427 62.6367 108.038 65.5439 116.734C66.3368 119.238 65.0154 122.268 62.3725 123.454C60.126 124.508 60.2581 121.873 59.201 121.082C58.1438 120.292 57.2188 119.369 56.1616 118.711C46.2508 112.255 30.9219 115.021 22.0682 121.214C20.4825 122.268 19.8217 123.585 19.9539 125.562C20.3503 130.041 20.3503 134.521 20.6146 139.001C20.8789 142.163 26.8254 145.457 29.8648 144.007C32.2434 142.953 34.4898 141.241 37.397 140.977C34.4898 146.906 28.6755 151.781 21.1432 154.152C18.6324 154.943 17.7074 156.129 18.1039 158.632C19.0289 164.034 18.8967 169.568 18.6324 174.97C18.5003 177.736 19.6896 178.132 22.0682 178.263C36.3399 178.659 50.6115 177.341 64.7511 177.605C65.0154 177.605 65.1475 177.605 65.4118 177.605C66.6011 177.605 67.394 177.209 67.394 176.024C67.2618 173.125 68.7154 173.916 70.169 174.838C79.0227 180.503 92.5015 178.263 98.8445 172.203C99.2409 171.807 99.7695 171.017 100.43 171.544C101.091 171.939 100.959 172.73 100.827 173.389C100.298 176.682 102.016 177.078 104.791 177.078C118.27 177.341 131.749 175.892 145.227 176.419C148.267 176.551 150.381 176.024 149.72 171.939C155.535 175.892 161.481 177.341 168.089 176.419C175.224 175.365 181.435 172.466 185.4 166.274C193.196 154.284 193.196 141.241 188.042 128.46C183.682 117.393 174.167 112.518 161.746 113.309C158.442 113.572 155.667 114.89 152.363 115.68C152.363 109.092 152.363 102.637 152.363 96.1806C152.363 93.0184 151.438 90.1199 149.192 87.7483C147.606 86.1672 147.474 84.4544 148.002 82.2146C151.967 84.7179 155.799 87.6165 160.424 87.7483C172.978 88.0118 185.664 87.88 198.218 87.88C199.671 87.88 200.464 87.353 200.464 85.772C200.464 81.0288 201.389 76.2857 201.125 71.4108C200.464 67.5899 200.596 64.296 200.596 60.8704Z" fill="#FBF4DE"/>
<path d="M200.596 60.8705C200.596 64.4278 200.464 67.7217 200.596 70.8838C200.86 75.7587 199.935 80.5018 199.935 85.245C199.935 86.826 199.275 87.3531 197.689 87.3531C185.135 87.3531 172.449 87.4848 159.895 87.2213C156.724 87.2213 153.949 85.772 151.174 84.0592C149.192 82.8734 146.945 85.3767 148.663 87.0896C150.91 89.3294 151.835 92.228 151.835 95.5218C151.835 101.978 151.835 108.434 151.835 115.021C155.138 114.363 158.045 112.913 161.217 112.65C173.639 111.859 183.021 116.734 187.514 127.802C192.667 140.582 192.667 153.625 184.871 165.615C180.907 171.808 174.828 174.706 167.56 175.76C162.803 176.419 158.442 175.892 154.213 174.047C152.363 173.257 150.117 173.52 148.795 174.97C148.002 175.76 146.549 175.892 144.963 175.892C131.484 175.497 118.006 176.946 104.527 176.551C101.752 176.419 100.034 176.155 100.562 172.862C100.695 172.203 100.827 171.412 100.166 171.017C99.3731 170.49 98.9766 171.281 98.5802 171.676C92.1051 177.868 78.6263 179.976 69.9047 174.311C68.4511 173.389 66.9975 172.598 67.1297 175.497C67.1297 176.814 66.3368 177.209 65.1475 177.078C64.8832 177.078 64.7511 177.078 64.4868 177.078C50.2151 176.946 36.0756 178.132 21.8039 177.736C19.4253 177.736 18.236 177.209 18.3681 174.443C18.5003 169.041 18.6324 163.507 17.8396 158.105C17.4431 155.602 18.5003 154.416 20.8789 153.625C28.4112 151.254 34.3577 146.379 37.1327 140.45C34.2255 140.714 31.9791 142.295 29.6005 143.48C26.6933 144.798 20.6146 141.636 20.3503 138.474C20.086 133.994 19.9539 129.514 19.6896 125.035C19.5574 123.058 20.2182 121.741 21.8039 120.687C30.7898 114.494 45.9865 111.728 55.8973 118.184C56.9545 118.974 57.8795 119.896 58.9367 120.555C59.9938 121.346 59.8617 123.981 62.1082 122.927C65.0154 121.609 66.4689 118.052 64.8832 115.417C60.9188 108.697 58.0117 101.451 57.0866 93.6773C56.5581 89.0659 55.1045 86.1673 52.7259 84.0592C51.008 82.6099 48.3651 83.0052 46.7793 84.5862C46.2508 85.1132 45.3257 85.1132 44.2686 85.1132C32.2434 85.1132 20.3503 85.1132 8.32512 85.1132C6.34294 85.1132 0.396411 80.6336 -2.3853e-05 78.9208C-0.264314 77.735 0.924992 77.208 1.18928 76.4175C2.64288 72.7283 4.22862 69.171 6.73937 66.1406C12.818 58.8941 12.9502 58.3671 9.77871 58.2354C3.03931 57.9719 3.03931 57.9719 3.03931 51.2524C3.03931 47.0363 3.17146 42.9519 3.03931 38.7357C3.03931 36.6277 3.70004 35.7054 5.81436 35.8372C18.1038 37.1547 30.3933 36.2324 42.5507 36.4959C44.5329 36.4959 45.59 37.8135 46.515 38.9993C47.5722 40.3168 48.4972 40.7121 50.083 39.7898C55.633 36.6277 61.5796 35.1784 67.9225 36.4959C70.0369 36.8912 70.8297 35.9689 70.6976 33.7291C70.5654 23.584 70.6976 13.4389 70.5654 3.1621C70.5654 0.395262 71.3583 -0.395264 74.1334 -0.395264C81.2692 -0.131755 88.5372 -0.658772 95.4087 1.4493C99.6373 2.76684 103.337 5.53368 105.716 9.2228C106.773 10.9356 107.302 10.4086 108.755 9.35455C116.684 3.29386 130.691 5.13841 133.599 16.9963C134.656 21.2124 133.731 25.9556 133.995 30.4352C134.127 31.3575 133.995 32.2798 133.863 33.2021C133.599 35.7054 134.127 37.4182 136.902 38.2087C139.413 38.9993 141.527 40.7121 142.981 42.9519C144.038 44.6647 145.227 44.7964 146.549 43.0836C152.231 35.9689 165.974 35.3101 172.978 38.9993C174.167 39.658 175.621 40.9756 176.281 38.2087C176.546 37.1547 177.735 37.55 178.66 37.55C186.721 37.55 194.65 37.4182 202.71 37.55C206.675 37.6817 210.111 39.7898 213.811 41.2391C215.132 41.7661 214.736 42.6884 214.471 43.7424C212.489 49.8031 210.507 55.732 208.657 61.7927C208.128 63.6373 207.336 63.6373 205.882 62.8468C204.428 62.715 203.107 61.2657 200.596 60.8705ZM97.523 47.8268C95.9373 44.4012 95.9373 44.4012 91.3122 44.4012C89.1979 44.4012 88.5372 44.7964 88.5372 47.0363C88.5372 55.205 88.2729 63.3738 88.1407 71.6743C88.0086 79.7113 88.0086 79.7113 96.3337 79.7113C98.1838 79.7113 98.7123 79.1843 98.7123 77.3397C98.5802 70.4885 98.8445 63.5055 98.7123 56.6543C98.7123 54.0192 99.9016 53.097 102.016 52.7017C106.245 51.7794 108.888 54.151 109.02 59.6847C109.152 63.9008 109.02 68.2487 109.02 72.4648C108.888 80.1066 108.888 80.1066 116.684 80.1066C116.948 80.1066 117.08 80.1066 117.345 80.1066C118.798 80.3701 119.195 79.7113 119.195 78.262C119.195 71.279 119.327 64.2961 119.327 57.3131C119.327 54.0192 120.12 52.9652 123.423 52.7017C126.991 52.4382 129.37 54.678 129.502 58.7624C129.634 63.3738 129.502 67.9852 129.502 72.5966C129.502 80.3701 129.502 80.3701 137.299 80.3701C139.413 80.3701 140.074 79.9748 140.074 77.735C139.942 71.0155 140.074 64.1643 140.074 57.4448C139.942 46.5092 131.22 41.1073 121.706 46.2457C118.931 47.695 116.552 49.1443 114.041 45.8505C113.645 45.3235 112.72 45.0599 112.059 44.9282C106.509 42.9519 101.884 44.5329 97.523 47.8268ZM102.545 146.642C102.545 142.69 102.016 139.132 101.091 135.707C99.2409 128.065 92.6337 122.004 85.7621 121.609C75.8512 120.95 69.5083 124.64 66.3368 133.599C63.1653 142.69 63.6939 151.781 67.9225 160.345C74.0012 172.862 91.0479 173.389 98.5802 161.794C101.62 156.919 102.28 151.649 102.545 146.642ZM145.756 143.744C145.756 147.169 146.152 151.122 147.474 154.811C149.852 161.662 154.081 166.933 161.746 167.987C170.071 169.041 177.339 165.747 180.51 158.896C184.739 149.805 184.871 140.318 181.039 130.964C177.999 123.454 172.185 119.765 164.256 119.896C156.195 120.028 150.91 123.717 147.87 131.095C146.02 135.048 145.756 139.132 145.756 143.744ZM43.6078 159.554C45.3257 157.973 46.3829 157.183 47.3079 156.261C52.7259 150.859 56.2938 144.666 56.9545 136.761C57.4831 130.041 54.0473 124.376 47.4401 122.663C42.1543 121.214 37.0006 122.268 31.9791 123.981C28.5433 125.035 26.5611 127.011 27.4861 130.832C27.6183 131.622 27.6183 132.413 27.6183 133.072C27.4861 135.443 28.0147 136.366 30.3933 134.785C32.7719 133.335 35.4149 132.808 38.1899 132.413C44.7971 131.491 47.4401 134.258 45.3257 140.582C42.9471 147.96 37.7935 153.494 31.3184 156.788C25.9004 159.423 25.7683 162.98 26.0326 167.723C26.1647 169.568 26.5611 170.095 28.4112 170.095C36.472 169.831 44.4007 169.831 52.4616 169.568C59.9938 169.304 59.8617 169.304 59.4653 161.662C59.3331 159.818 58.8045 159.291 56.9545 159.291C52.858 159.554 48.7615 159.554 43.6078 159.554ZM126.066 157.973C127.652 156.524 128.841 155.602 129.899 154.416C136.109 147.828 140.206 140.582 138.884 131.227C138.356 127.538 136.638 124.903 133.466 122.663C128.313 119.106 116.42 120.555 110.87 124.112C110.341 124.508 109.813 124.903 109.813 125.694C109.813 128.592 109.813 131.491 109.813 134.785C113.116 132.94 115.891 131.622 118.798 131.095C121.573 130.7 124.613 129.646 126.859 132.15C129.238 134.785 128.181 137.947 127.124 140.845C126.727 142.031 126.066 143.217 125.273 144.271C122.234 148.751 118.798 153.23 113.777 155.207C108.095 157.446 107.698 161.267 108.227 166.142C108.359 168.118 108.888 168.645 110.87 168.645C118.666 168.382 126.463 168.25 134.259 168.118C141.924 167.987 141.792 168.118 141.527 160.345C141.527 158.5 140.999 157.973 139.149 157.973C135.052 158.105 130.824 157.973 126.066 157.973ZM81.4013 61.3975C81.4013 50.9889 73.8691 43.3471 63.1653 43.3471C51.6687 43.3471 44.0043 50.8571 44.0043 62.0562C44.0043 72.3331 51.6687 79.8431 62.5046 79.9748C73.4726 80.2383 81.4013 72.3331 81.4013 61.3975ZM175.753 70.3568C172.053 71.4108 168.749 72.9919 165.049 73.1236C160.953 73.2554 158.442 71.4108 157.12 67.7217C156.328 65.6136 157.12 65.3501 158.97 65.4819C162.935 65.6136 166.899 65.6136 170.864 65.7454C177.471 65.8771 177.471 65.7454 176.942 59.1577C176.149 46.5092 164.256 40.185 153.685 46.9045C145.227 52.1747 144.699 64.9548 148.267 71.9378C152.76 80.7654 166.106 84.3227 174.696 79.4478C175.489 79.0525 175.753 78.5255 175.753 77.6032C175.753 75.2317 175.753 72.8601 175.753 70.3568ZM22.9932 70.8838C28.8076 61.661 34.2255 53.097 40.1721 43.6106C30.9219 43.6106 22.4646 43.6106 14.1395 43.6106C8.06082 43.6106 8.19297 43.4789 8.19297 49.5396C8.19297 51.3842 8.5894 52.0429 10.5716 51.9112C14.8002 51.7794 19.0289 51.9112 23.6539 51.9112C17.8396 61.134 12.4216 69.698 7.00366 78.262C7.53224 78.5255 7.66439 78.6573 7.79654 78.789C16.2538 78.789 24.7111 78.9208 33.1684 78.9208C38.7185 78.9208 38.7185 78.9208 38.7185 73.2554C38.7185 71.4108 38.1899 70.752 36.3399 70.8838C32.1112 70.8838 28.0147 70.8838 22.9932 70.8838ZM76.1155 21.2124C76.1155 25.6921 76.2477 30.1717 76.1155 34.6514C76.1155 36.3642 76.6441 36.8912 78.362 36.8912C81.9299 36.7594 85.3657 37.0229 88.9336 36.8912C97.523 36.6277 103.866 30.4352 104.13 22.3982C104.395 13.1754 98.8445 6.71947 89.5943 6.06069C85.8943 5.79719 82.1942 5.92894 78.4941 5.79719C76.7763 5.66543 76.2477 6.3242 76.2477 8.03701C76.1155 12.2531 76.1155 16.7328 76.1155 21.2124ZM116.42 109.62C112.588 109.093 112.059 106.721 112.323 103.822C112.455 101.583 112.455 99.2109 112.323 96.9711C112.191 92.8867 110.473 89.9882 106.377 88.4071C101.355 86.4308 96.598 87.4848 91.7086 88.8024C88.1407 89.7246 90.3872 91.701 90.6515 93.4138C90.9158 96.0489 92.3694 95.2583 93.9551 94.7313C95.673 94.2043 97.523 93.809 99.3731 93.5455C101.487 93.1503 103.073 94.2043 103.866 96.0489C104.527 97.6299 104.659 99.0792 102.016 98.6839C99.9016 98.4204 97.9195 98.6839 95.8051 99.0792C91.7086 99.738 89.1979 102.373 89.1979 106.326C89.1979 111.069 91.7086 114.363 96.0694 114.89C99.1088 115.285 102.016 115.021 104.527 113.045C105.187 112.518 105.584 112.123 106.641 112.913C111.134 116.207 112.984 115.812 115.891 111.201C115.891 110.805 116.023 110.41 116.42 109.62ZM192.139 48.7491C191.61 44.2694 188.439 45.587 185.796 45.3235C183.682 45.06 183.285 45.8505 183.285 47.8268C183.285 56.1273 183.021 64.4278 182.889 72.7283C182.757 80.8971 182.757 80.8971 190.95 80.7654C192.932 80.7654 193.328 80.1066 193.328 78.3938C193.328 72.0696 193.46 65.7454 193.46 59.4212C193.46 55.3368 196.5 52.5699 200.464 53.624C204.032 54.678 204.957 53.3605 205.486 50.4619C205.618 49.8031 205.75 49.1443 206.014 48.6173C206.939 46.7728 205.882 46.114 204.428 45.587C199.935 44.0059 195.839 45.0599 192.139 48.7491ZM120.252 101.187C120.252 103.954 120.252 106.589 120.252 109.356C120.252 114.626 120.252 114.626 125.67 114.626C127.652 114.626 128.313 114.231 128.313 112.123C128.181 107.248 128.181 102.241 128.313 97.3664C128.313 96.5759 127.916 95.5218 128.841 94.9948C130.691 93.809 132.674 93.4138 134.788 93.9408C136.77 94.4678 137.299 96.1806 137.563 97.8934C138.092 101.714 137.827 105.535 137.827 109.356C137.827 114.89 137.827 114.758 143.51 114.626C145.227 114.626 145.756 113.967 145.756 112.386C145.624 107.116 145.888 101.846 145.624 96.7076C145.227 89.1976 141.395 86.1673 133.863 87.4848C132.277 87.7483 130.824 88.5389 129.37 89.3294C128.181 89.8564 127.256 90.6469 126.331 88.6706C125.273 86.5625 123.027 87.8801 121.309 87.8801C119.591 87.8801 120.384 89.5929 120.384 90.5152C120.12 93.9408 120.252 97.6299 120.252 101.187ZM88.0086 88.0118C86.4228 87.3531 84.9693 87.8801 83.6478 87.6166C80.6085 87.0896 79.287 88.2754 78.4941 91.3057C77.437 95.3901 75.7191 99.3427 74.1334 104.086C72.6798 99.8697 71.6226 96.4441 70.4333 93.1502C68.5833 87.6166 68.5833 87.7483 63.0332 87.7483C60.3903 87.7483 60.5224 88.6706 61.1831 90.5152C63.1653 96.3123 65.1475 102.241 67.1297 108.17C69.5083 115.021 69.5083 115.021 76.7763 114.758C77.0405 114.758 77.1727 114.758 77.437 114.758C78.4941 114.758 79.1549 114.363 79.5513 113.177C82.3263 104.745 85.2335 96.4441 88.0086 88.0118ZM128.049 30.04C125.406 30.8305 123.027 31.7528 120.516 31.7528C118.006 31.7528 116.42 30.567 115.495 28.3272C114.834 26.8779 114.966 26.3508 116.684 26.3508C119.856 26.4826 123.027 26.2191 126.199 26.4826C128.577 26.6144 129.37 25.8238 128.974 23.584C128.841 22.7935 128.974 22.003 128.841 21.3442C128.577 16.601 126.595 13.7024 122.631 12.3849C118.138 10.9356 113.116 12.2531 110.473 15.6788C107.17 19.7631 106.773 27.1414 109.548 31.7528C112.059 35.9689 117.345 38.077 122.895 37.1547C128.709 36.1007 128.709 36.1007 128.049 30.04Z" fill="#F8F7F7"/>
<path d="M97.523 47.8267C101.884 44.5328 106.509 42.9518 111.927 44.6646C112.588 44.9281 113.513 45.0598 113.909 45.5869C116.42 48.749 118.666 47.4314 121.573 45.9821C131.22 40.9755 139.942 46.3774 139.942 57.1812C139.942 63.9007 139.809 70.7519 139.942 77.4714C139.942 79.7112 139.281 80.1065 137.167 80.1065C129.37 80.1065 129.37 80.1065 129.37 72.333C129.37 67.7216 129.502 63.1102 129.37 58.4988C129.238 54.4144 126.859 52.1746 123.291 52.4381C119.988 52.7016 119.195 53.7556 119.195 57.0495C119.195 64.0325 119.063 71.0154 119.063 77.9984C119.063 79.4477 118.666 80.1065 117.213 79.843C116.948 79.843 116.816 79.843 116.552 79.843C108.755 79.843 108.755 79.843 108.887 72.2012C108.887 67.9851 109.152 63.6372 108.887 59.4211C108.623 53.8874 106.112 51.3841 101.884 52.4381C99.7694 52.9651 98.5801 53.8874 98.5801 56.3907C98.7123 63.2419 98.5801 70.2249 98.5801 77.0761C98.5801 78.9207 98.0516 79.4477 96.2015 79.4477C88.0085 79.4477 87.8764 79.5795 88.0085 71.4107C88.1407 63.2419 88.405 55.0732 88.405 46.7727C88.405 44.5328 89.1978 44.1376 91.18 44.1376C95.9372 44.4011 95.9372 44.2693 97.523 47.8267Z" fill="#15171A"/>
<path d="M102.545 146.642C102.28 151.781 101.62 157.051 98.5802 161.662C90.9158 173.257 74.0012 172.73 67.9226 160.213C63.6939 151.649 63.0332 142.558 66.3368 133.467C69.5083 124.508 75.8513 120.819 85.7621 121.477C92.6337 121.873 99.2409 127.933 101.091 135.575C102.016 139.132 102.545 142.69 102.545 146.642ZM91.3122 145.457C91.1801 143.612 91.4444 141.109 90.9158 138.605C89.5943 132.545 87.3479 129.91 83.2514 129.91C79.1549 129.91 76.6441 132.545 75.8513 138.737C75.0584 144.534 74.7941 150.463 77.1727 156.129C78.362 159.159 80.4763 161.135 84.1764 160.872C87.7443 160.74 89.33 158.368 90.3872 155.47C91.5765 152.571 91.4444 149.409 91.3122 145.457Z" fill="#15171A"/>
<path d="M145.756 143.744C145.756 139.001 146.153 134.916 147.738 131.096C150.91 123.717 156.196 120.028 164.124 119.896C172.053 119.765 177.867 123.454 180.907 130.964C184.739 140.318 184.475 149.805 180.378 158.896C177.207 165.747 169.939 169.173 161.614 167.987C153.817 166.933 149.72 161.663 147.342 154.811C146.153 151.122 145.756 147.17 145.756 143.744ZM172.714 144.008C172.449 139.923 172.582 136.102 170.864 132.677C169.41 129.91 167.296 128.46 163.992 128.592C160.953 128.724 158.971 130.569 158.178 133.072C155.799 140.45 155.931 147.828 158.706 155.075C159.763 157.973 162.142 159.555 165.314 159.423C168.617 159.291 170.467 157.183 171.524 154.416C172.714 150.99 172.714 147.17 172.714 144.008Z" fill="#15171A"/>
<path d="M43.6078 159.554C48.7614 159.554 52.9901 159.686 57.0866 159.554C58.9366 159.554 59.4652 160.081 59.5973 161.926C59.9937 169.568 59.9937 169.568 52.5936 169.831C44.5328 170.095 36.6041 170.095 28.5432 170.358C26.6932 170.358 26.2968 169.831 26.1646 167.987C25.9003 163.375 26.0325 159.818 31.4504 157.051C38.0577 153.757 43.0792 148.224 45.4578 140.845C47.44 134.521 44.9292 131.754 38.322 132.677C35.5469 133.072 32.904 133.599 30.5254 135.048C28.1468 136.497 27.6182 135.575 27.7504 133.335C27.7504 132.545 27.8825 131.754 27.6182 131.095C26.6932 127.275 28.6754 125.298 32.1111 124.244C37.1327 122.531 42.2863 121.609 47.5721 122.927C54.1794 124.64 57.6151 130.305 57.0866 137.024C56.4258 144.93 52.8579 151.122 47.44 156.524C46.2507 157.183 45.3256 157.973 43.6078 159.554Z" fill="#15171A"/>
<path d="M126.066 157.973C130.956 157.973 135.052 158.105 139.149 157.973C140.999 157.842 141.527 158.5 141.527 160.345C141.792 168.118 141.792 168.118 134.259 168.118C126.463 168.25 118.666 168.382 110.87 168.645C108.888 168.777 108.359 168.118 108.227 166.142C107.698 161.135 108.095 157.446 113.777 155.207C118.798 153.23 122.234 148.619 125.273 144.271C126.066 143.217 126.727 142.031 127.124 140.845C128.181 137.947 129.238 134.785 126.859 132.15C124.613 129.646 121.573 130.7 118.798 131.096C115.759 131.623 112.984 133.072 109.813 134.785C109.813 131.359 109.813 128.46 109.813 125.694C109.813 124.903 110.341 124.508 110.87 124.113C116.42 120.423 128.313 119.106 133.466 122.663C136.506 124.771 138.356 127.538 138.884 131.227C140.206 140.582 136.109 147.96 129.899 154.416C128.709 155.602 127.52 156.524 126.066 157.973Z" fill="#15171A"/>
<path d="M81.4014 61.3975C81.4014 72.3331 73.3406 80.2384 62.5047 79.9749C51.6688 79.8431 44.0044 72.3331 44.0044 62.0563C44.0044 50.8572 51.6688 43.3472 63.1654 43.3472C73.8692 43.3472 81.5336 50.8572 81.4014 61.3975ZM70.8298 61.3975C70.8298 55.8638 67.9226 52.0429 63.5619 51.9112C58.4082 51.6477 55.6332 54.4145 54.7081 60.3435C54.0474 65.0866 56.8225 70.3568 60.7868 71.4108C66.3369 72.8601 70.962 68.3805 70.8298 61.3975Z" fill="#15171A"/>
<path d="M175.753 70.3569C175.753 72.8602 175.753 75.1 175.753 77.3398C175.753 78.2621 175.489 78.7891 174.696 79.1844C166.106 84.0593 152.76 80.5019 148.267 71.6744C144.699 64.6914 145.227 51.9113 153.685 46.6411C164.256 40.0534 176.017 46.2458 176.942 58.8942C177.339 65.482 177.339 65.6137 170.864 65.482C166.899 65.482 162.935 65.482 158.97 65.2184C157.12 65.0867 156.328 65.3502 157.12 67.4583C158.442 71.1474 160.953 72.9919 165.049 72.8602C168.749 73.1237 172.053 71.4109 175.753 70.3569ZM157.12 57.8402C160.028 57.8402 162.671 57.8402 165.181 57.8402C165.842 57.8402 166.899 58.2355 166.635 56.9179C166.371 55.2051 165.842 53.6241 164.256 52.8335C162.803 52.1748 161.217 52.3065 160.028 53.3606C158.706 54.4146 157.781 55.7321 157.12 57.8402Z" fill="#15171A"/>
<path d="M22.9932 70.8837C28.0147 70.8837 32.1112 71.0155 36.3399 70.8837C38.1899 70.8837 38.7185 71.4107 38.7185 73.2553C38.7185 79.0525 38.8506 78.9207 33.1684 78.9207C24.7111 78.9207 16.2538 78.789 7.79653 78.789C7.66439 78.789 7.4001 78.6572 7.00366 78.262C12.4216 69.6979 17.8396 61.0021 23.6539 51.9111C18.8967 51.9111 14.8002 51.7793 10.5716 51.9111C8.72155 51.9111 8.19297 51.3841 8.19297 49.5395C8.19297 43.4788 8.19297 43.6106 14.1395 43.6106C22.5968 43.6106 30.9219 43.6106 40.1721 43.6106C34.2255 52.9651 28.8076 61.6609 22.9932 70.8837Z" fill="#15171A"/>
<path d="M76.1155 21.2124C76.1155 16.7328 76.2477 12.2532 76.1155 7.77351C76.1155 6.06071 76.6441 5.53369 78.362 5.53369C82.0621 5.66545 85.7621 5.53369 89.4622 5.7972C98.5802 6.45597 104.13 12.9119 103.998 22.1347C103.734 30.1717 97.3909 36.3642 88.8015 36.6277C85.2335 36.7594 81.7978 36.4959 78.2299 36.6277C76.512 36.6277 75.9834 36.2324 75.9834 34.3879C76.1155 30.1717 76.1155 25.6921 76.1155 21.2124ZM83.3835 21.3442C83.3835 23.584 83.3835 25.9556 83.3835 28.1954C83.3835 28.9859 83.1192 30.04 84.5728 30.04C88.5372 30.04 92.2372 29.513 95.0123 26.3509C97.1266 23.8475 97.523 20.9489 96.3337 18.1821C94.6159 14.493 91.3122 12.9119 87.48 12.5167C84.5728 12.1214 82.8549 12.7802 83.5157 16.2058C83.5157 17.9186 83.3835 19.6314 83.3835 21.3442Z" fill="#15171A"/>
<path d="M116.42 109.62C116.023 110.41 115.759 110.805 115.627 111.069C112.852 115.68 111.002 116.076 106.377 112.782C105.32 111.991 104.923 112.387 104.262 112.914C101.752 115.022 98.8445 115.153 95.8051 114.758C91.4443 114.231 88.9336 111.069 88.9336 106.194C88.9336 102.241 91.4444 99.6064 95.5408 98.9476C97.6552 98.5523 99.6373 98.2888 101.752 98.5523C104.395 98.9476 104.262 97.3665 103.602 95.9172C102.809 94.0727 101.223 93.0186 99.1088 93.4139C97.2587 93.6774 95.4087 94.0727 93.6908 94.5997C92.1051 95.1267 90.7836 95.9172 90.3872 93.2822C90.255 91.5694 88.0086 89.593 91.4443 88.6708C96.3337 87.3532 101.091 86.2992 106.112 88.2755C110.077 89.8565 111.795 92.7551 112.059 96.8395C112.191 99.0793 112.191 101.451 112.059 103.691C112.191 106.721 112.588 109.224 116.42 109.62ZM101.752 103.559C100.562 104.218 97.2587 102.637 97.1266 106.326C96.9944 108.566 98.9766 108.961 100.562 108.829C102.677 108.697 104.262 107.775 104.262 105.14C104.13 103.823 103.866 103.164 101.752 103.559Z" fill="#15171A"/>
<path d="M192.139 48.7491C195.839 45.0599 199.935 44.0059 204.56 45.587C206.146 46.114 207.203 46.7728 206.146 48.6173C205.882 49.1443 205.618 49.8031 205.618 50.4619C205.089 53.3605 204.032 54.678 200.596 53.624C196.632 52.4382 193.725 55.205 193.592 59.4212C193.46 65.7454 193.328 72.0696 193.46 78.3938C193.46 80.2383 193.064 80.7653 191.082 80.7653C182.889 80.8971 182.889 81.0289 183.021 72.7283C183.153 64.4278 183.285 56.1273 183.417 47.8268C183.417 45.8505 183.814 45.0599 185.928 45.3235C188.439 45.587 191.61 44.2694 192.139 48.7491Z" fill="#15171A"/>
<path d="M120.252 101.187C120.252 97.63 120.252 93.9409 120.252 90.3835C120.252 89.4613 119.459 87.7485 121.177 87.7485C122.895 87.7485 125.141 86.5627 126.199 88.539C127.124 90.3835 128.049 89.7248 129.238 89.1978C130.691 88.539 132.145 87.7485 133.731 87.3532C141.131 86.0357 145.095 88.9343 145.492 96.576C145.756 101.846 145.492 107.116 145.624 112.255C145.624 113.968 145.227 114.495 143.377 114.495C137.695 114.626 137.695 114.758 137.695 109.224C137.695 105.404 137.959 101.583 137.431 97.7618C137.167 95.9172 136.638 94.2044 134.656 93.8092C132.542 93.2821 130.559 93.6774 128.709 94.8632C127.784 95.3902 128.181 96.4442 128.181 97.2348C128.181 102.11 128.049 107.116 128.181 111.991C128.313 114.099 127.52 114.495 125.538 114.495C120.12 114.495 120.12 114.495 120.12 109.224C120.252 106.721 120.252 103.954 120.252 101.187Z" fill="#15171A"/>
<path d="M88.0086 88.012C85.1014 96.3125 82.3263 104.613 79.5513 112.914C79.1548 114.099 78.6263 114.495 77.437 114.495C77.1727 114.495 77.0405 114.495 76.7762 114.495C69.5083 114.758 69.5083 114.758 67.1296 107.907C65.1475 102.11 63.2974 96.1807 61.1831 90.2518C60.5224 88.4072 60.3902 87.3532 63.0331 87.485C68.5832 87.6167 68.5832 87.485 70.4333 92.8869C71.6226 96.3125 72.6797 99.6064 74.1333 103.822C75.8512 99.0793 77.437 95.1267 78.4941 91.0423C79.287 88.012 80.6084 86.9579 83.6478 87.485C85.1014 87.8802 86.555 87.3532 88.0086 88.012Z" fill="#15171A"/>
<path d="M128.049 30.0399C128.709 36.1006 128.709 36.1006 122.895 37.0229C117.213 37.9452 112.059 35.8371 109.548 31.621C106.773 27.0096 107.17 19.7631 110.473 15.5469C113.116 12.2531 118.138 10.8038 122.631 12.2531C126.595 13.5706 128.709 16.4692 128.841 21.2124C128.841 22.0029 128.841 22.7934 128.974 23.4522C129.37 25.692 128.577 26.4825 126.199 26.3508C123.027 26.0873 119.856 26.3508 116.684 26.219C115.098 26.219 114.834 26.7461 115.495 28.1954C116.42 30.4352 118.138 31.621 120.516 31.621C123.027 31.7527 125.406 30.6987 128.049 30.0399ZM115.495 21.0806C117.213 21.0806 118.798 20.9489 120.252 21.0806C121.97 21.2124 121.97 20.2901 121.573 19.1043C121.177 18.0503 120.384 17.128 119.195 17.2597C117.213 17.5233 116.023 18.709 115.495 21.0806Z" fill="#15171A"/>
<path d="M91.3123 145.457C91.4444 149.278 91.4444 152.44 90.3872 155.47C89.3301 158.369 87.7443 160.608 84.1764 160.872C80.4764 161.135 78.362 159.159 77.1727 156.129C74.7941 150.463 75.0584 144.534 75.8513 138.737C76.6442 132.677 79.1549 130.041 83.2514 129.91C87.3479 129.91 89.5944 132.545 90.9158 138.605C91.4444 141.241 91.1801 143.744 91.3123 145.457Z" fill="#F8F7F7"/>
<path d="M172.714 144.007C172.714 147.301 172.714 150.99 171.392 154.548C170.335 157.446 168.485 159.423 165.181 159.554C162.01 159.686 159.631 158.105 158.574 155.206C155.799 147.96 155.667 140.582 158.045 133.203C158.838 130.7 160.82 128.856 163.86 128.724C167.163 128.592 169.278 130.041 170.731 132.808C172.449 136.102 172.317 139.791 172.714 144.007Z" fill="#F8F7F7"/>
<path d="M70.8298 61.3975C70.8298 68.2487 66.3368 72.8601 60.6546 71.4108C56.8224 70.3568 53.9152 65.0866 54.5759 60.3435C55.5009 54.4145 58.276 51.6477 63.4296 51.9112C67.9226 52.043 70.8298 55.8638 70.8298 61.3975Z" fill="#F8F7F7"/>
<path d="M157.12 57.84C157.781 55.7319 158.706 54.4144 160.028 53.3603C161.349 52.3063 162.935 52.1746 164.256 52.8333C165.842 53.6239 166.371 55.2049 166.635 56.9177C166.767 58.2353 165.842 57.84 165.181 57.84C162.538 57.84 160.028 57.84 157.12 57.84Z" fill="#F8F7F7"/>
<path d="M83.3836 21.3441C83.3836 19.6313 83.6479 17.7867 83.3836 16.0739C82.855 12.6483 84.4408 12.1213 87.348 12.3848C91.3123 12.9118 94.6159 14.3611 96.2017 18.0503C97.5231 20.9489 96.9946 23.8474 94.8802 26.219C92.1052 29.3811 88.4051 30.0399 84.4408 29.9081C82.9872 29.9081 83.2515 28.8541 83.2515 28.0636C83.3836 25.9555 83.3836 23.7157 83.3836 21.3441Z" fill="#F8F7F7"/>
<path d="M101.752 103.559C103.866 103.164 104.13 103.823 104.13 105.272C104.263 107.907 102.677 108.829 100.43 108.961C98.8446 109.093 96.8624 108.697 96.9946 106.458C97.2588 102.768 100.562 104.218 101.752 103.559Z" fill="#F8F7F7"/>
<path d="M115.495 21.0806C116.155 18.709 117.213 17.5232 119.195 17.3915C120.384 17.2597 121.177 18.182 121.573 19.2361C122.102 20.4218 122.102 21.3441 120.252 21.2124C118.798 20.9489 117.213 21.0806 115.495 21.0806Z" fill="#F8F7F7"/>
</g>
<defs>
<clipPath id="clip0">
<rect width="215" height="178" fill="white"/>
</clipPath>
</defs>
</svg>
