<svg width="19" height="22" viewBox="0 0 19 22" fill="none" xmlns="http://www.w3.org/2000/svg">
<path d="M9.7362 19.2949C6.18191 19.2949 3.23119 16.6435 3.09706 13.2976C3.03 12.3507 3.29825 11.4037 3.70062 10.583C4.84067 7.99473 6.3831 5.5958 8.26083 3.44939C8.3279 3.32313 8.39496 3.26 8.46202 3.19687C9.33382 2.31306 10.1386 2.24993 10.9433 3.19687C12.0163 4.45947 12.9552 5.72206 13.894 7.11091C14.7658 8.43664 15.5035 9.82549 16.04 11.2775C17.2471 14.5602 14.9 18.5374 10.8763 19.1687C10.4739 19.2318 10.1386 19.2318 9.7362 19.2949Z" stroke="#495747" stroke-width="1.09646" stroke-miterlimit="10" stroke-linecap="round"/>
<path d="M10.474 15.8859C10.474 15.8859 12.8882 15.8228 13.1565 12.8557" stroke="#495747" stroke-width="1.09646" stroke-miterlimit="10" stroke-linecap="round"/>
</svg>
