<svg width="23" height="23" viewBox="0 0 23 23" fill="none" xmlns="http://www.w3.org/2000/svg">
<path fill-rule="evenodd" clip-rule="evenodd" d="M16.6111 0H6.38889C2.86041 0 0 2.86041 0 6.38889V16.6111C0 20.1396 2.86041 23 6.38889 23H16.6111C20.1396 23 23 20.1396 23 16.6111V6.38889C23 2.86041 20.1396 0 16.6111 0ZM20.7639 16.6111C20.7569 18.9017 18.9017 20.7569 16.6111 20.7639H6.38889C4.09828 20.7569 2.24313 18.9017 2.23611 16.6111V6.38889C2.24313 4.09828 4.09828 2.24313 6.38889 2.23611H16.6111C18.9017 2.24313 20.7569 4.09828 20.7639 6.38889V16.6111ZM17.5694 6.70833C18.2752 6.70833 18.8472 6.13625 18.8472 5.43056C18.8472 4.72486 18.2752 4.15278 17.5694 4.15278C16.8637 4.15278 16.2917 4.72486 16.2917 5.43056C16.2917 6.13625 16.8637 6.70833 17.5694 6.70833ZM11.5 5.75C8.32436 5.75 5.75 8.32436 5.75 11.5C5.75 14.6757 8.32436 17.25 11.5 17.25C14.6757 17.25 17.25 14.6757 17.25 11.5C17.2534 9.97395 16.6487 8.50945 15.5696 7.43038C14.4905 6.35131 13.026 5.7466 11.5 5.75ZM7.98611 11.5C7.98611 13.4407 9.55931 15.0139 11.5 15.0139C13.4407 15.0139 15.0139 13.4407 15.0139 11.5C15.0139 9.55931 13.4407 7.98611 11.5 7.98611C9.55931 7.98611 7.98611 9.55931 7.98611 11.5Z" fill="#495747"/>
</svg>
