<svg width="23" height="23" viewBox="0 0 23 23" fill="none" xmlns="http://www.w3.org/2000/svg">
<path fill-rule="evenodd" clip-rule="evenodd" d="M2.55556 0H20.4444C21.8559 0 23 1.14416 23 2.55556V20.4444C23 21.8559 21.8559 23 20.4444 23H2.55556C1.14416 23 0 21.8559 0 20.4444V2.55556C0 1.14416 1.14416 0 2.55556 0ZM6.38889 19.1667C6.74173 19.1667 7.02778 18.8806 7.02778 18.5278V9.58333C7.02778 9.23054 6.74173 8.94444 6.38889 8.94444H4.47222C4.11938 8.94444 3.83333 9.23054 3.83333 9.58333V18.5278C3.83333 18.8806 4.11938 19.1667 4.47222 19.1667H6.38889ZM5.43056 7.66667C4.37201 7.66667 3.51389 6.80855 3.51389 5.75C3.51389 4.69145 4.37201 3.83333 5.43056 3.83333C6.4891 3.83333 7.34722 4.69145 7.34722 5.75C7.34722 6.80855 6.4891 7.66667 5.43056 7.66667ZM18.5278 19.1667C18.8806 19.1667 19.1667 18.8806 19.1667 18.5278V12.65C19.2082 10.6194 17.7069 8.88633 15.6911 8.63778C14.2817 8.50904 12.9162 9.16729 12.1389 10.35V9.58333C12.1389 9.23054 11.8528 8.94444 11.5 8.94444H9.58333C9.23054 8.94444 8.94444 9.23054 8.94444 9.58333V18.5278C8.94444 18.8806 9.23054 19.1667 9.58333 19.1667H11.5C11.8528 19.1667 12.1389 18.8806 12.1389 18.5278V13.7361C12.1389 12.6776 12.997 11.8194 14.0556 11.8194C15.1141 11.8194 15.9722 12.6776 15.9722 13.7361V18.5278C15.9722 18.8806 16.2583 19.1667 16.6111 19.1667H18.5278Z" fill="#495747"/>
</svg>
