<svg width="24" height="24" viewBox="0 0 24 24" fill="none" xmlns="http://www.w3.org/2000/svg">
<path d="M20.6842 6.80323C20.2266 7.41371 19.6734 7.94624 19.0459 8.38025C19.0459 8.53972 19.0459 8.69919 19.0459 8.86753C19.051 11.7635 17.8942 14.5404 15.835 16.5757C13.7756 18.611 10.9861 19.7344 8.0918 19.694C6.41851 19.6996 4.76663 19.3175 3.2656 18.5777C3.18466 18.5423 3.13246 18.4623 3.13276 18.3739V18.2764C3.13276 18.1492 3.23585 18.0461 3.36301 18.0461C5.00781 17.9918 6.59394 17.4216 7.89698 16.416C6.4082 16.3859 5.06868 15.504 4.45222 14.1478C4.42109 14.0738 4.43077 13.9888 4.47781 13.9237C4.52483 13.8585 4.60239 13.8226 4.68246 13.829C5.13493 13.8744 5.59193 13.8323 6.02849 13.7049C4.385 13.3637 3.1501 11.9993 2.97336 10.3293C2.96709 10.2492 3.00298 10.1717 3.0681 10.1246C3.13321 10.0776 3.21812 10.0678 3.29216 10.0991C3.7332 10.2937 4.2093 10.3962 4.69132 10.4002C3.25123 9.45504 2.62921 7.65724 3.17704 6.02359C3.23359 5.86485 3.36945 5.74757 3.53469 5.71488C3.69993 5.68217 3.87019 5.73886 3.98288 5.86412C5.92619 7.93237 8.59633 9.16484 11.4302 9.30164C11.3577 9.01199 11.322 8.71431 11.324 8.41569C11.3505 6.84986 12.3194 5.45499 13.777 4.8841C15.2345 4.31322 16.8924 4.67929 17.9745 5.81095C18.712 5.67044 19.425 5.42271 20.0909 5.07561C20.1397 5.04516 20.2015 5.04516 20.2503 5.07561C20.2808 5.1244 20.2808 5.18628 20.2503 5.23508C19.9278 5.97363 19.383 6.59306 18.6918 7.007C19.297 6.93681 19.8916 6.79403 20.4629 6.58175C20.511 6.54901 20.5741 6.54901 20.6222 6.58175C20.6625 6.60017 20.6927 6.63542 20.7046 6.6781C20.7165 6.72078 20.709 6.76655 20.6842 6.80323Z" fill="#495747"/>
</svg>
