<svg xmlns="http://www.w3.org/2000/svg" id="Layer_1" data-name="Layer 1" viewBox="0 0 20.89 20.1">
  <defs/>
  <path fill="none" stroke="#495747" stroke-linecap="round" stroke-miterlimit="10" d="m2.53 2.55 15.82 15.66"/>
  <path d="M10.66 15.84 5 13.65a.57.57 0 0 0-.41 1.06l4.51 1.74-4.54 1.73a.57.57 0 0 0-.32.74.56.56 0 0 0 .53.37.71.71 0 0 0 .2 0l5.69-2.19 5.69 2.19a.65.65 0 0 0 .2 0 .56.56 0 0 0 .53-.37.57.57 0 0 0-.32-.74l-4.51-1.73 2.2-.85-.89-.88ZM16.76 14.71a.57.57 0 0 0-.41-1.06l-1 .36.89.88ZM10.66 12.28A1.57 1.57 0 0 0 9.33 14 6.26 6.26 0 0 0 12 14a2 2 0 0 0-.39-1.22l-.26-.26a1.08 1.08 0 0 0-.69-.24Z" class="cls-2"/>
  <path d="m11.34 12.53.26.26a1.6 1.6 0 0 0-.26-.26ZM4.64 6.15a6.21 6.21 0 0 0 3.58 7.55A2.78 2.78 0 0 1 10 11.24L4.7 6ZM16.52 10.17c.83-2 .31-3.89-.4-5.77-.43-1.14-1-1.39-2.13-.93a2.5 2.5 0 0 0-1.08.84c-.47.65-.75.63-1.18-.08A6.76 6.76 0 0 0 7.53.88a1 1 0 0 0-1.37.74c-.26.81-.55 1.62-.83 2.43l9 8.91a6.51 6.51 0 0 0 2.19-2.79Z" class="cls-2"/>
</svg>
