<svg xmlns="http://www.w3.org/2000/svg" id="Layer_1" data-name="Layer 1" version="1.1" viewBox="0 0 20.89 20.1">
  <defs id="defs4"/>
  <path id="line6" fill="none" stroke="#495747" stroke-linecap="round" stroke-miterlimit="10" d="m2.53 2.55 15.82 15.66"/>
  <path id="path10" d="M7.51 1.81c.13-.4.27-.5.68-.5h5.87a.6.6 0 0 1 .49.17.51.51 0 0 1 0 .68l-1.82 3.2-1.69 3a1.88 1.88 0 0 1-.1.19h4.24a.51.51 0 0 1 .47.34.51.51 0 0 1-.11.54l-1.31 1.47-.93 1.1.35.36 2.29-2.59A1 1 0 0 0 15.25 8h-3.42L15 2.41a1 1 0 0 0-.09-1.26 1.09 1.09 0 0 0-.87-.34H8.19A1.06 1.06 0 0 0 7 1.65L6 4.74l.39.39Z" class="cls-3"/>
  <path id="path12" d="M7.52 18.47a.94.94 0 0 1-.42.3.49.49 0 0 1-.54-.71c.22-.53.45-1 .67-1.58l2-4.71.07-.19H5.07a.54.54 0 0 1-.55-.78 236.08 236.08 0 0 0 1.25-3.76l-.4-.39-.68 2.07L4 10.64a1.1 1.1 0 0 0 .14 1 1 1 0 0 0 .92.39h3.5l-2 4.69-.46 1.1A1.05 1.05 0 0 0 6.26 19a1 1 0 0 0 .72.34 1 1 0 0 0 .24 0 1.42 1.42 0 0 0 .67-.45l4.57-5.15-.36-.36Z" class="cls-3"/>
  <path id="path14" d="M15.57 9.39a.51.51 0 0 0 .11-.54.51.51 0 0 0-.47-.34H11a1.88 1.88 0 0 0 .1-.19l1.69-3 1.82-3.2a.51.51 0 0 0 0-.68.6.6 0 0 0-.49-.17H8.19c-.41 0-.55.1-.68.5L6.4 5.13l.4.39L8 2v-.14a.42.42 0 0 1 .16 0h6a.3.3 0 0 1 0 .11l-1.83 3.14-1.8 3.17a.5.5 0 0 0 0 .49A.49.49 0 0 0 11 9h4c.06 0 .12 0 .19.05l-2.25 2.55.36.35 1-1.09Z" class="cls-3"/>
  <path id="path16" d="M7.14 18.14c-.1.12-.17.15-.12.11l.46-1.08L9.69 12l.08-.21-.47-.17.47.17a.48.48 0 0 0-.06-.46.49.49 0 0 0-.41-.21H4.97A.43.43 0 0 1 5 11l.64-2 .53-1.6-.4-.4-.31.92c-.31 1-.62 1.9-.94 2.84a.54.54 0 0 0 .55.78H9.3l-.07.19-2 4.71-.67 1.58a.49.49 0 0 0 .54.71.94.94 0 0 0 .42-.3l4.58-5.13-.36-.3Z" class="cls-3"/>
</svg>
