<svg xmlns="http://www.w3.org/2000/svg" id="Layer_1" data-name="Layer 1" viewBox="0 0 20.89 20.1">
  <defs/>
  <path fill="none" stroke="#495747" stroke-linecap="round" stroke-miterlimit="10" d="m1.8 1.51 17.74 17.56"/>
  <path fill="none" d="M11.93 5.81h1.48A3.79 3.79 0 0 0 9.62 2H6.56a3.77 3.77 0 0 0-2.19.71l4.56 4.54a3.86 3.86 0 0 1 3-1.44Z"/>
  <path d="M6.56 2h3.06a3.79 3.79 0 0 1 3.79 3.79h-1.48a3.86 3.86 0 0 0-3 1.44l2.7 2.67h7.52a.23.23 0 0 0 .23-.23 3.88 3.88 0 0 0-3.88-3.86h-1.09A4.79 4.79 0 0 0 9.62 1H6.56a4.76 4.76 0 0 0-2.9 1l.71.7A3.77 3.77 0 0 1 6.56 2ZM8 9.69a.23.23 0 0 0 .23.23h.8L8.12 9a3.36 3.36 0 0 0-.12.69ZM1.78 5.81V19h1V5.81a3.76 3.76 0 0 1 .43-1.7l-.74-.73a4.8 4.8 0 0 0-.69 2.43ZM9.69 11.19v.75a.38.38 0 0 0 .75 0v-.66l-.44-.45a.37.37 0 0 0-.31.36ZM10.07 12.88a.38.38 0 0 0-.38.38v1.31a.38.38 0 1 0 .75 0v-1.31a.38.38 0 0 0-.37-.38ZM10.07 15.52a.38.38 0 0 0-.38.37v.75a.38.38 0 1 0 .75 0v-.75a.38.38 0 0 0-.37-.37ZM13.05 11.19a.38.38 0 0 0-.38-.38h-.12l.5.49ZM12.3 13.26v1.31a.38.38 0 1 0 .75 0v-.71l-.73-.72a.5.5 0 0 0-.02.12ZM12.67 15.52a.38.38 0 0 0-.37.37v.75a.38.38 0 1 0 .75 0v-.75a.38.38 0 0 0-.38-.37ZM14.91 11.19v.75a.38.38 0 0 0 .75 0v-.75a.38.38 0 1 0-.75 0ZM15.66 13.26a.38.38 0 0 0-.38-.38.37.37 0 0 0-.36.3l.74.73ZM14.91 15.89v.75a.38.38 0 1 0 .75 0v-.2l-.72-.7a.4.4 0 0 0-.03.15ZM18.27 11.19a.38.38 0 1 0-.75 0v.75a.38.38 0 0 0 .75 0ZM17.89 12.88a.38.38 0 0 0-.37.38v1.31a.38.38 0 1 0 .75 0v-1.31a.38.38 0 0 0-.38-.38ZM18.27 15.89a.37.37 0 0 0-.73-.11l.73.71Z" class="cls-3"/>
</svg>
