<svg xmlns="http://www.w3.org/2000/svg" id="Layer_1" data-name="Layer 1" version="1.1" viewBox="0 0 20.89 20.1">
  <defs id="defs4"/>
  <path id="line6" fill="none" stroke="#495747" stroke-linecap="round" stroke-miterlimit="10" d="m2.93 2.73 15.82 15.66"/>
  <path id="path10" d="M10.38 18.41c-.35.06-.71.08-1.06.12A6.37 6.37 0 0 1 3 12.48a6.44 6.44 0 0 1 .56-2.78 25.38 25.38 0 0 1 1.69-3.38L4.88 6a27.57 27.57 0 0 0-1.79 3.51 6.92 6.92 0 0 0-.6 3A6.85 6.85 0 0 0 9.31 19h.36c.26 0 .51-.05.77-.1A6.78 6.78 0 0 0 15 16l-.36-.36a6.25 6.25 0 0 1-4.26 2.77Z" class="cls-3"/>
  <path id="path12" d="M7.93 2.46a2 2 0 0 1 .19-.22c.82-.87 1.61-.93 2.34 0 1 1.26 1.93 2.58 2.81 3.93a20 20 0 0 1 2 4.24 5.75 5.75 0 0 1 .09 3.41l.4.4a6.27 6.27 0 0 0 0-4 20.88 20.88 0 0 0-2.1-4.35 62.96 62.96 0 0 0-2.83-4 2 2 0 0 0-1.43-.8 2.19 2.19 0 0 0-1.68.87l-.18.2c-.61.75-1.15 1.51-1.67 2.26l.37.36C6.77 4 7.32 3.2 7.93 2.46Z" class="cls-3"/>
  <path id="path14" d="M10.3 17.92c-.23 0-.46.06-.69.08h-.32a5.86 5.86 0 0 1-5.8-5.58A5.93 5.93 0 0 1 4 9.89a25.26 25.26 0 0 1 1.6-3.21l-.37-.36A25.38 25.38 0 0 0 3.56 9.7 6.44 6.44 0 0 0 3 12.48a6.37 6.37 0 0 0 6.33 6.05c.35 0 .71-.06 1.06-.12a6.25 6.25 0 0 0 4.23-2.82l-.36-.36a5.78 5.78 0 0 1-3.96 2.69Z" class="cls-3"/>
  <path id="path16" d="M15.31 10.42a20 20 0 0 0-2-4.24 51.91 51.91 0 0 0-2.81-3.93c-.73-.94-1.52-.88-2.34 0a2 2 0 0 0-.19.22C7.32 3.2 6.77 4 6.24 4.76l.36.36a27.84 27.84 0 0 1 1.71-2.34 2.17 2.17 0 0 1 .17-.19 1.44 1.44 0 0 1 .86-.52 1.06 1.06 0 0 1 .71.49 42.78 42.78 0 0 1 2.8 3.9 19.28 19.28 0 0 1 2 4.13 5.16 5.16 0 0 1 .15 2.84l.41.4a5.75 5.75 0 0 0-.1-3.41Z" class="cls-3"/>
  <path id="path18" fill="#fff" d="m11.86 12.86-1.35 1.64a2.27 2.27 0 0 0 1.35-1.64Z"/>
  <path id="path20" d="m10 15.1.51-.62a2.07 2.07 0 0 1-.53.12.5.5 0 0 0-.48.52.49.49 0 0 0 .5.48 3.16 3.16 0 0 0 2.65-2l-.39-.39A2.66 2.66 0 0 1 10 15.1Z" class="cls-3"/>
  <path id="path22" d="m12.25 13.25-.39-.39a2.27 2.27 0 0 1-1.37 1.62l-.49.62a2.66 2.66 0 0 0 2.25-1.85Z" class="cls-3"/>
  <path id="path24" d="M11.88 12.79v.05a.25.25 0 0 0 0-.05Z" class="cls-3"/>
</svg>
