<svg xmlns="http://www.w3.org/2000/svg" width="101" height="88" fill="none" viewBox="0 0 101 88"><path stroke="#ed7f69" stroke-linecap="round" stroke-linejoin="round" stroke-width="4" d="M50.554 41.423s-22.21-12.438-22.21-27.54a11.549 11.549 0 0 1 22.21-4.442v0a11.55 11.55 0 0 1 22.21 4.442c0 15.102-22.21 27.54-22.21 27.54"/><path stroke="#495747" stroke-width="4" d="M12.21 41.423h13.788c2.846 0 5.65.689 8.171 2.007l9.913 5.182a8.64 8.64 0 0 0 4.004.983h12.71a6.306 6.306 0 0 1 0 12.613H37.614h23.319c.556 0 1.107-.1 1.628-.294l26.544-9.92a6.98 6.98 0 0 1 5.263 12.922L64.917 77.923a46.5 46.5 0 0 1-40.715-1.531l-1.486-.795a18.6 18.6 0 0 0-8.771-2.198H12.21zM2.5 40.917c0-.18.146-.325.325-.325h5.482a2.65 2.65 0 0 1 2.65 2.65v28.276a2.65 2.65 0 0 1-2.65 2.65H2.825a.325.325 0 0 1-.325-.325z"/></svg>