<svg width="101" height="88" viewBox="0 0 101 88" fill="none" xmlns="http://www.w3.org/2000/svg">
<path d="M50.5539 41.4227C50.5539 41.4227 28.3444 28.9854 28.3444 13.8829C28.3444 11.2131 29.2694 8.62573 30.9621 6.56104C32.6547 4.49635 35.0104 3.08187 37.6284 2.55827C40.2464 2.03468 42.9649 2.4343 45.3215 3.68916C47.678 4.94401 49.527 6.97658 50.5539 9.44104V9.44104C51.5808 6.97658 53.4298 4.94401 55.7863 3.68916C58.1429 2.4343 60.8614 2.03468 63.4794 2.55827C66.0974 3.08187 68.4531 4.49635 70.1457 6.56104C71.8384 8.62573 72.7634 11.2131 72.7634 13.8829C72.7634 28.9854 50.5539 41.4227 50.5539 41.4227Z" stroke="#ED7F69" stroke-width="4" stroke-linecap="round" stroke-linejoin="round"/>
<path d="M12.2105 41.4233H25.9984C28.844 41.4233 31.6475 42.1118 34.1694 43.4301L44.0817 48.6115C45.3176 49.2575 46.6914 49.5949 48.086 49.5949H60.7964C64.2793 49.5949 67.1028 52.4184 67.1028 55.9013V55.9013C67.1028 59.3842 64.2793 62.2077 60.7964 62.2077H37.6138H60.933C61.4888 62.2077 62.0401 62.1081 62.5608 61.9135L89.1052 51.9942C92.6699 50.6622 96.6446 52.4313 98.0406 55.9714V55.9714C99.4146 59.4555 97.7937 63.4029 94.3677 64.916L64.9169 77.9226C51.8322 83.7014 36.8161 83.1368 24.2023 76.3919L22.716 75.5971C20.0175 74.1542 17.0048 73.3993 13.9448 73.3993H12.2105V41.4233Z" stroke="#495747" stroke-width="4"/>
<path d="M2.5 40.9169C2.5 40.7374 2.64556 40.5918 2.82512 40.5918H8.30676C9.77045 40.5918 10.957 41.7784 10.957 43.242V71.5176C10.957 72.9813 9.77045 74.1679 8.30676 74.1679H2.82513C2.64556 74.1679 2.5 74.0223 2.5 73.8428V40.9169Z" stroke="#495747" stroke-width="4"/>
</svg>
