<svg xmlns="http://www.w3.org/2000/svg" viewBox="0 0 2438 671"><path d="M267 149.6c-17.5 2.5-27.1 5.3-39.5 11.6-29 14.6-49 40-57.6 73.3-3.3 12.8-3.4 37.8-.1 50.8 11 44.2 45.4 76 90.2 83.3 18.6 3.1 45.1.4 66.5-6.7 12.3-4.1 27.1-11.3 28.4-13.7.7-1.4 1.1-15.3 1.1-43.1v-41l-2.7-2.1c-2.6-2-3.4-2.1-33.6-1.8l-30.9.3-1.9 2.4c-1.7 2-1.9 4-1.9 15.6 0 18.4-.4 17.9 17.4 18.3l13.6.4V322l-3.7 1.6c-8.4 3.5-20.7 5.7-31.8 5.8-13 .1-19.2-1.3-30-6.5-24.8-11.9-39.5-35.5-39.5-63.3 0-12.4 1.9-20.6 7-31.1 9.5-19.5 27.2-33.9 47.2-38.1 8.9-1.9 24.6-1.4 32.8 1.1 7.6 2.4 16.5 6.9 22.4 11.3 7.5 5.7 8.6 6.2 11 4.9 1.2-.6 6.7-5.9 12.4-11.8 11.6-12.2 12.3-14.1 7-19.2-5.5-5.1-19.7-13.9-29-17.9-17.6-7.6-39.8-11.3-54.8-9.2m607.1 4.3c-2.1 2.1-2.1 2.5-2.1 105.9 0 99.4.1 104 1.8 105.5 1.6 1.4 4.4 1.7 18.4 1.7 14.7 0 16.7-.2 18.1-1.8 1.5-1.7 1.7-6.1 1.7-42V283h34l20.1 40.2c11.1 22.2 20.8 41.1 21.7 42 1.3 1.6 3.7 1.8 20.3 1.8 20.3 0 21.9-.4 21.9-5.5 0-1.3-9.2-19.4-20.4-40.2-11.3-20.8-20.8-38.5-21.1-39.4-.4-1.2.3-2 2.6-2.9 10.7-4.5 27.2-18.9 33.1-29.1 6.8-11.6 9.9-28.1 7.8-41-4.3-26.1-21.3-45.4-47.5-54-6.9-2.3-7.8-2.3-57.7-2.7-50.1-.3-50.7-.3-52.7 1.7m101.7 39.2c10.7 5.3 16.2 14.2 16.2 26.2 0 12.2-6.1 21.9-17.3 27.9-4 2.2-5.3 2.3-32.9 2.6l-28.8.3V190h56.7zm975.7-38.6-2.5 2.4v89.3l-2.2-.6c-13-3.7-15-4-25.3-4-9.3 0-12.2.4-19 2.8-19.7 6.7-33.6 22.1-39.2 43.6-2.3 8.7-2.3 26.3 0 35 5.4 20.4 19.3 36.7 37.3 43.6 9.3 3.6 24.3 4.4 32.9 1.9 8.2-2.3 16.2-6.6 21.7-11.4 2.5-2.3 4.8-4.1 5.1-4.1.2 0 1 2 1.7 4.5s2.2 5.7 3.2 7c1.8 2.3 2.6 2.5 10.2 2.5 6.8 0 8.6-.3 9.9-1.8 1.6-1.7 1.7-10.5 1.7-106V155.1l-2.2-1.5c-1.8-1.3-5.2-1.6-16.6-1.6-13.8 0-14.4.1-16.7 2.5m-7.2 123.7 5.7 2.7v38.9l-3.2 4.8c-10 14.9-29.4 16.4-41.2 3.3-14.8-16.3-8.9-44.1 11-51.5 6.4-2.4 20.6-1.4 27.7 1.8M640 205.3l-2.5 1.3-.3 18.7-.2 18.7h-5.8c-9.8 0-10.2.7-10.2 16.5s.4 16.5 10.2 16.5h5.7l.3 34.2c.3 33 .4 34.5 2.6 40 2.8 6.8 8.8 13.3 15 16.1 6.5 2.9 20.1 3.5 31 1.2 9.2-1.8 21.7-5.9 23.8-7.6 2.1-1.8 1.6-5.4-2.4-17.4-4.2-12.6-4.7-12.9-14.3-10.1-7.5 2.3-14.4 2.1-16.9-.4-1.9-1.9-2-3.3-2-29v-27h13.8c18.9 0 18.2.7 18.2-16.5s.7-16.5-18.2-16.5h-13.7l-.3-17.9c-.4-23.4.6-22.1-17.7-22.1-8.9 0-14.5.5-16.1 1.3m720 0-2.5 1.3-.3 18.7-.2 18.7h-5.8c-9.8 0-10.2.7-10.2 16.5s.4 16.5 10.2 16.5h5.8v31.8c0 25.5.3 33 1.5 37.7 3.1 11.9 10.9 20 21.7 22.5 7.9 1.9 23.3.7 35.5-2.8 12-3.4 15.3-5.3 15.3-8.7 0-4.2-7-24.4-8.7-25.4-1.1-.6-3.9-.2-8.2 1-8.8 2.5-15.5 2.5-18.1-.1-1.9-1.9-2-3.3-2-29v-27h13.8c18.9 0 18.2.7 18.2-16.5s.7-16.5-18.2-16.5H1394v-17.4c0-23.5.7-22.6-17.8-22.6-9 0-14.6.5-16.2 1.3m-922 37.2c-7.2 2.1-13.4 5.8-19.3 11.7-2.6 2.6-5 4.8-5.2 4.8s-1.3-2.9-2.5-6.5-3-7-4-7.5c-1-.6-4.9-1-8.5-1-6.4 0-10.2 1.1-11.7 3.4-.4.6-.8 26.8-.8 58.1 0 50 .2 57.3 1.6 59.3 1.4 2.1 2.1 2.2 16.8 2.2 13.5 0 15.5-.2 16.9-1.8 1.5-1.7 1.7-5.9 1.7-40.5v-38.6l3.6-3.7c7-6.9 15.6-8.9 26-6.2 4.4 1.2 4.7 1.2 6.8-1.3 2.5-2.9 13.6-22.2 13.6-23.7 0-2.3-4.4-6.1-8.7-7.7-7-2.3-19.6-2.8-26.3-1m91 0c-17.8 4-34.7 17.1-42.7 33.2-10.2 20.3-9.7 42.8 1.4 62.9 1.5 2.7 6.3 8.5 10.7 13 8.8 8.8 17.8 14 29.1 16.9 7.6 1.9 21.4 1.9 29 0 31-7.9 52.2-39.8 47.6-71.4-3.6-24.9-20.5-45.4-43.5-52.7-10.1-3.2-22.5-3.9-31.6-1.9m23.7 34.4c6.1 2.8 12.7 9.4 15.4 15.4 3.5 7.8 3.3 20.2-.4 27.4-5.8 11.3-14.5 16.8-26.2 16.7s-20.7-6.1-25.9-17.4c-2.1-4.5-2.6-7-2.6-13.7 0-7.2.4-8.8 3.3-14.4 3.4-6.7 10.1-12.8 16.1-14.7 5.4-1.7 15.7-1.4 20.3.7m222.8-34.5c-13.9 3.2-23.8 8.8-33 18.8-7 7.5-10.8 14.1-14 24-9.6 30 2.7 62.6 29.1 77.4 17.3 9.7 43.5 9.9 62.1.6 8.9-4.5 16.3-10.7 16.3-13.7 0-2.7-13.2-18.9-16.4-20.1-1.2-.4-4.7.8-10.2 3.7-7.5 3.8-9.3 4.3-16.9 4.7-10.4.6-15.8-1.2-22.3-7.2-4.6-4.2-9.2-12.3-9.2-16.4V312h39.8c32.4 0 40.2-.3 41.7-1.4 2.4-1.7 3.3-9.3 2.3-18.9-2.3-22.5-16.8-40.4-38.6-47.7-8.2-2.7-22.6-3.5-30.7-1.6m22.2 30.6c3.9 2.2 6.1 4.4 8.3 8.3 5.3 9.2 6.3 8.7-19.9 8.7h-23l1-3.2c2.7-9.5 12.7-16.8 22.8-16.8 4.4 0 6.7.7 10.8 3m298.8-30.4c-30.1 6.4-52.1 35.6-50.2 66.4 1.4 22.9 15.3 44.5 35 54.4 9.5 4.7 17.3 6.6 27.7 6.6 17.2 0 31.1-5.8 43.5-18.4 26-26.1 26.2-65.7.5-91.7-15.2-15.4-35.7-21.7-56.5-17.3m25.3 35.5c6.1 3 10.1 7.1 13.8 13.9 1.5 2.8 1.9 5.6 1.9 13.5 0 10.9-1.3 14.8-7.4 21.8-11.4 13-32.8 12.1-43.2-1.7a32 32 0 0 1-6.7-22.5c1.6-21.6 22.8-34.4 41.6-25m373.7-35.6c-23.9 5.2-41.7 22.5-48.2 46.5-2.3 8.7-2.3 25.3.1 34 6.3 23.1 23.5 40.2 46 45.5 8.9 2.1 23.7 1.9 33-.5 13.8-3.5 29.6-13.4 29.6-18.5 0-2.7-13.3-18.9-16.4-20.1-1.2-.4-4.7.8-10.2 3.7-7.5 3.8-9.3 4.3-16.9 4.7-10.4.6-15.8-1.2-22.3-7.2-4.6-4.2-9.2-12.3-9.2-16.4V312h40c38.7 0 40.1-.1 42-2 3.2-3.2 3.2-17.2-.1-28.5-8.3-28.4-37.9-45.5-67.4-39m20.8 29.6c5.8 2.9 7.5 4.6 10.3 10.1 4.2 8.2 5.3 7.8-20.1 7.8-24.8 0-23.9.3-21.1-6.3 4.6-11.2 20.1-17 30.9-11.6m127.7-29.5c-7.9 1.7-17.1 6.1-22.7 10.8-2.2 2-4.3 3.6-4.6 3.6s-1.5-2.5-2.7-5.5c-1.2-3.1-3.1-6-4.1-6.5-1-.6-5-1-8.9-1-6.2 0-7.4.3-9.5 2.5l-2.5 2.4V429h38v-32.6c0-30.7.1-32.6 1.8-31.9 11.1 4.5 12.8 4.9 25.2 4.9 10.6.1 13.5-.3 19.2-2.2 17.7-6.1 31.7-20.5 38.6-39.4 2.4-6.6 2.7-8.6 2.7-21.8 0-13.4-.2-15.2-2.9-22.8-10.2-29.9-38.6-46.9-67.6-40.6m18.8 35c5.9 2.9 10.6 7.9 13.6 14.3 1.6 3.6 2.1 6.6 2.1 13.6 0 7.8-.4 9.7-2.8 14.7-3 6.2-7.4 10.5-14 14-7.7 4.1-25.2 2.6-33.4-2.8-2.3-1.4-2.3-1.8-2.3-20.8v-19.3l3.1-4.6c5.3-8.1 12-11.6 22-11.7 5 0 7.7.6 11.7 2.6m114.2-36c-8.6 1-21.9 3.5-26.7 4.9-7.2 2.2-7.8 3.5-5.8 14.8 2.7 15 4.1 17 10.8 14.8 4.8-1.6 23.3-4.1 30.7-4.1 11.3 0 16 4.1 17.4 15.4l.6 4.8-3.3-.6c-14-2.5-21.4-2.9-30.5-1.4-27.1 4.6-41.4 22.5-37.3 46.4 2.5 14.1 9 23.3 20.8 29.1 6.7 3.3 8.6 3.8 16.7 4.1 14.9.7 26.6-3 36.4-11.3l4.2-3.6 2.7 5.8 2.8 5.8 8.4.3c13.2.5 12.1 4.2 12.1-43.2 0-23-.5-42.8-1.1-46.5-3.9-24.6-16.5-34.8-43.9-35.6-6.3-.2-13.1-.1-15 .1m22.8 72.4 3.2 1.2v17.6l-4.6 4c-9.9 8.8-21.9 9.4-28.6 1.4-6.8-8.1-2.7-22 7.5-25.2 4-1.2 18.1-.6 22.5 1m262.7-71.4c-12 2.6-20.9 7.6-30.1 16.8-6.3 6.3-9 9.9-12.3 16.6-9.5 19.4-9.5 39.9.1 59.9 7.5 15.7 22.9 28.2 40.3 32.6 7.5 1.9 22.9 1.9 31.9 0 13.3-2.8 31.6-14 31.6-19.3 0-2.3-15.5-20.2-17.4-20.2-.8 0-5.1 1.9-9.6 4.2-7.5 3.8-9.2 4.2-17.2 4.6-8.4.4-9.2.3-15.4-2.8-8.3-4.1-13.5-10.8-15.8-20.3l-.6-2.7h40.3c33.1 0 40.7-.3 42.2-1.4 1.6-1.2 2-2.9 2.3-9.6.8-16.3-4.3-30.5-14.9-41.5-3.4-3.6-8.4-7.9-11.1-9.6-11.3-7.3-30.3-10.4-44.3-7.3m21 29.3c2.2 1 5.3 3.1 6.9 4.7 2.8 2.8 6.5 9.7 6.6 12.1 0 1-5.3 1.3-23.1 1.3h-23l.6-2.3c4.2-13.9 19.6-21.5 32-15.8m133.6-29.8c-11.3 2.2-20.1 6.2-28.2 13l-4.7 3.8-2.2-6c-2.9-7.8-4.7-8.9-13.7-8.9-12.4 0-11.3-5.7-11.3 61.3 0 50.2.2 57.5 1.6 59.5 1.5 2.1 2.1 2.2 16.9 2.2s15.4-.1 16.9-2.2c1.4-1.9 1.6-7.2 1.6-37.3 0-38.9-.3-37.2 7-44.3 5.3-5 11.5-7.6 19.6-8 8.7-.5 14.8 1.8 18.8 7.1 5.2 6.8 5.6 10 5.6 47.2 0 31.9.1 34.3 1.8 35.8 1.6 1.4 4.3 1.7 16.9 1.7 13.3 0 15.2-.2 16.6-1.8 1.5-1.7 1.7-5.7 1.7-37.1 0-40.4-.6-45.6-7.1-58.9-4.9-10.2-12.2-17.7-21.1-22.1-10.8-5.3-25.1-7.3-36.7-5m-1019.7 4.4-2.6 2.6.5 36.7c.5 41.1 1 45.3 7.4 58.2 8.5 17.3 23.5 26 44.8 26 14.5 0 25.2-3.8 35.5-12.6l5.4-4.6 2.1 5.4c3.1 8.5 3.5 8.8 13 8.8 6.7 0 8.5-.3 9.8-1.8 1.5-1.7 1.7-7.3 1.7-60v-58.1l-2.2-1.5c-1.8-1.3-5.2-1.6-15.8-1.6s-14 .3-15.8 1.6l-2.2 1.5v34.7c0 38.5-.1 38.6-7 46.6-10.7 12.1-29.1 10.7-36.3-2.7-2.1-4.1-2.2-5.3-2.7-41l-.5-36.9-2.4-1.9c-2-1.7-4-1.9-16.3-1.9-13.6 0-14 .1-16.4 2.5m-458.8 214c-5.5 1.9-8.8 4.6-10.8 8.6-2.6 5-2.3 11.4.8 16.6 1.4 2.5 2.4 4.6 2.2 4.7-6.3 4.7-8 6.5-9.7 10-4.9 10-.5 21.8 9.4 25.6 8.8 3.5 24.1 2.8 34.9-1.5l6.3-2.5 5.4 3c6.6 3.6 13.2 4.1 14.9 1.1 2-3.8.9-10.1-1.7-10.1-.8 0-3.2-1-5.3-2.1l-3.8-2.1 1.8-4.2c1-2.2 2.1-6.2 2.5-8.7.9-5.9-.5-7.1-7.7-6.7-4.8.3-5.3.5-5.6 2.8-.5 3.8-2.3 9-3.1 9-.4 0-3.8-2.5-7.6-5.7l-6.8-5.6 4.5-2.3c16.2-8.2 16.8-26 1-30.4-5.2-1.4-17-1.2-21.6.5m15.2 11.1c3.1 2.1 2.8 5.7-.8 8.7-4.6 3.9-7.1 4.4-9.2 1.7-4.1-5.1-1.1-12 5.2-12 1.4 0 3.6.7 4.8 1.6m3.6 42.6c-1 1.5-8.8 3-12.9 2.3-8.1-1.2-11.8-9.4-6.6-14.9l2.3-2.4 8.8 7.1c4.9 3.9 8.7 7.4 8.4 7.9m284.1-48.7c-9.1 3.2-13.5 13.1-9.7 21.6 2.5 5.8 3.9 6.9 15.5 12.5 8.2 3.9 10.1 5.2 11.5 8.1 1.5 3.1 1.5 3.7.1 6.1-3.5 6.4-13.1 7.7-22.5 3.1-5.3-2.5-7.4-2-7.4 2 0 5.8 9.1 9.7 20.8 8.9 12.7-.9 19.3-6.5 20-17 .7-9-2.1-12.5-14.6-18.4-5.3-2.6-10.7-5.6-11.9-6.7-2.4-2.2-3-6.5-1.3-9.6 2.4-4.6 11.2-5.1 19.2-1 2.2 1.1 4.3 1.8 4.6 1.4 1.4-1.4.5-7.5-1.3-8.9-4.8-3.5-16-4.6-23-2.1m219.7.4c-10.9 3.8-17.2 13.5-18 27.6-1.2 22.1 7.4 33.3 26.3 34.3 18.1 1 28.4-7.3 31.6-25.2 3-17.7-4.1-33.2-17.2-37-7-2.1-16.1-2-22.7.3m23.2 11c4.6 4.5 6 8.8 6.1 18.6 0 13.4-4.4 21-13.5 23.5-7.9 2.1-16.5-1.2-20.4-8-2.9-4.8-3.1-23.7-.3-28.7 4-7.4 7.7-9.4 17.4-9 6.7.2 7.5.5 10.7 3.6m448.6-11.2c-8.6 3-14.3 8.3-18.3 17-3.1 7-3.1 20.7.2 28.1 3.2 7 10.3 13.3 17.7 15.7 10.3 3.2 29.7.5 32.4-4.6 1.3-2.3 1.3-25.9 0-27.9-.7-1.1-3.4-1.6-10.5-1.8-5.3-.2-10.7-.1-12.1.2-2.2.6-2.5 1.1-2.2 4.4l.3 3.7 7.3.3 7.2.3v7.9c0 9.4-.6 10-10.2 10-14.7 0-22.8-9.8-21.5-25.8.6-8.2 4.4-14.6 10.6-17.9 6.4-3.4 16.3-3.2 24.3.4 5 2.2 6.1 2.4 6.9 1.2 1.4-2.2 1.1-4.4-1.1-7.1-4-5.2-21.3-7.4-31-4.1m262.5-.2c-9.1 3.2-13.5 13.1-9.7 21.6 2.5 5.8 3.9 6.9 15.5 12.5 8.2 3.9 10.1 5.2 11.5 8.1 1.5 3.1 1.5 3.7.1 6.1-3.5 6.4-13.1 7.7-22.5 3.1-5.3-2.5-7.4-2-7.4 2 0 5.8 9.1 9.7 20.8 8.9 12.7-.9 19.3-6.5 20-17 .7-9-2.1-12.5-14.6-18.4-5.3-2.6-10.7-5.6-11.9-6.7-2.4-2.2-3-6.5-1.3-9.6 2.4-4.6 11.2-5.1 19.2-1 2.2 1.1 4.3 1.8 4.6 1.4 1.4-1.4.5-7.5-1.3-8.9-4.8-3.5-16-4.6-23-2.1m-1836.9.4c-.6 1 17 59.1 18.3 60.4 1.3 1.4 7.5 1.9 10.1.9 2.4-.9 3.1-2.9 8.4-21.8 3.2-11.5 6.1-21.5 6.5-22.2s3.5 8.1 7.2 20.3c3.5 11.9 6.7 22.2 7.1 22.8.9 1.6 10.4 1.5 11.9 0 1.2-1.2 17.9-56.6 17.9-59.6 0-1.4-.9-1.7-4.5-1.7-5.5 0-4.5-2.2-12 26-3.1 11.8-6 22.1-6.4 22.8-.5.8-1.7-1.8-3-6.5-1.2-4.3-4.5-15.6-7.3-25.1l-5.1-17.3-5.1.3-5 .3-1.7 6c-1 3.3-4.1 14.5-7 24.8-2.9 10.5-5.5 18.3-5.9 17.5-.4-.7-3.5-11-6.9-22.8-8-27.9-7.1-26-12.5-26-2.5 0-4.7.4-5 .9m111.7.3c-1.3 1.7-22.3 57.6-22.3 59.3 0 1.8 3.4 2.8 7 2 2.9-.6 4.4-3.3 7.4-13.3.7-2.1 1.1-2.2 13.9-2.2h13.2l2.8 7.4c2.4 6.4 3.2 7.5 5.6 8.1 3.5.7 8.1-.3 8.1-1.9-.1-.6-5.2-14.4-11.4-30.6l-11.3-29.5-6-.3c-4-.2-6.3.1-7 1m11.1 22.9c2.5 7 4.6 13.2 4.6 13.8 0 .7-3.3 1.1-10.1 1.1-9.2 0-10.1-.2-9.4-1.8.3-.9 2.1-6 4-11.2 4.5-12.9 5.5-15.3 6-14.9.2.2 2.4 6.1 4.9 13m39.2-22.5c-1.4 1.3-1.6 5.5-1.6 30.5V526l2.7 1.1c1.9.7 3.5.7 5 0 2.3-1.1 2.3-1.1 2.4-25.3 0-16.3.3-23.8 1-22.8.5.8 6.5 11.8 13.3 24.5l12.3 23 6 .3c4.2.2 6.3-.1 7.2-1.1.8-1.1 1.1-9.5.9-30.8l-.3-29.4h-9v24.3c0 13.3-.1 24.2-.1 24.2-.1 0-5.5-10-12-22.1-6.5-12.2-12.6-23.2-13.7-24.5-1.5-2-2.8-2.4-7.2-2.4-3.5 0-5.9.5-6.9 1.6m72.7-.5c-1 1-1.3 8.4-1.3 30 0 24 .2 28.9 1.5 29.9 1 .8 5.4 1.1 15.2.8 11.8-.3 14.6-.7 19.1-2.7 10.1-4.5 15.3-14.1 15.4-28.5 0-13.7-5.2-23.1-15.4-27.7-4.6-2-7.2-2.4-19.3-2.7-10.4-.3-14.3 0-15.2.9m25.2 8c9.4 2.6 13.9 9.5 13.9 21.4.1 16.4-6.9 23.5-23.1 23.5H403v-46h5.8c3.1 0 7.5.5 9.7 1.1m43.7-7.9c-1.7 1.7-1.7 57.9 0 59.6.8.8 6.4 1.2 18.5 1.2H498v-8h-26v-20h10.9c10.1 0 11-.2 11.6-2a9 9 0 0 0 0-4c-.6-1.8-1.5-2-11.6-2H472v-17.9l12.8-.3 12.7-.3v-7l-17-.3c-12.4-.2-17.4.1-18.3 1m55.5-.6c-.4.4-.7 13.9-.7 29.9 0 23.7.3 29.5 1.4 30.4.9.8 6.3 1.1 16.7.9l15.4-.3.3-3.8.3-3.7H528l-.2-26.8-.3-26.7-4.5-.3c-2.5-.2-4.9 0-5.3.4m47.5.6c-1.7 1.7-1.7 57.9 0 59.6.8.8 6.4 1.2 18.5 1.2H601v-8h-26v-20h10.9c10.1 0 11-.2 11.6-2a9 9 0 0 0 0-4c-.6-1.8-1.5-2-11.6-2H575v-17.9l12.8-.3 12.7-.3v-7l-17-.3c-12.4-.2-17.4.1-18.3 1m56.4.4c-1.4 1.3-1.6 5.5-1.6 30.5V526l2.7 1.1c1.9.7 3.5.7 5 0 2.3-1.1 2.3-1.1 2.4-25.3 0-16.3.3-23.8 1-22.8.5.8 6.5 11.8 13.3 24.5l12.3 23 6 .3c4.2.2 6.3-.1 7.2-1.1.8-1.1 1.1-9.5.9-30.8l-.3-29.4h-9v24.3c0 13.3-.1 24.2-.1 24.2-.1 0-5.5-10-12-22.1-6.5-12.2-12.6-23.2-13.7-24.5-1.5-2-2.8-2.4-7.2-2.4-3.5 0-5.9.5-6.9 1.6m218.6-.4c-.9.9-1.2 9-1.2 30.5V526l2.7 1.1c1.5.6 3.6.6 5.2.1 2.6-.9 2.6-.9 2.9-13.5l.3-12.6 11.2-.3 11.2-.3.3-3.4c.2-2-.2-3.7-1-4.2-.7-.5-5.9-.9-11.5-.9H850v-19h11.9c11.1 0 12-.1 12.6-2a9 9 0 0 0 0-4c-.6-1.9-1.5-2-16.9-2-11.3 0-16.6.4-17.4 1.2m52.5-.6c-.4.4-.7 14.2-.7 30.6V526l2.7 1.1c1.5.6 3.6.6 5.2.1l2.6-.9v-60.8l-4.5-.3c-2.5-.2-4.9 0-5.3.4m33.5.6c-1.7 1.7-1.7 57.9 0 59.6.8.8 6.4 1.2 18.5 1.2H962v-8h-26v-20h10.9c10.1 0 11-.2 11.6-2a9 9 0 0 0 0-4c-.6-1.8-1.5-2-11.6-2H936v-17.9l12.8-.3 12.7-.3v-7l-17-.3c-12.4-.2-17.4.1-18.3 1m47.4 1c-.8 3.2-.8 3.5 1 5.2 1.1 1.2 3.6 1.6 9.5 1.6h7.9v52l2.4 1.1c1.6.8 3.4.8 5.3.2l2.8-1 .3-26.1.2-26.2h7.8c4.2 0 8.3-.4 9-.9.8-.5 1.2-2.2 1-4.2l-.3-3.4-23.1-.3-23.2-.2zm115.6-1c-1.7 1.7-1.7 57.9 0 59.6.8.8 6.4 1.2 18.5 1.2h17.3v-8h-26v-20h10.9c10.1 0 11-.2 11.6-2a9 9 0 0 0 0-4c-.6-1.8-1.5-2-11.6-2H1099v-17.9l12.8-.3 12.7-.3v-7l-17-.3c-12.4-.2-17.4.1-18.3 1m56.4.4c-1.4 1.3-1.6 5.5-1.6 30.5V526l2.7 1.1c1.9.7 3.5.7 5 0 2.3-1.1 2.3-1.1 2.4-25.3 0-16.3.3-23.8 1-22.8.5.8 6.5 11.8 13.3 24.5l12.3 23 6 .3c4.2.2 6.3-.1 7.2-1.1.8-1.1 1.1-9.5.9-30.8l-.3-29.4h-9v24.3c0 13.3-.1 24.2-.1 24.2-.1 0-5.5-10-12-22.1-6.5-12.2-12.6-23.2-13.7-24.5-1.5-2-2.8-2.4-7.2-2.4-3.5 0-5.9.5-6.9 1.6m166.4-.3c0 1.4 21.4 59.5 22.3 60.3 1.1 1.1 7.4 1.5 9.7.6s3.9-4.5 13.3-29.8c5.9-15.9 10.7-29.7 10.7-30.7 0-1.5-.7-1.8-4.7-1.5l-4.8.3-8.6 24.8c-4.7 13.6-8.8 24.9-9.1 25.2s-4.5-10.9-9.5-24.7l-9-25.3-5.1-.3c-3.9-.2-5.2 0-5.2 1.1m71.2-.1c-1.7 1.7-1.7 57.9 0 59.6.8.8 6.4 1.2 18.5 1.2h17.3v-8h-26v-20h10.9c10.1 0 11-.2 11.6-2a9 9 0 0 0 0-4c-.6-1.8-1.5-2-11.6-2H1393v-17.9l12.8-.3 12.7-.3v-7l-17-.3c-12.4-.2-17.4.1-18.3 1m56 0c-.9.9-1.2 9-1.2 30.5V526l2.7 1.1c1.5.6 3.6.6 5.2.1 2.6-.9 2.6-.9 2.9-13.5l.3-12.7h5.4c7.7 0 9.7 2.1 14.5 15 3.5 9.6 4.1 10.6 6.9 11.4 2.1.6 4 .5 5.6-.2l2.5-1.1-2.6-7.3c-3.9-10.9-7.3-17.6-9.8-19.5l-2.3-1.7 3.1-2.1c1.7-1.1 4.1-3.6 5.4-5.5 2-3 2.3-4.4 2-9.7-.7-11.6-7.3-15.3-27.3-15.3-8.1 0-12.5.4-13.3 1.2m24.7 7.9c3.9 1.4 5.1 3.5 5.1 8.9 0 3.1-.6 4.7-2.6 6.5-2.4 2.2-3.6 2.5-10 2.5h-7.4v-19h5.9c3.2 0 7.2.5 9 1.1m67.8-8.5c-.4.4-.7 13.9-.7 29.9 0 23.7.3 29.5 1.4 30.4.9.8 6.3 1.1 16.7.9l15.4-.3.3-3.8.3-3.7H1542l-.2-26.8-.3-26.7-4.5-.3c-2.5-.2-4.9 0-5.3.4m62.6.6c-1.3 1.7-22.3 57.6-22.3 59.3 0 1.8 3.4 2.8 7 2 2.9-.6 4.4-3.3 7.4-13.3.7-2.1 1.1-2.2 13.9-2.2h13.2l2.8 7.4c2.4 6.4 3.2 7.5 5.6 8.1 3.5.7 8.1-.3 8.1-1.9-.1-.6-5.2-14.4-11.4-30.6l-11.3-29.5-6-.3c-4-.2-6.3.1-7 1m11.1 22.9c2.5 7 4.6 13.2 4.6 13.8 0 .7-3.3 1.1-10.1 1.1-9.2 0-10.1-.2-9.4-1.8.3-.9 2.1-6 4-11.2 4.5-12.9 5.5-15.3 6-14.9.2.2 2.4 6.1 4.9 13m39.2-22.5c-1.4 1.3-1.6 5.5-1.6 30.5V526l2.7 1.1c1.9.7 3.5.7 5 0 2.3-1.1 2.3-1.1 2.4-25.3 0-16.3.3-23.8 1-22.8.5.8 6.5 11.8 13.3 24.5l12.3 23 6 .3c4.2.2 6.3-.1 7.2-1.1.8-1.1 1.1-9.5.9-30.8l-.3-29.4h-9v24.3c0 13.3-.1 24.2-.1 24.2-.1 0-5.5-10-12-22.1-6.5-12.2-12.6-23.2-13.7-24.5-1.5-2-2.8-2.4-7.2-2.4-3.5 0-5.9.5-6.9 1.6m142.6-.4c-1.7 1.7-1.7 57.9 0 59.6.8.8 6.4 1.2 18.5 1.2h17.3v-8h-26v-20h10.9c10.1 0 11-.2 11.6-2a9 9 0 0 0 0-4c-.6-1.8-1.5-2-11.6-2H1797v-17.9l12.8-.3 12.7-.3v-7l-17-.3c-12.4-.2-17.4.1-18.3 1m100.1 0c-1.3 1.7-22.3 57.6-22.3 59.3 0 1.8 3.4 2.8 7 2 2.9-.6 4.4-3.3 7.4-13.3.7-2.1 1.1-2.2 13.9-2.2h13.2l2.8 7.4c2.4 6.4 3.2 7.5 5.6 8.1 3.5.7 8.1-.3 8.1-1.9-.1-.6-5.2-14.4-11.4-30.6l-11.3-29.5-6-.3c-4-.2-6.3.1-7 1m11.1 22.9c2.5 7 4.6 13.2 4.6 13.8 0 .7-3.3 1.1-10.1 1.1-9.2 0-10.1-.2-9.4-1.8.3-.9 2.1-6 4-11.2 4.5-12.9 5.5-15.3 6-14.9.2.2 2.4 6.1 4.9 13m38.8-22.9c-.9.9-1.2 9-1.2 30.5V526l2.7 1.1c1.5.6 3.6.6 5.2.1 2.6-.9 2.6-.9 2.9-13.5l.3-12.6 11.2-.3 11.2-.3.3-3.4c.2-2-.2-3.7-1-4.2-.7-.5-5.9-.9-11.5-.9H1947v-19h11.9c11.1 0 12-.1 12.6-2a9 9 0 0 0 0-4c-.6-1.9-1.5-2-16.9-2-11.3 0-16.6.4-17.4 1.2m95.4 1c-.8 3.2-.8 3.5 1 5.2 1.1 1.2 3.6 1.6 9.5 1.6h7.9v52l2.4 1.1c1.6.8 3.4.8 5.3.2l2.8-1 .3-26.1.2-26.2h7.8c4.2 0 8.3-.4 9-.9.8-.5 1.2-2.2 1-4.2l-.3-3.4-23.1-.3-23.2-.2zm68.7-1c-1.3 1.7-22.3 57.6-22.3 59.3 0 1.8 3.4 2.8 7 2 2.9-.6 4.4-3.3 7.4-13.3.7-2.1 1.1-2.2 13.9-2.2h13.2l2.8 7.4c2.4 6.4 3.2 7.5 5.6 8.1 3.5.7 8.1-.3 8.1-1.9-.1-.6-5.2-14.4-11.4-30.6l-11.3-29.5-6-.3c-4-.2-6.3.1-7 1m11.1 22.9c2.5 7 4.6 13.2 4.6 13.8 0 .7-3.3 1.1-10.1 1.1-9.2 0-10.1-.2-9.4-1.8.3-.9 2.1-6 4-11.2 4.5-12.9 5.5-15.3 6-14.9.2.2 2.4 6.1 4.9 13m39.2-22.5c-1.4 1.3-1.6 5.5-1.6 30.5V526l2.7 1.1c1.9.7 3.5.7 5 0 2.3-1.1 2.3-1.1 2.4-25.3 0-16.3.3-23.8 1-22.8.5.8 6.5 11.8 13.3 24.5l12.3 23 6 .3c4.2.2 6.3-.1 7.2-1.1.8-1.1 1.1-9.5.9-30.8l-.3-29.4h-9v24.3c0 13.3-.1 24.2-.1 24.2-.1 0-5.5-10-12-22.1-6.5-12.2-12.6-23.2-13.7-24.5-1.5-2-2.8-2.4-7.2-2.4-3.5 0-5.9.5-6.9 1.6m72.7-.5c-1 1-1.3 8.4-1.3 30 0 24 .2 28.9 1.5 29.9 1 .8 5.4 1.1 15.2.8 11.8-.3 14.6-.7 19.1-2.7 10.1-4.5 15.3-14.1 15.4-28.5 0-13.7-5.2-23.1-15.4-27.7-4.6-2-7.2-2.4-19.3-2.7-10.4-.3-14.3 0-15.2.9m25.2 8c9.4 2.6 13.9 9.5 13.9 21.4.1 16.4-6.9 23.5-23.1 23.5h-6.3v-46h5.8c3.1 0 7.5.5 9.7 1.1"/></svg>