<?xml version="1.0" encoding="UTF-8"?>
<svg width="161px" height="151px" viewBox="0 0 161 151" version="1.1" xmlns="http://www.w3.org/2000/svg" xmlns:xlink="http://www.w3.org/1999/xlink">
    <title>Re݁gions-Noir et Blanc_NL</title>
    <g id="Re݁gions-Noir-et-Blanc_NL" stroke="none" stroke-width="1" fill="none" fill-rule="evenodd">
        <g id="Group" transform="translate(21.000000, 18.000000)" fill="#ED7F69">
            <path d="M25.904,24.084 C18.832,24.084 11.803,29.412 11.803,38.33 C11.803,46.975 19.807,52.352 26.766,52.352 C34.418,52.352 38.113,49.953 44.565,51.258 C49.609,52.273 52.336,54.74 53.69,56.035 C54.336,56.654 55.156,56.727 55.721,56.356 C56.281,55.984 56.658,55.285 56.281,53.615 C55.399,49.719 53.324,45.365 50.916,41.647 C46.186,34.342 36.588,24.084 25.904,24.084" id="Fill-4"></path>
            <path d="M91.361,24.084 C98.434,24.084 105.463,29.412 105.463,38.33 C105.463,46.975 97.459,52.352 90.498,52.352 C82.846,52.352 79.151,49.953 72.701,51.258 C67.656,52.273 64.93,54.74 63.576,56.035 C62.93,56.654 62.108,56.727 61.545,56.356 C60.986,55.984 60.606,55.285 60.986,53.615 C61.867,49.719 63.942,45.365 66.35,41.647 C71.078,34.342 80.674,24.084 91.361,24.084" id="Fill-5"></path>
            <path d="M67.686,0 C63.736,0 60.465,1.66 58.633,4.084 C56.799,1.66 53.531,0 49.58,0 C42.43,0 35.865,5.693 35.865,13.957 C35.865,17.576 37.318,20.328 38.639,22.25 C40.141,24.439 42.117,26.338 45.223,29.035 C49.731,32.947 53.44,36.766 56.979,44.238 C57.26,44.834 57.859,45.508 58.633,45.508 C59.406,45.508 60.004,44.834 60.287,44.238 C63.828,36.766 67.535,32.947 72.041,29.035 C75.149,26.338 77.125,24.439 78.627,22.25 C79.947,20.328 81.399,17.576 81.399,13.957 C81.399,5.693 74.838,0 67.686,0" id="Fill-6"></path>
            <path d="M67.354,4.084 C62.615,4.084 59.662,7.652 58.633,10.203 C57.6,7.652 54.65,4.084 49.912,4.084 C44.455,4.084 40.043,8.588 40.043,14.043 C40.043,16.104 40.748,18 42.01,19.727 C46.977,26.516 53.721,28.693 58.633,39.33 C63.545,28.693 70.289,26.516 75.258,19.727 C76.518,18 77.221,16.104 77.221,14.043 C77.221,8.588 72.809,4.084 67.354,4.084" id="Fill-7"></path>
            <path d="M28.047,83.867 C28.805,83.867 29.35,83.334 29.35,82.565 C29.35,81.779 28.75,81.248 27.981,81.248 L25.442,81.248 L25.442,83.867 L28.047,83.867 Z M25.442,79.719 L27.555,79.719 C27.967,79.6 28.352,79.135 28.365,78.629 C28.379,77.94 27.873,77.434 27.156,77.434 L25.442,77.434 L25.442,79.719 Z M24.404,85.475 C23.953,85.475 23.754,85.168 23.754,84.836 L23.754,76.463 C23.754,76.131 23.953,75.813 24.404,75.813 L27.143,75.813 C28.883,75.813 30.053,76.928 30.053,78.551 C30.053,79.096 29.748,79.68 29.375,80.025 C30.346,80.385 31.051,81.461 31.051,82.576 C31.051,84.332 29.84,85.475 28.086,85.475 L24.404,85.475 L24.404,85.475 Z" id="Fill-8"></path>
            <path d="M35.008,77.434 L35.008,80.158 L36.986,80.158 C37.971,80.158 38.488,79.627 38.488,78.842 C38.488,78.006 37.957,77.434 37.067,77.434 L35.008,77.434 Z M40.377,84.598 C40.668,85.024 40.389,85.475 39.885,85.475 L39.34,85.475 C39.088,85.475 38.822,85.328 38.676,85.115 L36.51,81.74 L35.008,81.74 L35.008,84.836 C35.008,85.168 34.809,85.475 34.356,85.475 L33.971,85.475 C33.518,85.475 33.307,85.168 33.307,84.836 L33.307,76.463 C33.307,76.131 33.518,75.813 33.971,75.813 L37.08,75.813 C38.967,75.813 40.231,77.049 40.231,78.789 C40.231,80.197 39.354,81.195 38.277,81.527 L40.377,84.598 L40.377,84.598 Z" id="Fill-9"></path>
            <path d="M42.752,82.178 L42.752,76.463 C42.752,76.131 42.951,75.813 43.402,75.813 L43.789,75.813 C44.24,75.813 44.44,76.131 44.44,76.463 L44.44,82.205 C44.44,83.334 45.184,83.986 46.274,83.986 C47.377,83.986 48.094,83.334 48.094,82.205 L48.094,76.463 C48.094,76.131 48.293,75.813 48.746,75.813 L49.117,75.813 C49.57,75.813 49.77,76.131 49.77,76.463 L49.77,82.178 C49.77,84.277 48.426,85.58 46.274,85.58 C44.094,85.58 42.752,84.291 42.752,82.178" id="Fill-10"></path>
            <path d="M59.453,82.59 C59.453,84.106 58.072,85.58 55.838,85.58 C53.699,85.58 52.117,84.451 52.078,82.233 C52.078,81.873 52.317,81.58 52.703,81.58 L53.141,81.58 C53.514,81.58 53.791,81.807 53.818,82.205 C53.899,83.4 54.656,83.959 55.838,83.959 C56.983,83.959 57.699,83.361 57.699,82.631 C57.699,82.059 57.367,81.688 56.516,81.486 C56.012,81.367 55.467,81.221 54.908,81.063 C53.791,80.742 52.49,80.092 52.49,78.51 C52.49,76.717 53.938,75.705 55.785,75.705 C57.539,75.705 58.988,76.783 59.162,78.404 C59.201,78.789 58.975,79.082 58.524,79.082 L58.139,79.082 C57.766,79.082 57.5,78.83 57.461,78.484 C57.381,77.686 56.676,77.274 55.76,77.274 C54.842,77.274 54.178,77.766 54.192,78.471 C54.203,79.055 54.803,79.334 55.453,79.508 C55.971,79.652 56.41,79.76 56.955,79.893 C58.684,80.291 59.453,81.195 59.453,82.59" id="Fill-11"></path>
            <path d="M68.555,82.59 C68.555,84.106 67.172,85.58 64.94,85.58 C62.799,85.58 61.219,84.451 61.178,82.233 C61.178,81.873 61.418,81.58 61.803,81.58 L62.242,81.58 C62.613,81.58 62.893,81.807 62.92,82.205 C62.998,83.4 63.756,83.959 64.94,83.959 C66.082,83.959 66.801,83.361 66.801,82.631 C66.801,82.059 66.467,81.688 65.617,81.486 C65.111,81.367 64.567,81.221 64.01,81.063 C62.893,80.742 61.59,80.092 61.59,78.51 C61.59,76.717 63.039,75.705 64.887,75.705 C66.641,75.705 68.09,76.783 68.262,78.404 C68.301,78.789 68.076,79.082 67.623,79.082 L67.238,79.082 C66.867,79.082 66.6,78.83 66.561,78.484 C66.481,77.686 65.777,77.274 64.859,77.274 C63.943,77.274 63.277,77.766 63.291,78.471 C63.305,79.055 63.902,79.334 64.555,79.508 C65.072,79.652 65.512,79.76 66.057,79.893 C67.783,80.291 68.555,81.195 68.555,82.59" id="Fill-12"></path>
            <path d="M72.537,77.434 L72.537,79.666 L75.529,79.666 C75.901,79.666 76.193,79.906 76.193,80.318 L76.193,80.637 C76.193,81.049 75.901,81.287 75.529,81.287 L72.537,81.287 L72.537,83.854 L76.672,83.854 C77.07,83.854 77.336,84.145 77.336,84.49 L77.336,84.836 C77.336,85.195 77.07,85.475 76.672,85.475 L71.516,85.475 C71.063,85.475 70.863,85.182 70.863,84.836 L70.863,76.463 C70.863,76.117 71.063,75.813 71.516,75.813 L76.432,75.813 C76.777,75.813 77.07,76.051 77.07,76.463 L77.07,76.783 C77.07,77.182 76.777,77.434 76.432,77.434 L72.537,77.434" id="Fill-13"></path>
            <path d="M80.096,85.475 C79.645,85.475 79.459,85.168 79.459,84.836 L79.459,76.463 C79.459,76.131 79.672,75.813 80.096,75.813 L80.483,75.813 C80.908,75.813 81.119,76.131 81.119,76.463 L81.119,83.84 L84.947,83.84 C85.279,83.84 85.586,84.039 85.586,84.479 L85.586,84.836 C85.586,85.275 85.279,85.475 84.947,85.475 L80.096,85.475" id="Fill-14"></path>
            <path d="M93.983,82.59 C93.983,84.106 92.6,85.58 90.367,85.58 C88.229,85.58 86.647,84.451 86.606,82.233 C86.606,81.873 86.846,81.58 87.231,81.58 L87.67,81.58 C88.041,81.58 88.32,81.807 88.348,82.205 C88.428,83.4 89.186,83.959 90.367,83.959 C91.51,83.959 92.229,83.361 92.229,82.631 C92.229,82.059 91.897,81.688 91.045,81.486 C90.541,81.367 89.996,81.221 89.438,81.063 C88.32,80.742 87.018,80.092 87.018,78.51 C87.018,76.717 88.467,75.705 90.315,75.705 C92.068,75.705 93.518,76.783 93.69,78.404 C93.731,78.789 93.504,79.082 93.053,79.082 L92.666,79.082 C92.295,79.082 92.029,78.83 91.988,78.484 C91.91,77.686 91.205,77.274 90.287,77.274 C89.371,77.274 88.707,77.766 88.719,78.471 C88.733,79.055 89.33,79.334 89.983,79.508 C90.5,79.652 90.94,79.76 91.484,79.893 C93.211,80.291 93.983,81.195 93.983,82.59" id="Fill-15"></path>
            <path d="M0,91.076 C0,90.744 0.199,90.426 0.652,90.426 L1.024,90.426 C1.475,90.426 1.688,90.744 1.688,91.076 L1.688,94.465 L5.051,94.465 L5.051,91.076 C5.051,90.744 5.25,90.426 5.701,90.426 L6.088,90.426 C6.539,90.426 6.738,90.744 6.738,91.076 L6.738,99.449 C6.738,99.781 6.539,100.088 6.088,100.088 L5.701,100.088 C5.25,100.088 5.051,99.781 5.051,99.449 L5.051,96.088 L1.688,96.088 L1.688,99.449 C1.688,99.781 1.475,100.088 1.024,100.088 L0.652,100.088 C0.199,100.088 0,99.781 0,99.449 L0,91.076" id="Fill-16"></path>
            <path d="M10.734,95.264 C10.734,97.178 11.6,98.586 13.061,98.586 C14.524,98.586 15.387,97.178 15.387,95.264 C15.387,93.375 14.496,91.887 13.061,91.887 C11.625,91.887 10.734,93.375 10.734,95.264 Z M9.061,95.264 C9.061,92.393 10.668,90.318 13.061,90.318 C15.453,90.318 17.061,92.393 17.061,95.264 C17.061,98.133 15.481,100.193 13.061,100.193 C10.643,100.193 9.061,98.133 9.061,95.264 L9.061,95.264 Z" id="Fill-17"></path>
            <path d="M20.461,95.264 C20.461,97.178 21.324,98.586 22.785,98.586 C24.248,98.586 25.111,97.178 25.111,95.264 C25.111,93.375 24.221,91.887 22.785,91.887 C21.35,91.887 20.461,93.375 20.461,95.264 Z M18.785,95.264 C18.785,92.393 20.395,90.318 22.785,90.318 C25.178,90.318 26.787,92.393 26.787,95.264 C26.787,98.133 25.205,100.193 22.785,100.193 C20.367,100.193 18.785,98.133 18.785,95.264 L18.785,95.264 Z" id="Fill-18"></path>
            <path d="M30.77,99.449 C30.77,99.781 30.543,100.088 30.119,100.088 L29.746,100.088 C29.32,100.088 29.096,99.781 29.096,99.449 L29.096,91.076 C29.096,90.731 29.32,90.426 29.746,90.426 L34.797,90.426 C35.209,90.426 35.461,90.65 35.461,91.076 L35.461,91.395 C35.461,91.82 35.195,92.047 34.797,92.047 L30.77,92.047 L30.77,94.279 L33.467,94.279 C33.854,94.279 34.119,94.492 34.119,94.932 L34.119,95.25 C34.119,95.676 33.826,95.9 33.467,95.9 L30.77,95.9 L30.77,99.449" id="Fill-19"></path>
            <path d="M40.016,98.479 C41.824,98.479 42.994,97.137 42.994,95.275 C42.994,93.35 41.863,92.033 40.002,92.033 L38.701,92.033 L38.701,98.479 L40.016,98.479 Z M37.678,100.088 C37.238,100.088 37.053,99.781 37.053,99.449 L37.053,91.076 C37.053,90.744 37.252,90.426 37.678,90.426 L39.949,90.426 C42.768,90.426 44.641,92.34 44.641,95.275 C44.641,98.133 42.66,100.088 39.977,100.088 L37.678,100.088 L37.678,100.088 Z" id="Fill-20"></path>
            <path d="M53.754,97.203 C53.754,98.719 52.373,100.193 50.139,100.193 C48,100.193 46.418,99.065 46.379,96.844 C46.379,96.486 46.617,96.193 47.004,96.193 L47.442,96.193 C47.815,96.193 48.092,96.42 48.119,96.818 C48.199,98.014 48.957,98.572 50.139,98.572 C51.283,98.572 52,97.975 52,97.244 C52,96.672 51.668,96.299 50.817,96.1 C50.313,95.981 49.768,95.834 49.209,95.676 C48.092,95.356 46.791,94.705 46.791,93.123 C46.791,91.328 48.238,90.318 50.086,90.318 C51.84,90.318 53.289,91.395 53.463,93.018 C53.502,93.402 53.276,93.695 52.824,93.695 L52.44,93.695 C52.067,93.695 51.801,93.442 51.762,93.096 C51.682,92.299 50.977,91.887 50.061,91.887 C49.143,91.887 48.479,92.379 48.492,93.084 C48.504,93.668 49.104,93.947 49.754,94.119 C50.272,94.266 50.711,94.373 51.256,94.506 C52.984,94.904 53.754,95.809 53.754,97.203" id="Fill-21"></path>
            <path d="M55.055,92.047 C54.682,92.047 54.416,91.795 54.416,91.395 L54.416,91.076 C54.416,90.678 54.682,90.426 55.055,90.426 L61.287,90.426 C61.66,90.426 61.926,90.678 61.926,91.076 L61.926,91.395 C61.926,91.795 61.66,92.047 61.287,92.047 L59.002,92.047 L59.002,99.449 C59.002,99.795 58.762,100.088 58.35,100.088 L57.979,100.088 C57.567,100.088 57.34,99.795 57.34,99.449 L57.34,92.047 L55.055,92.047" id="Fill-22"></path>
            <path d="M65.256,92.047 L65.256,94.279 L68.248,94.279 C68.619,94.279 68.912,94.52 68.912,94.932 L68.912,95.25 C68.912,95.662 68.619,95.9 68.248,95.9 L65.256,95.9 L65.256,98.467 L69.391,98.467 C69.789,98.467 70.055,98.758 70.055,99.104 L70.055,99.449 C70.055,99.809 69.789,100.088 69.391,100.088 L64.234,100.088 C63.781,100.088 63.582,99.795 63.582,99.449 L63.582,91.076 C63.582,90.731 63.781,90.426 64.234,90.426 L69.151,90.426 C69.496,90.426 69.789,90.664 69.789,91.076 L69.789,91.395 C69.789,91.795 69.496,92.047 69.151,92.047 L65.256,92.047" id="Fill-23"></path>
            <path d="M75.143,98.479 C76.949,98.479 78.119,97.137 78.119,95.275 C78.119,93.35 76.988,92.033 75.129,92.033 L73.826,92.033 L73.826,98.479 L75.143,98.479 Z M72.803,100.088 C72.363,100.088 72.178,99.781 72.178,99.449 L72.178,91.076 C72.178,90.744 72.377,90.426 72.803,90.426 L75.076,90.426 C77.893,90.426 79.768,92.34 79.768,95.275 C79.768,98.133 77.787,100.088 75.102,100.088 L72.803,100.088 L72.803,100.088 Z" id="Fill-24"></path>
            <path d="M83.764,92.047 L83.764,94.279 L86.754,94.279 C87.127,94.279 87.42,94.52 87.42,94.932 L87.42,95.25 C87.42,95.662 87.127,95.9 86.754,95.9 L83.764,95.9 L83.764,98.467 L87.897,98.467 C88.297,98.467 88.563,98.758 88.563,99.104 L88.563,99.449 C88.563,99.809 88.297,100.088 87.897,100.088 L82.74,100.088 C82.289,100.088 82.09,99.795 82.09,99.449 L82.09,91.076 C82.09,90.731 82.289,90.426 82.74,90.426 L87.658,90.426 C88.004,90.426 88.297,90.664 88.297,91.076 L88.297,91.395 C88.297,91.795 88.004,92.047 87.658,92.047 L83.764,92.047" id="Fill-25"></path>
            <path d="M91.311,100.088 C90.858,100.088 90.672,99.781 90.672,99.449 L90.672,91.076 C90.672,90.744 90.885,90.426 91.311,90.426 L91.695,90.426 C92.121,90.426 92.334,90.744 92.334,91.076 L92.334,98.453 L96.16,98.453 C96.494,98.453 96.799,98.652 96.799,99.09 L96.799,99.449 C96.799,99.889 96.494,100.088 96.16,100.088 L91.311,100.088" id="Fill-26"></path>
            <path d="M98.803,91.063 C98.803,90.705 99.016,90.426 99.442,90.426 L99.813,90.426 C100.238,90.426 100.465,90.705 100.465,91.063 L100.465,99.463 C100.465,99.809 100.252,100.088 99.813,100.088 L99.453,100.088 C99.029,100.088 98.803,99.809 98.803,99.463 L98.803,91.063" id="Fill-27"></path>
            <path d="M108.358,97.389 C108.358,99.17 107.254,100.193 105.473,100.193 C103.744,100.193 102.641,99.145 102.641,97.416 L102.641,97.109 C102.641,96.777 102.854,96.459 103.307,96.459 L103.678,96.459 C104.131,96.459 104.317,96.777 104.317,97.109 L104.317,97.443 C104.317,98.147 104.742,98.611 105.473,98.611 C106.203,98.611 106.709,98.133 106.709,97.416 L106.709,91.076 C106.709,90.744 106.895,90.426 107.346,90.426 L107.705,90.426 C108.156,90.426 108.358,90.744 108.358,91.076 L108.358,97.389" id="Fill-28"></path>
            <path d="M113.338,96.047 L112.766,96.672 L112.766,99.449 C112.766,99.781 112.539,100.088 112.115,100.088 L111.729,100.088 C111.305,100.088 111.078,99.781 111.078,99.449 L111.078,91.076 C111.078,90.705 111.291,90.426 111.742,90.426 L112.115,90.426 C112.539,90.426 112.766,90.705 112.766,91.076 L112.766,94.492 L116.049,90.744 C116.168,90.611 116.434,90.426 116.74,90.426 L117.338,90.426 C117.869,90.426 117.988,90.943 117.67,91.303 L114.44,94.865 L118.029,99.197 C118.334,99.568 118.162,100.088 117.67,100.088 L117.031,100.088 C116.793,100.088 116.5,99.928 116.315,99.69 L113.338,96.047" id="Fill-29"></path>
            <path d="M39.182,108.242 L38.795,108.389 C38.449,108.508 38.117,108.35 37.998,108.016 C37.666,107.152 37.027,106.527 35.979,106.527 C34.463,106.527 33.572,108.043 33.572,109.904 C33.572,111.818 34.397,113.227 35.965,113.227 C37.373,113.227 38.131,112.27 38.184,110.967 L36.563,110.967 C36.203,110.967 35.912,110.754 35.912,110.342 L35.912,110.01 C35.912,109.611 36.178,109.359 36.549,109.359 L39.193,109.359 C39.567,109.359 39.818,109.584 39.818,109.984 L39.818,110.449 C39.818,113.174 38.184,114.809 35.899,114.809 C33.4,114.809 31.924,112.709 31.924,109.918 C31.924,107.113 33.586,104.934 35.99,104.934 C37.785,104.934 39.074,105.943 39.553,107.459 C39.672,107.817 39.526,108.123 39.182,108.242" id="Fill-30"></path>
            <path d="M43.881,106.66 L43.881,108.895 L46.873,108.895 C47.244,108.895 47.537,109.133 47.537,109.545 L47.537,109.863 C47.537,110.275 47.244,110.516 46.873,110.516 L43.881,110.516 L43.881,113.08 L48.016,113.08 C48.414,113.08 48.68,113.373 48.68,113.719 L48.68,114.065 C48.68,114.422 48.414,114.701 48.016,114.701 L42.859,114.701 C42.406,114.701 42.207,114.41 42.207,114.065 L42.207,105.692 C42.207,105.346 42.406,105.039 42.859,105.039 L47.775,105.039 C48.121,105.039 48.414,105.279 48.414,105.692 L48.414,106.01 C48.414,106.408 48.121,106.66 47.775,106.66 L43.881,106.66" id="Fill-31"></path>
            <path d="M55.654,105.039 C55.986,105.039 56.211,105.227 56.277,105.545 L57.461,111.539 L58.697,105.545 C58.764,105.238 58.99,105.039 59.322,105.039 L59.813,105.039 C60.225,105.039 60.492,105.318 60.385,105.744 L58.324,114.223 C58.258,114.502 58.045,114.701 57.713,114.701 L57.09,114.701 C56.756,114.701 56.504,114.529 56.438,114.209 L55.309,108.016 L54.164,114.209 C54.098,114.529 53.859,114.701 53.541,114.701 L52.902,114.701 C52.57,114.701 52.358,114.502 52.291,114.223 L50.217,105.758 C50.111,105.332 50.363,105.039 50.803,105.039 L51.295,105.039 C51.613,105.039 51.84,105.238 51.906,105.545 L53.168,111.539 L54.338,105.545 C54.404,105.227 54.631,105.039 54.949,105.039 L55.654,105.039" id="Fill-32"></path>
            <path d="M64.275,106.66 L64.275,108.895 L67.266,108.895 C67.637,108.895 67.93,109.133 67.93,109.545 L67.93,109.863 C67.93,110.275 67.637,110.516 67.266,110.516 L64.275,110.516 L64.275,113.08 L68.408,113.08 C68.807,113.08 69.072,113.373 69.072,113.719 L69.072,114.065 C69.072,114.422 68.807,114.701 68.408,114.701 L63.252,114.701 C62.799,114.701 62.6,114.41 62.6,114.065 L62.6,105.692 C62.6,105.346 62.799,105.039 63.252,105.039 L68.17,105.039 C68.514,105.039 68.807,105.279 68.807,105.692 L68.807,106.01 C68.807,106.408 68.514,106.66 68.17,106.66 L64.275,106.66" id="Fill-33"></path>
            <path d="M77.854,111.818 C77.854,113.332 76.473,114.809 74.238,114.809 C72.1,114.809 70.518,113.678 70.479,111.459 C70.479,111.1 70.717,110.807 71.104,110.807 L71.541,110.807 C71.914,110.807 72.192,111.033 72.219,111.432 C72.299,112.629 73.057,113.188 74.238,113.188 C75.383,113.188 76.1,112.588 76.1,111.858 C76.1,111.285 75.768,110.914 74.916,110.715 C74.412,110.596 73.867,110.449 73.309,110.289 C72.192,109.971 70.891,109.318 70.891,107.738 C70.891,105.943 72.338,104.934 74.186,104.934 C75.94,104.934 77.389,106.01 77.563,107.631 C77.602,108.016 77.375,108.309 76.924,108.309 L76.539,108.309 C76.166,108.309 75.901,108.057 75.861,107.711 C75.781,106.914 75.076,106.502 74.16,106.502 C73.242,106.502 72.578,106.994 72.592,107.697 C72.604,108.283 73.203,108.561 73.854,108.734 C74.371,108.881 74.811,108.986 75.356,109.119 C77.084,109.518 77.854,110.422 77.854,111.818" id="Fill-34"></path>
            <path d="M79.154,106.66 C78.781,106.66 78.516,106.408 78.516,106.01 L78.516,105.692 C78.516,105.293 78.781,105.039 79.154,105.039 L85.387,105.039 C85.76,105.039 86.026,105.293 86.026,105.692 L86.026,106.01 C86.026,106.408 85.76,106.66 85.387,106.66 L83.102,106.66 L83.102,114.065 C83.102,114.41 82.861,114.701 82.449,114.701 L82.078,114.701 C81.666,114.701 81.44,114.41 81.44,114.065 L81.44,106.66 L79.154,106.66" id="Fill-35"></path>
        </g>
    </g>
</svg>