<svg xmlns="http://www.w3.org/2000/svg" width="161" height="151" viewBox="0 0 161 151"><title>Re݁gions-Noir et Blanc_NL</title><g fill="#ed7f69" fill-rule="evenodd"><path d="M46.904 42.084c-7.072 0-14.101 5.328-14.101 14.246 0 8.645 8.004 14.022 14.963 14.022 7.652 0 11.347-2.399 17.799-1.094 5.044 1.015 7.771 3.482 9.125 4.777.646.619 1.466.692 2.031.321.56-.372.937-1.071.56-2.741-.882-3.896-2.957-8.25-5.365-11.968-4.73-7.305-14.328-17.563-25.012-17.563M112.361 42.084c7.073 0 14.102 5.328 14.102 14.246 0 8.645-8.004 14.022-14.965 14.022-7.652 0-11.347-2.399-17.797-1.094-5.045 1.015-7.771 3.482-9.125 4.777-.646.619-1.468.692-2.031.321-.559-.372-.939-1.071-.559-2.741.881-3.896 2.956-8.25 5.364-11.968 4.728-7.305 14.324-17.563 25.011-17.563M88.686 18c-3.95 0-7.221 1.66-9.053 4.084C77.799 19.66 74.531 18 70.58 18c-7.15 0-13.715 5.693-13.715 13.957 0 3.619 1.453 6.371 2.774 8.293 1.502 2.189 3.478 4.088 6.584 6.785 4.508 3.912 8.217 7.731 11.756 15.203.281.596.88 1.27 1.654 1.27s1.371-.674 1.654-1.27c3.541-7.472 7.248-11.291 11.754-15.203 3.108-2.697 5.084-4.596 6.586-6.785 1.32-1.922 2.772-4.674 2.772-8.293 0-8.264-6.561-13.957-13.713-13.957"/><path d="M88.354 22.084c-4.739 0-7.692 3.568-8.721 6.119-1.033-2.551-3.983-6.119-8.721-6.119-5.457 0-9.869 4.504-9.869 9.959 0 2.061.705 3.957 1.967 5.684 4.967 6.789 11.711 8.966 16.623 19.603 4.912-10.637 11.656-12.814 16.625-19.603 1.26-1.727 1.963-3.623 1.963-5.684 0-5.455-4.412-9.959-9.867-9.959M49.047 101.867c.758 0 1.303-.533 1.303-1.302 0-.786-.6-1.317-1.369-1.317h-2.539v2.619zm-2.605-4.148h2.113c.412-.119.797-.584.81-1.09.014-.689-.492-1.195-1.209-1.195h-1.714zm-1.038 5.756c-.451 0-.65-.307-.65-.639v-8.373c0-.332.199-.65.65-.65h2.739c1.74 0 2.91 1.115 2.91 2.738 0 .545-.305 1.129-.678 1.474.971.36 1.676 1.436 1.676 2.551 0 1.756-1.211 2.899-2.965 2.899zM56.008 95.434v2.724h1.978c.985 0 1.502-.531 1.502-1.316 0-.836-.531-1.408-1.421-1.408zm5.369 7.164c.291.426.012.877-.492.877h-.545a.84.84 0 0 1-.664-.36L57.51 99.74h-1.502v3.096c0 .332-.199.639-.652.639h-.385c-.453 0-.664-.307-.664-.639v-8.373c0-.332.211-.65.664-.65h3.109c1.887 0 3.151 1.236 3.151 2.976 0 1.408-.877 2.406-1.954 2.738zM63.752 100.178v-5.715c0-.332.199-.65.65-.65h.387c.451 0 .651.318.651.65v5.742c0 1.129.744 1.781 1.834 1.781 1.103 0 1.82-.652 1.82-1.781v-5.742c0-.332.199-.65.652-.65h.371c.453 0 .653.318.653.65v5.715c0 2.099-1.344 3.402-3.496 3.402-2.18 0-3.522-1.289-3.522-3.402M80.453 100.59c0 1.516-1.381 2.99-3.615 2.99-2.139 0-3.721-1.129-3.76-3.347 0-.36.239-.653.625-.653h.438c.373 0 .65.227.677.625.081 1.195.838 1.754 2.02 1.754 1.145 0 1.861-.598 1.861-1.328 0-.572-.332-.943-1.183-1.145a39 39 0 0 1-1.608-.423c-1.117-.321-2.418-.971-2.418-2.553 0-1.793 1.448-2.805 3.295-2.805 1.754 0 3.203 1.078 3.377 2.699.039.385-.187.678-.638.678h-.385a.657.657 0 0 1-.678-.598c-.08-.798-.785-1.21-1.701-1.21-.918 0-1.582.492-1.568 1.197.011.584.611.863 1.261 1.037.518.144.957.252 1.502.385 1.729.398 2.498 1.302 2.498 2.697M89.555 100.59c0 1.516-1.383 2.99-3.615 2.99-2.141 0-3.721-1.129-3.762-3.347 0-.36.24-.653.625-.653h.439c.371 0 .651.227.678.625.078 1.195.836 1.754 2.02 1.754 1.142 0 1.861-.598 1.861-1.328 0-.572-.334-.943-1.184-1.145a37 37 0 0 1-1.607-.423c-1.117-.321-2.42-.971-2.42-2.553 0-1.793 1.449-2.805 3.297-2.805 1.754 0 3.203 1.078 3.375 2.699.039.385-.186.678-.639.678h-.385a.657.657 0 0 1-.677-.598c-.08-.798-.784-1.21-1.702-1.21-.916 0-1.582.492-1.568 1.197.014.584.611.863 1.264 1.037.517.144.957.252 1.502.385 1.726.398 2.498 1.302 2.498 2.697M93.537 95.434v2.232h2.992c.372 0 .664.24.664.652v.319c0 .412-.292.65-.664.65h-2.992v2.567h4.135c.398 0 .664.291.664.636v.346c0 .359-.266.639-.664.639h-5.156c-.453 0-.653-.293-.653-.639v-8.373c0-.346.2-.65.653-.65h4.916c.345 0 .638.238.638.65v.32a.625.625 0 0 1-.638.651zM101.096 103.475c-.451 0-.637-.307-.637-.639v-8.373c0-.332.213-.65.637-.65h.387c.425 0 .636.318.636.65v7.377h3.828c.332 0 .639.199.639.639v.357c0 .439-.307.639-.639.639zM114.983 100.59c0 1.516-1.383 2.99-3.616 2.99-2.138 0-3.72-1.129-3.761-3.347 0-.36.24-.653.625-.653h.439c.371 0 .65.227.678.625.08 1.195.838 1.754 2.019 1.754 1.143 0 1.862-.598 1.862-1.328 0-.572-.332-.943-1.184-1.145a38 38 0 0 1-1.607-.423c-1.118-.321-2.42-.971-2.42-2.553 0-1.793 1.449-2.805 3.297-2.805 1.753 0 3.203 1.078 3.375 2.699.041.385-.186.678-.637.678h-.387a.66.66 0 0 1-.678-.598c-.078-.798-.783-1.21-1.701-1.21-.916 0-1.58.492-1.568 1.197.014.584.611.863 1.264 1.037.517.144.957.252 1.501.385 1.727.398 2.499 1.302 2.499 2.697M21 109.076c0-.332.199-.65.652-.65h.372c.451 0 .664.318.664.65v3.389h3.363v-3.389c0-.332.199-.65.65-.65h.387c.451 0 .65.318.65.65v8.373c0 .332-.199.639-.65.639h-.387c-.451 0-.65-.307-.65-.639v-3.361h-3.363v3.361c0 .332-.213.639-.664.639h-.372c-.453 0-.652-.307-.652-.639zM31.734 113.264c0 1.914.866 3.322 2.327 3.322 1.463 0 2.326-1.408 2.326-3.322 0-1.889-.891-3.377-2.326-3.377s-2.327 1.488-2.327 3.377m-1.673 0c0-2.871 1.607-4.946 4-4.946s4 2.075 4 4.946c0 2.869-1.58 4.929-4 4.929-2.418 0-4-2.06-4-4.929M41.461 113.264c0 1.914.863 3.322 2.324 3.322 1.463 0 2.326-1.408 2.326-3.322 0-1.889-.89-3.377-2.326-3.377s-2.324 1.488-2.324 3.377m-1.676 0c0-2.871 1.61-4.946 4-4.946 2.393 0 4.002 2.075 4.002 4.946 0 2.869-1.582 4.929-4.002 4.929-2.418 0-4-2.06-4-4.929M51.77 117.449a.62.62 0 0 1-.651.639h-.373c-.426 0-.65-.307-.65-.639v-8.373c0-.345.224-.65.65-.65h5.051c.412 0 .664.224.664.65v.319c0 .425-.266.652-.664.652H51.77v2.232h2.697c.387 0 .652.213.652.653v.318c0 .426-.293.65-.652.65H51.77zM61.016 116.479c1.808 0 2.978-1.342 2.978-3.204 0-1.925-1.131-3.242-2.992-3.242h-1.301v6.446zm-2.338 1.609c-.44 0-.625-.307-.625-.639v-8.373c0-.332.199-.65.625-.65h2.271c2.819 0 4.692 1.914 4.692 4.849 0 2.858-1.981 4.813-4.664 4.813zM74.754 115.203c0 1.516-1.381 2.99-3.615 2.99-2.139 0-3.721-1.128-3.76-3.349 0-.358.238-.651.625-.651h.438c.373 0 .65.227.677.625.08 1.196.838 1.754 2.02 1.754 1.144 0 1.861-.597 1.861-1.328 0-.572-.332-.945-1.183-1.144a39 39 0 0 1-1.608-.424c-1.117-.32-2.418-.971-2.418-2.553 0-1.795 1.447-2.805 3.295-2.805 1.754 0 3.203 1.077 3.377 2.7.039.384-.187.677-.639.677h-.384a.66.66 0 0 1-.678-.599c-.08-.797-.785-1.209-1.701-1.209-.918 0-1.582.492-1.569 1.197.012.584.612.863 1.262 1.035.518.147.957.254 1.502.387 1.728.398 2.498 1.303 2.498 2.697M76.055 110.047c-.373 0-.639-.252-.639-.652v-.319c0-.398.266-.65.639-.65h6.232c.373 0 .639.252.639.65v.319c0 .4-.266.652-.639.652h-2.285v7.402c0 .346-.24.639-.652.639h-.371c-.412 0-.639-.293-.639-.639v-7.402zM86.256 110.047v2.232h2.992c.371 0 .664.241.664.653v.318c0 .412-.293.65-.664.65h-2.992v2.567h4.135c.398 0 .664.291.664.637v.345c0 .36-.266.639-.664.639h-5.157c-.453 0-.652-.293-.652-.639v-8.373c0-.345.199-.65.652-.65h4.917c.345 0 .638.238.638.65v.319c0 .4-.293.652-.638.652zM96.143 116.479c1.806 0 2.976-1.342 2.976-3.204 0-1.925-1.131-3.242-2.99-3.242h-1.303v6.446zm-2.34 1.609c-.44 0-.625-.307-.625-.639v-8.373c0-.332.199-.65.625-.65h2.273c2.817 0 4.692 1.914 4.692 4.849 0 2.858-1.981 4.813-4.666 4.813zM104.764 110.047v2.232h2.99c.373 0 .666.241.666.653v.318c0 .412-.293.65-.666.65h-2.99v2.567h4.133c.4 0 .666.291.666.637v.345c0 .36-.266.639-.666.639h-5.157c-.451 0-.65-.293-.65-.639v-8.373c0-.345.199-.65.65-.65h4.918c.346 0 .639.238.639.65v.319c0 .4-.293.652-.639.652zM112.311 118.088c-.453 0-.639-.307-.639-.639v-8.373c0-.332.213-.65.639-.65h.384c.426 0 .639.318.639.65v7.377h3.826c.334 0 .639.199.639.637v.359c0 .44-.305.639-.639.639zM119.803 109.063c0-.358.213-.637.639-.637h.371c.425 0 .652.279.652.637v8.4c0 .346-.213.625-.652.625h-.36c-.424 0-.65-.279-.65-.625zM129.358 115.389c0 1.781-1.104 2.804-2.885 2.804-1.729 0-2.832-1.048-2.832-2.777v-.307c0-.332.213-.65.666-.65h.371c.453 0 .639.318.639.65v.334c0 .704.425 1.168 1.156 1.168s1.236-.478 1.236-1.195v-6.34c0-.332.186-.65.637-.65h.359c.451 0 .653.318.653.65zM134.338 114.047l-.572.625v2.777a.62.62 0 0 1-.651.639h-.386a.62.62 0 0 1-.651-.639v-8.373c0-.371.213-.65.664-.65h.373c.424 0 .651.279.651.65v3.416l3.283-3.748c.119-.133.385-.318.691-.318h.598c.531 0 .65.517.332.877l-3.23 3.562 3.589 4.332c.305.371.133.891-.359.891h-.639c-.238 0-.531-.16-.716-.398zM60.182 126.242l-.387.147c-.346.119-.678-.039-.797-.373-.332-.864-.971-1.489-2.019-1.489-1.516 0-2.407 1.516-2.407 3.377 0 1.914.825 3.323 2.393 3.323 1.408 0 2.166-.957 2.219-2.26h-1.621c-.36 0-.651-.213-.651-.625v-.332c0-.399.266-.651.637-.651h2.644c.374 0 .625.225.625.625v.465c0 2.725-1.634 4.36-3.919 4.36-2.499 0-3.975-2.1-3.975-4.891 0-2.805 1.662-4.984 4.066-4.984 1.795 0 3.084 1.009 3.563 2.525.119.358-.027.664-.371.783M64.881 124.66v2.235h2.992c.371 0 .664.238.664.65v.318c0 .412-.293.653-.664.653h-2.992v2.564h4.135c.398 0 .664.293.664.639v.346c0 .357-.266.636-.664.636h-5.157c-.453 0-.652-.291-.652-.636v-8.373c0-.346.199-.653.652-.653h4.916c.346 0 .639.24.639.653v.318c0 .398-.293.65-.639.65zM76.654 123.039c.332 0 .557.188.623.506l1.184 5.994 1.236-5.994a.61.61 0 0 1 .625-.506h.491c.412 0 .679.279.572.705l-2.061 8.479a.594.594 0 0 1-.611.478h-.623c-.334 0-.586-.172-.652-.492l-1.129-6.193-1.145 6.193c-.066.32-.305.492-.623.492h-.639a.595.595 0 0 1-.611-.478l-2.074-8.465c-.106-.426.146-.719.586-.719h.492c.318 0 .545.199.611.506l1.262 5.994 1.17-5.994c.066-.318.293-.506.611-.506zM85.275 124.66v2.235h2.991c.371 0 .664.238.664.65v.318c0 .412-.293.653-.664.653h-2.991v2.564h4.133c.399 0 .664.293.664.639v.346c0 .357-.265.636-.664.636h-5.156c-.453 0-.652-.291-.652-.636v-8.373c0-.346.199-.653.652-.653h4.918c.344 0 .637.24.637.653v.318c0 .398-.293.65-.637.65zM98.854 129.818c0 1.514-1.381 2.991-3.616 2.991-2.138 0-3.72-1.131-3.759-3.35 0-.359.238-.652.625-.652h.437c.373 0 .651.226.678.625.08 1.197.838 1.756 2.019 1.756 1.145 0 1.862-.6 1.862-1.33 0-.573-.332-.944-1.184-1.143a36 36 0 0 1-1.607-.426c-1.117-.318-2.418-.971-2.418-2.551 0-1.795 1.447-2.804 3.295-2.804 1.754 0 3.203 1.076 3.377 2.697.039.385-.188.678-.639.678h-.385a.66.66 0 0 1-.678-.598c-.08-.797-.785-1.209-1.701-1.209-.918 0-1.582.492-1.568 1.195.012.586.611.864 1.262 1.037.517.147.957.252 1.502.385 1.728.399 2.498 1.303 2.498 2.699M100.154 124.66c-.373 0-.638-.252-.638-.65v-.318c0-.399.265-.653.638-.653h6.233c.373 0 .639.254.639.653v.318c0 .398-.266.65-.639.65h-2.285v7.405c0 .345-.241.636-.653.636h-.371c-.412 0-.638-.291-.638-.636v-7.405z"/></g></svg>