<svg xmlns="http://www.w3.org/2000/svg" fill="none" viewBox="0 0 233 147"><path fill="#495747" d="M96.723 46.171c-7.507 0-13.57-6.04-13.57-13.52s6.063-13.52 13.57-13.52c7.506 0 13.57 6.04 13.57 13.52s-6.064 13.52-13.57 13.52m0-24.02c-5.92 0-10.683 4.746-10.683 10.644s4.764 10.643 10.683 10.643 10.682-4.746 10.682-10.644-4.764-10.643-10.682-10.643"/><path fill="#495747" d="M96.723 46.89c-7.796 0-14.292-6.328-14.292-14.24 0-7.91 6.352-14.239 14.292-14.239 7.795 0 14.291 6.329 14.291 14.24 0 7.91-6.352 14.24-14.291 14.24m0-26.897c-7.074 0-12.849 5.754-12.849 12.802 0 7.047 5.775 12.8 12.849 12.8s12.848-5.752 12.848-12.8-5.775-12.802-12.849-12.802m0 24.02c-6.208 0-11.405-5.033-11.405-11.362s5.053-11.363 11.404-11.363c6.208 0 11.405 5.034 11.405 11.363s-5.053 11.363-11.404 11.363m0-21.143c-5.486 0-9.961 4.459-9.961 9.925 0 5.465 4.475 9.924 9.96 9.924s9.961-4.459 9.961-9.924c0-5.466-4.475-9.925-9.96-9.925M230.835 143.692H2.165v1.438h228.67z"/><path fill="#495747" d="M230.835 145.849H2.165c-.866 0-1.443-.575-1.443-1.438s.577-1.438 1.444-1.438h228.669c.866 0 1.443.575 1.443 1.438s-.577 1.438-1.443 1.438"/><path fill="#495747" d="M230.835 146.568H2.165c-1.154 0-2.165-1.006-2.165-2.157s1.01-2.158 2.165-2.158h228.67c1.154 0 2.165 1.007 2.165 2.158s-1.011 2.157-2.165 2.157m-228.67-2.876c-.433 0-.721.287-.721.719 0 .431.288.719.721.719h228.67c.433 0 .721-.288.721-.719 0-.432-.288-.719-.721-.719z"/><path fill="#495747" d="M222.895 145.849H78.533l21.51-36.965 18.334-35.528h62.508zm-139.31-2.876h134.257l-38.689-66.74h-59.044l-17.468 34.089z"/><path fill="#495747" d="M224.194 146.568H77.378l22.087-38.116 18.479-35.959h63.374l.145.288zM79.832 145.13h141.763l-41.143-71.055H118.81l-18.045 35.096zm139.309-1.438H82.431l19.633-33.802 17.756-34.376h59.91l.145.287zm-134.256-1.439h131.802l-37.823-65.445h-58.322l-17.323 33.658z"/><path fill="#495747" d="m157.499 144.843-42.587-76.377 1.299-.575 42.443 76.232z"/><path fill="#495747" d="M158.076 145.849c-.577 0-1.01-.287-1.299-.719l-42.442-76.233c-.433-.719-.145-1.582.577-2.013.722-.432 1.588-.144 2.021.575l42.442 76.377c.434.719.145 1.582-.577 2.013z"/><path fill="#495747" d="M158.076 146.569c-.722 0-1.443-.432-1.877-1.151l-42.586-76.233c-.289-.431-.289-1.15-.145-1.582.145-.576.578-1.007 1.011-1.295.433-.287 1.155-.287 1.588-.144.577.144 1.01.576 1.299 1.007l42.442 76.377c.289.432.289 1.151.145 1.582-.144.576-.578 1.007-1.011 1.295-.144.144-.433.144-.866.144m-42.587-79.11c-.144 0-.288 0-.288.144-.145.144-.289.288-.289.431v.576l42.442 76.376c.145.288.578.432 1.011.288.144-.144.289-.288.289-.431v-.576l-42.443-76.376c-.144-.144-.288-.288-.433-.288-.144-.144-.144-.144-.289-.144M46.629 55.664h-1.444v88.747h1.444z"/><path fill="#495747" d="M45.907 145.849c-.866 0-1.444-.575-1.444-1.438V55.664c0-.863.578-1.438 1.444-1.438s1.444.575 1.444 1.438v88.747c0 .863-.722 1.438-1.444 1.438"/><path fill="#495747" d="M45.907 146.568c-1.155 0-2.165-1.006-2.165-2.157V55.664c0-1.15 1.01-2.157 2.165-2.157s2.165 1.007 2.165 2.157v88.747c0 1.294-1.01 2.157-2.165 2.157m0-91.623c-.433 0-.722.288-.722.72v88.746c0 .431.289.719.722.719s.722-.288.722-.719V55.664c0-.431-.433-.719-.722-.719"/><path fill="#495747" d="M61.643 74.795c-.434 0-.867-.144-1.155-.576l-14.58-17.835-14.726 17.835c-.433.576-1.443.72-2.02.144-.578-.575-.723-1.438-.145-2.014l16.89-20.568 16.89 20.568c.434.576.434 1.582-.144 2.014-.289.288-.577.431-1.01.431"/><path fill="#495747" d="M61.643 75.514c-.722 0-1.3-.288-1.733-.72l-14.147-17.26-14.148 17.26c-.433.432-.866.72-1.443.72s-1.155-.144-1.588-.432c-.866-.719-1.01-2.157-.29-3.02l17.469-21.288 17.612 21.144c.722.863.577 2.301-.289 3.02-.433.432-.866.576-1.444.576M45.906 55.233 61.21 73.788c.145.287.578.431 1.011.144.289-.288.289-.72.144-1.007L45.907 52.932 29.45 72.925c-.289.287-.145.719.144 1.007.144.143.289.143.578.143.144 0 .433-.144.433-.287z"/><path fill="#495747" d="M65.54 95.65c-.433 0-.866-.143-1.155-.575L45.907 72.493 27.284 95.075c-.433.576-1.443.72-2.02.144-.578-.431-.723-1.438-.145-2.013L45.907 67.89l20.788 25.316c.433.575.433 1.582-.144 2.013a1.56 1.56 0 0 1-1.01.432"/><path fill="#495747" d="M26.13 96.37c-.434 0-1.011-.144-1.3-.432-.433-.431-.722-.863-.722-1.438s.145-1.15.433-1.582l21.366-26.035 21.366 26.035c.721.863.577 2.301-.29 3.02-.865.72-2.309.576-3.03-.287L45.906 73.644 27.862 95.507c-.433.431-.866.719-1.444.719-.144.144-.144.144-.288.144m19.777-27.185L25.697 93.78c-.145.144-.145.287-.145.575 0 .144.144.432.289.432.144.144.288.144.577.144.145 0 .433-.144.433-.288l19.2-23.302 18.912 23.302c.144.287.577.431 1.01.144.29-.288.29-.72.145-1.007z"/><path fill="#495747" d="M67.561 115.788c-.433 0-.866-.144-1.155-.576l-20.5-25.027-20.643 25.027c-.433.576-1.444.719-2.021.144-.578-.431-.722-1.438-.144-2.014l22.809-27.76 22.809 27.76c.433.576.433 1.583-.144 2.014-.29.288-.578.432-1.011.432"/><path fill="#495747" d="M24.108 116.507c-.433 0-1.01-.144-1.299-.432-.433-.431-.722-.863-.722-1.438s.145-1.151.433-1.582l23.387-28.48 23.386 28.336c.434.431.578 1.007.434 1.582 0 .575-.29 1.151-.722 1.438-.866.72-2.31.576-3.032-.287L45.907 91.192 25.84 115.644c-.434.431-.867.719-1.444.719-.144.144-.144.144-.289.144m21.799-29.774L23.53 113.774c-.289.288-.145.719.144 1.007.145.144.289.144.578.144.144 0 .433-.144.433-.288l21.22-25.747 21.222 25.747c.144.288.578.431 1.01.144.29-.288.29-.719.145-1.007zM119.243 76.808v34.808l-2.454 2.158-16.746 13.952 1.443 16.685 17.757-32.795"/><path fill="#495747" d="m100.909 147-1.733-19.562 17.035-14.096 2.31-2.013v-34.52h1.444v35.095l-.145.144zm-.144-18.986 1.299 13.952 14.725-27.329z"/><path fill="#495747" d="M101.486 145.849h-.288c-.578-.144-1.155-.719-1.155-1.294l-1.444-16.829c0-.431.144-.863.578-1.294l18.767-15.679V76.808c0-.863.577-1.438 1.443-1.438s1.444.575 1.444 1.438v34.808c0 .288 0 .432-.145.72l-17.756 32.938c-.433.431-.866.575-1.444.575m0-17.548 1.011 11.22 11.838-21.863z"/><path fill="#495747" d="M101.486 146.568h-.433c-.866-.143-1.588-1.006-1.732-1.869l-1.444-16.829c0-.719.289-1.439.722-1.87l18.478-15.39V76.808c0-1.15 1.011-2.157 2.166-2.157s2.165 1.007 2.165 2.157v34.808c0 .288-.144.72-.289 1.007l-17.756 32.939c-.289.575-1.011 1.006-1.877 1.006m17.757-70.479c-.433 0-.722.288-.722.72v34.52l-18.912 15.822c-.144.143-.288.431-.288.575l1.443 16.829c0 .287.289.575.578.575a.8.8 0 0 0 .722-.431l17.756-32.795c0-.144.145-.288.145-.288V76.808c0-.431-.289-.719-.722-.719m-17.179 65.877-1.3-13.952 16.025-13.233zm.144-13.377.722 8.486 8.95-16.541z"/><path fill="#495747" d="m119.243 111.616 2.454 2.158 16.89 14.384-1.588 16.253z"/><path fill="#495747" d="m137.432 146.856-20.788-38.404 5.486 4.89 17.179 14.528zm-15.735-32.075 14.725 27.329 1.443-13.665z"/><path fill="#495747" d="M136.999 145.849c-.577 0-1.01-.287-1.299-.719l-17.757-32.794c-.288-.576-.144-1.439.434-1.87a1.52 1.52 0 0 1 1.876 0l2.454 2.157 16.891 14.384c.288.287.577.719.433 1.294l-1.733 16.398c0 .575-.577 1.15-1.154 1.294 0-.144 0-.144-.145-.144m-12.848-28.048 11.838 21.863 1.155-10.931z"/><path fill="#495747" d="M136.999 146.568c-.866 0-1.588-.431-1.877-1.15l-17.756-32.795a2.24 2.24 0 0 1 .577-2.733c.866-.719 2.021-.575 2.743 0l2.454 2.158 16.891 14.527c.577.432.866 1.151.721 1.87l-1.732 16.397c-.144 1.007-.866 1.726-1.732 1.87 0-.144-.145-.144-.289-.144m-17.756-35.671c-.145 0-.289 0-.433.144-.289.288-.289.575-.145.863l17.757 32.938c.144.288.577.432.721.432.289 0 .578-.288.578-.575l1.732-16.398c0-.287 0-.431-.288-.575l-19.489-16.685c-.145-.144-.289-.144-.433-.144m17.323 31.213-14.725-27.329 16.169 13.664zm-9.961-21.288 8.95 16.397.867-8.198zM122.958 67.76l-4.15 7.245 1.253.713 4.151-7.245z"/><path fill="#495747" d="M119.387 76.808c-.288 0-.433 0-.721-.144-.722-.431-.867-1.294-.578-2.013l4.187-7.192c.433-.72 1.299-.863 2.021-.575.722.431.866 1.294.577 2.013l-4.186 7.192c-.289.576-.722.72-1.3.72"/><path fill="#495747" d="M119.387 77.527c-.433 0-.721-.143-1.01-.287-.433-.288-.866-.72-1.011-1.295s-.144-1.15.145-1.582l4.186-7.192c.289-.431.722-.863 1.299-1.007.578-.143 1.155-.143 1.588.144.433.288.867.72 1.011 1.295s.144 1.15-.144 1.582l-4.187 7.192c-.289.719-1.01 1.15-1.877 1.15m4.187-10.068h-.144c-.145 0-.289.144-.434.288l-4.186 7.191a.44.44 0 0 0 0 .576c.144.144.144.287.289.431.288.144.866 0 1.01-.287l4.187-7.192a.44.44 0 0 0 0-.575c-.145-.144-.145-.288-.289-.288-.144-.144-.289-.144-.433-.144M180.019 77.528l-4.908-8.775c-.433-.719-.145-1.582.577-2.013.722-.432 1.588-.144 2.021.575l2.454 4.459 2.888-4.603c.433-.719 1.299-.863 2.021-.431.721.431.866 1.294.433 2.014z"/><path fill="#495747" d="m179.875 78.966-5.486-9.781c-.577-1.007-.144-2.301.866-2.877s2.31-.144 2.887.863l1.877 3.452 2.166-3.452c.577-1.007 2.021-1.294 3.031-.719s1.299 2.014.722 3.02zm-3.609-11.507c-.145 0-.289 0-.289.144-.289.144-.433.575-.289 1.007l4.331 7.623 4.764-7.623c.144-.288.144-.72-.289-1.007-.288-.144-.721-.144-1.01.287l-3.465 5.61-3.176-5.466c0-.431-.289-.575-.577-.575M96.723 14.096c-.867 0-1.444-.575-1.444-1.438v-10.5c0-.863.578-1.439 1.444-1.439s1.443.576 1.443 1.439v10.5c0 .863-.577 1.438-1.443 1.438"/><path fill="#495747" d="M96.723 14.815c-1.155 0-2.166-1.007-2.166-2.157v-10.5c0-1.151 1.01-2.158 2.166-2.158 1.154 0 2.165 1.007 2.165 2.158v10.5c0 1.294-.866 2.157-2.165 2.157m0-13.377c-.433 0-.722.288-.722.72v10.5c0 .431.288.719.722.719.433 0 .721-.288.721-.72v-10.5c0-.431-.288-.719-.721-.719M96.723 64.726c-.867 0-1.444-.575-1.444-1.438v-10.5c0-.863.578-1.439 1.444-1.439s1.443.576 1.443 1.439v10.5c0 .863-.577 1.438-1.443 1.438"/><path fill="#495747" d="M96.723 65.445c-1.155 0-2.166-1.007-2.166-2.157v-10.5c0-1.151 1.01-2.158 2.166-2.158 1.154 0 2.165 1.007 2.165 2.158v10.5c0 1.294-.866 2.157-2.165 2.157m0-13.376c-.433 0-.722.287-.722.719v10.5c0 .431.288.719.722.719.433 0 .721-.288.721-.72v-10.5c0-.43-.288-.718-.721-.718M127.039 34.233H116.5c-.866 0-1.443-.575-1.443-1.438 0-.864.577-1.439 1.443-1.439h10.539c.866 0 1.443.575 1.443 1.439 0 .863-.722 1.438-1.443 1.438"/><path fill="#495747" d="M127.039 34.952H116.5c-1.155 0-2.165-1.007-2.165-2.157s1.01-2.158 2.165-2.158h10.539c1.154 0 2.165 1.007 2.165 2.157s-1.011 2.158-2.165 2.158m-10.683-2.877c-.433 0-.722.288-.722.72 0 .431.289.719.722.719h10.683c.433 0 .721-.288.721-.72 0-.431-.288-.719-.721-.719zM76.079 34.233H65.54c-.866 0-1.443-.575-1.443-1.438 0-.864.577-1.439 1.443-1.439H76.08c.866 0 1.443.575 1.443 1.439 0 .863-.577 1.438-1.443 1.438"/><path fill="#495747" d="M76.079 34.952H65.54c-1.155 0-2.165-1.007-2.165-2.157s1.01-2.158 2.165-2.158H76.08c1.155 0 2.165 1.007 2.165 2.157s-.866 2.158-2.165 2.158M65.54 32.075c-.433 0-.722.288-.722.72 0 .431.29.719.722.719H76.08c.433 0 .721-.288.721-.72 0-.431-.288-.719-.721-.719zM111.159 20.425c-.433 0-.722-.144-1.011-.432-.577-.575-.577-1.438 0-2.014l7.507-7.479a1.4 1.4 0 0 1 2.021 0c.577.575.577 1.438 0 2.014l-7.507 7.48c-.288.287-.577.43-1.01.43"/><path fill="#495747" d="M111.159 21.144c-.578 0-1.155-.288-1.588-.575-.866-.863-.866-2.158 0-3.021l7.507-7.48c.866-.862 2.165-.862 3.031 0 .866.864.866 2.158 0 3.021l-7.507 7.48c-.288.287-.866.575-1.443.575m7.507-10.356c-.145 0-.434 0-.578.143l-7.507 7.48a.695.695 0 0 0 0 1.007.7.7 0 0 0 1.011 0l7.507-7.48a.695.695 0 0 0 0-1.007c0-.143-.289-.143-.433-.143M75.212 56.24c-.433 0-.721-.144-1.01-.432-.578-.575-.578-1.438 0-2.014l7.507-7.479a1.4 1.4 0 0 1 2.02 0c.578.575.578 1.438 0 2.014l-7.506 7.48c-.289.287-.578.43-1.01.43"/><path fill="#495747" d="M75.213 56.959c-.578 0-1.155-.288-1.588-.575-.867-.863-.867-2.158 0-3.021l7.506-7.48c.867-.862 2.166-.862 3.032 0 .866.864.866 2.158 0 3.021l-7.507 7.48c-.289.287-.866.575-1.444.575m7.506-10.356c-.144 0-.433 0-.577.144l-7.507 7.48a.693.693 0 0 0 0 1.006.7.7 0 0 0 1.01 0l7.507-7.48a.694.694 0 0 0 0-1.006c0-.144-.288-.144-.433-.144M118.377 55.808c-.433 0-.722-.144-1.011-.431l-7.507-7.48c-.577-.575-.577-1.438 0-2.014.578-.575 1.444-.575 2.021 0l7.507 7.48c.578.575.578 1.438 0 2.014a1.56 1.56 0 0 1-1.01.431"/><path fill="#495747" d="M118.377 56.527c-.578 0-1.155-.287-1.588-.575l-7.507-7.48c-.866-.862-.866-2.157 0-3.02s2.165-.863 3.032 0l7.506 7.48c.867.862.867 2.157 0 3.02-.433.288-.866.575-1.443.575m-7.507-10.356c-.144 0-.433 0-.578.144a.695.695 0 0 0 0 1.007l7.507 7.48a.7.7 0 0 0 1.011 0 .693.693 0 0 0 0-1.008l-7.507-7.479c-.144 0-.289-.144-.433-.144M82.43 19.993c-.432 0-.721-.144-1.01-.431l-7.507-7.48c-.577-.575-.577-1.438 0-2.014a1.4 1.4 0 0 1 2.021 0l7.507 7.48c.578.575.578 1.438 0 2.014a1.56 1.56 0 0 1-1.01.431"/><path fill="#495747" d="M82.43 20.712c-.577 0-1.154-.287-1.587-.575l-7.507-7.48c-.866-.863-.866-2.157 0-3.02s2.165-.863 3.032 0l7.506 7.48c.867.863.867 2.157 0 3.02-.433.431-.866.575-1.443.575m-7.506-10.356c-.145 0-.433 0-.578.144a.694.694 0 0 0 0 1.007l7.507 7.48a.7.7 0 0 0 1.01 0 .693.693 0 0 0 0-1.007l-7.506-7.48c-.144 0-.289-.144-.433-.144"/></svg>