<svg xmlns="http://www.w3.org/2000/svg" viewBox="0 0 2000 870"><path d="m622.7 212.7-10.1-7.7c1.8-2.2 143.7-192.4 143.7-192.4l10.2 7.7c-1.4 1.8-143.2 191.6-143.8 192.4m-20.1-14.4-10.9-6.7 44.2-71.7 10.9 6.7zm-21.3-12.5-11.4-5.7L618 83.5l11.4 5.7zm-22.4-10.6-11.9-4.6 44.4-113.7 11.9 4.6zm-23.2-8.5-12.3-3.6L570.7.2 583 3.8zm-23.9-6.4-12.5-2.4 22.5-115.4 12.5 2.4zm-24.4-4.2-12.7-1.3 11.1-107.3 12.7 1.3zm-24.7-2-12.8-.2 1.1-80 12.8.2zm-37.5 1.1L416 34.7l12.7-1 9.2 120.5zm-24.4 3.6-15.4-92 12.6-2.1 15.4 92.1zm-24.1 5.7-20.9-80 12.4-3.2 20.9 80zm-23.5 7.9L315 66.3l12-4.3 38.2 106.1zm-22.6 9.9L307.2 132l11.6-5.4 23.4 50.3zm-21.7 11.9-35.5-61.3 11.1-6.4 35.5 61.3zm-20.5 13.9-12.5-17.8 10.4-7.4 12.5 17.8zm-19.2 15.6-70.7-83.2 9.7-8.3 70.7 83.2zm-17.7 17.2L188 178.6l9-9.1 63.5 62.3zm-16.1 18.8-96.6-79.2 8.1-9.9 96.6 79.2zM221 279.9l-89.1-60.5 7.2-10.6 89.1 60.5zm-12.5 21.3L40.7 208l6.2-11.2L214.8 290zM198 323.6l-61.8-27.4 5.2-11.7 61.8 27.4zm-8.5 23.3L29.2 292.4l4.1-12.1 160.3 54.4zM0 326.4l183.2 44.4 3-12.4L3 314zm179 68.8L104.4 384l1.9-12.6 74.6 11.1zm-2 24.6-136.7-8L41 399l136.7 8zM72.9 447.9l-.4-12.8 104.3-3.3.4 12.8zm-25.7 37.4-1.5-12.7 132.4-16.2 1.5 12.7zm58.2 25.1-2.7-12.5 79-16.9 2.7 12.5zm56.1 16-3.8-12.2 29.6-9.2 3.8 12.2zm-51.3 50.9-4.9-11.8 89.8-37 4.9 11.8zm1.2 37.1-5.9-11.3 99.6-51.9 5.9 11.3zm.7 40.9-6.9-10.8L217 572.9l6.9 10.8zm30.9 22.4-7.8-10.1 95.6-74.2 7.8 10.1zm28.4 22.2-8.7-9.4 83.7-77.9 8.7 9.4zm22.9 26.8-9.5-8.5 78.8-87.8 9.5 8.5zm34 13.5-10.2-7.6 64.2-86 10.2 7.7zm56.5-26.2-10.9-6.7 28.5-46.4 10.9 6.7zm-13.2 92.8-11.4-5.7 63.6-127.7 11.4 5.7zm47.9-19.4-11.9-4.6 38.6-98.8 11.9 4.6zm43.3-26.3-12.3-3.6 18.9-65.1 12.3 3.6zm24.4 35.7-12.5-2.4 18.6-95.5 12.5 2.4zm33 6.1-12.7-1.3 10.2-98.4 12.7 1.3zm34-29.9-12.8-.2.9-67.7 12.8.2zm21 38.2-8.1-106.3 12.7-1 8.1 106.3zm38.2 20.4-21.7-129.1 12.6-2.1L526 829.5zm47.6 38.2-45-171.9 12.4-3.2 45 171.9zm5.6-104.3-26.8-74.4 12-4.3 26.8 74.4zm41.5 14-45.2-97.2 11.6-5.4 45.2 97.2zm82.5 73.9-105.5-182 11.1-6.4 105.5 182zM674.4 755l-68.2-96.5 10.4-7.4 68.2 96.5zm-41.6-103.2-6.7-8 9.7-8.3 6.7 8zm91.9 54.1-80-78.6 9-9.1 80 78.6zm4.4-41.3-67.5-55.3 8.1-9.9 67.5 55.3zm35-15.4-87.3-59.3 7.2-10.6 87.3 59.3zm-4.8-41.8-68.9-38.3 6.2-11.2 68.9 38.3zm78.6.1-136-60.3 5.2-11.7 136 60.3zm-93.2-71.8-33.3-11.3 4.1-12.1 33.3 11.3zm103.5-3.5-129.4-31.4 3-12.3c.7.2 129.3 31.3 129.3 31.3zm-19.7-40-104.3-15.5 1.9-12.6 104.3 15.5zm-11.3-34.8-89.9-5.2.7-12.8 89.9 5.2zm-88.9-30-.4-12.8 66.9-2.1.4 12.8zm-1.4-24.7-1.5-12.7 57.7-7 1.5 12.7zm-3.5-24.5-2.7-12.5 82.8-17.7 2.7 12.5zm-5.7-24.1-3.8-12.2 38.2-11.9 3.8 12.2zm-7.8-23.4-4.9-11.8 53.4-22 4.9 11.8zM700 308l-5.9-11.3L810.5 236l5.9 11.3zm-11.9-21.7-6.9-10.8 141.3-90.6 6.9 10.8zm-13.8-20.5-7.8-10.1 30.2-23.4 7.8 10.1zm-15.5-19.3-8.6-9.4c2-1.9 21.2-19.8 21.2-19.8l8.7 9.4s-20.9 19.4-21.3 19.8m-17.3-17.7-9.5-8.5L776.6 59.1l9.5 8.5zM409.3 468.1c-.7 2.7-1.9 4.8-3.9 7-1.9 2.2-4.3 3.9-7.7 5.1s-7.7 1.9-12.8 1.9h-27.5v-42h27.3c5.1 0 9.2.5 12.3 1.4 3.1 1 5.8 2.2 7.7 3.9s3.4 3.9 4.3 6.3c.7 2.7 1.2 5.3 1.2 8.5.1 2.6-.2 5.2-.9 7.9m-51.9-95.6h22.9c4.3 0 8.2.5 11.4 1 3.1.5 6 1.7 8 3.4 1.9 1.7 3.6 3.9 4.6 6.5 1 2.9 1.4 6 1.4 10.1s-.7 7.5-1.9 10.1c-1.2 2.7-3.1 4.8-5.6 6.3-2.4 1.5-5.6 2.4-8.9 3.1-3.4.7-7.2 1-11.6 1.2h-20.3zm83.3 64.9c-5.3-6-13.5-10.4-24.6-13 5.1-1.9 9.4-4.1 13-6.5 3.6-2.7 6.5-5.3 8.9-8.5 2.2-3.1 4.1-6.3 5.1-9.9 1.2-3.4 1.7-7 1.7-10.9 0-7-1.2-13-3.6-18.8s-6.3-10.6-11.4-14.5-11.8-7-20-9.2-18.1-3.1-29.7-3.1H318v168.8h67.4c10.1 0 19.1-1.2 27.1-3.9 7.7-2.7 14.5-6.3 19.8-10.9 5.6-4.6 9.4-9.9 12.3-16.2 2.9-6 4.3-12.8 4.1-20 0-9.6-2.7-17.3-8-23.4m138.1-64.5v-30H470.2v168.8h108.7v-30.2h-69.3v-40.3h53.1v-29h-53.1v-39.4h69.2m420.7-107.9c-16.5 0-26 11.1-26 29.4 0 18.6 9.7 29.4 26 29.4s25.9-10.9 25.9-29.4c.1-18.3-9.6-29.4-25.9-29.4m0 76.6c-28.8 0-48-20.4-48-47.1s19.2-47.1 48-47.1c28.6 0 47.8 20.6 47.8 47.1s-19.1 47.1-47.8 47.1m107.2-48h11.1c11.1 0 15.7-5.6 15.7-15.1 0-8.3-4.9-14.1-15.7-14.1h-11.1zm0 16.2v30.8h-21.4v-92.3h32.5c25.9 0 37.1 13.1 37.1 30.1 0 18.4-11.6 31.3-37.1 31.3h-11.1zm146.7-61.5v16.5h-37.8v21.4h28.9V302h-28.9v22h37.8v16.5H1194v-92.3zm63.2 3.2 43.7 55.3c-.3-3.6-.5-7-.5-9.9V248h18.9v92.3h-11.1c-3.2 0-5.4-.9-7.5-3.6l-43.4-55c.2 3.2.5 6.3.5 9v49.4h-18.9v-92.3h11.2c3.7.4 4.9.9 7.1 3.6M977.7 456.6h3.4c3.2 0 5.5-1 6.8-2.9l20.8-30.1c2.2-3.2 4.9-4.3 9.2-4.3h18.6l-27.2 37.3c-2 2.7-4.1 4.4-6.3 5.6 3.2 1.2 5.8 3.1 8 6.6l27.9 42.7h-19.1c-4.9 0-6.6-1.4-8.3-3.9l-20.9-32.2c-1.5-2.4-3.6-3.2-7.7-3.2h-5.1v39.3h-21.3v-92.3h21.4v37.3h-.2m120.1-34 43.7 55.3c-.3-3.6-.5-7-.5-9.9V419h18.9v92.3h-11.1c-3.2 0-5.4-.9-7.5-3.6l-43.4-55c.2 3.2.5 6.3.5 9v49.4h-18.9v-92.3h11.2c3.7.5 4.8 1 7.1 3.7m151 13.5c-16.5 0-26 11.1-26 29.4 0 18.6 9.7 29.4 26 29.4s25.9-10.9 25.9-29.4c0-18.4-9.5-29.4-25.9-29.4m0 76.6c-28.8 0-48-20.4-48-47.1s19.2-47.1 48-47.1c28.6 0 47.8 20.6 47.8 47.1.1 26.5-19.2 47.1-47.8 47.1m71.4-93.3h18c3.7 0 6.3 1.9 7.1 4.6l12.6 48.2c.9 3.1 1.7 6.6 2.2 10.6.8-3.9 1.9-7.5 2.9-10.6l15-48.2c.7-2.4 3.4-4.6 7-4.6h6.3c3.8 0 6.1 1.7 7.1 4.6l14.8 48.2c1 2.9 2 6.3 2.7 10 .7-3.7 1.4-7.1 2.2-10l12.6-48.2c.7-2.6 3.4-4.6 7-4.6h16.8l-28.4 92.3h-19.4l-17.4-57.2c-.5-1.7-1.2-3.9-1.9-6.3-.5 2.4-1.2 4.4-1.9 6.3l-17.5 57.2h-19.4zm194.2 75.1h34.2v17h-55.7v-92.3h21.4v75.3m139.1-75.1v16.5h-37.8v21.4h28.9V473h-28.9v22h37.8v16.5H1594v-92.3h59.4m80.7 16.6h-14.3V495h14.3c16.3 0 25.9-11.2 25.9-29.6.2-18.4-9.5-29.6-25.9-29.6m0 75.7h-35.7v-92.3h35.7c28.6 0 47.8 19.6 47.8 46.1.2 26.7-19 46.2-47.8 46.2m143.8-18.2v-14h-9.2c-2.7 0-4.2-1.5-4.2-3.7v-11.7h32.8v39c-9.4 7-20.3 9.9-35.4 9.9-26.9 0-47.1-20.1-47.1-47.1 0-27.6 19.1-47.1 48.7-47.1 15.5 0 26.9 5.3 34.4 12.4l-6.1 9.4c-1.2 1.7-2.9 2.9-4.8 2.9-1.2 0-2.6-.5-3.9-1.2-6.8-4.1-11.6-5.8-20.1-5.8-16 0-26 11.7-26 29.4 0 19.6 11.4 30.6 26.9 30.6 5.5-.2 10-1.3 14-3m122.1-74v16.5h-37.8v21.4h28.9V473h-28.9v22h37.8v16.5h-59.4v-92.3h59.4m-1027.9 222v31.5h19.6c3.6 0 6.5-.3 9-1.2 2.6-.9 4.6-1.9 6.1-3.4q2.55-2.25 3.6-5.1c.7-2 1.2-4.3 1.2-6.6 0-4.8-1.7-8.3-4.9-11.1-3.2-2.7-8.3-4.1-15-4.1zm0-8.8h16.2c3.4 0 6.5-.3 9-1.2s4.6-1.9 6.3-3.2c1.7-1.4 2.9-3.1 3.7-4.9.9-1.9 1.2-4.1 1.2-6.3 0-5.3-1.5-9.2-4.8-11.7-3.2-2.6-8.2-3.7-15-3.7H972v31zm-12.3 50.2v-90.7h28.9c5.6 0 10.4.5 14.5 1.7s7.3 2.7 9.9 4.8c2.5 2 4.6 4.4 5.8 7.5 1.2 2.9 1.9 6.3 1.9 9.9 0 2.2-.3 4.4-1 6.5-.7 2-1.7 3.9-3.2 5.8-1.4 1.7-3.2 3.4-5.3 4.8-2.2 1.4-4.6 2.6-7.5 3.4 6.6 1.4 11.6 3.7 15 7.1s5.1 8 5.1 13.6c0 3.9-.7 7.3-2 10.6-1.4 3.2-3.4 6-6.1 8.2s-6.1 4.1-10 5.3-8.5 1.9-13.5 1.9H960v-.4zm175.7-90.7v10h-43.6V632h35.2v9.7h-35.2v31h43.6v10h-55.8V592h55.8zm68.1 80.3h39.3v10.4h-51.6v-90.7h12.2v80.3m131.1 1.4c2.4 0 4.8-.2 6.8-.3 2-.2 3.9-.5 5.8-1s3.6-1 5.1-1.7 3.2-1.4 4.8-2.2v-20.1H1343c-.8 0-1.4-.2-1.9-.7s-.7-1-.7-1.7v-7h27.9v34.9a39.5 39.5 0 0 1-7.1 4.3c-2.4 1.2-5.1 2.2-7.8 3.1s-5.8 1.4-9 1.9c-3.2.3-6.6.7-10.4.7-6.6 0-12.6-1.2-18-3.4-5.5-2.2-10.2-5.4-14.1-9.5s-7-9-9.2-14.6-3.4-11.9-3.4-18.7c0-7 1-13.3 3.2-18.9s5.3-10.6 9.4-14.6c4.1-4.1 8.8-7.1 14.6-9.5 5.8-2.2 12.1-3.4 19.2-3.4a58.3 58.3 0 0 1 18.5 3.1c2.7 1 5.1 2.2 7.3 3.6s4.2 3.1 6.3 4.8l-3.4 5.6c-.7 1.2-1.7 1.7-2.7 1.7-.7 0-1.4-.2-2.2-.7-1-.5-2.2-1.4-3.6-2.2s-2.9-1.7-4.8-2.4-4.1-1.4-6.6-2c-2.6-.7-5.6-.9-9-.9-5.1 0-9.7.9-13.8 2.6s-7.7 4.1-10.6 7.1c-2.9 3.1-5.1 6.8-6.6 11.2s-2.4 9.4-2.4 14.8q0 8.7 2.4 15.3c1.7 4.4 3.9 8.3 6.8 11.4s6.5 5.4 10.6 7.1c3.4 1.4 8 2.3 12.7 2.3m92.8-81.7h12.3v90.7h-12.3zm109.9 80.8c3.7 0 7.2-.7 10-1.9 2.9-1.2 5.4-3.1 7.5-5.3s3.6-4.9 4.8-8.2c1.2-3.2 1.5-6.6 1.5-10.4v-55.2h12.3V647c0 5.3-.9 10-2.6 14.6-1.7 4.4-4.1 8.3-7.2 11.6-3.1 3.2-6.8 5.8-11.4 7.7-4.4 1.9-9.5 2.7-15.1 2.7s-10.6-.9-15.2-2.7-8.3-4.4-11.4-7.7c-3.1-3.2-5.4-7.1-7.2-11.6-1.7-4.4-2.6-9.4-2.6-14.6v-55.2h12.3V647c0 3.7.5 7.3 1.5 10.4s2.6 6 4.8 8.2 4.6 4.1 7.5 5.3q4.65 1.8 10.5 1.8m141.3-19.7c.5 1.2.8 2.2 1.4 3.4.3-1.2.8-2.4 1.4-3.4.5-1 1-2.2 1.5-3.2l30.6-55.8c.5-1 1.2-1.5 1.7-1.7s1.4-.3 2.6-.3h9v90.7h-10.7V613c0-1 .2-2 .2-3.1l-31.2 56.7c-1 1.9-2.5 2.9-4.4 2.9h-1.7c-1.9 0-3.4-1-4.4-2.9l-31.8-56.9c.2 1 .2 2.2.3 3.2 0 1 .2 2 .2 2.9v66.7h-10.7v-90.7h9c1 0 1.9.2 2.6.3.5.2 1.2.9 1.7 1.7l31.3 55.8c.4 1.2.9 2.2 1.4 3.4" style="fill:#ed7f69"/></svg>