<?xml version="1.0" standalone="no"?>
<!DOCTYPE svg PUBLIC "-//W3C//DTD SVG 20010904//EN"
 "http://www.w3.org/TR/2001/REC-SVG-20010904/DTD/svg10.dtd">
<svg version="1.0" xmlns="http://www.w3.org/2000/svg"
 width="800.000000pt" height="238.000000pt" viewBox="0 0 800.000000 238.000000"
 preserveAspectRatio="xMidYMid meet">

<g transform="translate(0.000000,238.000000) scale(0.100000,-0.100000)"
fill="#1a2e4c" stroke="none">
<path d="M501 2349 c-313 -61 -501 -299 -462 -583 20 -145 77 -244 185 -320
87 -63 160 -89 389 -141 238 -54 296 -78 332 -139 55 -94 42 -193 -35 -268
-58 -56 -118 -77 -240 -85 -189 -12 -330 68 -347 196 l-6 41 -153 0 c-175 0
-162 9 -143 -96 35 -193 182 -336 406 -395 106 -28 296 -30 408 -5 151 34 277
110 354 214 132 176 125 466 -13 620 -84 92 -185 135 -467 197 -107 24 -217
53 -242 65 -89 42 -135 125 -124 222 11 86 56 144 147 187 48 23 68 26 160 26
95 0 110 -3 163 -29 69 -33 110 -84 127 -156 l12 -50 153 0 153 0 -5 43 c-27
235 -181 402 -418 452 -76 16 -262 18 -334 4z"/>
<path d="M1530 1459 l0 -900 143 3 142 3 3 898 2 897 -145 0 -145 0 0 -901z"/>
<path d="M5442 1463 l3 -898 135 0 c128 0 135 1 137 20 1 11 5 51 8 88 l7 68
58 -64 c101 -110 254 -161 419 -138 201 27 343 128 428 306 44 92 63 187 63
313 0 345 -178 591 -459 633 -172 26 -356 -32 -457 -144 l-44 -49 0 381 0 381
-150 0 -150 0 2 -897z m778 40 c207 -94 255 -439 86 -609 -63 -63 -130 -88
-231 -88 -138 0 -237 60 -296 180 -27 54 -33 81 -37 151 -10 185 70 324 218
377 63 23 199 17 260 -11z"/>
<path d="M2522 1770 c-210 -55 -355 -187 -426 -390 -28 -78 -30 -95 -30 -215
1 -113 4 -140 27 -211 66 -200 230 -350 437 -398 84 -20 256 -20 340 0 215 50
388 218 446 434 23 88 23 262 0 350 -58 214 -223 374 -442 430 -102 26 -252
26 -352 0z m320 -267 c65 -30 129 -92 164 -160 27 -54 29 -65 29 -178 0 -111
-2 -124 -28 -176 -101 -206 -376 -255 -543 -97 -84 80 -122 202 -103 337 12
83 37 139 90 196 72 78 145 106 264 102 54 -2 95 -10 127 -24z"/>
<path d="M3395 1743 c4 -10 34 -101 67 -203 33 -102 84 -261 115 -355 30 -93
87 -271 127 -395 l73 -225 143 0 144 0 88 275 c49 151 107 338 128 414 22 77
42 141 43 142 2 2 16 -49 32 -114 26 -107 206 -689 220 -712 10 -15 260 -13
272 3 5 6 99 271 208 587 109 316 200 581 202 588 4 9 -30 12 -150 12 l-155 0
-11 -32 c-73 -230 -174 -567 -197 -655 -16 -62 -31 -113 -34 -113 -3 0 -18 53
-33 118 -16 64 -67 243 -115 397 l-88 280 -150 3 -149 2 -108 -337 c-59 -186
-113 -367 -121 -402 -8 -34 -16 -65 -19 -67 -2 -2 -14 45 -27 104 -22 100 -48
192 -160 560 l-44 142 -154 0 c-143 0 -154 -1 -147 -17z"/>
<path d="M6784 1698 c13 -35 121 -315 241 -623 244 -630 227 -557 163 -693
-21 -46 -40 -70 -70 -90 -39 -25 -50 -27 -182 -32 l-141 -5 -3 -121 c-3 -119
-2 -122 20 -128 13 -3 93 -6 178 -6 145 0 158 2 210 26 66 30 135 101 177 181
27 50 608 1488 621 1536 4 16 -8 17 -145 17 l-149 0 -160 -430 c-87 -236 -162
-430 -165 -430 -3 0 -74 192 -156 428 l-151 427 -156 3 -156 3 24 -63z"/>
</g>
</svg>
