<svg xmlns="http://www.w3.org/2000/svg" fill="none" viewBox="0 0 732 641"><path fill="#abc6b0" d="M832.836 289.126c-2.131 1.218-3.806 3.655-5.176 6.853-6.851-32.439-17.812-74.017-16.442-83.916.914-6.549 6.699-28.632 12.636-50.563 1.218-4.721 2.132-9.29 2.741-13.859 5.023-22.845-.762-69.6-.762-69.6l-6.394 20.864c-17.66-40.206-62.571-66.402-110.374-53.76l-3.197.913c-103.524 29.698-196.695 55.284-215.116 52.238s-234.603-21.474-258.201-9.29c-15.985 8.376-55.872 38.227-77.795 66.859-5.024-13.555-11.113-24.368-14.767-11.575-7.155 24.825 0 47.213 0 47.213.152.609.152 1.218.305 1.979 7.155 32.745 43.997 45.081 7.155 76.911s-70.64 83.002-56.33 127.017c8.83 26.956-24.51 50.41-51.761 64.574-9.591 5.026-17.66 12.032-24.054 20.103-6.546-8.224-12.18-14.316-13.702-11.727-2.436 8.377-1.37 59.244-1.37 59.244h.152c.457 7.92 2.132 15.992 5.481 23.759.457.914.913 1.98 1.218 2.893 21.466 47.213 21.466 81.937 95.303 84.069 73.836 1.98 91.192 1.98 113.723-34.876s20.553-38.989 47.195-40.968 46.129-70.667 46.129-70.667 17.355-30.764 70.64-9.29 74.75 17.362 93.171 13.25 96.368-59.396 113.724-55.284c17.355 4.112 97.281 18.428 115.703 18.428 17.507 0 118.443-98.232 129.252-126.408 11.266-22.083.913-45.384.913-45.384"/><path fill="#cfe3d4" d="M39.359 420.406c-33.036 17.21-48.108 56.96-33.493 91.379.457.914.914 1.98 1.218 2.894 21.466 47.212 21.466 81.936 95.303 84.068 73.836 1.98 91.192 1.98 113.723-34.876s20.553-38.988 47.195-40.968 46.129-70.666 46.129-70.666 17.355-30.765 70.64-9.291 74.75 17.362 93.171 13.25 96.368-59.396 113.724-55.284c17.355 4.112 97.281 18.428 115.703 18.428s129.1-108.588 130.165-130.215c1.066-21.474-23.597-104.476-21.465-118.945.913-6.548 6.698-28.632 12.636-50.562C842.885 49.56 779.096-15.471 709.066 3.262l-3.197.914C602.345 33.874 509.174 59.46 490.753 56.414S256.15 34.94 232.552 47.124c-23.597 12.183-99.413 71.884-92.257 104.628s43.997 45.081 7.155 76.911-76.425 84.373-62.114 128.387c8.83 26.957-18.726 49.04-45.977 63.356"/><path fill="#fff" d="m461.217 431.981-6.394.762 2.892 26.195c2.131-.305 4.263-.609 6.242-.914z"/><path fill="#fff" d="m823.702 234.908-75.816-67.925-42.78-28.632c20.553-25.282 47.956-47.67 53.132-47.67 7.612.305 44.15-2.589 68.813-4.569-.152-2.132-.457-4.264-.761-6.244-24.358 1.98-60.44 4.874-67.747 4.569-9.439-.305-39.887 27.261-58.613 50.563l-7.916-5.33c20.552-25.587 48.26-48.127 53.436-48.127 8.982.305 57.547-3.655 80.079-5.482-.457-2.133-.914-4.265-1.523-6.245-22.836 1.98-69.878 5.788-78.251 5.483-9.439-.305-40.344 27.718-59.07 51.02l-26.946-18.123-54.35-5.94-45.672-24.52-16.899-28.937c-3.958.914-7.764 1.828-11.418 2.59v.152l20.096 34.571 50.239 26.957 53.741 5.787L679.53 135c-12.179 17.057-17.051 30.307-14.463 39.597 7.003 24.825-1.218 71.885-2.284 77.063-2.74 5.178-33.036 60.158-83.275 65.032-13.55 1.37-29.992 5.025-47.347 10.204l-5.328-74.017 56.938-12.641 45.367-70.666 2.436-.61 14.311-19.646-8.982-6.549-11.875 16.296-47.347 11.575c.304-6.092.913-13.098 1.522-19.647l.457-3.655-3.654.152c-.456 0-47.194 2.589-96.216 5.483l-10.352-70.97-112.049 34.266c-6.851-24.367-15.377-49.04-23.902-71.58-5.329-.304-10.505-.457-15.529-.609 1.066 2.741 2.132 5.483 3.045 8.224l-94.237 12.032c-.304-3.35-.609-6.702-1.065-9.9l16.289-7.92 31.362-3.198c-20.248.153-35.32 1.371-40.648 4.113-5.177 2.74-12.941 7.767-21.923 14.316l8.83-4.265c.304 2.59.457 5.178.761 7.768l-1.218.152-12.484-.457c-2.588 1.98-5.176 3.96-7.764 6.092l20.553.761 1.674-.152c3.502 34.419 7.308 72.951 10.505 105.695l-29.078-5.787-48.869 7.767c2.283 3.503 4.567 6.853 6.394 10.204l31.057-4.874-3.654 44.319-38.06 39.141-29.382-7.311-.305-4.112c-1.979 2.285-3.958 4.721-5.785 7.006l1.066 38.531-21.619-6.092c-.913 1.98-1.827 3.96-2.74 5.788l22.532 6.396-15.681 22.693-14.92 8.985c.153 2.285.305 4.721.61 7.006l18.725-11.27 17.508-25.586 25.728 7.31-33.645 31.069 35.32 49.497-18.878 26.347-42.627-46.451c-.762 2.133-1.675 4.265-2.893 6.397l41.714 45.385-7.308 10.051L11.65 524.731c.914 2.132 1.675 4.112 2.588 6.092l107.482-86.81 7.003-9.595 30.448 33.201c-46.129 28.327-113.114 74.169-134.124 88.79.914 1.98 1.98 3.807 2.893 5.787 27.556-19.037 145.694-100.212 173.402-110.416-18.726 13.402-33.341 24.672-42.932 33.658-50.544 31.83-116.16 77.367-125.903 84.068 1.218 1.828 2.436 3.503 3.806 5.026 8.678-5.939 62.267-43.1 109.461-73.56-3.045 5.178-6.394 10.357-9.743 15.535-14.768 23.301-28.621 45.232-25.729 63.356.609 4.112 2.131 10.813 4.263 19.037 5.328.152 10.2.305 14.767.305-2.436-9.443-4.263-17.362-5.024-21.627-1.979-12.793 11.114-33.353 23.75-53.456 4.11-6.397 8.221-12.946 12.027-19.495 4.567-7.919 25.576-24.367 51-42.491a48 48 0 0 1 5.024-1.98c19.03-5.482 91.193-26.499 144.325-44.014-.305 5.94-.762 10.357-1.371 12.793-.304 1.371-1.674 3.655-3.501 6.701 4.415.61 9.287 1.676 14.615 3.351 1.37-2.437 2.284-4.569 2.74-6.244 1.066-4.112 1.675-11.727 1.979-21.322 2.132-.761 4.263-1.523 6.394-2.132l2.589 34.724a160 160 0 0 0 9.895 3.655l-3.045-41.73c12.789-4.569 22.38-8.376 26.643-10.965 14.31-8.529 61.2-30.155 107.177-45.842l-11.418 86.505 6.851-4.112 10.657-84.525c22.988-7.615 45.215-13.402 62.571-15.078 11.113-1.066 21.313-4.416 30.448-8.985a80319 80319 0 0 0 43.54 73.103l-17.659 16.296c2.74.457 5.328.914 8.068 1.218l13.093-11.879c2.131 3.503 3.349 5.787 3.654 6.244.304.609 1.827 3.96 3.806 8.681q3.882.457 7.307.914c-2.892-6.549-5.024-11.575-5.48-12.641-1.523-3.046-43.693-73.56-50.544-85.134 33.34-19.342 51.609-54.98 52.523-56.96l.152-.457.152-.457c.457-2.132 10.048-52.695 2.132-80.413-1.979-7.158 2.892-19.494 14.006-34.876l42.475 28.479 86.929 77.977c-1.37-5.483-2.74-11.727-4.11-18.123m-329.297 18.58-3.654-24.825 61.963.153 3.958 10.813zm125.751-81.936-18.573 29.088c-6.242-3.959-20.553-13.097-24.054-15.534-.153-.609-.153-1.675-.305-2.894zm-47.042 18.275c2.436 1.828 21.466 14.012 24.967 16.296l-18.269 28.48-17.051 3.807-5.633-15.839-67.442-.152-3.045-21.322 8.069 1.219 76.272-18.581c.457 4.722 1.371 5.483 2.132 6.092m-141.736 38.836 52.827.153 3.806 26.195-48.108 10.661zm2.436 38.379-9.896 2.133-12.027-38.38 13.093-1.827zm138.691-113.005c-.761 7.615-1.218 13.555-1.37 18.124l-76.73 18.732-9.286-1.37-4.415-30.46c30.905-1.675 63.636-3.503 91.801-5.026m-92.41 46.147 3.197 22.235-56.177-.152-55.568 7.767c0-5.483-.152-11.118-.304-16.753l93.019-15.534zm-122.706 34.571c0 15.23-.305 29.698-1.066 42.948l-21.314 15.687-34.863 48.126-11.113 1.066zm-.153-11.727-7.155 11.423-65.007 19.494c-14.158-9.595-29.534-20.256-34.406-24.063l18.421-33.81 87.995 17.361c0 3.046.152 6.397.152 9.595M323.135 58.394c15.376 41.73 30.6 90.617 32.731 127.626.305 5.33.609 10.661.762 15.839l-81.906-16.144 27.86-50.867-.304-1.219c0-.152-4.415-18.58-8.983-36.856-2.74-10.66-4.871-19.19-6.698-25.434-.914-3.502-1.675-6.091-2.436-8.071zm-95.76 12.184 50.392-6.397c3.045 8.377 12.331 45.537 17.964 69.753l-27.555 50.411-30.144-5.94a44751 44751 0 0 0-10.657-107.827m-33.949 160.979 3.958-48.126 4.871-.762 60.288 11.88-55.416 101.735-27.099-20.561-23.597-5.787zm10.656 70.362-18.269 33.201c-2.892-2.742-7.459-6.092-14.462-10.814-5.786-3.807-11.723-7.31-15.224-9.29l23.14-31.83zm-82.819 2.132-.913-36.552 52.98 13.098-22.989 31.678zm30.753 15.839c12.788 7.31 26.185 16.296 30.753 21.017l-5.177 9.595-32.884-23.759zm-12.027 11.27 34.406 24.977-9.286 17.057-1.827 2.589-31.209-37.313zm-19.943 18.276 7.307-6.701 32.123 38.379-8.526 11.727zm12.331 79.804 38.06-52.391 18.421-33.81 1.827.152c0-.761 0-1.523-.457-2.589l21.771-40.054.304-.457 9.287-17.057 35.777 25.281 3.653-5.178-36.385-25.738 22.988-42.035c4.72 3.96 14.768 10.814 35.168 24.52l1.218.914 60.896-18.123-64.398 101.43-111.136 66.555-24.206 32.591zm68.965 15.687c-6.546 1.827-19.944 9.137-36.69 19.189l-14.92-16.296 24.207-32.439 110.07-65.945 19.791-1.98 36.081-49.649 16.138-11.88c-2.284 32.135-7.004 56.351-13.55 65.184-5.328 7.31-43.388 33.201-76.881 56.046-17.508 12.031-33.798 22.997-48.261 33.201a713 713 0 0 1-15.985 4.569m159.092-35.181c-44.303 14.62-103.524 32.135-132.602 40.663a617 617 0 0 1 16.29-11.27c34.558-10.356 81.905-24.672 116.464-36.399 0 2.437-.152 4.721-.152 7.006m-99.109 17.514c4.11-2.741 8.221-5.483 12.027-8.224 45.672-31.069 73.837-50.563 80.383-59.549q3.197-4.568 5.937-11.879c.609 17.514.914 34.267.914 48.279-28.621 9.747-66.986 21.626-99.261 31.373m97.586-304.901 105.198-32.135 9.135 63.204c-.761 0-1.523.152-2.284.152-71.857 4.265-95.607 5.94-103.828 6.854-1.827-12.489-4.719-25.129-8.221-38.075m9.439 44.014c12.332-1.218 56.329-3.959 105.96-6.853l4.262 29.089-14.31-1.98-93.172 15.534c-.152-5.787-.456-11.422-.761-17.057-.457-5.94-1.066-12.184-1.979-18.733m2.284 110.721c.761-12.945 1.065-26.652 1.065-40.511l33.798-4.721 12.179 38.836-46.89 10.356c0-1.675-.152-3.046-.152-3.96m.609 10.356 48.412-10.813.457 1.675.152.305 38.06 74.778c-26.49 10.966-48.564 21.627-57.547 26.957-4.11 2.437-13.397 6.092-25.881 10.661-.152-35.333-2.435-81.936-3.653-103.563m153.763 54.98c-47.347 15.991-96.521 38.531-111.288 47.365-5.329 3.198-19.944 8.681-38.822 15.077 0-2.284 0-4.721.153-7.158 14.006-5.026 24.663-9.138 29.23-11.879 15.833-9.443 71.705-34.876 121.792-50.563zm-60.744 8.529-38.061-74.779-.304-.913 94.694-21.018 5.633 74.322c-20.705 6.396-42.323 14.468-61.962 22.388m214.05-167.224c7.003 24.825-1.218 71.885-2.284 77.063-2.74 5.178-33.036 60.158-83.275 65.031-17.051 1.676-38.669 7.158-61.049 14.469l.914-7.006c17.66-5.33 34.254-9.138 47.955-10.508 56.025-5.483 87.234-66.402 88.605-68.992l.152-.456.152-.457c.457-2.132 10.048-52.695 2.131-80.414-1.979-7.158 2.741-19.189 13.55-34.267l7.916 5.331c-12.483 17.362-17.507 30.764-14.767 40.206"/><path fill="#ed7f69" d="M429.43 186.867c-13.755-2.01-64.866-2.181-73.784 58.838-6.346 43.427 31.105 87.08 44.743 101.425 2.9 3.231 7.301 3.874 10.454 1.528 17.173-9.843 65.631-41.501 71.897-84.379 9.468-60.938-39.555-75.402-53.31-77.412m-7.235 76.424c-14.157.738-24.024-12.494-19.264-25.835 2.145-6.986 9.161-12.698 17.024-12.672 14.156-.738 24.023 12.495 19.264 25.835-2.695 6.906-9.711 12.618-17.024 12.672" class="pin"/></svg>