<svg xmlns="http://www.w3.org/2000/svg" viewBox="0 0 459.885 472.941"><path d="M172.815 57.241C172.815 25.626 198.444 0 230.063 0s57.247 25.626 57.247 57.241c0 31.612-25.629 57.236-57.247 57.236s-57.248-25.624-57.248-57.236M299.341 91.7c21.396 19.074 34.867 46.838 34.867 77.754 0 53.36-40.143 97.343-91.876 103.415V148.704zM125.919 169.454c0-30.917 13.472-58.68 34.866-77.754l57.009 57.004v124.165c-51.736-6.072-91.875-50.055-91.875-103.415"/><path d="M56.889 172.004c0-50.623 21.727-96.17 56.364-127.832l31.644 31.641c-25.724 23.247-41.889 56.873-41.889 94.271 0 70.162 56.885 127.041 127.055 127.041 70.173 0 127.054-56.879 127.054-127.041 0-37.398-16.162-71.024-41.885-94.271l31.646-31.641c34.639 31.661 56.36 77.21 56.36 127.832 0 95.628-77.527 173.153-173.175 173.153-95.643 0-173.174-77.524-173.174-173.153M22.898 421.887 0 368.664h14.384l11.858 29.462h-.025l13.61-29.462H50l13.575 29.499h.02l11.812-29.499h14.381l-22.86 53.223h-5.669L44.9 388.748h-.005l-16.33 33.139h-5.667M96.067 368.664h13.109v52.435H96.067zM134.267 421.099h-13.108v-52.435h13.108v24.81h.021l16.734-24.81h14.806l-18.282 25.146 23.799 27.288h-16.634l-20.46-24.998h.015v24.999zM176.911 368.664h13.108v52.435h-13.108zM215.111 421.099h-13.109v-52.435h11.793l16.408 18.914h.006l16.373-18.914h11.796v52.435H245.27v-32.204h.033l-13.971 16.139h-2.252l-13.98-16.139h.012v32.204zM270.176 421.099v-52.435h38.636v9.462h-25.527v11.236h23.95v9.462h-23.95v12.813h25.527v9.462zM318.748 368.664h19.908q16.151 0 24.231 6.568 7.997 6.495 7.998 19.555v.113q.038 13.098-7.699 19.648-7.738 6.55-23.252 6.55h-21.186zm13.108 42.774h8.095q8.616 0 12.927-4.125 4.309-4.126 4.308-12.413 0-8.289-4.629-12.433-4.63-4.146-13.888-4.145h-6.813zM380.84 368.664h13.108v52.435H380.84zM422.46 367.876h15.277l22.148 53.223h-14.274l-3.896-9.955H418.44l-3.856 9.955h-14.27zm-.406 33.806h16.053l-8.063-20.546h-.01z"/><text xml:space="preserve" x="242.355" y="678.923" style="font-style:normal;font-variant:normal;font-weight:700;font-stretch:normal;font-size:44.093px;line-height:0%;font-family:&quot;DejaVu Sans&quot;;text-align:start;writing-mode:lr-tb;text-anchor:start;fill-opacity:1" transform="translate(-124.343 -206.606)"><tspan x="242.355" y="678.923">BELGIUM</tspan></text></svg>