<svg xmlns="http://www.w3.org/2000/svg" viewBox="0 0 489 86">
  <path
   fill="#495747"
   d="M44.1 13.2c-.5-1.3-1-2.3-1.3-2.8-.5-1.4-.8-2.2-1-2.6-.2-.3-.7-1-1.6-2.1-.8-1-1.4-1.8-1.9-2.3-.5-.5-.9-.9-1.1-1-.7-.3-1.4-.5-2.1-.8L33 1l-.6.2L31 .9l-4.2.5c-.8.3-1.6.6-2.2.9-.6.2-1.2.5-1.6.8-.9.5-1.8 1-2.6 1.5s-1.5 1-2.2 1.5c-.2.3-.7.8-1.5 1.4-.8.7-1.7 1.6-2.9 2.8a39.8 39.8 0 00-8.3 11.5C3.4 26.3 2 31.3 1.2 36.9l-.9 6.8c.1 1 .2 1.9.1 2.7-.1.8-.2 1.6-.5 2.3.5 1.7.8 3.1 1.1 4.2.3 1.1.5 1.8.7 2.2.5 1.2 1 2.2 1.7 3 .6.9 1.3 1.6 2.1 2.2.9.6 1.7 1.1 2.4 1.4.8.3 1.5.5 2.1.5.4-.1.9-.2 1.5-.3l2 .4c1.3-.2 2.6-.5 3.8-1 1.2-.5 2.5-1.2 3.7-1.9.6-.4 1.4-1 2.4-1.9 1.1-.8 2.3-1.9 3.9-3.3.7-.7 1.6-1.4 2.6-2.1.2 0 .4.1.5.2.1.1.2.3.2.5-.1.5-.2.9-.3 1.2l.6 2.9c-.5 1.9-.9 3.5-1.1 4.8-.3 1.3-.4 2.2-.5 2.8 0 1.2-.1 2.2-.2 3-.1.8-.2 1.5-.3 1.9-.3 1-.5 1.8-.6 2.5-.1.6-.2 1.1-.2 1.4 0 .8.1 1.4.3 1.8.2.4.5.5 1 .5s.9-.2 1.2-.5c.3-.3.5-.9.6-1.6.8-.2 1.3-.5 1.8-.7.4-.2.8-.4 1-.6.3-.3.5-.6.7-1.1.2-.5.3-1 .4-1.6.2-1 .3-1.8.5-2.5.2-.6.3-1.1.5-1.4.5-1.1.9-2.7 1.3-5 .3-2.3.8-3.9 1.2-4.9.4-.8.7-1.7.9-2.8.2-1.1.4-2.3.4-3.6.2-1.1.3-2 .4-2.8.1-.8.2-1.5.3-2 .1-.4.2-.9.4-1.5s.3-1.2.3-1.5c0-1.1-.3-1.9-.9-2.4-.6-.5-1.5-.8-2.8-.8-.9 0-1.7.2-2.5.6-.8.4-1.5 1-2.1 1.8-.5.7-1 1.5-1.5 2.3-.5.8-1 1.6-1.6 2.3-.5.5-1 1-1.4 1.5-.4.4-.8.8-1.1 1-1.4 1.5-2.5 2.6-3.3 3.5-.8.9-1.4 1.4-1.6 1.6-.9.8-1.9 1.3-3 1.8-1.1.4-2.2.6-3.4.6-.8 0-1.6-.1-2.3-.4-.7-.2-1.3-.6-1.7-1-.3-.3-.6-.8-.9-1.4-.3-.7-.7-1.5-1-2.4-.5-1.3-.8-2.6-1.1-3.9-.2-1.3-.3-2.6-.3-3.9 0-.6.1-1.8.3-3.7.2-1.9.6-4.5 1-7.8.3-1 .6-1.9.8-2.7.3-.8.5-1.6.7-2.3.1-.6.2-1 .3-1.4.1-.3.2-.6.3-.7.4-.6.7-1.2 1-1.9.3-.7.5-1.4.8-2.2.6-.9 1.2-1.7 1.6-2.4.4-.7.8-1.3 1.1-1.8.3-.5.6-.8.8-1.1.2-.3.4-.5.5-.7 1-1.2 1.8-2.2 2.5-2.9.7-.8 1.2-1.3 1.7-1.7.8-.7 1.7-1.2 2.7-1.6 1-.3 2-.5 3-.5 2 0 3.7.8 5.1 2.5 1.4 1.7 2.5 4.1 3.4 7.4.2.9.4 1.9.6 3.1 0 .7.1 1.3.4 1.6.3.4.7.6 1.3.6.9 0 2.2-.8 3.8-2.3 1.6-1.6 2.4-2.9 2.4-4 .1-.3-.1-1.2-.7-2.6zm109.5 36.5c-.3.3-.7.5-1 .7-.3.2-.6.3-.7.4-.8.4-1.6.8-2.6 1.1-1 .3-2 .5-3.2.6-.7-.2-1.3-.3-1.9-.5-.5-.2-.9-.4-1.2-.5-.4-.2-.7-.6-1-1.1s-.3-1-.3-1.7c0-.4.1-.7.2-1 .2-.3.3-.6.5-.8 2.5-2.4 4.5-4.6 6-6.5 1.5-1.9 2.4-3.6 2.8-5l.4-1.4c.2-.7.4-1.2.5-1.6.1-.2.1-.3.1-.3-.1-.7-.2-1.3-.3-1.9-.2-.7-.4-1.3-.6-1.8-.2-.5-.4-.8-.6-1.1-.3-.4-.7-.6-1.2-.8-.5-.2-1.1-.2-1.8-.2-.5 0-1 0-1.5.1s-.9.2-1.2.3c-.4.3-.8.6-1.2.8-.4.2-.8.5-1.1.8-.7.8-1.4 1.7-2.1 2.5l-2 2.3c-.8 1.2-1.4 2.3-1.8 3.3-.5 1-.8 1.8-1.1 2.5-.2.7-.5 1.3-.7 1.9-.2.6-.3 1.1-.4 1.5 0 .6-.1 1.2-.2 1.8l-.3 1.8c-.9.7-1.6 1.4-2.2 2-.6.6-1 1.3-1.4 1.9v.1c-2 1.7-3.5 3-4.7 3.8-1.1.9-1.8 1.3-2 1.3-.3 0-.5-.1-.7-.4-.2-.2-.2-.6-.2-1.1 0-.5.1-1.6.4-3.2.3-1.6.6-3.6 1.1-6.1.8-3.2 1.5-5.9 2.1-8.2.6-2.3 1.2-4.2 1.7-5.7.2-.6.3-1.1.4-1.5.1-.4.2-.8.2-1.1l3.1-.6c.4 0 .6-.5.8-1.5.2-1 .2-2.4.2-4.2 0-.4 0-.8-.1-1.1-.1-.3-.2-.5-.4-.6-.2-.2-.4-.3-.5-.5-.1-.1-.2-.3-.2-.4.1-.6.3-1.4.7-2.6s.6-2 .6-2.7c0-.9-.2-1.5-.6-2-.4-.5-.9-.7-1.7-.7-1.4 0-2.6 1.4-3.8 4.2-1.2 2.8-2.3 4.3-3.4 4.4l-1.5-.5c-.5.1-.9.2-1.2.2-.4.1-.8.2-1.2.2-.3-.1-.7-.2-1.3-.2-.6-.1-1.3-.1-2.1-.1-.4.1-.8.2-1.3.3-.6-.1-1.2-.2-2-.3-.7-.1-1.5-.1-2.4-.1-.8 0-1.5.5-1.9 1.5-.4 1-.6 2.5-.6 4.4 0 .3.1.5.3.7.2.2.5.4.8.5.2.1.5.2.7.3.3.1.5.2.8.4h8c.2 0 .5-.1.9-.2s.7-.2.9-.2c.2 0 .4 0 .5.1.1.1.1.2.1.4-.4.8-.7 1.5-1 2-.3.5-.6 1-.8 1.3-2 3.6-4 6.8-6 9.5-2 2.8-4.1 5.1-6.3 7.1-.4.5-.7.9-1 1.3-.3.4-.5.7-.7.9l-.2.4c-.3.3-.6.5-.9.6-.3.2-.5.2-.7.2-.2 0-.4-.1-.6-.2-.2-.2-.3-.4-.4-.8.3-.3.6-.7 1-1.3.3-.6.7-1.4 1-2.3.3-.8.5-1.6.6-2.3.1-.7.2-1.3.2-1.8 0-2.7-.5-4.7-1.6-6.1-1.1-1.3-2.7-2-4.9-2-.2 0-.7.1-1.4.4-.8.2-1.8.6-3.1 1.1l-.3-.4.9-2.1c0-.3-.2-.5-.6-.7-.3-.2-.9-.2-1.5-.2s-1.2.1-1.7.4c-.5.2-1 .6-1.5 1-.4.4-.8.9-1.2 1.3-.4.5-.8.9-1.3 1.4-.4.3-.8.7-1.2 1-.4.3-.8.7-1.3 1.1-.5.4-.9.9-1.2 1.3-.3.4-.6.8-.7 1.2-1.3 1.1-2.4 2.1-3.3 2.9-.9.8-1.5 1.5-1.9 2l-3.5 2.4c-.3.4-.6.8-.8 1.2-.2.3-.4.6-.7.8-.5.4-.9.6-1.2.8-.3.2-1.3 1-2.9 2.6-.6.6-1.2 1.1-1.8 1.4-.5.3-1 .5-1.4.5-.2 0-.3 0-.4-.1-.1-.1-.2-.2-.2-.4 0-1.1.5-2.8 1.4-5.1.9-2.2 1.4-4 1.4-5.2 0-2.3-.3-4.2-.9-5.8-.6-1.6-1.5-2.8-2.7-3.7-.2-.1-.4-.3-.7-.5-.7-.7-1.3-1.3-2.1-1.9-.7-.6-1.6-.9-2.6-.9s-2.2.5-3.8 1.5c-1.6 1-2.5 1.9-2.9 2.7l.5 2.2c-.6 1.4-1.6 3-3 4.7-1.4 1.7-3.2 3.4-5.4 5.2-.5.7-1 1.4-1.4 2 .4.7.7 1.4 1 2.1.3.7.6 1.4.8 2.1.3-.3.5-.6.6-.8.1-.2.2-.4.3-.5 1-.7 1.8-1.3 2.4-1.9.6-.6 1-1.1 1.3-1.5.5-.2 1-.7 1.7-1.4s1.5-1.6 2.3-2.7c.8-1 1.6-1.8 2.4-2.5.8-.7 1.5-1.2 2.2-1.5 1 .1 1.7.6 2.2 1.4.5.8.7 2.1.7 3.7 0 1.3-.2 2.8-.5 4.4-.3 1.6-.9 3.4-1.5 5.3-.2.4-.3.8-.5 1.2l-.6 1.2c-.2.5-.4 1-.6 1.4-.1.4-.2.8-.2 1.2 0 .8.3 1.5.9 1.8.6.4 1.6.6 2.8.6.8-.2 1.5-.6 2.1-.9 2.3-1.4 4.3-2.6 5.9-3.7 1.6-1.1 3-2 4-2.7.5-.4.9-.8 1.2-1.1.3-.3.7-.6.9-.9.3-.3.4-.5.6-.8.1-.2.2-.4.3-.5 1.1-.8 1.9-1.5 2.4-1.9.6-.5.9-.7 1.1-.7.2 0 .4.1.6.2.1.1.2.3.2.5s-.2.9-.5 2.1c-.3 1.2-.5 2.1-.5 2.9 0 1.8.7 3.4 2.1 4.8 1.4 1.4 2.9 2.2 4.7 2.2.3 0 .6-.1 1.1-.2.4-.1.7-.2.9-.2.5 0 1.1-.1 1.7-.3.6-.2 1.3-.5 2.1-.8 1.3-.5 2.5-1.2 3.5-2.1 1.1-.8 2-1.7 2.7-2.7.3.6.6 1.1 1.1 1.4.5.3 1 .5 1.7.5.6 0 1.2-.1 1.8-.4.6-.3 1.3-.7 2-1.2.6-.4 1.1-.9 1.6-1.3.5-.5 1-.9 1.6-1.4.3-.4.6-.8.8-1.1.2-.3.4-.5.5-.7 1.6-1.5 3.2-3 4.7-4.5 1-.9 1.9-1.7 2.6-2.5.7-.8 1.3-1.6 1.8-2.3l.5-.3c.2.1.4.3.4.4-.4.8-.7 1.6-1 2.3l-.6 3.5c-.1.7-.2 1.3-.3 1.8-.1.5-.1.9-.1 1.2l-.3.6c-.3.8-.5 1.8-.6 3.1-.1 1.3-.2 2.8-.2 4.5 0 1.6.3 2.8 1 3.6.6.8 1.6 1.2 3 1.2.6 0 1.2-.2 1.9-.5s1.4-.9 2.1-1.7c.5-.6 1.1-1.2 1.6-1.8.5-.6 1.1-1.2 1.6-1.8.5-.5 1-1 1.5-1.4.5-.4.8-.8 1.1-1.1.8-.5 1.4-1 1.9-1.4.5-.5 1-.8 1.3-1.2.3-.4.7-.8 1-1 .3-.2.6-.3.8-.3.3 0 .6.2.8.5.2.3.5.8.8 1.5.3.8.6 1.5.9 2.1.3.6.6 1 .9 1.3.6.6 1.3 1.1 2.1 1.4.9.3 1.8.5 3 .5.8 0 1.6-.1 2.2-.2.6-.1 1.2-.4 1.6-.7 1.2 0 2.5-.4 3.9-1.3s3-2.1 4.7-3.8c-.2-.5-.4-1.1-.7-1.8.3-.6-.1-1.3-.5-2.2zm-79.5 1.9l-.6-1.2c.2.4.4.9.6 1.3.1.2.2.4.2.6 0-.2-.1-.4-.2-.7zm24.7-3.9c-.2.6-.3 1.1-.5 1.5-.2.4-.3.7-.6.9-.4.5-.9 1.1-1.4 1.6-1 1.5-2.1 2.7-3.3 3.5-1.2.8-2.4 1.2-3.8 1.2-.9 0-1.5-.2-1.9-.6-.4-.4-.6-1.1-.6-1.9 0-.5.1-1 .2-1.7.2-.7.4-1.5.7-2.4.3-1.1.7-1.9 1-2.4.3-.6.6-.9.9-.9.5-.1.9-.2 1.3-.4s.7-.5 1.1-.8c.5-.8 1-1.6 1.4-2.3.3-.4.5-.8.8-1.1.3-.3.5-.4.7-.5 1 .1 1.7.2 2.2.3.5.1.8.2 1 .3.2.1.5.4.7 1 .2.5.5 1.2.8 2.1l-.7 2.6zm7.2 2.2c0 .1.1.1.1.2.1.2.2.3.2.5.1.4.2.7.4 1.1-.2-.7-.4-1.3-.7-1.8zm25.7 1.5c.1.3.3.6.4.8.2.5.4.8.5 1.2l-.9-2zm9.4-9.6c-.1-.1-.1-.2-.1-.4 0-.8.6-2.1 1.7-3.8 1.1-1.7 2-2.6 2.7-2.6.2 0 .4.1.5.2.1.2.2.4.2.7 0 .4-.1.8-.3 1.3-.2.4-.5.8-.8 1.3-.3.3-.6.7-.9 1-.3.3-.6.7-1 1-.2.3-.4.6-.6 1-.2.3-.5.5-.8.5-.4-.1-.5-.1-.6-.2zm57 18.8c-1.1-.7-2-1.3-2.8-1.9-.8-.6-1.6-1.2-2.2-1.7-1-.6-1.9-1.2-2.8-1.8-.9-.6-1.7-1.2-2.5-1.8-1.1-.9-2-1.7-2.8-2.4-.8-.7-1.5-1.2-2-1.6-1.2-.9-2.4-1.8-3.5-2.7-1.2-.9-2.3-1.8-3.5-2.7-1.7-1.5-3-2.7-3.9-3.7-.9-1-1.3-1.8-1.3-2.4 0-.5.6-1 1.9-1.5 1.3-.5 3.4-1.4 6.4-2.9 1.7-.8 3-1.5 3.9-2 1-.5 1.6-1 1.9-1.3.2-.2.5-.5.9-.8 1-.3 2.1-.8 3.3-1.5 1.2-.7 2.4-1.6 3.8-2.6 1.5-1.2 2.7-2.3 3.5-3.3.8-1 1.3-1.9 1.4-2.8.1-.7.2-1.3.2-1.9 0-.6.1-1 .1-1.3 0-1-.2-2.1-.7-3.1-.5-1-1.2-2.1-2.2-3.2-.8-.8-1.7-1.6-2.7-2.3-.9-.7-2-1.4-3-1.9-.7-.3-1.3-.6-1.8-.8-.5-.2-1-.5-1.4-.6-.2-.2-.5-.3-.9-.5-.4-.1-.8-.3-1.3-.5-.2 0-.5-.1-.9-.3-.4-.2-1-.5-1.8-.8-.3-.1-.8-.2-1.3-.3-.5-.1-1.2-.2-1.9-.2-1.7-.7-2.8-1-3.2-1-.6 0-1.4 0-2.4-.1-.9-.4-1.6-.4-2.2-.4-1.1 0-2.1.2-3.2.7-1 .4-2.1 1.1-3 1.9-1 1-1.8 1.9-2.3 2.9s-.7 2-.7 3.1c0 .4 0 1 .1 1.7.1.8.1 1.3.1 1.8 0 .3 0 .9-.1 1.6-.1.8-.1 1.3-.1 1.7 0 .4.1.8.2 1.2.1.4.3 1 .5 1.6V21c.1.7.1 1.3.1 1.8v1c-.1 2.9-.1 5.7-.2 8.4v1.9c0 .5 0 .9-.1 1.2-.1.3-.2.5-.4.6-.8.6-1.8 1.2-2.8 1.8-.4.3-.7.7-.9 1.2-.2.5-.3 1.1-.3 1.7 0 .4.6 1.1 1.8 2.1 1.2 1 1.8 2.2 1.8 3.6 0 .5 0 1.1-.1 1.8-.1.6-.2 1.4-.3 2.2a41.19 41.19 0 00-1.3 10.1c0 1.1.3 2 .9 2.6.6.6 1.5.9 2.7.9.4 0 .6-.1.8-.4.2-.3.3-.6.3-1.2.5-2.9.9-5.4 1.3-7.5.4-2.2.8-3.9 1.2-5.4 0-.5.2-.9.5-1.3.4 0 1.1.3 2.1 1s2.3 1.7 4 3c.5.4 1.1.9 1.9 1.4.8.6 1.8 1.2 2.9 1.8 1.1.6 2 1.2 2.8 1.8.8.5 1.5 1 2 1.5.9.8 1.8 1.5 2.9 2.1 1.1.7 2.2 1.3 3.5 1.8 2.3 1.1 4 1.9 5.3 2.4 1.2.6 1.9.9 2.1 1 .8.5 1.4.9 1.9 1.1.5.3.9.4 1.2.4l.5-.2.4-1.2c-.1-1.5-.3-2.7-.6-3.7-.6-.7-1.1-1.3-1.7-1.7zM169 32.7c-.1-.1-.2-.3-.2-.6.1-.6.2-1.1.4-1.5.3-1.6.5-2.7.6-3.5.1-.7.5-2.6 1.2-5.5.3-1.3.6-2.3.7-3.1.2-.8.2-1.2.2-1.4 0-.4-.3-1-.8-1.8s-1-1.2-1.3-1.2c-.8 0-1.5.2-2 .6-.5.4-1.1.8-1.6 1.2-.3.1-.5-.2-.6-.7-.2-.5-.2-1.3-.2-2.3 0-1.3.5-2.3 1.5-3 1-.7 2.4-1 4.4-1 1.5 0 3.1.2 4.9.6 1.8.4 3.8 1 6 1.9 2.6 1 4.5 2 5.8 3.1 1.3 1.1 1.9 2.2 1.9 3.3 0 .9-.3 1.7-.9 2.6-.6.9-1.4 1.8-2.6 2.7-1.9 1.3-3.7 2.5-5.4 3.6l-.7.9c-.2.1-.5.2-.8.3-.3.1-.5.2-.8.2-.2.1-3.3 1.7-9.3 4.7-.2.1-.3.1-.4-.1zm178.8 21.1l-1.9-4.2c-.4 0-.8-.3-1.2-.8-.4-.5-.8-1.2-1.2-2.1-.7-1.5-1.2-2.6-1.6-3.5-.4-.9-.7-1.4-.8-1.6-.6-.9-1.3-1.5-2-2s-1.5-.7-2.3-.7c-.4 0-.9.2-1.4.5-.6.3-1.2.8-1.9 1.5-.7 1.7-1.3 3.2-2 4.4-.6 1.3-1.2 2.3-1.6 3.2-1.2 3.6-2.3 6.8-3.2 9.5-.9 2.7-1.7 5-2.3 6.7.1.4 0 .8 0 1.4-.1.6-.2 1.2-.4 2.1-.2.9-.3 1.6-.5 2.1s-.4.8-.5.9l-.2-.4c0-.3.1-1.1.3-2.2.2-1.1.6-2.7 1.1-4.6.2-1 .4-1.9.5-2.6.1-.8.2-1.4.3-2 .9-3.9 1.6-7.1 2.3-9.7.7-2.6 1.3-4.6 1.8-6.1 2-6 3.6-10.6 4.6-13.9 1-3.3 1.6-5.2 1.6-5.8 0-1.1-.1-1.9-.4-2.4-.3-.5-.7-.8-1.3-.8-.4 0-.8.2-1.2.6-.4.4-.8.9-1.2 1.7-.5 1-.9 1.8-1.2 2.6-.3.8-.6 1.4-.9 1.9-.9 2.1-2 4.2-3.3 6.4-1.3 2.2-2.7 4.5-4.3 6.9l-.7 1.4c-.2.4-.3.7-.4 1-1.4 1.4-2.5 2.7-3.5 3.8-.9 1.1-1.7 2-2.3 2.8-.3.3-.6.5-1 .6-.3.2-.6.3-.7.4-.8.4-1.6.8-2.6 1.1-1 .3-2 .5-3.2.6-.7-.2-1.3-.3-1.9-.5-.5-.2-.9-.4-1.2-.5-.4-.2-.7-.6-1-1.1s-.3-1-.3-1.7c0-.4.1-.7.2-1 .2-.3.3-.6.5-.8 2.5-2.4 4.5-4.6 6-6.5 1.5-1.9 2.4-3.6 2.8-5l.4-1.4c.2-.7.4-1.2.5-1.6.1-.2.1-.3.1-.3-.1-.7-.2-1.3-.3-1.9-.2-.7-.4-1.3-.6-1.8-.2-.5-.4-.8-.6-1.1-.3-.4-.7-.6-1.2-.8-.5-.2-1.1-.2-1.8-.2-.5 0-1 0-1.5.1s-.9.2-1.2.3c-.4.3-.8.6-1.2.8-.4.2-.8.5-1.1.8-.7.8-1.4 1.7-2.1 2.5l-2 2.3c-.8 1.2-1.4 2.3-1.8 3.3-.5 1-.8 1.8-1.1 2.5-.2.7-.5 1.3-.7 1.9-.2.6-.3 1.1-.4 1.5 0 .6-.1 1.2-.2 1.8l-.3 1.8c-.9.7-1.6 1.4-2.2 2-.6.6-1 1.3-1.4 1.9v.1c-2 1.7-3.5 3-4.7 3.8-1.1.9-1.8 1.3-2 1.3-.3 0-.5-.1-.7-.4-.2-.2-.2-.6-.2-1.1 0-.5.1-1.6.4-3.2.3-1.6.6-3.6 1.1-6.1.8-3.2 1.5-5.9 2.1-8.2.6-2.3 1.2-4.2 1.7-5.7.2-.6.3-1.1.4-1.5.1-.4.2-.8.2-1.1l3.1-.6c.4 0 .6-.5.8-1.5.2-1 .2-2.4.2-4.2 0-.4 0-.8-.1-1.1-.1-.3-.2-.5-.4-.6-.2-.2-.4-.3-.5-.5-.1-.1-.2-.3-.2-.4.1-.6.3-1.4.7-2.6.4-1.1.6-2 .6-2.7 0-.9-.2-1.5-.6-2-.4-.5-.9-.7-1.7-.7-1.4 0-2.6 1.4-3.8 4.2-1.2 2.8-2.3 4.3-3.4 4.4l-1.5-.5c-.5.1-.9.2-1.2.2-.4.1-.8.2-1.2.2-.3-.1-.7-.2-1.3-.2-.6-.1-1.3-.1-2.1-.1-.4.1-.8.2-1.3.3-.6-.1-1.2-.2-2-.3-.7-.1-1.5-.1-2.4-.1-.8 0-1.5.5-1.9 1.5-.4 1-.6 2.5-.6 4.4 0 .3.1.5.3.7.2.2.5.4.8.5.2.1.5.2.7.3.3.1.5.2.8.4h8c.2 0 .5-.1.9-.2s.7-.2.9-.2c.2 0 .4 0 .5.1.1.1.1.2.1.4-.4.8-.7 1.5-1 2-.3.5-.6 1-.8 1.3-2 3.6-4 6.8-6 9.5-2 2.8-4.1 5.1-6.3 7.1-.4.5-.7.9-1 1.3-.3.4-.5.7-.7.9l-.2.4c.1.1.2.2.3.4.1.2.2.3.2.5.2.7.5 1.4.7 1.9.2.5.4 1 .5 1.3l-1.8-4.1-1 .3c-.3.1-.6.1-.9.1-.8 0-1.4-.3-1.8-.8s-.6-1.4-.6-2.5c0-.3-.1-.8-.2-1.4-.1-.6-.2-1.1-.2-1.4 0-.8 0-1.5-.1-2s-.1-.9-.2-1.1c-.2-.4-.5-.7-1-.9-.5-.2-1.1-.3-1.9-.3-.9 0-1.7.4-2.4 1.1-.7.7-1.3 1.8-1.9 3.2a7 7 0 01-.8 1c-.3.3-.5.6-.7.9-.6.8-1.1 1.6-1.7 2.5-1 1.1-1.8 2.1-2.5 3-.7.8-1.3 1.6-1.8 2.1a22.9 22.9 0 00-2.7 1.6c-.3.1-.5-.3-.7-1.1-.2-.8-.2-2.1-.2-3.7 0-.9.1-1.9.2-3 .2-1.1.4-2.3.7-3.6l.9-3.1.9-3.2c.3-.6.5-1.2.7-1.9.1-.4.2-.8.3-1.1.1-.3.1-.6.1-.8 0-.5-.1-1-.4-1.2-.2-.3-.6-.4-1-.4-.2 0-.7.1-1.4.4-.7.2-1.6.6-2.8 1.2-.7.9-1.4 1.9-2.1 2.9-.6 1-1.3 1.9-2 2.8-.8.9-1.6 1.8-2.3 2.7l-2.1 2.7c-.8 1-1.5 1.9-2.2 2.6-.6.7-1.2 1.3-1.7 1.7 0 .2 0 .3-.1.5l-.3.3v.1c-.3.3-.6.5-.9.6-.3.2-.5.2-.7.2-.2 0-.4-.1-.6-.2-.2-.2-.3-.4-.4-.8.3-.3.6-.7 1-1.3.3-.6.7-1.4 1-2.3.3-.8.5-1.6.6-2.3.1-.7.2-1.3.2-1.8 0-2.7-.5-4.7-1.6-6.1-1.1-1.3-2.7-2-4.9-2-.2 0-.7.1-1.4.4-.8.2-1.8.6-3.1 1.1l-.3-.4.9-2.1c0-.3-.2-.5-.6-.7-.3-.2-.9-.2-1.5-.2s-1.2.1-1.7.4c-.5.2-1 .6-1.5 1-.4.4-.8.9-1.2 1.3-.4.5-.8.9-1.3 1.4-.4.3-.8.7-1.2 1-.4.3-.8.7-1.3 1.1-.5.4-.9.9-1.2 1.3-.3.4-.6.8-.7 1.2-1.3 1.1-2.4 2.1-3.3 2.9-.9.8-1.5 1.5-1.9 2l-3.5 2.4c-.3.4-.6.8-.8 1.2-.2.3-.4.6-.7.8.4.7.7 1.3 1 2.1.3.7.6 1.4.8 2.1.3-.3.5-.6.6-.8.1-.2.2-.4.3-.5 1.1-.8 1.9-1.5 2.4-1.9.6-.5.9-.7 1.1-.7.2 0 .4.1.6.2.1.1.2.3.2.5s-.2.9-.5 2.1c-.3 1.2-.5 2.1-.5 2.9 0 1.8.7 3.4 2.1 4.8 1.4 1.4 2.9 2.2 4.7 2.2.3 0 .6-.1 1.1-.2.4-.1.7-.2.9-.2.5 0 1.1-.1 1.7-.3.6-.2 1.3-.5 2.1-.8 1.3-.5 2.5-1.2 3.5-2.1 1.1-.8 2-1.7 2.7-2.7.3.6.6 1.1 1.1 1.4.5.3 1 .5 1.7.5.6 0 1.2-.1 1.8-.4.6-.3 1.3-.7 2-1.2.6-.4 1.1-.9 1.6-1.3.5-.5 1-.9 1.6-1.4.3-.4.6-.8.8-1.1.2-.3.4-.6.5-.8l2.6-2.7.3-.1c.2 0 .4.2.5.7.1.5.2 1.1.2 2-.1.2 0 .7 0 1.6.1.9.3 2.1.5 3.7s.8 2.9 1.6 3.7c.8.8 2 1.2 3.3 1.2.9 0 1.9-.3 3-.8 1.1-.6 2.1-1.5 3.2-2.7l2.5-2.8c.8-.9 1.6-1.9 2.4-2.9.4-.4.8-.8 1.1-1.3.3-.4.7-.8.9-1.1.3.4.5.7.7 1.1.2.4.3.7.4 1.1.5 1.5 1.2 2.7 2.1 3.5 1 .8 2.2 1.2 3.7 1.2.6 0 1.4-.3 2.6-.8 1.2-.6 2.6-1.4 4.4-2.5.3-.5.6-.8.8-1.1.2-.3.4-.5.5-.7 1.6-1.5 3.2-3 4.7-4.5 1-.9 1.9-1.7 2.6-2.5.7-.8 1.3-1.6 1.8-2.3l.5-.3c.2.1.4.3.4.4-.4.8-.7 1.6-1 2.3l-.6 3.5c-.1.7-.2 1.3-.3 1.8-.1.5-.1.9-.1 1.2l-.3.6c-.3.8-.5 1.8-.6 3.1-.1 1.3-.2 2.8-.2 4.5 0 1.6.3 2.8 1 3.6s1.6 1.2 3 1.2c.6 0 1.2-.2 1.9-.5s1.4-.9 2.1-1.7c.5-.6 1.1-1.2 1.6-1.8.5-.6 1.1-1.2 1.6-1.8.5-.5 1-1 1.5-1.4.5-.4.8-.8 1.1-1.1.8-.5 1.4-1 1.9-1.4.5-.5 1-.8 1.3-1.2.3-.4.7-.8 1-1 .3-.2.6-.3.8-.3.3 0 .6.2.8.5.2.3.5.8.8 1.5.3.8.6 1.5.9 2.1.3.6.6 1 .9 1.3.6.6 1.3 1.1 2.1 1.4.9.3 1.8.5 3 .5.8 0 1.6-.1 2.2-.2.6-.1 1.2-.4 1.6-.7 1.2 0 2.5-.4 3.9-1.3s3-2.1 4.7-3.8c1.1-1.4 2-2.4 2.7-3 .7-.7 1.2-1.1 1.5-1.2.1.8 0 1.8-.1 2.8-.1 1.1-.3 2.2-.6 3.5-.2 1.1-.4 2.2-.6 3.2-.2 1.1-.4 2.1-.6 3.1-.6 3.6-1.1 6.9-1.4 10-.3 3.1-.5 5.9-.5 8.5 0 1.7.2 3 .7 3.9.5.9 1.1 1.3 2 1.3.4 0 .9-.3 1.4-.9.6-.6 1.2-1.5 1.9-2.7.4-.9.7-1.7.9-2.4.2-.7.3-1.3.4-1.7.1-.7.5-1.7 1.1-3 .6-1.3 1-2.3 1.2-3 .5-1.9 1-3.6 1.4-5 .5-1.4.9-2.6 1.3-3.5.2-1.1.5-2.2.6-3.3.3-.7.6-1.4.9-1.9.3-.6.5-1.1.7-1.6.8-2.1 1.5-3.8 2.2-5.1.7-1.3 1.4-2.2 2-2.7.7.2 1.5.9 2.6 2.2 1.1 1.3 2 2 2.7 2.2l3.1 1.1c1.2-.2 2.1-.4 2.8-.6 1.7-.2 2.1-.3 2.3-.4zm-125.9-6.1c-.2.6-.3 1.1-.5 1.5-.2.4-.3.7-.6.9-.4.5-.9 1.1-1.4 1.6-1 1.5-2.1 2.7-3.3 3.5-1.2.8-2.4 1.2-3.8 1.2-.9 0-1.5-.2-1.9-.6-.4-.4-.6-1.1-.6-1.9 0-.5.1-1 .2-1.7.2-.7.4-1.5.7-2.4.3-1.1.7-1.9 1-2.4.3-.6.6-.9.9-.9.5-.1.9-.2 1.3-.4s.7-.5 1.1-.8c.5-.8 1-1.6 1.4-2.3.3-.4.5-.8.8-1.1.3-.3.5-.4.7-.5 1 .1 1.7.2 2.2.3.5.1.8.2 1 .3.2.1.5.4.7 1 .2.5.5 1.2.8 2.1l-.7 2.6zm8.1 4c0-.1-.1-.1-.1-.2l.3.6c.2.4.3.8.5 1.2-.3-.5-.5-1-.7-1.6zm62.4-.3c.1.3.3.6.4.8.2.5.4.8.5 1.2l-.9-2zm9.4-9.6c-.1-.1-.1-.2-.1-.4 0-.8.6-2.1 1.7-3.8 1.1-1.7 2-2.6 2.7-2.6.2 0 .4.1.5.2.1.2.2.4.2.7 0 .4-.1.8-.3 1.3-.2.4-.5.8-.8 1.3-.3.3-.6.7-.9 1-.3.3-.6.7-1 1-.2.3-.4.6-.6 1-.2.3-.5.5-.8.5-.4-.1-.5-.1-.6-.2zM315.4 52c-.1-.3-.3-.7-.5-1 .2.4.4.8.5 1.2.3.7.5 1.2.6 1.7-.1-.6-.3-1.2-.6-1.9zm168.9-2.3c-.3.3-.6.5-.9.7-.3.2-.7.2-1.1.2-.5 0-1-.2-1.4-.7-.4-.5-.8-1.1-1.1-2.1-.5-1.6-1.1-3.3-1.7-5.2-.5-1-1.1-1.7-1.9-2.1a4.3 4.3 0 00-4.2-.3c-.6.2-1.4.6-2.2 1-.7.5-1.4.9-1.9 1.3s-1 .8-1.4 1.2c-.3.3-.5.6-.7.9-.2.3-.4.5-.5.6-.5.4-1 .9-1.5 1.4-.4.5-.8 1-1.1 1.5-.7.6-1.3 1.2-1.8 1.6-.5.5-.9 1-1.1 1.4-.2.2-.3.4-.5.5-.1.2-.3.3-.4.4-.2-.3-.3-.5-.3-.7 0-.2 0-.4.1-.7.1-.3.2-.6.4-1 .2-.5.5-1.1.8-1.7 1.1-3.2 1.9-5.8 2.4-7.8s.8-3.3.8-4c0-1.3-.3-2.3-.8-3-.5-.7-1.3-1-2.4-1-1.1 0-2.1.2-3.1.7-1 .5-1.9 1.2-2.7 2.2-1 1.1-1.9 2.1-2.6 2.9-.7.8-1.3 1.5-1.8 2-1.1 1.3-2.1 2.3-2.8 3.2-.8.9-1.4 1.6-2 2.2l-1.6 1.6c-.5.5-.9.8-1.2 1-.3.4-.5.7-.7.9-.2.3-.4.5-.5.7-.3.3-.6.5-1 .6-.3.2-.6.3-.7.4-.8.4-1.6.8-2.6 1.1-1 .3-2 .5-3.2.6-.7-.2-1.3-.3-1.9-.5-.5-.2-.9-.4-1.2-.5-.4-.2-.7-.6-1-1.1s-.3-1-.3-1.7c0-.4.1-.7.2-1 .2-.3.3-.6.5-.8 2.5-2.4 4.5-4.6 6-6.5 1.5-1.9 2.4-3.6 2.8-5l.4-1.4c.2-.7.4-1.2.5-1.6.1-.2.1-.3.1-.3-.1-.7-.2-1.3-.3-1.9-.2-.7-.4-1.3-.6-1.8-.2-.5-.4-.8-.6-1.1-.3-.4-.7-.6-1.2-.8-.5-.2-1.1-.2-1.8-.2-.5 0-1 0-1.5.1s-.9.2-1.2.3c-.4.3-.8.6-1.2.8-.4.2-.8.5-1.1.8-.7.8-1.4 1.7-2.1 2.5l-2 2.3c-.8 1.2-1.4 2.3-1.8 3.3-.5 1-.8 1.8-1.1 2.5-.2.7-.5 1.3-.7 1.9-.2.6-.3 1.1-.4 1.5 0 .6-.1 1.2-.2 1.8l-.3 1.8c-.9.7-1.6 1.4-2.2 2-.6.6-1 1.3-1.4 1.9-.6.6-1.2 1.1-1.8 1.4-.6.3-1.2.5-1.7.5s-1-.1-1.4-.4c-.5-.3-.8-.7-1.2-1.2-.5-.8-1-1.6-1.3-2.4-.3-.7-.6-1.4-.7-1.9-.2-.5-.2-1.1-.3-1.9v-2.9l2.9-10.4-.1-1c.3-.4.5-.8.7-1.1.2-.3.4-.6.5-.7 0-.2.2-.5.5-1.1l1.2-2.4.9-2.2c.2-.5.3-.9.3-1.1V20c0-.3 0-.5.1-.7l.6-.8c.1-.4.1-.7.2-1 .1-.3.1-.5.1-.7a4.13 4.13 0 001-2.3c.1-.6.1-1.1.2-1.5.1-.4.1-.7.2-.9.5-1 .8-2.1 1-3.3.2-1.2.3-2.4.3-3.7 0-.8-.1-1.4-.4-1.9-.3-.4-.7-.6-1.2-.6-.7 0-1.4.2-2 .6-.6.4-1.2.9-1.7 1.7-.8 1.5-1.5 2.9-2.1 4.1-1.2 2.3-2.2 4.4-3.1 6.3-.9 1.8-1.6 3.4-2.1 4.8-.1.2-.2.6-.4 1.2s-.4 1.3-.7 2.3c-.2.8-.4 1.4-.7 2-.2.6-.5 1-.7 1.4 0 .6-.1 1.2-.3 1.6-.2.4-.5.7-.9.9-.9.4-1.6.7-2.1 1-.5.3-.9.5-1.1.7-1.4 1.3-2.6 2.3-3.4 3-.8.7-1.4 1.2-1.7 1.5-.6.7-1.3 1.5-2 2.2-.7.7-1.4 1.5-2.2 2.1-.3.3-.6.6-.9.8-.3.2-.5.4-.7.6-.8.8-1.4 1.5-1.9 2.2s-.9 1.1-1.1 1.4l-.6.4c-.9.4-1.6.7-2.1.9-.5.2-.8.4-1 .6l-.9.9c-.4.4-.9.9-1.4 1.6l-.1.5-.3.3v.1c-.2.2-.4.4-.6.5-.2.2-.4.3-.5.3-.2.2-.4.5-.6.7-.2.2-.4.5-.6.8-.3.2-.5.4-.8.6-.3.2-.5.2-.8.2-.9 0-1.6-.4-2.2-1.2-.6-.8-.8-1.6-.8-2.6 0-1.4 0-2.8.1-4.3-.1-1-.3-1.7-.6-2.2-.3-.5-.8-.7-1.4-.7-1 0-2.1.4-3.3 1.2-1.2.8-2.5 2-3.9 3.7-.3.2-.5.3-.7.5-.2.1-.4.2-.6.4-.3.2-.7.6-1.4 1.2-.6.6-1.5 1.3-2.5 2.3-.9.8-1.7 1.5-2.4 2s-1.4.9-2.1 1.1l-.3-.4c.9-1.2 1.6-2.2 2.1-3 .5-.8.9-1.2 1.1-1.4 1.7-1.5 3-2.7 4-3.8 1-1.1 1.7-1.9 2-2.6.7-.5 1.2-1 1.7-1.4.4-.4.7-.7.9-.8.2-.3.5-.6.8-1a25.73 25.73 0 004.2-4.1c.9-.7 1.7-1.3 2.4-1.8.5-.3.8-.7 1.1-1.2.2-.5.3-1 .3-1.7 0-.6-.2-1.1-.6-1.4-.4-.3-1-.5-1.7-.5-1.4 0-3.2.6-5.2 1.9-2.1 1.3-4.5 3.2-7.2 5.8-.6.6-1.2 1-1.7 1.4-.5.3-.9.6-1.3.8-.7.6-1.3 1.1-1.7 1.6-.5.5-.8.8-1 1.1-.5.2-.9.5-1.2.7-.3.3-.6.6-.8 1-.3.5-.5.9-.7 1.1-.2.3-.4.5-.5.6l-4.1 2.7c-.3.5-.6.9-.8 1.3-.2.3-.4.6-.5.7.3.6.5 1.2.7 1.7.2.5.4 1 .6 1.4l.3.6c.1.2.1.3.1.5s0 .6-.1.9c-.7.7-1.2 1.4-1.6 2.1-.3.7-.5 1.5-.5 2.3 0 1.5.3 2.6 1 3.3.7.7 1.8 1.1 3.2 1.1.2 0 .5-.1 1-.3.5-.2 1-.5 1.6-.8 1-.5 1.9-1.1 2.7-1.6.8-.5 1.5-1 2.1-1.5l1.5-1.5 2.7-2.7c.8-.6 1.5-1.2 2.1-1.6.6-.5 1.1-.8 1.5-1.1.2-.3.5-.5.6-.7l.5-.5c.2.3.4.6.5.9.1.3.1.6.1.8.2 2.3.8 3.9 1.9 5.1a6.1 6.1 0 004.5 1.7c.8 0 1.7-.2 2.5-.5s1.7-.9 2.6-1.6c.8-.6 1.5-1.2 2.1-1.9.7-.7 1.4-1.3 2.1-2l.3.7c0 .6-.3 1.5-.8 2.8-.5 1.3-.8 2.2-.8 2.9 0 1.5.4 2.6 1.1 3.3.7.7 1.8 1.1 3.3 1.1.8 0 1.8-.4 3-1.1 1.1-.7 2.4-1.8 3.7-3.3l3-3.3c1-1.1 2-2.3 2.9-3.4.4-.6.8-1.1 1-1.6.2-.4.4-.8.5-1.1.5-.7.9-1.3 1.3-1.7.4-.5.8-.8 1.2-1 .1-.2.3-.4.5-.7a7.66 7.66 0 011.4 2.9c.1.4.2.8.3 1.3.6 2.3 1.6 4.1 3 5.3 1.4 1.2 3.3 1.8 5.5 1.8 1 0 1.9-.1 2.6-.4s1.3-.7 1.8-1.2c.8-1 1.5-1.7 2-2.2.5-.5.8-.8 1-.9.3-.4.7-.8 1-1 .3-.2.6-.3.8-.3.3 0 .6.2.8.5.2.3.5.8.8 1.5.3.8.6 1.5.9 2.1.3.6.6 1 .9 1.3.6.6 1.3 1.1 2.1 1.4.9.3 1.8.5 3 .5.8 0 1.6-.1 2.2-.2.6-.1 1.2-.4 1.6-.7 1.2 0 2.5-.4 3.9-1.3s3-2.1 4.7-3.8c-.2-.5-.4-1.1-.7-1.8-.1-.3-.3-.7-.5-1.1l.6 1.2c.3.7.5 1.2.6 1.7.3-.3.5-.6.6-.8.1-.2.2-.4.3-.5.5-.5 1-.9 1.4-1.3.4-.4.8-.7 1.1-.9.2-.1.5-.4 1-.9s1.2-1.2 2-2.1c.7-.8 1.3-1.4 1.8-1.7.5-.4.9-.5 1.2-.5.3 0 .6.1.7.2.2.1.2.3.2.5s0 .5-.1.7c-.1.3-.2.6-.3 1-.1.4-.3.8-.4 1-.1.3-.2.5-.2.6-.7 2.5-1.4 4.7-2 6.6-.6 1.9-1.1 3.5-1.5 4.7l.3 2.5c.1.8.8 1.2 2 1.2.6 0 1.1-.1 1.6-.2s.9-.4 1.3-.7c.4-.4.8-.7 1.2-1.1l1.2-1.2c1.5-1.6 2.8-2.9 3.8-4.1 1-1.1 1.7-2.1 2.2-2.8.2-.4.6-.7 1.2-1 .6-.3 1.6-1.1 2.9-2.3.6-.6 1.2-1 1.8-1.4.6-.4 1.1-.6 1.7-.8l.4.1c.7.9 1.2 1.6 1.7 2.3.5.6.9 1.2 1.3 1.6.5 1 .9 1.8 1.3 2.4.4.6.7 1.1.9 1.3.5.6 1 1.1 1.6 1.4.6.3 1.3.5 2 .5.6 0 1.2-.1 1.8-.4.6-.3 1.2-.7 1.9-1.3.5-.4 1-.9 1.6-1.3.5-.5 1.1-.9 1.6-1.3l-1.4-5zM402 40.9c-.9 1.7-2.3 3.8-4.2 6.3-1.8 2.3-3.4 4.1-4.7 5.4-1.3 1.3-2.4 2.1-3.3 2.4-.2-.2-.4-.4-.4-.6.4-.9.7-1.7 1-2.3 1-1.6 1.8-2.9 2.4-4 .7-1.1 1.2-1.9 1.6-2.3 1.4-1.5 2.4-2.8 3.2-3.9s1.2-1.8 1.4-2.3c.9-.7 1.7-1.4 2.3-2 .7-.6 1.2-1.1 1.7-1.6.1.3.2.5.2.7.1 1.1-.3 2.5-1.2 4.2zm26.6.9c-.1-.1-.1-.2-.1-.4 0-.8.6-2.1 1.7-3.8 1.1-1.7 2-2.6 2.7-2.6.2 0 .4.1.5.2.1.2.2.4.2.7 0 .4-.1.8-.3 1.3-.2.4-.5.8-.8 1.3-.3.3-.6.7-.9 1-.3.3-.6.7-1 1-.2.3-.4.6-.6 1-.2.3-.5.5-.8.5-.4-.1-.5-.1-.6-.2z"/>
</svg>
