<svg xmlns="http://www.w3.org/2000/svg" viewBox="0 0 400 93.92">
  <path fill="#495747" d="M255.78 3.1a83.9 83.9 0 00-.03 8.1c.1.25 7.85.26 8.11 0 .08-.07.13-1.93.1-4.13l-.04-3.99-4.01-.04c-2.21-.03-4.07 0-4.13.07m104.17 0a179 179 0 00-.12 8.92c0 8-.06 9.46-.4 8.51a7.94 7.94 0 00-2.86-3.3c-2.53-1.5-5.57-1.43-8.6.2-.55.29-2.64 2.52-2.64 2.82 0 .11-.05.24-.12.27a9.18 9.18 0 00-1.21 2.7c0 .13-.07.3-.15.34-.08.05-.19.34-.24.64l-.25 1.37c-1.37 6.84-.2 14.82 2.77 19 3.57 5.03 10.72 4.44 13.62-1.11.44-.87.49-.73.58 1.75l.09 2.2 3.9.04c4.04.05 4.35 0 4.06-.63-.06-.13-.15-10.03-.2-22l-.1-21.75-4-.04c-2.21-.03-4.07 0-4.13.07M168.92 5.49c-4.93.62-8.31 3.54-9.83 8.49-.33 1.06-.38 6.03-.07 7 .48 1.54.7 2.16 1.03 2.84a12 12 0 003.01 3.59c.38.36 2.39 1.53 3.86 2.23 2.03.98 1.92.93 2.58 1.29 2.94 1.62 4.1 3.65 3.55 6.23-.13.6-.3 1.12-.39 1.15-.09.03-.16.14-.16.25 0 .24-1.05 1.26-1.67 1.63a7.27 7.27 0 01-5.25.5c-.27-.1-.83-.26-1.25-.38-.4-.1-.93-.3-1.16-.4a21.6 21.6 0 00-1.09-.5 37.9 37.9 0 01-1.46-.68c-.96-.47-.9-.6-1.04 2.19l-.22 3.81-.11 1.65.5.21c.68.3 1.91.64 3.42.96 5.25 1.11 9.25.85 12.58-.84 2.29-1.15 4.8-3.75 5.3-5.46.05-.18.22-.67.38-1.08 1-2.69.88-7.87-.27-10.34-1.52-3.27-2.88-4.52-7.66-6.97-4.02-2.06-4.37-2.3-5.28-3.73-.8-1.25-.64-3.96.32-5.14 1.5-1.85 5.46-2.07 9.04-.5l1 .43c.37.17.72.38.79.48.38.58.7-2.1.7-5.9l.01-1.75-1.16-.3c-.64-.18-1.5-.38-1.92-.46-.41-.08-1.01-.22-1.33-.32-.74-.22-5.43-.35-6.75-.18M79.04 26.7l.04 20.7h20.84l.04-3.62.05-3.62h-5.83c-3.2 0-5.94-.05-6.08-.1-.24-.1-.27-1.76-.27-17.09V6H79l.04 20.7M14.11 6.29c-.06.06-.11 8.78-.11 19.38 0 15.2-.04 19.32-.2 19.48-.18.17-.16.2.06.1.17-.06.35-.48.5-1.11.15-.7.31-1.04.5-1.1.18-.03.28-.2.26-.39-.02-.2.14-.43.44-.6a9 9 0 001.16-.91c.38-.35.77-.63.88-.63.22 0 .4-.37.4-.82 0-.46.65-.98.84-.67a1 1 0 01.16.4c0 .1.12-.01.28-.23.21-.3.23-.46.08-.7-.11-.18-.13-.34-.03-.4.09-.05.28-.34.42-.64.25-.54 1.02-1.18 2.57-2.18a5 5 0 00.97-.77c.11-.16.4-.33.62-.4.46-.1.61-.82.21-.98-.11-.05-.03-.09.18-.1.28 0 .4-.14.47-.5.06-.3.24-.54.45-.61.68-.22 2.11-1.74 2.11-2.26 0-.5-.14-.6-.46-.27-.14.13-.26.14-.38.02-.11-.11-.03-.27.28-.49.7-.5 1.33-1.12 1.55-1.52.1-.21.3-.38.44-.38.27 0 .33.6.07.75-.2.13-.22.75 0 .75.08 0 .2-.07.25-.17.06-.09.26-.16.44-.16.22 0 .32-.1.3-.3-.06-.62.02-1.02.26-1.26.14-.14.25-.33.25-.43 0-.29 1.34-1.05 1.64-.93.22.08.23.13.04.24-.29.18-.86 1.65-.68 1.76.07.04.35-.14.63-.4.28-.27.71-.62.96-.78.44-.3.45-.34.36-1.44-.09-1.05-.07-1.13.24-1.13.18 0 .5-.11.71-.25.22-.14.64-.24.94-.21.51.04.57 0 .68-.51.06-.31.2-.64.3-.75.1-.1.18-.3.18-.45 0-.15.14-.4.3-.55.34-.3.87-.38.87-.11 0 .3.37.17.77-.25.2-.23.46-.42.57-.42.1 0 .43-.24.73-.54.88-.87 1.13-1.04 1.67-1.13.33-.05.51-.18.51-.36 0-.33.77-.97 1.2-.97.16 0 .4-.07.53-.15.16-.1.32-.07.48.08.45.46 3.42-1.88 3.02-2.38-.2-.23.63-1.22 1.03-1.22.2 0 .2.22 0 .43a1.4 1.4 0 00-.2.65c-.1.82.39.71 1-.23.69-1.06.66-1.05 2.08-1.08 1.14-.02 1.2-.04 1.52-.55.19-.29.5-.57.7-.62.18-.05.65-.42 1.02-.82.48-.52.8-.73 1.14-.74 1.28-.03 1.8-.17 1.96-.52.16-.36.44-.48.44-.18 0 .26.32.2.85-.19.38-.27.45-.4.3-.57-.1-.13-.16-.68-.13-1.27a3.91 3.91 0 00-.08-1.26c-.14-.23-44.27-.33-44.5-.1m50.35.55c.17.2.12.32-.24.7-.25.26-.41.47-.37.47.4 0 .97-.97.7-1.17-.26-.2-.27-.2-.1 0m182.47.85l-1.75.65-2.34.85c-.78.28-1.6.56-1.83.61-1.15.26-1.16.27-1.2 3.69l-.05 3.1-2.38.05-2.37.05v3.15c0 3.7-.22 3.4 2.4 3.4l2.02.02.1 8.92c.1 9.67.1 9.78 1.07 11.75 1.75 3.59 6.1 4.96 11.56 3.66l1.35-.32v-6.63l-.38.11c-2.59.8-4.06.43-4.8-1.19-.32-.7-.52-15.34-.22-16.13.1-.24.43-.27 2.6-.24 3.05.04 2.81.34 2.76-3.43l-.04-3-2.67-.08-2.67-.09-.04-4.62a43.1 43.1 0 00-.17-4.61c-.06 0-.5.16-.95.33M60.75 7.8c.1.07.2.31.23.54.07.55.07.55.3.07.1-.22.13-.36.05-.32-.07.05-.17-.03-.22-.16-.06-.14-.2-.25-.31-.25-.13 0-.15.05-.05.12m-.2 1.66c.15.04.42.04.58 0 .15-.04.02-.08-.3-.08s-.45.04-.29.08m-2.2 1.19c-.58.26-1.17.75-1.17.96 0 .14-.18.23-.44.23-.37 0-.4-.03-.23-.25.4-.47.03-.45-.65.03a2.6 2.6 0 00-.84.93c-.09.26-.35.53-.58.62-.41.16-1.77 1-1.93 1.19-.49.59-3.15 1.98-3.8 1.99-.15 0-.62.32-1.03.72-.42.4-.87.78-1.02.87-.44.25-1.5 1.1-2.23 1.8a7.1 7.1 0 01-1.5 1.04 5.4 5.4 0 00-1.48 1.15c-.52.61-.69.72-.88.56-.19-.16-.32-.11-.66.2-.41.4-.71.29-.74-.26 0-.26-.66.58-.66.85 0 .13.08.23.17.23.34 0 .15.3-.3.49-.75.3-4.2 3.82-4.2 4.27a.4.4 0 01-.25.35c-.14.05-.25.24-.25.43 0 .25-.07.3-.3.2l-.54-.19c-.45-.13-1.86 1.48-2.07 2.34-.1.46-.13.47-.42.2-.2-.18-.34-.22-.42-.1-.06.1-.27.18-.47.19-.2 0-.27.05-.16.1.68.27-.79 2.39-1.66 2.39-.16 0-.3.07-.3.16 0 .1.08.17.17.17.3 0 .17.34-.38.95-.9 1.02-1.2 1.24-1.48 1.16-.17-.04-.34.08-.45.33-.1.22-.37.47-.6.56-.24.09-.52.4-.66.74-.14.33-.35.6-.48.6-.37 0-1.1.94-1.9 2.44-.5.92-1 1.61-1.5 2.02-.4.34-.88.86-1.05 1.16-.2.33-.45.54-.66.54-.19 0-.34.1-.34.24 0 .13-.58.83-1.3 1.55-.7.73-1.4 1.5-1.53 1.73-.14.22-.63.77-1.09 1.22-.46.46-.66.7-.46.52l.38-.31v4.6c0 2.54.06 4.62.14 4.62.08 0 .39-.5.68-1.09.54-1.1 2.27-3 3.16-3.49a16.88 16.88 0 012.75-1.27l1.19-.3c.83-.22 3.6-.23 4.54-.01l1.33.3c.64.14 1.98.75 3.04 1.38 1.88 1.1 3.9 4.31 4.24 6.75.13.9.19.9-3.58.9h-3.15l-.42-.93c-1.58-3.45-6.26-3.12-7.14.51-.4 1.68-.4 9.1 0 10.62 1.04 3.92 7.2 3.4 7.42-.63l.05-1-2-.08-2-.08-.05-2.64c-.03-1.81.02-2.72.15-2.88.26-.31 10.47-.34 10.78-.03.43.43.1 7.6-.4 8.74-.13.3-.23.61-.23.71 0 1.74-4.27 6.02-6 6.02-.54 0-.38.3.2.41.3.06 2.24.08 4.3.05l3.75-.05.08-13.83a402 402 0 01.22-14.04c.1-.16 1.4-.2 5.59-.2 8.16 0 9.04.18 12.17 2.45.47.34 1.71 2.06 2.07 2.87 1.76 4.02.7 8.08-2.76 10.62-.43.32-.79.66-.79.76 0 .26 1 2.27 1.18 2.38.09.05.16.2.16.34 0 .13.28.71.63 1.28a44.3 44.3 0 012.14 3.98c.45.88.92 1.68 1.06 1.77.22.14.25-3.72.25-34.4 0-19-.04-34.55-.08-34.55-.05 0-.2.06-.34.13m-6.66 1.92c-.18.5-.5.45-.5-.06 0-.62.18-.88.44-.63.18.18.2.35.06.7m-2.5.53c0 .3-.36.24-.47-.07-.03-.1.06-.2.2-.2.15 0 .27.12.27.27m1.59.72c-.13.2.19.4.4.26.2-.11.07-.41-.16-.41-.08 0-.19.07-.24.15m59.49 2.63c-6.6 1.66-10.46 8.96-9.6 18.13.2 1.98.3 2.55.8 4.17 2.44 8.07 10.3 11.24 20.13 8.12 1.86-.6 1.8-.48 1.65-3.45-.07-1.38-.1-2.81-.09-3.19.04-.7-.32-1.28-.55-.9a9.2 9.2 0 01-2.47 1.17c-.12 0-.3.08-.4.19-.66.65-6.22 1.04-6.79.47a.74.74 0 00-.46-.16c-1.29 0-3.32-2.58-3.8-4.84-.38-1.74-1.22-1.57 7.97-1.62l8.05-.04-.08-3.3c-.14-6.07-1.2-9.32-3.93-12.04a11.38 11.38 0 00-10.43-2.7m23.08 0c-2.86.65-5.29 2.37-6.38 4.5-.91 1.76-1.03 2.3-1.03 4.7 0 5.1 2.1 7.95 7.41 10.06 3.82 1.5 4.87 2.63 3.87 4.14-1.47 2.23-5.68 2.04-10.72-.49-.1-.05-.24 1.55-.41 4.85-.11 2.2 0 2.5.99 2.7.29.05.67.16.86.24 1.84.76 9.07 1.06 10.91.45a10.6 10.6 0 003.2-1.5c1.73-1.18 2.8-2.97 3.24-5.44.94-5.2-1.14-9.53-5.32-11.09a3.08 3.08 0 01-.88-.44c-.05-.08-.2-.14-.32-.14-.22 0-1.38-.49-2.73-1.14-2.42-1.18-2.92-3.1-1.17-4.48.68-.54 4.38-.58 5.67-.07.22.09.83.29 1.35.44.53.16 1 .35 1.06.43.05.09.26.15.47.15.38 0 .38 0 .48-3.27.1-3.79.13-3.67-.77-3.9l-1.2-.33c-2.11-.63-6.6-.83-8.58-.38m60 .04c-1.12.3-1.27.35-2.45.87-2.5 1.1-5.2 4.53-6.22 7.89l-.41 1.33c-.8 2.54-.75 8.35.11 11.7a4 4 0 00.35.98c.07.07.12.23.12.37 0 .4 1.3 2.88 1.95 3.68a11.53 11.53 0 005.3 3.85c3 1.23 8.37 1.08 12.73-.36 1.59-.53 1.54-.39 1.41-4.2-.12-3.7-.01-3.52-1.57-2.72-2.84 1.44-7.22 2.1-8.79 1.3l-.9-.45c-1.8-.89-3.42-3.6-3.27-5.48l.06-.67 8.04-.04 8.04-.04v-2.2c0-4.17-.69-7.78-1.95-10.18l-.44-.84a10.58 10.58 0 00-4.77-4.27 13.17 13.17 0 00-7.34-.52m30.09 0a7.1 7.1 0 00-4.57 3.6c-.37.75-.62 1.07-.85 1.07-.05 0-.1-.95-.13-2.12-.03-1.17-.1-2.18-.18-2.25-.34-.34-7.61-.06-7.54.3.04.18.11 7.08.17 15.33l.1 15h8.16l.1-9.59c.11-10.1.17-10.92.84-12.25 1.06-2.1 4-2.5 5.14-.71.75 1.16.74 1.03.83 12.05l.1 10.5 4.11.04 4.13.05.1-.4c.2-.78-.03-22.65-.25-23.53a13.55 13.55 0 00-1.05-3.24c-1.54-3.3-5.4-4.93-9.21-3.86m53-.03c-1.47.37-3.63 1.5-4.68 2.43-.82.74-2.4 2.62-2.4 2.86a17.9 17.9 0 00-1.8 4.18c-.65 2.31-.7 2.82-.7 6.33 0 3.51.05 4 .68 6.33a16.55 16.55 0 001.98 4.27c0 .2 2.56 2.82 2.75 2.82.07 0 .37.17.65.38 2.34 1.75 8.16 2.49 11.97 1.53a7.66 7.66 0 011.3-.25c.18 0 .46-.06.62-.15.16-.08.77-.28 1.35-.45.58-.17 1.13-.44 1.21-.6.22-.41-.01-6.8-.25-6.8-.1 0-.7.27-1.35.58-.64.32-1.28.59-1.43.59a.74.74 0 00-.44.19c-.43.43-3.43.86-5.19.73-3.13-.21-5.3-2.23-5.87-5.48-.27-1.54-.85-1.43 8.16-1.44h7.9l-.1-3.38c-.08-3.28-.2-4.21-.73-6.12-1.08-3.82-3.15-6.6-5.8-7.73l-1-.44c-1.48-.64-5.01-.84-6.83-.38m30-.02c-2.07.63-3.56 1.94-4.66 4.12-.82 1.64-.92 1.52-1.03-1.23a30.42 30.42 0 00-.16-2.45c-.05-.16-.9-.2-3.86-.17-3.28.04-3.78.08-3.71.3.05.14.12 7.04.17 15.33l.08 15.09h8.17l.1-7.84c.17-13.56.7-14.84 6.1-14.82h2.22l-.05-4.25-.04-4.26-1.25-.03c-.73-.02-1.6.07-2.08.21m11.75 0c-2.53.64-3.61 1.2-5 2.6-3.8 3.8-3.44 11.03.73 14.42.94.76 2.23 1.44 5.1 2.68 2.83 1.22 3.49 1.88 3.15 3.11-.44 1.58-1.26 1.97-4.15 1.99-2.58 0-3.49-.2-5.83-1.34-1.4-.7-1.35-.84-1.3 3.2l.05 3.5 1.16.35c3.32 1.03 9.49 1.38 11.59.66 3.33-1.15 5.06-2.78 6.13-5.77.4-1.15.38-5.76-.05-6.99-.94-2.73-2.44-4.16-5.83-5.58-4.35-1.83-5.42-2.64-5.42-4.12 0-1.82 3.42-2.86 6.35-1.92.4.13 1.16.37 1.7.52.52.16 1 .36 1.04.44.05.09.27.15.48.15.48 0 .6-.88.6-4.42 0-2.59-.02-2.62-1-2.82-.32-.07-.81-.18-1.09-.26-2.1-.62-6.7-.84-8.41-.4m62 .06c-2.83.74-4.6 1.92-6.29 4.18a17.45 17.45 0 00-2.9 6.58 42.4 42.4 0 01-.3 1.58 31.3 31.3 0 00.08 7.2c.36 1.92.77 3.47.93 3.57.08.05.14.2.14.32 0 1.6 3.3 5.45 5.6 6.55l1.44.7c.16.1.45.16.64.16s.5.08.68.18c1.74.94 8.89.43 11.9-.85.18-.07.5-.19.7-.24.38-.1.38-.12.38-3.6 0-3.94.08-3.76-1.36-3.05-.5.24-1.04.5-1.23.56l-1 .39c-5.54 2.12-10.37-.09-11-5.03-.16-1.25-.6-1.18 8.24-1.19h7.9l-.1-3.34c-.1-3.6-.4-5.46-1.23-7.58-1.43-3.66-3.05-5.4-6.3-6.74-1.65-.68-5.02-.85-6.92-.35m-124.43.39c-.04.11-.06 7.03-.03 15.37l.04 15.17h8.17l.04-15.38.04-15.37h-4.09c-3.12 0-4.1.05-4.17.2m-141.12 5.57c1.45.91 2.46 3.45 2.35 5.9l-.05 1.08h-8.34l-.06-.5c-.3-2.63 1.47-6.53 3.1-6.81.86-.15 2.53.04 3 .33m83.44.28c1.24 1.02 2 3.13 2.02 5.61v1.09h-8.33l-.05-1.2c-.08-2.1.8-4.66 1.9-5.5a3.88 3.88 0 014.46 0m82.73-.27c.98.63 1.43 1.3 1.93 2.84.4 1.24.57 3.86.26 4.06-.26.16-7.63.2-8.05.05-.37-.14-.2-3.02.23-4.15 1.02-2.61 1.9-3.3 4.13-3.16.61.04 1.22.18 1.5.36m103.1-.27c1.16.32 2.06 1.38 2.6 3.06.24.71.67 3.96.56 4.1-.05.04-1.98.08-4.3.08s-4.25-.04-4.3-.09c-.12-.15.24-3.08.5-3.98.79-2.71 2.54-3.84 4.94-3.17m-27.2.72c1.46.62 2.5 2.5 2.83 5.1.87 6.78-.43 12.3-3.06 13.01-1.5.4-3.8-.69-3.8-1.8a.77.77 0 00-.16-.48c-.88-.87-1.22-9.84-.48-12.48.81-2.9 2.63-4.2 4.67-3.35M34.1 24.2c-.18.7.29.92.82.39.36-.37.4-.49.22-.6-.44-.28-.94-.17-1.04.22m-1.28 1.2c0 .14-.07.26-.15.26-.21 0-.36-.26-.23-.4.19-.18.38-.11.38.15M17.5 41.32c0 .18.07.37.15.42.18.11.39-.37.26-.59-.17-.26-.41-.16-.41.17m-5.53 5.76c-.1.5-.06.73.13.55.05-.06.07-.31.04-.57l-.06-.48-.11.5m-3.29 2.4a1.7 1.7 0 01-.62.4c-.18.05-.07.09.24.1.35.01.51-.04.44-.16-.06-.1.03-.28.2-.4.17-.14.25-.25.19-.25-.07 0-.27.14-.45.31m-3.3 1.77c.06.08.03.24-.07.37-.15.17-.14.28.02.43.17.16.2.15.1-.02-.07-.11-.04-.31.06-.44.15-.17.14-.26-.02-.35-.12-.07-.16-.07-.1.01M170 62.15c0 4.6-.05 6.5-.19 6.55-.11.04-.08.15.09.28.24.2.27-.34.27-6.54 0-3.73-.04-6.77-.09-6.77-.04 0-.08 2.91-.08 6.48m114.58-.23c0 3.48.02 4.93.05 3.22.02-1.72.02-4.57 0-6.34-.03-1.77-.05-.37-.05 3.12m81.89-5.13c.76.03 1.96.03 2.66 0 .7-.03.09-.06-1.38-.06s-2.04.03-1.28.06m-275.76.67c.44.03 1.12.03 1.5 0 .39-.04.03-.07-.8-.07-.82 0-1.13.03-.7.07m-2.5.16c.16.04.42.04.58 0 .16-.05.03-.08-.29-.08-.32 0-.45.03-.3.08m5.92 0c.21.04.55.04.75 0 .21-.04.04-.07-.37-.07s-.58.03-.38.07m114.62.59c-.04.11-.06 7.3-.03 15.96l.04 15.75.08-15.96c.05-8.78.07-15.96.04-15.96-.03 0-.08.1-.13.2M98.87 59.34c0 .32.04.45.08.3.04-.16.04-.43 0-.59-.04-.16-.08-.03-.08.3m-54.92.12c-.07.1-.04 5.03.03 5.43.05.33 5.08.04 5.56-.31 1.84-1.36 1.59-3.93-.49-4.98-.56-.28-4.95-.4-5.1-.14m54.75 1.37c0 .32.04.45.08.3a1.4 1.4 0 000-.59c-.04-.16-.08-.03-.08.3m-11.12 3.6l-.5.42.55-.36c.3-.2.54-.39.54-.43 0-.12-.07-.08-.59.36m127.66 3.15c0 2.02.02 2.82.05 1.79.03-1.04.03-2.7 0-3.67-.03-.98-.05-.13-.05 1.88M86.32 65.46l-.57.62.63-.57c.58-.54.7-.68.57-.68-.03 0-.31.28-.63.63m29.26 3.62c0 1.86.06 3.35.13 3.31.07-.04.12-1.53.12-3.3 0-1.78-.05-3.27-.12-3.31a21.3 21.3 0 00-.13 3.3M342 66.97l.08.78.05-.65c.03-.35 0-.7-.08-.78-.07-.08-.1.22-.05.65m-239.3.2c0 .32.04.45.08.29a1.4 1.4 0 000-.58c-.04-.16-.08-.03-.08.29m155.87.04l-.49.54.55-.49c.5-.46.61-.6.49-.6-.03 0-.28.25-.55.55m-106.4-.32c0 .02.24.27.54.54l.54.49-.49-.55c-.46-.5-.6-.61-.6-.48m162.92 11.53c0 6.32.02 8.89.05 5.7.02-3.2.02-8.37 0-11.5-.03-3.14-.05-.53-.05 5.8m-178.85-9.84c0 .83.02 1.19.06.8.03-.39.03-1.06 0-1.5-.03-.44-.06-.12-.06.7M108.7 68c0 .41.04.58.07.38.04-.21.04-.55 0-.75-.03-.21-.07-.04-.07.37m263.46-.08c.3.32.6.58.64.58.05 0-.17-.26-.48-.58-.3-.32-.6-.59-.64-.59-.05 0 .17.27.48.59m-229.98.7c-.01.47.03.9.1.94.08.04.1-.23.08-.62-.09-1.12-.16-1.25-.18-.33m16.98-.28c-.2.28-.32.5-.28.5.05 0 .25-.22.44-.5.2-.27.32-.5.28-.5-.05 0-.25.23-.44.5m91.55.67c0 .69.03.97.07.63a8.7 8.7 0 000-1.25c-.04-.35-.07-.07-.07.62m5.98-.46c-.03.72 0 .8.34.77.27-.01.3-.04.1-.09-.2-.05-.3-.3-.35-.77l-.06-.7-.03.8m39.54-.17l-.49.54.54-.5c.3-.26.54-.5.54-.53 0-.13-.13-.02-.59.48m39.98.63c0 .69.03.97.07.63a8.7 8.7 0 000-1.25c-.04-.35-.07-.07-.07.62m5.95-.33c0 .36.06.66.13.66s.1-.3.06-.66c-.03-.37-.1-.67-.13-.67s-.06.3-.06.67m-110.13.16c0 .32.03.45.08.3.04-.16.04-.43 0-.59-.05-.16-.08-.03-.08.3m-114.5.66c0 .32.03.45.07.3.05-.17.05-.43 0-.6-.04-.15-.07-.02-.07.3m.18 1.83c0 .6.03.84.07.55.03-.3.03-.79 0-1.09-.04-.3-.07-.05-.07.54m71.46-.95c.04.02.37.3.74.62l.66.58-.57-.62a2.48 2.48 0 00-.74-.63c-.09 0-.13.02-.09.05m43.04 1.04c0 .55.03.75.07.45.03-.3.03-.75 0-1-.04-.25-.07 0-.07.55m18.7 8.58c0 5.27.01 7.43.04 4.8a768 768 0 000-9.6c-.03-2.63-.05-.47-.05 4.8m30.13-9.22c.16.04.42.04.58 0 .17-.04.03-.08-.29-.08-.32 0-.45.04-.29.08M44 70.88c-.11.39-.05 9.93.06 10.08.19.24 6.38.3 6.76.06.21-.14-.32-1.58-1-2.69a3.8 3.8 0 01-.24-.5c-.3-.78-1.8-3.9-1.92-4-.05-.04-.4-.74-.78-1.54l-.69-1.46H45.1c-.6 0-1.1.02-1.1.05m110.55 1.2c0 .37.04.5.08.3.04-.21.04-.51 0-.67-.05-.16-.08 0-.08.37m-64.97-.2c-.04.12-.06 1.34-.03 2.71l.04 2.5.09-2.72c.08-2.66.07-2.92-.1-2.49m243.84 8.87c0 4.95.02 6.95.05 4.45a675 675 0 000-9c-.03-2.45-.05-.4-.05 4.55m-233.7-.26c-.04 7.65-.07 8.43-.33 8.75l-.28.34.37-.34.37-.34-.05-8.4-.04-8.42-.04 8.4m-23.32-6.3c0 1.05.02 1.48.06.95.03-.52.03-1.39 0-1.91-.04-.53-.06-.1-.06.96m171.68 4.5c0 3.43.02 4.84.04 3.12.03-1.72.03-4.53 0-6.25-.02-1.72-.04-.31-.04 3.13m21.16 2.75c0 4.67.02 6.6.05 4.3.03-2.3.03-6.13 0-8.5s-.05-.48-.05 4.2M191.21 74c0 .32.03.45.07.3a1.4 1.4 0 000-.6c-.04-.15-.07-.02-.07.3m31.85.08c-.11.3.06.6.32.57.15 0 .15-.03 0-.1a.36.36 0 01-.21-.3c0-.12.09-.26.2-.3.17-.07.17-.1 0-.1-.12-.01-.26.1-.3.23m39.47.34c0 .36.04.5.08.29.04-.21.04-.51 0-.67-.05-.16-.08.01-.08.38m-98.67.25c0 .32.04.45.08.29.04-.16.04-.42 0-.58-.04-.16-.08-.03-.08.29m211.34.16c0 .42.04.59.07.38.04-.2.04-.54 0-.75-.03-.2-.07-.04-.07.37m-5.84 0c0 .32.04.45.08.3.04-.16.04-.43 0-.59-.04-.16-.08-.03-.08.3m-286 .33c0 .32.04.45.08.29.04-.16.04-.42 0-.58-.04-.16-.08-.03-.08.29m73.67.16c0 .42.04.59.08.38.04-.2.04-.54 0-.75-.04-.2-.08-.04-.08.37m12.83-.16c0 .32.04.45.08.29.04-.16.04-.42 0-.58-.04-.16-.08-.03-.08.29m219.65.09c0 .28-.11.6-.22.7-.16.16-.15.2 0 .2.28 0 .4-.36.32-.94l-.07-.47-.03.5m-375.48 2.8l.04 3.03 2.75.05c1.52.03 2.92 0 3.13-.04.42-.1.51-.42.11-.42-1.46 0-4.98-3.36-5.63-5.38-.32-.97-.44-.09-.4 2.75m183.18-2.2c0 .5.03.7.07.45a3.7 3.7 0 000-.92c-.04-.25-.07-.04-.07.46m150.82 6.62c-.04 7.3-.03 7.54.28 7.71.37.2 5.82.24 6.12.05.1-.07-1.08-.1-2.65-.07-1.56.03-3.02 0-3.23-.05l-.39-.1-.05-7.53-.04-7.54-.04 7.53m-63.67-6.7c0 .37.04.5.08.29.04-.2.04-.5 0-.67-.04-.16-.08.01-.07.38m-27.05 6.92l-.08 7.41-2.98.05c-2.22.03-3.05-.01-3.25-.17-.24-.19-.25-.18-.04.08.3.4 6.02.45 6.34.07.13-.17.17-2.28.14-7.55l-.04-7.31-.09 7.42m-93.61-5.75c0 .55.03.75.07.45.03-.3.03-.75 0-1-.04-.25-.07 0-.07.55m136.01 1.16c0 1.1.03 1.53.06.95.03-.57.03-1.47 0-2-.03-.52-.06-.05-.06 1.05m-156.9 5.12c-.04 3.82-.02 6.9.05 6.82.07-.07.1-3.2.08-6.95l-.04-6.82-.09 6.95m178.67-.03l-.08 6.91-3 .1-3 .08 2.94.04c2.3.03 2.97-.02 3.12-.2.14-.16.18-2.14.15-7.04l-.05-6.81-.08 6.92m-8.27-5.09c0 .92.03 1.27.06.79s.03-1.23 0-1.67c-.04-.43-.06-.03-.06.88m62.1.2c-.04 1.03-.02 1.81.05 1.74.07-.07.11-.91.08-1.87l-.04-1.73-.09 1.86m1.4-.03c0 .92.03 1.27.06.79.03-.49.03-1.24 0-1.67-.04-.43-.06-.04-.06.88m-161.15-.87c-.05.11-.06 2.98-.04 6.37l.04 6.17.09-6.38c.04-3.5.06-6.37.03-6.37-.02 0-.08.1-.12.2m.96-.09c.16.04.43.04.59 0 .16-.04.02-.08-.3-.08s-.45.04-.29.08m61.68.8c0 .55.03.76.07.46.03-.3.03-.75 0-1-.04-.25-.07 0-.07.54M93.37 80.74c-.03 3-.08 3.53-.32 3.83l-.29.35.38-.34c.36-.34.37-.4.32-3.84l-.05-3.49-.04 3.49m76.67-2.57c0 .32.03.45.08.29.04-.16.04-.42 0-.58-.05-.16-.08-.03-.08.29m-6.33 1.08c0 .46.04.63.08.37.03-.25.03-.63 0-.83-.05-.2-.08 0-.08.46m78.08-.41c.29.11.38.3.4.78l.03.63.07-.55c.07-.6-.18-1.04-.6-1.02-.19 0-.15.06.1.16m-117 .11c.21.04.51.04.67 0 .16-.04-.01-.08-.38-.08-.36 0-.5.04-.29.08m114.42 0c.16.04.42.04.58 0 .16-.04.03-.08-.29-.08-.32 0-.45.04-.3.08m-82.15.97c0 .45.03.62.07.37.04-.25.04-.63 0-.83-.04-.2-.07 0-.07.46m149.3.16a7.8 7.8 0 01-.1.75l-.1.42.19-.4c.1-.23.14-.57.1-.76-.06-.33-.06-.33-.09 0m-136.48.66c0 .37.04.5.08.29.04-.2.04-.5 0-.67-.04-.16-.08.01-.07.38m101.66.08c0 .32.03.45.07.3.05-.16.05-.43 0-.59-.04-.16-.07-.03-.07.3m-107.67.24c0 .37.04.5.08.3.04-.21.04-.51 0-.67-.04-.16-.08 0-.07.37m193 .59c0 .32.03.45.07.29.04-.16.04-.42 0-.58-.04-.16-.08-.03-.08.29m-241.64 1.66c0 .97.03 1.36.06.88.03-.48.03-1.27 0-1.75s-.06-.09-.06.87M14.1 82.78c-.18.18-.13 7.69.06 7.75.09.03 10.18.03 22.41.01l22.25-.04v-3.82c0-3.32-.03-3.82-.26-3.91-.36-.14-44.32-.13-44.46 0m28.1 1c.13.13-.04.56-.23.56-.08 0-.15-.15-.15-.33 0-.33.18-.43.38-.23m331.92.86c.08 1.26.16 1.37.18.25.01-.58-.03-1.05-.1-1.05s-.1.36-.08.8m-333.3.25c.32.22.32.23 0 .5-.28.24-.33.5-.33 1.62 0 .78-.07 1.33-.17 1.33s-.16-.57-.16-1.38c0-.77-.08-1.46-.18-1.56-.13-.13-.13-.28-.02-.5.1-.17.23-.46.3-.64.12-.32.13-.32.19.04.03.2.2.47.38.6m155.21.28c0 .6.03.84.07.54.04-.3.04-.79 0-1.08-.04-.3-.07-.06-.07.54m108.71-.35l-.49.6.57-.54c.3-.3.53-.56.49-.6-.05-.03-.3.2-.57.54m-286 1c-.07.37-.19.68-.27.68-.07 0-.16.4-.19.88-.04.74-.1.87-.38.87-.5 0-.44-1.5.07-1.86.23-.16.34-.42.34-.79 0-.6.15-.85.39-.62.08.09.1.46.03.84m3.76-.12c-.1.3-.27.96-.35 1.45-.14.86-.4 1.26-.7 1.08-.17-.1-.16-.95.01-1.16a12 12 0 00.8-2.06c.05-.17.13-.18.26-.05s.12.34-.02.74m7.11-.76c.42.11.59 3.7.2 4.4-.23.45-1.06.43-1.39-.03-.32-.46-.16-.75.23-.4.44.4.84.33.84-.16 0-.33-.08-.42-.4-.42-.61 0-.93-.58-.93-1.68 0-1.38.5-1.97 1.45-1.71m3.95 0c.38.14.32.36-.11.42-.6.09-.55.65.12 1.28.66.62.73 1 .27 1.43-.36.33-1.2.3-1.31-.04-.05-.14.04-.21.23-.2 1.07.12 1.14-.15.31-1.12-.64-.75-.71-1.12-.3-1.57.3-.33.4-.36.79-.2m2.87.66c.35.74.22 1.01-.6 1.23-.73.2-.79.29-.45.74.19.26.27.27.57.08.45-.28.63-.12.38.34-.53.98-1.67.1-1.67-1.3 0-1.65 1.16-2.37 1.77-1.09m2.42-.5c.42.38.47 3.29.06 3.13-.2-.08-.25-.38-.25-1.23 0-1.27-.1-1.67-.42-1.67-.28 0-.41.55-.41 1.8 0 .8-.06 1.04-.26 1.04s-.25-.29-.25-1.58v-1.57l.46-.07c.25-.03.53-.08.61-.1.09 0 .3.1.46.26m5.59.09c.7.65.45 1.53-.45 1.66-.6.08-.72.97-.12.97.25 0 .47-.14.58-.37.16-.34.18-.35.3-.08.25.63-.77 1.2-1.42.8-.4-.26-.35-2.54.06-3 .4-.44.57-.44 1.05.02m4.17.03c-.04.1-.23.16-.43.13-.52-.07-.47.64.07 1.15.72.67.54 1.74-.3 1.74-.73 0-.93-.3-.24-.39.69-.08.74-.48.14-1.03-.72-.66-.8-1.57-.16-1.81.46-.17 1-.04.92.21m3.46-.3c1.15.45.94 3.4-.25 3.4-1.01 0-1.43-2.15-.59-3.06.45-.48.45-.48.84-.33m2.34.44c-.17.24-.25.76-.25 1.57 0 1.1-.03 1.22-.34 1.22-.66 0-.4-3.06.29-3.21.47-.1.57.03.3.42m2.58-.26c.2.2.12 3.65-.1 4.09-.3.56-1.03.62-1.48.12-.4-.43-.2-.62.33-.33.31.17.47.18.6.04.27-.26.06-.7-.33-.7-.84 0-1.22-2.38-.5-3.15.32-.35 1.14-.39 1.48-.07m33.13-.16c.48.03 1.23.03 1.67 0 .43-.04.03-.07-.88-.07-.92 0-1.27.03-.79.07m-73.97 1c0 .68-.05.88-.16.7-.21-.32-.21-1.66 0-1.66.1 0 .17.43.16.96m1.34-.4c0 .31-.11.78-.25 1.05a2.3 2.3 0 00-.25.91c0 .48-.38.9-.66.73-.27-.16-.2-.78.16-1.5.18-.36.38-.9.43-1.2.14-.74.57-.73.57.01m2.53.48c.05 1.02.34 1.45.43.63.15-1.44.87-2.37.87-1.13 0 .57-.8 2.8-1 2.8-.23 0-.66-1.65-.66-2.5 0-1.2.3-1.04.36.2m3.6-.84c.11.11.2.43.2.7 0 .29.12.73.25 1 .29.54.34 1.43.08 1.43-.22 0-.5-.71-.66-1.75-.08-.45-.19-1-.25-1.2-.13-.41.06-.5.38-.18m1.44.06c.05.15.1.6.1 1.02 0 .94.38.91.5-.04.09-.73.4-1.38.58-1.2.12.11-.12 1.38-.47 2.5-.23.73-.5.82-.59.2-.03-.26-.18-.48-.35-.52-.34-.1-.6-1.3-.42-1.89.12-.4.5-.44.65-.07m6.57.33c-.28.47-.33.79-.27 1.58.06.88.03 1-.23 1-.28 0-.3-.17-.3-1.59V85h1.15l-.35.59m10.61 1.08c0 1.1-.06 1.57-.2 1.62-.17.05-.22-.34-.22-1.62s.05-1.68.21-1.63c.15.05.21.53.21 1.63m4.25-1.45a.6.6 0 01-.16.37c-.09.09-.18.72-.2 1.41-.08 1.78-.38 1.5-.44-.42L45.65 85h.43c.23 0 .42.1.42.22m-17.66.35c-.36.43-.15 2.17.27 2.23.43.06.63-.71.46-1.78-.12-.7-.38-.87-.73-.45m6.54.08c-.16.26-.15.36.05.53.34.28.64-.03.5-.5-.15-.43-.3-.44-.55-.03m8.18-.07c-.15.4.06.75.43.75.39 0 .47-.47.14-.8-.27-.27-.45-.25-.57.05m7.98.08c-.42.68-.22 2.17.3 2.17.46 0 .69-1.48.32-2.17-.22-.41-.36-.41-.62 0m4.21.17c-.31.6-.31 1.32 0 1.73.56.75 1.13-.49.75-1.63-.23-.73-.41-.75-.75-.1m338.64 1.34c0 .78.03 1.1.06.7a8.3 8.3 0 000-1.41c-.03-.4-.06-.07-.06.7m-266.73 1.22c.08.69.08.69.14.14.03-.3 0-.63-.08-.7-.08-.08-.1.17-.06.56m-100.25-.4c.12.2-.2.4-.41.27-.19-.12-.07-.42.17-.42.08 0 .19.07.24.16m22.67 0c.12.2-.2.4-.42.26-.18-.12-.06-.42.17-.42.08 0 .2.07.25.16m66.42.23c0 .03.24.27.54.54l.54.49-.49-.54c-.45-.5-.59-.62-.59-.5m10.07.5l-.49.54.55-.49c.3-.27.54-.51.54-.54 0-.13-.14-.02-.6.49m7.14-.04c0 .32.03.45.07.29a1.4 1.4 0 000-.58c-.04-.16-.07-.03-.07.29m36.66.08c0 .37.04.5.08.29.04-.2.04-.5 0-.67-.04-.16-.08.01-.07.38m6.34.33c0 .55.03.76.07.46.03-.3.03-.75 0-1-.04-.25-.07 0-.07.54m19.47-.49a1.5 1.5 0 01-.23.75c-.12.13-.07.12.1-.03.2-.18.28-.42.23-.75l-.07-.48-.03.51m88.68.08c0 .32.04.45.08.29.04-.16.04-.42 0-.58-.04-.16-.08-.03-.08.29m-157.02.84c-.03.76.2.82 2.97.82 1.43 0 2.68-.06 2.79-.12.1-.07-1.1-.13-2.67-.13h-2.85l-.11-.5c-.1-.46-.1-.47-.13-.07m157.16.16c-.02.59.34.66 3.18.66 1.54 0 2.82-.05 2.87-.12.04-.07-1.23-.1-2.83-.08-2.9.05-2.9.05-3.06-.33-.09-.23-.15-.28-.16-.13m-175.84.3c0 .14-.88.2-3.13.23l-3.12.04 3.07.05c2.85.05 3.64-.05 3.3-.4-.07-.06-.12-.03-.12.08m27.3.07c.21.26.55.29 3.18.26l2.93-.04-2.9-.05c-1.97-.03-2.99-.12-3.17-.26-.23-.18-.23-.17-.03.1m34.17 0c.2.25.53.28 3.08.25l2.85-.04-2.82-.05c-1.9-.03-2.9-.12-3.08-.26-.23-.18-.24-.17-.03.1M336.38 90c.05.21.56.25 3.22.26h3.15l-3.08-.05c-2.19-.04-3.11-.11-3.22-.26-.1-.14-.12-.13-.07.05m-184.88.17l-3.08.1 3.03.03c1.88.02 3.07-.03 3.13-.13.06-.1.08-.15.05-.13-.02.02-1.43.07-3.13.13m10.63.1c.2.14.5.22.66.18.22-.06.2-.08-.07-.1-.2 0-.41-.1-.47-.18a.39.39 0 00-.3-.17c-.1 0-.02.12.18.26m46.81-.05c.05.07 1.5.12 3.23.12s3.18-.05 3.22-.12c.04-.07-1.4-.13-3.22-.13-1.82 0-3.27.06-3.23.13m13.54 0a25 25 0 003.45.09l3.32-.05-3.45-.08c-1.9-.05-3.4-.03-3.32.04m20.13 0c.1.16 5.24.16 5.5 0 .1-.07-1.1-.13-2.7-.13-1.58 0-2.84.06-2.8.13m20.28 0c.1.06 1.5.1 3.11.1 3.18-.04 2.78-.11-.94-.18-1.3-.03-2.28 0-2.17.08m64.25 0c.08.07 1.52.11 3.2.09l3.08-.05-3.2-.08a17.6 17.6 0 00-3.08.04m-135.1.24c.16.04.43.04.59 0 .16-.04.02-.08-.3-.08s-.45.04-.29.08m-28.08.17c.3.04.78.04 1.08 0 .3-.04.06-.07-.54-.07-.6 0-.84.03-.54.07m24.17 0c.2.04.5.04.66 0 .16-.05 0-.08-.37-.08s-.5.04-.3.08m2.09 0c.16.04.42.04.58 0 .16-.05.03-.08-.29-.08-.32 0-.45.03-.3.07m88.26.01c.3.04.78.04 1.08 0 .3-.04.06-.07-.54-.07-.6 0-.84.03-.54.07m87.75 0c.16.04.42.04.58 0 .16-.05.03-.08-.29-.08-.32 0-.45.03-.3.07m20 0c.17.05.43.05.6 0 .15-.04.02-.07-.3-.07s-.45.03-.3.07m2.18 0c.16.05.42.05.58 0 .16-.04.03-.07-.3-.07-.31 0-.45.03-.29.07"/>
  <path fill="#495747" d="M66.83 5.33c0 .1.11.17.24.17.14 0 .29-.08.35-.17.05-.09-.06-.16-.24-.16-.2 0-.35.07-.35.16M64 6.8c-.14.04-.44.3-.67.57l-.42.5-.4-.33c-.47-.38-1.01-.3-1.01.15 0 .33-.25.86-.65 1.35-.21.27-.19.3.3.3.35 0 .56-.1.63-.3A1.8 1.8 0 0163.24 8c.66 0 1.58-.84 1.23-1.12A.55.55 0 0064 6.8M60.67 8c0 .1-.11.17-.24.17s-.26.05-.3.12c-.2.47-2.46 1.73-2.46 1.38 0-.3-.28-.18-.44.18-.16.35-.68.49-1.96.52-.34 0-.66.22-1.15.74-.36.4-.83.77-1.02.82-.2.05-.5.33-.69.62-.32.5-.38.53-1.52.55-1.42.03-1.4.02-2.08 1.08-.61.94-1.1 1.05-1 .23.02-.27.12-.56.2-.65.2-.2.2-.43 0-.43-.4 0-1.23.99-1.03 1.22.4.5-2.57 2.84-3.02 2.38-.16-.15-.32-.18-.48-.08a1.2 1.2 0 01-.54.15c-.42 0-1.19.64-1.19.97 0 .18-.18.31-.5.36-.55.1-.8.26-1.68 1.13-.3.3-.63.54-.73.54-.1 0-.36.19-.58.42-.4.42-.76.54-.76.25 0-.1-.14-.17-.3-.17-.37 0-.87.5-.87.86a.7.7 0 01-.18.43c-.1.1-.24.43-.3.74-.11.5-.17.55-.68.5a1.8 1.8 0 00-.94.22 1.6 1.6 0 01-.71.25c-.31 0-.33.08-.24 1.13.1 1.1.08 1.15-.36 1.44-.25.16-.68.51-.96.77-.28.27-.56.45-.63.4-.18-.1.4-1.57.68-1.75.19-.11.18-.16-.04-.24-.3-.12-1.64.64-1.64.93 0 .1-.1.29-.25.43-.24.24-.32.64-.25 1.27.01.19-.1.29-.31.29-.18 0-.38.07-.44.16a.32.32 0 01-.26.17c-.2 0-.2-.62.01-.75.26-.16.2-.75-.07-.75-.14 0-.34.17-.45.38a5.5 5.5 0 01-1.54 1.52c-.3.22-.4.38-.28.5.12.11.24.1.38-.03.32-.32.46-.24.46.27 0 .52-1.43 2.04-2.11 2.26-.21.07-.39.3-.45.6-.07.37-.2.5-.47.51-.21.01-.29.05-.18.1.4.16.25.88-.2.99-.24.06-.52.23-.63.38-.11.16-.55.5-.97.78-1.55 1-2.32 1.64-2.57 2.18-.14.3-.33.59-.42.64-.1.06-.08.22.03.4.15.24.13.4-.08.7-.16.22-.28.32-.28.23a1 1 0 00-.16-.4c-.2-.31-.84.2-.84.67 0 .45-.18.82-.4.82-.1 0-.5.28-.88.63-.37.34-.9.75-1.16.9-.3.18-.46.41-.44.61.02.19-.08.36-.25.4-.2.05-.36.4-.52 1.1-.17.77-.3 1.04-.57 1.13-.31.1-.32.12-.06.31.15.11.28.25.28.31 0 .21-1.37.96-1.6.88-.17-.07-.23.04-.23.4 0 .55-.04.58-.53.31-.5-.27-1.81 1.04-1.51 1.52.23.37-.04.65-.35.35-.44-.45-1.25.1-.92.63.17.28.17.39 0 .55-.16.17-.22.14-.3-.16-.12-.43-.74-.5-1.06-.12-.26.32-.46.32-.79-.01a.6.6 0 00-.61-.16c-.2.06-.57.17-.85.23-.54.13-.77.64-.35.77l.53.17c.21.07.23.14.09.31a.54.54 0 00-.1.5c.14.33.91.85.91.6 0-.1.13-.16.3-.13.22.05.27.19.23.62-.06.55-.05.56.5.45.3-.06.97-.15 1.47-.2 1.31-.13 1.42-.18 1.15-.5-.18-.23-.17-.3.07-.48.16-.12.27-.32.25-.44-.04-.17.15-.23.66-.23.55 0 .79-.1 1.08-.43.2-.24.6-.55.88-.7a8.96 8.96 0 002.25-2.1c.13-.23.83-1 1.54-1.73A7.25 7.25 0 0018 45.25c0-.13.15-.24.34-.24.2 0 .46-.21.66-.54.17-.3.65-.82 1.06-1.16.49-.41 1-1.1 1.48-2.02.8-1.5 1.54-2.45 1.91-2.45.13 0 .34-.26.48-.59.14-.33.42-.65.66-.74.23-.09.5-.34.6-.56.11-.25.28-.37.45-.33.29.08.57-.14 1.48-1.16.55-.61.68-.95.38-.95a.17.17 0 01-.17-.17c0-.09.14-.16.3-.16.87 0 2.34-2.12 1.66-2.4-.11-.04-.04-.08.16-.09.2 0 .41-.1.47-.2.07-.1.22-.07.42.11.3.27.32.26.42-.2.2-.86 1.62-2.46 2.07-2.34.14.04.39.13.55.2.22.09.29.04.29-.21 0-.19.1-.38.25-.43a.4.4 0 00.25-.35c0-.45 3.45-3.96 4.2-4.27.45-.2.64-.49.3-.49-.1 0-.17-.1-.17-.23 0-.27.65-1.1.66-.85.03.55.33.65.74.26.34-.31.47-.36.66-.2.2.16.36.05.88-.56a5.4 5.4 0 011.48-1.15 7.1 7.1 0 001.5-1.04c.73-.7 1.79-1.55 2.23-1.8.15-.09.6-.48 1.02-.87.4-.4.88-.72 1.03-.72.65 0 3.31-1.4 3.8-2 .16-.19 1.52-1.02 1.93-1.18.23-.09.5-.37.58-.62.1-.25.47-.67.84-.93.68-.48 1.04-.5.65-.03-.18.22-.14.25.23.25.26 0 .44-.09.44-.23 0-.35 2.03-1.56 3.11-1.85l.47-.13-.46-.2-.46-.19.6-.7c.33-.38.52-.7.42-.7-.1 0-.18.08-.18.17m-9.4 3.92c-.16.4-.13.88.06 1 .3.18.55-.78.28-1.04-.2-.2-.25-.2-.34.04m-2.57 1.11c.1.31.47.36.47.07a.27.27 0 00-.27-.27c-.14 0-.23.1-.2.2m2.54.8c.13.2-.19.39-.4.25-.2-.11-.07-.41.16-.41.08 0 .19.07.24.15M35.14 24c.2.11.15.23-.21.6-.4.39-.5.42-.69.22-.56-.56.21-1.26.9-.82m-2.7 1.28c-.12.14.03.4.24.4.08 0 .15-.12.15-.25 0-.26-.2-.33-.38-.15M17.9 41.15c.13.22-.08.7-.26.59-.2-.12-.2-.74 0-.74.1 0 .2.07.26.15m152.26 21.2c0 4.69-.06 6.8-.18 6.73-.1-.06-.36-.41-.6-.79-.42-.67-1.35-1.62-1.58-1.62-.07 0-.22-.1-.34-.22-.38-.36-2.04-.78-3.07-.78-3.07 0-5.52 2.18-6.63 5.91-.6 1.98-.67 2.72-.67 6.17 0 3.42.1 4.32.66 6.1.13.43.24.87.24.99 0 1.15 2.96 5.16 3.8 5.16.17 0 .4.1.5.2.4.4 3.97.28 4.87-.14a6.88 6.88 0 002.57-2.48c.41-.87.55-.71.67.71.16 1.91-.08 1.79 3.32 1.84l2.94.04V55.5h-6.5v6.84m114.5-.01c0 3.76-.05 6.84-.1 6.84-.15 0-.72-.73-.73-.93a6.17 6.17 0 00-10.05.09 11.3 11.3 0 00-1.46 2.91c0 .15-.06.4-.14.55-.34.66-.57 2.45-.64 5.04-.16 5.73.96 9.76 3.36 12.08 2.84 2.76 8.19 1.85 9.47-1.62.22-.6.42-.26.54.92.21 2.13-.05 1.97 3.29 1.92l2.87-.05v-34.5l-3.2-.04-3.21-.05v6.84m80.26-5.36c-.04.08-.24.66-.44 1.3-.2.63-.4 1.26-.48 1.4-.07.13-.25.7-.41 1.25-.16.55-.4 1.24-.53 1.54-.44 1.03-.43 1.04 1.65 1.04h1.88l.29-.54c.15-.3.43-.77.6-1.04.18-.28.45-.74.6-1.04.15-.3.38-.62.5-.73.14-.1.24-.25.24-.32 0-.08.38-.74.84-1.48.45-.74.83-1.38.83-1.43 0-.15-5.48-.1-5.56.05m-276.69.7c-1 .16-2.16.45-2.55.64-2.85 1.37-3.13 1.55-4.72 3.06-1.19 1.13-3.31 4.61-3.31 5.44 0 .17-.06.36-.12.42-1.23 1.23-1.25 11.73-.03 14.14a11.48 11.48 0 001.38 3.2c.92 1.67 3.11 3.87 4.44 4.46.27.12.5.28.5.34 0 .07.13.13.28.13.16 0 .44.12.62.25.18.14.48.25.68.25.19 0 .42.07.5.15.64.62 6.44.82 9.08.3 3.14-.6 3.86-.8 4.38-1.25.27-.23.29-.87.29-8.8v-8.56l-.38-.1a74.2 74.2 0 00-4.96-.04l-4.58.05-.05 2.7-.04 2.72h1.66c2.4 0 2.18-.37 2.18 3.66 0 4.25.1 4.06-2.33 4.14-1.68.06-1.8.03-3.49-.78a8.53 8.53 0 01-2.5-2.46c-.14-.26-.34-.6-.44-.73-1.67-2.2-1.67-10.95 0-13.17.1-.13.34-.55.52-.91 1.79-3.67 7.11-4.77 12-2.48.45.22.91.4 1.02.4.37 0 .72-6.14.35-6.24l-1.13-.32-1.58-.45a46.1 46.1 0 00-7.67-.17m120.66.55c-.04.11-.06 7.33-.04 16.04l.05 15.83h6.5l.08-6.41.08-6.42.78-.05c1.75-.11 3.03 1.32 3.56 3.97.07.32.18.66.25.75.07.09.16.43.21.75.05.32.21 1.03.36 1.58.16.55.34 1.3.4 1.67.07.37.2.78.28.91.08.13.2.54.27.91.49 2.62.14 2.42 4.19 2.42h3.29v-.48c0-.27-.07-.54-.15-.59-.08-.05-.19-.33-.24-.63a16.6 16.6 0 00-.62-2.38 11.3 11.3 0 01-.32-1.08c-.1-.41-.27-1.01-.36-1.33-.1-.32-.26-.94-.37-1.36a3.4 3.4 0 00-.32-.9c-.07-.08-.12-.3-.12-.51 0-.21-.07-.56-.16-.77-.08-.2-.28-.83-.45-1.38-.66-2.28-1.67-3.87-2.6-4.1-.56-.13-.5-.72.07-.79.25-.02.53-.16.65-.29.1-.13.28-.24.39-.24.42 0 2.03-1.65 2.46-2.52 2.02-4.14.78-10.1-2.4-11.48-.2-.09-.5-.23-.63-.31a8.28 8.28 0 00-2.2-.75c-1.45-.35-12.76-.41-12.89-.06m10.4 5.61c.73.37 1.64 1.35 1.78 1.9.93 3.83-.62 6.02-4.19 5.91l-1.65-.05-.04-3.83c-.03-2.1-.01-3.92.03-4.04.14-.37 3.3-.28 4.07.11m-106.45 2.16a5.96 5.96 0 00-3.21 2.95c-.67 1.35-.79 1.24-.94-.94l-.13-1.74h-5.76l.01 11.7c0 6.44.05 11.82.1 11.96.16.4 6.15.38 6.3 0 .06-.15.1-3.02.1-6.38 0-8.6.44-10.31 2.85-11.16.75-.26 2.85-.27 3.11 0 .34.33.39-.15.34-3.46l-.05-3.16-.91-.03c-.53-.02-1.3.09-1.81.26m9.14-.03c-1.65.38-2.89.72-3.2.9-.16.08-.44.15-.61.15-.67 0-.77.4-.55 2.31.1.98.2 2.1.2 2.49 0 .39.03.7.07.7.21 0 1.26-.58 1.26-.7 0-.07.14-.13.31-.13.17 0 .4-.12.52-.25.11-.14.31-.25.44-.25s.36-.07.52-.15c3.13-1.59 6.7.17 6.7 3.3v.96l-2.75.1c-2.6.1-3.3.22-4.91.83-2.28.87-3.53 2.12-4.48 4.5-.28.7-.23 4.56.06 5.4 1.13 3.25 3.94 4.9 7.39 4.38a4.72 4.72 0 002.03-.68c.14-.08.36-.2.5-.25a7.3 7.3 0 001.13-1c1.04-1.07 1.12-1.05 1.26.28.06.56.15 1.09.2 1.17.11.18 5.25.2 5.5.03.24-.18.05-18.32-.2-18.87-.1-.23-.28-.74-.4-1.13-.12-.4-.31-.8-.43-.9-.13-.1-.23-.28-.23-.4 0-.11-.37-.54-.82-.95a7.06 7.06 0 00-2.43-1.46c-1.45-.62-5.15-.82-7.08-.38m24.42.02c-1.66.57-2.44 1.22-3.5 2.9-.63 1.02-.73.88-.79-1.04l-.05-1.58h-5.77l.02 11.74c.01 8.29.07 11.8.2 11.96.14.17.85.21 3.2.18l3.02-.05.1-7.91.08-7.92.46-.95c1.05-2.18 3.61-2.3 4.54-.22.09.19.2 4.09.24 8.67l.08 8.33h6.33v-9.33c0-10.18.02-9.94-1-12.05-1.16-2.41-4.43-3.66-7.16-2.73m39.5.01c-3 .84-4.86 2.72-6.41 6.44-.78 1.89-1.23 6.11-.85 8.03l.32 1.63c.6 3.12 1.93 5.35 4 6.73.83.55 1.31.79 2.84 1.38 1.19.47 5.78.46 7.51-.01.32-.1.74-.2.92-.24.46-.12 1.46-.5 1.7-.66.14-.08.22-.5.22-1.08 0-3.57-.31-4.78-1-3.95a.74.74 0 01-.49.25.76.76 0 00-.44.14c-.16.15-1.31.54-2.5.85-3.44.89-6.9-1.37-6.9-4.48v-.84l6.2-.04 6.21-.05.05-1.16c.08-2.07-.44-6.46-.8-6.83a.72.72 0 01-.17-.44c0-.6-1.28-2.75-2.16-3.65-1.97-2-5.37-2.83-8.25-2.02m50.58-.04a23 23 0 00-3.2.91 1.6 1.6 0 01-.61.15c-.64 0-.7.3-.5 2.93.23 2.93.14 2.73.97 2.18.37-.25.7-.44.75-.44.04 0 .48-.18.96-.4 3.9-1.78 7.21-.41 7.21 2.97v1.01l-2.8.13c-1.84.08-3 .2-3.4.37a3.2 3.2 0 01-.87.25c-1.12 0-3.87 2.16-4.5 3.53-.88 1.94-1.13 4.54-.59 6.05.13.37.24.77.24.89.01.78 1.88 2.89 3.09 3.47a7 7 0 008-1.5l1-.98.13 1.14c.07.63.16 1.24.2 1.36.09.24 5.18.3 5.56.06.16-.1.2-.37.12-.95-.05-.45-.13-4.53-.19-9.07-.1-9-.11-9.2-1.1-10.95-.5-.88-1.68-2.05-2.08-2.05-.12 0-.22-.08-.22-.17 0-.09-.09-.16-.19-.16s-.42-.1-.7-.24a5.47 5.47 0 00-1.11-.33c-.32-.05-.92-.17-1.34-.26-1.1-.23-3.59-.18-4.83.1m24.5 0c-.41.14-.98.35-1.26.48a6.7 6.7 0 00-2.27 2.42c-.39 1.13-.79.64-.84-1.05l-.05-1.54-2.97-.05-2.98-.04.1.96c.06.53.15 5.88.2 11.88.05 6 .14 10.97.22 11.05.07.07 1.47.1 3.11.08l2.99-.05.09-7.83c.07-6.28.13-7.98.33-8.58.78-2.36 3.47-2.8 4.63-.76.25.46.29 1.32.33 8.8l.05 8.29.37.09c.2.05 1.64.07 3.2.04l2.83-.05v-9.33c0-10.1.03-9.8-.92-11.88-1.15-2.5-4.44-3.85-7.16-2.93m39.58.03c-2.2.61-5.58 3.09-5.58 4.1 0 .13-.06.26-.13.3-.44.19-1.42 3.25-1.68 5.3-.86 6.6 2.02 13.3 6.14 14.27a2 2 0 01.6.24c.62.49 5.82.47 6.3-.02a.72.72 0 01.46-.16c.31 0 1.36-.51 1.45-.7.03-.08.13-.13.23-.13.67 0 2.75-2.46 3.45-4.09l.51-1.16c.67-1.54 1.01-5.94.66-8.54-.26-1.93-1.03-4.38-1.6-5.06-.13-.14-.22-.31-.22-.37 0-.18-.67-.95-1.66-1.9-2.06-2.01-5.9-2.9-8.93-2.08m24.78-.05c-.31.14-.67.25-.8.25-.74 0-2.65 1.97-3.11 3.22-.26.68-.45 0-.45-1.57v-1.66l-2.93.04-2.93.05.02 11.83c.01 6.5.08 11.89.15 11.96.07.07 1.48.11 3.12.09l2.99-.05.1-7.41c.13-8.76.18-9.12 1.39-10.46 1.06-1.17 3.39-.53 3.85 1.07.07.26.18 4.14.23 8.64l.1 8.16 3.12.05c2.44.03 3.12 0 3.13-.17V80.7c-.01-9.02-.06-10-.6-11.09a2.28 2.28 0 01-.24-.65c0-.35-1.36-1.97-1.97-2.35-1.44-.89-3.94-1.22-5.17-.69m20.89.06a5.3 5.3 0 00-3.25 2.65c-.57 1.09-.76.91-.93-.84l-.15-1.54H339c-2.52 0-2.9.03-2.83.25.04.14.1 5.35.12 11.58.02 6.24.08 11.5.13 11.71.08.33 6.01.64 6.28.33.02-.02.09-3.6.14-7.95.05-4.36.17-8.16.25-8.45.7-2.4 3.35-2.86 4.6-.8l.4.66.05 8.17c.04 5.98.1 8.2.25 8.29.23.15 5.63.17 6.01.03.33-.13.4-15.82.09-17.94-.75-5.04-4.1-7.54-8.24-6.15m17.83-.04c-3.49 1.08-5.5 3.38-6.89 7.9-.58 1.88-.6 6.8-.03 8.74l.34 1.17c.82 2.78 4.14 6.25 5.96 6.25.17 0 .38.07.47.16.46.46 6.57.5 7.3.05.1-.06.48-.16.85-.23a7.34 7.34 0 002.05-.7c.33-.21.19-5.28-.15-5.28-.08 0-.53.18-1.02.4-2.1.93-3.33 1.27-4.74 1.27a6.4 6.4 0 01-2.55-.53c-1.36-.48-2.97-3.02-2.8-4.43l.05-.46 6.16-.08 6.17-.09.05-1.9a28.1 28.1 0 00-.4-5.26 2.9 2.9 0 00-.34-1 1.26 1.26 0 01-.22-.58c0-1.07-2.39-3.98-3.87-4.7a9.62 9.62 0 00-6.39-.7m20 .03c-.55.16-1.28.45-1.63.66-.35.2-.7.37-.8.37-.21 0-2.48 2.27-2.48 2.48 0 .1-.1.26-.21.38-.24.25-1 1.8-1.26 2.56-.76 2.23-.76 2.23-.76 5.91.02 5.42.94 7.78 4.08 10.42 1.64 1.39 4.87 2.06 8.31 1.73a12 12 0 003.42-.67c.27-.1.74-.24 1.02-.33.68-.2.66-.12.6-3.02-.07-2.68-.08-2.72-1.01-2.22-2.29 1.21-5.1 1.73-6.68 1.24a5.17 5.17 0 01-3.73-4.65l-.03-.58 6.25-.08 6.25-.09-.04-2.75c-.05-3.18-.26-4.4-1.17-6.5a8.4 8.4 0 00-10.13-4.86m-194.15 4.87c.87.85 1.32 2.15 1.32 3.83v1.41h-6.33l-.05-1.15c-.1-2.06 1-4.4 2.18-4.66 1.04-.22 2.31.03 2.88.57m177.5-.4c1.18.55 1.89 2.1 1.95 4.24l.04 1.4h-6.5l-.06-.91c-.05-.87.35-2.72.67-3.08a.68.68 0 00.14-.39c0-.31 1.11-1.33 1.55-1.42.82-.16 1.68-.1 2.2.15m20.87.68c.4.44.71.9.71 1.01 0 .12.07.35.15.5.22.42.57 2.99.46 3.3-.13.33-6.6.38-6.63.04-.07-.62.06-2.4.2-2.65.08-.16.15-.45.15-.64 0-.69 1.21-2.2 1.92-2.4a3 3 0 013.04.84m-220.04.02c2 1.5 2.54 8.93.91 12.48-.97 2.13-3.27 2.33-4.51.39-.93-1.45-1.27-7.71-.58-10.55.58-2.38 2.6-3.5 4.18-2.32m114.63.16c.84.8 1.36 2.11 1.54 3.88.63 6.3-.59 10.16-3.22 10.16-1.24 0-1.98-.77-2.63-2.75-.43-1.28-.4-7.99.04-9.45.66-2.25 2.85-3.19 4.27-1.84m22.04.28c.69.73 1.02 1.6 1.42 3.68.44 2.31-.21 8.75-.88 8.75-.07 0-.13.1-.13.22 0 .5-1.4 1.45-2.15 1.45-1.78 0-2.87-1.69-3.36-5.17-.28-2.02.03-6.65.5-7.24.07-.1.18-.38.24-.62.45-1.88 3-2.51 4.36-1.07m-177.23 7.39c.06.9-.07 3.65-.19 3.79-.07.1-.18.42-.25.72-.34 1.62-2.57 2.9-4.21 2.43-2.18-.64-2.68-4.02-.85-5.73.76-.71.95-.84 1.27-.84.17 0 .4-.09.5-.2.11-.1.75-.23 1.41-.29l1.75-.13c.42-.03.55.03.57.25m114.47-.05c.24.28 0 3.27-.35 4.41-1.16 3.84-6.14 3.52-6.14-.39 0-2.5 1.35-3.8 4.25-4.07 1.97-.19 2.05-.18 2.24.05"/>
</svg>
