<svg viewBox="0 0 233 147" fill="none" xmlns="http://www.w3.org/2000/svg">
<path d="M96.7226 46.1712C89.2158 46.1712 83.1526 40.1301 83.1526 32.6507C83.1526 25.1712 89.2158 19.1301 96.7226 19.1301C104.229 19.1301 110.293 25.1712 110.293 32.6507C110.293 40.1301 104.229 46.1712 96.7226 46.1712ZM96.7226 22.1507C90.8038 22.1507 86.0398 26.8972 86.0398 32.7945C86.0398 38.6918 90.8038 43.4383 96.7226 43.4383C102.641 43.4383 107.405 38.6918 107.405 32.7945C107.405 26.8972 102.641 22.1507 96.7226 22.1507Z" fill="#495747"/>
<path d="M96.7225 46.8905C88.9269 46.8905 82.4307 40.5617 82.4307 32.6507C82.4307 24.7398 88.7826 18.411 96.7225 18.411C104.518 18.411 111.014 24.7398 111.014 32.6507C111.014 40.5617 104.662 46.8905 96.7225 46.8905ZM96.7225 19.9932C89.6488 19.9932 83.8743 25.7466 83.8743 32.7946C83.8743 39.8425 89.6488 45.5959 96.7225 45.5959C103.796 45.5959 109.571 39.8425 109.571 32.7946C109.571 25.7466 103.796 19.9932 96.7225 19.9932ZM96.7225 44.0138C90.5149 44.0138 85.3179 38.9795 85.3179 32.6507C85.3179 26.322 90.3706 21.2877 96.7225 21.2877C102.93 21.2877 108.127 26.322 108.127 32.6507C108.127 38.9795 103.074 44.0138 96.7225 44.0138ZM96.7225 22.8699C91.2367 22.8699 86.7615 27.3288 86.7615 32.7946C86.7615 38.2603 91.2367 42.7192 96.7225 42.7192C102.208 42.7192 106.683 38.2603 106.683 32.7946C106.683 27.3288 102.208 22.8699 96.7225 22.8699Z" fill="#495747"/>
<path d="M230.835 143.692H2.16553V145.13H230.835V143.692Z" fill="#495747"/>
<path d="M230.835 145.849H2.16554C1.29937 145.849 0.721924 145.274 0.721924 144.411C0.721924 143.548 1.29937 142.973 2.16554 142.973H230.835C231.701 142.973 232.278 143.548 232.278 144.411C232.278 145.274 231.701 145.849 230.835 145.849Z" fill="#495747"/>
<path d="M230.835 146.568H2.16543C1.01053 146.568 0 145.562 0 144.411C0 143.26 1.01053 142.253 2.16543 142.253H230.835C231.989 142.253 233 143.26 233 144.411C233 145.562 231.989 146.568 230.835 146.568ZM2.16543 143.692C1.73234 143.692 1.44362 143.979 1.44362 144.411C1.44362 144.842 1.73234 145.13 2.16543 145.13H230.835C231.268 145.13 231.556 144.842 231.556 144.411C231.556 143.979 231.268 143.692 230.835 143.692H2.16543Z" fill="#495747"/>
<path d="M222.895 145.849H78.5327L100.043 108.884L118.377 73.3562H180.885L222.895 145.849ZM83.5854 142.973H217.842L179.153 76.2329H120.109L102.641 110.322L83.5854 142.973Z" fill="#495747"/>
<path d="M224.194 146.568H77.3779L99.4653 108.452L117.944 72.4932H181.318L181.463 72.7808L224.194 146.568ZM79.8321 145.13H221.595L180.452 74.0754H118.81L100.765 109.171L79.8321 145.13ZM219.141 143.692H82.4306L102.064 109.89L119.82 75.5137H179.73L179.875 75.8014L219.141 143.692ZM84.8847 142.253H216.687L178.864 76.8082H120.542L103.219 110.466L84.8847 142.253Z" fill="#495747"/>
<path d="M157.499 144.843L114.912 68.4658L116.211 67.8905L158.654 144.123L157.499 144.843Z" fill="#495747"/>
<path d="M158.076 145.849C157.499 145.849 157.066 145.562 156.777 145.13L114.335 68.8974C113.902 68.1782 114.19 67.3152 114.912 66.8836C115.634 66.4521 116.5 66.7398 116.933 67.459L159.375 143.836C159.809 144.555 159.52 145.418 158.798 145.849C158.509 145.849 158.365 145.849 158.076 145.849Z" fill="#495747"/>
<path d="M158.076 146.569C157.354 146.569 156.633 146.137 156.199 145.418L113.613 69.185C113.324 68.7535 113.324 68.0343 113.468 67.6028C113.613 67.0274 114.046 66.5959 114.479 66.3083C114.912 66.0206 115.634 66.0206 116.067 66.1644C116.644 66.3083 117.077 66.7398 117.366 67.1713L159.808 143.548C160.097 143.98 160.097 144.699 159.953 145.13C159.809 145.706 159.375 146.137 158.942 146.425C158.798 146.569 158.509 146.569 158.076 146.569ZM115.489 67.4589C115.345 67.4589 115.201 67.4589 115.201 67.6028C115.056 67.7466 114.912 67.8905 114.912 68.0343C114.912 68.1781 114.912 68.4658 114.912 68.6096L157.354 144.986C157.499 145.274 157.932 145.418 158.365 145.274C158.509 145.13 158.654 144.986 158.654 144.843C158.654 144.699 158.654 144.411 158.654 144.267L116.211 67.8905C116.067 67.7466 115.923 67.6028 115.778 67.6028C115.634 67.4589 115.634 67.4589 115.489 67.4589Z" fill="#495747"/>
<path d="M46.6287 55.6644H45.1851V144.411H46.6287V55.6644Z" fill="#495747"/>
<path d="M45.907 145.849C45.0408 145.849 44.4634 145.274 44.4634 144.411V55.6644C44.4634 54.8014 45.0408 54.2261 45.907 54.2261C46.7732 54.2261 47.3506 54.8014 47.3506 55.6644V144.411C47.3506 145.274 46.6288 145.849 45.907 145.849Z" fill="#495747"/>
<path d="M45.9069 146.568C44.752 146.568 43.7415 145.562 43.7415 144.411V55.6644C43.7415 54.5137 44.752 53.5068 45.9069 53.5068C47.0618 53.5068 48.0723 54.5137 48.0723 55.6644V144.411C48.0723 145.705 47.0618 146.568 45.9069 146.568ZM45.9069 54.9452C45.4738 54.9452 45.1851 55.2329 45.1851 55.6644V144.411C45.1851 144.842 45.4738 145.13 45.9069 145.13C46.34 145.13 46.6287 144.842 46.6287 144.411V55.6644C46.6287 55.2329 46.1956 54.9452 45.9069 54.9452Z" fill="#495747"/>
<path d="M61.6426 74.7945C61.2095 74.7945 60.7764 74.6506 60.4877 74.2191L45.9071 56.3835L31.1822 74.2191C30.7491 74.7945 29.7386 74.9383 29.1611 74.363C28.5837 73.7876 28.4393 72.9246 29.0168 72.3493L45.9071 51.7808L62.7974 72.3493C63.2305 72.9246 63.2305 73.9315 62.6531 74.363C62.3644 74.6506 62.0756 74.7945 61.6426 74.7945Z" fill="#495747"/>
<path d="M61.6425 75.5137C60.9207 75.5137 60.3433 75.226 59.9102 74.7945L45.7627 57.5342L31.6152 74.7945C31.1822 75.226 30.7491 75.5137 30.1716 75.5137C29.5942 75.5137 29.0167 75.3698 28.5836 75.0821C27.7175 74.363 27.5731 72.9246 28.2949 72.0616L45.7627 50.7739L63.3749 71.9178C64.0967 72.7808 63.9523 74.2191 63.0861 74.9383C62.653 75.3698 62.22 75.5137 61.6425 75.5137ZM45.9071 55.2328L61.2094 73.7876C61.3538 74.0753 61.7869 74.2191 62.22 73.9315C62.5087 73.6438 62.5087 73.2123 62.3643 72.9246L45.9071 52.9315L29.4498 72.9246C29.1611 73.2123 29.3055 73.6438 29.5942 73.9315C29.7385 74.0753 29.8829 74.0753 30.1716 74.0753C30.316 74.0753 30.6047 73.9315 30.6047 73.7876L45.9071 55.2328Z" fill="#495747"/>
<path d="M65.5401 95.6507C65.1071 95.6507 64.674 95.5068 64.3852 95.0753L45.9069 72.4931L27.2843 95.0753C26.8512 95.6507 25.8406 95.7945 25.2632 95.2191C24.6857 94.7876 24.5414 93.7808 25.1188 93.2055L45.9069 67.8904L66.695 93.2055C67.1281 93.7808 67.1281 94.7876 66.5507 95.2191C66.262 95.5068 65.8289 95.6507 65.5401 95.6507Z" fill="#495747"/>
<path d="M26.1295 96.3698C25.6964 96.3698 25.1189 96.226 24.8302 95.9383C24.3971 95.5068 24.1084 95.0753 24.1084 94.5C24.1084 93.9246 24.2528 93.3493 24.5415 92.9178L45.907 66.8835L67.2726 92.9178C67.9944 93.7808 67.85 95.2192 66.9839 95.9383C66.1177 96.6575 64.6741 96.5137 63.9523 95.6507L45.907 73.6438L27.8618 95.5068C27.4287 95.9383 26.9956 96.226 26.4182 96.226C26.2738 96.3698 26.2738 96.3698 26.1295 96.3698ZM45.907 69.1849L25.6964 93.7808C25.552 93.9246 25.552 94.0685 25.552 94.3561C25.552 94.5 25.6964 94.7877 25.8407 94.7877C25.9851 94.9315 26.1295 94.9315 26.4182 94.9315C26.5625 94.9315 26.8513 94.7877 26.8513 94.6438L46.0514 71.3424L64.9628 94.6438C65.1072 94.9315 65.5402 95.0753 65.9733 94.7877C66.2621 94.5 66.2621 94.0685 66.1177 93.7808L45.907 69.1849Z" fill="#495747"/>
<path d="M67.561 115.788C67.1279 115.788 66.6949 115.644 66.4061 115.212L45.9068 90.1849L25.263 115.212C24.8299 115.788 23.8194 115.931 23.2419 115.356C22.6645 114.925 22.5201 113.918 23.0976 113.342L45.9068 85.5822L68.7159 113.342C69.149 113.918 69.149 114.925 68.5716 115.356C68.2828 115.644 67.9941 115.788 67.561 115.788Z" fill="#495747"/>
<path d="M24.1082 116.507C23.6751 116.507 23.0977 116.363 22.809 116.075C22.3759 115.644 22.0872 115.212 22.0872 114.637C22.0872 114.062 22.2315 113.486 22.5202 113.055L45.9069 84.5753L69.2935 112.911C69.7266 113.342 69.8709 113.918 69.7266 114.493C69.7266 115.068 69.4378 115.644 69.0048 115.931C68.1386 116.651 66.695 116.507 65.9732 115.644L45.9069 91.1918L25.8406 115.644C25.4075 116.075 24.9744 116.363 24.3969 116.363C24.2526 116.507 24.2526 116.507 24.1082 116.507ZM45.9069 86.7329L23.5308 113.774C23.2421 114.062 23.3864 114.493 23.6751 114.781C23.8195 114.925 23.9639 114.925 24.2526 114.925C24.3969 114.925 24.6857 114.781 24.6857 114.637L45.9069 88.8904L67.1281 114.637C67.2724 114.925 67.7055 115.068 68.1386 114.781C68.4273 114.493 68.4273 114.062 68.283 113.774L45.9069 86.7329Z" fill="#495747"/>
<path d="M119.243 76.8081V111.616L116.789 113.774L100.043 127.726L101.486 144.411L119.243 111.616" fill="#495747"/>
<path d="M100.909 147L99.1765 127.438L116.211 113.342L118.521 111.329V76.8081H119.965V111.904L119.82 112.048L100.909 147ZM100.765 128.014L102.064 141.966L116.789 114.637L100.765 128.014Z" fill="#495747"/>
<path d="M101.486 145.849C101.342 145.849 101.342 145.849 101.198 145.849C100.62 145.705 100.043 145.13 100.043 144.555L98.5991 127.726C98.5991 127.295 98.7435 126.863 99.1766 126.432L117.944 110.753V76.8082C117.944 75.9452 118.521 75.3699 119.387 75.3699C120.253 75.3699 120.831 75.9452 120.831 76.8082V111.616C120.831 111.904 120.831 112.048 120.686 112.336L102.93 145.274C102.497 145.705 102.064 145.849 101.486 145.849ZM101.486 128.301L102.497 139.521L114.335 117.658L101.486 128.301Z" fill="#495747"/>
<path d="M101.486 146.568C101.342 146.568 101.198 146.568 101.053 146.568C100.187 146.425 99.4652 145.562 99.3208 144.699L97.8772 127.87C97.8772 127.151 98.1659 126.431 98.599 126L117.077 110.61V76.8082C117.077 75.6575 118.088 74.6506 119.243 74.6506C120.398 74.6506 121.408 75.6575 121.408 76.8082V111.616C121.408 111.904 121.264 112.336 121.119 112.623L103.363 145.562C103.074 146.137 102.352 146.568 101.486 146.568ZM119.243 76.089C118.81 76.089 118.521 76.3767 118.521 76.8082V111.329L99.6095 127.151C99.4652 127.294 99.3208 127.582 99.3208 127.726L100.764 144.555C100.764 144.842 101.053 145.13 101.342 145.13C101.631 145.13 101.919 144.986 102.064 144.699L119.82 111.904C119.82 111.76 119.965 111.616 119.965 111.616V76.8082C119.965 76.3767 119.676 76.089 119.243 76.089ZM102.064 141.966L100.764 128.014L116.789 114.781L102.064 141.966ZM102.208 128.589L102.93 137.075L111.88 120.534L102.208 128.589Z" fill="#495747"/>
<path d="M119.243 111.616L121.697 113.774L138.587 128.158L136.999 144.411L119.243 111.616Z" fill="#495747"/>
<path d="M137.432 146.856L116.644 108.452L122.13 113.342L139.309 127.87L137.432 146.856ZM121.697 114.781L136.422 142.11L137.865 128.445L121.697 114.781Z" fill="#495747"/>
<path d="M136.999 145.849C136.422 145.849 135.989 145.562 135.7 145.13L117.943 112.336C117.655 111.76 117.799 110.897 118.377 110.466C118.954 110.034 119.676 110.034 120.253 110.466L122.707 112.623L139.598 127.007C139.886 127.294 140.175 127.726 140.031 128.301L138.298 144.699C138.298 145.274 137.721 145.849 137.144 145.993C137.144 145.849 137.144 145.849 136.999 145.849ZM124.151 117.801L135.989 139.664L137.144 128.733L124.151 117.801Z" fill="#495747"/>
<path d="M136.999 146.568C136.133 146.568 135.411 146.137 135.122 145.418L117.366 112.623C116.933 111.76 117.077 110.61 117.943 109.89C118.809 109.171 119.964 109.315 120.686 109.89L123.14 112.048L140.031 126.575C140.608 127.007 140.897 127.726 140.752 128.445L139.02 144.842C138.876 145.849 138.154 146.568 137.288 146.712C137.288 146.568 137.143 146.568 136.999 146.568ZM119.243 110.897C119.098 110.897 118.954 110.897 118.81 111.041C118.521 111.329 118.521 111.616 118.665 111.904L136.422 144.842C136.566 145.13 136.999 145.274 137.143 145.274C137.432 145.274 137.721 144.986 137.721 144.699L139.453 128.301C139.453 128.014 139.453 127.87 139.165 127.726L119.676 111.041C119.531 110.897 119.387 110.897 119.243 110.897ZM136.566 142.11L121.841 114.781L138.01 128.445L136.566 142.11ZM126.605 120.822L135.555 137.219L136.422 129.021L126.605 120.822Z" fill="#495747"/>
<path d="M122.958 67.7598L118.808 75.0052L120.061 75.7182L124.212 68.4728L122.958 67.7598Z" fill="#495747"/>
<path d="M119.387 76.8083C119.099 76.8083 118.954 76.8083 118.666 76.6645C117.944 76.233 117.799 75.37 118.088 74.6508L122.275 67.459C122.708 66.7398 123.574 66.596 124.296 66.8837C125.018 67.3152 125.162 68.1782 124.873 68.8974L120.687 76.0891C120.398 76.6645 119.965 76.8083 119.387 76.8083Z" fill="#495747"/>
<path d="M119.387 77.5274C118.954 77.5274 118.666 77.3836 118.377 77.2398C117.944 76.9521 117.511 76.5206 117.366 75.9452C117.222 75.3699 117.222 74.7946 117.511 74.3631L121.697 67.1713C121.986 66.7398 122.419 66.3083 122.996 66.1644C123.574 66.0206 124.151 66.0206 124.584 66.3083C125.017 66.5959 125.451 67.0274 125.595 67.6028C125.739 68.1781 125.739 68.7535 125.451 69.185L121.264 76.3768C120.975 77.0959 120.254 77.5274 119.387 77.5274ZM123.574 67.4589H123.43C123.285 67.4589 123.141 67.6028 122.996 67.7466L118.81 74.9384C118.666 75.0822 118.666 75.3699 118.81 75.5137C118.954 75.6576 118.954 75.8014 119.099 75.9452C119.387 76.0891 119.965 75.9452 120.109 75.6576L124.296 68.4658C124.44 68.322 124.44 68.0343 124.296 67.8905C124.151 67.7466 124.151 67.6028 124.007 67.6028C123.863 67.4589 123.718 67.4589 123.574 67.4589Z" fill="#495747"/>
<path d="M180.019 77.5275L175.111 68.7535C174.678 68.0343 174.966 67.1713 175.688 66.7398C176.41 66.3083 177.276 66.596 177.709 67.3151L180.163 71.774L183.051 67.1713C183.484 66.4521 184.35 66.3083 185.072 66.7398C185.793 67.1713 185.938 68.0343 185.505 68.7535L180.019 77.5275Z" fill="#495747"/>
<path d="M179.875 78.9658L174.389 69.1849C173.812 68.1781 174.245 66.8836 175.255 66.3082C176.266 65.7329 177.565 66.1644 178.142 67.1712L180.019 70.6233L182.185 67.1712C182.762 66.1644 184.206 65.8767 185.216 66.4521C186.227 67.0274 186.515 68.4658 185.938 69.4726L179.875 78.9658ZM176.266 67.4589C176.121 67.4589 175.977 67.4589 175.977 67.6028C175.688 67.7466 175.544 68.1781 175.688 68.6096L180.019 76.2329L184.783 68.6096C184.927 68.3219 184.927 67.8904 184.494 67.6028C184.206 67.4589 183.773 67.4589 183.484 67.8904L180.019 73.5L176.843 68.0343C176.843 67.6028 176.554 67.4589 176.266 67.4589Z" fill="#495747"/>
<path d="M96.7227 14.096C95.8565 14.096 95.2791 13.5206 95.2791 12.6576V2.15759C95.2791 1.29458 95.8565 0.719238 96.7227 0.719238C97.5888 0.719238 98.1663 1.29458 98.1663 2.15759V12.6576C98.1663 13.5206 97.5888 14.096 96.7227 14.096Z" fill="#495747"/>
<path d="M96.7226 14.8151C95.5677 14.8151 94.5571 13.8082 94.5571 12.6575V2.15753C94.5571 1.00685 95.5677 0 96.7226 0C97.8775 0 98.888 1.00685 98.888 2.15753V12.6575C98.888 13.9521 98.0218 14.8151 96.7226 14.8151ZM96.7226 1.43836C96.2895 1.43836 96.0007 1.72603 96.0007 2.15753V12.6575C96.0007 13.089 96.2895 13.3767 96.7226 13.3767C97.1556 13.3767 97.4444 13.089 97.4444 12.6575V2.15753C97.4444 1.72603 97.1556 1.43836 96.7226 1.43836Z" fill="#495747"/>
<path d="M96.7227 64.7261C95.8565 64.7261 95.2791 64.1507 95.2791 63.2877V52.7877C95.2791 51.9247 95.8565 51.3494 96.7227 51.3494C97.5888 51.3494 98.1663 51.9247 98.1663 52.7877V63.2877C98.1663 64.1507 97.5888 64.7261 96.7227 64.7261Z" fill="#495747"/>
<path d="M96.7226 65.4452C95.5677 65.4452 94.5571 64.4383 94.5571 63.2877V52.7877C94.5571 51.637 95.5677 50.6301 96.7226 50.6301C97.8775 50.6301 98.888 51.637 98.888 52.7877V63.2877C98.888 64.5822 98.0218 65.4452 96.7226 65.4452ZM96.7226 52.0685C96.2895 52.0685 96.0007 52.3562 96.0007 52.7877V63.2877C96.0007 63.7192 96.2895 64.0068 96.7226 64.0068C97.1556 64.0068 97.4444 63.7192 97.4444 63.2877V52.7877C97.4444 52.3562 97.1556 52.0685 96.7226 52.0685Z" fill="#495747"/>
<path d="M127.039 34.2329H116.5C115.634 34.2329 115.057 33.6576 115.057 32.7946C115.057 31.9315 115.634 31.3562 116.5 31.3562H127.039C127.905 31.3562 128.482 31.9315 128.482 32.7946C128.482 33.6576 127.76 34.2329 127.039 34.2329Z" fill="#495747"/>
<path d="M127.039 34.952H116.5C115.345 34.952 114.335 33.9452 114.335 32.7945C114.335 31.6438 115.345 30.637 116.5 30.637H127.039C128.193 30.637 129.204 31.6438 129.204 32.7945C129.204 33.9452 128.193 34.952 127.039 34.952ZM116.356 32.0753C115.923 32.0753 115.634 32.363 115.634 32.7945C115.634 33.226 115.923 33.5137 116.356 33.5137H127.039C127.472 33.5137 127.76 33.226 127.76 32.7945C127.76 32.363 127.472 32.0753 127.039 32.0753H116.356Z" fill="#495747"/>
<path d="M76.0787 34.2329H65.5403C64.6741 34.2329 64.0967 33.6576 64.0967 32.7946C64.0967 31.9315 64.6741 31.3562 65.5403 31.3562H76.0787C76.9449 31.3562 77.5223 31.9315 77.5223 32.7946C77.5223 33.6576 76.9449 34.2329 76.0787 34.2329Z" fill="#495747"/>
<path d="M76.0786 34.952H65.5402C64.3853 34.952 63.3748 33.9452 63.3748 32.7945C63.3748 31.6438 64.3853 30.637 65.5402 30.637H76.0786C77.2335 30.637 78.244 31.6438 78.244 32.7945C78.244 33.9452 77.3779 34.952 76.0786 34.952ZM65.5402 32.0753C65.1071 32.0753 64.8184 32.363 64.8184 32.7945C64.8184 33.226 65.1071 33.5137 65.5402 33.5137H76.0786C76.5117 33.5137 76.8004 33.226 76.8004 32.7945C76.8004 32.363 76.5117 32.0753 76.0786 32.0753H65.5402Z" fill="#495747"/>
<path d="M111.159 20.4246C110.726 20.4246 110.437 20.2808 110.148 19.9931C109.571 19.4178 109.571 18.5548 110.148 17.9794L117.655 10.5C118.232 9.92465 119.099 9.92465 119.676 10.5C120.253 11.0753 120.253 11.9383 119.676 12.5137L112.169 19.9931C111.881 20.2808 111.592 20.4246 111.159 20.4246Z" fill="#495747"/>
<path d="M111.159 21.1439C110.581 21.1439 110.004 20.8562 109.571 20.5685C108.705 19.7055 108.705 18.411 109.571 17.548L117.078 10.0685C117.944 9.20551 119.243 9.20551 120.109 10.0685C120.975 10.9315 120.975 12.2261 120.109 13.0891L112.602 20.5685C112.314 20.8562 111.736 21.1439 111.159 21.1439ZM118.666 10.7877C118.521 10.7877 118.232 10.7877 118.088 10.9315L110.581 18.411C110.293 18.6987 110.293 19.1302 110.581 19.4178C110.87 19.7055 111.303 19.7055 111.592 19.4178L119.099 11.9384C119.387 11.6507 119.387 11.2192 119.099 10.9315C119.099 10.7877 118.81 10.7877 118.666 10.7877Z" fill="#495747"/>
<path d="M75.2124 56.2397C74.7793 56.2397 74.4906 56.0959 74.2019 55.8082C73.6244 55.2329 73.6244 54.3698 74.2019 53.7945L81.7087 46.3151C82.2861 45.7397 83.1523 45.7397 83.7298 46.3151C84.3072 46.8904 84.3072 47.7534 83.7298 48.3287L76.2229 55.8082C75.9342 56.0959 75.6455 56.2397 75.2124 56.2397Z" fill="#495747"/>
<path d="M75.2125 56.9589C74.635 56.9589 74.0576 56.6713 73.6245 56.3836C72.7583 55.5206 72.7583 54.226 73.6245 53.363L81.1313 45.8836C81.9975 45.0206 83.2967 45.0206 84.1629 45.8836C85.0291 46.7466 85.0291 48.0411 84.1629 48.9041L76.6561 56.3836C76.3674 56.6713 75.7899 56.9589 75.2125 56.9589ZM82.7193 46.6028C82.5749 46.6028 82.2862 46.6028 82.1418 46.7466L74.635 54.2261C74.3463 54.5137 74.3463 54.9452 74.635 55.2329C74.9237 55.5206 75.3568 55.5206 75.6455 55.2329L83.1524 47.7535C83.4411 47.4658 83.4411 47.0343 83.1524 46.7466C83.1524 46.6028 82.8636 46.6028 82.7193 46.6028Z" fill="#495747"/>
<path d="M118.377 55.8082C117.944 55.8082 117.655 55.6644 117.366 55.3767L109.859 47.8972C109.282 47.3219 109.282 46.4589 109.859 45.8835C110.437 45.3082 111.303 45.3082 111.88 45.8835L119.387 53.363C119.965 53.9383 119.965 54.8013 119.387 55.3767C119.099 55.6644 118.665 55.8082 118.377 55.8082Z" fill="#495747"/>
<path d="M118.377 56.5274C117.799 56.5274 117.222 56.2397 116.789 55.9521L109.282 48.4726C108.416 47.6096 108.416 46.3151 109.282 45.4521C110.148 44.5891 111.447 44.5891 112.314 45.4521L119.82 52.9315C120.687 53.7945 120.687 55.0891 119.82 55.9521C119.387 56.2397 118.954 56.5274 118.377 56.5274ZM110.87 46.1712C110.726 46.1712 110.437 46.1712 110.292 46.3151C110.004 46.6028 110.004 47.0343 110.292 47.3219L117.799 54.8014C118.088 55.0891 118.521 55.0891 118.81 54.8014C119.099 54.5137 119.099 54.0822 118.81 53.7945L111.303 46.3151C111.159 46.3151 111.014 46.1712 110.87 46.1712Z" fill="#495747"/>
<path d="M82.4307 19.9931C81.9976 19.9931 81.7089 19.8493 81.4201 19.5616L73.9133 12.0822C73.3359 11.5068 73.3359 10.6438 73.9133 10.0685C74.4908 9.49313 75.3569 9.49313 75.9344 10.0685L83.4412 17.5479C84.0186 18.1233 84.0186 18.9863 83.4412 19.5616C83.1525 19.8493 82.7194 19.9931 82.4307 19.9931Z" fill="#495747"/>
<path d="M82.4307 20.7123C81.8533 20.7123 81.2758 20.4247 80.8427 20.137L73.3359 12.6576C72.4697 11.7945 72.4697 10.5 73.3359 9.63701C74.2021 8.77399 75.5013 8.77399 76.3675 9.63701L83.8743 17.1165C84.7405 17.9795 84.7405 19.274 83.8743 20.137C83.4412 20.5685 83.0082 20.7123 82.4307 20.7123ZM74.9239 10.3562C74.7795 10.3562 74.4908 10.3562 74.3464 10.5C74.0577 10.7877 74.0577 11.2192 74.3464 11.5069L81.8533 18.9863C82.142 19.274 82.5751 19.274 82.8638 18.9863C83.1525 18.6987 83.1525 18.2671 82.8638 17.9795L75.357 10.5C75.2126 10.5 75.0683 10.3562 74.9239 10.3562Z" fill="#495747"/>
</svg>
