<svg width="303" height="166" viewBox="0 0 303 166" fill="none" xmlns="http://www.w3.org/2000/svg">
<path d="M20.7179 149.67L15.7347 160H13.0399L11.1578 155.402L8.71967 160H6.02487L2.83817 152.258L0.763602 151.06V149.862L5.49019 148.066L6.30291 151.295L8.63412 156.963L10.3665 153.498L9.87459 152.279L7.77863 151.06V149.862L12.5052 148.066L13.3179 151.295L15.6278 156.856L17.852 152.001L14.6653 149.862L15.3711 148.472H20.7179V149.67ZM28.8409 148.258C30.338 148.258 31.493 148.829 32.3057 149.969C33.1326 151.11 33.5319 152.693 33.5034 154.717H25.8039C25.9465 155.587 26.2531 156.286 26.7236 156.813C27.1941 157.327 27.8072 157.583 28.5629 157.583C29.561 157.583 30.9939 157.084 32.8617 156.086L33.5034 157.305L30.2525 159.893C29.4113 160.107 28.4346 160.214 27.3224 160.214C26.2816 160.214 25.3405 159.971 24.4993 159.487C23.6723 158.988 23.0236 158.31 22.5531 157.455C22.0968 156.599 21.8687 155.651 21.8687 154.61C21.8687 153.484 22.2323 152.436 22.9594 151.466C23.6866 150.483 24.592 149.706 25.6756 149.135C26.7735 148.551 27.8286 148.258 28.8409 148.258ZM27.6646 150.739C27.0373 150.739 26.5667 150.953 26.2531 151.381C25.9394 151.794 25.7683 152.436 25.7398 153.306H29.8247C29.7107 152.422 29.4968 151.773 29.1831 151.36C28.8837 150.946 28.3704 150.739 27.6432 150.739H27.6646ZM41.893 160H35.1346V158.802L37.0381 157.198V145.499L35.1346 144.238V143.04L39.3265 141.329H40.6739V157.968L42.5988 158.61L41.893 160ZM50.7195 148.258C51.3896 148.258 52.1667 148.344 53.0507 148.515C53.9347 148.672 54.5763 148.85 54.9755 149.05V153.028H53.6281C53.0863 152.301 52.4732 151.737 51.7888 151.338C51.1044 150.939 50.3915 150.739 49.6501 150.739C49.1225 150.739 48.7162 150.989 48.431 151.488C48.1601 151.973 48.0247 152.671 48.0247 153.584C48.0247 154.739 48.267 155.694 48.7518 156.45C49.2509 157.205 49.9566 157.583 50.8692 157.583C51.7959 157.583 53.1291 157.134 54.8686 156.236L55.5102 157.455L52.4304 159.893C51.6177 160.107 50.6838 160.214 49.6287 160.214C48.5879 160.214 47.6468 159.971 46.8056 159.487C45.9786 158.988 45.3299 158.31 44.8593 157.455C44.4031 156.599 44.1749 155.651 44.1749 154.61C44.1749 153.484 44.51 152.436 45.1801 151.466C45.8645 150.483 46.72 149.706 47.7466 149.135C48.7732 148.551 49.7642 148.258 50.7195 148.258ZM64.7858 148.258C65.8409 148.258 66.7819 148.508 67.6089 149.007C68.4359 149.492 69.0775 150.162 69.5337 151.017C70.0043 151.873 70.2395 152.821 70.2395 153.862C70.2395 154.988 69.8759 156.043 69.1488 157.027C68.4216 157.997 67.5091 158.774 66.4112 159.358C65.3276 159.929 64.2796 160.214 63.2673 160.214C62.2264 160.214 61.2854 159.971 60.4441 159.487C59.6172 158.988 58.9684 158.31 58.4979 157.455C58.0416 156.599 57.8135 155.651 57.8135 154.61C57.8135 153.484 58.1771 152.436 58.9043 151.466C59.6314 150.483 60.5368 149.706 61.6205 149.135C62.7183 148.551 63.7734 148.258 64.7858 148.258ZM63.5453 150.739C62.9465 150.739 62.4902 150.982 62.1765 151.466C61.8771 151.937 61.7274 152.643 61.7274 153.584C61.7274 154.782 61.9698 155.78 62.4546 156.578C62.9393 157.362 63.6237 157.754 64.5077 157.754C65.0923 157.754 65.5343 157.512 65.8337 157.027C66.1474 156.528 66.3043 155.808 66.3043 154.867C66.3043 153.669 66.0619 152.686 65.5771 151.916C65.0923 151.131 64.4151 150.739 63.5453 150.739ZM92.9804 160H88.1041V152.899C88.1041 152.315 88.0114 151.908 87.8261 151.68C87.655 151.438 87.3341 151.317 86.8636 151.317C86.165 151.317 85.4806 151.559 84.8104 152.044V158.011L86.607 158.61L85.9226 160H81.1746V152.899C81.1746 152.315 81.0819 151.908 80.8966 151.68C80.7255 151.438 80.4047 151.317 79.9341 151.317C79.2355 151.317 78.5582 151.559 77.9024 152.044V158.011L79.6775 158.61L78.9931 160H72.363V158.802L74.2665 157.198V152.343L72.363 151.146V149.948L76.8116 148.066L77.6457 150.547L80.2122 148.429C80.5544 148.315 80.9465 148.258 81.3885 148.258C82.2297 148.258 82.9355 148.458 83.5058 148.857C84.0904 149.242 84.4825 149.777 84.6821 150.461L87.163 148.429C87.5052 148.315 87.8973 148.258 88.3393 148.258C89.3802 148.258 90.2072 148.558 90.8203 149.157C91.4476 149.741 91.7613 150.54 91.7613 151.552V157.968L93.6648 158.61L92.9804 160ZM102.046 148.258C103.544 148.258 104.698 148.829 105.511 149.969C106.338 151.11 106.737 152.693 106.709 154.717H99.0094C99.152 155.587 99.4586 156.286 99.9291 156.813C100.4 157.327 101.013 157.583 101.768 157.583C102.766 157.583 104.199 157.084 106.067 156.086L106.709 157.305L103.458 159.893C102.617 160.107 101.64 160.214 100.528 160.214C99.4871 160.214 98.546 159.971 97.7048 159.487C96.8778 158.988 96.2291 158.31 95.7586 157.455C95.3023 156.599 95.0742 155.651 95.0742 154.61C95.0742 153.484 95.4378 152.436 96.1649 151.466C96.8921 150.483 97.7975 149.706 98.8811 149.135C99.979 148.551 101.034 148.258 102.046 148.258ZM100.87 150.739C100.243 150.739 99.7722 150.953 99.4586 151.381C99.1449 151.794 98.9738 152.436 98.9453 153.306H103.03C102.916 152.422 102.702 151.773 102.389 151.36C102.089 150.946 101.576 150.739 100.849 150.739H100.87ZM116.101 160.043C115.616 160.157 115.038 160.214 114.368 160.214C113 160.214 111.994 159.907 111.353 159.294C110.725 158.667 110.412 157.704 110.412 156.407V150.525H108.102V149.392L112.7 144.387H114.048V149.114H117.897V150.525H114.048V156.257C114.048 157.241 114.604 157.733 115.716 157.733C116.001 157.733 116.279 157.69 116.55 157.605C116.835 157.505 117.191 157.341 117.619 157.113L118.261 158.332L116.101 160.043ZM126.379 148.258C127.434 148.258 128.375 148.508 129.202 149.007C130.029 149.492 130.67 150.162 131.127 151.017C131.597 151.873 131.832 152.821 131.832 153.862C131.832 154.988 131.469 156.043 130.742 157.027C130.014 157.997 129.102 158.774 128.004 159.358C126.92 159.929 125.872 160.214 124.86 160.214C123.819 160.214 122.878 159.971 122.037 159.487C121.21 158.988 120.561 158.31 120.091 157.455C119.635 156.599 119.406 155.651 119.406 154.61C119.406 153.484 119.77 152.436 120.497 151.466C121.224 150.483 122.13 149.706 123.213 149.135C124.311 148.551 125.366 148.258 126.379 148.258ZM125.138 150.739C124.539 150.739 124.083 150.982 123.769 151.466C123.47 151.937 123.32 152.643 123.32 153.584C123.32 154.782 123.563 155.78 124.047 156.578C124.532 157.362 125.217 157.754 126.101 157.754C126.685 157.754 127.127 157.512 127.427 157.027C127.74 156.528 127.897 155.808 127.897 154.867C127.897 153.669 127.655 152.686 127.17 151.916C126.685 151.131 126.008 150.739 125.138 150.739ZM154.573 160H149.697V152.899C149.697 152.315 149.604 151.908 149.419 151.68C149.248 151.438 148.927 151.317 148.456 151.317C147.758 151.317 147.073 151.559 146.403 152.044V158.011L148.2 158.61L147.515 160H142.767V152.899C142.767 152.315 142.675 151.908 142.489 151.68C142.318 151.438 141.998 151.317 141.527 151.317C140.828 151.317 140.151 151.559 139.495 152.044V158.011L141.27 158.61L140.586 160H133.956V158.802L135.859 157.198V152.343L133.956 151.146V149.948L138.404 148.066L139.239 150.547L141.805 148.429C142.147 148.315 142.539 148.258 142.981 148.258C143.823 148.258 144.528 148.458 145.099 148.857C145.683 149.242 146.075 149.777 146.275 150.461L148.756 148.429C149.098 148.315 149.49 148.258 149.932 148.258C150.973 148.258 151.8 148.558 152.413 149.157C153.041 149.741 153.354 150.54 153.354 151.552V157.968L155.258 158.61L154.573 160ZM168.898 149.649L163.422 159.979L158.396 165.625L157.049 164.577C158.104 163.308 158.846 162.217 159.273 161.305C159.701 160.406 159.943 159.373 160 158.203L157.541 152.258L155.466 151.06V149.862L160.193 148.066L161.006 151.295L163.337 156.984L165.925 151.937L162.866 149.862L163.551 148.472L168.898 148.451V149.649ZM180.882 150.547C181.125 151.003 181.246 151.488 181.246 152.001C181.246 152.871 180.875 153.712 180.134 154.525C179.407 155.323 178.501 155.929 177.418 156.343C177.047 156.771 176.861 157.198 176.861 157.626C176.861 157.826 177.018 158.025 177.332 158.225C177.646 158.41 178.138 158.653 178.808 158.952C179.792 159.38 180.547 159.772 181.075 160.128C181.602 160.499 181.866 160.927 181.866 161.412C181.866 161.868 181.581 162.431 181.011 163.101C180.44 163.786 179.727 164.377 178.872 164.876C178.031 165.39 177.211 165.646 176.412 165.646C175.543 165.646 174.509 165.511 173.311 165.24C172.114 164.969 171.115 164.698 170.317 164.427V160.599H171.664C172.363 161.54 173.069 162.253 173.782 162.738C174.509 163.237 175.329 163.486 176.241 163.486C176.712 163.486 177.104 163.379 177.418 163.165C177.745 162.966 177.909 162.752 177.909 162.524C177.909 162.196 177.717 161.903 177.332 161.647C176.961 161.404 176.384 161.105 175.6 160.749C174.758 160.378 174.124 160.05 173.696 159.765C173.268 159.465 173.055 159.123 173.055 158.738C173.055 158.396 173.311 158.047 173.824 157.69C174.352 157.334 174.979 157.02 175.707 156.749C175.421 156.778 175.208 156.792 175.065 156.792C174.195 156.792 173.397 156.621 172.67 156.279C171.957 155.936 171.393 155.48 170.98 154.91C170.566 154.325 170.36 153.705 170.36 153.049C170.36 152.236 170.659 151.459 171.258 150.718C171.857 149.976 172.634 149.385 173.589 148.943C174.545 148.487 175.521 148.258 176.519 148.258C177.66 148.258 178.665 148.544 179.535 149.114H183.064L183.085 150.547H180.882ZM176.327 154.354C176.783 154.354 177.132 154.247 177.375 154.033C177.631 153.805 177.76 153.47 177.76 153.028C177.76 152.329 177.532 151.78 177.075 151.381C176.633 150.967 176.042 150.761 175.3 150.761C174.359 150.761 173.889 151.181 173.889 152.023C173.889 152.707 174.11 153.27 174.552 153.712C175.008 154.14 175.6 154.354 176.327 154.354ZM195.964 160H191.088V158.139L188.671 160.043C188.386 160.157 188.029 160.214 187.601 160.214C186.233 160.214 185.242 159.879 184.629 159.209C184.03 158.539 183.73 157.733 183.73 156.792C183.73 156.236 183.901 155.694 184.244 155.166C184.586 154.625 185.078 154.126 185.719 153.669H191.088V153.306C191.088 152.522 190.874 151.944 190.446 151.573C190.018 151.203 189.448 151.017 188.735 151.017C187.737 151.017 186.432 151.409 184.821 152.194L184.179 150.975L187.152 148.579C187.879 148.365 188.728 148.258 189.697 148.258C191.294 148.258 192.528 148.622 193.397 149.349C194.281 150.076 194.723 151.131 194.723 152.514V157.861L196.648 158.61L195.964 160ZM188.692 157.348C189.419 157.348 190.218 157.049 191.088 156.45V155.081H187.644C187.53 155.252 187.445 155.416 187.388 155.573C187.345 155.715 187.323 155.879 187.323 156.065C187.323 156.421 187.445 156.721 187.687 156.963C187.944 157.205 188.279 157.327 188.692 157.327V157.348ZM204.926 151.295C204.413 151.295 203.899 151.524 203.386 151.98V157.754L206.637 158.61L205.953 160H197.847V158.802L199.75 157.198V152.343L197.847 151.146V149.948L202.295 148.066L203.108 150.44L205.054 148.429C205.354 148.315 205.703 148.258 206.102 148.258C206.844 148.258 207.478 148.429 208.006 148.772C208.548 149.114 208.925 149.584 209.139 150.183L207.086 152.75H205.739C205.724 152.236 205.653 151.873 205.525 151.659C205.396 151.431 205.197 151.317 204.926 151.317V151.295ZM223.482 160H218.627V158.417L216.574 160.043C216.118 160.157 215.591 160.214 214.992 160.214C214.051 160.214 213.202 159.971 212.447 159.487C211.705 158.988 211.121 158.31 210.693 157.455C210.279 156.599 210.073 155.651 210.073 154.61C210.073 153.484 210.436 152.436 211.163 151.466C211.891 150.483 212.796 149.706 213.88 149.135C214.977 148.551 216.033 148.258 217.045 148.258C217.615 148.258 218.143 148.401 218.627 148.686V145.499L216.724 144.238V143.04L220.916 141.329H222.263V157.968L224.188 158.61L223.482 160ZM216.296 157.348C217.138 157.348 217.915 157.141 218.627 156.728V152.643C218.542 152.087 218.257 151.63 217.772 151.274C217.287 150.918 216.631 150.739 215.804 150.739C214.55 150.739 213.922 151.695 213.922 153.605C213.922 154.689 214.122 155.587 214.521 156.3C214.935 156.999 215.526 157.348 216.296 157.348ZM232.668 148.258C234.165 148.258 235.32 148.829 236.132 149.969C236.959 151.11 237.359 152.693 237.33 154.717H229.631C229.773 155.587 230.08 156.286 230.55 156.813C231.021 157.327 231.634 157.583 232.39 157.583C233.388 157.583 234.821 157.084 236.688 156.086L237.33 157.305L234.079 159.893C233.238 160.107 232.261 160.214 231.149 160.214C230.108 160.214 229.167 159.971 228.326 159.487C227.499 158.988 226.85 158.31 226.38 157.455C225.923 156.599 225.695 155.651 225.695 154.61C225.695 153.484 226.059 152.436 226.786 151.466C227.513 150.483 228.419 149.706 229.502 149.135C230.6 148.551 231.655 148.258 232.668 148.258ZM231.491 150.739C230.864 150.739 230.393 150.953 230.08 151.381C229.766 151.794 229.595 152.436 229.566 153.306H233.651C233.537 152.422 233.323 151.773 233.01 151.36C232.71 150.946 232.197 150.739 231.47 150.739H231.491ZM253.544 160H248.69V153.156C248.69 152.486 248.583 152.015 248.369 151.745C248.169 151.459 247.813 151.317 247.299 151.317C246.544 151.317 245.795 151.559 245.054 152.044V157.968L246.979 158.61L246.273 160H239.514V158.802L241.418 157.198V152.343L239.514 151.146V149.948L243.963 148.066L244.797 150.547L247.449 148.429C247.834 148.315 248.269 148.258 248.754 148.258C249.837 148.258 250.7 148.558 251.342 149.157C251.997 149.741 252.325 150.54 252.325 151.552V157.968L254.25 158.61L253.544 160ZM258.36 155.808C258.973 155.808 259.472 156.008 259.857 156.407C260.256 156.806 260.456 157.298 260.456 157.883C260.456 158.296 260.313 158.681 260.028 159.038C259.743 159.394 259.386 159.679 258.958 159.893C258.531 160.107 258.117 160.214 257.718 160.214C257.119 160.214 256.62 160.021 256.221 159.636C255.836 159.237 255.643 158.745 255.643 158.161C255.643 157.747 255.786 157.362 256.071 157.006C256.356 156.635 256.706 156.343 257.119 156.129C257.547 155.915 257.96 155.808 258.36 155.808ZM269.615 148.258C270.67 148.258 271.611 148.508 272.438 149.007C273.265 149.492 273.907 150.162 274.363 151.017C274.833 151.873 275.069 152.821 275.069 153.862C275.069 154.988 274.705 156.043 273.978 157.027C273.251 157.997 272.338 158.774 271.24 159.358C270.157 159.929 269.109 160.214 268.096 160.214C267.056 160.214 266.115 159.971 265.273 159.487C264.446 158.988 263.798 158.31 263.327 157.455C262.871 156.599 262.643 155.651 262.643 154.61C262.643 153.484 263.006 152.436 263.733 151.466C264.461 150.483 265.366 149.706 266.45 149.135C267.548 148.551 268.603 148.258 269.615 148.258ZM268.375 150.739C267.776 150.739 267.319 150.982 267.006 151.466C266.706 151.937 266.557 152.643 266.557 153.584C266.557 154.782 266.799 155.78 267.284 156.578C267.769 157.362 268.453 157.754 269.337 157.754C269.922 157.754 270.364 157.512 270.663 157.027C270.977 156.528 271.133 155.808 271.133 154.867C271.133 153.669 270.891 152.686 270.406 151.916C269.922 151.131 269.244 150.739 268.375 150.739ZM284.293 151.295C283.78 151.295 283.266 151.524 282.753 151.98V157.754L286.004 158.61L285.319 160H277.214V158.802L279.117 157.198V152.343L277.214 151.146V149.948L281.662 148.066L282.475 150.44L284.421 148.429C284.721 148.315 285.07 148.258 285.469 148.258C286.211 148.258 286.845 148.429 287.373 148.772C287.914 149.114 288.292 149.584 288.506 150.183L286.453 152.75H285.106C285.091 152.236 285.02 151.873 284.892 151.659C284.763 151.431 284.564 151.317 284.293 151.317V151.295ZM299.87 150.547C300.112 151.003 300.234 151.488 300.234 152.001C300.234 152.871 299.863 153.712 299.121 154.525C298.394 155.323 297.489 155.929 296.405 156.343C296.034 156.771 295.849 157.198 295.849 157.626C295.849 157.826 296.006 158.025 296.32 158.225C296.633 158.41 297.125 158.653 297.795 158.952C298.779 159.38 299.535 159.772 300.062 160.128C300.59 160.499 300.854 160.927 300.854 161.412C300.854 161.868 300.569 162.431 299.998 163.101C299.428 163.786 298.715 164.377 297.86 164.876C297.018 165.39 296.198 165.646 295.4 165.646C294.53 165.646 293.497 165.511 292.299 165.24C291.101 164.969 290.103 164.698 289.305 164.427V160.599H290.652C291.351 161.54 292.056 162.253 292.769 162.738C293.497 163.237 294.316 163.486 295.229 163.486C295.699 163.486 296.092 163.379 296.405 163.165C296.733 162.966 296.897 162.752 296.897 162.524C296.897 162.196 296.705 161.903 296.32 161.647C295.949 161.404 295.371 161.105 294.587 160.749C293.746 160.378 293.112 160.05 292.684 159.765C292.256 159.465 292.042 159.123 292.042 158.738C292.042 158.396 292.299 158.047 292.812 157.69C293.34 157.334 293.967 157.02 294.694 156.749C294.409 156.778 294.195 156.792 294.053 156.792C293.183 156.792 292.384 156.621 291.657 156.279C290.944 155.936 290.381 155.48 289.968 154.91C289.554 154.325 289.347 153.705 289.347 153.049C289.347 152.236 289.647 151.459 290.246 150.718C290.845 149.976 291.622 149.385 292.577 148.943C293.532 148.487 294.509 148.258 295.507 148.258C296.648 148.258 297.653 148.544 298.523 149.114H302.051L302.073 150.547H299.87ZM295.314 154.354C295.771 154.354 296.12 154.247 296.362 154.033C296.619 153.805 296.747 153.47 296.747 153.028C296.747 152.329 296.519 151.78 296.063 151.381C295.621 150.967 295.029 150.761 294.288 150.761C293.347 150.761 292.876 151.181 292.876 152.023C292.876 152.707 293.097 153.27 293.539 153.712C293.996 154.14 294.587 154.354 295.314 154.354Z" fill="#495747"/>
<g clip-path="url(#clip0)">
<path d="M134.005 38.9471C127.175 38.9471 121.658 33.8513 121.658 27.5421C121.658 21.2329 127.175 16.137 134.005 16.137C140.835 16.137 146.352 21.2329 146.352 27.5421C146.352 33.8513 140.835 38.9471 134.005 38.9471ZM134.005 18.6849C128.62 18.6849 124.285 22.6888 124.285 27.6634C124.285 32.6379 128.62 36.6419 134.005 36.6419C139.391 36.6419 143.725 32.6379 143.725 27.6634C143.725 22.6888 139.391 18.6849 134.005 18.6849Z" fill="#495747"/>
<path d="M134.005 39.5538C126.912 39.5538 121.001 34.2152 121.001 27.542C121.001 20.8688 126.78 15.5303 134.005 15.5303C141.098 15.5303 147.008 20.8688 147.008 27.542C147.008 34.2152 141.229 39.5538 134.005 39.5538ZM134.005 16.8649C127.569 16.8649 122.314 21.7181 122.314 27.6633C122.314 33.6086 127.569 38.4618 134.005 38.4618C140.441 38.4618 145.695 33.6086 145.695 27.6633C145.695 21.7181 140.441 16.8649 134.005 16.8649ZM134.005 37.1271C128.357 37.1271 123.628 32.8806 123.628 27.542C123.628 22.2035 128.225 17.9569 134.005 17.9569C139.653 17.9569 144.381 22.2035 144.381 27.542C144.381 32.8806 139.784 37.1271 134.005 37.1271ZM134.005 19.2915C129.013 19.2915 124.941 23.0528 124.941 27.6633C124.941 32.2739 129.013 36.0352 134.005 36.0352C138.996 36.0352 143.068 32.2739 143.068 27.6633C143.068 23.0528 138.996 19.2915 134.005 19.2915Z" fill="#495747"/>
<path d="M256.03 121.209H47.9707V122.423H256.03V121.209Z" fill="#495747"/>
<path d="M256.03 123.029H47.9707C47.1826 123.029 46.6572 122.544 46.6572 121.816C46.6572 121.088 47.1826 120.603 47.9707 120.603H256.03C256.818 120.603 257.344 121.088 257.344 121.816C257.344 122.544 256.818 123.029 256.03 123.029Z" fill="#495747"/>
<path d="M256.03 123.636H47.9703C46.9195 123.636 46 122.787 46 121.816C46 120.845 46.9195 119.996 47.9703 119.996H256.03C257.081 119.996 258 120.845 258 121.816C258 122.787 257.081 123.636 256.03 123.636ZM47.9703 121.209C47.5762 121.209 47.3135 121.452 47.3135 121.816C47.3135 122.18 47.5762 122.423 47.9703 122.423H256.03C256.424 122.423 256.686 122.18 256.686 121.816C256.686 121.452 256.424 121.209 256.03 121.209H47.9703Z" fill="#495747"/>
<path d="M248.806 123.029H117.455L137.026 91.8473L153.708 61.8787H210.583L248.806 123.029ZM122.052 120.603H244.208L209.007 64.3053H155.284L139.391 93.0607L122.052 120.603Z" fill="#495747"/>
<path d="M249.988 123.636H116.404L136.501 91.4833L153.314 61.1506H210.977L211.108 61.3933L249.988 123.636ZM118.637 122.423H247.624L210.189 62.4853H154.102L137.683 92.09L118.637 122.423ZM245.391 121.209H121.002L138.865 92.6966L155.021 63.6986H209.532L209.663 63.9412L245.391 121.209ZM123.235 119.996H243.158L208.744 64.7906H155.678L139.916 93.1819L123.235 119.996Z" fill="#495747"/>
<path d="M189.303 122.18L150.555 57.7534L151.737 57.2681L190.354 121.573L189.303 122.18Z" fill="#495747"/>
<path d="M189.829 123.029C189.304 123.029 188.91 122.787 188.647 122.423L150.03 58.1175C149.636 57.5108 149.899 56.7828 150.555 56.4188C151.212 56.0548 152 56.2975 152.394 56.9041L191.011 121.331C191.405 121.937 191.143 122.665 190.486 123.029C190.223 123.029 190.092 123.029 189.829 123.029Z" fill="#495747"/>
<path d="M189.829 123.636C189.172 123.636 188.515 123.272 188.121 122.665L149.373 58.3601C149.11 57.9961 149.11 57.3894 149.242 57.0254C149.373 56.5401 149.767 56.1761 150.161 55.9334C150.555 55.6908 151.212 55.6908 151.606 55.8121C152.131 55.9334 152.525 56.2974 152.788 56.6614L191.405 121.088C191.668 121.452 191.668 122.059 191.536 122.423C191.405 122.908 191.011 123.272 190.617 123.515C190.486 123.636 190.223 123.636 189.829 123.636ZM151.08 56.9041C150.949 56.9041 150.818 56.9041 150.818 57.0254C150.686 57.1468 150.555 57.2681 150.555 57.3894C150.555 57.5107 150.555 57.7534 150.555 57.8747L189.172 122.301C189.303 122.544 189.698 122.665 190.092 122.544C190.223 122.423 190.354 122.301 190.354 122.18C190.354 122.059 190.354 121.816 190.354 121.695L151.737 57.2681C151.606 57.1468 151.475 57.0254 151.343 57.0254C151.212 56.9041 151.212 56.9041 151.08 56.9041Z" fill="#495747"/>
<path d="M88.4258 46.9551H87.1123V121.816H88.4258V46.9551Z" fill="#495747"/>
<path d="M87.7696 123.029C86.9815 123.029 86.4561 122.544 86.4561 121.816V46.955C86.4561 46.227 86.9815 45.7417 87.7696 45.7417C88.5577 45.7417 89.0831 46.227 89.0831 46.955V121.816C89.0831 122.544 88.4263 123.029 87.7696 123.029Z" fill="#495747"/>
<path d="M87.7691 123.636C86.7183 123.636 85.7988 122.787 85.7988 121.816V46.955C85.7988 45.9843 86.7183 45.135 87.7691 45.135C88.8199 45.135 89.7393 45.9843 89.7393 46.955V121.816C89.7393 122.908 88.8199 123.636 87.7691 123.636ZM87.7691 46.3483C87.375 46.3483 87.1123 46.591 87.1123 46.955V121.816C87.1123 122.18 87.375 122.423 87.7691 122.423C88.1631 122.423 88.4258 122.18 88.4258 121.816V46.955C88.4258 46.591 88.0318 46.3483 87.7691 46.3483Z" fill="#495747"/>
<path d="M102.087 63.0921C101.693 63.0921 101.299 62.9708 101.036 62.6068L87.7699 47.5618L74.3721 62.6068C73.9781 63.0921 73.0586 63.2134 72.5332 62.7281C72.0078 62.2428 71.8765 61.5148 72.4019 61.0295L87.7699 43.6792L103.138 61.0295C103.532 61.5148 103.532 62.3641 103.007 62.7281C102.744 62.9708 102.481 63.0921 102.087 63.0921Z" fill="#495747"/>
<path d="M102.087 63.6987C101.43 63.6987 100.905 63.4561 100.511 63.0921L87.6382 48.5324L74.7658 63.0921C74.3717 63.4561 73.9777 63.6987 73.4523 63.6987C72.9269 63.6987 72.4015 63.5774 72.0074 63.3347C71.2193 62.7281 71.088 61.5148 71.7447 60.7868L87.6382 42.8298L103.663 60.6655C104.32 61.3934 104.188 62.6067 103.4 63.2134C103.006 63.5774 102.612 63.6987 102.087 63.6987ZM87.7695 46.5911L101.693 62.2428C101.824 62.4854 102.218 62.6067 102.612 62.3641C102.875 62.1214 102.875 61.7574 102.743 61.5148L87.7695 44.6498L72.7955 61.5148C72.5328 61.7574 72.6642 62.1214 72.9269 62.3641C73.0582 62.4854 73.1896 62.4854 73.4523 62.4854C73.5836 62.4854 73.8463 62.3641 73.8463 62.2428L87.7695 46.5911Z" fill="#495747"/>
<path d="M105.633 80.6849C105.239 80.6849 104.845 80.5636 104.582 80.1996L87.7695 61.1507L70.8252 80.1996C70.4312 80.6849 69.5117 80.8062 68.9863 80.3209C68.4609 79.9569 68.3296 79.1076 68.855 78.6223L87.7695 57.2681L106.684 78.6223C107.078 79.1076 107.078 79.9569 106.553 80.3209C106.29 80.5636 105.896 80.6849 105.633 80.6849Z" fill="#495747"/>
<path d="M69.7745 81.2915C69.3804 81.2915 68.855 81.1702 68.5923 80.9275C68.1982 80.5635 67.9355 80.1995 67.9355 79.7142C67.9355 79.2289 68.0669 78.7435 68.3296 78.3796L87.7695 56.4187L107.209 78.3796C107.866 79.1075 107.735 80.3208 106.947 80.9275C106.159 81.5342 104.845 81.4128 104.188 80.6848L87.7695 62.1212L71.3507 80.5635C70.9566 80.9275 70.5626 81.1702 70.0372 81.1702C69.9058 81.2915 69.9058 81.2915 69.7745 81.2915ZM87.7695 58.36L69.3804 79.1075C69.2491 79.2289 69.2491 79.3502 69.2491 79.5929C69.2491 79.7142 69.3804 79.9569 69.5118 79.9569C69.6431 80.0782 69.7745 80.0782 70.0372 80.0782C70.1685 80.0782 70.4312 79.9569 70.4312 79.8355L87.9008 60.18L105.108 79.8355C105.239 80.0782 105.633 80.1995 106.027 79.9569C106.29 79.7142 106.29 79.3502 106.159 79.1075L87.7695 58.36Z" fill="#495747"/>
<path d="M107.472 97.6714C107.078 97.6714 106.684 97.55 106.421 97.186L87.7695 76.0745L68.9864 97.186C68.5923 97.6714 67.6729 97.7927 67.1475 97.3074C66.6221 96.9434 66.4907 96.0941 67.0161 95.6087L87.7695 72.1919L108.523 95.6087C108.917 96.0941 108.917 96.9434 108.392 97.3074C108.129 97.55 107.866 97.6714 107.472 97.6714Z" fill="#495747"/>
<path d="M67.9356 98.2779C67.5415 98.2779 67.0161 98.1566 66.7534 97.9139C66.3594 97.55 66.0967 97.186 66.0967 96.7006C66.0967 96.2153 66.228 95.73 66.4907 95.366L87.7695 71.3425L109.048 95.2447C109.442 95.6087 109.574 96.094 109.442 96.5793C109.442 97.0646 109.18 97.55 108.786 97.7926C107.998 98.3993 106.684 98.2779 106.027 97.55L87.7695 76.9237L69.5118 97.55C69.1177 97.914 68.7237 98.1566 68.1983 98.1566C68.0669 98.2779 68.0669 98.2779 67.9356 98.2779ZM87.7695 73.1625L67.4102 95.9727C67.1475 96.2153 67.2788 96.5793 67.5415 96.822C67.6729 96.9433 67.8042 96.9433 68.0669 96.9433C68.1983 96.9433 68.461 96.822 68.461 96.7006L87.7695 74.9825L107.078 96.7006C107.209 96.9433 107.603 97.0646 107.998 96.822C108.26 96.5793 108.26 96.2153 108.129 95.9727L87.7695 73.1625Z" fill="#495747"/>
<path d="M154.495 64.7908V94.1528L152.262 95.9728L137.025 107.742L138.339 121.816L154.495 94.1528" fill="#495747"/>
<path d="M137.814 124L136.237 107.499L151.737 95.6088L153.838 93.9101V64.7908H155.152V94.3955L155.02 94.5168L137.814 124ZM137.682 107.985L138.864 119.754L152.262 96.7008L137.682 107.985Z" fill="#495747"/>
<path d="M138.34 123.029C138.209 123.029 138.209 123.029 138.077 123.029C137.552 122.908 137.026 122.423 137.026 121.937L135.713 107.742C135.713 107.378 135.844 107.014 136.238 106.65L153.314 93.4247V64.7907C153.314 64.0627 153.839 63.5774 154.627 63.5774C155.415 63.5774 155.941 64.0627 155.941 64.7907V94.1527C155.941 94.3954 155.941 94.5167 155.81 94.7594L139.653 122.544C139.259 122.908 138.865 123.029 138.34 123.029ZM138.34 108.227L139.259 117.691L150.03 99.2486L138.34 108.227Z" fill="#495747"/>
<path d="M138.339 123.636C138.208 123.636 138.077 123.636 137.945 123.636C137.157 123.515 136.501 122.787 136.369 122.059L135.056 107.863C135.056 107.256 135.318 106.65 135.712 106.286L152.525 93.3034V64.7907C152.525 63.82 153.445 62.9707 154.496 62.9707C155.546 62.9707 156.466 63.82 156.466 64.7907V94.1527C156.466 94.3953 156.334 94.7593 156.203 95.002L140.047 122.787C139.784 123.272 139.128 123.636 138.339 123.636ZM154.496 64.184C154.102 64.184 153.839 64.4267 153.839 64.7907V93.91L136.632 107.256C136.501 107.378 136.369 107.62 136.369 107.742L137.683 121.937C137.683 122.18 137.945 122.423 138.208 122.423C138.471 122.423 138.733 122.301 138.865 122.059L155.021 94.3954C155.021 94.274 155.152 94.1527 155.152 94.1527V64.7907C155.152 64.4267 154.89 64.184 154.496 64.184ZM138.865 119.753L137.683 107.984L152.263 96.822L138.865 119.753ZM138.996 108.47L139.653 115.628L147.797 101.675L138.996 108.47Z" fill="#495747"/>
<path d="M154.495 94.1526L156.728 95.9725L172.096 108.106L170.651 121.816L154.495 94.1526Z" fill="#495747"/>
<path d="M171.045 123.879L152.131 91.4834L157.122 95.6086L172.753 107.863L171.045 123.879ZM156.728 96.822L170.126 119.875L171.439 108.348L156.728 96.822Z" fill="#495747"/>
<path d="M170.651 123.029C170.126 123.029 169.732 122.787 169.469 122.423L153.313 94.7592C153.05 94.2739 153.182 93.5459 153.707 93.1819C154.232 92.8179 154.889 92.8179 155.415 93.1819L157.648 95.0019L173.016 107.135C173.278 107.378 173.541 107.742 173.41 108.227L171.833 122.059C171.833 122.544 171.308 123.029 170.783 123.151C170.783 123.029 170.783 123.029 170.651 123.029ZM158.961 99.3698L169.732 117.812L170.783 108.591L158.961 99.3698Z" fill="#495747"/>
<path d="M170.651 123.636C169.863 123.636 169.206 123.272 168.944 122.665L152.787 95.0019C152.393 94.2739 152.525 93.3033 153.313 92.6966C154.101 92.09 155.152 92.2113 155.808 92.6966L158.041 94.5166L173.409 106.771C173.935 107.135 174.198 107.742 174.066 108.348L172.49 122.18C172.359 123.029 171.702 123.636 170.914 123.757C170.914 123.636 170.782 123.636 170.651 123.636ZM154.495 93.5459C154.364 93.5459 154.232 93.5459 154.101 93.6673C153.838 93.9099 153.838 94.1526 153.97 94.3953L170.126 122.18C170.257 122.423 170.651 122.544 170.782 122.544C171.045 122.544 171.308 122.301 171.308 122.059L172.884 108.227C172.884 107.984 172.884 107.863 172.621 107.742L154.889 93.6673C154.758 93.5459 154.626 93.5459 154.495 93.5459ZM170.257 119.875L156.859 96.8219L171.571 108.348L170.257 119.875ZM161.194 101.918L169.338 115.749L170.126 108.834L161.194 101.918Z" fill="#495747"/>
<path d="M157.876 57.1577L154.1 63.2695L155.24 63.871L159.017 57.7592L157.876 57.1577Z" fill="#495747"/>
<path d="M154.627 64.7905C154.365 64.7905 154.233 64.7905 153.971 64.6692C153.314 64.3052 153.183 63.5772 153.445 62.9706L157.254 56.904C157.648 56.2974 158.437 56.176 159.093 56.4187C159.75 56.7827 159.881 57.5107 159.619 58.1173L155.81 64.1839C155.547 64.6692 155.153 64.7905 154.627 64.7905Z" fill="#495747"/>
<path d="M154.627 65.3972C154.233 65.3972 153.971 65.2759 153.708 65.1546C153.314 64.9119 152.92 64.5479 152.788 64.0626C152.657 63.5773 152.657 63.092 152.92 62.728L156.729 56.6614C156.992 56.2974 157.386 55.9334 157.911 55.8121C158.436 55.6908 158.962 55.6908 159.356 55.9334C159.75 56.1761 160.144 56.5401 160.275 57.0254C160.407 57.5107 160.407 57.9961 160.144 58.3601L156.335 64.4266C156.072 65.0333 155.415 65.3972 154.627 65.3972ZM158.436 56.9041H158.305C158.174 56.9041 158.042 57.0254 157.911 57.1468L154.102 63.2133C153.971 63.3346 153.971 63.5773 154.102 63.6986C154.233 63.8199 154.233 63.9413 154.365 64.0626C154.627 64.1839 155.153 64.0626 155.284 63.8199L159.093 57.7534C159.225 57.6321 159.225 57.3894 159.093 57.2681C158.962 57.1468 158.962 57.0254 158.831 57.0254C158.699 56.9041 158.568 56.9041 158.436 56.9041Z" fill="#495747"/>
<path d="M209.794 65.3973L205.328 57.9961C204.934 57.3895 205.196 56.6615 205.853 56.2975C206.51 55.9335 207.298 56.1762 207.692 56.7828L209.925 60.5441L212.552 56.6615C212.946 56.0549 213.734 55.9335 214.391 56.2975C215.048 56.6615 215.179 57.3895 214.785 57.9961L209.794 65.3973Z" fill="#495747"/>
<path d="M209.662 66.6105L204.671 58.3601C204.145 57.5107 204.54 56.4188 205.459 55.9334C206.378 55.4481 207.561 55.8121 208.086 56.6614L209.794 59.5734L211.764 56.6614C212.289 55.8121 213.603 55.5695 214.522 56.0548C215.442 56.5401 215.704 57.7534 215.179 58.6027L209.662 66.6105ZM206.378 56.9041C206.247 56.9041 206.116 56.9041 206.116 57.0254C205.853 57.1467 205.722 57.5107 205.853 57.8747L209.794 64.3053L214.128 57.8747C214.259 57.6321 214.259 57.2681 213.865 57.0254C213.603 56.9041 213.209 56.9041 212.946 57.2681L209.794 62L206.904 57.3894C206.904 57.0254 206.641 56.9041 206.378 56.9041Z" fill="#495747"/>
<path d="M134.006 11.8904C133.218 11.8904 132.692 11.4051 132.692 10.6771V1.82C132.692 1.09201 133.218 0.606689 134.006 0.606689C134.794 0.606689 135.319 1.09201 135.319 1.82V10.6771C135.319 11.4051 134.794 11.8904 134.006 11.8904Z" fill="#495747"/>
<path d="M134.005 12.4971C132.955 12.4971 132.035 11.6477 132.035 10.6771V1.81996C132.035 0.849315 132.955 0 134.005 0C135.056 0 135.976 0.849315 135.976 1.81996V10.6771C135.976 11.7691 135.188 12.4971 134.005 12.4971ZM134.005 1.21331C133.611 1.21331 133.349 1.45597 133.349 1.81996V10.6771C133.349 11.0411 133.611 11.2838 134.005 11.2838C134.399 11.2838 134.662 11.0411 134.662 10.6771V1.81996C134.662 1.45597 134.399 1.21331 134.005 1.21331Z" fill="#495747"/>
<path d="M134.006 54.599C133.218 54.599 132.692 54.1136 132.692 53.3856V44.5285C132.692 43.8005 133.218 43.3152 134.006 43.3152C134.794 43.3152 135.319 43.8005 135.319 44.5285V53.3856C135.319 54.1136 134.794 54.599 134.006 54.599Z" fill="#495747"/>
<path d="M134.005 55.2056C132.955 55.2056 132.035 54.3562 132.035 53.3856V44.5285C132.035 43.5578 132.955 42.7085 134.005 42.7085C135.056 42.7085 135.976 43.5578 135.976 44.5285V53.3856C135.976 54.4776 135.188 55.2056 134.005 55.2056ZM134.005 43.9218C133.611 43.9218 133.349 44.1645 133.349 44.5285V53.3856C133.349 53.7496 133.611 53.9923 134.005 53.9923C134.399 53.9923 134.662 53.7496 134.662 53.3856V44.5285C134.662 44.1645 134.399 43.9218 134.005 43.9218Z" fill="#495747"/>
<path d="M161.589 28.8768H152C151.212 28.8768 150.687 28.3915 150.687 27.6635C150.687 26.9355 151.212 26.4502 152 26.4502H161.589C162.377 26.4502 162.902 26.9355 162.902 27.6635C162.902 28.3915 162.245 28.8768 161.589 28.8768Z" fill="#495747"/>
<path d="M161.589 29.4834H152.001C150.95 29.4834 150.03 28.6341 150.03 27.6635C150.03 26.6928 150.95 25.8435 152.001 25.8435H161.589C162.64 25.8435 163.559 26.6928 163.559 27.6635C163.559 28.6341 162.64 29.4834 161.589 29.4834ZM151.869 27.0568C151.475 27.0568 151.212 27.2995 151.212 27.6635C151.212 28.0275 151.475 28.2701 151.869 28.2701H161.589C161.983 28.2701 162.246 28.0275 162.246 27.6635C162.246 27.2995 161.983 27.0568 161.589 27.0568H151.869Z" fill="#495747"/>
<path d="M115.222 28.8768H105.634C104.846 28.8768 104.32 28.3915 104.32 27.6635C104.32 26.9355 104.846 26.4502 105.634 26.4502H115.222C116.011 26.4502 116.536 26.9355 116.536 27.6635C116.536 28.3915 116.011 28.8768 115.222 28.8768Z" fill="#495747"/>
<path d="M115.222 29.4834H105.633C104.583 29.4834 103.663 28.6341 103.663 27.6635C103.663 26.6928 104.583 25.8435 105.633 25.8435H115.222C116.273 25.8435 117.192 26.6928 117.192 27.6635C117.192 28.6341 116.404 29.4834 115.222 29.4834ZM105.633 27.0568C105.239 27.0568 104.977 27.2995 104.977 27.6635C104.977 28.0275 105.239 28.2701 105.633 28.2701H115.222C115.616 28.2701 115.879 28.0275 115.879 27.6635C115.879 27.2995 115.616 27.0568 115.222 27.0568H105.633Z" fill="#495747"/>
<path d="M147.14 17.229C146.746 17.229 146.483 17.1076 146.22 16.865C145.695 16.3797 145.695 15.6517 146.22 15.1664L153.05 8.85716C153.576 8.37183 154.364 8.37183 154.889 8.85716C155.415 9.34248 155.415 10.0705 154.889 10.5558L148.059 16.865C147.796 17.1076 147.534 17.229 147.14 17.229Z" fill="#495747"/>
<path d="M147.14 17.8357C146.615 17.8357 146.09 17.5931 145.696 17.3504C144.907 16.6224 144.907 15.5304 145.696 14.8025L152.526 8.49325C153.314 7.76527 154.496 7.76527 155.284 8.49325C156.072 9.22124 156.072 10.3132 155.284 11.0412L148.454 17.3504C148.191 17.5931 147.666 17.8357 147.14 17.8357ZM153.971 9.09991C153.839 9.09991 153.577 9.09991 153.445 9.22124L146.615 15.5304C146.352 15.7731 146.352 16.1371 146.615 16.3798C146.878 16.6224 147.272 16.6224 147.534 16.3798L154.365 10.0706C154.627 9.82789 154.627 9.4639 154.365 9.22124C154.365 9.09991 154.102 9.09991 153.971 9.09991Z" fill="#495747"/>
<path d="M114.434 47.4402C114.04 47.4402 113.777 47.3188 113.514 47.0762C112.989 46.5908 112.989 45.8629 113.514 45.3775L120.344 39.0683C120.87 38.583 121.658 38.583 122.183 39.0683C122.709 39.5537 122.709 40.2816 122.183 40.767L115.353 47.0762C115.09 47.3188 114.828 47.4402 114.434 47.4402Z" fill="#495747"/>
<path d="M114.433 48.0469C113.908 48.0469 113.383 47.8042 112.989 47.5616C112.2 46.8336 112.2 45.7416 112.989 45.0136L119.819 38.7044C120.607 37.9765 121.789 37.9765 122.577 38.7044C123.365 39.4324 123.365 40.5244 122.577 41.2524L115.747 47.5616C115.484 47.8042 114.959 48.0469 114.433 48.0469ZM121.264 39.3111C121.132 39.3111 120.87 39.3111 120.738 39.4324L113.908 45.7416C113.645 45.9843 113.645 46.3483 113.908 46.5909C114.171 46.8336 114.565 46.8336 114.827 46.5909L121.658 40.2817C121.92 40.0391 121.92 39.6751 121.658 39.4324C121.658 39.3111 121.395 39.3111 121.264 39.3111Z" fill="#495747"/>
<path d="M153.708 47.0761C153.314 47.0761 153.051 46.9548 152.789 46.7122L145.959 40.403C145.433 39.9176 145.433 39.1896 145.959 38.7043C146.484 38.219 147.272 38.219 147.797 38.7043L154.628 45.0135C155.153 45.4988 155.153 46.2268 154.628 46.7122C154.365 46.9548 153.971 47.0761 153.708 47.0761Z" fill="#495747"/>
<path d="M153.708 47.6829C153.183 47.6829 152.657 47.4402 152.263 47.1976L145.433 40.8884C144.645 40.1604 144.645 39.0684 145.433 38.3404C146.221 37.6124 147.403 37.6124 148.191 38.3404L155.021 44.6496C155.81 45.3776 155.81 46.4696 155.021 47.1976C154.627 47.4402 154.233 47.6829 153.708 47.6829ZM146.878 38.9471C146.746 38.9471 146.484 38.9471 146.352 39.0684C146.09 39.3111 146.09 39.6751 146.352 39.9177L153.183 46.2269C153.445 46.4696 153.839 46.4696 154.102 46.2269C154.365 45.9843 154.365 45.6203 154.102 45.3776L147.272 39.0684C147.14 39.0684 147.009 38.9471 146.878 38.9471Z" fill="#495747"/>
<path d="M121.001 16.865C120.607 16.865 120.344 16.7436 120.082 16.501L113.251 10.1918C112.726 9.70645 112.726 8.97847 113.251 8.49314C113.777 8.00782 114.565 8.00782 115.09 8.49314L121.921 14.8023C122.446 15.2877 122.446 16.0156 121.921 16.501C121.658 16.7436 121.264 16.865 121.001 16.865Z" fill="#495747"/>
<path d="M121.001 17.4717C120.476 17.4717 119.95 17.229 119.556 16.9864L112.726 10.6772C111.938 9.9492 111.938 8.85722 112.726 8.12924C113.514 7.40126 114.696 7.40126 115.484 8.12924L122.314 14.4384C123.103 15.1664 123.103 16.2584 122.314 16.9864C121.92 17.3504 121.526 17.4717 121.001 17.4717ZM114.171 8.73589C114.039 8.73589 113.777 8.73589 113.645 8.85722C113.383 9.09989 113.383 9.46388 113.645 9.70654L120.476 16.0157C120.738 16.2584 121.132 16.2584 121.395 16.0157C121.658 15.7731 121.658 15.4091 121.395 15.1664L114.565 8.85722C114.433 8.85722 114.302 8.73589 114.171 8.73589Z" fill="#495747"/>
</g>
<defs>
<clipPath id="clip0">
<rect width="212" height="124" fill="white" transform="translate(46)"/>
</clipPath>
</defs>
</svg>
