<svg xmlns="http://www.w3.org/2000/svg" viewBox="0 0 303 166">
  <path d="M20.72 149.67L15.73 160h-2.69l-1.88-4.6-2.44 4.6h-2.7l-3.18-7.74-2.08-1.2v-1.2l4.73-1.8.81 3.23 2.33 5.67 1.74-3.46-.5-1.22-2.1-1.22v-1.2l4.74-1.8.8 3.23 2.32 5.57 2.22-4.86-3.18-2.14.7-1.39h5.35v1.2zm8.12-1.41a4 4 0 013.47 1.7c.82 1.15 1.22 2.73 1.2 4.76h-7.7c.14.87.44 1.57.91 2.1.47.5 1.09.76 1.84.76 1 0 2.43-.5 4.3-1.5l.64 1.22-3.25 2.6c-.84.2-1.82.31-2.93.31a5.56 5.56 0 01-2.82-.72 5.33 5.33 0 01-1.95-2.03 5.95 5.95 0 01-.68-2.85 5.1 5.1 0 011.09-3.14 7.94 7.94 0 012.72-2.34 6.74 6.74 0 013.16-.87zm-1.18 2.48c-.62 0-1.1.21-1.4.64a3.38 3.38 0 00-.52 1.93h4.08a4.13 4.13 0 00-.64-1.95c-.3-.41-.81-.62-1.54-.62h.02zM41.9 160h-6.76v-1.2l1.9-1.6v-11.7l-1.9-1.26v-1.2l4.2-1.71h1.34v16.64l1.93.64-.7 1.39zm8.83-11.74c.67 0 1.45.08 2.33.25.88.16 1.53.34 1.93.54v3.98h-1.35a6.2 6.2 0 00-1.84-1.7 4.2 4.2 0 00-2.14-.6c-.53 0-.93.26-1.22.76-.27.48-.4 1.18-.4 2.1 0 1.15.24 2.1.72 2.86a2.4 2.4 0 002.12 1.13c.93 0 2.26-.45 4-1.34l.64 1.22-3.08 2.43c-.81.22-1.75.32-2.8.32a5.56 5.56 0 01-2.82-.72 5.33 5.33 0 01-1.95-2.03 5.95 5.95 0 01-.69-2.85 5.4 5.4 0 011.01-3.14 7.59 7.59 0 012.57-2.34 6.01 6.01 0 012.97-.87zm14.07 0a5.36 5.36 0 014.74 2.76c.47.85.71 1.8.71 2.84 0 1.13-.36 2.18-1.1 3.17a8.17 8.17 0 01-2.73 2.33 6.73 6.73 0 01-3.14.85 5.56 5.56 0 01-2.83-.72 5.33 5.33 0 01-1.94-2.03 5.95 5.95 0 01-.69-2.85c0-1.13.37-2.17 1.1-3.14a7.94 7.94 0 012.71-2.34 6.74 6.74 0 013.17-.87zm-1.24 2.48c-.6 0-1.06.24-1.37.73a4 4 0 00-.45 2.11c0 1.2.24 2.2.72 3a2.29 2.29 0 002.06 1.17c.58 0 1.02-.24 1.32-.72.32-.5.47-1.22.47-2.16 0-1.2-.24-2.18-.72-2.95a2.27 2.27 0 00-2.03-1.18zM92.98 160H88.1v-7.1c0-.59-.09-1-.27-1.22-.17-.24-.5-.36-.97-.36-.7 0-1.38.24-2.05.72v5.97l1.8.6-.69 1.39h-4.75v-7.1c0-.59-.09-1-.27-1.22-.17-.24-.5-.36-.97-.36-.7 0-1.37.24-2.03.72v5.97l1.78.6-.69 1.39h-6.63v-1.2l1.9-1.6v-4.86l-1.9-1.2v-1.2l4.45-1.87.84 2.48 2.56-2.12c.34-.12.74-.17 1.18-.17.84 0 1.55.2 2.12.6.58.38.97.92 1.17 1.6l2.48-2.03c.35-.12.74-.17 1.18-.17 1.04 0 1.87.3 2.48.9.63.58.94 1.38.94 2.4v6.4l1.9.65-.68 1.39zm9.07-11.74a4 4 0 013.46 1.7c.83 1.15 1.23 2.73 1.2 4.76H99c.14.87.45 1.57.92 2.1.47.5 1.08.76 1.84.76 1 0 2.43-.5 4.3-1.5l.64 1.22-3.25 2.6c-.84.2-1.82.31-2.93.31a5.56 5.56 0 01-2.83-.72 5.33 5.33 0 01-1.94-2.03 5.95 5.95 0 01-.69-2.85c0-1.13.37-2.17 1.1-3.14a7.94 7.94 0 012.71-2.34 6.74 6.74 0 013.17-.87zm-1.18 2.48c-.63 0-1.1.21-1.41.64a3.38 3.38 0 00-.51 1.93h4.08a4.14 4.14 0 00-.64-1.95c-.3-.41-.81-.62-1.54-.62h.02zm15.23 9.3c-.48.12-1.06.17-1.73.17-1.37 0-2.38-.3-3.02-.92-.63-.62-.94-1.59-.94-2.88v-5.88h-2.3v-1.14l4.59-5h1.35v4.72h3.85v1.41h-3.85v5.74c0 .98.55 1.47 1.67 1.47.28 0 .56-.04.83-.13.28-.1.64-.26 1.07-.49l.64 1.22-2.16 1.71zm10.28-11.78a5.36 5.36 0 014.75 2.76c.47.85.7 1.8.7 2.84 0 1.13-.36 2.18-1.09 3.17a8.17 8.17 0 01-2.74 2.33 6.74 6.74 0 01-3.14.85 5.56 5.56 0 01-2.82-.72 5.33 5.33 0 01-1.95-2.03 5.95 5.95 0 01-.68-2.85 5.1 5.1 0 011.09-3.14 7.94 7.94 0 012.71-2.34 6.74 6.74 0 013.17-.87zm-1.24 2.48c-.6 0-1.06.24-1.37.73a4 4 0 00-.45 2.11c0 1.2.24 2.2.73 3a2.29 2.29 0 002.05 1.17c.59 0 1.03-.24 1.33-.72.31-.5.47-1.22.47-2.16 0-1.2-.25-2.18-.73-2.95a2.27 2.27 0 00-2.03-1.18zm29.43 9.26h-4.87v-7.1c0-.59-.1-1-.28-1.22-.17-.24-.5-.36-.96-.36-.7 0-1.39.24-2.06.72v5.97l1.8.6-.69 1.39h-4.74v-7.1c0-.59-.1-1-.28-1.22-.17-.24-.5-.36-.96-.36-.7 0-1.38.24-2.03.72v5.97l1.77.6-.68 1.39h-6.63v-1.2l1.9-1.6v-4.86l-1.9-1.2v-1.2l4.44-1.87.84 2.48 2.56-2.12c.35-.12.74-.17 1.18-.17.84 0 1.55.2 2.12.6.58.38.97.92 1.18 1.6l2.48-2.03c.34-.12.73-.17 1.17-.17 1.04 0 1.87.3 2.48.9.63.58.94 1.38.94 2.4v6.4l1.9.65-.68 1.39zm14.33-10.35l-5.48 10.33-5.02 5.65-1.35-1.05a16.19 16.19 0 002.22-3.28c.43-.9.67-1.93.73-3.1l-2.46-5.94-2.07-1.2v-1.2l4.72-1.8.82 3.23 2.33 5.7 2.59-5.05-3.06-2.08.68-1.39 5.35-.02v1.2zm11.98.9c.25.45.37.94.37 1.45 0 .87-.38 1.71-1.12 2.53-.72.8-1.63 1.4-2.71 1.81a2 2 0 00-.56 1.29c0 .2.16.4.47.6.32.18.8.42 1.48.72.98.43 1.74.82 2.26 1.18.53.37.8.8.8 1.28 0 .46-.29 1.02-.86 1.7a8 8 0 01-2.14 1.77 4.7 4.7 0 01-2.46.77c-.87 0-1.9-.14-3.1-.41-1.2-.27-2.2-.54-3-.81v-3.83h1.35c.7.94 1.4 1.65 2.12 2.14.73.5 1.55.75 2.46.75.47 0 .86-.11 1.18-.33.33-.2.49-.4.49-.64 0-.32-.2-.62-.58-.87-.37-.25-.95-.55-1.73-.9a12.2 12.2 0 01-1.9-.99c-.43-.3-.64-.64-.64-1.02 0-.34.25-.7.76-1.05a8.94 8.94 0 011.89-.94 5.55 5.55 0 01-3.04-.47 4.38 4.38 0 01-1.69-1.37 3.17 3.17 0 01-.62-1.86c0-.81.3-1.6.9-2.33a6.38 6.38 0 012.33-1.78 6.74 6.74 0 012.93-.68c1.14 0 2.14.28 3.01.85h3.53l.03 1.44h-2.2zm-4.55 3.8c.45 0 .8-.1 1.04-.32.26-.22.39-.56.39-1 0-.7-.23-1.25-.69-1.65a2.49 2.49 0 00-1.77-.62c-.94 0-1.41.42-1.41 1.26 0 .69.22 1.25.66 1.7.46.42 1.05.63 1.78.63zm19.63 5.65h-4.87v-1.86l-2.42 1.9a2.9 2.9 0 01-1.07.17c-1.37 0-2.36-.33-2.97-1a3.5 3.5 0 01-.9-2.42c0-.55.17-1.1.51-1.62.35-.54.84-1.04 1.48-1.5h5.37v-.36c0-.79-.22-1.37-.64-1.74-.43-.37-1-.55-1.71-.55-1 0-2.3.39-3.92 1.17l-.64-1.22 2.97-2.4a9.05 9.05 0 012.55-.31c1.6 0 2.83.36 3.7 1.09.88.73 1.32 1.78 1.32 3.16v5.35l1.93.75-.69 1.39zm-7.27-2.65c.73 0 1.53-.3 2.4-.9v-1.37h-3.45a1.68 1.68 0 00-.32.98c0 .36.13.66.37.9.25.25.59.37 1 .37v.02zm16.24-6.06a2.3 2.3 0 00-1.54.69v5.77l3.25.86-.69 1.39h-8.1v-1.2l1.9-1.6v-4.86l-1.9-1.2v-1.2l4.44-1.87.82 2.37 1.94-2.01c.3-.12.65-.17 1.05-.17.74 0 1.38.17 1.9.51.55.34.93.81 1.14 1.41l-2.05 2.57h-1.35a2.4 2.4 0 00-.22-1.1.64.64 0 00-.6-.33v-.03zm18.55 8.71h-4.85v-1.58l-2.06 1.62c-.45.12-.98.17-1.58.17a4.62 4.62 0 01-4.3-2.75 6.45 6.45 0 01-.62-2.85c0-1.13.37-2.17 1.1-3.14a7.95 7.95 0 012.71-2.34 6.74 6.74 0 013.16-.87c.58 0 1.1.14 1.59.43v-3.2l-1.9-1.25v-1.2l4.19-1.71h1.34v16.64l1.93.64-.7 1.39zm-7.18-2.65c.84 0 1.61-.2 2.33-.62v-4.09a2.03 2.03 0 00-.86-1.37 3.26 3.26 0 00-1.97-.53c-1.25 0-1.88.95-1.88 2.86 0 1.09.2 1.99.6 2.7.41.7 1 1.05 1.78 1.05zm16.37-9.1a4 4 0 013.46 1.72c.83 1.14 1.23 2.72 1.2 4.75h-7.7c.14.87.45 1.57.92 2.1.47.5 1.08.76 1.84.76 1 0 2.43-.5 4.3-1.5l.64 1.22-3.25 2.6c-.84.2-1.82.31-2.93.31a5.56 5.56 0 01-2.82-.72 5.33 5.33 0 01-1.95-2.03 5.94 5.94 0 01-.69-2.85c0-1.13.37-2.17 1.1-3.14a7.94 7.94 0 012.71-2.34 6.74 6.74 0 013.17-.87zm-1.18 2.49c-.63 0-1.1.21-1.41.64a3.38 3.38 0 00-.51 1.93h4.08a4.14 4.14 0 00-.64-1.95c-.3-.41-.81-.62-1.54-.62h.02zm22.05 9.26h-4.85v-6.84c0-.67-.1-1.15-.32-1.41-.2-.3-.56-.43-1.07-.43-.76 0-1.5.24-2.25.72v5.93l1.93.64-.7 1.39h-6.77v-1.2l1.9-1.6v-4.86l-1.9-1.2v-1.2l4.45-1.87.84 2.48 2.65-2.12a4.6 4.6 0 011.3-.17c1.09 0 1.95.3 2.6.9.65.58.97 1.38.97 2.4v6.4l1.93.65-.7 1.39zm4.82-4.2a2 2 0 011.5.6c.4.4.6.9.6 1.48 0 .42-.15.8-.43 1.16a3.16 3.16 0 01-2.31 1.17c-.6 0-1.1-.19-1.5-.57-.38-.4-.58-.9-.58-1.48 0-.41.15-.8.43-1.15a3.06 3.06 0 012.29-1.2zm11.25-7.54a5.36 5.36 0 014.75 2.76c.47.85.7 1.8.7 2.84 0 1.13-.36 2.18-1.08 3.17a8.16 8.16 0 01-2.74 2.33 6.73 6.73 0 01-3.14.85 5.56 5.56 0 01-2.83-.72 5.34 5.34 0 01-1.94-2.03 5.95 5.95 0 01-.69-2.85c0-1.13.37-2.17 1.1-3.14a7.95 7.95 0 012.71-2.34 6.74 6.74 0 013.17-.87zm-1.24 2.48c-.6 0-1.05.24-1.36.73a4 4 0 00-.45 2.11c0 1.2.24 2.2.72 3a2.29 2.29 0 002.06 1.17c.58 0 1.02-.24 1.32-.72.32-.5.47-1.22.47-2.16 0-1.2-.24-2.18-.72-2.95a2.27 2.27 0 00-2.04-1.18zm15.92.55c-.51 0-1.02.23-1.54.69v5.77l3.25.86-.68 1.39h-8.1v-1.2l1.9-1.6v-4.86l-1.9-1.2v-1.2l4.44-1.87.81 2.37 1.95-2.01c.3-.12.65-.17 1.05-.17.74 0 1.38.17 1.9.51.54.34.92.81 1.14 1.41l-2.06 2.57h-1.34a2.4 2.4 0 00-.22-1.1.64.64 0 00-.6-.33v-.03zm15.58-.74c.24.45.36.94.36 1.45a3.8 3.8 0 01-1.1 2.53 7 7 0 01-2.73 1.81c-.37.43-.55.86-.55 1.29 0 .2.16.4.47.6.31.18.8.42 1.48.72.98.43 1.74.82 2.26 1.18.53.37.8.8.8 1.28 0 .46-.3 1.02-.86 1.7a7.97 7.97 0 01-2.14 1.77c-.84.51-1.66.77-2.46.77-.87 0-1.9-.14-3.1-.41-1.2-.27-2.2-.54-3-.81v-3.83h1.35c.7.94 1.4 1.65 2.12 2.14.73.5 1.55.75 2.46.75.47 0 .86-.11 1.17-.33.33-.2.5-.4.5-.64 0-.32-.2-.62-.58-.87-.37-.25-.95-.55-1.73-.9a12.2 12.2 0 01-1.9-.99c-.43-.3-.65-.64-.65-1.02 0-.34.26-.7.77-1.05a8.95 8.95 0 011.88-.94 5.56 5.56 0 01-3.04-.47 4.38 4.38 0 01-1.68-1.37 3.17 3.17 0 01-.62-1.86c0-.81.3-1.6.9-2.33a6.38 6.38 0 012.33-1.78 6.73 6.73 0 012.93-.68c1.14 0 2.14.28 3.01.85h3.53l.02 1.44h-2.2zm-4.56 3.8c.46 0 .81-.1 1.05-.32.26-.22.39-.56.39-1 0-.7-.23-1.25-.69-1.65a2.5 2.5 0 00-1.77-.62c-.94 0-1.41.42-1.41 1.26 0 .69.22 1.25.66 1.7a2.5 2.5 0 001.77.63z" fill="#495747"/>
  <g fill="#495747">
    <path d="M134 38.95c-6.83 0-12.34-5.1-12.34-11.4 0-6.32 5.52-11.41 12.34-11.41 6.84 0 12.35 5.1 12.35 11.4 0 6.31-5.51 11.4-12.34 11.4zm0-20.27c-5.38 0-9.72 4-9.72 8.98s4.34 8.98 9.72 8.98c5.4 0 9.72-4 9.72-8.98 0-4.97-4.33-8.98-9.72-8.98z"/>
    <path d="M134 39.55c-7.09 0-13-5.33-13-12 0-6.68 5.78-12.02 13-12.02 7.1 0 13 5.34 13 12.01 0 6.68-5.77 12.01-13 12.01zm0-22.69c-6.43 0-11.69 4.86-11.69 10.8 0 5.95 5.26 10.8 11.7 10.8 6.43 0 11.69-4.85 11.69-10.8 0-5.94-5.26-10.8-11.7-10.8zm0 20.27c-5.64 0-10.37-4.25-10.37-9.59s4.6-9.58 10.38-9.58c5.64 0 10.37 4.24 10.37 9.58s-4.6 9.59-10.38 9.59zm0-17.84c-4.99 0-9.06 3.76-9.06 8.37 0 4.61 4.07 8.38 9.06 8.38 5 0 9.07-3.77 9.07-8.38 0-4.6-4.07-8.37-9.06-8.37zM256.03 121.2H47.97v1.22h208.06v-1.21z"/>
    <path d="M256.03 123.03H47.97c-.79 0-1.31-.49-1.31-1.21 0-.73.52-1.22 1.31-1.22h208.06c.79 0 1.31.49 1.31 1.22 0 .72-.52 1.2-1.31 1.2z"/>
    <path d="M256.03 123.64H47.97c-1.05 0-1.97-.85-1.97-1.82 0-.97.92-1.82 1.97-1.82h208.06c1.05 0 1.97.84 1.97 1.82 0 .97-.92 1.82-1.97 1.82zM47.97 121.2c-.4 0-.66.24-.66.6 0 .37.27.61.66.61h208.06c.4 0 .66-.24.66-.6 0-.37-.27-.61-.66-.61H47.97z"/>
    <path d="M248.8 123.03H117.47l19.57-31.18 16.68-29.97h56.87l38.23 61.15zm-126.75-2.43h122.16L209 64.3h-53.73L139.4 93.07l-17.34 27.54z"/>
    <path d="M249.99 123.64H116.4l20.1-32.16 16.81-30.33h57.67l.13.24 38.88 62.25zm-131.35-1.22h128.98L210.2 62.5h-56.1l-16.42 29.6-19.04 30.33zm126.75-1.21H121l17.87-28.51 16.15-29h54.51l.13.24 35.73 57.27zM123.24 120h119.92l-34.42-55.2h-53.06l-15.76 28.38L123.24 120z"/>
    <path d="M189.3 122.18l-38.75-64.43 1.19-.48 38.61 64.3-1.05.61z"/>
    <path d="M189.83 123.03a1.4 1.4 0 01-1.18-.6l-38.62-64.31c-.4-.6-.13-1.34.53-1.7a1.39 1.39 0 011.83.48l38.62 64.43c.4.6.13 1.34-.52 1.7h-.66z"/>
    <path d="M189.83 123.64c-.66 0-1.32-.37-1.7-.97l-38.76-64.31c-.26-.36-.26-.97-.13-1.33.13-.49.53-.85.92-1.1a2 2 0 011.45-.12c.52.12.91.49 1.18.85l38.62 64.43c.26.36.26.97.13 1.33-.13.49-.53.85-.92 1.1-.13.12-.4.12-.8.12zM151.08 56.9c-.13 0-.26 0-.26.13-.13.12-.26.24-.26.36v.48l38.61 64.43c.13.24.53.37.92.24.13-.12.26-.24.26-.36v-.49l-38.61-64.42c-.13-.12-.27-.24-.4-.24-.13-.13-.13-.13-.26-.13zm-62.65-9.94H87.1v74.86h1.32V46.96z"/>
    <path d="M87.77 123.03c-.79 0-1.31-.49-1.31-1.21V46.96c0-.73.52-1.22 1.31-1.22s1.31.49 1.31 1.21v74.87c0 .72-.65 1.2-1.31 1.2z"/>
    <path d="M87.77 123.64c-1.05 0-1.97-.85-1.97-1.82V46.96c0-.98.92-1.83 1.97-1.83 1.05 0 1.97.85 1.97 1.82v74.87c0 1.09-.92 1.82-1.97 1.82zm0-77.3c-.4 0-.66.25-.66.61v74.87c0 .36.27.6.66.6.4 0 .66-.24.66-.6V46.96c0-.37-.4-.61-.66-.61z"/>
    <path d="M102.09 63.1c-.4 0-.8-.13-1.05-.5L87.77 47.57l-13.4 15.05c-.4.48-1.31.6-1.84.12-.52-.49-.65-1.22-.13-1.7l15.37-17.35 15.37 17.35c.4.48.4 1.33-.13 1.7-.27.24-.53.36-.92.36z"/>
    <path d="M102.09 63.7c-.66 0-1.19-.24-1.58-.6L87.64 48.52 74.77 63.1c-.4.37-.8.6-1.32.6s-1.05-.11-1.44-.36a1.78 1.78 0 01-.27-2.54l15.9-17.96 16.02 17.84c.66.72.53 1.94-.26 2.54-.4.37-.79.49-1.31.49zM87.77 46.6l13.92 15.64c.13.25.53.37.92.12a.7.7 0 00.13-.85L87.77 44.65 72.8 61.51c-.27.25-.14.61.13.85.13.13.26.13.52.13.13 0 .4-.13.4-.25L87.77 46.6z"/>
    <path d="M105.63 80.68c-.4 0-.78-.12-1.05-.48L87.77 61.15 70.83 80.2c-.4.48-1.32.6-1.84.12a1.1 1.1 0 01-.13-1.7l18.9-21.35 18.92 21.35c.4.49.4 1.34-.13 1.7-.26.24-.65.36-.92.36z"/>
    <path d="M69.77 81.3c-.39 0-.91-.13-1.18-.37-.4-.37-.65-.73-.65-1.22 0-.48.13-.97.39-1.33l19.44-21.96 19.44 21.96c.66.73.53 1.94-.26 2.55-.8.6-2.1.48-2.76-.25L87.77 62.12 71.35 80.56c-.4.37-.79.61-1.31.61-.13.12-.13.12-.27.12zm18-22.94L69.38 79.11c-.13.12-.13.24-.13.48 0 .12.13.37.26.37.13.12.26.12.53.12.13 0 .4-.12.4-.24L87.9 60.18l17.2 19.66c.14.24.53.36.93.12a.7.7 0 00.13-.85l-18.4-20.75z"/>
    <path d="M107.47 97.67c-.4 0-.79-.12-1.05-.48L87.77 76.07 68.99 97.2c-.4.48-1.32.6-1.84.12-.53-.37-.66-1.22-.13-1.7L87.77 72.2l20.75 23.42c.4.48.4 1.33-.13 1.7-.26.24-.52.36-.92.36z"/>
    <path d="M67.94 98.28c-.4 0-.92-.12-1.19-.37-.4-.36-.65-.72-.65-1.2 0-.5.13-.98.4-1.34l21.27-24.03 21.28 23.9c.4.37.52.85.4 1.34 0 .48-.27.97-.66 1.21-.8.6-2.1.49-2.76-.24L87.77 76.92 69.5 97.55c-.4.36-.79.6-1.31.6-.13.13-.13.13-.26.13zm19.83-25.12L67.4 95.97c-.26.25-.13.6.13.85.13.12.26.12.53.12.13 0 .4-.12.4-.24l19.3-21.72 19.3 21.72c.14.24.53.36.93.12a.7.7 0 00.13-.85l-20.36-22.8zm66.73-8.36v29.35l-2.24 1.82-15.23 11.77 1.3 14.08 16.16-27.67"/>
    <path d="M137.81 124l-1.57-16.5 15.5-11.9 2.1-1.69V64.79h1.31v29.6l-.13.13-17.2 29.48zm-.13-16.02l1.18 11.77 13.4-23.05-14.58 11.28z"/>
    <path d="M138.34 123.03h-.26c-.53-.12-1.05-.6-1.05-1.1l-1.32-14.19c0-.36.13-.73.53-1.09l17.07-13.23V64.8c0-.73.53-1.21 1.32-1.21.78 0 1.31.48 1.31 1.21v29.36c0 .25 0 .37-.13.6l-16.16 27.8c-.4.36-.78.48-1.31.48zm0-14.8l.92 9.46 10.77-18.44-11.69 8.98z"/>
    <path d="M138.34 123.64h-.4a2.02 2.02 0 01-1.57-1.58l-1.31-14.2c0-.6.26-1.21.65-1.57l16.81-12.99V64.8c0-.98.92-1.83 1.98-1.83 1.05 0 1.97.85 1.97 1.82v29.36c0 .25-.14.6-.27.85l-16.15 27.79c-.27.48-.92.85-1.71.85zm16.16-59.46c-.4 0-.66.25-.66.61v29.12l-17.2 13.35c-.14.12-.27.36-.27.48l1.31 14.2c0 .24.26.48.53.48.26 0 .52-.12.66-.36l16.15-27.66c0-.13.13-.25.13-.25V64.8c0-.36-.26-.6-.65-.6zm-15.63 55.57l-1.19-11.77 14.58-11.16-13.4 22.93zm.13-11.28l.65 7.16 8.15-13.95-8.8 6.79z"/>
    <path d="M154.5 94.15l2.23 1.82 15.37 12.14-1.45 13.7-16.16-27.66z"/>
    <path d="M171.04 123.88l-18.9-32.4 4.98 4.13 15.63 12.25-1.7 16.02zm-14.31-27.06l13.4 23.06 1.3-11.53-14.7-11.53z"/>
    <path d="M170.65 123.03a1.4 1.4 0 01-1.18-.6L153.3 94.75a1.26 1.26 0 01.4-1.58 1.47 1.47 0 011.7 0l2.24 1.82 15.37 12.14c.26.24.52.6.39 1.09l-1.58 13.83c0 .48-.52.97-1.05 1.1 0-.13 0-.13-.13-.13zm-11.69-23.66l10.77 18.44 1.05-9.22-11.82-9.22z"/>
    <path d="M170.65 123.64c-.79 0-1.44-.37-1.7-.97L152.78 95a1.8 1.8 0 01.52-2.3 2.1 2.1 0 012.5 0l2.23 1.82 15.37 12.25c.53.37.79.97.66 1.58l-1.58 13.83a1.88 1.88 0 01-1.58 1.58c0-.12-.13-.12-.26-.12zm-16.16-30.1c-.13 0-.26 0-.39.13-.26.24-.26.48-.13.73l16.16 27.78c.13.24.52.36.65.36.26 0 .53-.24.53-.48l1.57-13.83c0-.25 0-.37-.26-.49L154.9 93.67c-.13-.12-.26-.12-.4-.12zm15.77 26.33l-13.4-23.05 14.71 11.53-1.31 11.53zm-9.07-17.95l8.15 13.83.79-6.92-8.94-6.91zm-3.31-44.76l-3.78 6.11 1.14.6 3.78-6.11-1.14-.6z"/>
    <path d="M154.63 64.79c-.26 0-.4 0-.66-.12-.66-.36-.79-1.1-.53-1.7l3.81-6.07c.4-.6 1.19-.72 1.84-.48.66.36.8 1.1.53 1.7l-3.81 6.06c-.26.49-.66.61-1.18.61z"/>
    <path d="M154.63 65.4c-.4 0-.66-.12-.92-.25-.4-.24-.79-.6-.92-1.09-.13-.48-.13-.97.13-1.33l3.8-6.07c.27-.36.67-.73 1.2-.85.52-.12 1.04-.12 1.44.12.39.25.78.61.91 1.1.14.48.14.97-.13 1.33l-3.8 6.07c-.27.6-.93.97-1.71.97zm3.8-8.5h-.13c-.13 0-.26.13-.39.25l-3.8 6.06a.35.35 0 000 .49c.12.12.12.24.25.36.27.12.8 0 .92-.24l3.81-6.07a.35.35 0 000-.48c-.13-.12-.13-.24-.26-.24-.13-.13-.26-.13-.4-.13zm51.37 8.5l-4.47-7.4c-.4-.61-.13-1.34.52-1.7a1.39 1.39 0 011.84.48l2.24 3.76 2.62-3.88c.4-.6 1.18-.73 1.84-.36.66.36.79 1.09.4 1.7l-5 7.4z"/>
    <path d="M209.66 66.61l-4.99-8.25c-.52-.85-.13-1.94.79-2.43.92-.48 2.1-.12 2.63.73l1.7 2.91 1.97-2.9c.53-.86 1.84-1.1 2.76-.62.92.49 1.18 1.7.66 2.55l-5.52 8.01zm-3.28-9.7c-.13 0-.26 0-.26.12-.27.12-.4.48-.27.84l3.94 6.44 4.34-6.44c.13-.24.13-.6-.26-.84a.73.73 0 00-.92.24L209.79 62l-2.89-4.61c0-.36-.26-.49-.52-.49zM134 11.89c-.78 0-1.3-.48-1.3-1.21V1.82c0-.73.52-1.21 1.3-1.21.8 0 1.32.48 1.32 1.21v8.86c0 .73-.53 1.21-1.31 1.21z"/>
    <path d="M134 12.5c-1.04 0-1.97-.85-1.97-1.82V1.82c0-.97.93-1.82 1.97-1.82 1.06 0 1.98.85 1.98 1.82v8.86c0 1.09-.8 1.82-1.97 1.82zm0-11.29c-.39 0-.65.25-.65.61v8.86c0 .36.26.6.66.6.39 0 .65-.24.65-.6V1.82c0-.36-.26-.6-.66-.6zm0 53.39c-.78 0-1.3-.49-1.3-1.21v-8.86c0-.73.52-1.21 1.3-1.21.8 0 1.32.48 1.32 1.2v8.87c0 .72-.53 1.2-1.31 1.2z"/>
    <path d="M134 55.2c-1.04 0-1.97-.84-1.97-1.81v-8.86c0-.97.93-1.82 1.97-1.82 1.06 0 1.98.85 1.98 1.82v8.86c0 1.09-.8 1.82-1.97 1.82zm0-11.28c-.39 0-.65.24-.65.6v8.87c0 .36.26.6.66.6.39 0 .65-.24.65-.6v-8.86c0-.37-.26-.6-.66-.6zm27.59-15.04H152c-.79 0-1.31-.49-1.31-1.22 0-.72.52-1.21 1.31-1.21h9.59c.79 0 1.31.49 1.31 1.21 0 .73-.66 1.22-1.31 1.22z"/>
    <path d="M161.59 29.48H152c-1.05 0-1.97-.85-1.97-1.82 0-.97.92-1.82 1.97-1.82h9.59c1.05 0 1.97.85 1.97 1.82 0 .97-.92 1.82-1.97 1.82zm-9.72-2.42c-.4 0-.66.24-.66.6 0 .37.26.61.66.61h9.72c.4 0 .66-.24.66-.6 0-.37-.27-.61-.66-.61h-9.72zm-36.65 1.82h-9.59c-.78 0-1.31-.49-1.31-1.22 0-.72.53-1.21 1.31-1.21h9.6c.78 0 1.3.49 1.3 1.21 0 .73-.52 1.22-1.3 1.22z"/>
    <path d="M115.22 29.48h-9.59c-1.05 0-1.97-.85-1.97-1.82 0-.97.92-1.82 1.97-1.82h9.6c1.04 0 1.96.85 1.96 1.82 0 .97-.79 1.82-1.97 1.82zm-9.59-2.42c-.4 0-.65.24-.65.6 0 .37.26.61.65.61h9.6c.39 0 .65-.24.65-.6 0-.37-.26-.61-.66-.61h-9.59zm41.51-9.83c-.4 0-.66-.12-.92-.37a1.11 1.11 0 010-1.7l6.83-6.3a1.34 1.34 0 011.84 0 1.1 1.1 0 010 1.7l-6.83 6.3c-.26.25-.53.37-.92.37z"/>
    <path d="M147.14 17.84a2.9 2.9 0 01-1.44-.49 1.67 1.67 0 010-2.55l6.83-6.3a2.01 2.01 0 012.75 0c.8.72.8 1.81 0 2.54l-6.83 6.31a2.1 2.1 0 01-1.31.49zm6.83-8.74c-.13 0-.4 0-.53.12l-6.82 6.31a.56.56 0 000 .85c.26.24.65.24.91 0l6.84-6.3a.56.56 0 000-.86c0-.12-.27-.12-.4-.12zm-39.54 38.34c-.39 0-.65-.12-.92-.36a1.11 1.11 0 010-1.7l6.83-6.31a1.34 1.34 0 011.84 0 1.1 1.1 0 010 1.7l-6.83 6.3a1.2 1.2 0 01-.92.37z"/>
    <path d="M114.43 48.05a2.9 2.9 0 01-1.44-.49 1.67 1.67 0 010-2.55l6.83-6.3a2.01 2.01 0 012.76 0c.78.72.78 1.81 0 2.54l-6.83 6.31a2.1 2.1 0 01-1.32.49zm6.83-8.74c-.13 0-.39 0-.52.12l-6.83 6.31a.56.56 0 000 .85c.26.24.66.24.92 0l6.83-6.3a.56.56 0 000-.86c0-.12-.27-.12-.4-.12zm32.44 7.77c-.39 0-.65-.13-.91-.37l-6.83-6.3a1.11 1.11 0 010-1.7 1.34 1.34 0 011.84 0l6.83 6.3c.52.49.52 1.22 0 1.7a1.5 1.5 0 01-.92.37z"/>
    <path d="M153.7 47.68a2.9 2.9 0 01-1.44-.48l-6.83-6.31a1.67 1.67 0 010-2.55 2.01 2.01 0 012.76 0l6.83 6.31c.79.73.79 1.82 0 2.55-.4.24-.79.48-1.31.48zm-6.82-8.73c-.13 0-.4 0-.53.12a.56.56 0 000 .85l6.83 6.3c.26.25.66.25.92 0a.56.56 0 000-.84l-6.83-6.31c-.13 0-.26-.12-.4-.12zM121 16.86c-.4 0-.66-.12-.92-.36l-6.83-6.3a1.11 1.11 0 010-1.7 1.34 1.34 0 011.84 0l6.83 6.3a1.1 1.1 0 010 1.7 1.5 1.5 0 01-.92.36z"/>
    <path d="M121 17.47a2.9 2.9 0 01-1.44-.48l-6.83-6.31a1.67 1.67 0 010-2.55 2.01 2.01 0 012.75 0l6.83 6.3c.8.74.8 1.83 0 2.56-.39.36-.78.48-1.3.48zm-6.83-8.73c-.13 0-.4 0-.53.12a.56.56 0 000 .85l6.84 6.3c.26.25.65.25.91 0a.56.56 0 000-.84l-6.83-6.31c-.13 0-.26-.12-.39-.12z"/>
  </g>
</svg>
