<?xml version="1.0" encoding="utf-8"?>
<!-- Generator: Adobe Illustrator 24.2.3, SVG Export Plug-In . SVG Version: 6.00 Build 0)  -->
<svg version="1.1" id="Layer_1" xmlns:sketch="http://www.bohemiancoding.com/sketch/ns"
	 xmlns="http://www.w3.org/2000/svg" xmlns:xlink="http://www.w3.org/1999/xlink" x="0px" y="0px" viewBox="0 0 2000 870"
	 style="enable-background:new 0 0 2000 870;" xml:space="preserve">
<g id="Page-1" sketch:type="MSPage">
	<g id="logo-red-copy" sketch:type="MSLayerGroup">
		<path id="Fill-1" sketch:type="MSShapeGroup" class="st0" d="M622.7,212.7l-10.1-7.7c1.8-2.2,143.7-192.4,143.7-192.4l10.2,7.7
			C765.1,22.1,623.3,211.9,622.7,212.7"/>
		<path id="Fill-2" sketch:type="MSShapeGroup" class="st0" d="M602.6,198.3l-10.9-6.7l44.2-71.7l10.9,6.7L602.6,198.3"/>
		<path id="Fill-3" sketch:type="MSShapeGroup" class="st0" d="M581.3,185.8l-11.4-5.7l48.1-96.6l11.4,5.7L581.3,185.8"/>
		<path id="Fill-4" sketch:type="MSShapeGroup" class="st0" d="M558.9,175.2l-11.9-4.6l44.4-113.7l11.9,4.6L558.9,175.2"/>
		<path id="Fill-5" sketch:type="MSShapeGroup" class="st0" d="M535.7,166.7l-12.3-3.6L570.7,0.2L583,3.8L535.7,166.7"/>
		<path id="Fill-6" sketch:type="MSShapeGroup" class="st0" d="M511.8,160.3l-12.5-2.4l22.5-115.4l12.5,2.4L511.8,160.3"/>
		<path id="Fill-7" sketch:type="MSShapeGroup" class="st0" d="M487.4,156.1l-12.7-1.3l11.1-107.3l12.7,1.3L487.4,156.1"/>
		<path id="Fill-8" sketch:type="MSShapeGroup" class="st0" d="M462.7,154.1l-12.8-0.2l1.1-80l12.8,0.2L462.7,154.1"/>
		<path id="Fill-9" sketch:type="MSShapeGroup" class="st0" d="M425.2,155.2L416,34.7l12.7-1l9.2,120.5L425.2,155.2"/>
		<path id="Fill-10" sketch:type="MSShapeGroup" class="st0" d="M400.8,158.8l-15.4-92l12.6-2.1l15.4,92.1L400.8,158.8"/>
		<path id="Fill-11" sketch:type="MSShapeGroup" class="st0" d="M376.7,164.5l-20.9-80l12.4-3.2l20.9,80L376.7,164.5"/>
		<path id="Fill-12" sketch:type="MSShapeGroup" class="st0" d="M353.2,172.4L315,66.3l12-4.3l38.2,106.1L353.2,172.4"/>
		<path id="Fill-13" sketch:type="MSShapeGroup" class="st0" d="M330.6,182.3L307.2,132l11.6-5.4l23.4,50.3L330.6,182.3"/>
		<path id="Fill-14" sketch:type="MSShapeGroup" class="st0" d="M308.9,194.2l-35.5-61.3l11.1-6.4l35.5,61.3L308.9,194.2"/>
		<path id="Fill-15" sketch:type="MSShapeGroup" class="st0" d="M288.4,208.1l-12.5-17.8l10.4-7.4l12.5,17.8L288.4,208.1"/>
		<path id="Fill-16" sketch:type="MSShapeGroup" class="st0" d="M269.2,223.7l-70.7-83.2l9.7-8.3l70.7,83.2L269.2,223.7"/>
		<path id="Fill-17" sketch:type="MSShapeGroup" class="st0" d="M251.5,240.9L188,178.6l9-9.1l63.5,62.3L251.5,240.9"/>
		<path id="Fill-18" sketch:type="MSShapeGroup" class="st0" d="M235.4,259.7l-96.6-79.2l8.1-9.9l96.6,79.2L235.4,259.7"/>
		<path id="Fill-19" sketch:type="MSShapeGroup" class="st0" d="M221,279.9l-89.1-60.5l7.2-10.6l89.1,60.5L221,279.9"/>
		<path id="Fill-20" sketch:type="MSShapeGroup" class="st0" d="M208.5,301.2L40.7,208l6.2-11.2l167.9,93.2L208.5,301.2"/>
		<path id="Fill-21" sketch:type="MSShapeGroup" class="st0" d="M198,323.6l-61.8-27.4l5.2-11.7l61.8,27.4L198,323.6"/>
		<path id="Fill-22" sketch:type="MSShapeGroup" class="st0" d="M189.5,346.9L29.2,292.4l4.1-12.1l160.3,54.4L189.5,346.9"/>
		<path id="Fill-23" sketch:type="MSShapeGroup" class="st0" d="M0,326.4l183.2,44.4l3-12.4L3,314L0,326.4"/>
		<path id="Fill-24" sketch:type="MSShapeGroup" class="st0" d="M179,395.2L104.4,384l1.9-12.6l74.6,11.1L179,395.2"/>
		<path id="Fill-25" sketch:type="MSShapeGroup" class="st0" d="M177,419.8l-136.7-8l0.7-12.8l136.7,8L177,419.8"/>
		<path id="Fill-26" sketch:type="MSShapeGroup" class="st0" d="M72.9,447.9l-0.4-12.8l104.3-3.3l0.4,12.8L72.9,447.9"/>
		<path id="Fill-27" sketch:type="MSShapeGroup" class="st0" d="M47.2,485.3l-1.5-12.7l132.4-16.2l1.5,12.7L47.2,485.3"/>
		<path id="Fill-28" sketch:type="MSShapeGroup" class="st0" d="M105.4,510.4l-2.7-12.5l79-16.9l2.7,12.5L105.4,510.4"/>
		<path id="Fill-29" sketch:type="MSShapeGroup" class="st0" d="M161.5,526.4l-3.8-12.2l29.6-9.2l3.8,12.2L161.5,526.4"/>
		<path id="Fill-30" sketch:type="MSShapeGroup" class="st0" d="M110.2,577.3l-4.9-11.8l89.8-37l4.9,11.8L110.2,577.3"/>
		<path id="Fill-31" sketch:type="MSShapeGroup" class="st0" d="M111.4,614.4l-5.9-11.3l99.6-51.9l5.9,11.3L111.4,614.4"/>
		<path id="Fill-32" sketch:type="MSShapeGroup" class="st0" d="M112.1,655.3l-6.9-10.8L217,572.9l6.9,10.8L112.1,655.3"/>
		<path id="Fill-33" sketch:type="MSShapeGroup" class="st0" d="M143,677.7l-7.8-10.1l95.6-74.2l7.8,10.1L143,677.7"/>
		<path id="Fill-34" sketch:type="MSShapeGroup" class="st0" d="M171.4,699.9l-8.7-9.4l83.7-77.9l8.7,9.4L171.4,699.9"/>
		<path id="Fill-35" sketch:type="MSShapeGroup" class="st0" d="M194.3,726.7l-9.5-8.5l78.8-87.8l9.5,8.5L194.3,726.7"/>
		<path id="Fill-36" sketch:type="MSShapeGroup" class="st0" d="M228.3,740.2l-10.2-7.6l64.2-86l10.2,7.7L228.3,740.2"/>
		<path id="Fill-37" sketch:type="MSShapeGroup" class="st0" d="M284.8,714l-10.9-6.7l28.5-46.4l10.9,6.7L284.8,714"/>
		<path id="Fill-38" sketch:type="MSShapeGroup" class="st0" d="M271.6,806.8l-11.4-5.7l63.6-127.7l11.4,5.7L271.6,806.8"/>
		<path id="Fill-39" sketch:type="MSShapeGroup" class="st0" d="M319.5,787.4l-11.9-4.6l38.6-98.8l11.9,4.6L319.5,787.4"/>
		<path id="Fill-40" sketch:type="MSShapeGroup" class="st0" d="M362.8,761.1l-12.3-3.6l18.9-65.1l12.3,3.6L362.8,761.1"/>
		<path id="Fill-41" sketch:type="MSShapeGroup" class="st0" d="M387.2,796.8l-12.5-2.4l18.6-95.5l12.5,2.4L387.2,796.8"/>
		<path id="Fill-42" sketch:type="MSShapeGroup" class="st0" d="M420.2,802.9l-12.7-1.3l10.2-98.4l12.7,1.3L420.2,802.9"/>
		<path id="Fill-43" sketch:type="MSShapeGroup" class="st0" d="M454.2,773l-12.8-0.2l0.9-67.7l12.8,0.2L454.2,773"/>
		<path id="Fill-44" sketch:type="MSShapeGroup" class="st0" d="M475.2,811.2l-8.1-106.3l12.7-1l8.1,106.3L475.2,811.2"/>
		<path id="Fill-45" sketch:type="MSShapeGroup" class="st0" d="M513.4,831.6l-21.7-129.1l12.6-2.1L526,829.5L513.4,831.6"/>
		<path id="Fill-46" sketch:type="MSShapeGroup" class="st0" d="M561,869.8l-45-171.9l12.4-3.2l45,171.9L561,869.8"/>
		<path id="Fill-47" sketch:type="MSShapeGroup" class="st0" d="M566.6,765.5l-26.8-74.4l12-4.3l26.8,74.4L566.6,765.5"/>
		<path id="Fill-48" sketch:type="MSShapeGroup" class="st0" d="M608.1,779.5l-45.2-97.2l11.6-5.4l45.2,97.2L608.1,779.5"/>
		<path id="Fill-49" sketch:type="MSShapeGroup" class="st0" d="M690.6,853.4l-105.5-182l11.1-6.4l105.5,182L690.6,853.4"/>
		<path id="Fill-50" sketch:type="MSShapeGroup" class="st0" d="M674.4,755l-68.2-96.5l10.4-7.4l68.2,96.5L674.4,755"/>
		<path id="Fill-51" sketch:type="MSShapeGroup" class="st0" d="M632.8,651.8l-6.7-8l9.7-8.3l6.7,8L632.8,651.8"/>
		<path id="Fill-52" sketch:type="MSShapeGroup" class="st0" d="M724.7,705.9l-80-78.6l9-9.1l80,78.6L724.7,705.9"/>
		<path id="Fill-53" sketch:type="MSShapeGroup" class="st0" d="M729.1,664.6l-67.5-55.3l8.1-9.9l67.5,55.3L729.1,664.6"/>
		<path id="Fill-54" sketch:type="MSShapeGroup" class="st0" d="M764.1,649.2l-87.3-59.3l7.2-10.6l87.3,59.3L764.1,649.2"/>
		<path id="Fill-55" sketch:type="MSShapeGroup" class="st0" d="M759.3,607.4l-68.9-38.3l6.2-11.2l68.9,38.3L759.3,607.4"/>
		<path id="Fill-56" sketch:type="MSShapeGroup" class="st0" d="M837.9,607.5l-136-60.3l5.2-11.7l136,60.3L837.9,607.5"/>
		<path id="Fill-57" sketch:type="MSShapeGroup" class="st0" d="M744.7,535.7l-33.3-11.3l4.1-12.1l33.3,11.3L744.7,535.7"/>
		<path id="Fill-58" sketch:type="MSShapeGroup" class="st0" d="M848.2,532.2c0,0-125.7-30.5-129.4-31.4l3-12.3
			c0.7,0.2,129.3,31.3,129.3,31.3L848.2,532.2"/>
		<path id="Fill-59" sketch:type="MSShapeGroup" class="st0" d="M828.5,492.2l-104.3-15.5l1.9-12.6l104.3,15.5L828.5,492.2"/>
		<path id="Fill-60" sketch:type="MSShapeGroup" class="st0" d="M817.2,457.4l-89.9-5.2l0.7-12.8l89.9,5.2L817.2,457.4"/>
		<path id="Fill-61" sketch:type="MSShapeGroup" class="st0" d="M728.3,427.4l-0.4-12.8l66.9-2.1l0.4,12.8L728.3,427.4"/>
		<path id="Fill-62" sketch:type="MSShapeGroup" class="st0" d="M726.9,402.7l-1.5-12.7l57.7-7l1.5,12.7L726.9,402.7"/>
		<path id="Fill-63" sketch:type="MSShapeGroup" class="st0" d="M723.4,378.2l-2.7-12.5l82.8-17.7l2.7,12.5L723.4,378.2"/>
		<path id="Fill-64" sketch:type="MSShapeGroup" class="st0" d="M717.7,354.1l-3.8-12.2l38.2-11.9l3.8,12.2L717.7,354.1"/>
		<path id="Fill-65" sketch:type="MSShapeGroup" class="st0" d="M709.9,330.7l-4.9-11.8l53.4-22l4.9,11.8L709.9,330.7"/>
		<path id="Fill-66" sketch:type="MSShapeGroup" class="st0" d="M700,308l-5.9-11.3L810.5,236l5.9,11.3L700,308"/>
		<path id="Fill-67" sketch:type="MSShapeGroup" class="st0" d="M688.1,286.3l-6.9-10.8l141.3-90.6l6.9,10.8L688.1,286.3"/>
		<path id="Fill-68" sketch:type="MSShapeGroup" class="st0" d="M674.3,265.8l-7.8-10.1l30.2-23.4l7.8,10.1L674.3,265.8"/>
		<path id="Fill-69" sketch:type="MSShapeGroup" class="st0" d="M658.8,246.5l-8.6-9.4c2-1.9,21.2-19.8,21.2-19.8l8.7,9.4
			C680.1,226.7,659.2,246.1,658.8,246.5"/>
		<path id="Fill-70" sketch:type="MSShapeGroup" class="st0" d="M641.5,228.8l-9.5-8.5L776.6,59.1l9.5,8.5L641.5,228.8"/>
		<path id="Fill-71" sketch:type="MSShapeGroup" class="st0" d="M409.3,468.1c-0.7,2.7-1.9,4.8-3.9,7c-1.9,2.2-4.3,3.9-7.7,5.1
			s-7.7,1.9-12.8,1.9h-27.5v-42h27.3c5.1,0,9.2,0.5,12.3,1.4c3.1,1,5.8,2.2,7.7,3.9c1.9,1.7,3.4,3.9,4.3,6.3
			c0.7,2.7,1.2,5.3,1.2,8.5C410.3,462.8,410,465.4,409.3,468.1L409.3,468.1z M357.4,372.5h22.9c4.3,0,8.2,0.5,11.4,1
			c3.1,0.5,6,1.7,8,3.4c1.9,1.7,3.6,3.9,4.6,6.5c1,2.9,1.4,6,1.4,10.1c0,4.1-0.7,7.5-1.9,10.1c-1.2,2.7-3.1,4.8-5.6,6.3
			c-2.4,1.5-5.6,2.4-8.9,3.1c-3.4,0.7-7.2,1-11.6,1.2h-20.3V372.5L357.4,372.5z M440.7,437.4c-5.3-6-13.5-10.4-24.6-13
			c5.1-1.9,9.4-4.1,13-6.5c3.6-2.7,6.5-5.3,8.9-8.5c2.2-3.1,4.1-6.3,5.1-9.9c1.2-3.4,1.7-7,1.7-10.9c0-7-1.2-13-3.6-18.8
			c-2.4-5.8-6.3-10.6-11.4-14.5c-5.1-3.9-11.8-7-20-9.2c-8.2-2.2-18.1-3.1-29.7-3.1H318v168.8h67.4c10.1,0,19.1-1.2,27.1-3.9
			c7.7-2.7,14.5-6.3,19.8-10.9c5.6-4.6,9.4-9.9,12.3-16.2c2.9-6,4.3-12.8,4.1-20C448.7,451.2,446,443.5,440.7,437.4L440.7,437.4z"/>
		<path id="Fill-72" sketch:type="MSShapeGroup" class="st0" d="M578.8,372.9v-30H470.2v168.8h108.7v-30.2h-69.3v-40.3h53.1v-29
			h-53.1v-39.4H578.8"/>
		<path id="Fill-73" sketch:type="MSShapeGroup" class="st0" d="M999.5,264.9c-16.5,0-26,11.1-26,29.4c0,18.6,9.7,29.4,26,29.4
			c16.3,0,25.9-10.9,25.9-29.4C1025.5,276,1015.8,264.9,999.5,264.9L999.5,264.9z M999.5,341.5c-28.8,0-48-20.4-48-47.1
			c0-26.7,19.2-47.1,48-47.1c28.6,0,47.8,20.6,47.8,47.1C1047.3,320.9,1028.2,341.5,999.5,341.5L999.5,341.5z"/>
		<path id="Fill-74" sketch:type="MSShapeGroup" class="st0" d="M1106.7,293.5h11.1c11.1,0,15.7-5.6,15.7-15.1
			c0-8.3-4.9-14.1-15.7-14.1h-11.1V293.5L1106.7,293.5z M1106.7,309.7v30.8h-21.4v-92.3h32.5c25.9,0,37.1,13.1,37.1,30.1
			c0,18.4-11.6,31.3-37.1,31.3H1106.7L1106.7,309.7z"/>
		<path id="Fill-75" sketch:type="MSShapeGroup" class="st0" d="M1253.4,248.2v16.5h-37.8v21.4h28.9V302h-28.9v22h37.8v16.5H1194
			v-92.3H1253.4"/>
		<path id="Fill-76" sketch:type="MSShapeGroup" class="st0" d="M1316.6,251.4l43.7,55.3c-0.3-3.6-0.5-7-0.5-9.9V248h18.9v92.3
			h-11.1c-3.2,0-5.4-0.9-7.5-3.6l-43.4-55c0.2,3.2,0.5,6.3,0.5,9v49.4h-18.9v-92.3h11.2C1313.2,248.2,1314.4,248.7,1316.6,251.4"/>
		<path id="Fill-77" sketch:type="MSShapeGroup" class="st0" d="M977.7,456.6h3.4c3.2,0,5.5-1,6.8-2.9l20.8-30.1
			c2.2-3.2,4.9-4.3,9.2-4.3h18.6l-27.2,37.3c-2,2.7-4.1,4.4-6.3,5.6c3.2,1.2,5.8,3.1,8,6.6l27.9,42.7h-19.1c-4.9,0-6.6-1.4-8.3-3.9
			l-20.9-32.2c-1.5-2.4-3.6-3.2-7.7-3.2h-5.1v39.3h-21.3v-92.3h21.4v37.3H977.7"/>
		<path id="Fill-78" sketch:type="MSShapeGroup" class="st0" d="M1097.8,422.5l43.7,55.3c-0.3-3.6-0.5-7-0.5-9.9v-48.9h18.9v92.3
			h-11.1c-3.2,0-5.4-0.9-7.5-3.6l-43.4-55c0.2,3.2,0.5,6.3,0.5,9v49.4h-18.9v-92.3h11.2C1094.4,419.3,1095.5,419.8,1097.8,422.5"/>
		<path id="Fill-79" sketch:type="MSShapeGroup" class="st0" d="M1248.8,436c-16.5,0-26,11.1-26,29.4c0,18.6,9.7,29.4,26,29.4
			c16.3,0,25.9-10.9,25.9-29.4C1274.7,447,1265.2,436,1248.8,436L1248.8,436z M1248.8,512.6c-28.8,0-48-20.4-48-47.1
			s19.2-47.1,48-47.1c28.6,0,47.8,20.6,47.8,47.1C1296.7,492,1277.4,512.6,1248.8,512.6L1248.8,512.6z"/>
		<path id="Fill-80" sketch:type="MSShapeGroup" class="st0" d="M1320.2,419.3h18c3.7,0,6.3,1.9,7.1,4.6l12.6,48.2
			c0.9,3.1,1.7,6.6,2.2,10.6c0.8-3.9,1.9-7.5,2.9-10.6l15-48.2c0.7-2.4,3.4-4.6,7-4.6h6.3c3.8,0,6.1,1.7,7.1,4.6l14.8,48.2
			c1,2.9,2,6.3,2.7,10c0.7-3.7,1.4-7.1,2.2-10l12.6-48.2c0.7-2.6,3.4-4.6,7-4.6h16.8l-28.4,92.3h-19.4l-17.4-57.2
			c-0.5-1.7-1.2-3.9-1.9-6.3c-0.5,2.4-1.2,4.4-1.9,6.3l-17.5,57.2h-19.4L1320.2,419.3"/>
		<path id="Fill-81" sketch:type="MSShapeGroup" class="st0" d="M1514.4,494.4h34.2v17h-55.7v-92.3h21.4V494.4"/>
		<path id="Fill-82" sketch:type="MSShapeGroup" class="st0" d="M1653.4,419.3v16.5h-37.8v21.4h28.9v15.8h-28.9v22h37.8v16.5H1594
			v-92.3H1653.4"/>
		<path id="Fill-83" sketch:type="MSShapeGroup" class="st0" d="M1734.1,435.8h-14.3V495h14.3c16.3,0,25.9-11.2,25.9-29.6
			C1760.2,447,1750.5,435.8,1734.1,435.8L1734.1,435.8z M1734.1,511.5h-35.7v-92.3h35.7c28.6,0,47.8,19.6,47.8,46.1
			C1782.1,492,1762.9,511.5,1734.1,511.5L1734.1,511.5z"/>
		<path id="Fill-84" sketch:type="MSShapeGroup" class="st0" d="M1877.9,493.3v-14h-9.2c-2.7,0-4.2-1.5-4.2-3.7v-11.7h32.8v39
			c-9.4,7-20.3,9.9-35.4,9.9c-26.9,0-47.1-20.1-47.1-47.1c0-27.6,19.1-47.1,48.7-47.1c15.5,0,26.9,5.3,34.4,12.4l-6.1,9.4
			c-1.2,1.7-2.9,2.9-4.8,2.9c-1.2,0-2.6-0.5-3.9-1.2c-6.8-4.1-11.6-5.8-20.1-5.8c-16,0-26,11.7-26,29.4c0,19.6,11.4,30.6,26.9,30.6
			C1869.4,496.1,1873.9,495,1877.9,493.3"/>
		<path id="Fill-85" sketch:type="MSShapeGroup" class="st0" d="M2000,419.3v16.5h-37.8v21.4h28.9v15.8h-28.9v22h37.8v16.5h-59.4
			v-92.3H2000"/>
		<path id="Fill-86" sketch:type="MSShapeGroup" class="st0" d="M972.1,641.2v31.5h19.6c3.6,0,6.5-0.3,9-1.2
			c2.6-0.9,4.6-1.9,6.1-3.4c1.7-1.5,2.9-3.2,3.6-5.1c0.7-2,1.2-4.3,1.2-6.6c0-4.8-1.7-8.3-4.9-11.1c-3.2-2.7-8.3-4.1-15-4.1H972.1
			L972.1,641.2z M972.1,632.4h16.2c3.4,0,6.5-0.3,9-1.2c2.5-0.9,4.6-1.9,6.3-3.2c1.7-1.4,2.9-3.1,3.7-4.9c0.9-1.9,1.2-4.1,1.2-6.3
			c0-5.3-1.5-9.2-4.8-11.7c-3.2-2.6-8.2-3.7-15-3.7h-16.7V632.4L972.1,632.4z M959.8,682.6v-90.7h28.9c5.6,0,10.4,0.5,14.5,1.7
			c4.1,1.2,7.3,2.7,9.9,4.8c2.5,2,4.6,4.4,5.8,7.5c1.2,2.9,1.9,6.3,1.9,9.9c0,2.2-0.3,4.4-1,6.5c-0.7,2-1.7,3.9-3.2,5.8
			c-1.4,1.7-3.2,3.4-5.3,4.8c-2.2,1.4-4.6,2.6-7.5,3.4c6.6,1.4,11.6,3.7,15,7.1c3.4,3.4,5.1,8,5.1,13.6c0,3.9-0.7,7.3-2,10.6
			c-1.4,3.2-3.4,6-6.1,8.2c-2.7,2.2-6.1,4.1-10,5.3c-3.9,1.2-8.5,1.9-13.5,1.9h-32.3V682.6L959.8,682.6z"/>
		<path id="Fill-87" sketch:type="MSShapeGroup" class="st0" d="M1135.5,591.9v10h-43.6v30.1h35.2v9.7h-35.2v31h43.6v10h-55.8v-90.7
			h55.8V591.9"/>
		<path id="Fill-88" sketch:type="MSShapeGroup" class="st0" d="M1203.6,672.2h39.3v10.4h-51.6v-90.7h12.2V672.2"/>
		<path id="Fill-89" sketch:type="MSShapeGroup" class="st0" d="M1334.6,673.6c2.4,0,4.8-0.2,6.8-0.3c2-0.2,3.9-0.5,5.8-1
			c1.9-0.5,3.6-1,5.1-1.7c1.5-0.7,3.2-1.4,4.8-2.2v-20.1H1343c-0.8,0-1.4-0.2-1.9-0.7c-0.5-0.5-0.7-1-0.7-1.7v-7h27.9v34.9
			c-2.2,1.7-4.6,3.1-7.1,4.3c-2.4,1.2-5.1,2.2-7.8,3.1c-2.7,0.9-5.8,1.4-9,1.9c-3.2,0.3-6.6,0.7-10.4,0.7c-6.6,0-12.6-1.2-18-3.4
			c-5.5-2.2-10.2-5.4-14.1-9.5c-3.9-4.1-7-9-9.2-14.6c-2.2-5.6-3.4-11.9-3.4-18.7c0-7,1-13.3,3.2-18.9c2.2-5.6,5.3-10.6,9.4-14.6
			c4.1-4.1,8.8-7.1,14.6-9.5c5.8-2.2,12.1-3.4,19.2-3.4c3.6,0,7,0.3,10,0.9c3.1,0.5,6,1.4,8.5,2.2c2.7,1,5.1,2.2,7.3,3.6
			c2.2,1.4,4.2,3.1,6.3,4.8l-3.4,5.6c-0.7,1.2-1.7,1.7-2.7,1.7c-0.7,0-1.4-0.2-2.2-0.7c-1-0.5-2.2-1.4-3.6-2.2s-2.9-1.7-4.8-2.4
			c-1.9-0.7-4.1-1.4-6.6-2c-2.6-0.7-5.6-0.9-9-0.9c-5.1,0-9.7,0.9-13.8,2.6c-4.1,1.7-7.7,4.1-10.6,7.1c-2.9,3.1-5.1,6.8-6.6,11.2
			c-1.5,4.4-2.4,9.4-2.4,14.8c0,5.8,0.8,10.9,2.4,15.3c1.7,4.4,3.9,8.3,6.8,11.4c2.9,3.1,6.5,5.4,10.6,7.1
			C1325.3,672.7,1329.9,673.6,1334.6,673.6"/>
		<path id="Fill-90" sketch:type="MSShapeGroup" class="st0" d="M1427.4,591.9h12.3v90.7h-12.3V591.9z"/>
		<path id="Fill-91" sketch:type="MSShapeGroup" class="st0" d="M1537.3,672.7c3.7,0,7.2-0.7,10-1.9c2.9-1.2,5.4-3.1,7.5-5.3
			c2.1-2.2,3.6-4.9,4.8-8.2c1.2-3.2,1.5-6.6,1.5-10.4v-55.2h12.3V647c0,5.3-0.9,10-2.6,14.6c-1.7,4.4-4.1,8.3-7.2,11.6
			c-3.1,3.2-6.8,5.8-11.4,7.7c-4.4,1.9-9.5,2.7-15.1,2.7s-10.6-0.9-15.2-2.7s-8.3-4.4-11.4-7.7c-3.1-3.2-5.4-7.1-7.2-11.6
			c-1.7-4.4-2.6-9.4-2.6-14.6v-55.2h12.3V647c0,3.7,0.5,7.3,1.5,10.4c1,3.1,2.6,6,4.8,8.2c2.2,2.2,4.6,4.1,7.5,5.3
			C1529.9,672.1,1533.4,672.7,1537.3,672.7"/>
		<path id="Fill-92" sketch:type="MSShapeGroup" class="st0" d="M1678.6,653c0.5,1.2,0.8,2.2,1.4,3.4c0.3-1.2,0.8-2.4,1.4-3.4
			c0.5-1,1-2.2,1.5-3.2l30.6-55.8c0.5-1,1.2-1.5,1.7-1.7c0.5-0.2,1.4-0.3,2.6-0.3h9v90.7h-10.7v-66.7V613c0-1,0.2-2,0.2-3.1
			l-31.2,56.7c-1,1.9-2.5,2.9-4.4,2.9h-1.7c-1.9,0-3.4-1-4.4-2.9l-31.8-56.9c0.2,1,0.2,2.2,0.3,3.2c0,1,0.2,2,0.2,2.9v66.7h-10.7
			v-90.7h9c1,0,1.9,0.2,2.6,0.3c0.5,0.2,1.2,0.9,1.7,1.7l31.3,55.8C1677.6,650.8,1678.1,651.8,1678.6,653"/>
	</g>
</g>
</svg>
