<svg width="197" height="175" viewBox="0 0 312 260" fill="none" xmlns="http://www.w3.org/2000/svg">
<path d="M238.89 129.134C236.233 128.826 233.562 129.586 231.465 131.247C229.368 132.907 228.016 135.333 227.707 137.99L247.746 140.318C248.054 137.661 247.294 134.99 245.633 132.893C243.973 130.796 241.547 129.444 238.89 129.134Z" fill="white"/>
<path d="M249.496 142.527L225.498 139.741L225.717 137.751C226.096 134.573 227.717 131.674 230.226 129.686C232.735 127.699 235.929 126.785 239.109 127.144C240.685 127.327 242.209 127.819 243.595 128.591C244.981 129.363 246.201 130.4 247.186 131.644C248.171 132.887 248.901 134.313 249.335 135.839C249.769 137.365 249.898 138.961 249.715 140.537L249.496 142.527ZM230.154 136.279L245.755 138.09C245.519 136.302 244.692 134.644 243.407 133.379C242.122 132.115 240.451 131.315 238.66 131.107C236.869 130.899 235.06 131.295 233.519 132.232C231.978 133.168 230.794 134.593 230.154 136.279Z" fill="#495747"/>
<path d="M87.8153 223.383C86.3707 223.42 84.9565 222.965 83.8036 222.094C82.6506 221.223 81.8271 219.987 81.4674 218.587L56.4342 105.154C56.2744 104.411 56.2679 103.643 56.415 102.897C56.5622 102.151 56.8598 101.443 57.2899 100.816C57.7781 100.093 58.4098 99.4772 59.1458 99.0082C59.8818 98.5392 60.7063 98.2265 61.5682 98.0895L114.361 88.8557C114.723 88.8051 115.069 88.6761 115.376 88.4776L151.234 65.9502C152.682 65.0498 154.411 64.7166 156.09 65.0149L198.773 72.6169C199.992 72.8048 201.128 73.349 202.038 74.1812C202.948 75.0134 203.592 76.0963 203.887 77.2935L227.11 182.249C227.287 183.068 227.279 183.917 227.086 184.733C226.893 185.549 226.521 186.312 225.996 186.965C225.381 187.732 224.603 188.351 223.718 188.778C222.833 189.205 221.864 189.429 220.881 189.433L182.536 190.05C182.015 190.044 181.503 190.19 181.063 190.468L144.369 213.114C143.632 213.571 142.815 213.881 141.961 214.03L89.0092 223.264C88.6162 223.343 88.2162 223.383 87.8153 223.383ZM154.776 68.8955C154.236 68.8877 153.705 69.0325 153.244 69.3134L117.405 91.7811C116.666 92.2456 115.84 92.5569 114.978 92.6965L62.2647 101.93C61.9316 101.977 61.6115 102.091 61.3241 102.265C61.0366 102.44 60.7879 102.671 60.5931 102.945C60.4617 103.127 60.3706 103.334 60.326 103.554C60.2814 103.774 60.2843 104 60.3344 104.219L85.3478 217.652C85.5488 218.244 85.9656 218.739 86.5151 219.038C87.0646 219.336 87.7064 219.417 88.3128 219.264L141.284 210.109C141.637 210.047 141.974 209.918 142.279 209.731L178.874 187.065C179.931 186.425 181.141 186.081 182.376 186.07L220.722 185.453C221.103 185.446 221.478 185.357 221.822 185.192C222.165 185.028 222.469 184.791 222.712 184.498C222.876 184.309 222.993 184.085 223.055 183.843C223.117 183.601 223.123 183.349 223.07 183.104L199.888 78.1492C199.757 77.7114 199.497 77.3232 199.142 77.0356C198.787 76.748 198.353 76.5743 197.898 76.5373L155.214 68.9353L154.776 68.8955Z" fill="#495747"/>
<path d="M233.1 222.627C256.333 222.627 275.167 203.792 275.167 180.557C275.167 157.323 256.333 138.488 233.1 138.488C209.867 138.488 191.033 157.323 191.033 180.557C191.033 203.792 209.867 222.627 233.1 222.627Z" fill="white"/>
<path d="M233.179 224.637C231.457 224.636 229.736 224.536 228.025 224.338C219.37 223.336 211.206 219.79 204.566 214.147C197.926 208.505 193.108 201.02 190.721 192.64C188.334 184.259 188.486 175.359 191.157 167.065C193.828 158.77 198.898 151.454 205.727 146.042C212.556 140.629 220.836 137.363 229.52 136.656C238.205 135.95 246.904 137.835 254.518 142.072C262.131 146.31 268.318 152.71 272.294 160.463C276.271 168.217 277.859 176.976 276.858 185.632C275.62 196.356 270.488 206.252 262.436 213.442C254.384 220.632 243.974 224.615 233.179 224.637ZM233.02 140.478C225.294 140.495 217.738 142.744 211.261 146.956C204.784 151.168 199.662 157.162 196.513 164.217C193.363 171.272 192.319 179.087 193.508 186.722C194.696 194.356 198.065 201.484 203.21 207.248C208.355 213.012 215.057 217.166 222.507 219.209C229.958 221.253 237.841 221.099 245.206 218.767C252.571 216.435 259.106 212.023 264.022 206.063C268.939 200.103 272.028 192.849 272.918 185.174C274.128 174.616 271.102 164.008 264.503 155.678C257.904 147.347 248.271 141.974 237.716 140.736C236.157 140.561 234.589 140.475 233.02 140.478Z" fill="#495747"/>
<path d="M154.14 67.1813L150.261 68.0699L178 189.192L181.879 188.304L154.14 67.1813Z" fill="#495747"/>
<path d="M117.603 89.7695L113.698 90.5399L137.816 212.8L141.721 212.03L117.603 89.7695Z" fill="#495747"/>
<path d="M258.551 226.149H63.5383C63.0105 226.149 62.5044 225.94 62.1312 225.566C61.758 225.193 61.5483 224.687 61.5483 224.159C61.5483 223.631 61.758 223.125 62.1312 222.752C62.5044 222.379 63.0105 222.169 63.5383 222.169H258.551C259.078 222.169 259.585 222.379 259.958 222.752C260.331 223.125 260.541 223.631 260.541 224.159C260.541 224.687 260.331 225.193 259.958 225.566C259.585 225.94 259.078 226.149 258.551 226.149Z" fill="#495747"/>
<path d="M50.9023 225.532H22.8444C22.3167 225.532 21.8105 225.323 21.4373 224.949C21.0641 224.576 20.8545 224.07 20.8545 223.542C20.8545 223.015 21.0641 222.508 21.4373 222.135C21.8105 221.762 22.3167 221.552 22.8444 221.552H50.9023C51.4301 221.552 51.9362 221.762 52.3094 222.135C52.6826 222.508 52.8923 223.015 52.8923 223.542C52.8923 224.07 52.6826 224.576 52.3094 224.949C51.9362 225.323 51.4301 225.532 50.9023 225.532Z" fill="#495747"/>
<path d="M106.003 204.617C105.511 204.62 105.036 204.441 104.668 204.113C104.301 203.786 104.067 203.335 104.013 202.846C104.013 202.846 103.854 201.294 103.735 198.766C103.723 198.505 103.763 198.244 103.852 197.998C103.941 197.752 104.078 197.526 104.254 197.333C104.431 197.14 104.643 196.983 104.88 196.872C105.117 196.761 105.374 196.698 105.635 196.687C105.896 196.675 106.157 196.715 106.403 196.804C106.649 196.893 106.875 197.03 107.068 197.206C107.261 197.383 107.418 197.595 107.529 197.832C107.64 198.069 107.703 198.326 107.715 198.587C107.715 200.975 107.973 202.388 107.973 202.408C108.029 202.93 107.876 203.453 107.548 203.863C107.22 204.273 106.744 204.537 106.222 204.597L106.003 204.617Z" fill="#495747"/>
<path d="M105.685 192.438C105.157 192.438 104.651 192.228 104.278 191.855C103.904 191.482 103.695 190.976 103.695 190.448C103.695 187.622 103.973 184.816 104.272 182.09C104.299 181.828 104.378 181.575 104.503 181.344C104.629 181.113 104.798 180.909 105.002 180.744C105.207 180.578 105.441 180.455 105.693 180.38C105.945 180.305 106.209 180.281 106.471 180.308C106.732 180.336 106.985 180.415 107.216 180.54C107.447 180.665 107.651 180.835 107.817 181.039C107.982 181.243 108.106 181.478 108.18 181.73C108.255 181.982 108.279 182.246 108.252 182.507C107.953 185.134 107.774 187.861 107.675 190.468C107.669 190.992 107.457 191.493 107.085 191.862C106.712 192.231 106.209 192.438 105.685 192.438ZM107.476 176.1H107.098C106.832 176.057 106.578 175.961 106.351 175.817C106.124 175.673 105.928 175.485 105.776 175.264C105.623 175.043 105.517 174.793 105.464 174.529C105.411 174.266 105.411 173.995 105.466 173.731C105.989 170.973 106.653 168.243 107.456 165.552C107.531 165.301 107.655 165.067 107.821 164.864C107.987 164.661 108.191 164.492 108.422 164.368C108.653 164.244 108.907 164.167 109.168 164.142C109.429 164.116 109.692 164.142 109.943 164.219C110.207 164.277 110.455 164.388 110.675 164.545C110.894 164.702 111.079 164.902 111.219 165.133C111.358 165.363 111.449 165.62 111.487 165.887C111.524 166.154 111.507 166.426 111.436 166.687C110.699 169.174 110.043 171.781 109.446 174.488C109.357 174.948 109.108 175.361 108.744 175.656C108.38 175.951 107.924 176.108 107.456 176.1H107.476ZM112.251 160.378C111.978 160.385 111.706 160.331 111.456 160.219C111.215 160.115 110.997 159.965 110.814 159.776C110.631 159.588 110.488 159.365 110.392 159.121C110.295 158.877 110.249 158.616 110.254 158.354C110.259 158.091 110.315 157.832 110.421 157.592C111.567 154.993 112.897 152.479 114.401 150.07C114.537 149.846 114.717 149.651 114.929 149.496C115.141 149.342 115.382 149.231 115.637 149.17C115.892 149.109 116.157 149.099 116.416 149.141C116.675 149.182 116.924 149.275 117.147 149.413C117.369 149.551 117.562 149.732 117.715 149.945C117.867 150.158 117.976 150.399 118.035 150.654C118.094 150.909 118.103 151.173 118.059 151.432C118.016 151.69 117.922 151.937 117.783 152.159C116.377 154.416 115.133 156.77 114.062 159.204C113.905 159.553 113.651 159.85 113.33 160.058C113.009 160.266 112.634 160.377 112.251 160.378ZM120.947 146.448C120.585 146.438 120.231 146.329 119.926 146.133C119.621 145.937 119.375 145.661 119.215 145.335C119.055 145.009 118.987 144.646 119.019 144.284C119.051 143.923 119.181 143.577 119.395 143.284C121.304 141.098 123.416 139.099 125.703 137.313C125.91 137.153 126.146 137.034 126.398 136.965C126.65 136.895 126.914 136.876 127.173 136.909C127.433 136.941 127.684 137.024 127.911 137.153C128.139 137.282 128.338 137.455 128.499 137.662C128.66 137.868 128.778 138.104 128.848 138.356C128.917 138.609 128.936 138.872 128.904 139.132C128.872 139.391 128.789 139.642 128.659 139.87C128.53 140.097 128.357 140.297 128.151 140.458C126.076 142.057 124.157 143.85 122.42 145.811C122.238 146.024 122.012 146.197 121.758 146.317C121.504 146.437 121.228 146.502 120.947 146.507V146.448ZM133.862 136.498C133.416 136.495 132.985 136.343 132.636 136.065C132.287 135.788 132.041 135.402 131.938 134.968C131.835 134.535 131.88 134.079 132.067 133.675C132.253 133.27 132.57 132.939 132.967 132.736C134.041 132.199 135.156 131.701 136.25 131.244L140.668 129.433C141.158 129.235 141.708 129.24 142.195 129.447C142.682 129.654 143.067 130.046 143.264 130.537C143.462 131.028 143.457 131.578 143.25 132.065C143.043 132.552 142.651 132.936 142.16 133.134L137.762 134.925C136.728 135.343 135.772 135.801 134.758 136.299C134.48 136.441 134.174 136.516 133.862 136.517V136.498ZM149.045 130.189C148.58 130.195 148.127 130.038 147.766 129.744C147.405 129.451 147.157 129.04 147.068 128.584C146.978 128.127 147.051 127.653 147.274 127.245C147.497 126.836 147.856 126.519 148.289 126.348C151.055 125.254 153.562 124.219 155.891 123.264C156.132 123.164 156.391 123.114 156.652 123.114C156.914 123.115 157.172 123.167 157.414 123.268C157.655 123.369 157.874 123.516 158.058 123.701C158.242 123.887 158.388 124.107 158.487 124.348C158.587 124.59 158.637 124.849 158.637 125.11C158.636 125.372 158.584 125.63 158.483 125.871C158.382 126.113 158.235 126.332 158.05 126.516C157.864 126.7 157.645 126.846 157.403 126.945L149.781 130.05C149.548 130.149 149.298 130.203 149.045 130.209V130.189ZM164.188 123.841C163.733 123.843 163.291 123.689 162.935 123.405C162.579 123.121 162.332 122.723 162.234 122.278C162.136 121.833 162.194 121.369 162.398 120.961C162.601 120.554 162.938 120.229 163.353 120.04C165.784 118.952 168.149 117.722 170.437 116.358C170.876 116.19 171.361 116.183 171.805 116.339C172.249 116.495 172.624 116.802 172.863 117.208C173.101 117.614 173.188 118.091 173.108 118.554C173.029 119.018 172.787 119.439 172.427 119.741C170.017 121.221 167.519 122.551 164.945 123.721C164.705 123.821 164.448 123.868 164.188 123.861V123.841ZM177.879 114.965C177.376 114.963 176.893 114.771 176.526 114.428C176.34 114.243 176.191 114.023 176.09 113.78C175.989 113.538 175.937 113.278 175.937 113.015C175.937 112.752 175.989 112.492 176.09 112.25C176.191 112.007 176.34 111.787 176.526 111.602C178.265 109.744 179.708 107.63 180.804 105.333C181.049 104.878 181.461 104.535 181.954 104.378C182.446 104.221 182.981 104.262 183.444 104.492C183.907 104.722 184.262 105.124 184.434 105.611C184.607 106.099 184.582 106.635 184.366 107.104C183.1 109.75 181.436 112.187 179.431 114.328C179.236 114.545 178.996 114.716 178.728 114.829C178.46 114.943 178.17 114.996 177.879 114.985V114.965Z" fill="#495747"/>
<path d="M185.52 100.478C185.318 100.475 185.116 100.441 184.923 100.378C184.674 100.299 184.442 100.171 184.241 100.002C184.041 99.8332 183.876 99.6262 183.756 99.3932C183.635 99.1602 183.562 98.9057 183.541 98.6445C183.519 98.3832 183.55 98.1202 183.63 97.8706C184.008 96.6965 184.386 95.4428 184.764 94.1293C184.908 93.6235 185.246 93.1951 185.705 92.9378C186.163 92.6805 186.705 92.6152 187.212 92.7562C187.718 92.9 188.146 93.2381 188.403 93.6968C188.661 94.1555 188.726 94.6973 188.585 95.204C188.207 96.5771 187.809 97.8706 187.431 99.0846C187.303 99.4905 187.049 99.8448 186.705 100.096C186.361 100.346 185.946 100.48 185.52 100.478Z" fill="#495747"/>
<path d="M186.675 37.3533C181.74 37.3533 163.611 39.9801 163.611 62.0896C163.611 77.7314 179.192 91.403 184.744 95.7811C185.293 96.217 185.974 96.4542 186.675 96.4542C187.375 96.4542 188.056 96.217 188.605 95.7811C194.157 91.403 209.738 77.7314 209.738 62.0896C209.738 39.9801 191.61 37.3533 186.675 37.3533ZM188.028 64.8359C186.57 65.1273 185.058 64.9422 183.714 64.3077C182.37 63.6732 181.265 62.6232 180.564 61.3127C179.863 60.0022 179.602 58.5009 179.819 57.0306C180.037 55.5602 180.722 54.199 181.773 53.148C182.824 52.097 184.185 51.412 185.655 51.1943C187.126 50.9766 188.627 51.2377 189.937 51.939C191.248 52.6403 192.298 53.7447 192.932 55.0888C193.566 56.4329 193.752 57.9455 193.46 59.403C193.192 60.7438 192.533 61.9751 191.566 62.9419C190.6 63.9087 189.368 64.5677 188.028 64.8359Z" fill="#ED7F69"/>
<path d="M233.1 215.045C252.145 215.045 267.585 199.604 267.585 180.557C267.585 161.51 252.145 146.07 233.1 146.07C214.054 146.07 198.614 161.51 198.614 180.557C198.614 199.604 214.054 215.045 233.1 215.045Z" fill="white"/>
<path d="M233.159 217.035C231.737 217.034 230.315 216.954 228.901 216.796C219.453 215.71 210.8 210.985 204.778 203.624C198.757 196.262 195.842 186.843 196.651 177.367C197.46 167.89 201.931 159.102 209.113 152.869C216.296 146.635 225.625 143.445 235.12 143.978C244.615 144.51 253.529 148.723 259.97 155.72C266.41 162.718 269.87 171.951 269.615 181.458C269.36 190.966 265.41 200 258.603 206.642C251.797 213.284 242.67 217.012 233.159 217.035ZM233.04 148.06C224.571 148.068 216.438 151.377 210.368 157.283C204.298 163.19 200.769 171.23 200.53 179.696C200.29 188.163 203.359 196.389 209.086 202.63C214.812 208.87 222.745 212.633 231.2 213.12C239.655 213.607 247.967 210.78 254.372 205.238C260.777 199.696 264.77 191.877 265.504 183.439C266.238 175.001 263.656 166.609 258.304 160.044C252.952 153.48 245.253 149.259 236.841 148.279C235.579 148.137 234.31 148.064 233.04 148.06Z" fill="#495747"/>
<path d="M205.062 179.761H204.843L198.575 179.104C198.047 179.044 197.565 178.776 197.234 178.36C196.904 177.944 196.753 177.413 196.813 176.886C196.874 176.358 197.142 175.876 197.558 175.545C197.974 175.215 198.504 175.064 199.032 175.124L205.3 175.861C205.562 175.876 205.817 175.943 206.053 176.058C206.288 176.172 206.499 176.332 206.673 176.528C206.846 176.724 206.98 176.952 207.065 177.2C207.151 177.447 207.187 177.709 207.171 177.97C207.155 178.231 207.088 178.487 206.974 178.723C206.859 178.958 206.7 179.169 206.504 179.342C206.308 179.516 206.08 179.649 205.832 179.735C205.585 179.821 205.323 179.856 205.062 179.841V179.761Z" fill="#495747"/>
<path d="M225.06 197.015C224.697 197.012 224.341 196.916 224.025 196.736C223.726 196.554 223.48 196.297 223.313 195.989C223.145 195.682 223.061 195.335 223.07 194.985L223.309 175.881C223.31 175.528 223.404 175.182 223.582 174.878C223.761 174.573 224.017 174.322 224.324 174.149H224.523L241.039 164.915C241.342 164.741 241.685 164.649 242.034 164.649C242.383 164.649 242.727 164.741 243.029 164.915C243.329 165.093 243.577 165.347 243.748 165.651C243.919 165.955 244.008 166.298 244.004 166.647L243.746 185.771C243.733 186.116 243.63 186.451 243.449 186.744C243.268 187.037 243.013 187.278 242.711 187.443L242.452 187.562L226.015 196.756C225.726 196.927 225.396 197.016 225.06 197.015ZM227.289 177.114L227.09 191.642L239.786 184.537L239.985 170.01L227.289 177.114Z" fill="#495747"/>
<path d="M226.349 174.197L224.309 177.614L240.745 187.428L242.785 184.011L226.349 174.197Z" fill="#495747"/>
<path d="M266.908 188.04H266.65L260.521 187.343C260.261 187.314 260.009 187.233 259.78 187.106C259.551 186.979 259.349 186.808 259.187 186.602C259.024 186.397 258.903 186.162 258.832 185.91C258.76 185.658 258.739 185.394 258.77 185.134C258.799 184.874 258.88 184.622 259.007 184.393C259.134 184.164 259.305 183.963 259.511 183.8C259.716 183.637 259.951 183.517 260.203 183.445C260.455 183.374 260.718 183.353 260.978 183.383L267.107 184.1C267.635 184.131 268.129 184.371 268.48 184.767C268.83 185.162 269.01 185.681 268.978 186.209C268.946 186.737 268.706 187.23 268.311 187.581C267.915 187.932 267.396 188.111 266.869 188.08L266.908 188.04Z" fill="#495747"/>
<path d="M236.506 151.239C236.586 151.248 236.647 151.282 236.691 151.341C236.734 151.4 236.751 151.469 236.742 151.548L236.406 154.444C236.396 154.53 236.358 154.599 236.291 154.652C236.229 154.702 236.154 154.722 236.068 154.712C236.022 154.706 235.976 154.694 235.931 154.676C235.89 154.654 235.861 154.629 235.844 154.6L234.29 152.074L234.044 154.195C234.035 154.274 234.001 154.338 233.942 154.384C233.886 154.432 233.817 154.45 233.734 154.441C233.654 154.432 233.593 154.398 233.549 154.339C233.506 154.28 233.489 154.211 233.498 154.131L233.834 151.236C233.844 151.15 233.88 151.082 233.943 151.032C234.01 150.979 234.086 150.958 234.172 150.968C234.222 150.974 234.269 150.989 234.313 151.015C234.36 151.04 234.393 151.071 234.413 151.107L235.953 153.621L236.201 151.485C236.21 151.406 236.243 151.343 236.298 151.295C236.358 151.249 236.427 151.23 236.506 151.239Z" fill="#2C3630"/>
<path d="M236.691 151.341L236.49 151.49L236.49 151.49L236.691 151.341ZM236.291 154.652L236.447 154.848L236.291 154.652ZM235.931 154.676L235.815 154.897L235.825 154.902L235.835 154.907L235.931 154.676ZM235.844 154.6L236.06 154.474L236.057 154.469L235.844 154.6ZM234.29 152.074L234.503 151.943L234.125 151.329L234.042 152.045L234.29 152.074ZM233.942 154.384L233.786 154.188L233.78 154.193L233.942 154.384ZM233.943 151.032L233.788 150.836L233.788 150.836L233.943 151.032ZM234.313 151.015L234.188 151.232L234.194 151.235L234.313 151.015ZM234.413 151.107L234.192 151.226L234.199 151.237L234.413 151.107ZM235.953 153.621L235.74 153.752L236.118 154.369L236.201 153.65L235.953 153.621ZM236.298 151.295L236.143 151.099L236.137 151.105L236.298 151.295ZM236.477 151.487C236.489 151.489 236.493 151.491 236.491 151.49C236.491 151.49 236.49 151.489 236.489 151.489C236.489 151.488 236.489 151.489 236.49 151.49L236.892 151.192C236.803 151.072 236.676 151.007 236.535 150.991L236.477 151.487ZM236.49 151.49C236.493 151.493 236.493 151.495 236.494 151.497C236.494 151.499 236.495 151.506 236.494 151.519L236.991 151.577C237.006 151.441 236.977 151.307 236.892 151.192L236.49 151.49ZM236.494 151.519L236.158 154.415L236.655 154.473L236.991 151.577L236.494 151.519ZM236.158 154.415C236.155 154.437 236.15 154.446 236.136 154.456L236.447 154.848C236.566 154.753 236.637 154.623 236.655 154.473L236.158 154.415ZM236.136 154.456C236.13 154.461 236.123 154.466 236.097 154.463L236.039 154.96C236.185 154.977 236.327 154.942 236.447 154.848L236.136 154.456ZM236.097 154.463C236.075 154.461 236.051 154.455 236.027 154.445L235.835 154.907C235.901 154.934 235.969 154.952 236.039 154.96L236.097 154.463ZM236.047 154.454C236.041 154.451 236.04 154.449 236.043 154.452C236.046 154.455 236.053 154.462 236.06 154.474L235.628 154.726C235.677 154.808 235.748 154.862 235.815 154.897L236.047 154.454ZM236.057 154.469L234.503 151.943L234.077 152.205L235.632 154.731L236.057 154.469ZM234.042 152.045L233.796 154.166L234.292 154.224L234.539 152.103L234.042 152.045ZM233.796 154.166C233.794 154.178 233.792 154.182 233.792 154.183C233.791 154.183 233.791 154.184 233.791 154.184C233.79 154.185 233.789 154.186 233.786 154.188L234.097 154.58C234.211 154.49 234.276 154.365 234.292 154.224L233.796 154.166ZM233.78 154.193C233.78 154.194 233.78 154.194 233.781 154.193C233.781 154.193 233.782 154.193 233.782 154.193C233.783 154.192 233.777 154.194 233.763 154.192L233.705 154.689C233.846 154.705 233.987 154.673 234.103 154.575L233.78 154.193ZM233.763 154.192C233.751 154.191 233.748 154.189 233.749 154.19C233.749 154.19 233.75 154.19 233.751 154.191C233.751 154.191 233.751 154.191 233.75 154.19L233.348 154.488C233.437 154.607 233.564 154.673 233.705 154.689L233.763 154.192ZM233.75 154.19C233.747 154.186 233.747 154.184 233.746 154.183C233.746 154.181 233.745 154.174 233.746 154.16L233.249 154.103C233.234 154.239 233.263 154.373 233.348 154.488L233.75 154.19ZM233.746 154.16L234.082 151.265L233.586 151.207L233.249 154.103L233.746 154.16ZM234.082 151.265C234.085 151.239 234.092 151.233 234.098 151.228L233.788 150.836C233.669 150.931 233.602 151.061 233.586 151.207L234.082 151.265ZM234.098 151.228C234.112 151.218 234.121 151.214 234.143 151.216L234.201 150.72C234.05 150.702 233.908 150.741 233.788 150.836L234.098 151.228ZM234.143 151.216C234.159 151.218 234.173 151.223 234.188 151.232L234.437 150.798C234.364 150.756 234.285 150.73 234.201 150.72L234.143 151.216ZM234.194 151.235C234.212 151.244 234.203 151.244 234.193 151.226L234.633 150.988C234.584 150.898 234.508 150.836 234.432 150.795L234.194 151.235ZM234.199 151.237L235.74 153.752L236.166 153.491L234.626 150.976L234.199 151.237ZM236.201 153.65L236.449 151.514L235.953 151.457L235.705 153.592L236.201 153.65ZM236.449 151.514C236.451 151.501 236.454 151.494 236.455 151.493C236.455 151.491 236.456 151.489 236.46 151.486L236.137 151.105C236.028 151.197 235.968 151.321 235.953 151.457L236.449 151.514ZM236.454 151.491C236.456 151.489 236.458 151.489 236.458 151.488C236.459 151.488 236.46 151.488 236.46 151.488C236.461 151.487 236.466 151.486 236.477 151.487L236.535 150.991C236.394 150.974 236.258 151.009 236.143 151.099L236.454 151.491Z" fill="#495747"/>
<path d="M230.225 204.156C230.312 204.166 230.379 204.204 230.429 204.27C230.482 204.334 230.504 204.403 230.495 204.48C230.485 204.562 230.448 204.627 230.382 204.673C230.32 204.719 230.245 204.737 230.159 204.727L228.495 204.534C228.409 204.524 228.34 204.488 228.287 204.425C228.237 204.358 228.218 204.282 228.228 204.196L228.561 201.325C228.571 201.239 228.607 201.171 228.67 201.122C228.736 201.069 228.813 201.048 228.899 201.058L230.563 201.251C230.649 201.261 230.717 201.297 230.766 201.36C230.82 201.42 230.842 201.493 230.832 201.579C230.822 201.662 230.786 201.726 230.724 201.773C230.661 201.816 230.586 201.832 230.496 201.822L229.15 201.666L229.052 202.51L230.175 202.64C230.261 202.65 230.329 202.687 230.379 202.75C230.432 202.809 230.454 202.882 230.444 202.969C230.434 203.051 230.398 203.116 230.336 203.162C230.274 203.205 230.198 203.222 230.109 203.211L228.986 203.081L228.879 204L230.225 204.156Z" fill="#2C3630"/>
<path d="M230.429 204.27L230.228 204.42L230.233 204.426L230.237 204.431L230.429 204.27ZM230.382 204.673L230.238 204.468L230.233 204.472L230.382 204.673ZM228.287 204.425L228.086 204.574L228.091 204.58L228.095 204.585L228.287 204.425ZM228.67 201.122L228.515 200.926L228.515 200.926L228.67 201.122ZM230.766 201.36L230.57 201.515L230.575 201.521L230.58 201.526L230.766 201.36ZM230.724 201.773L230.866 201.978L230.873 201.973L230.724 201.773ZM229.15 201.666L229.179 201.417L228.931 201.389L228.902 201.637L229.15 201.666ZM229.052 202.51L228.804 202.481L228.775 202.73L229.024 202.758L229.052 202.51ZM230.379 202.75L230.183 202.905L230.187 202.911L230.192 202.916L230.379 202.75ZM230.336 203.162L230.479 203.368L230.485 203.363L230.336 203.162ZM228.986 203.081L229.015 202.833L228.767 202.804L228.738 203.052L228.986 203.081ZM228.879 204L228.631 203.971L228.602 204.22L228.851 204.248L228.879 204ZM230.197 204.405C230.211 204.406 230.217 204.409 230.218 204.41C230.22 204.411 230.223 204.413 230.228 204.42L230.629 204.121C230.536 203.997 230.405 203.925 230.254 203.908L230.197 204.405ZM230.237 204.431C230.241 204.436 230.244 204.44 230.245 204.442C230.246 204.444 230.247 204.446 230.247 204.446C230.247 204.446 230.247 204.446 230.247 204.446C230.247 204.447 230.247 204.448 230.247 204.451L230.743 204.508C230.761 204.358 230.714 204.221 230.62 204.11L230.237 204.431ZM230.247 204.451C230.246 204.456 230.245 204.46 230.244 204.462C230.244 204.463 230.244 204.464 230.244 204.464C230.244 204.463 230.244 204.464 230.243 204.464C230.243 204.464 230.242 204.466 230.238 204.468L230.525 204.878C230.652 204.789 230.726 204.659 230.743 204.508L230.247 204.451ZM230.233 204.472C230.227 204.476 230.219 204.483 230.188 204.479L230.13 204.976C230.272 204.992 230.412 204.962 230.531 204.873L230.233 204.472ZM230.188 204.479L228.524 204.286L228.467 204.783L230.13 204.976L230.188 204.479ZM228.524 204.286C228.498 204.283 228.488 204.275 228.478 204.264L228.095 204.585C228.191 204.7 228.321 204.766 228.467 204.783L228.524 204.286ZM228.487 204.275C228.478 204.263 228.473 204.251 228.476 204.225L227.979 204.167C227.962 204.313 227.997 204.454 228.086 204.574L228.487 204.275ZM228.476 204.225L228.809 201.354L228.312 201.297L227.979 204.167L228.476 204.225ZM228.809 201.354C228.812 201.328 228.819 201.323 228.825 201.318L228.515 200.926C228.395 201.02 228.329 201.151 228.312 201.297L228.809 201.354ZM228.825 201.318C228.838 201.307 228.848 201.303 228.87 201.306L228.928 200.809C228.777 200.792 228.634 200.831 228.515 200.926L228.825 201.318ZM228.87 201.306L230.534 201.499L230.591 201.002L228.928 200.809L228.87 201.306ZM230.534 201.499C230.56 201.502 230.565 201.509 230.57 201.515L230.962 201.205C230.868 201.085 230.737 201.019 230.591 201.002L230.534 201.499ZM230.58 201.526C230.582 201.529 230.583 201.53 230.583 201.53C230.583 201.531 230.583 201.531 230.583 201.531C230.583 201.531 230.584 201.532 230.584 201.535C230.584 201.538 230.584 201.543 230.583 201.55L231.08 201.608C231.097 201.457 231.058 201.311 230.953 201.194L230.58 201.526ZM230.583 201.55C230.582 201.563 230.579 201.568 230.579 201.568C230.579 201.568 230.579 201.568 230.578 201.569C230.578 201.569 230.577 201.57 230.574 201.572L230.873 201.973C230.995 201.883 231.063 201.754 231.08 201.608L230.583 201.55ZM230.581 201.568C230.578 201.569 230.566 201.578 230.525 201.574L230.468 202.07C230.605 202.086 230.745 202.062 230.866 201.978L230.581 201.568ZM230.525 201.574L229.179 201.417L229.122 201.914L230.468 202.07L230.525 201.574ZM228.902 201.637L228.804 202.481L229.301 202.539L229.399 201.695L228.902 201.637ZM229.024 202.758L230.146 202.889L230.204 202.392L229.081 202.262L229.024 202.758ZM230.146 202.889C230.172 202.892 230.178 202.898 230.183 202.905L230.575 202.594C230.48 202.475 230.35 202.409 230.204 202.392L230.146 202.889ZM230.192 202.916C230.194 202.918 230.195 202.92 230.195 202.92C230.195 202.92 230.195 202.92 230.195 202.921C230.195 202.921 230.196 202.922 230.196 202.925C230.196 202.928 230.196 202.933 230.195 202.94L230.692 202.997C230.71 202.847 230.67 202.701 230.565 202.583L230.192 202.916ZM230.195 202.94C230.194 202.953 230.191 202.957 230.191 202.957C230.191 202.958 230.191 202.958 230.191 202.958C230.19 202.959 230.189 202.96 230.187 202.962L230.485 203.363C230.607 203.272 230.675 203.143 230.692 202.997L230.195 202.94ZM230.193 202.957C230.19 202.959 230.178 202.968 230.137 202.963L230.08 203.46C230.217 203.476 230.357 203.452 230.478 203.368L230.193 202.957ZM230.137 202.963L229.015 202.833L228.957 203.33L230.08 203.46L230.137 202.963ZM228.738 203.052L228.631 203.971L229.128 204.029L229.234 203.11L228.738 203.052ZM228.851 204.248L230.197 204.405L230.254 203.908L228.908 203.752L228.851 204.248Z" fill="#495747"/>
<path d="M281.375 226.149H268.64C268.112 226.149 267.606 225.94 267.232 225.566C266.859 225.193 266.65 224.687 266.65 224.159C266.65 223.631 266.859 223.125 267.232 222.752C267.606 222.379 268.112 222.169 268.64 222.169H281.415C281.943 222.169 282.449 222.379 282.822 222.752C283.195 223.125 283.405 223.631 283.405 224.159C283.405 224.687 283.195 225.193 282.822 225.566C282.449 225.94 281.943 226.149 281.415 226.149H281.375Z" fill="#495747"/>
</svg>
