<svg width="253" height="175" viewBox="0 0 331 178" fill="none" xmlns="http://www.w3.org/2000/svg">
<path d="M328.182 176.698H58.625C58.1129 176.698 57.6219 176.505 57.2598 176.162C56.8977 175.819 56.6943 175.354 56.6943 174.868C56.6943 174.383 56.8977 173.917 57.2598 173.574C57.6219 173.231 58.1129 173.038 58.625 173.038H328.182C328.694 173.038 329.185 173.231 329.547 173.574C329.909 173.917 330.113 174.383 330.113 174.868C330.113 175.354 329.909 175.819 329.547 176.162C329.185 176.505 328.694 176.698 328.182 176.698Z" fill="#495747"/>
<path d="M33.7197 175.6C33.2077 175.6 32.7166 175.407 32.3545 175.064C31.9925 174.721 31.7891 174.256 31.7891 173.77V52.9867C31.7891 52.5014 31.9925 52.0359 32.3545 51.6927C32.7166 51.3495 33.2077 51.1567 33.7197 51.1567C34.2317 51.1567 34.7228 51.3495 35.0849 51.6927C35.447 52.0359 35.6504 52.5014 35.6504 52.9867V173.77C35.6504 174.256 35.447 174.721 35.0849 175.064C34.7228 175.407 34.2317 175.6 33.7197 175.6Z" fill="#495747"/>
<path d="M56.3467 79.0101C56.0583 79.011 55.7733 78.9507 55.5127 78.8335C55.2521 78.7163 55.0225 78.5453 54.8408 78.333L33.7195 53.9018L12.4824 78.333C12.3214 78.5192 12.1233 78.6736 11.8993 78.7873C11.6754 78.901 11.43 78.9717 11.1772 78.9955C10.9245 79.0193 10.6692 78.9957 10.4261 78.926C10.1829 78.8562 9.95665 78.7418 9.76016 78.5892C9.56367 78.4366 9.40081 78.2488 9.28089 78.0365C9.16096 77.8243 9.08632 77.5917 9.06122 77.3521C9.03612 77.1125 9.06106 76.8705 9.13461 76.64C9.20815 76.4096 9.32888 76.1951 9.48987 76.0088L32.1171 49.8391C32.2981 49.6286 32.5263 49.459 32.7851 49.3425C33.0439 49.226 33.3268 49.1656 33.6133 49.1656C33.8998 49.1656 34.1827 49.226 34.4415 49.3425C34.7003 49.459 34.9285 49.6286 35.1096 49.8391L57.7561 76.0088C57.9175 76.1949 58.0387 76.4093 58.1125 76.6399C58.1863 76.8704 58.2114 77.1125 58.1863 77.3522C58.1611 77.592 58.0863 77.8246 57.9661 78.0369C57.8459 78.2492 57.6827 78.4369 57.4858 78.5892C57.1642 78.8428 56.7645 78.9905 56.3467 79.0101Z" fill="#495747"/>
<path d="M5.62864 107.412C5.26494 107.41 4.9093 107.311 4.6027 107.125C4.29611 106.94 4.05102 106.676 3.89567 106.364C3.74031 106.052 3.68102 105.705 3.72461 105.363C3.7682 105.021 3.9129 104.697 4.14205 104.43L33.7196 70.1892L63.3743 104.503C63.6995 104.879 63.8537 105.362 63.803 105.846C63.7523 106.33 63.5009 106.775 63.104 107.083C62.7072 107.391 62.1975 107.537 61.687 107.489C61.1765 107.441 60.707 107.203 60.3818 106.827L33.7196 75.9722L7.03802 106.79C6.86143 106.981 6.64494 107.135 6.40232 107.242C6.15969 107.349 5.89623 107.407 5.62864 107.412Z" fill="#495747"/>
<path d="M64.8224 134.753C64.5373 134.752 64.256 134.69 63.999 134.573C63.742 134.456 63.5155 134.286 63.3358 134.076L33.7197 99.8178L4.0842 134.076C3.76011 134.448 3.29443 134.683 2.78833 134.731C2.28222 134.779 1.7766 134.636 1.3813 134.333C1.1844 134.18 1.02116 133.993 0.900954 133.78C0.78075 133.568 0.705946 133.335 0.680834 133.096C0.655722 132.856 0.680794 132.614 0.754615 132.383C0.828436 132.153 0.949553 131.938 1.11101 131.752L33.7197 93.9799L66.3283 131.679C66.4898 131.865 66.6109 132.079 66.6847 132.31C66.7585 132.541 66.7836 132.783 66.7585 133.022C66.7334 133.262 66.6586 133.495 66.5384 133.707C66.4182 133.919 66.2549 134.107 66.058 134.259C65.7217 134.559 65.2833 134.734 64.8224 134.753Z" fill="#495747"/>
<path d="M118.939 176.698C118.702 176.698 118.467 176.661 118.244 176.588L78.2984 161.948C77.8196 161.773 77.4337 161.425 77.2255 160.981C77.0173 160.537 77.0039 160.032 77.1883 159.578C77.3726 159.124 77.7396 158.759 78.2085 158.561C78.6773 158.364 79.2097 158.351 79.6885 158.526L119.634 173.166C120.109 173.342 120.491 173.689 120.698 174.131C120.904 174.574 120.917 175.076 120.734 175.527C120.594 175.871 120.348 176.167 120.027 176.376C119.707 176.585 119.327 176.697 118.939 176.698Z" fill="#495747"/>
<path d="M78.9934 176.698C78.6044 176.697 78.2249 176.585 77.9046 176.376C77.5842 176.167 77.3379 175.871 77.1979 175.527C77.015 175.076 77.0281 174.574 77.2343 174.131C77.4405 173.689 77.823 173.342 78.2983 173.166L118.243 158.526C118.722 158.351 119.255 158.364 119.723 158.561C120.192 158.759 120.559 159.124 120.744 159.578C120.928 160.032 120.915 160.537 120.706 160.981C120.498 161.425 120.112 161.773 119.634 161.948L79.6884 176.588C79.4645 176.661 79.2298 176.698 78.9934 176.698Z" fill="#495747"/>
<path d="M98.9948 160.301C95.6801 160.342 92.4019 159.642 89.4268 158.256C86.4517 156.87 83.8637 154.838 81.8732 152.325C79.8827 149.813 78.546 146.89 77.9718 143.795C77.3975 140.701 77.602 137.521 78.5685 134.516C80.0744 129.611 82.063 124.835 83.7233 119.875C83.8036 119.396 83.999 118.941 84.2944 118.545C84.5897 118.148 84.9772 117.822 85.4269 117.59C85.8765 117.359 86.3763 117.228 86.8877 117.208C87.3991 117.189 87.9083 117.281 88.3762 117.478C91.3978 118.26 94.2188 119.62 96.6657 121.474C99.1126 123.327 101.134 125.636 102.605 128.257C104.034 130.544 105.018 130.599 106.602 128.531C107.514 127.311 108.782 126.37 110.25 125.823C114.112 124.34 116.042 125.146 117.471 128.787C119.865 134.845 121.622 140.866 118.823 147.326C117.273 151.125 114.553 154.394 111.017 156.708C107.481 159.022 103.292 160.274 98.9948 160.301Z" fill="#ED7F69"/>
<path d="M105.405 161.692C104.893 161.692 104.402 161.499 104.04 161.156C103.678 160.813 103.474 160.347 103.474 159.862C103.474 156.787 101.447 154.372 98.9564 154.372C96.4658 154.372 94.458 156.879 94.458 159.862C94.458 160.347 94.2546 160.813 93.8925 161.156C93.5304 161.499 93.0394 161.692 92.5273 161.692C92.0153 161.692 91.5242 161.499 91.1622 161.156C90.8001 160.813 90.5967 160.347 90.5967 159.862C90.5967 154.756 94.3421 150.712 98.9564 150.712C103.571 150.712 107.335 154.847 107.335 159.862C107.335 160.347 107.132 160.813 106.77 161.156C106.408 161.499 105.917 161.692 105.405 161.692Z" fill="white"/>
<path d="M46.1723 176.698H13.1582C12.6461 176.698 12.1551 176.505 11.793 176.162C11.4309 175.819 11.2275 175.354 11.2275 174.868C11.2275 174.383 11.4309 173.917 11.793 173.574C12.1551 173.231 12.6461 173.038 13.1582 173.038H46.1723C46.6843 173.038 47.1754 173.231 47.5374 173.574C47.8995 173.917 48.1029 174.383 48.1029 174.868C48.1029 175.354 47.8995 175.819 47.5374 176.162C47.1754 176.505 46.6843 176.698 46.1723 176.698Z" fill="#495747"/>
<path d="M133.998 72.8246C129.82 72.8246 125.737 71.6504 122.263 69.4505C118.79 67.2506 116.083 64.1237 114.484 60.4654C112.885 56.8071 112.467 52.7816 113.282 48.8979C114.097 45.0143 116.109 41.4469 119.063 38.647C122.016 35.847 125.78 33.9402 129.877 33.1677C133.974 32.3952 138.221 32.7917 142.08 34.307C145.94 35.8224 149.238 38.3885 151.559 41.6809C153.88 44.9733 155.119 48.8441 155.119 52.8038C155.114 58.1122 152.887 63.2017 148.927 66.9553C144.967 70.7088 139.598 72.8197 133.998 72.8246ZM133.998 36.4431C130.584 36.4431 127.247 37.4027 124.408 39.2004C121.57 40.9982 119.358 43.5533 118.051 46.5429C116.745 49.5324 116.403 52.822 117.069 55.9956C117.735 59.1693 119.379 62.0845 121.793 64.3725C124.207 66.6606 127.282 68.2188 130.63 68.8501C133.978 69.4814 137.449 69.1574 140.603 67.9191C143.756 66.6808 146.452 64.5838 148.349 61.8933C150.245 59.2028 151.257 56.0396 151.257 52.8038C151.252 48.4662 149.432 44.3076 146.197 41.2404C142.961 38.1732 138.574 36.448 133.998 36.4431Z" fill="#495747"/>
<path d="M324.9 176.662H118.996L149.559 126.482L175.68 78.15H264.895L324.9 176.662ZM125.676 173.002H318.22L262.675 81.8101H178.055L152.956 128.238L125.676 173.002Z" fill="#495747"/>
<path d="M232.422 176.662C232.077 176.664 231.737 176.579 231.438 176.415C231.139 176.251 230.892 176.014 230.723 175.728L169.927 71.8911C169.804 71.6809 169.726 71.4497 169.697 71.2108C169.668 70.9719 169.689 70.7299 169.759 70.4988C169.829 70.2676 169.947 70.0518 170.105 69.8637C170.263 69.6756 170.458 69.5188 170.68 69.4023C171.126 69.1652 171.652 69.1052 172.144 69.2356C172.637 69.366 173.054 69.676 173.306 70.0977L234.102 173.935C234.225 174.145 234.303 174.376 234.332 174.615C234.36 174.854 234.339 175.096 234.269 175.327C234.199 175.558 234.082 175.774 233.924 175.962C233.766 176.15 233.571 176.307 233.349 176.424C233.068 176.58 232.748 176.663 232.422 176.662Z" fill="#495747"/>
<path d="M176.858 82.7435V130.105L173.286 133.088L149.385 151.974L151.489 174.832L176.858 130.105" fill="#495747"/>
<path d="M151.489 176.662H151.103C150.695 176.584 150.324 176.384 150.045 176.09C149.767 175.797 149.596 175.426 149.558 175.033L147.454 152.176C147.427 151.884 147.475 151.59 147.592 151.32C147.71 151.049 147.894 150.809 148.13 150.62L172.051 131.679L174.947 129.282V82.7434C174.947 82.2581 175.15 81.7926 175.512 81.4494C175.874 81.1062 176.365 80.9134 176.877 80.9134C177.389 80.9134 177.88 81.1062 178.242 81.4494C178.604 81.7926 178.808 82.2581 178.808 82.7434V130.069C178.804 130.366 178.731 130.66 178.595 130.929L153.227 175.637C153.067 175.945 152.82 176.204 152.513 176.385C152.206 176.567 151.851 176.662 151.489 176.662ZM151.393 152.779L152.841 168.573L170.216 137.828L151.393 152.779Z" fill="#495747"/>
<path d="M176.858 130.105L180.449 133.088L204.64 152.615L202.246 174.832L176.858 130.105Z" fill="#495747"/>
<path d="M202.246 176.662C201.897 176.661 201.554 176.57 201.255 176.399C200.956 176.228 200.711 175.984 200.547 175.692L175.159 130.965C174.939 130.585 174.869 130.144 174.961 129.72C175.052 129.296 175.299 128.916 175.658 128.648C176.017 128.381 176.465 128.242 176.921 128.258C177.378 128.273 177.813 128.441 178.151 128.733L181.723 131.716L205.895 151.224C206.13 151.417 206.312 151.661 206.426 151.935C206.541 152.209 206.584 152.505 206.551 152.798L204.177 175.015C204.135 175.404 203.962 175.771 203.684 176.061C203.406 176.351 203.037 176.549 202.632 176.625L202.246 176.662ZM183.519 137.901L200.894 168.628L202.535 153.31L183.519 137.901Z" fill="#495747"/>
<path d="M177.147 82.6886C176.808 82.6852 176.475 82.5968 176.182 82.4323C175.741 82.1909 175.418 81.7937 175.284 81.3275C175.15 80.8612 175.216 80.3637 175.468 79.9435L181.414 70.0795C181.535 69.8608 181.701 69.6675 181.903 69.5112C182.104 69.355 182.337 69.239 182.587 69.1702C182.837 69.1014 183.099 69.0813 183.358 69.1111C183.616 69.1408 183.866 69.2198 184.091 69.3433C184.317 69.4669 184.513 69.6323 184.669 69.8298C184.826 70.0272 184.938 70.2526 185 70.4924C185.062 70.7321 185.072 70.9812 185.03 71.2248C184.988 71.4683 184.894 71.7012 184.754 71.9095L178.827 81.7552C178.66 82.0379 178.416 82.2733 178.121 82.4373C177.825 82.6013 177.49 82.688 177.147 82.6886Z" fill="#495747"/>
<path d="M263.718 83.567L256.825 71.8912C256.569 71.4665 256.502 70.9629 256.638 70.491C256.773 70.0191 257.101 69.6176 257.549 69.3749C257.997 69.1322 258.529 69.0682 259.027 69.1969C259.525 69.3256 259.948 69.6365 260.204 70.0612L263.911 76.3383L268.081 69.988C268.353 69.5754 268.786 69.282 269.285 69.1721C269.785 69.0623 270.31 69.1451 270.745 69.4024C271.181 69.6596 271.49 70.0702 271.606 70.5438C271.722 71.0174 271.635 71.5153 271.363 71.9278L263.718 83.567Z" fill="#495747"/>
<path d="M180.43 4.19764C181.57 4.19764 182.495 3.32092 182.495 2.23946C182.495 1.158 181.57 0.281311 180.43 0.281311C179.289 0.281311 178.364 1.158 178.364 2.23946C178.364 3.32092 179.289 4.19764 180.43 4.19764Z" fill="white"/>
</svg>
