<svg width="307" height="256" viewBox="0 0 307 256" fill="none" xmlns="http://www.w3.org/2000/svg">
<path d="M244.95 230.057H98.959C98.4397 230.057 97.9417 229.851 97.5745 229.483C97.2073 229.116 97.001 228.617 97.001 228.098C97.001 227.578 97.2073 227.08 97.5745 226.712C97.9417 226.345 98.4397 226.138 98.959 226.138H244.95C245.469 226.138 245.967 226.345 246.334 226.712C246.702 227.08 246.908 227.578 246.908 228.098C246.908 228.617 246.702 229.116 246.334 229.483C245.967 229.851 245.469 230.057 244.95 230.057Z" fill="#495747"/>
<path d="M87.72 230.155H72.1536C71.6343 230.155 71.1363 229.949 70.7691 229.581C70.4019 229.214 70.1956 228.715 70.1956 228.196C70.1956 227.676 70.4019 227.178 70.7691 226.81C71.1363 226.443 71.6343 226.236 72.1536 226.236H87.72C88.2393 226.236 88.7373 226.443 89.1045 226.81C89.4717 227.178 89.678 227.676 89.678 228.196C89.678 228.715 89.4717 229.214 89.1045 229.581C88.7373 229.949 88.2393 230.155 87.72 230.155Z" fill="#495747"/>
<path d="M194.668 229.352C194.195 229.352 193.724 229.312 193.258 229.234L105.616 214.303C104.545 214.123 103.519 213.733 102.599 213.155C101.678 212.578 100.88 211.825 100.251 210.938C99.6218 210.052 99.1734 209.05 98.9315 207.99C98.6896 206.93 98.659 205.833 98.8414 204.761L121.574 71.0883C121.942 68.9228 123.153 66.9918 124.942 65.7194C125.836 65.0796 126.85 64.6267 127.924 64.3876C128.997 64.1486 130.107 64.1284 131.188 64.3282L218.83 79.2395C219.902 79.4222 220.928 79.8144 221.848 80.3939C222.769 80.9733 223.567 81.7285 224.196 82.6164C224.825 83.5043 225.273 84.5075 225.515 85.5688C225.757 86.63 225.787 87.7285 225.604 88.8015L202.872 222.474C202.692 223.547 202.3 224.573 201.718 225.491C201.137 226.41 200.377 227.203 199.484 227.823C198.084 228.837 196.395 229.373 194.668 229.352ZM129.72 68.1099C128.823 68.1208 127.95 68.4007 127.213 68.9133C126.27 69.5899 125.63 70.6102 125.431 71.7545L102.699 205.427C102.511 206.564 102.781 207.73 103.448 208.669C104.116 209.609 105.127 210.247 106.262 210.443L193.845 225.335C194.408 225.43 194.985 225.414 195.542 225.286C196.098 225.159 196.624 224.923 197.09 224.591C197.556 224.26 197.951 223.84 198.255 223.356C198.558 222.872 198.763 222.332 198.858 221.769L221.669 88.1745C221.866 87.0371 221.606 85.8677 220.944 84.9219C220.273 83.9822 219.261 83.3424 218.125 83.1388L130.464 68.1883C130.22 68.1333 129.97 68.1069 129.72 68.1099Z" fill="#495747"/>
<path d="M191.006 67.1694C190.037 67.01 189.144 66.5431 188.46 65.8375C187.776 65.1319 187.337 64.225 187.207 63.2506C186.902 60.883 185.844 58.6764 184.189 56.9566C182.535 55.2369 180.372 54.0951 178.019 53.6997C175.666 53.3044 173.249 53.6766 171.124 54.7613C168.999 55.846 167.279 57.5857 166.217 59.7236C165.777 60.5978 165.067 61.3065 164.192 61.7442C163.317 62.182 162.324 62.3255 161.361 62.1533L157.034 61.4283C156.018 61.2755 154.982 61.5289 154.15 62.1338C153.318 62.7386 152.758 63.6465 152.589 64.6614L150.631 76.6727C150.477 77.6814 150.723 78.7105 151.315 79.5411C151.907 80.3718 152.8 80.9384 153.803 81.1206L192.103 87.5867C193.111 87.7409 194.139 87.4955 194.969 86.9027C195.799 86.3099 196.365 85.4165 196.547 84.4125L198.505 72.4011C198.66 71.3952 198.417 70.3686 197.829 69.5385C197.241 68.7084 196.353 68.1398 195.353 67.9532L191.006 67.1694Z" fill="#ED7F69"/>
<path d="M210.998 103.36H210.665L130.855 89.7028C130.336 89.6145 129.873 89.3233 129.568 88.8934C129.264 88.4635 129.142 87.93 129.23 87.4103C129.319 86.8906 129.609 86.4273 130.039 86.1223C130.469 85.8174 131.002 85.6956 131.521 85.784L211.331 99.402C211.85 99.4462 212.33 99.695 212.666 100.094C213.002 100.492 213.166 101.008 213.122 101.528C213.078 102.048 212.829 102.529 212.431 102.865C212.033 103.201 211.517 103.365 210.998 103.321V103.36Z" fill="#495747"/>
<path d="M201.893 156.755H201.56L121.75 143.039C121.239 142.952 120.783 142.667 120.482 142.244C120.181 141.822 120.06 141.297 120.145 140.785C120.188 140.53 120.28 140.286 120.418 140.067C120.555 139.847 120.735 139.658 120.946 139.508C121.157 139.359 121.396 139.253 121.648 139.196C121.9 139.14 122.162 139.134 122.416 139.179L202.206 152.895C202.725 152.936 203.207 153.182 203.545 153.579C203.883 153.976 204.049 154.491 204.007 155.011C203.966 155.53 203.72 156.012 203.323 156.35C202.927 156.688 202.412 156.855 201.893 156.813V156.755Z" fill="#495747"/>
<path d="M192.768 210.208H192.436L112.626 196.492C112.107 196.404 111.644 196.112 111.339 195.683C111.034 195.253 110.913 194.719 111.001 194.199C111.089 193.68 111.38 193.216 111.81 192.911C112.239 192.607 112.773 192.485 113.292 192.573L193.101 206.289C193.621 206.333 194.101 206.582 194.437 206.981C194.773 207.38 194.937 207.895 194.893 208.415C194.849 208.935 194.6 209.416 194.202 209.752C193.803 210.088 193.288 210.252 192.768 210.208Z" fill="#495747"/>
<path d="M180.824 116.528H180.492L127.82 107.534C127.567 107.489 127.325 107.394 127.108 107.256C126.891 107.117 126.704 106.937 126.557 106.726C126.409 106.515 126.305 106.277 126.25 106.026C126.195 105.774 126.189 105.514 126.234 105.261C126.325 104.753 126.613 104.301 127.034 104.004C127.456 103.707 127.978 103.588 128.486 103.674L181.138 112.667C181.395 112.688 181.645 112.759 181.875 112.877C182.105 112.994 182.309 113.156 182.476 113.352C182.644 113.549 182.771 113.776 182.85 114.022C182.929 114.267 182.96 114.526 182.939 114.784C182.918 115.041 182.847 115.292 182.73 115.522C182.613 115.751 182.451 115.956 182.255 116.123C182.058 116.291 181.831 116.418 181.586 116.497C181.34 116.577 181.082 116.607 180.824 116.586V116.528Z" fill="#495747"/>
<path d="M207.963 121.171H207.63L187.58 117.723C187.072 117.628 186.622 117.335 186.328 116.909C186.035 116.484 185.922 115.959 186.013 115.45C186.104 114.942 186.391 114.49 186.813 114.193C187.235 113.896 187.756 113.777 188.265 113.863L208.315 117.272C208.834 117.316 209.315 117.565 209.651 117.964C209.987 118.363 210.151 118.878 210.107 119.398C210.063 119.918 209.814 120.399 209.416 120.735C209.017 121.071 208.502 121.235 207.982 121.191L207.963 121.171Z" fill="#495747"/>
<path d="M137.454 127.363H137.062L124.785 125.404C124.528 125.36 124.282 125.266 124.061 125.127C123.841 124.988 123.649 124.807 123.498 124.594C123.347 124.381 123.24 124.141 123.182 123.886C123.124 123.632 123.116 123.369 123.16 123.111C123.204 122.854 123.298 122.608 123.437 122.387C123.575 122.166 123.756 121.974 123.969 121.823C124.182 121.672 124.422 121.565 124.676 121.507C124.931 121.449 125.194 121.441 125.451 121.485L137.787 123.601C138.306 123.645 138.786 123.894 139.122 124.293C139.458 124.691 139.622 125.207 139.578 125.727C139.534 126.247 139.286 126.728 138.887 127.064C138.489 127.4 137.973 127.564 137.454 127.52V127.363Z" fill="#495747"/>
<path d="M204.928 138.983H204.595L144.894 128.754C144.375 128.669 143.911 128.38 143.604 127.952C143.298 127.524 143.174 126.991 143.259 126.472C143.345 125.952 143.634 125.488 144.061 125.181C144.489 124.874 145.021 124.75 145.541 124.836L205.202 135.025C205.721 135.069 206.202 135.318 206.538 135.716C206.874 136.115 207.038 136.631 206.993 137.151C206.949 137.67 206.701 138.151 206.302 138.487C205.904 138.824 205.388 138.988 204.869 138.943L204.928 138.983Z" fill="#495747"/>
<path d="M171.7 169.961H171.367L118.716 160.928C118.196 160.843 117.732 160.554 117.426 160.126C117.119 159.698 116.995 159.165 117.081 158.646C117.166 158.126 117.455 157.662 117.883 157.355C118.31 157.048 118.842 156.924 119.362 157.009L172.033 166.003C172.552 166.047 173.033 166.296 173.369 166.695C173.705 167.094 173.869 167.61 173.824 168.129C173.78 168.649 173.532 169.13 173.133 169.466C172.735 169.802 172.219 169.966 171.7 169.922V169.961Z" fill="#495747"/>
<path d="M198.838 174.605H198.525L178.475 171.137C177.963 171.051 177.507 170.765 177.206 170.342C176.905 169.92 176.784 169.395 176.869 168.884C176.912 168.628 177.004 168.384 177.142 168.165C177.279 167.946 177.459 167.756 177.67 167.606C177.881 167.457 178.12 167.351 178.372 167.294C178.625 167.238 178.886 167.232 179.14 167.277L199.171 170.706C199.682 170.792 200.138 171.078 200.439 171.5C200.74 171.923 200.862 172.447 200.777 172.959C200.702 173.419 200.466 173.838 200.111 174.14C199.755 174.441 199.304 174.606 198.838 174.605Z" fill="#495747"/>
<path d="M128.329 180.875H128.016L115.68 178.759C115.161 178.673 114.697 178.385 114.391 177.957C114.084 177.529 113.96 176.996 114.046 176.476C114.131 175.957 114.42 175.492 114.847 175.186C115.275 174.879 115.807 174.755 116.327 174.84L128.662 176.956C129.182 177.001 129.662 177.249 129.998 177.648C130.334 178.047 130.498 178.563 130.454 179.082C130.41 179.602 130.161 180.083 129.763 180.419C129.364 180.755 128.849 180.92 128.329 180.875Z" fill="#495747"/>
<path d="M195.803 192.416H195.47L135.829 182.227C135.31 182.139 134.847 181.848 134.542 181.418C134.237 180.988 134.115 180.454 134.204 179.935C134.292 179.415 134.583 178.952 135.013 178.647C135.442 178.342 135.975 178.22 136.495 178.308L196.136 188.498C196.647 188.584 197.104 188.87 197.405 189.292C197.706 189.714 197.827 190.239 197.742 190.751C197.671 191.215 197.437 191.638 197.081 191.944C196.726 192.249 196.272 192.417 195.803 192.416Z" fill="#495747"/>
<path d="M97.7647 144.195L93.5353 137.729C93.4391 137.584 93.3038 137.469 93.1451 137.398C92.9865 137.327 92.8109 137.302 92.6388 137.327C92.4667 137.351 92.3051 137.424 92.1727 137.537C92.0403 137.65 91.9424 137.798 91.8906 137.964L89.5997 145.351L87.0347 153.6C86.8439 154.235 86.7905 154.903 86.878 155.559L96.6682 225.433C96.7895 226.26 97.2317 227.005 97.8989 227.508C98.566 228.01 99.4043 228.229 100.232 228.117L110.316 226.687C110.725 226.632 111.119 226.496 111.476 226.287C111.833 226.079 112.145 225.802 112.394 225.472C112.644 225.142 112.825 224.767 112.929 224.367C113.033 223.966 113.056 223.55 112.998 223.14L103.208 153.267C103.117 152.567 102.869 151.898 102.484 151.307L97.7647 144.195Z" fill="white"/>
<path d="M99.8597 230.155C98.63 230.157 97.4409 229.714 96.5123 228.907C95.5837 228.101 94.9783 226.985 94.808 225.766L85.0178 155.893C84.8794 154.927 84.9597 153.943 85.2528 153.012L90.0891 137.337C90.2519 136.817 90.5586 136.354 90.9739 136.001C91.3891 135.648 91.8957 135.421 92.4349 135.345C92.9741 135.269 93.5238 135.348 94.0201 135.572C94.5164 135.796 94.939 136.157 95.2388 136.612L104.207 150.328C104.739 151.144 105.087 152.067 105.225 153.032L115.015 222.905C115.199 224.245 114.845 225.604 114.03 226.684C113.216 227.764 112.007 228.476 110.668 228.666L100.584 230.096C100.345 230.135 100.102 230.155 99.8597 230.155ZM93.1045 140.668L88.9143 154.168C88.8269 154.555 88.8269 154.957 88.9143 155.344L98.7045 225.217C98.753 225.53 98.9212 225.811 99.1734 226.001C99.4257 226.191 99.7421 226.276 100.056 226.236L110.139 224.806C110.294 224.787 110.444 224.737 110.579 224.659C110.714 224.581 110.833 224.477 110.928 224.353C111.023 224.229 111.092 224.088 111.131 223.936C111.171 223.785 111.18 223.628 111.158 223.473L101.367 153.6C101.31 153.209 101.17 152.835 100.956 152.503L93.1045 140.668Z" fill="#495747"/>
<path d="M90.05 143.764L96.629 142.843L93.2808 137.729L90.05 143.764Z" fill="#495747"/>
<path d="M88.2876 144.998L93.1827 135.789L98.2931 143.626L88.2876 144.998ZM93.3589 139.629L91.8316 142.51L94.9645 142.079L93.3589 139.629Z" fill="#495747"/>
</svg>
