<svg version="1.1" id="Layer_1" xmlns="http://www.w3.org/2000/svg" x="0" y="0" viewBox="0 0 229.9 326.2" xml:space="preserve">
<style>.color-svg-partner-1{fill:#ED7F69;}.color-svg-partner-2{fill:#F28449;}</style>
  <path class="color-svg-partner-1" d="M72 24.7c2.5-.6 5-.3 7.5-.8 1.8-.3 3.5-.2 5.3-.5.8-.1 1.6.6 2.6.4 1.2-.3 2.6 0 3.8-.4 2.1-.8 4.3-.3 6.4-.6 1.5-.2 3-.7 4.4-.6 4.8.1 9.5-1.1 14.2-1.6 2.9-.3 5.7-.8 8.6-.8 4.9 0 9.6-1.1 14.5-1.6 3.1-.3 6.3-.3 9.4-.6 2.8-.3 5.7-.1 8.1-1.6 1.8-1.1 3.8-1.7 5.7-1.6 2.5.2 4.9-.4 7.3-.6.4.6 1 .4 1.5.5 3 .1 6-.5 8.9-.8 3.7-.4 7.3-.7 11 .1 1.6.4 3.1 1.4 4.7 1.7 5.9 1.1 10.8 4.2 15 8.3 2.3 2.3 4.2 4.9 6.4 7.3.1.1.1.2.2.3 2.3 4.7 4.3 9.4 4.6 14.7.3 6.4 0 12.8-.2 19.3-.1 3.3.3 6.7.1 10-.3 7.7-.1 15.3-.2 23-.1 6-.4 11.9-.2 17.9 0 .1 0 .3-.2.4V92.6c-.5.4-.4.9-.5 1.3-.4 3.5.4 6.9.1 10.4-.4 5.6-.2 11.3.1 16.9.2 4.3-.3 8.6-.4 12.9-.1-.2-.1-.4-.2-.6.5 9-.7 17.9-.8 26.9-.3.6-.2 1.1 0 1.7.1-.6.4-1.1.3-1.7.2-.8.2-1.7.7-2.7-.3 5.6 0 10.9-.3 16.3-.1 2.1.3 4.2-.1 6.3-.2.9-.2 1.9.8 2.6.4.2.3.9.3 1.4l-.3 11.4-.3 8.3v.3c.6.1.4.6.4.9-.1 2-.2 4-.4 6-.1 1.3.1 2.5.2 3.8.1 4.4-.1 8.7-.3 13.1 0 1-.5 2-.5 3-.1 7.3-.5 14.6-.5 21.9 0 7.2-2.6 13.7-6.2 19.9-1.6 2.8-3.6 5.2-5.7 7.7-1.6 1.9-3.4 3.5-5.4 5-6.2 4.3-13 6.8-20.5 7.6-.3 0-.6 0-.9-.1 3.5-.7 7-1.7 10.2-3.3 2-.9 4.1-1.9 5.8-3.2 2.3-1.9 5.2-3.4 6.6-6.3.2-.3.4-.6.7-.8 2.8-2.2 4.5-5.3 6.3-8.2 1.3-2.2 2.5-4.4 3-6.8 1.2-5.9 2.4-11.8 2.1-17.8 0-1-.4-1.1-1.2-.7-1.8.8-3.6 1.2-5.5 1h-.2c-2 1.3-4.3.2-6.4.7-3.9.9-7.9 1.1-11.8 1.6-.2 0-.4.1-.7.2.3.1.4.2.9.4-2.4.3-4.5.7-6.6 1-7.8.9-15.7 1.3-23.6 2.3-3.7.5-7.6.4-11.3.8-5.5.7-10.9 1.3-16.4 2-4.6.6-9.2 1-13.8 1.3-4.4.3-8.8.8-13.1 1.8-2 .4-4.1.2-6.2.3-8.4.5-16.8 1.8-25.2 2.8-2 .2-4 .3-5.9.5-2.2.3-4.5.4-6.7.8-2 .4-4.1.7-6.2.4-.9-.1-1.4.6-2.3.7-5.1.6-10.2 1.2-15.3 1.9-3.6.5-7.2.3-10.7.6-3.1.2-6.1.8-9.1 1.2-.9.1-1.7.3-2.6-.1-.6-.3-.7.1-.8.6-.3 4-.2 7.9.6 11.9.9 4.4 2.3 8.6 4.9 12.3 6.5 9.1 15.4 13.2 26.5 12.8 5.9-.2 11.8-1.2 17.7-1.8 6.4-.7 12.8-1.4 19.2-2 6.7-.7 13.5-1.3 20.3-1.8 6-.5 11.9-1 17.9-1.8 5.6-.7 11.2-1.3 16.9-2 5.9-.7 11.7-1.5 17.6-2.1 6.1-.6 12.1-.2 18.2-.2 1.9 0 3.7 1 5.8 1.7-6 1.4-11.7 2.8-17.5 3.9-2.6.5-5.3.5-8 .8-4.3.5-8.6 1.1-12.9 1.6-2.6.3-5.3.3-7.9.6-3.9.4-7.8 1.1-11.7 1.5-3.1.4-6.2.3-9.3.8-2.7.5-5.5.9-8.3 1.3-1.8.3-3.6 0-5.4.2-3 .4-5.9 1.1-8.8 1.6-3.2.6-6.4.5-9.6.9-4.2.5-8.3 1.1-12.5 1.6-5 .6-10 1.1-15 1.6-2.8.3-5.6.7-8.5.6-14.6-.5-25.7-6.8-32.4-20-3.1-6-4.9-12.5-4.7-19.3.2-4.7.4-9.3.2-14-.1-4.2-.2-8.4-.1-12.6.2-7.7.2-15.5.1-23.2 0-2.7 0-5.4-.2-8.1-.2-2.7.1-5.3-.4-8-.2-1.4.5-2.7.5-4.1.1-1.8.2-3.5-.2-5.3-.4-2-.2-4.1 0-6.1.2-3.8.1-7.7.1-11.5 0-3 .2-6.1.1-9.1-.3-7.9-.1-15.9-.4-23.8-.1-3.2.1-6.4.3-9.6.2-2.6-.1-5.2-.1-7.8-.1-6.9-.2-13.8-.4-20.7-.2-8.2-.4-16.4-.1-24.6.2-7 .2-14.2 1.6-21.2.8-3.9 1.9-7.8 4-11.2 1.6-2.7 3.6-5.2 5.6-7.7 1.6-2.1 3.3-4.2 5.4-5.8 3.3-2.6 6.8-4.9 10.6-6.8 2.4-1.2 5-1.9 7.5-2.7 1-.3 1.8-.9 2.8-.9h.5c3-.3 6-.3 8.9-1.3.2-.1.4-.1.6-.1 4.3-.3 8.5-.8 12.8-1 1.1-.1 2.2-.3 3.3-.5.3 0 .5-.2.6-.5.3-.2.2-.4.3-.6zM169 65s.2.5.9.7c1.7 0 3.3-.3 4.9-.6 1.5-.3 3.1.3 4.8.2 1.2-.1 2.5.1 3.9.2-.3-.3-.6-.6-.5-.7.1-.4.5-.2.8-.2 1.1.1 2.1-.2 3.2-.1.5 0 1.5.2 1.4-.9 0-.3.4-.3.7-.4 1.6-.1 3.2.4 4.8-.1.6-.2 1.3 0 2-.1 1.5-.3 3 0 4.5.2 1 .2 1.9.3 2.8.1 1.1-.2 2.2-.1 3.3 0 1.3.1 2.5.3 3.8.3 1.2 0 2.5-.4 3.7.1.8.3.8 0 .8-.6.2-4.6.1-9.1.1-13.7 0-1.8-.2-3.6-.6-5.4-3-14.5-15.9-24.6-30.7-23.9-6.7.3-13.3 1.4-20 2.1-6.1.6-12.1 1.4-18.2 2.1l-15.8 1.8-18.3 2.1L95.4 30c-5.6.6-11.2 1.3-16.9 1.8-4.8.4-9.7.9-14.5 1.4-3.5.4-7 .9-10.6 1.2-3.5.4-7 .7-10.3 1.8-13.1 4.3-21.4 13.6-26 26.4-2.2 6.1-2 12.6-2.2 18.9 0 .7.4.8.9.8 2.3-.2 4.6-.4 6.9-.7 1.9-.3 4 0 5.8-1 .1-.1.3 0 .3 0 .8.4 1.5 0 2.1-.3.4-.2.9-.5 1.3-.5 2.1.2 4-.5 6-.7 4.1-.4 8.2-1.1 12.4-1.2 2.1-.1 4.1-1 6.3-1 2 .1 4-.5 6-.5 1.7 0 3.2-.4 4.8-.8 1-.3 1.9-.8 3-.2.2.1.6.1.9-.2.2-.3.6-.4.9-.4 2.3.1 4.7-.2 7-.6 2.8-.5 5.6-.5 8.4-1 2.9-.5 5.7-1.2 8.6-1.5 1.5-.2 3 .4 4.5.1 2-.3 3.9-.7 5.9-.8 1.9-.1 3.8-.1 5.7-.3.9-.1 1.9.3 2.7-.2.9-.5 1.9-.5 2.9-.4.7.1 1.4.3 1.5-.8 0-.3.4-.5.5-.4.9.4 2-.3 2.8.5.3.3.8.2 1.1.1.9-.4 1.8-.1 2.7-.2 2.2-.3 4.5-.9 6.8-.5.1 0 .2 0 .2-.1 1-.4 2-.3 3-.1 1 .1 2.1.1 2.5-1.2.2-.6 1-1 1.1-.8.6.6 1.6-.3 2.1.6.1.2.7.2.9.1 1.9-.9 3.9.1 5.8-.6 1.2-.4 2.5-.1 3.6-.7.8-.4 1.7-.5 2.4-.5 2.6 0 5.2 0 7.9-.2 2.2 0 4.1 0 5.9-.3M15 87.8c0 .2-.1.4-.1.6 0 5.8-.1 11.5-.1 17.3 0 13.5 0 26.9.1 40.4 0 8.7.1 17.5.1 26.2 0 14.3.5 28.6-.2 42.9-.1 2 .4 4 .4 6-.1 13.3-.1 26.7-.1 40 0 1 .4 1.3 1.2 1.1.4-.1.7 0 1.1-.1 2.3-.7 4.7-.3 7-.8 1.3-.3 2.7-.1 3.9-.7.2-.1.4-.1.6 0 .8.3 1.4 0 2-.3.4-.2.9-.5 1.3-.5 1.5 0 3-.3 4.5-.5 4.2-.4 8.5-1.2 12.7-1.3 1.6 0 3.2 0 4.6-1 .3-.2.8-.2 1.2-.1.6.3 1.2.2 1.8.1 3.9-1 8.1-.3 12-1.9 1.2-.5 2.4 0 3.7-.3 2.3-.4 4.7-.4 6.9-.8 2.6-.4 5.2-.6 7.8-.9 2.9-.4 5.8-1.2 8.7-1.5 1.7-.2 3.4.3 5.1.1 1.7-.2 3.2-.7 5-.7 2.2 0 4.4-.3 6.7-.3.8 0 1.6.3 2.4-.1 1.1-.5 2.2-.6 3.3-.4.5.1 1.1.1 1.2-.6.1-.6.4-.6.9-.6 1.1 0 2.2.6 3.2.5 2-.1 4 0 5.9-.7 1.3-.5 2.6.3 3.9-.1 1.1-.3 2.2-.4 3.4-.2 1.1.2 2.1 0 2.5-1.3.2-.5.9-1 1.2-.7.7.5 1.6-.2 2.1.6.1.1.6.2.8.1 1.9-.8 3.9 0 5.8-.6 1.2-.4 2.5 0 3.6-.7.8-.5 1.7-.5 2.4-.5 2.5 0 5.1 0 7.6-.2 2-.2-2 .3 0 0 .5-.1 4.3-.2 4.6.4-.7 0 0 0 0 0 .9.7 1.5 0 2.2-.2 1.6 0 3.2-.2 4.8-.6 1.6-.4 3.2.4 4.9.2 1.2-.1 2.5 0 3.7.2.1-.5-.6-.5-.4-.9 1.2-.1 2.4-.1 3.6-.2.7-.1 1.7.4 1.9-.9.1-.4.6-.4.9-.3 2.4.3 4.8-.1 7.2-.3.7-.1 1.5 0 2.3.1 1.3.1 2.5.7 3.8.4 1.6-.3 3.2-.2 4.9 0 .9.1 1.9.2 2.8.2 1.3 0 2.7-.4 3.9.2 1.4.6 1.5.6 1.5-1 .1-5-.3-9.9-.3-14.8V188c0-.5.1-1.1-.2-1.8-.1 1-.1 1.8-.2 2.7-.4-.5-.3-.8-.3-1.2-.1-9.7-.2-19.5-.2-29.2-.1-14.2.2-28.4.3-42.7.2-16.3 0-32.6 0-48.9v-.6c0-.5 0-.8-.7-.5-1.3.6-2.7.8-4.2.9-.7 0-1.4-.3-2 .1-.8.6-1.6.4-2.5.4-.8 0-1.6-.1-2.4-.1-1.6.1-3.1.7-4.7.8-2.4.2-4.8.5-7.3.7-.4 0-.8.1-1.2.3 0 .3.5 0 .5.5l-6.5.9c-3.5.5-7.1.6-10.6.9-6.2.5-12.3 1.5-18.6 1.8-6.9.3-13.7 1.4-20.6 2.3-3.9.5-7.7 1.2-11.6 1.3-3.9.1-7.7.7-11.5 1.1-3.1.3-6.2 1.2-9.3 1.2-4.7 0-9.3.6-13.9 1.1-6.7 1-13.4 1.9-20.2 2.8-4.6.6-9.3.8-13.9 1.6-2.9.5-5.8.8-8.7 1.1-4.3.4-8.6 1.4-13 1.3"/>
  <path class="color-svg-partner-2" d="M37.6 289.3c-.4-.2-.8-.1-1.1-.1-.6.1-1-.2-1.2-.7-.1-.6.2-1.3.8-1.3 3 .1 2.5-2.3 3.1-4-.6-.2-1 0-1.5.1-.6 0-1-.2-1.2-.8-.1-.7.3-1 .8-1.3h.2c2 .2 2.7-.9 2.9-2.7 0-.1.1-.2.1-.3.3-.8.8-1.1 1.6-.9.8.2.8.9.6 1.6-.4 1.8-.4 1.8 1.5 1.7.9-.1 1.4-.4 1.5-1.3.1-.6.3-1.2.5-1.7.3-.7.8-1 1.5-.8.7.2.8.8.6 1.4-.1.2-.1.4-.2.6-.4 1-.3 1.5 1 1.2.6-.2 1.1.1 1.2.7.1.6-.2 1.1-.8 1.3-.1.1-.3.1-.5.1-.6.2-1.6-.2-1.9.5-.5 1-.6 2-.9 3.1-.1.3.1.4.4.4.4 0 .8-.1 1.2-.1.6-.1 1.2.2 1.2.9 0 .6-.3 1-.9 1.2h-.2c-2.1-.2-2.9.9-3.1 2.8 0 .4-.2.9-.5 1.2-.4.4-.9.5-1.4.3-.5-.2-.6-.6-.5-1.1 0-.2.1-.4.1-.6.1-.6.7-1.5.2-1.7-.8-.4-1.8-.1-2.7.1-.3.1-.3.4-.4.7-.2.8-.4 1.6-.7 2.4-.2.7-.8 1.2-1.6.9-.8-.2-.9-.8-.6-1.6.6-.8.8-1.5.9-2.2zm4.6-2.7c.5-.1 1.5.2 1.8-.4.5-.9.6-2 .9-3.1.1-.3-.1-.4-.4-.4-2-.2-2.7.3-3.2 2.2-.1.2-.1.4-.2.6-.4 1.2-.4 1.2 1.1 1.1zM56 291.2c-1 0-2.5-.5-3.4-2.1-.5-.9-.5-1.7.4-2.3.9-.6 1.6-.3 2.2.5.9 1.2 2.7 1.4 3.8.5.5-.4.8-.9.7-1.6-.1-.7-.6-.9-1.1-1.1l-3-.6c-1.6-.4-2.8-1.1-3.2-2.8-.4-1.8.2-3.3 1.5-4.4a6 6 0 016-1.3c.9.3 1.6.8 2 1.6.5.8.3 1.5-.3 2s-1.3.6-1.9-.1c-.9-.9-2-1.1-3.2-.6-.7.3-1.1.8-1 1.6.1.7.6 1 1.2 1.1 1 .2 2.1.4 3.2.7 1.6.4 2.8 1.2 3.1 2.9.3 1.8-.3 3.3-1.7 4.5-1.3 1-2.9 1.5-5.3 1.5zM177.7 272.3c-1 1.8-2 3.3-2.8 4.9-.4.7-.9 1.1-1.6 1.1-1.2.1-1.8-1.2-1.1-2.3 1-1.8 2.1-3.5 3.2-5.2.4-.6.4-1.1-.1-1.7-.8-1-1.5-2.1-2.3-3.1-.8-1.1-.7-2.1.2-2.7.9-.6 1.7-.4 2.5.9.5.7 1 1.5 1.4 2.2.4.7.7.8 1.1 0 .5-1.1 1.2-2.1 1.8-3.1.6-1.1 1.6-1.4 2.4-.9.7.5.8 1.4.2 2.4-.8 1.2-1.5 2.5-2.3 3.6-.5.7-.5 1.3 0 2 1 1.3 1.9 2.7 2.9 4.1.6.9.5 1.9-.4 2.5-.8.6-1.7.4-2.3-.6-.5-.7-.9-1.3-1.3-2-.5-.6-1-1.3-1.5-2.1zM81.2 278c-.5.3-.8.8-.9 1.3-2.1-1.6-4.3-1.5-6.2.3a5.84 5.84 0 00-1.8 5.6c.6 3.6 4.5 4.9 7.3 2.5.4-.3.6-.6 1 0s1 .7 1.7.5c.7-.3 1.1-.8 1.2-1.5 0-2.5.1-5 0-7.5-.2-1.3-1.3-1.8-2.3-1.2zm-3.7 8c-1.1 0-2.2-1.1-2.1-2.2.1-1.8 1.3-3.1 2.7-3.1 1.2 0 2.3 1.1 2.2 2.3 0 1.6-1.5 3.1-2.8 3zM89.9 282.7c.6-1.6 1.1-3 1.7-4.3.1-.4.3-.8.5-1.1.5-.8 1.2-1.1 2-.7.8.4.8 1.1.5 1.8-1.3 3.2-2.5 6.4-3.8 9.7-.4 1.1-.8 2.2-1.3 3.2-.4.9-1.1 1.4-2.1 1.1-1.1-.4-.9-1.3-.6-2.1v-.1c1.7-2.7 1.4-5.3-.3-7.9-.6-.9-.9-1.9-1.3-2.8-.4-1-.1-1.8.8-2.1 1-.4 1.6 0 2 .9.6 1.4 1.2 2.7 1.9 4.4zM149.4 271.9c.7-.9 1.4-1.4 2.3-1.7 2.1-.6 4 .4 4.2 2.6.2 2 .1 4.1.1 6.1 0 1-.8 1.5-1.7 1.4-.9 0-1.3-.6-1.3-1.5v-3.6c0-1.4-.5-2-1.5-2.1-1.2-.1-2.1.8-2.1 2.1v4.1c0 .9-.4 1.5-1.2 1.7-1 .3-1.8-.2-1.9-1.2v-7.4c0-.9.5-1.4 1.3-1.6.9-.2 1.6 0 1.8 1.1zM186 269.2v-5.7c0-1 .4-1.6 1.3-1.9 1-.4 1.8.3 1.9 1.5 0 3.1.1 6.2 0 9.3 0 1.1.2 1.4 1.3 1.2.9-.2 1.8-.2 2.7-.3.8-.1 1.5.1 1.6 1 .2.9-.4 1.6-1.2 1.8-2.1.3-4.2.5-6.3.7-1 .1-1.3-.6-1.3-1.5v-6.1zM100.8 286.3c-3.7 0-5.8-3.1-4.6-6.6 1.1-3.1 5-5 8-3.7.9.4 1.4.9 1 1.9-.4.9-1.1 1.2-2 .9-1-.3-2-.4-3 .2-1.1.7-1.5 1.9-1.1 3 .4 1 1.5 1.5 2.8 1.1.4-.1.8-.4 1.2-.5.7-.3 1.5-.5 2 .3s.1 1.6-.6 2.1c-1 .9-2.2 1.4-3.7 1.3zM67.6 275.5c.8 0 1.3.4 1.4 1.2v1.2c0 .8-.2 1.7 1.2 1.3.6-.1 1 .3 1 .9.1.7-.3 1.4-1 1.4-1.3 0-1.3.8-1.2 1.7v4.7c0 1.1-.7 1.9-1.7 1.9-1.2-.1-1.4-.9-1.4-1.9V283c0-.6 0-1-.8-.9-.7.1-1.1-.4-1.1-1 0-.7.3-1.3 1-1.3.9-.1 1-.6.9-1.3 0-.5-.1-1 0-1.6.2-.9.8-1.3 1.7-1.4zM121.5 279.7v-1.9c0-.8.3-1.7-1.1-1.6-.4 0-.7-.4-.8-.9 0-.6.2-1.2.8-1.3 1.1-.1 1.2-.7 1.1-1.6 0-.5-.1-1 0-1.4.2-1 .8-1.4 1.8-1.4 1 .1 1.3.7 1.2 1.6v1.1c0 .7-.1 1.4 1 1.1.6-.2 1.1.2 1.2.9.1.7-.2 1.4-1 1.4-1.3.1-1.3.8-1.3 1.7.1 1.6 0 3.1 0 4.7 0 1.1-.7 1.9-1.7 1.9-.9 0-1.4-.6-1.4-1.8.2-.9.2-1.7.2-2.5zM131.4 277.7v3.7c0 1-.6 1.5-1.6 1.6-1 .1-1.5-.5-1.5-1.5v-7.2c0-.8.4-1.4 1.3-1.7 1-.3 1.7.2 1.8 1.3v3.8zM129.8 270.7c-1 0-1.7-.7-1.7-1.6 0-1.1 1-2 2.1-2 1 0 1.6.5 1.7 1.5 0 1.1-1.1 2.1-2.1 2.1z"/>
  <path class="color-svg-partner-2" d="M167.6 270.7c1.8-1.5 2.2-3 1.5-4.7-.6-1.4-1.9-2.2-3.7-2.1-1.7.1-3.3.4-5 .6-1 .1-1.5.7-1.5 1.7v12c0 1.1.5 1.5 1.7 1.4 1.3-.1 2.5-.3 3.8-.4 1.2-.1 2.4-.3 3.4-1 1.6-1.1 2.4-2.6 2.3-4.5 0-1.6-.9-2.5-2.5-3zm-4.2-3.8c.5 0 .9-.1 1.6-.1.5.1 1 .3 1.2 1 .2.8 0 1.6-.8 2-.3.2-.7.2-1 .2-2.1.3-2.1.3-2.1-1.8-.2-1 .1-1.3 1.1-1.3zm1.9 9.3c-.7.1-1.3.1-2 .3-.9.2-1.3-.1-1.2-1v-.7-1.2c0-.6.2-.8.8-.8.6 0 1.3-.1 1.9-.2 1.3-.1 1.9.3 2.1 1.3a2 2 0 01-1.6 2.3zM118.1 275.4c0-1.1-1.2-1.7-2.2-1.1-.5.3-.8.8-.9 1.3-2.1-1.6-4.2-1.5-6.2.3-1.4 1.2-1.9 2.8-1.9 4.6.1 1.9.7 3.5 2.6 4.2 1.7.7 3.5.6 4.9-.9.4-.4.6-.4.9 0 .4.6 1 .7 1.7.5.7-.3 1.2-.8 1.2-1.5 0-2.3 0-4.9-.1-7.4zm-5.8 7.1c-1.1 0-2.2-1-2.2-2.1 0-1.7 1.2-3.1 2.7-3.1 1.2 0 2.3 1 2.3 2.3 0 1.3-1.4 2.8-2.8 2.9zM139.6 271.4c-3.4 0-6 2.5-6 5.8 0 2.8 1.9 4.8 4.7 4.8 3.4 0 6.1-2.6 6.1-5.9-.1-2.8-1.9-4.7-4.8-4.7zm-.9 7.7c-1.2 0-2.1-.9-2.1-2.2 0-1.4 1.1-2.6 2.5-2.6 1.3 0 2.1.8 2.1 2.1.1 1.5-1.1 2.7-2.5 2.7zM92.3 124.8c.1-1.7-.1-3.5-.3-5.3-.2-1.4-.8-3.1-2-4.1-1.2-1-2.8-.9-4.3-.5-2.2.6-4.4 1.1-6.4 2.1-1.5.7-3.1 1.3-4.5 2.4-1.9 1.6-5.3 1.1-7.1-.1-.2-.1-.3-.3-.4-.5-.6-2.4-2.1-4.6-1.5-7.3.9-3.7 2.2-7 4.9-9.8 2.6-2.7 4.9-5.6 8.3-7.4 2.8-1.5 5.6-3.3 9-3.1 1.8.1 3.2.8 4.4 2.1.6.6.6 1.3.7 2.1 0 .6-.3.9-.8 1-.5.1-.9 0-1.2-.5 0-.1-.1-.1-.1-.2-.3-.7-.3-1.7-1.3-1.9-1.2-.2-2.4-.3-3.5.4-1.7 1-3.4 1.8-5.2 2.5-1.3.6-2.5 1.6-3.5 2.6-.8.8-1.7 1.8-2.5 2.4-2.1 1.3-2.5 3.5-3.4 5.4-1 2-1.4 4.2-1.8 6.4-.1.5-.1 1.1 0 1.7.1.8.6 1.1 1.4 1 1.7-.2 3.2-.9 4.6-1.7.8-.4 1.7-.3 2.5-.8 2.3-1.2 4.7-2 7.2-2.5 3.6-.7 8.5.9 9.7 5 .7 2.3 1.6 4.6 2 7 .4 2.5 0 4.9-.2 7.4-.2 2.6-1.4 4.9-2.1 7.3-.3 1.2-1.1 2.2-1.8 3.3-1.1 1.8-2.5 3.5-3.8 5.1-2.9 3.6-6.9 5.8-11.1 7.8-3 1.4-6.1 2.4-9.4 2.5-3.3.1-4.9-1.6-5.8-4.1-.7-1.8-1-3.8-1.3-5.7-.5-3.2.2-6.1 2.2-8.7 1-1.3 3.7-1.5 4.9-.5.7.7.8 1.7.1 2.7-.5.7-1.1 1.3-1.6 1.9-1.8 2.1-2.8 4.5-2.3 7.4.3 1.7 2.1 3.3 3.9 3.6 2.1.3 3.9-.7 5.8-1.3 1-.3 1.8-.7 2.6-1.1 5.1-2.5 8.8-6.4 11.3-11.4 1-2.1 1.7-4.4 2.2-6.8.4-1.7 1-3.4 1.4-5.2.2-.6.1-1.5.1-2.6zM158 165.3c-1.6.4-1.9 1.7-2.4 2.8-.6 1.3-1.1 2.7-1.7 4-.9 1.9-1.4 3.8-2.2 5.8-.2.5-.2 1.3-1.2 1.2-1-.1-1.3-.4-1.2-1.4.2-3.2 1.1-6.3 2.3-9.2.9-2.2 1.3-4.4.6-6.8-.5-1.5-1.3-2.1-2.8-1.7-2.2.5-4.5.8-6.5 1.9-.5.2-.8.6-1.3.8-1 .4-1 1.1-.6 2 1.3 3.2 2.1 6.5 1.5 9.9-.4 2.4-1.2 4.6-2.5 6.7-1.2 2-3.2 2.3-5.2 2.7-1 .2-1.9-.1-2.8-.4-.6-.2-1-1-1.4-1.6-.3-.4-.4-.8-.7-1.3-1.4 1.7-2.8 3.3-4 5.1-1.2 1.7-4.7 2.5-6.3 1.1a5.73 5.73 0 01-2.2-4.7c.1-3.7.3-7.3 1.1-10.9.8-3.7 2.1-7.2 3.2-10.8.2-.6.6-1.2 1.3-1.5.5-.3 1-.2 1.4.1.5.4.2.8.1 1.2-1.1 4.2-2.2 8.3-3.2 12.5-.7 2.8-.8 5.8-.5 8.7.1 1.1.8 1.8 1.3 2.6.3.5.7.1 1.1 0 1.8-.9 2.8-2.5 3.7-4.2.6-1.1.9-2.4 1.2-3.6.6-2.4 1.5-4.6 2.1-7.1.4-2 1.3-4.1 2.9-5.7.4-.4.8-1 1.2-1.5.7-.8 1.6-1.5 2.5-1.1 1.5.6 2.7.1 3.8-.6 1.6-.9 3.4-1.6 5.1-2.3 3-1.2 6-.8 8.8.8.4.2.5.6.6 1 0 .5.1 1 .2 1.4.3 1.4.3 1.4 1.4.6 1.1-.8 3.3-.4 3.9.8.6 1.2.9 2.5.9 3.9-.1 2.2-.4 4.4-.6 6.7-.1.9.1 1.8 1.1 2.2 1.1.5 2.2.9 3.3-.1 1.4-1.3 2.4-2.9 3.6-4.3.3-.4.6-.8 1-1.2.3-.3.7-.4 1.1-.1.4.2.6.6.5 1.1-.6 3.6-4.2 7.1-8 7.7-2.7.4-5.4-1.6-5.4-4.4-.2-3-.1-5.8-.1-8.8zm-18.4 6.5c.1-1.9-.5-3.6-1.3-5.3-.3-.8-.6-1.6-1.7-1.6-1 0-1.5.7-1.9 1.6-1.4 3-2.6 6.1-2.8 9.6-.1 1.4.4 2.2 1.5 3 1.1.8 2.1.6 3.1-.1.7-.5 1.3-1.1 1.7-1.8 1-1.7 1.4-3.5 1.4-5.4zM155.1 111.3c-1.3.9-2.7 1.7-3.7 3.1-.7 1-2.6 1.4-3.9 1.1-1.9-.5-2.8-1.7-3.2-3.5-.3-1.2-.6-2.3-1.1-3.4-.6-1.4-.4-2.7 0-4.1.3-1 .4-2.1.6-3.2.3-1.4.4-2.9 1.3-4.3.5-.8 1-2 1.3-3.1.1-.4.1-1 .6-1 1.5.1 2.1.5 2.1 1.5 0 .7-.2 1.4-.5 2-2.4 4.8-2.2 9.8-1.6 14.9.1 1.2 1 1.7 2.2 1.1 1.8-.8 3.3-2.1 4.4-3.8 2-3.2 3.7-6.4 3.9-10.3 0-.9.7-1.1 1.4-1.4.7-.3 1 .3 1.3.7.4.5.7 1.2.6 1.9-.2 2.2-.2 4.4-.8 6.4-.6 2.4-1.2 4.7-1.4 7.2 0 .5-.6 1.2 0 1.5.4.2 1.1-.2 1.6-.4 2.7-1.3 5.4-1.8 8.3-1.2 1.7.4 3 1.8 2.6 3.4-.2.7-.7 1.7-1.6 2-.6.2-.8-.1-.8-.7 0-2.5-1-3.3-3.5-2.6-2.3.7-4.4 1.9-6.6 2.8-.7.3-1.1 1-1.2 1.8-.5 2.7-1 5.5-1.3 8.2-.2 2.1-1.1 4.1-1.6 6.2-.6 2.6-1.5 5-2.7 7.3-1.4 2.9-2.6 6-5.1 8.2-.7.6-1.1 1.5-1.9 2.1a4.82 4.82 0 01-6.1-.2c-2.3-1.9-2.6-4.4-2.7-7.2-.1-2.9.5-5.6 1.3-8.3 1.3-4.8 3.9-8.8 7.6-12 2.4-2.1 4.9-4.1 7.5-5.9.5-.3.9-.6 1.4-.9.7-.3.8-.8 1-1.6.6-1.1.5-2.7.3-4.3l.1-.1-.1.1c0-.1 0 0 0 0zm-.7 9c-3 2.6-6.3 4.7-8.8 7.7-1.4 1.6-2.7 3.3-3.8 5.1-1.6 2.6-2.2 5.6-2.5 8.6-.3 3 .5 5.4 2.6 7.5.2.2.6.7.9.5.7-.6 1.7-.7 2.2-1.7 1.1-1.9 1.6-4 2.9-5.7.2-.3.3-.6.1-.9-.2-.3-.1-.6.1-.8 1-.7.9-1.8 1.1-2.8.6-2.7 2.1-5.2 2.8-7.9.1-.5.5-.9.6-1.4.3-1.7.8-3.3 1.2-4.9.2-.9.8-1.9.6-3.3zM79 236h-1.1c-.8 0-1.1-.4-1-1.1.1-1.9-.3-3.8-.5-5.7-.2-1.8-.9-3.5-.4-5.4.4-1.4-.3-2.9-.4-4.4-.1-2.1-.1-4.3 0-6.5.1-2.5-.8-4.9-.8-7.4 0-1-.1-2-.1-3 0-.8-.2-1.2-1.1-1-1 .3-1.9-.6-2.9-.6-.5 0-.4-1.7.3-2.2 1.5-1.1 3.3-1.6 5.2-2 1.5-.3 2.9-.2 4.3-.4 3.4-.6 6.1.8 8.6 2.9.3.3.5.6.8.9 1.1 1.2 2.3 2.4 1.5 4.3-.6 1.4-.5 3.1-1.9 4.3-.7.5-1.1 1.4-1.6 2.1-.3.5-.4.8.4 1 1.9.5 3.7 1.4 5.5 2.1 1.6.5 2.3 1.5 3.2 2.7.7.9.7 1.9 1.4 2.7.4.5.6 1.2 0 1.8-.2.3-.3.5-.2.9.2.6.1 1.2-.1 1.8-.3 1-1.7 1.6-1.3 2.9-2 .7-1.9 3-3.4 4.1-1.3.9-2.2 2.4-3.2 3.8-1.4 2-3.5 3.3-5.4 4.8-1.6 1.3-3.3 2.2-5.1 3-.6.3-1.3.2-1.8.8-.5.6-2.3-.5-2.7-1.5-.4-1.2.4-1.4 1.2-1.8 3.6-1.6 6.6-4.1 9.4-6.8 1.7-1.7 3.4-3.4 5.1-5 1.8-1.8 2.7-4.2 3.6-6.6.2-.5.1-1.1-.2-1.6-1.4-1.9-3-3.4-5.5-3.6-.9-.1-1.7-.3-2.6-.3-.8-.1-1.6 0-2.3.6-1 .9-2.2 1.1-3.3 1.8-.7.5-1 1-.9 1.5.8 4.4.4 9 1.8 13.4.2 1.5-.9 2.7-2.5 2.7zm-1-34.7c.2 4.2.5 8.4.7 12.5 0 .9.3.9 1 .5 2.5-1.2 4-3.4 5.5-5.7.9-1.3 1.3-2.6 1.4-4.1.1-1.4-.3-2.5-1.6-3.2-1.8-.9-3.7-1.2-5.6-1.4-1.2-.1-1.8.2-1.4 1.4zM114.7 208.2c1.6-1.8 2.4-4.1 3.6-6.1.8-1.3 1.8-2.5 2-4.2.1-.7 1-1.3 1.4-2 .5-1.1 1.6-1.9 2.2-3 .3-.5.7-.2 1 0 .8.6 2.3.2 2.4 1.4a5 5 0 01-1 2.6c-1 1.3-1.9 2.8-2.5 4.4-.3.9-.7 1.8-1.3 2.4-.9.9-1.1 2-1.6 3-.4.9-1 1.7-1.6 2.4-.2.3-.1.4-.1.6.1.4 0 .7-.3.8-1.4.8-1.6 1.7-.6 3 .8 1.1 1.7 2.2 2.6 3.2 2 2.3 4.1 4.6 5.9 7.1 1.1 1.5.7 2.9-1 3.5-1.4.5-1.9-.8-2.7-1.4-.9-.7-1.8-1.4-2.6-2.3-.6-.7-1.2-1.4-2-1.9-.7-.5-1.4-1-1.6-2-.2-.8-1.4-.9-2-1.5-.2-.2-.8.4-1 .9-.4 1.4-1.2 2.8-2 3.9-1 1.3-1.6 2.8-2.1 4.2-.8 2-2.2 3.7-2.9 5.7-.4 1.1-.9 2-1.6 2.9-.2.3-.5.4-.8.4-.6 0-.7.4-.7.8 0 1-.4 1.6-1.4 1.7-1 .1-1.7-.4-1.9-1.4-.1-.4-.2-.8-.1-1.2.6-2.4 1.1-4.8 2.6-6.8 2.2-3 3.9-6.2 5.4-9.5.8-1.9 2-3.5 3-5.2.6-1 .3-1.6-.4-2.3-1.8-1.7-3.4-3.4-4.8-5.4-.7-.9-1.6-1.6-2.2-2.5-1.4-2.2-3.3-3.9-4.9-5.9-.8-.9-1.2-1.7-1.1-2.8.1-.9 1.3-1.7 2.2-1.3.7.3 1.4.7 2.2.9.9.2 1.2 1.1 1.6 1.8 1 1.4 2.2 2.6 3.5 3.6 2.6 2 4.7 5 7.2 7.5zM143.8 191.2c0 2.7-.5 5.4-1.3 8-.2.7-.4 1.4-.3 2.1.1 1.6-.7 3-.8 4.6-.1 3.1-1 6.1-1.4 9.2-.3 2.5-.3 5.1-1.2 7.5l-.3 1c-.1 1.1.5 1.8 1.5 1.5 2.5-.6 5-.8 7.4-1.8 1.2-.5 2.6-.9 4-.6.7.2 1-.4 1.5-.6 1.3-.5 2.7-.8 4.1-1.1 1.3-.3 2.6-.5 3.9-.8.9-.2 2.4 1.7 2.5 3 .2 2-.7 2.8-2.8 2.7-1.4-.1-2.7.8-4.1.9-.3 0-.6.3-1 .1-.5-.3-.9-.1-1.3.2-1.6.9-3.5 1.1-5.2 1.3-1.1.1-2.1.4-3 .7-1.5.4-3.1.4-4.5 1.1-1.2.6-2.5-.1-3.8.1-.6.1-1.2.2-1.9 0-.8-.3-1.3-.7-1.8-1.5-1-1.6-.5-3-.3-4.6.3-2.4.5-4.8 1-7.1.6-2.7.7-5.5 1.3-8.1.3-1.4.5-2.9 1.1-4.3.4-1 .5-2 .5-3 0-.8.2-1.6.4-2.3.4-2 .6-4.1 1-6.2.1-.4.1-.8.3-1.1.4-.6.7-1.2.8-2 0-.3.2-1.2 1-.8.3.1.5-.2.6-.5.1-.5.2-1 .9-.8.6.2 1.2.6 1.2 1.3.1.7 0 1.3 0 1.9zM103.3 98.4c-.2-2.4.2-4.5.8-6.6.2-.7.1-1.5.2-2.3 0-1 .9-1.7 2.1-1.5 1 .1 1.3.8 1.2 1.7-.3 2.7-1 5.3-.9 8.1 0 .4-.3 1 .4 1.3.6.2 1.1.3 1.7-.2.6-.5 1.5-.7 2.2-.5 1.5.6 2.7-.2 3.9-.9 1.2-.6 3.8-.6 4.8.2.1.1.2.1.4.2.6 0 .9.5.9 1.1 0 .5-.5.8-1 .8-4 .2-7.9 1.7-11.9 2.2-.8.1-1.4.3-1.4 1.4l-1.2 18.5c0 .2-.1.3 0 .5.8 2.7.3 5.5 1.3 8.2.4 1.1.1 2.3.7 3.4.4.8.7.7 1.2.3 1.1-.7 1.6-1.9 2.2-3 .2-.4.2-1.5 1.2-.7 0 0 .3-.2.4-.4.4-.4.8-.9 1.4-.5.6.4.9.9.5 1.8-1.2 2.9-3.1 5.3-5.2 7.5-.9.9-2.7.6-3.6-.2-2.2-1.9-2.2-4.5-2.4-7-.2-1.9-.2-3.8-.8-5.7-.2-.8.1-1.7.3-2.6.1-.4.2-.9.1-1.3-.5-2.8-.5-5.6-.3-8.4.3-3.3.5-6.6.9-9.8.1-.8-.5-.6-.9-.6-.9-.1-1.6.5-2.4.6-1.1.3-2.2.6-3.4.8-1 .1-1.2-.9-1.6-1.5-.3-.5.2-1 .8-1.1 1.9-.3 3.8-1 5.6-1.6 1.7-.4 1.8-.4 1.8-2.2z"/>
  <path class="color-svg-partner-2" d="M129 118.5c-.8 1.1-1.5 2.1-2.2 3.1-1.3 2-3.1 3.4-4.7 5-1.4 1.4-3.3 1.5-5.2 1-1.3-.4-1.9-1.4-2.1-2.8-.5-2.9.1-5.6 1.1-8.3.1-.3.3-.6.5-.8 1.3-1.4 1.9-3.2 2.9-4.7 1.1-1.7 2.3-3.2 3.9-4.4.1 0 .1-.1.2-.2 1.5-3 4.4-3.2 7.2-3.5.8-.1 1.1-.3 1.5-.9.3-.5.5-1 .8-1.5.3-.5.8-1 1.5-.7.7.3 1.1.8 1 1.5-.4 2.6-1 5.2-1.8 7.8-.3 1-.9 2-.7 3.2.1 1-.4 1.9-.3 2.9.1.7.3 1.5.1 2.2-.5 1.4.2 2.7.3 4.1.1 1.3 1.1 2 2.4 1.4.8-.3 1.4-.8 2.1-1.3.6-.4 1-.2 1.3.3.4.6-.2.7-.6.9-.2.1-.4.2-.5.3a4.84 4.84 0 01-5.6 1.6c-.9-.3-1.4-.9-1.7-1.7-.4-1.3-1-2.6-1-4-.2-.2-.3-.3-.4-.5zm-10.2 3.1c0 .9.4 1.5 1.1 1.9.7.3 1.1-.4 1.4-.8 2.1-2.1 3.9-4.3 5.4-6.9.8-1.4 1.6-2.8 2.4-4.3.7-1.4.9-3.1 1.2-4.7 0-.2-.1-.4-.1-.6-.1-.8-.4-.8-1.1-.5-1.4.6-2.4 1.9-3.7 2.6a6.9 6.9 0 00-2.6 2.8c-1.5 2.9-2.8 6-3.8 9.1 0 .5-.1 1-.2 1.4zM112.2 169.4l.9-1.2c.8-1 1.5-1.1 2.5-.5.3.2.5.5.4.8-.7 1.7-.9 3.6-2.5 4.9-1.9 1.4-3.7 1.1-4.8-1.1-.8-1.6-1-3.4-1-5.2-.1-3.5.5-6.9.8-10.4.1-1.1-.2-1.3-1.2-.9s-2 .9-3.1 1.4c-.8.4-1.7.4-2.2-.4-.6-1.1-.1-2.2 1.1-2.5 1.4-.3 2.4-1.8 4-1.4.7-1.3 2.3-1.6 2.8-3.1.9-3.2 1.7-6.4 3-9.4 1-2.4 2.4-4.7 4-6.8.3-.4.9-.7 1.3-1.2.2-.3.6 0 .9.1.5.3.8.8.7 1.4-.2 1-.6 2-1 2.9-1.7 3.6-2.9 7.4-4 11.2-.1.2 0 .4 0 .7.9-.7 1.8-1.2 2.8-.7.1 0 .3 0 .3-.1.7-1.2 2.1-1 3.1-1.6.8-.4 1.4.6 1.8 1.2.3.5.1 1-.5 1.5-1 .8-2.2.9-3.4 1.4-1.8.7-3.4 1.7-5.2 2.4-.6.3-.9.7-1.1 1.3-.8 2.2-1.1 4.5-1.3 6.8-.2 2.1-.6 4.3 0 6.4.1.6.9 1.1.9 2.1zM96.4 175.1c-1.1 1.9-2.2 3.6-3 5.4-.9 1.9-2.7 1.8-4.3 1.9-1.2 0-1.8-1.1-2.3-2-.9-1.7-.8-3.5-.5-5.4.5-3.2.7-6.4 2.2-9.2 1.4-2.7 3.5-4.7 5.5-6.9.7-.8 1.9-1.1 3-1 .7.1 1.2 0 1.6-.7.6-.9 1.3-.7 1.7.3.5 1.2.3 2.5.2 3.7-.1 2.6-.5 5.1-.2 7.7.1.7.1 1.5-.2 2.2-.4 1.2.3 2.2.7 3.3.4 1.2 1 2.3 1.5 3.5.4.9.8 1.6 2 1.6.6 0 .9.4.3 1-2 2.2-3.5 2.3-5.8.3-1.7-1.5-1.6-3.7-2.4-5.7zm.6-14.6c-1.1.7-2.5 1.3-2.8 2.3-.9 2.4-2.6 4.3-3.7 6.6-.5 1-1.1 1.9-.8 3.1.1.7.7 1.6.1 2.2-.9.9-.7 2-.7 3 0 .7-.1 1.6.8 1.8.9.3 1.3-.5 1.8-1.1l.3-.6c.8-1.8 1.7-3.6 2.4-5.5s1.5-3.7 1.7-5.8c.1-1 .3-2 .7-2.9.3-.9.4-1.9.2-3.1zM83.3 176.4c.5 2 .5 3.9-.9 5.5-.8 1-1.5 2.2-2.3 3.2-1.5 2.1-3.7 3-6.2 2.9-.7 0-1.5-.2-2-.7-1.4-1.6-3.2-2.8-4.1-4.9-.7-1.7-1.3-3.4-1-5.3.9-5.6 3.2-10.6 7.4-14.6 2.2-2.1 4.6-3.9 7.9-3.8 1.7 0 2.6 1.2 3.7 2.2.3.2.1.5-.3.5-.2 0-.4 0-.5-.1-1.8-1.4-3.2-.4-4.6.7-2 1.6-3.9 3.2-5.4 5.3a42.7 42.7 0 00-3 4.4c-1.3 2.1-1.3 4.5-1.4 6.9 0 2.5.6 4.7 2.3 6.6.6.6 1 .7 1.8.3 3.3-1.9 5.6-4.7 7.6-7.8.4-.4.7-.8 1-1.3zM60.5 223c-1.1-.4-2.2.3-3.3 0-.5-.2-1-.4-1.4-.7-.3-.3-.4-.8-.5-1.3-.3-.9.6-.6.9-.8 1.3-.8 2.9-1.1 4.3-1.7.5-.2 1.3.2 1.7-.6h.3c.6.9 1.2.3 1.8.1.9-.3 1.6.1 1.8 1.2v.2c1.3.3.5 1.3.7 1.9.3 1-.1.7-.8.8-1 .1-2.3-.6-3.1.8-.1.2-.7.5-1 .2-.5-.4-1-.3-1.4-.1zM162.9 201.9c.5 0 .8 0 1.2-.2 1.7-.7 3.4-.3 4.8.7.4.2.7.6.5 1.1-.2.5-.5.7-1 .8-1.2.3-2.4.5-3.5.8-.9.3-2 .9-3.3.6-.9-.2-2 .1-3-.1-.7-.1-1.6-1.2-1.5-1.9 0-.3.2-.4.5-.4 1.5.2 2.5-1.1 3.9-1.3.5.1 1-.1 1.4-.1zM126.5 149.2c.6.1 1.4.1 1.7.7.3.6 0 1.2-.4 1.8-.1.2-.2.3-.3.5-.5.5-.9 1.5-1.9 1.1-.7-.2-1.3-1.7-1-2.6.2-1 .8-1.6 1.9-1.5zM85.6 61.7c-.4.8-.9.6-1.3.6-.3 0-.7.1-.8.4-.1.3.2.5.4.6.4.3.9.6 1.3.9.7.5.8 1.6.3 2.2-.5.7-1.7.9-2.4.4-.4-.3-.5-.6-.3-1.1.2-.4.5-.4.9-.3.2.1.5.4.7 0 .2-.4 0-.7-.4-.9-.2-.1-.5-.2-.8-.4-.5-.3-1-.7-.9-1.4.1-.8.5-1.3 1.3-1.6.6-.2 1.2-.6 1.7.1.4.7.5.1.8-.1 1-.8 1.9-.8 2.6-.1.2.3.4.5.2.9-.2.5-.5.1-.8 0-.4-.1-.8-.4-1 .1-.2.6.3.6.7.7 1.2.5 1.5 1.1 1.2 2.3-.3 1.1-1.2 1.2-2.1 1.2-.3 0-.8-.1-.8-.6s.3-.7.8-.7c.4 0 .9.1.9-.5s-.4-.9-.9-1c-1 .1-1.3-.5-1.3-1.7zM78.7 64c0 .1-.1.4 0 .6.2.5.5 1.2 1.1 1.1.5-.1.5-.8.4-1.3-.1-.6-.2-1.2-.2-1.8 0-.4.3-.6.6-.6.4-.1.5.2.6.5.1 1.2.7 2.4.9 3.6.1.4 0 .9-.4.8-.9-.3-1.6.4-2.3.3-1 0-1.8-.5-2-1.6-.1-.9-.5-1.7-.5-2.6 0-.5.1-.9.6-.9.6-.1.9.2 1 .8.1.2.3.6.2 1.1zM93.8 59.3c.1-.4-.2-1.1.5-1.2.8-.1.8.6.9 1.1.3 1.5.5 3.1.7 4.6.1.5.3 1.2-.5 1.4-.8.2-.7-.6-.8-1-.6-1.6-.7-3.2-.8-4.9zM72.9 63.4c0-.4 0-.7.4-.9.5-.2.7-.1.9.4.1.4.4.1.5 0 .3-.3.7-.3 1.1-.3.5 0 .7.4.7.8 0 .6-.3.5-.7.4-.9-.1-1.3.4-1.2 1.2 0 .7.1 1.3.2 2 .1.4 0 .7-.5.8-.4.1-.7-.1-.8-.5l-.6-3.9zM58.7 66.6c-1.4-.9-2-2.3-2.4-3.8-.7-2.3-1.1-4.6-1.1-7.1 0-.3.1-.5-.2-.7 0-.4 0-.8-.1-1.2-.3-1.7-.4-3.5-2.1-4.5-2.9-1.6-6.4.1-7.2 3.3-.3 1.2-.2 2.4-.1 3.6.2 2.3.3 4.7.4 7 0 .4.1 1.1-.5 1.2-.6.1-1.1-.3-1.3-.8-.2-.4-.3-.9-.4-1.4-.3-2.7-.6-5.3-.8-8-.2-3.5-2.3-5.5-4.8-6.3-.4-.1-.9-.3-1.2.1-.7 1-1.4 1.9-1.8 3.1-1 3-.7 6.1.1 9 .8 3.2 2.7 5.8 5.2 7.9 2.3 2 5 3 8.1 3.1 2.2 0 4.1-.5 6.2-1.1 1.7-.4 2.9-1.5 4.1-2.6.3-.3.4-.6-.1-.8z"/>
  <path class="color-svg-partner-2" d="M65.5 52.7c-.3-3.2-2-5.7-4.2-8-1-1.1-2.5-1.6-3.8-2.3-3.1-1.8-6.4-2.6-10-1.9-3.5.7-6.6 2-8.7 5.2.7.1 1.2-.2 1.8-.2 1.6.2 2.6 1.1 3.5 2.3.3.5.7.9 1.2.2 1-1.6 2.7-1.9 4.2-2.6.7-.3 1.5-.3 2.2-.1 3.4.9 5.4 3.1 5.6 6.7.2 2.8.4 5.7.7 8.5.2 1.6.7 3.2 2.4 4 .4.2.9.5 1.2 0 1-1.4 2.1-2.7 2.8-4.3 1-2.2 1.4-4.8 1.1-7.5zM69.7 62.9c-.9.1-.9-.5-1-1-.1-.5-.1-1.1-.8-.9-.6.1-.5.7-.4 1.1.3 1.6.5 3.1.9 4.7.3 1.6.9 1.8 2.4 1.3 1.2-.4 1.6-1.3 1.6-2 0-2.1-1.2-3.4-2.7-3.2zm.4 3.8c-.9-.2-.6-1.1-.8-1.8-.1-.6.4-.7.8-.7.8.1 1.1.5 1.1 1.2 0 .9-.5 1.5-1.1 1.3zM93.6 64.3c-.2-.4-.5-.3-.8-.2-.4.1-.9.4-1.5-.1.4-.2.8-.3 1.1-.4.7-.3 1.2-.8 1-1.6-.1-.8-.7-1.2-1.5-1.3-1.3-.2-2.2.6-2.2 1.9-.1 1.8.7 3.1 2.1 3.1.6 0 1.1-.1 1.6-.5.2-.2.4-.5.2-.9zm-2.7-1.8c0-.4.2-.6.6-.6.3 0 .4.2.5.4-.1.4-.4.5-.7.5-.2 0-.4-.1-.4-.3z"/>
</svg>
