<?xml version="1.0" encoding="utf-8"?>
<!-- Generator: Adobe Illustrator 24.2.3, SVG Export Plug-In . SVG Version: 6.00 Build 0)  -->
<svg version="1.1" id="Layer_1" xmlns="http://www.w3.org/2000/svg" xmlns:xlink="http://www.w3.org/1999/xlink" x="0px" y="0px"
	 viewBox="0 0 229.9 326.2" style="enable-background:new 0 0 229.9 326.2;" xml:space="preserve">
<style type="text/css">
	.st0{fill:#F37069;}
	.st1{fill:#F28449;}
	.st2{fill:#F28448;}
	.st3{fill:#F28347;}
	.st4{fill:#F2854A;}
	.st5{fill:#FAD2BD;}
	.st6{fill:#F28348;}
	.st7{fill:#F28549;}
	.st8{fill:#F38A51;}
	.st9{fill:#FEFEFD;}
</style>
<g>
	<path class="st0" d="M72,24.7c2.5-0.6,5-0.3,7.5-0.8c1.8-0.3,3.5-0.2,5.3-0.5c0.8-0.1,1.6,0.6,2.6,0.4c1.2-0.3,2.6,0,3.8-0.4
		c2.1-0.8,4.3-0.3,6.4-0.6c1.5-0.2,3-0.7,4.4-0.6c4.8,0.1,9.5-1.1,14.2-1.6c2.9-0.3,5.7-0.8,8.6-0.8c4.9,0,9.6-1.1,14.5-1.6
		c3.1-0.3,6.3-0.3,9.4-0.6c2.8-0.3,5.7-0.1,8.1-1.6c1.8-1.1,3.8-1.7,5.7-1.6c2.5,0.2,4.9-0.4,7.3-0.6l0,0c0.4,0.6,1,0.4,1.5,0.5
		c3,0.1,6-0.5,8.9-0.8c3.7-0.4,7.3-0.7,11,0.1c1.6,0.4,3.1,1.4,4.7,1.7c5.9,1.1,10.8,4.2,15,8.3c2.3,2.3,4.2,4.9,6.4,7.3
		c0.1,0.1,0.1,0.2,0.2,0.3c2.3,4.7,4.3,9.4,4.6,14.7c0.3,6.4,0,12.8-0.2,19.3c-0.1,3.3,0.3,6.7,0.1,10c-0.3,7.7-0.1,15.3-0.2,23
		c-0.1,6-0.4,11.9-0.2,17.9c0,0.1,0,0.3-0.2,0.4c0-7.9,0-15.8,0-23.9c-0.5,0.4-0.4,0.9-0.5,1.3c-0.4,3.5,0.4,6.9,0.1,10.4
		c-0.4,5.6-0.2,11.3,0.1,16.9c0.2,4.3-0.3,8.6-0.4,12.9c0,0,0,0,0,0c-0.1-0.2-0.1-0.4-0.2-0.6c0.5,9-0.7,17.9-0.8,26.9
		c-0.3,0.6-0.2,1.1,0,1.7c0.1-0.6,0.4-1.1,0.3-1.7c0.2-0.8,0.2-1.7,0.7-2.7c-0.3,5.6,0,10.9-0.3,16.3c-0.1,2.1,0.3,4.2-0.1,6.3
		c-0.2,0.9-0.2,1.9,0.8,2.6c0.4,0.2,0.3,0.9,0.3,1.4c-0.1,3.8-0.2,7.6-0.3,11.4c-0.1,2.8-0.2,5.5-0.3,8.3c0,0.1,0,0.3,0,0.3
		c0.6,0.1,0.4,0.6,0.4,0.9c-0.1,2-0.2,4-0.4,6c-0.1,1.3,0.1,2.5,0.2,3.8c0.1,4.4-0.1,8.7-0.3,13.1c0,1-0.5,2-0.5,3
		c-0.1,7.3-0.5,14.6-0.5,21.9c0,7.2-2.6,13.7-6.2,19.9c-1.6,2.8-3.6,5.2-5.7,7.7c-1.6,1.9-3.4,3.5-5.4,5c-6.2,4.3-13,6.8-20.5,7.6
		c-0.3,0-0.6,0-0.9-0.1c3.5-0.7,7-1.7,10.2-3.3c2-0.9,4.1-1.9,5.8-3.2c2.3-1.9,5.2-3.4,6.6-6.3c0.2-0.3,0.4-0.6,0.7-0.8
		c2.8-2.2,4.5-5.3,6.3-8.2c1.3-2.2,2.5-4.4,3-6.8c1.2-5.9,2.4-11.8,2.1-17.8c0-1-0.4-1.1-1.2-0.7c-1.8,0.8-3.6,1.2-5.5,1
		c-0.1,0-0.2,0-0.2,0c-2,1.3-4.3,0.2-6.4,0.7c-3.9,0.9-7.9,1.1-11.8,1.6c-0.2,0-0.4,0.1-0.7,0.2c0.3,0.1,0.4,0.2,0.9,0.4
		c-2.4,0.3-4.5,0.7-6.6,1c-7.8,0.9-15.7,1.3-23.6,2.3c-3.7,0.5-7.6,0.4-11.3,0.8c-5.5,0.7-10.9,1.3-16.4,2c-4.6,0.6-9.2,1-13.8,1.3
		c-4.4,0.3-8.8,0.8-13.1,1.8c-2,0.4-4.1,0.2-6.2,0.3c-8.4,0.5-16.8,1.8-25.2,2.8c-2,0.2-4,0.3-5.9,0.5c-2.2,0.3-4.5,0.4-6.7,0.8
		c-2,0.4-4.1,0.7-6.2,0.4c-0.9-0.1-1.4,0.6-2.3,0.7c-5.1,0.6-10.2,1.2-15.3,1.9c-3.6,0.5-7.2,0.3-10.7,0.6c-3.1,0.2-6.1,0.8-9.1,1.2
		c-0.9,0.1-1.7,0.3-2.6-0.1c-0.6-0.3-0.7,0.1-0.8,0.6c-0.3,4-0.2,7.9,0.6,11.9c0.9,4.4,2.3,8.6,4.9,12.3
		c6.5,9.1,15.4,13.2,26.5,12.8c5.9-0.2,11.8-1.2,17.7-1.8c6.4-0.7,12.8-1.4,19.2-2c6.7-0.7,13.5-1.3,20.3-1.8c6-0.5,11.9-1,17.9-1.8
		c5.6-0.7,11.2-1.3,16.9-2c5.9-0.7,11.7-1.5,17.6-2.1c6.1-0.6,12.1-0.2,18.2-0.2c1.9,0,3.7,1,5.8,1.7c-6,1.4-11.7,2.8-17.5,3.9
		c-2.6,0.5-5.3,0.5-8,0.8c-4.3,0.5-8.6,1.1-12.9,1.6c-2.6,0.3-5.3,0.3-7.9,0.6c-3.9,0.4-7.8,1.1-11.7,1.5c-3.1,0.4-6.2,0.3-9.3,0.8
		c-2.7,0.5-5.5,0.9-8.3,1.3c-1.8,0.3-3.6,0-5.4,0.2c-3,0.4-5.9,1.1-8.8,1.6c-3.2,0.6-6.4,0.5-9.6,0.9c-4.2,0.5-8.3,1.1-12.5,1.6
		c-5,0.6-10,1.1-15,1.6c-2.8,0.3-5.6,0.7-8.5,0.6c-14.6-0.5-25.7-6.8-32.4-20c-3.1-6-4.9-12.5-4.7-19.3c0.2-4.7,0.4-9.3,0.2-14
		c-0.1-4.2-0.2-8.4-0.1-12.6c0.2-7.7,0.2-15.5,0.1-23.2c0-2.7,0-5.4-0.2-8.1c-0.2-2.7,0.1-5.3-0.4-8c-0.2-1.4,0.5-2.7,0.5-4.1
		c0.1-1.8,0.2-3.5-0.2-5.3c-0.4-2-0.2-4.1,0-6.1c0.2-3.8,0.1-7.7,0.1-11.5c0-3,0.2-6.1,0.1-9.1c-0.3-7.9-0.1-15.9-0.4-23.8
		c-0.1-3.2,0.1-6.4,0.3-9.6c0.2-2.6-0.1-5.2-0.1-7.8c-0.1-6.9-0.2-13.8-0.4-20.7c-0.2-8.2-0.4-16.4-0.1-24.6
		C7.7,78,7.7,70.8,9.1,63.8c0.8-3.9,1.9-7.8,4-11.2c1.6-2.7,3.6-5.2,5.6-7.7c1.6-2.1,3.3-4.2,5.4-5.8c3.3-2.6,6.8-4.9,10.6-6.8
		c2.4-1.2,5-1.9,7.5-2.7c1-0.3,1.8-0.9,2.8-0.9l0,0c0.3,0,0.3,0,0.5,0l0,0c3-0.3,6-0.3,8.9-1.3c0.2-0.1,0.4-0.1,0.6-0.1
		c4.3-0.3,8.5-0.8,12.8-1c1.1-0.1,2.2-0.3,3.3-0.5c0.3,0,0.5-0.2,0.6-0.5C72,25.1,71.9,24.9,72,24.7z M169,65c0,0,0.2,0.5,0.9,0.7
		c1.7,0,3.3-0.3,4.9-0.6c1.5-0.3,3.1,0.3,4.8,0.2c1.2-0.1,2.5,0.1,3.9,0.2c-0.3-0.3-0.6-0.6-0.5-0.7c0.1-0.4,0.5-0.2,0.8-0.2
		c1.1,0.1,2.1-0.2,3.2-0.1c0.5,0,1.5,0.2,1.4-0.9c0-0.3,0.4-0.3,0.7-0.4c1.6-0.1,3.2,0.4,4.8-0.1c0.6-0.2,1.3,0,2-0.1
		c1.5-0.3,3,0,4.5,0.2c1,0.2,1.9,0.3,2.8,0.1c1.1-0.2,2.2-0.1,3.3,0c1.3,0.1,2.5,0.3,3.8,0.3c1.2,0,2.5-0.4,3.7,0.1
		c0.8,0.3,0.8,0,0.8-0.6c0.2-4.6,0.1-9.1,0.1-13.7c0-1.8-0.2-3.6-0.6-5.4c-3-14.5-15.9-24.6-30.7-23.9c-6.7,0.3-13.3,1.4-20,2.1
		c-6.1,0.6-12.1,1.4-18.2,2.1c-5.3,0.6-10.5,1.2-15.8,1.8c-6.1,0.7-12.2,1.4-18.3,2.1c-5.3,0.6-10.6,1.2-15.9,1.8
		c-5.6,0.6-11.2,1.3-16.9,1.8c-4.8,0.4-9.7,0.9-14.5,1.4c-3.5,0.4-7,0.9-10.6,1.2c-3.5,0.4-7,0.7-10.3,1.8
		C30,40.5,21.7,49.8,17.1,62.6c-2.2,6.1-2,12.6-2.2,18.9c0,0.7,0.4,0.8,0.9,0.8c2.3-0.2,4.6-0.4,6.9-0.7c1.9-0.3,4,0,5.8-1
		c0.1-0.1,0.3,0,0.3,0c0.8,0.4,1.5,0,2.1-0.3c0.4-0.2,0.9-0.5,1.3-0.5c2.1,0.2,4-0.5,6-0.7c4.1-0.4,8.2-1.1,12.4-1.2
		c2.1-0.1,4.1-1,6.3-1c2,0.1,4-0.5,6-0.5c1.7,0,3.2-0.4,4.8-0.8c1-0.3,1.9-0.8,3-0.2c0.2,0.1,0.6,0.1,0.9-0.2
		c0.2-0.3,0.6-0.4,0.9-0.4c2.3,0.1,4.7-0.2,7-0.6c2.8-0.5,5.6-0.5,8.4-1c2.9-0.5,5.7-1.2,8.6-1.5c1.5-0.2,3,0.4,4.5,0.1
		c2-0.3,3.9-0.7,5.9-0.8c1.9-0.1,3.8-0.1,5.7-0.3c0.9-0.1,1.9,0.3,2.7-0.2c0.9-0.5,1.9-0.5,2.9-0.4c0.7,0.1,1.4,0.3,1.5-0.8
		c0-0.3,0.4-0.5,0.5-0.4c0.9,0.4,2-0.3,2.8,0.5c0.3,0.3,0.8,0.2,1.1,0.1c0.9-0.4,1.8-0.1,2.7-0.2c2.2-0.3,4.5-0.9,6.8-0.5
		c0.1,0,0.2,0,0.2-0.1c1-0.4,2-0.3,3-0.1c1,0.1,2.1,0.1,2.5-1.2c0.2-0.6,1-1,1.1-0.8c0.6,0.6,1.6-0.3,2.1,0.6
		c0.1,0.2,0.7,0.2,0.9,0.1c1.9-0.9,3.9,0.1,5.8-0.6c1.2-0.4,2.5-0.1,3.6-0.7c0.8-0.4,1.7-0.5,2.4-0.5c2.6,0,5.2,0,7.9-0.2
		C165.3,65.3,167.2,65.3,169,65 M15,87.8c0,0.2-0.1,0.4-0.1,0.6c0,5.8-0.1,11.5-0.1,17.3c0,13.5,0,26.9,0.1,40.4
		c0,8.7,0.1,17.5,0.1,26.2c0,14.3,0.5,28.6-0.2,42.9c-0.1,2,0.4,4,0.4,6c-0.1,13.3-0.1,26.7-0.1,40c0,1,0.4,1.3,1.2,1.1
		c0.4-0.1,0.7,0,1.1-0.1c2.3-0.7,4.7-0.3,7-0.8c1.3-0.3,2.7-0.1,3.9-0.7c0.2-0.1,0.4-0.1,0.6,0c0.8,0.3,1.4,0,2-0.3
		c0.4-0.2,0.9-0.5,1.3-0.5c1.5,0,3-0.3,4.5-0.5c4.2-0.4,8.5-1.2,12.7-1.3c1.6,0,3.2,0,4.6-1c0.3-0.2,0.8-0.2,1.2-0.1
		c0.6,0.3,1.2,0.2,1.8,0.1c3.9-1,8.1-0.3,12-1.9c1.2-0.5,2.4,0,3.7-0.3c2.3-0.4,4.7-0.4,6.9-0.8c2.6-0.4,5.2-0.6,7.8-0.9
		c2.9-0.4,5.8-1.2,8.7-1.5c1.7-0.2,3.4,0.3,5.1,0.1c1.7-0.2,3.2-0.7,5-0.7c2.2,0,4.4-0.3,6.7-0.3c0.8,0,1.6,0.3,2.4-0.1
		c1.1-0.5,2.2-0.6,3.3-0.4c0.5,0.1,1.1,0.1,1.2-0.6c0.1-0.6,0.4-0.6,0.9-0.6c1.1,0,2.2,0.6,3.2,0.5c2-0.1,4,0,5.9-0.7
		c1.3-0.5,2.6,0.3,3.9-0.1c1.1-0.3,2.2-0.4,3.4-0.2c1.1,0.2,2.1,0,2.5-1.3c0.2-0.5,0.9-1,1.2-0.7c0.7,0.5,1.6-0.2,2.1,0.6
		c0.1,0.1,0.6,0.2,0.8,0.1c1.9-0.8,3.9,0,5.8-0.6c1.2-0.4,2.5,0,3.6-0.7c0.8-0.5,1.7-0.5,2.4-0.5c2.5,0,5.1,0,7.6-0.2
		c2-0.2-2,0.3,0,0c0.5-0.1,4.3-0.2,4.6,0.4c-0.7,0,0,0,0,0c0.9,0.7,1.5,0,2.2-0.2c1.6,0,3.2-0.2,4.8-0.6c1.6-0.4,3.2,0.4,4.9,0.2
		c1.2-0.1,2.5,0,3.7,0.2c0.1-0.5-0.6-0.5-0.4-0.9c1.2-0.1,2.4-0.1,3.6-0.2c0.7-0.1,1.7,0.4,1.9-0.9c0.1-0.4,0.6-0.4,0.9-0.3
		c2.4,0.3,4.8-0.1,7.2-0.3c0.7-0.1,1.5,0,2.3,0.1c1.3,0.1,2.5,0.7,3.8,0.4c1.6-0.3,3.2-0.2,4.9,0c0.9,0.1,1.9,0.2,2.8,0.2
		c1.3,0,2.7-0.4,3.9,0.2c1.4,0.6,1.5,0.6,1.5-1c0.1-5-0.3-9.9-0.3-14.8c0-13.3,0-26.5,0-39.8c0-0.5,0.1-1.1-0.2-1.8
		c-0.1,1-0.1,1.8-0.2,2.7c-0.4-0.5-0.3-0.8-0.3-1.2c-0.1-9.7-0.2-19.5-0.2-29.2c-0.1-14.2,0.2-28.4,0.3-42.7c0.2-16.3,0-32.6,0-48.9
		c0-0.2,0-0.4,0-0.6c0-0.5,0-0.8-0.7-0.5c-1.3,0.6-2.7,0.8-4.2,0.9c-0.7,0-1.4-0.3-2,0.1c-0.8,0.6-1.6,0.4-2.5,0.4
		c-0.8,0-1.6-0.1-2.4-0.1c-1.6,0.1-3.1,0.7-4.7,0.8c-2.4,0.2-4.8,0.5-7.3,0.7c-0.4,0-0.8,0.1-1.2,0.3c0,0.3,0.5,0,0.5,0.5
		c-2.2,0.3-4.3,0.6-6.5,0.9c-3.5,0.5-7.1,0.6-10.6,0.9c-6.2,0.5-12.3,1.5-18.6,1.8c-6.9,0.3-13.7,1.4-20.6,2.3
		c-3.9,0.5-7.7,1.2-11.6,1.3c-3.9,0.1-7.7,0.7-11.5,1.1c-3.1,0.3-6.2,1.2-9.3,1.2c-4.7,0-9.3,0.6-13.9,1.1
		C81,81,74.3,81.9,67.5,82.8c-4.6,0.6-9.3,0.8-13.9,1.6c-2.9,0.5-5.8,0.8-8.7,1.1c-4.3,0.4-8.6,1.4-13,1.3"/>
	<path class="st1" d="M37.6,289.3c-0.4-0.2-0.8-0.1-1.1-0.1c-0.6,0.1-1-0.2-1.2-0.7c-0.1-0.6,0.2-1.3,0.8-1.3c3,0.1,2.5-2.3,3.1-4
		c-0.6-0.2-1,0-1.5,0.1c-0.6,0-1-0.2-1.2-0.8c-0.1-0.7,0.3-1,0.8-1.3c0.1,0,0.2,0,0.2,0c2,0.2,2.7-0.9,2.9-2.7
		c0-0.1,0.1-0.2,0.1-0.3c0.3-0.8,0.8-1.1,1.6-0.9c0.8,0.2,0.8,0.9,0.6,1.6c-0.4,1.8-0.4,1.8,1.5,1.7c0.9-0.1,1.4-0.4,1.5-1.3
		c0.1-0.6,0.3-1.2,0.5-1.7c0.3-0.7,0.8-1,1.5-0.8c0.7,0.2,0.8,0.8,0.6,1.4c-0.1,0.2-0.1,0.4-0.2,0.6c-0.4,1-0.3,1.5,1,1.2
		c0.6-0.2,1.1,0.1,1.2,0.7c0.1,0.6-0.2,1.1-0.8,1.3c-0.1,0.1-0.3,0.1-0.5,0.1c-0.6,0.2-1.6-0.2-1.9,0.5c-0.5,1-0.6,2-0.9,3.1
		c-0.1,0.3,0.1,0.4,0.4,0.4c0.4,0,0.8-0.1,1.2-0.1c0.6-0.1,1.2,0.2,1.2,0.9c0,0.6-0.3,1-0.9,1.2c-0.1,0-0.2,0-0.2,0
		c-2.1-0.2-2.9,0.9-3.1,2.8c0,0.4-0.2,0.9-0.5,1.2c-0.4,0.4-0.9,0.5-1.4,0.3c-0.5-0.2-0.6-0.6-0.5-1.1c0-0.2,0.1-0.4,0.1-0.6
		c0.1-0.6,0.7-1.5,0.2-1.7c-0.8-0.4-1.8-0.1-2.7,0.1c-0.3,0.1-0.3,0.4-0.4,0.7c-0.2,0.8-0.4,1.6-0.7,2.4c-0.2,0.7-0.8,1.2-1.6,0.9
		c-0.8-0.2-0.9-0.8-0.6-1.6C37.3,290.7,37.5,290,37.6,289.3z M42.2,286.6c0.5-0.1,1.5,0.2,1.8-0.4c0.5-0.9,0.6-2,0.9-3.1
		c0.1-0.3-0.1-0.4-0.4-0.4c-2-0.2-2.7,0.3-3.2,2.2c-0.1,0.2-0.1,0.4-0.2,0.6C40.7,286.7,40.7,286.7,42.2,286.6z"/>
	<path class="st2" d="M56,291.2c-1,0-2.5-0.5-3.4-2.1c-0.5-0.9-0.5-1.7,0.4-2.3c0.9-0.6,1.6-0.3,2.2,0.5c0.9,1.2,2.7,1.4,3.8,0.5
		c0.5-0.4,0.8-0.9,0.7-1.6c-0.1-0.7-0.6-0.9-1.1-1.1c-1-0.2-2-0.4-3-0.6c-1.6-0.4-2.8-1.1-3.2-2.8c-0.4-1.8,0.2-3.3,1.5-4.4
		c1.7-1.5,3.8-2,6-1.3c0.9,0.3,1.6,0.8,2,1.6c0.5,0.8,0.3,1.5-0.3,2c-0.6,0.5-1.3,0.6-1.9-0.1c-0.9-0.9-2-1.1-3.2-0.6
		c-0.7,0.3-1.1,0.8-1,1.6c0.1,0.7,0.6,1,1.2,1.1c1,0.2,2.1,0.4,3.2,0.7c1.6,0.4,2.8,1.2,3.1,2.9c0.3,1.8-0.3,3.3-1.7,4.5
		C60,290.7,58.4,291.2,56,291.2z"/>
	<path class="st2" d="M177.7,272.3c-1,1.8-2,3.3-2.8,4.9c-0.4,0.7-0.9,1.1-1.6,1.1c-1.2,0.1-1.8-1.2-1.1-2.3c1-1.8,2.1-3.5,3.2-5.2
		c0.4-0.6,0.4-1.1-0.1-1.7c-0.8-1-1.5-2.1-2.3-3.1c-0.8-1.1-0.7-2.1,0.2-2.7c0.9-0.6,1.7-0.4,2.5,0.9c0.5,0.7,1,1.5,1.4,2.2
		c0.4,0.7,0.7,0.8,1.1,0c0.5-1.1,1.2-2.1,1.8-3.1c0.6-1.1,1.6-1.4,2.4-0.9c0.7,0.5,0.8,1.4,0.2,2.4c-0.8,1.2-1.5,2.5-2.3,3.6
		c-0.5,0.7-0.5,1.3,0,2c1,1.3,1.9,2.7,2.9,4.1c0.6,0.9,0.5,1.9-0.4,2.5c-0.8,0.6-1.7,0.4-2.3-0.6c-0.5-0.7-0.9-1.3-1.3-2
		C178.7,273.8,178.2,273.1,177.7,272.3z"/>
	<path class="st1" d="M81.2,278c-0.5,0.3-0.8,0.8-0.9,1.3c-2.1-1.6-4.3-1.5-6.2,0.3c-1.6,1.5-2.2,3.4-1.8,5.6
		c0.6,3.6,4.5,4.9,7.3,2.5c0.4-0.3,0.6-0.6,1,0c0.4,0.6,1,0.7,1.7,0.5c0.7-0.3,1.1-0.8,1.2-1.5c0-2.5,0.1-5,0-7.5
		C83.3,277.9,82.2,277.4,81.2,278z M77.5,286c-1.1,0-2.2-1.1-2.1-2.2c0.1-1.8,1.3-3.1,2.7-3.1c1.2,0,2.3,1.1,2.2,2.3
		C80.3,284.6,78.8,286.1,77.5,286z"/>
	<path class="st1" d="M89.9,282.7c0.6-1.6,1.1-3,1.7-4.3c0.1-0.4,0.3-0.8,0.5-1.1c0.5-0.8,1.2-1.1,2-0.7c0.8,0.4,0.8,1.1,0.5,1.8
		c-1.3,3.2-2.5,6.4-3.8,9.7c-0.4,1.1-0.8,2.2-1.3,3.2c-0.4,0.9-1.1,1.4-2.1,1.1c-1.1-0.4-0.9-1.3-0.6-2.1c0,0,0-0.1,0-0.1
		c1.7-2.7,1.4-5.3-0.3-7.9c-0.6-0.9-0.9-1.9-1.3-2.8c-0.4-1-0.1-1.8,0.8-2.1c1-0.4,1.6,0,2,0.9C88.6,279.7,89.2,281,89.9,282.7z"/>
	<path class="st1" d="M149.4,271.9c0.7-0.9,1.4-1.4,2.3-1.7c2.1-0.6,4,0.4,4.2,2.6c0.2,2,0.1,4.1,0.1,6.1c0,1-0.8,1.5-1.7,1.4
		c-0.9,0-1.3-0.6-1.3-1.5c0-1.2,0-2.4,0-3.6c0-1.4-0.5-2-1.5-2.1c-1.2-0.1-2.1,0.8-2.1,2.1c0,1.4,0,2.7,0,4.1c0,0.9-0.4,1.5-1.2,1.7
		c-1,0.3-1.8-0.2-1.9-1.2c0-2.5,0-5,0-7.4c0-0.9,0.5-1.4,1.3-1.6C148.5,270.6,149.2,270.8,149.4,271.9z"/>
	<path class="st3" d="M186,269.2c0-1.9,0-3.8,0-5.7c0-1,0.4-1.6,1.3-1.9c1-0.4,1.8,0.3,1.9,1.5c0,3.1,0.1,6.2,0,9.3
		c0,1.1,0.2,1.4,1.3,1.2c0.9-0.2,1.8-0.2,2.7-0.3c0.8-0.1,1.5,0.1,1.6,1c0.2,0.9-0.4,1.6-1.2,1.8c-2.1,0.3-4.2,0.5-6.3,0.7
		c-1,0.1-1.3-0.6-1.3-1.5C186,273.2,186,271.2,186,269.2z"/>
	<path class="st2" d="M100.8,286.3c-3.7,0-5.8-3.1-4.6-6.6c1.1-3.1,5-5,8-3.7c0.9,0.4,1.4,0.9,1,1.9c-0.4,0.9-1.1,1.2-2,0.9
		c-1-0.3-2-0.4-3,0.2c-1.1,0.7-1.5,1.9-1.1,3c0.4,1,1.5,1.5,2.8,1.1c0.4-0.1,0.8-0.4,1.2-0.5c0.7-0.3,1.5-0.5,2,0.3
		c0.5,0.8,0.1,1.6-0.6,2.1C103.5,285.9,102.3,286.4,100.8,286.3z"/>
	<path class="st1" d="M67.6,275.5c0.8,0,1.3,0.4,1.4,1.2c0,0.4,0,0.8,0,1.2c0,0.8-0.2,1.7,1.2,1.3c0.6-0.1,1,0.3,1,0.9
		c0.1,0.7-0.3,1.4-1,1.4c-1.3,0-1.3,0.8-1.2,1.7c0,1.6,0,3.1,0,4.7c0,1.1-0.7,1.9-1.7,1.9c-1.2-0.1-1.4-0.9-1.4-1.9
		c0-1.6,0-3.3,0-4.9c0-0.6,0-1-0.8-0.9c-0.7,0.1-1.1-0.4-1.1-1c0-0.7,0.3-1.3,1-1.3c0.9-0.1,1-0.6,0.9-1.3c0-0.5-0.1-1,0-1.6
		C66.1,276,66.7,275.6,67.6,275.5z"/>
	<path class="st1" d="M121.5,279.7c0-0.6,0-1.3,0-1.9c0-0.8,0.3-1.7-1.1-1.6c-0.4,0-0.7-0.4-0.8-0.9c0-0.6,0.2-1.2,0.8-1.3
		c1.1-0.1,1.2-0.7,1.1-1.6c0-0.5-0.1-1,0-1.4c0.2-1,0.8-1.4,1.8-1.4c1,0.1,1.3,0.7,1.2,1.6c0,0.4,0,0.7,0,1.1c0,0.7-0.1,1.4,1,1.1
		c0.6-0.2,1.1,0.2,1.2,0.9c0.1,0.7-0.2,1.4-1,1.4c-1.3,0.1-1.3,0.8-1.3,1.7c0.1,1.6,0,3.1,0,4.7c0,1.1-0.7,1.9-1.7,1.9
		c-0.9,0-1.4-0.6-1.4-1.8C121.5,281.3,121.5,280.5,121.5,279.7z"/>
	<path class="st3" d="M131.4,277.7c0,1.2,0,2.5,0,3.7c0,1-0.6,1.5-1.6,1.6c-1,0.1-1.5-0.5-1.5-1.5c0-2.4,0-4.8,0-7.2
		c0-0.8,0.4-1.4,1.3-1.7c1-0.3,1.7,0.2,1.8,1.3C131.4,275.2,131.4,276.4,131.4,277.7z"/>
	<path class="st4" d="M129.8,270.7c-1,0-1.7-0.7-1.7-1.6c0-1.1,1-2,2.1-2c1,0,1.6,0.5,1.7,1.5C131.9,269.7,130.8,270.7,129.8,270.7z
		"/>
	<path class="st5" d="M220,160.4c0.1,0.6-0.2,1.1-0.3,1.7c-0.1-0.6-0.3-1.1,0-1.7C219.8,160.4,219.9,160.4,220,160.4z"/>
	<path class="st0" d="M169.7,13.9c0-0.1,0.1-0.1,0.1-0.2c0,0,0,0.1,0.1,0.1C169.9,13.9,169.8,13.9,169.7,13.9
		C169.7,13.9,169.7,13.9,169.7,13.9z"/>
	<path class="st3" d="M167.6,270.7c1.8-1.5,2.2-3,1.5-4.7c-0.6-1.4-1.9-2.2-3.7-2.1c-1.7,0.1-3.3,0.4-5,0.6c-1,0.1-1.5,0.7-1.5,1.7
		c0,4,0,8,0,12c0,1.1,0.5,1.5,1.7,1.4c1.3-0.1,2.5-0.3,3.8-0.4c1.2-0.1,2.4-0.3,3.4-1c1.6-1.1,2.4-2.6,2.3-4.5
		C170.1,272.1,169.2,271.2,167.6,270.7z M163.4,266.9c0.5,0,0.9-0.1,1.6-0.1c0.5,0.1,1,0.3,1.2,1c0.2,0.8,0,1.6-0.8,2
		c-0.3,0.2-0.7,0.2-1,0.2c-2.1,0.3-2.1,0.3-2.1-1.8C162.1,267.2,162.4,266.9,163.4,266.9z M165.3,276.2c-0.7,0.1-1.3,0.1-2,0.3
		c-0.9,0.2-1.3-0.1-1.2-1c0-0.2,0-0.5,0-0.7c0-0.4,0-0.8,0-1.2c0-0.6,0.2-0.8,0.8-0.8c0.6,0,1.3-0.1,1.9-0.2
		c1.3-0.1,1.9,0.3,2.1,1.3C167.1,274.9,166.4,276,165.3,276.2z"/>
	<path class="st1" d="M118.1,275.4c0-1.1-1.2-1.7-2.2-1.1c-0.5,0.3-0.8,0.8-0.9,1.3c-2.1-1.6-4.2-1.5-6.2,0.3
		c-1.4,1.2-1.9,2.8-1.9,4.6c0.1,1.9,0.7,3.5,2.6,4.2c1.7,0.7,3.5,0.6,4.9-0.9c0.4-0.4,0.6-0.4,0.9,0c0.4,0.6,1,0.7,1.7,0.5
		c0.7-0.3,1.2-0.8,1.2-1.5C118.2,280.5,118.2,277.9,118.1,275.4z M112.3,282.5c-1.1,0-2.2-1-2.2-2.1c0-1.7,1.2-3.1,2.7-3.1
		c1.2,0,2.3,1,2.3,2.3C115.1,280.9,113.7,282.4,112.3,282.5z"/>
	<path class="st6" d="M139.6,271.4c-3.4,0-6,2.5-6,5.8c0,2.8,1.9,4.8,4.7,4.8c3.4,0,6.1-2.6,6.1-5.9
		C144.3,273.3,142.5,271.4,139.6,271.4z M138.7,279.1c-1.2,0-2.1-0.9-2.1-2.2c0-1.4,1.1-2.6,2.5-2.6c1.3,0,2.1,0.8,2.1,2.1
		C141.3,277.9,140.1,279.1,138.7,279.1z"/>
	<path class="st3" d="M92.3,124.8c0.1-1.7-0.1-3.5-0.3-5.3c-0.2-1.4-0.8-3.1-2-4.1c-1.2-1-2.8-0.9-4.3-0.5c-2.2,0.6-4.4,1.1-6.4,2.1
		c-1.5,0.7-3.1,1.3-4.5,2.4c-1.9,1.6-5.3,1.1-7.1-0.1c-0.2-0.1-0.3-0.3-0.4-0.5c-0.6-2.4-2.1-4.6-1.5-7.3c0.9-3.7,2.2-7,4.9-9.8
		c2.6-2.7,4.9-5.6,8.3-7.4c2.8-1.5,5.6-3.3,9-3.1c1.8,0.1,3.2,0.8,4.4,2.1c0.6,0.6,0.6,1.3,0.7,2.1c0,0.6-0.3,0.9-0.8,1
		c-0.5,0.1-0.9,0-1.2-0.5c0-0.1-0.1-0.1-0.1-0.2c-0.3-0.7-0.3-1.7-1.3-1.9c-1.2-0.2-2.4-0.3-3.5,0.4c-1.7,1-3.4,1.8-5.2,2.5
		c-1.3,0.6-2.5,1.6-3.5,2.6c-0.8,0.8-1.7,1.8-2.5,2.4c-2.1,1.3-2.5,3.5-3.4,5.4c-1,2-1.4,4.2-1.8,6.4c-0.1,0.5-0.1,1.1,0,1.7
		c0.1,0.8,0.6,1.1,1.4,1c1.7-0.2,3.2-0.9,4.6-1.7c0.8-0.4,1.7-0.3,2.5-0.8c2.3-1.2,4.7-2,7.2-2.5c3.6-0.7,8.5,0.9,9.7,5
		c0.7,2.3,1.6,4.6,2,7c0.4,2.5,0,4.9-0.2,7.4c-0.2,2.6-1.4,4.9-2.1,7.3c-0.3,1.2-1.1,2.2-1.8,3.3c-1.1,1.8-2.5,3.5-3.8,5.1
		c-2.9,3.6-6.9,5.8-11.1,7.8c-3,1.4-6.1,2.4-9.4,2.5c-3.3,0.1-4.9-1.6-5.8-4.1c-0.7-1.8-1-3.8-1.3-5.7c-0.5-3.2,0.2-6.1,2.2-8.7
		c1-1.3,3.7-1.5,4.9-0.5c0.7,0.7,0.8,1.7,0.1,2.7c-0.5,0.7-1.1,1.3-1.6,1.9c-1.8,2.1-2.8,4.5-2.3,7.4c0.3,1.7,2.1,3.3,3.9,3.6
		c2.1,0.3,3.9-0.7,5.8-1.3c1-0.3,1.8-0.7,2.6-1.1c5.1-2.5,8.8-6.4,11.3-11.4c1-2.1,1.7-4.4,2.2-6.8c0.4-1.7,1-3.4,1.4-5.2
		C92.4,126.8,92.3,125.9,92.3,124.8z"/>
	<path class="st6" d="M158,165.3c-1.6,0.4-1.9,1.7-2.4,2.8c-0.6,1.3-1.1,2.7-1.7,4c-0.9,1.9-1.4,3.8-2.2,5.8
		c-0.2,0.5-0.2,1.3-1.2,1.2c-1-0.1-1.3-0.4-1.2-1.4c0.2-3.2,1.1-6.3,2.3-9.2c0.9-2.2,1.3-4.4,0.6-6.8c-0.5-1.5-1.3-2.1-2.8-1.7
		c-2.2,0.5-4.5,0.8-6.5,1.9c-0.5,0.2-0.8,0.6-1.3,0.8c-1,0.4-1,1.1-0.6,2c1.3,3.2,2.1,6.5,1.5,9.9c-0.4,2.4-1.2,4.6-2.5,6.7
		c-1.2,2-3.2,2.3-5.2,2.7c-1,0.2-1.9-0.1-2.8-0.4c-0.6-0.2-1-1-1.4-1.6c-0.3-0.4-0.4-0.8-0.7-1.3c-1.4,1.7-2.8,3.3-4,5.1
		c-1.2,1.7-4.7,2.5-6.3,1.1c-1.4-1.2-2.3-2.8-2.2-4.7c0.1-3.7,0.3-7.3,1.1-10.9c0.8-3.7,2.1-7.2,3.2-10.8c0.2-0.6,0.6-1.2,1.3-1.5
		c0.5-0.3,1-0.2,1.4,0.1c0.5,0.4,0.2,0.8,0.1,1.2c-1.1,4.2-2.2,8.3-3.2,12.5c-0.7,2.8-0.8,5.8-0.5,8.7c0.1,1.1,0.8,1.8,1.3,2.6
		c0.3,0.5,0.7,0.1,1.1,0c1.8-0.9,2.8-2.5,3.7-4.2c0.6-1.1,0.9-2.4,1.2-3.6c0.6-2.4,1.5-4.6,2.1-7.1c0.4-2,1.3-4.1,2.9-5.7
		c0.4-0.4,0.8-1,1.2-1.5c0.7-0.8,1.6-1.5,2.5-1.1c1.5,0.6,2.7,0.1,3.8-0.6c1.6-0.9,3.4-1.6,5.1-2.3c3-1.2,6-0.8,8.8,0.8
		c0.4,0.2,0.5,0.6,0.6,1c0,0.5,0.1,1,0.2,1.4c0.3,1.4,0.3,1.4,1.4,0.6c1.1-0.8,3.3-0.4,3.9,0.8c0.6,1.2,0.9,2.5,0.9,3.9
		c-0.1,2.2-0.4,4.4-0.6,6.7c-0.1,0.9,0.1,1.8,1.1,2.2c1.1,0.5,2.2,0.9,3.3-0.1c1.4-1.3,2.4-2.9,3.6-4.3c0.3-0.4,0.6-0.8,1-1.2
		c0.3-0.3,0.7-0.4,1.1-0.1c0.4,0.2,0.6,0.6,0.5,1.1c-0.6,3.6-4.2,7.1-8,7.7c-2.7,0.4-5.4-1.6-5.4-4.4
		C157.9,171.1,158,168.3,158,165.3z M139.6,171.8c0.1-1.9-0.5-3.6-1.3-5.3c-0.3-0.8-0.6-1.6-1.7-1.6c-1,0-1.5,0.7-1.9,1.6
		c-1.4,3-2.6,6.1-2.8,9.6c-0.1,1.4,0.4,2.2,1.5,3c1.1,0.8,2.1,0.6,3.1-0.1c0.7-0.5,1.3-1.1,1.7-1.8
		C139.2,175.5,139.6,173.7,139.6,171.8z"/>
	<path class="st2" d="M155.1,111.3c-1.3,0.9-2.7,1.7-3.7,3.1c-0.7,1-2.6,1.4-3.9,1.1c-1.9-0.5-2.8-1.7-3.2-3.5
		c-0.3-1.2-0.6-2.3-1.1-3.4c-0.6-1.4-0.4-2.7,0-4.1c0.3-1,0.4-2.1,0.6-3.2c0.3-1.4,0.4-2.9,1.3-4.3c0.5-0.8,1-2,1.3-3.1
		c0.1-0.4,0.1-1,0.6-1c1.5,0.1,2.1,0.5,2.1,1.5c0,0.7-0.2,1.4-0.5,2c-2.4,4.8-2.2,9.8-1.6,14.9c0.1,1.2,1,1.7,2.2,1.1
		c1.8-0.8,3.3-2.1,4.4-3.8c2-3.2,3.7-6.4,3.9-10.3c0-0.9,0.7-1.1,1.4-1.4c0.7-0.3,1,0.3,1.3,0.7c0.4,0.5,0.7,1.2,0.6,1.9
		c-0.2,2.2-0.2,4.4-0.8,6.4c-0.6,2.4-1.2,4.7-1.4,7.2c0,0.5-0.6,1.2,0,1.5c0.4,0.2,1.1-0.2,1.6-0.4c2.7-1.3,5.4-1.8,8.3-1.2
		c1.7,0.4,3,1.8,2.6,3.4c-0.2,0.7-0.7,1.7-1.6,2c-0.6,0.2-0.8-0.1-0.8-0.7c0-2.5-1-3.3-3.5-2.6c-2.3,0.7-4.4,1.9-6.6,2.8
		c-0.7,0.3-1.1,1-1.2,1.8c-0.5,2.7-1,5.5-1.3,8.2c-0.2,2.1-1.1,4.1-1.6,6.2c-0.6,2.6-1.5,5-2.7,7.3c-1.4,2.9-2.6,6-5.1,8.2
		c-0.7,0.6-1.1,1.5-1.9,2.1c-1.9,1.4-4.4,1.3-6.1-0.2c-2.3-1.9-2.6-4.4-2.7-7.2c-0.1-2.9,0.5-5.6,1.3-8.3c1.3-4.8,3.9-8.8,7.6-12
		c2.4-2.1,4.9-4.1,7.5-5.9c0.5-0.3,0.9-0.6,1.4-0.9c0.7-0.3,0.8-0.8,1-1.6C155.4,114.5,155.3,112.9,155.1,111.3c0,0,0.1-0.1,0.1-0.1
		C155.2,111.2,155.2,111.2,155.1,111.3C155.1,111.2,155.1,111.3,155.1,111.3z M154.4,120.3c-3,2.6-6.3,4.7-8.8,7.7
		c-1.4,1.6-2.7,3.3-3.8,5.1c-1.6,2.6-2.2,5.6-2.5,8.6c-0.3,3,0.5,5.4,2.6,7.5c0.2,0.2,0.6,0.7,0.9,0.5c0.7-0.6,1.7-0.7,2.2-1.7
		c1.1-1.9,1.6-4,2.9-5.7c0.2-0.3,0.3-0.6,0.1-0.9c-0.2-0.3-0.1-0.6,0.1-0.8c1-0.7,0.9-1.8,1.1-2.8c0.6-2.7,2.1-5.2,2.8-7.9
		c0.1-0.5,0.5-0.9,0.6-1.4c0.3-1.7,0.8-3.3,1.2-4.9C154,122.7,154.6,121.7,154.4,120.3z"/>
	<path class="st3" d="M79,236c-0.4,0-0.7,0-1.1,0c-0.8,0-1.1-0.4-1-1.1c0.1-1.9-0.3-3.8-0.5-5.7c-0.2-1.8-0.9-3.5-0.4-5.4
		c0.4-1.4-0.3-2.9-0.4-4.4c-0.1-2.1-0.1-4.3,0-6.5c0.1-2.5-0.8-4.9-0.8-7.4c0-1-0.1-2-0.1-3c0-0.8-0.2-1.2-1.1-1
		c-1,0.3-1.9-0.6-2.9-0.6c-0.5,0-0.4-1.7,0.3-2.2c1.5-1.1,3.3-1.6,5.2-2c1.5-0.3,2.9-0.2,4.3-0.4c3.4-0.6,6.1,0.8,8.6,2.9
		c0.3,0.3,0.5,0.6,0.8,0.9c1.1,1.2,2.3,2.4,1.5,4.3c-0.6,1.4-0.5,3.1-1.9,4.3c-0.7,0.5-1.1,1.4-1.6,2.1c-0.3,0.5-0.4,0.8,0.4,1
		c1.9,0.5,3.7,1.4,5.5,2.1c1.6,0.5,2.3,1.5,3.2,2.7c0.7,0.9,0.7,1.9,1.4,2.7c0.4,0.5,0.6,1.2,0,1.8c-0.2,0.3-0.3,0.5-0.2,0.9
		c0.2,0.6,0.1,1.2-0.1,1.8c-0.3,1-1.7,1.6-1.3,2.9c-2,0.7-1.9,3-3.4,4.1c-1.3,0.9-2.2,2.4-3.2,3.8c-1.4,2-3.5,3.3-5.4,4.8
		c-1.6,1.3-3.3,2.2-5.1,3c-0.6,0.3-1.3,0.2-1.8,0.8c-0.5,0.6-2.3-0.5-2.7-1.5c-0.4-1.2,0.4-1.4,1.2-1.8c3.6-1.6,6.6-4.1,9.4-6.8
		c1.7-1.7,3.4-3.4,5.1-5c1.8-1.8,2.7-4.2,3.6-6.6c0.2-0.5,0.1-1.1-0.2-1.6c-1.4-1.9-3-3.4-5.5-3.6c-0.9-0.1-1.7-0.3-2.6-0.3
		c-0.8-0.1-1.6,0-2.3,0.6c-1,0.9-2.2,1.1-3.3,1.8c-0.7,0.5-1,1-0.9,1.5c0.8,4.4,0.4,9,1.8,13.4C81.7,234.8,80.6,236,79,236z
		 M78,201.3c0.2,4.2,0.5,8.4,0.7,12.5c0,0.9,0.3,0.9,1,0.5c2.5-1.2,4-3.4,5.5-5.7c0.9-1.3,1.3-2.6,1.4-4.1c0.1-1.4-0.3-2.5-1.6-3.2
		c-1.8-0.9-3.7-1.2-5.6-1.4C78.2,199.8,77.6,200.1,78,201.3z"/>
	<path class="st3" d="M114.7,208.2c1.6-1.8,2.4-4.1,3.6-6.1c0.8-1.3,1.8-2.5,2-4.2c0.1-0.7,1-1.3,1.4-2c0.5-1.1,1.6-1.9,2.2-3
		c0.3-0.5,0.7-0.2,1,0c0.8,0.6,2.3,0.2,2.4,1.4c0,0.8-0.4,1.7-1,2.6c-1,1.3-1.9,2.8-2.5,4.4c-0.3,0.9-0.7,1.8-1.3,2.4
		c-0.9,0.9-1.1,2-1.6,3c-0.4,0.9-1,1.7-1.6,2.4c-0.2,0.3-0.1,0.4-0.1,0.6c0.1,0.4,0,0.7-0.3,0.8c-1.4,0.8-1.6,1.7-0.6,3
		c0.8,1.1,1.7,2.2,2.6,3.2c2,2.3,4.1,4.6,5.9,7.1c1.1,1.5,0.7,2.9-1,3.5c-1.4,0.5-1.9-0.8-2.7-1.4c-0.9-0.7-1.8-1.4-2.6-2.3
		c-0.6-0.7-1.2-1.4-2-1.9c-0.7-0.5-1.4-1-1.6-2c-0.2-0.8-1.4-0.9-2-1.5c-0.2-0.2-0.8,0.4-1,0.9c-0.4,1.4-1.2,2.8-2,3.9
		c-1,1.3-1.6,2.8-2.1,4.2c-0.8,2-2.2,3.7-2.9,5.7c-0.4,1.1-0.9,2-1.6,2.9c-0.2,0.3-0.5,0.4-0.8,0.4c-0.6,0-0.7,0.4-0.7,0.8
		c0,1-0.4,1.6-1.4,1.7c-1,0.1-1.7-0.4-1.9-1.4c-0.1-0.4-0.2-0.8-0.1-1.2c0.6-2.4,1.1-4.8,2.6-6.8c2.2-3,3.9-6.2,5.4-9.5
		c0.8-1.9,2-3.5,3-5.2c0.6-1,0.3-1.6-0.4-2.3c-1.8-1.7-3.4-3.4-4.8-5.4c-0.7-0.9-1.6-1.6-2.2-2.5c-1.4-2.2-3.3-3.9-4.9-5.9
		c-0.8-0.9-1.2-1.7-1.1-2.8c0.1-0.9,1.3-1.7,2.2-1.3c0.7,0.3,1.4,0.7,2.2,0.9c0.9,0.2,1.2,1.1,1.6,1.8c1,1.4,2.2,2.6,3.5,3.6
		C110.1,202.7,112.2,205.7,114.7,208.2z"/>
	<path class="st3" d="M143.8,191.2c0,2.7-0.5,5.4-1.3,8c-0.2,0.7-0.4,1.4-0.3,2.1c0.1,1.6-0.7,3-0.8,4.6c-0.1,3.1-1,6.1-1.4,9.2
		c-0.3,2.5-0.3,5.1-1.2,7.5c-0.1,0.3-0.2,0.7-0.3,1c-0.1,1.1,0.5,1.8,1.5,1.5c2.5-0.6,5-0.8,7.4-1.8c1.2-0.5,2.6-0.9,4-0.6
		c0.7,0.2,1-0.4,1.5-0.6c1.3-0.5,2.7-0.8,4.1-1.1c1.3-0.3,2.6-0.5,3.9-0.8c0.9-0.2,2.4,1.7,2.5,3c0.2,2-0.7,2.8-2.8,2.7
		c-1.4-0.1-2.7,0.8-4.1,0.9c-0.3,0-0.6,0.3-1,0.1c-0.5-0.3-0.9-0.1-1.3,0.2c-1.6,0.9-3.5,1.1-5.2,1.3c-1.1,0.1-2.1,0.4-3,0.7
		c-1.5,0.4-3.1,0.4-4.5,1.1c-1.2,0.6-2.5-0.1-3.8,0.1c-0.6,0.1-1.2,0.2-1.9,0c-0.8-0.3-1.3-0.7-1.8-1.5c-1-1.6-0.5-3-0.3-4.6
		c0.3-2.4,0.5-4.8,1-7.1c0.6-2.7,0.7-5.5,1.3-8.1c0.3-1.4,0.5-2.9,1.1-4.3c0.4-1,0.5-2,0.5-3c0-0.8,0.2-1.6,0.4-2.3
		c0.4-2,0.6-4.1,1-6.2c0.1-0.4,0.1-0.8,0.3-1.1c0.4-0.6,0.7-1.2,0.8-2c0-0.3,0.2-1.2,1-0.8c0.3,0.1,0.5-0.2,0.6-0.5
		c0.1-0.5,0.2-1,0.9-0.8c0.6,0.2,1.2,0.6,1.2,1.3C143.9,190,143.8,190.6,143.8,191.2z"/>
	<path class="st6" d="M103.3,98.4c-0.2-2.4,0.2-4.5,0.8-6.6c0.2-0.7,0.1-1.5,0.2-2.3c0-1,0.9-1.7,2.1-1.5c1,0.1,1.3,0.8,1.2,1.7
		c-0.3,2.7-1,5.3-0.9,8.1c0,0.4-0.3,1,0.4,1.3c0.6,0.2,1.1,0.3,1.7-0.2c0.6-0.5,1.5-0.7,2.2-0.5c1.5,0.6,2.7-0.2,3.9-0.9
		c1.2-0.6,3.8-0.6,4.8,0.2c0.1,0.1,0.2,0.1,0.4,0.2c0.6,0,0.9,0.5,0.9,1.1c0,0.5-0.5,0.8-1,0.8c-4,0.2-7.9,1.7-11.9,2.2
		c-0.8,0.1-1.4,0.3-1.4,1.4c-0.4,6.2-0.8,12.3-1.2,18.5c0,0.2-0.1,0.3,0,0.5c0.8,2.7,0.3,5.5,1.3,8.2c0.4,1.1,0.1,2.3,0.7,3.4
		c0.4,0.8,0.7,0.7,1.2,0.3c1.1-0.7,1.6-1.9,2.2-3c0.2-0.4,0.2-1.5,1.2-0.7c0,0,0.3-0.2,0.4-0.4c0.4-0.4,0.8-0.9,1.4-0.5
		c0.6,0.4,0.9,0.9,0.5,1.8c-1.2,2.9-3.1,5.3-5.2,7.5c-0.9,0.9-2.7,0.6-3.6-0.2c-2.2-1.9-2.2-4.5-2.4-7c-0.2-1.9-0.2-3.8-0.8-5.7
		c-0.2-0.8,0.1-1.7,0.3-2.6c0.1-0.4,0.2-0.9,0.1-1.3c-0.5-2.8-0.5-5.6-0.3-8.4c0.3-3.3,0.5-6.6,0.9-9.8c0.1-0.8-0.5-0.6-0.9-0.6
		c-0.9-0.1-1.6,0.5-2.4,0.6c-1.1,0.3-2.2,0.6-3.4,0.8c-1,0.1-1.2-0.9-1.6-1.5c-0.3-0.5,0.2-1,0.8-1.1c1.9-0.3,3.8-1,5.6-1.6
		C103.2,100.2,103.3,100.2,103.3,98.4z"/>
	<path class="st2" d="M129,118.5c-0.8,1.1-1.5,2.1-2.2,3.1c-1.3,2-3.1,3.4-4.7,5c-1.4,1.4-3.3,1.5-5.2,1c-1.3-0.4-1.9-1.4-2.1-2.8
		c-0.5-2.9,0.1-5.6,1.1-8.3c0.1-0.3,0.3-0.6,0.5-0.8c1.3-1.4,1.9-3.2,2.9-4.7c1.1-1.7,2.3-3.2,3.9-4.4c0.1,0,0.1-0.1,0.2-0.2
		c1.5-3,4.4-3.2,7.2-3.5c0.8-0.1,1.1-0.3,1.5-0.9c0.3-0.5,0.5-1,0.8-1.5c0.3-0.5,0.8-1,1.5-0.7c0.7,0.3,1.1,0.8,1,1.5
		c-0.4,2.6-1,5.2-1.8,7.8c-0.3,1-0.9,2-0.7,3.2c0.1,1-0.4,1.9-0.3,2.9c0.1,0.7,0.3,1.5,0.1,2.2c-0.5,1.4,0.2,2.7,0.3,4.1
		c0.1,1.3,1.1,2,2.4,1.4c0.8-0.3,1.4-0.8,2.1-1.3c0.6-0.4,1-0.2,1.3,0.3c0.4,0.6-0.2,0.7-0.6,0.9c-0.2,0.1-0.4,0.2-0.5,0.3
		c-1.4,1.7-3.5,2.4-5.6,1.6c-0.9-0.3-1.4-0.9-1.7-1.7c-0.4-1.3-1-2.6-1-4C129.2,118.8,129.1,118.7,129,118.5z M118.8,121.6
		c0,0.9,0.4,1.5,1.1,1.9c0.7,0.3,1.1-0.4,1.4-0.8c2.1-2.1,3.9-4.3,5.4-6.9c0.8-1.4,1.6-2.8,2.4-4.3c0.7-1.4,0.9-3.1,1.2-4.7
		c0-0.2-0.1-0.4-0.1-0.6c-0.1-0.8-0.4-0.8-1.1-0.5c-1.4,0.6-2.4,1.9-3.7,2.6c-1.2,0.7-2.1,1.8-2.6,2.8c-1.5,2.9-2.8,6-3.8,9.1
		C119,120.7,118.9,121.2,118.8,121.6z"/>
	<path class="st6" d="M112.2,169.4c0.3-0.4,0.6-0.8,0.9-1.2c0.8-1,1.5-1.1,2.5-0.5c0.3,0.2,0.5,0.5,0.4,0.8
		c-0.7,1.7-0.9,3.6-2.5,4.9c-1.9,1.4-3.7,1.1-4.8-1.1c-0.8-1.6-1-3.4-1-5.2c-0.1-3.5,0.5-6.9,0.8-10.4c0.1-1.1-0.2-1.3-1.2-0.9
		c-1,0.4-2,0.9-3.1,1.4c-0.8,0.4-1.7,0.4-2.2-0.4c-0.6-1.1-0.1-2.2,1.1-2.5c1.4-0.3,2.4-1.8,4-1.4c0.7-1.3,2.3-1.6,2.8-3.1
		c0.9-3.2,1.7-6.4,3-9.4c1-2.4,2.4-4.7,4-6.8c0.3-0.4,0.9-0.7,1.3-1.2c0.2-0.3,0.6,0,0.9,0.1c0.5,0.3,0.8,0.8,0.7,1.4
		c-0.2,1-0.6,2-1,2.9c-1.7,3.6-2.9,7.4-4,11.2c-0.1,0.2,0,0.4,0,0.7c0.9-0.7,1.8-1.2,2.8-0.7c0.1,0,0.3,0,0.3-0.1
		c0.7-1.2,2.1-1,3.1-1.6c0.8-0.4,1.4,0.6,1.8,1.2c0.3,0.5,0.1,1-0.5,1.5c-1,0.8-2.2,0.9-3.4,1.4c-1.8,0.7-3.4,1.7-5.2,2.4
		c-0.6,0.3-0.9,0.7-1.1,1.3c-0.8,2.2-1.1,4.5-1.3,6.8c-0.2,2.1-0.6,4.3,0,6.4C111.4,167.9,112.2,168.4,112.2,169.4z"/>
	<path class="st6" d="M96.4,175.1c-1.1,1.9-2.2,3.6-3,5.4c-0.9,1.9-2.7,1.8-4.3,1.9c-1.2,0-1.8-1.1-2.3-2c-0.9-1.7-0.8-3.5-0.5-5.4
		c0.5-3.2,0.7-6.4,2.2-9.2c1.4-2.7,3.5-4.7,5.5-6.9c0.7-0.8,1.9-1.1,3-1c0.7,0.1,1.2,0,1.6-0.7c0.6-0.9,1.3-0.7,1.7,0.3
		c0.5,1.2,0.3,2.5,0.2,3.7c-0.1,2.6-0.5,5.1-0.2,7.7c0.1,0.7,0.1,1.5-0.2,2.2c-0.4,1.2,0.3,2.2,0.7,3.3c0.4,1.2,1,2.3,1.5,3.5
		c0.4,0.9,0.8,1.6,2,1.6c0.6,0,0.9,0.4,0.3,1c-2,2.2-3.5,2.3-5.8,0.3C97.1,179.3,97.2,177.1,96.4,175.1z M97,160.5
		c-1.1,0.7-2.5,1.3-2.8,2.3c-0.9,2.4-2.6,4.3-3.7,6.6c-0.5,1-1.1,1.9-0.8,3.1c0.1,0.7,0.7,1.6,0.1,2.2c-0.9,0.9-0.7,2-0.7,3
		c0,0.7-0.1,1.6,0.8,1.8c0.9,0.3,1.3-0.5,1.8-1.1c0.1-0.2,0.2-0.4,0.3-0.6c0.8-1.8,1.7-3.6,2.4-5.5c0.7-1.9,1.5-3.7,1.7-5.8
		c0.1-1,0.3-2,0.7-2.9C97.1,162.7,97.2,161.7,97,160.5z"/>
	<path class="st6" d="M83.3,176.4c0.5,2,0.5,3.9-0.9,5.5c-0.8,1-1.5,2.2-2.3,3.2c-1.5,2.1-3.7,3-6.2,2.9c-0.7,0-1.5-0.2-2-0.7
		c-1.4-1.6-3.2-2.8-4.1-4.9c-0.7-1.7-1.3-3.4-1-5.3c0.9-5.6,3.2-10.6,7.4-14.6c2.2-2.1,4.6-3.9,7.9-3.8c1.7,0,2.6,1.2,3.7,2.2
		c0.3,0.2,0.1,0.5-0.3,0.5c-0.2,0-0.4,0-0.5-0.1c-1.8-1.4-3.2-0.4-4.6,0.7c-2,1.6-3.9,3.2-5.4,5.3c-1.1,1.4-2.1,2.9-3,4.4
		c-1.3,2.1-1.3,4.5-1.4,6.9c0,2.5,0.6,4.7,2.3,6.6c0.6,0.6,1,0.7,1.8,0.3c3.3-1.9,5.6-4.7,7.6-7.8C82.7,177.3,83,176.9,83.3,176.4z"
		/>
	<path class="st7" d="M60.5,223c-1.1-0.4-2.2,0.3-3.3,0c-0.5-0.2-1-0.4-1.4-0.7c-0.3-0.3-0.4-0.8-0.5-1.3c-0.3-0.9,0.6-0.6,0.9-0.8
		c1.3-0.8,2.9-1.1,4.3-1.7c0.5-0.2,1.3,0.2,1.7-0.6c0,0,0.3,0,0.3,0c0.6,0.9,1.2,0.3,1.8,0.1c0.9-0.3,1.6,0.1,1.8,1.2
		c0,0.1,0,0.2,0,0.2c1.3,0.3,0.5,1.3,0.7,1.9c0.3,1-0.1,0.7-0.8,0.8c-1,0.1-2.3-0.6-3.1,0.8c-0.1,0.2-0.7,0.5-1,0.2
		C61.4,222.7,60.9,222.8,60.5,223z"/>
	<path class="st7" d="M162.9,201.9c0.5,0,0.8,0,1.2-0.2c1.7-0.7,3.4-0.3,4.8,0.7c0.4,0.2,0.7,0.6,0.5,1.1c-0.2,0.5-0.5,0.7-1,0.8
		c-1.2,0.3-2.4,0.5-3.5,0.8c-0.9,0.3-2,0.9-3.3,0.6c-0.9-0.2-2,0.1-3-0.1c-0.7-0.1-1.6-1.2-1.5-1.9c0-0.3,0.2-0.4,0.5-0.4
		c1.5,0.2,2.5-1.1,3.9-1.3C162,202.1,162.5,201.9,162.9,201.9z"/>
	<path class="st4" d="M126.5,149.2c0.6,0.1,1.4,0.1,1.7,0.7c0.3,0.6,0,1.2-0.4,1.8c-0.1,0.2-0.2,0.3-0.3,0.5
		c-0.5,0.5-0.9,1.5-1.9,1.1c-0.7-0.2-1.3-1.7-1-2.6C124.8,149.7,125.4,149.1,126.5,149.2z"/>
	<path class="st8" d="M85.6,61.7c-0.4,0.8-0.9,0.6-1.3,0.6c-0.3,0-0.7,0.1-0.8,0.4c-0.1,0.3,0.2,0.5,0.4,0.6
		c0.4,0.3,0.9,0.6,1.3,0.9c0.7,0.5,0.8,1.6,0.3,2.2c-0.5,0.7-1.7,0.9-2.4,0.4c-0.4-0.3-0.5-0.6-0.3-1.1c0.2-0.4,0.5-0.4,0.9-0.3
		c0.2,0.1,0.5,0.4,0.7,0c0.2-0.4,0-0.7-0.4-0.9c-0.2-0.1-0.5-0.2-0.8-0.4c-0.5-0.3-1-0.7-0.9-1.4c0.1-0.8,0.5-1.3,1.3-1.6
		c0.6-0.2,1.2-0.6,1.7,0.1c0.4,0.7,0.5,0.1,0.8-0.1c1-0.8,1.9-0.8,2.6-0.1c0.2,0.3,0.4,0.5,0.2,0.9c-0.2,0.5-0.5,0.1-0.8,0
		c-0.4-0.1-0.8-0.4-1,0.1c-0.2,0.6,0.3,0.6,0.7,0.7c1.2,0.5,1.5,1.1,1.2,2.3c-0.3,1.1-1.2,1.2-2.1,1.2c-0.3,0-0.8-0.1-0.8-0.6
		c0-0.5,0.3-0.7,0.8-0.7c0.4,0,0.9,0.1,0.9-0.5c0-0.6-0.4-0.9-0.9-1C85.9,63.5,85.6,62.9,85.6,61.7z"/>
	<path class="st4" d="M78.7,64c0,0.1-0.1,0.4,0,0.6c0.2,0.5,0.5,1.2,1.1,1.1c0.5-0.1,0.5-0.8,0.4-1.3c-0.1-0.6-0.2-1.2-0.2-1.8
		c0-0.4,0.3-0.6,0.6-0.6c0.4-0.1,0.5,0.2,0.6,0.5c0.1,1.2,0.7,2.4,0.9,3.6c0.1,0.4,0,0.9-0.4,0.8c-0.9-0.3-1.6,0.4-2.3,0.3
		c-1,0-1.8-0.5-2-1.6c-0.1-0.9-0.5-1.7-0.5-2.6c0-0.5,0.1-0.9,0.6-0.9c0.6-0.1,0.9,0.2,1,0.8C78.6,63.1,78.8,63.5,78.7,64z"/>
	<path class="st8" d="M93.8,59.3c0.1-0.4-0.2-1.1,0.5-1.2c0.8-0.1,0.8,0.6,0.9,1.1c0.3,1.5,0.5,3.1,0.7,4.6c0.1,0.5,0.3,1.2-0.5,1.4
		c-0.8,0.2-0.7-0.6-0.8-1C94,62.6,93.9,61,93.8,59.3z"/>
	<path class="st8" d="M72.9,63.4c0-0.4,0-0.7,0.4-0.9c0.5-0.2,0.7-0.1,0.9,0.4c0.1,0.4,0.4,0.1,0.5,0c0.3-0.3,0.7-0.3,1.1-0.3
		c0.5,0,0.7,0.4,0.7,0.8c0,0.6-0.3,0.5-0.7,0.4c-0.9-0.1-1.3,0.4-1.2,1.2c0,0.7,0.1,1.3,0.2,2c0.1,0.4,0,0.7-0.5,0.8
		c-0.4,0.1-0.7-0.1-0.8-0.5C73.3,66,73.1,64.7,72.9,63.4z"/>
	<path class="st9" d="M155.1,111.3C155.1,111.3,155.1,111.2,155.1,111.3c0.1-0.1,0.1-0.1,0.1-0.1
		C155.2,111.2,155.2,111.3,155.1,111.3C155.1,111.3,155.1,111.3,155.1,111.3z"/>
	<g>
		<path class="st4" d="M58.7,66.6c-1.4-0.9-2-2.3-2.4-3.8c-0.7-2.3-1.1-4.6-1.1-7.1c0-0.3,0.1-0.5-0.2-0.7c0-0.4,0-0.8-0.1-1.2
			c-0.3-1.7-0.4-3.5-2.1-4.5c-2.9-1.6-6.4,0.1-7.2,3.3c-0.3,1.2-0.2,2.4-0.1,3.6c0.2,2.3,0.3,4.7,0.4,7c0,0.4,0.1,1.1-0.5,1.2
			c-0.6,0.1-1.1-0.3-1.3-0.8c-0.2-0.4-0.3-0.9-0.4-1.4c-0.3-2.7-0.6-5.3-0.8-8c-0.2-3.5-2.3-5.5-4.8-6.3c-0.4-0.1-0.9-0.3-1.2,0.1
			c-0.7,1-1.4,1.9-1.8,3.1c-1,3-0.7,6.1,0.1,9c0.8,3.2,2.7,5.8,5.2,7.9c2.3,2,5,3,8.1,3.1c2.2,0,4.1-0.5,6.2-1.1
			c1.7-0.4,2.9-1.5,4.1-2.6C59.1,67.1,59.2,66.8,58.7,66.6z"/>
		<path class="st4" d="M65.5,52.7c-0.3-3.2-2-5.7-4.2-8c-1-1.1-2.5-1.6-3.8-2.3c-3.1-1.8-6.4-2.6-10-1.9c-3.5,0.7-6.6,2-8.7,5.2
			c0.7,0.1,1.2-0.2,1.8-0.2c1.6,0.2,2.6,1.1,3.5,2.3c0.3,0.5,0.7,0.9,1.2,0.2c1-1.6,2.7-1.9,4.2-2.6c0.7-0.3,1.5-0.3,2.2-0.1
			c3.4,0.9,5.4,3.1,5.6,6.7c0.2,2.8,0.4,5.7,0.7,8.5c0.2,1.6,0.7,3.2,2.4,4c0.4,0.2,0.9,0.5,1.2,0c1-1.4,2.1-2.7,2.8-4.3
			C65.4,58,65.8,55.4,65.5,52.7z"/>
	</g>
	<path class="st4" d="M69.7,62.9c-0.9,0.1-0.9-0.5-1-1c-0.1-0.5-0.1-1.1-0.8-0.9c-0.6,0.1-0.5,0.7-0.4,1.1c0.3,1.6,0.5,3.1,0.9,4.7
		c0.3,1.6,0.9,1.8,2.4,1.3c1.2-0.4,1.6-1.3,1.6-2C72.4,64,71.2,62.7,69.7,62.9z M70.1,66.7c-0.9-0.2-0.6-1.1-0.8-1.8
		c-0.1-0.6,0.4-0.7,0.8-0.7c0.8,0.1,1.1,0.5,1.1,1.2C71.2,66.3,70.7,66.9,70.1,66.7z"/>
	<path class="st8" d="M93.6,64.3c-0.2-0.4-0.5-0.3-0.8-0.2c-0.4,0.1-0.9,0.4-1.5-0.1c0.4-0.2,0.8-0.3,1.1-0.4c0.7-0.3,1.2-0.8,1-1.6
		c-0.1-0.8-0.7-1.2-1.5-1.3c-1.3-0.2-2.2,0.6-2.2,1.9c-0.1,1.8,0.7,3.1,2.1,3.1c0.6,0,1.1-0.1,1.6-0.5C93.6,65,93.8,64.7,93.6,64.3z
		 M90.9,62.5c0-0.4,0.2-0.6,0.6-0.6c0.3,0,0.4,0.2,0.5,0.4c-0.1,0.4-0.4,0.5-0.7,0.5C91.1,62.8,90.9,62.7,90.9,62.5z"/>
</g>
</svg>
