<svg viewBox="0 0 732 641" fill="none" xmlns="http://www.w3.org/2000/svg">
<path d="M832.836 289.126C830.705 290.344 829.03 292.781 827.66 295.979C820.809 263.54 809.848 221.962 811.218 212.063C812.132 205.514 817.917 183.431 823.854 161.5C825.072 156.779 825.986 152.21 826.595 147.641C831.618 124.796 825.833 78.0405 825.833 78.0405L819.439 98.9053C801.779 58.6986 756.868 32.5033 709.065 45.1441C707.999 45.4487 706.933 45.7533 705.868 46.0579C602.344 75.756 509.173 101.342 490.752 98.2961C472.33 95.2501 256.149 76.8221 232.551 89.0059C216.566 97.3823 176.679 127.233 154.756 155.865C149.732 142.31 143.643 131.497 139.989 144.29C132.834 169.115 139.989 191.503 139.989 191.503C140.141 192.112 140.141 192.721 140.294 193.482C147.449 226.227 184.291 238.563 147.449 270.393C110.607 302.223 76.8091 353.395 91.1198 397.41C99.9497 424.366 66.609 447.82 39.3579 461.984C29.7668 467.01 21.698 474.016 15.3039 482.087C8.75756 473.863 3.12466 467.771 1.60225 470.36C-0.833602 478.737 0.232082 529.604 0.232082 529.604H0.384323C0.841045 537.524 2.51569 545.596 5.86499 553.363C6.32171 554.277 6.77843 555.343 7.08291 556.256C28.5488 603.469 28.5488 638.193 102.386 640.325C176.222 642.305 193.578 642.305 216.109 605.449C238.641 568.593 236.662 566.46 263.304 564.481C289.946 562.501 309.433 493.814 309.433 493.814C309.433 493.814 326.788 463.05 380.073 484.524C433.357 505.998 454.823 501.886 473.244 497.774C491.665 493.662 569.612 438.378 586.968 442.49C604.323 446.602 684.249 460.918 702.671 460.918C720.178 460.918 821.114 362.686 831.923 334.51C843.189 312.427 832.836 289.126 832.836 289.126Z" fill="#ABC6B0"/>
<path d="M39.359 420.406C6.32281 437.616 -8.74901 477.366 5.86609 511.785C6.32282 512.699 6.77954 513.765 7.08402 514.679C28.55 561.891 28.5499 596.615 102.387 598.747C176.223 600.727 193.579 600.727 216.11 563.871C238.642 527.015 236.663 524.883 263.305 522.903C289.947 520.923 309.434 452.237 309.434 452.237C309.434 452.237 326.789 421.472 380.074 442.946C433.358 464.42 454.824 460.308 473.245 456.196C491.666 452.084 569.613 396.8 586.969 400.912C604.324 405.024 684.25 419.34 702.672 419.34C721.093 419.34 831.772 310.752 832.837 289.125C833.903 267.651 809.24 184.649 811.372 170.18C812.285 163.632 818.07 141.548 824.008 119.618C842.885 49.5604 779.096 -15.4709 709.066 3.26178C708 3.56638 706.934 3.87097 705.869 4.17557C602.345 33.8737 509.174 59.4598 490.753 56.4138C472.331 53.3679 256.15 34.9398 232.552 47.1236C208.955 59.3075 133.139 119.008 140.295 151.752C147.45 184.496 184.292 196.833 147.45 228.663C110.608 260.493 71.0251 313.036 85.3357 357.05C94.1657 384.007 66.6101 406.09 39.359 420.406Z" fill="#CFE3D4"/>
<path d="M461.217 431.981L454.823 432.743L457.715 458.938C459.846 458.633 461.978 458.329 463.957 458.024L461.217 431.981Z" fill="white"/>
<path d="M823.702 234.908L747.886 166.983L705.106 138.351C725.659 113.069 753.062 90.6812 758.238 90.6812C765.85 90.9858 802.388 88.0922 827.051 86.1123C826.899 83.9801 826.594 81.8479 826.29 79.8681C801.932 81.8479 765.85 84.7416 758.543 84.437C749.104 84.1324 718.656 111.698 699.93 135L692.014 129.67C712.566 104.083 740.274 81.5433 745.45 81.5433C754.432 81.8479 802.997 77.8882 825.529 76.0606C825.072 73.9284 824.615 71.7963 824.006 69.8164C801.17 71.7963 754.128 75.6037 745.755 75.2991C736.316 74.9945 705.411 103.017 686.685 126.319L659.739 108.196L605.389 102.256L559.717 77.7359L542.818 48.7993C538.86 49.713 535.054 50.6268 531.4 51.3883V51.5406L551.496 86.1123L601.735 113.069L655.476 118.856L679.53 135C667.351 152.057 662.479 165.307 665.067 174.597C672.07 199.422 663.849 246.482 662.783 251.66C660.043 256.838 629.747 311.818 579.508 316.692C565.958 318.062 549.516 321.717 532.161 326.896L526.833 252.879L583.771 240.238L629.138 169.572L631.574 168.962L645.885 149.316L636.903 142.767L625.028 159.063L577.681 170.638C577.985 164.546 578.594 157.54 579.203 150.991L579.66 147.336L576.006 147.488C575.55 147.488 528.812 150.077 479.79 152.971L469.438 82.0002L357.389 116.267C350.538 91.8996 342.012 67.2273 333.487 44.6872C328.158 44.3826 322.982 44.2303 317.958 44.078C319.024 46.8194 320.09 49.5607 321.003 52.3021L226.766 64.3337C226.462 60.9831 226.157 57.6325 225.701 54.4343L241.99 46.5148L273.352 43.3165C253.104 43.4688 238.032 44.6872 232.704 47.4286C227.527 50.1699 219.763 55.1958 210.781 61.7446L219.611 57.4803C219.915 60.0693 220.068 62.6584 220.372 65.2475L219.154 65.3998L206.67 64.9429C204.082 66.9227 201.494 68.9026 198.906 71.0348L219.459 71.7963L221.133 71.644C224.635 106.063 228.441 144.595 231.638 177.339L202.56 171.552L153.691 179.319C155.974 182.822 158.258 186.172 160.085 189.523L191.142 184.649L187.488 228.968L149.428 268.109L120.046 260.798L119.741 256.686C117.762 258.971 115.783 261.407 113.956 263.692L115.022 302.223L93.4034 296.131C92.4899 298.111 91.5765 300.091 90.6631 301.919L113.195 308.315L97.5139 331.008L82.5943 339.993C82.7465 342.278 82.8988 344.714 83.2033 346.999L101.929 335.729L119.437 310.143L145.165 317.453L111.52 348.522L146.84 398.019L127.962 424.366L85.3346 377.915C84.5734 380.048 83.66 382.18 82.4421 384.312L124.156 429.697L116.848 439.748L11.6501 524.731C12.5636 526.863 13.3248 528.843 14.2382 530.823L121.72 444.013L128.723 434.418L159.171 467.619C113.042 495.946 46.0565 541.788 25.0473 556.409C25.9608 558.389 27.0265 560.216 27.9399 562.196C55.4955 543.159 173.634 461.984 201.342 451.78C182.616 465.182 168.001 476.452 158.41 485.438C107.866 517.268 42.2505 562.805 32.5071 569.506C33.725 571.334 34.943 573.009 36.3131 574.532C44.9909 568.593 98.5796 531.432 145.774 500.972C142.729 506.15 139.38 511.329 136.031 516.507C121.263 539.808 107.41 561.739 110.302 579.863C110.911 583.975 112.433 590.676 114.565 598.9C119.893 599.052 124.765 599.205 129.332 599.205C126.896 589.762 125.069 581.843 124.308 577.578C122.329 564.785 135.422 544.225 148.058 524.122C152.168 517.725 156.279 511.176 160.085 504.627C164.652 496.708 185.661 480.26 211.085 462.136C213.065 461.222 214.739 460.613 216.109 460.156C235.139 454.674 307.302 433.657 360.434 416.142C360.129 422.082 359.672 426.499 359.063 428.935C358.759 430.306 357.389 432.59 355.562 435.636C359.977 436.246 364.849 437.312 370.177 438.987C371.547 436.55 372.461 434.418 372.917 432.743C373.983 428.631 374.592 421.016 374.896 411.421C377.028 410.66 379.159 409.898 381.29 409.289L383.879 444.013C387.228 445.383 390.577 446.602 393.774 447.668L390.729 405.938C403.518 401.369 413.109 397.562 417.372 394.973C431.682 386.444 478.572 364.818 524.549 349.131L513.131 435.636C515.415 434.266 517.698 432.895 519.982 431.524L530.639 346.999C553.627 339.384 575.854 333.597 593.21 331.921C604.323 330.855 614.523 327.505 623.658 322.936C634.162 340.602 655.933 377.154 667.198 396.039L649.539 412.335C652.279 412.792 654.867 413.249 657.607 413.553L670.7 401.674C672.831 405.177 674.049 407.461 674.354 407.918C674.658 408.527 676.181 411.878 678.16 416.599C680.748 416.904 683.184 417.208 685.467 417.513C682.575 410.964 680.443 405.938 679.987 404.872C678.464 401.826 636.294 331.312 629.443 319.738C662.783 300.396 681.052 264.758 681.966 262.778L682.118 262.321L682.27 261.864C682.727 259.732 692.318 209.169 684.402 181.451C682.423 174.293 687.294 161.957 698.408 146.575L740.883 175.054L827.812 253.031C826.442 247.548 825.072 241.304 823.702 234.908ZM494.405 253.488L490.751 228.663L552.714 228.816L556.672 239.629L494.405 253.488ZM620.156 171.552L601.583 200.64C595.341 196.681 581.03 187.543 577.529 185.106C577.376 184.497 577.376 183.431 577.224 182.212L620.156 171.552ZM573.114 189.827C575.55 191.655 594.58 203.839 598.081 206.123L579.812 234.603L562.761 238.41L557.128 222.571L489.686 222.419L486.641 201.097L494.71 202.316L570.982 183.735C571.439 188.457 572.353 189.218 573.114 189.827ZM431.378 228.663L484.205 228.816L488.011 255.011L439.903 265.672L431.378 228.663ZM433.814 267.042L423.918 269.175L411.891 230.795L424.984 228.968L433.814 267.042ZM572.505 154.037C571.744 161.652 571.287 167.592 571.135 172.161L494.405 190.893L485.119 189.523L480.704 159.063C511.609 157.388 544.34 155.56 572.505 154.037ZM480.095 200.184L483.292 222.419L427.115 222.267L371.547 230.034C371.547 224.551 371.395 218.916 371.243 213.281L464.262 197.747L480.095 200.184ZM357.389 234.755C357.389 249.985 357.084 264.453 356.323 277.703L335.009 293.39L300.146 341.516L289.033 342.582L357.389 234.755ZM357.236 223.028L350.081 234.451L285.074 253.945C270.916 244.35 255.54 233.689 250.668 229.882L269.089 196.072L357.084 213.433C357.084 216.479 357.236 219.83 357.236 223.028ZM323.135 58.394C338.511 100.124 353.735 149.011 355.866 186.02C356.171 191.35 356.475 196.681 356.628 201.859L274.722 185.715L302.582 134.848L302.278 133.629C302.278 133.477 297.863 115.049 293.295 96.7732C290.555 86.1123 288.424 77.5836 286.597 71.3394C285.683 67.8365 284.922 65.2475 284.161 63.2676L323.135 58.394ZM227.375 70.5779L277.767 64.1814C280.812 72.5578 290.098 109.718 295.731 133.934L268.176 184.345L238.032 178.405C234.53 142.463 230.724 104.083 227.375 70.5779ZM193.426 231.557L197.384 183.431L202.255 182.669L262.543 194.549L207.127 296.284L180.028 275.723L156.431 269.936L193.426 231.557ZM204.082 301.919L185.813 335.12C182.921 332.378 178.354 329.028 171.351 324.306C165.565 320.499 159.628 316.996 156.127 315.016L179.267 283.186L204.082 301.919ZM121.263 304.051L120.35 267.499L173.33 280.597L150.341 312.275L121.263 304.051ZM152.016 319.89C164.804 327.2 178.201 336.186 182.769 340.907L177.592 350.502L144.708 326.743L152.016 319.89ZM139.989 331.16L174.395 356.137L165.109 373.194L163.282 375.783L132.073 338.47L139.989 331.16ZM120.046 349.436L127.353 342.735L159.476 381.114L150.95 392.841L120.046 349.436ZM132.377 429.24L170.437 376.849L188.858 343.039L190.685 343.191C190.685 342.43 190.685 341.668 190.228 340.602L211.999 300.548L212.303 300.091L221.59 283.034L257.367 308.315L261.02 303.137L224.635 277.399L247.623 235.364C252.343 239.324 262.391 246.178 282.791 259.884L284.009 260.798L344.905 242.675L280.507 344.105L169.371 410.66L145.165 443.251L132.377 429.24ZM201.342 444.927C194.796 446.754 181.398 454.064 164.652 464.116L149.732 447.82L173.939 415.381L284.009 349.436L303.8 347.456L339.881 297.807L356.019 285.927C353.735 318.062 349.015 342.278 342.469 351.111C337.141 358.421 299.081 384.312 265.588 407.157C248.08 419.188 231.79 430.154 217.327 440.358C210.172 442.49 204.691 444.013 201.342 444.927ZM360.434 409.746C316.131 424.366 256.91 441.881 227.832 450.409C233.16 446.602 238.641 442.794 244.122 439.139C278.68 428.783 326.027 414.467 360.586 402.74C360.586 405.177 360.434 407.461 360.434 409.746ZM261.325 427.26C265.435 424.519 269.546 421.777 273.352 419.036C319.024 387.967 347.189 368.473 353.735 359.487C355.866 356.441 357.845 352.482 359.672 347.608C360.281 365.122 360.586 381.875 360.586 395.887C331.965 405.634 293.6 417.513 261.325 427.26ZM358.911 122.359L464.109 90.2243L473.244 153.428C472.483 153.428 471.721 153.58 470.96 153.58C399.103 157.845 375.353 159.52 367.132 160.434C365.305 147.945 362.413 135.305 358.911 122.359ZM368.35 166.373C380.682 165.155 424.679 162.414 474.31 159.52L478.572 188.609L464.262 186.629L371.09 202.163C370.938 196.376 370.634 190.741 370.329 185.106C369.872 179.166 369.263 172.922 368.35 166.373ZM370.634 277.094C371.395 264.149 371.699 250.442 371.699 236.583L405.497 231.862L417.676 270.698L370.786 281.054C370.786 279.379 370.634 278.008 370.634 277.094ZM371.243 287.45L419.655 276.637L420.112 278.312L420.264 278.617L458.324 353.395C431.834 364.361 409.76 375.022 400.777 380.352C396.667 382.789 387.38 386.444 374.896 391.013C374.744 355.68 372.461 309.077 371.243 287.45ZM525.006 342.43C477.659 358.421 428.485 380.961 413.718 389.795C408.389 392.993 393.774 398.476 374.896 404.872C374.896 402.588 374.896 400.151 375.049 397.714C389.055 392.688 399.712 388.576 404.279 385.835C420.112 376.392 475.984 350.959 526.071 335.272L525.006 342.43ZM464.262 350.959L426.201 276.18L425.897 275.267L520.591 254.249L526.224 328.571C505.519 334.967 483.901 343.039 464.262 350.959ZM678.312 183.735C685.315 208.56 677.094 255.62 676.028 260.798C673.288 265.976 642.992 320.956 592.753 325.829C575.702 327.505 554.084 332.987 531.704 340.298L532.618 333.292C550.278 327.962 566.872 324.154 580.573 322.784C636.598 317.301 667.807 256.382 669.178 253.792L669.33 253.336L669.482 252.879C669.939 250.747 679.53 200.184 671.613 172.465C669.634 165.307 674.354 153.276 685.163 138.198L693.079 143.529C680.596 160.891 675.572 174.293 678.312 183.735Z" fill="white"/>
<path d="M429.43 186.867C415.675 184.857 364.564 184.686 355.646 245.705C349.3 289.132 386.751 332.785 400.389 347.13C403.289 350.361 407.69 351.004 410.843 348.658C428.016 338.815 476.474 307.157 482.74 264.279C492.208 203.341 443.185 188.877 429.43 186.867ZM422.195 263.291C408.038 264.029 398.171 250.797 402.931 237.456C405.076 230.47 412.092 224.758 419.955 224.784C434.111 224.046 443.978 237.279 439.219 250.619C436.524 257.525 429.508 263.237 422.195 263.291Z" fill="#ED7F69"/>
</svg>
