<?xml version="1.0" encoding="UTF-8" standalone="no"?>
<svg
   version="1.1"
   xmlns="http://www.w3.org/2000/svg"
   xmlns:svg="http://www.w3.org/2000/svg"
   xmlns:rdf="http://www.w3.org/1999/02/22-rdf-syntax-ns#"
   xmlns:cc="http://creativecommons.org/ns#"
   xmlns:dc="http://purl.org/dc/elements/1.1/" viewBox="0 0 459.88501 472.94086">
  <defs
     id="defs4" />
  <metadata
     id="metadata7">
    <rdf:RDF>
      <cc:Work
         rdf:about="">
        <dc:format>image/svg+xml</dc:format>
        <dc:type
           rdf:resource="http://purl.org/dc/dcmitype/StillImage" />
      </cc:Work>
    </rdf:RDF>
  </metadata>
  <g
     id="layer1"
     transform="translate(-124.34321,-206.60604)">
    <g
       id="g3139">
      <path
         id="path7"
         style="fill:#990000"
         d="m 297.15821,263.84704 c 0,-31.615 25.629,-57.241 57.248,-57.241 31.619,0 57.247,25.626 57.247,57.241 0,31.612 -25.629,57.236 -57.247,57.236 -31.618,0 -57.248,-25.624 -57.248,-57.236 l 0,0 z" />
      <path
         id="path9"
         style="fill:#339966"
         d="m 423.68421,298.30604 c 21.396,19.074 34.867,46.838 34.867,77.754 0,53.36 -40.143,97.343 -91.876,103.415 l 0,-124.165 57.009,-57.004 0,0 z" />
      <path
         id="path11"
         style="fill:#339966"
         d="m 250.26221,376.06004 c 0,-30.917 13.472,-58.68 34.866,-77.754 l 57.009,57.004 0,124.165 c -51.736,-6.072 -91.875,-50.055 -91.875,-103.415 l 0,0 z" />
      <path
         id="path13"
         style="fill:#006699"
         d="m 181.23221,378.61004 c 0,-50.623 21.727,-96.17 56.364,-127.832 l 31.644,31.641 c -25.724,23.247 -41.889,56.873 -41.889,94.271 0,70.162 56.885,127.041 127.055,127.041 70.173,0 127.054,-56.879 127.054,-127.041 0,-37.398 -16.162,-71.024 -41.885,-94.271 l 31.646,-31.641 c 34.639,31.661 56.36,77.21 56.36,127.832 0,95.628 -77.527,173.153 -173.175,173.153 -95.643,0 -173.174,-77.524 -173.174,-173.153 l 0,0 z" />
      <path
         id="path17"
         style="fill:#484848"
         d="m 147.24121,628.49304 -22.898,-53.223 7.174,0 7.21,0 11.858,29.462 -0.025,0 13.61,-29.462 5.068,0 5.105,0 13.575,29.499 0.02,0 11.812,-29.499 7.171,0 7.21,0 -22.86,53.223 -2.815,0 -2.854,0 -16.359,-33.139 -0.005,0 -16.33,33.139 -2.815,0 -2.852,0 z" />
      <path
         id="path19"
         style="fill:#484848"
         d="m 220.41021,575.27004 6.536,0 6.573,0 0,52.435 -6.536,0 -6.573,0 0,-52.435 0,0 z" />
      <path
         id="path21"
         style="fill:#484848"
         d="m 258.61021,627.70504 -6.536,0 -6.572,0 0,-52.435 6.535,0 6.573,0 0,24.81 0.021,0 16.734,-24.81 7.403,0 7.403,0 -18.282,25.146 23.799,27.288 -8.298,0 -8.336,0 -20.46,-24.998 0.015,0 0,24.999 10e-4,0 z" />
      <path
         id="path23"
         style="fill:#484848"
         d="m 301.25421,575.27004 6.536,0 6.572,0 0,52.435 -6.535,0 -6.573,0 0,-52.435 z" />
      <path
         id="path25"
         style="fill:#484848"
         d="m 339.45421,627.70504 -6.536,0 -6.573,0 0,-52.435 5.898,0 5.895,0 16.408,18.914 0.006,0 16.373,-18.914 5.898,0 5.898,0 0,52.435 -6.536,0 -6.572,0 0,-32.204 0.033,0 -13.971,16.139 -1.124,0 -1.128,0 -13.98,-16.139 0.012,0 0,32.204 -0.001,0 z" />
      <path
         id="path27"
         style="fill:#484848"
         d="m 394.51921,627.70504 0,-52.435 38.636,0 0,4.713 0,4.749 -25.527,0 0,11.236 23.95,0 0,4.711 0,4.751 -23.95,0 0,12.813 25.527,0 0,4.712 0,4.75 -38.636,0 z" />
      <path
         id="path29"
         style="fill:#484848"
         d="m 443.09121,575.27004 6.535,0 13.373,0 c 10.768,0 18.844,2.19 24.231,6.568 5.331,4.33 7.998,10.848 7.998,19.555 l 0,0.113 c 0.025,8.732 -2.54,15.282 -7.699,19.648 -5.159,4.366 -12.909,6.55 -23.252,6.55 l -14.651,0 -6.535,0 0,-52.434 0,0 z m 13.108,42.774 8.095,0 c 5.744,0 10.053,-1.374 12.927,-4.125 2.873,-2.75 4.308,-6.889 4.308,-12.413 0,-5.525 -1.543,-9.671 -4.629,-12.433 -3.086,-2.764 -7.716,-4.145 -13.888,-4.145 l -6.813,0 0,33.116 0,0 z" />
      <path
         id="path31"
         style="fill:#484848"
         d="m 505.18321,575.27004 6.536,0 6.572,0 0,52.435 -6.535,0 -6.573,0 0,-52.435 z" />
      <path
         id="path33"
         style="fill:#484848"
         d="m 546.80321,574.48204 7.621,0 7.656,0 22.148,53.223 -7.136,0 -7.138,0 -3.896,-9.955 -23.275,0 -3.856,9.955 -7.134,0 -7.136,0 22.146,-53.223 z m -0.406,33.806 16.053,0 -8.063,-20.546 -0.01,0 -7.98,20.546 z" />
      <text
         xml:space="preserve"
         id="Deutschland"
         style="font-style:normal;font-variant:normal;font-weight:bold;font-stretch:normal;font-size:44.093px;line-height:0%;font-family:'DejaVu Sans';text-align:start;writing-mode:lr-tb;text-anchor:start;fill:#666666;fill-opacity:1"
         y="678.92255"
         x="242.35495"><tspan
           id="tspan1892"
           y="678.92255"
           x="242.35495">BELGIUM</tspan></text>
    </g>
  </g>
</svg>
