<svg width="31" height="29" viewBox="0 0 31 29" fill="none" xmlns="http://www.w3.org/2000/svg">
<g clip-path="url(#clip0)">
<path d="M15.5693 9.99301C15.846 9.99301 16.1228 9.99301 16.3996 9.99301C20.2054 9.99301 20.2054 9.99301 20.067 13.7023C19.9978 17.0744 19.9978 17.0744 16.538 17.0744C15.7077 17.0744 14.9465 17.0744 14.1161 17.0744C10.9331 17.0744 10.9331 17.0744 10.7947 14.0395C10.5871 9.99301 10.5871 9.99301 14.6697 9.99301C15.0157 9.99301 15.2925 9.99301 15.5693 9.99301Z" fill="#495747"/>
<path d="M7.74999 13.2976C7.74999 17.0069 7.74999 17.0069 3.94419 17.0069C-0.0692027 17.0069 -0.0692026 17.0069 -6.14766e-06 13.0279C-6.14766e-06 12.6907 0.0691903 12.3535 0.0691903 12.0163C0.138387 10.5325 0.553565 9.58834 2.42187 9.85811C3.6674 10.0604 4.91294 9.993 6.15848 9.85811C7.6808 9.72323 8.09597 10.3302 7.88839 11.679C7.81919 12.286 7.81919 12.893 7.74999 13.2976Z" fill="#495747"/>
<path d="M26.7791 9.993C26.9175 9.993 27.1251 9.92556 27.2635 9.993C28.3706 10.2628 29.9621 9.25114 30.5157 10.6C31.2768 12.5558 31.1385 14.6465 30.5157 16.6697C30.3773 17.1418 29.8237 17.007 29.4777 17.007C27.6786 17.007 25.9487 17.007 24.1496 17.007C23.1809 17.007 23.0425 16.6023 23.0425 15.793C23.1117 14.3767 23.1809 12.893 23.0425 11.4767C22.9733 10.2628 23.3885 9.85811 24.5648 9.993C25.2568 10.0604 26.0179 9.993 26.7791 9.993Z" fill="#495747"/>
<path d="M15.4999 7.02561C14.9463 7.02561 14.3235 7.02561 13.77 7.02561C11.4173 7.02561 11.4173 7.02561 12.1784 4.80003C12.6628 3.45119 13.1472 2.03491 14.1159 0.888403C15.0847 -0.258109 15.9843 -0.258109 16.953 0.888403C18.1985 2.37212 18.7521 4.2605 19.2365 6.08143C19.4441 6.75585 19.0981 7.02561 18.4061 7.02561C17.4374 6.95817 16.4686 6.95817 15.4999 7.02561C15.4999 6.95817 15.4999 7.02561 15.4999 7.02561Z" fill="#495747"/>
<path d="M15.5692 20.0419C15.7768 20.0419 16.0535 20.0419 16.2611 20.0419C19.7902 20.0419 19.7902 20.0419 18.4754 23.2791C18.0602 24.2907 17.6451 25.3698 16.8839 26.1791C16.0535 27.1233 15.154 27.2582 14.2544 26.314C12.8705 24.7628 12.3169 22.807 11.7634 20.8512C11.5558 20.1093 12.1094 20.0419 12.6629 20.0419C13.6317 20.0419 14.6004 20.0419 15.5692 20.0419Z" fill="#495747"/>
<path d="M11.3482 -0.730209C10.0334 1.42793 9.06467 3.65351 8.58029 6.08142C8.4419 6.62095 8.16511 6.95816 7.54235 6.95816C5.88163 6.95816 4.22092 6.95816 2.5602 6.95816C2.07583 6.95816 1.72985 6.89072 1.93744 6.14886C2.97538 3.3163 8.02672 -0.460442 11.3482 -0.730209Z" fill="#495747"/>
<path d="M19.4441 -1C23.9419 0.213953 26.8481 2.50698 28.924 6.01395C29.3392 6.75581 29.0624 7.02558 28.3012 7.02558C26.7789 7.02558 25.2566 7.02558 23.6651 7.02558C23.0423 7.02558 22.5579 6.82326 22.4195 6.14884C21.866 3.72093 20.9664 1.42791 19.4441 -1Z" fill="#495747"/>
<path d="M11.5557 28C7.05794 26.786 4.0825 24.4256 2.0066 20.8511C1.59143 20.1093 2.0758 19.9744 2.62937 19.9744C4.22089 19.9744 5.81241 19.9744 7.40393 19.9744C8.09589 19.9744 8.37268 20.3116 8.51107 20.986C9.06464 23.3465 9.9642 25.5721 11.5557 28Z" fill="#495747"/>
<path d="M19.5825 27.7303C20.9664 25.5047 21.866 23.2117 22.4196 20.7837C22.4888 20.3117 22.8348 20.0419 23.3883 20.0419C25.049 20.0419 26.7098 20.0419 28.3705 20.0419C28.8548 20.0419 29.27 20.1093 28.9932 20.7837C28.0245 23.6163 22.9731 27.4605 19.5825 27.7303Z" fill="#495747"/>
</g>
<defs>
<clipPath id="clip0">
<rect width="31" height="29" fill="white"/>
</clipPath>
</defs>
</svg>
