<svg width="15" height="20" viewBox="0 0 15 20" fill="none" xmlns="http://www.w3.org/2000/svg">
<path d="M13.6413 18.2743L9.09833 16.5226L13.6413 14.7996C13.7838 14.7455 13.8989 14.6371 13.9613 14.4981C14.0238 14.3592 14.0285 14.2011 13.9745 14.0587C13.9204 13.9163 13.8119 13.8011 13.673 13.7387C13.5341 13.6762 13.376 13.6715 13.2336 13.7256L7.49018 15.931L1.7468 13.7256C1.67628 13.6984 1.6011 13.6854 1.52555 13.6873C1.45001 13.6892 1.37558 13.706 1.30652 13.7366C1.23745 13.7673 1.1751 13.8113 1.12303 13.866C1.07096 13.9208 1.03018 13.9853 1.00303 14.0558C0.975877 14.1263 0.96288 14.2015 0.964782 14.277C0.966683 14.3526 0.983446 14.427 1.01411 14.4961C1.04478 14.5652 1.08875 14.6275 1.14351 14.6796C1.19827 14.7316 1.26275 14.7724 1.33327 14.7996L5.88203 16.5226L1.33327 18.2743C1.19188 18.3295 1.07808 18.4384 1.01674 18.5772C0.955396 18.7161 0.9515 18.8735 1.0059 19.0152C1.04755 19.1232 1.12083 19.216 1.21614 19.2816C1.31145 19.3472 1.42434 19.3825 1.54004 19.3828C1.61037 19.3826 1.6802 19.3709 1.7468 19.3483L7.49018 17.1429L13.2336 19.3483C13.2982 19.3709 13.3661 19.3826 13.4346 19.3828C13.5679 19.3818 13.6967 19.3344 13.7989 19.2489C13.9012 19.1633 13.9704 19.0448 13.9949 18.9138C14.0193 18.7827 13.9974 18.6473 13.9329 18.5306C13.8684 18.4139 13.7653 18.3233 13.6413 18.2743Z" fill="#495747"/>
<path d="M8.83986 14.0874C8.83986 13.1225 8.2368 12.3644 7.49591 12.3644C6.75501 12.3644 6.1577 13.1512 6.1577 14.0874C6.1577 14.0874 6.1577 14.0874 6.1577 14.1161C6.60304 14.2119 7.05762 14.2582 7.51314 14.2539C7.9619 14.2452 8.4085 14.1894 8.8456 14.0874H8.83986Z" fill="#495747"/>
<path d="M12.9981 4.3753C12.5673 3.22663 11.9873 2.97966 10.8501 3.44487C10.4133 3.62818 10.0385 3.93322 9.77031 4.32361C9.29936 4.97261 9.00644 4.95538 8.57569 4.23746C8.13908 3.40669 7.53578 2.67492 6.8035 2.08791C6.07122 1.5009 5.22571 1.07128 4.31985 0.825892C4.18095 0.765264 4.03002 0.737212 3.87862 0.743883C3.72721 0.750555 3.57934 0.791772 3.44631 0.864382C3.31328 0.936993 3.19863 1.03907 3.11112 1.16281C3.02362 1.28654 2.96557 1.42866 2.94143 1.57827C2.4475 3.10601 1.85594 4.60504 1.40795 6.17298C0.95602 7.66214 1.0744 9.26618 1.74005 10.6729C2.4057 12.0795 3.57098 13.1882 5.00905 13.783C5.14689 12.3356 6.19219 11.1984 7.47296 11.1984C8.75374 11.1984 9.77032 12.3471 9.93687 13.76C10.7155 13.4256 11.4206 12.941 12.0119 12.3339C12.6032 11.7269 13.0691 11.0092 13.3829 10.2221C14.2387 8.16593 13.716 6.27636 12.9981 4.3753Z" fill="#495747"/>
</svg>
