<svg xmlns="http://www.w3.org/2000/svg" fill="none" viewBox="0 0 48 48">
  <rect width="48" height="48" fill="**backGroundColor**" rx="24" />
  <path fill="**tentBackgroundColor**" d="M15.5 16 6 33.5h35L31 16H15.5Z" />
  <path fill="**tentColor**"
    d="M40.28 33.86H6.34c-.52 0-.85-.51-.59-.97l4.79-8.34 4.59-8.98h15.64l9.96 17.26c.32.52 0 1.03-.45 1.03ZM6.4 33.22h33.81l-9.76-16.94H15.58l-4.4 8.6-4.78 8.34Z" />
  <path fill="**tentColor**"
    d="M25.15 33.86a.36.36 0 0 1-.32-.2l-10.67-19.2c-.07-.19 0-.38.13-.45.2-.06.39 0 .45.13l10.67 19.2c.06.2 0 .4-.13.46-.07.06-.07.06-.13.06Z" />
  <path fill="**tentColor**" d="M15.39 16.47v8.8l-.65.51-4.2 3.5.39 4.26 4.46-8.28" />
  <path fill="**tentColor**"
    d="M10.93 33.86h-.07c-.13 0-.26-.13-.26-.32l-.39-4.2c0-.13.07-.2.13-.26l4.2-3.5.52-.45v-8.66c0-.2.13-.32.33-.32.19 0 .32.13.32.32v8.8c0 .06 0 .12-.07.12l-4.4 8.28c-.06.13-.19.2-.31.2Zm0-4.4.25 2.92 3.04-5.7-3.3 2.79Z" />
  <path fill="**tentColor**" d="m15.39 25.26.64.52 4.2 3.62-.38 4.14-4.46-8.28Z" />
  <path fill="**tentColor**"
    d="M19.85 33.86a.36.36 0 0 1-.33-.2l-4.46-8.27a.4.4 0 0 1 .07-.45.31.31 0 0 1 .45 0l.65.58 4.26 3.62c.07.07.13.2.13.33l-.38 4.13c0 .13-.13.26-.26.33l-.13-.07Zm-3.3-7.17 3.04 5.69.26-2.85-3.3-2.84ZM15.45 16.47c-.06 0-.13 0-.2-.06-.19-.07-.19-.33-.12-.46l1.03-1.8c.07-.2.33-.2.45-.14.2.07.2.33.13.46l-1.03 1.8c-.07.14-.2.2-.26.2ZM30.64 16.6l-1.22-2.13c-.07-.2-.07-.4.13-.46.19-.06.38-.06.45.13l.64 1.17.72-1.17c.13-.13.32-.19.45-.13.13.13.2.33.13.46l-1.3 2.13Z" />
</svg>