<svg xmlns="http://www.w3.org/2000/svg" fill="none" viewBox="0 0 48 48">
  <rect width="48" height="48" fill="#416BFF" rx="24"/>
  <path fill="#fff" d="M14 16.17v16.37c0 1.06.86 1.91 1.91 1.91h1.81l-2.06 2.61a.33.33 0 1 0 .52.42l.75-.95h14.86l.74.95a.33.33 0 1 0 .53-.42l-2.07-2.6H32.16c.32 0 1.25-.06 1.9-.68.44-.4.65-.96.65-1.66V16.2c0-.06.09-1.29-1.08-2.55C32.01 11.9 28.9 11 24.36 11c-4.54 0-7.67.9-9.3 2.66A3.6 3.6 0 0 0 14 16.17Zm17.26 19.7h-13.8l1.08-1.39.02-.03h11.6l.01.03 1.1 1.38Zm2.79-3.75c0 .5-.15.9-.44 1.18-.57.53-1.5.49-1.54.49H15.91c-.69 0-1.24-.56-1.24-1.25V26.1h19.38v6.02Zm0-6.69H14.67v-7.35h19.38v7.35Zm-9.7-13.76c5.38 0 7.74 1.3 8.77 2.41.98 1.04.93 2.03.93 2.1v1.23H14.67v-1.27s-.07-.99.89-2.03c1.02-1.12 3.38-2.44 8.8-2.44Z"/>
  <path fill="#fff" d="M21.86 15.98h5.03c.67 0 1.2-.54 1.2-1.21v-.1c0-.66-.54-1.2-1.2-1.2h-5.03c-.67 0-1.21.54-1.21 1.2v.1c0 .67.54 1.21 1.21 1.21Zm-.54-1.3c0-.3.24-.55.54-.55h5.03c.3 0 .54.24.54.55v.09c0 .3-.24.55-.54.55h-5.03a.55.55 0 0 1-.54-.55v-.1ZM18.26 31.84a1.83 1.83 0 1 0 0-3.65 1.83 1.83 0 0 0 0 3.65Zm0-2.98a1.16 1.16 0 1 1 0 2.32 1.16 1.16 0 0 1 0-2.32ZM30.47 31.84a1.83 1.83 0 1 0 0-3.65 1.83 1.83 0 0 0 0 3.65Zm0-2.98a1.16 1.16 0 1 1 0 2.32 1.16 1.16 0 0 1 0-2.32Z"/>
</svg>
