<svg width="13" height="17" viewBox="0 0 13 17" fill="none" xmlns="http://www.w3.org/2000/svg">
<path d="M12.1204 15.989L7.97711 14.3914L12.1204 12.82C12.2503 12.7707 12.3553 12.6718 12.4123 12.5451C12.4693 12.4183 12.4736 12.2742 12.4243 12.1443C12.3749 12.0144 12.276 11.9094 12.1493 11.8524C12.0226 11.7955 11.8784 11.7912 11.7485 11.8405L6.51044 13.8519L1.27234 11.8405C1.20803 11.8157 1.13946 11.8039 1.07056 11.8056C1.00167 11.8073 0.933786 11.8226 0.870797 11.8506C0.807808 11.8785 0.750944 11.9186 0.703453 11.9686C0.655962 12.0185 0.618772 12.0773 0.594009 12.1417C0.569245 12.206 0.557392 12.2745 0.559126 12.3434C0.56086 12.4123 0.576148 12.4802 0.604117 12.5432C0.632085 12.6062 0.672185 12.6631 0.722129 12.7106C0.772073 12.758 0.830883 12.7952 0.895199 12.82L5.04377 14.3914L0.895199 15.989C0.766248 16.0394 0.662458 16.1387 0.606512 16.2653C0.550566 16.3919 0.547012 16.5355 0.596627 16.6648C0.634613 16.7632 0.701445 16.8479 0.788368 16.9077C0.875291 16.9675 0.978254 16.9997 1.08377 17C1.14792 16.9998 1.2116 16.9892 1.27234 16.9686L6.51044 14.9571L11.7485 16.9686C11.8075 16.9892 11.8694 16.9998 11.9319 17C12.0535 16.9991 12.1709 16.9559 12.2642 16.8779C12.3574 16.7998 12.4206 16.6918 12.4429 16.5723C12.4652 16.4527 12.4452 16.3292 12.3864 16.2228C12.3275 16.1164 12.2335 16.0337 12.1204 15.989Z" fill="#495747"/>
<path d="M7.74138 12.1704C7.74138 11.2904 7.19138 10.599 6.51567 10.599C5.83995 10.599 5.29519 11.3166 5.29519 12.1704C5.29519 12.1704 5.29519 12.1704 5.29519 12.1966C5.70135 12.2841 6.11594 12.3262 6.53138 12.3224C6.94066 12.3144 7.34797 12.2635 7.74662 12.1704H7.74138Z" fill="#495747"/>
<path d="M11.5338 3.31282C11.1409 2.2652 10.6119 2.03996 9.57474 2.46425C9.17643 2.63143 8.83459 2.90963 8.58998 3.26567C8.16045 3.85758 7.89331 3.84187 7.50045 3.1871C7.10226 2.42942 6.55203 1.76203 5.88417 1.22667C5.21632 0.6913 4.4452 0.299469 3.61902 0.0756724C3.49235 0.0203779 3.3547 -0.00520598 3.21661 0.000878512C3.07853 0.00696301 2.94366 0.0445545 2.82234 0.110777C2.70102 0.176999 2.59645 0.270097 2.51664 0.382947C2.43683 0.495797 2.38389 0.625408 2.36188 0.761863C1.9114 2.1552 1.37188 3.52234 0.963307 4.95234C0.551135 6.31049 0.659101 7.77341 1.26619 9.05633C1.87328 10.3393 2.93604 11.3504 4.2476 11.8928C4.37331 10.5728 5.32664 9.53568 6.49474 9.53568C7.66284 9.53568 8.58998 10.5833 8.74188 11.8719C9.45204 11.5669 10.0951 11.1249 10.6344 10.5713C11.1737 10.0176 11.5985 9.36313 11.8847 8.6452C12.6652 6.76996 12.1886 5.04663 11.5338 3.31282Z" fill="#495747"/>
</svg>
