<svg width="17" height="19" viewBox="0 0 17 19" fill="none" xmlns="http://www.w3.org/2000/svg">
<path fill-rule="evenodd" clip-rule="evenodd" d="M2.73395 3.856C2.29357 3.856 1.93657 4.213 1.93657 4.65339V15.8168C1.93657 16.2572 2.29357 16.6142 2.73395 16.6142H13.8973C14.3377 16.6142 14.6947 16.2572 14.6947 15.8168V4.65339C14.6947 4.213 14.3377 3.856 13.8973 3.856H2.73395ZM0.341797 4.65339C0.341797 3.33223 1.4128 2.26123 2.73395 2.26123H13.8973C15.2185 2.26123 16.2895 3.33223 16.2895 4.65339V15.8168C16.2895 17.1379 15.2185 18.2089 13.8973 18.2089H2.73395C1.4128 18.2089 0.341797 17.1379 0.341797 15.8168V4.65339Z" fill="#495747"/>
<path fill-rule="evenodd" clip-rule="evenodd" d="M11.5054 0.666504C11.9458 0.666504 12.3028 1.02351 12.3028 1.46389V4.65343C12.3028 5.09381 11.9458 5.45081 11.5054 5.45081C11.065 5.45081 10.708 5.09381 10.708 4.65343V1.46389C10.708 1.02351 11.065 0.666504 11.5054 0.666504Z" fill="#495747"/>
<path fill-rule="evenodd" clip-rule="evenodd" d="M5.126 0.666504C5.56638 0.666504 5.92338 1.02351 5.92338 1.46389V4.65343C5.92338 5.09381 5.56638 5.45081 5.126 5.45081C4.68561 5.45081 4.32861 5.09381 4.32861 4.65343V1.46389C4.32861 1.02351 4.68561 0.666504 5.126 0.666504Z" fill="#495747"/>
<path fill-rule="evenodd" clip-rule="evenodd" d="M0.341797 7.8428C0.341797 7.40241 0.698798 7.04541 1.13918 7.04541H15.4921C15.9325 7.04541 16.2895 7.40241 16.2895 7.8428C16.2895 8.28318 15.9325 8.64018 15.4921 8.64018H1.13918C0.698798 8.64018 0.341797 8.28318 0.341797 7.8428Z" fill="#495747"/>
</svg>
