<svg width="20" height="21" viewBox="0 0 20 21" fill="none" xmlns="http://www.w3.org/2000/svg">
<path fill-rule="evenodd" clip-rule="evenodd" d="M4.73395 4.85502C4.29357 4.85502 3.93657 5.21202 3.93657 5.65241V16.8158C3.93657 17.2562 4.29357 17.6132 4.73395 17.6132H15.8973C16.3377 17.6132 16.6947 17.2562 16.6947 16.8158V5.65241C16.6947 5.21202 16.3377 4.85502 15.8973 4.85502H4.73395ZM2.3418 5.65241C2.3418 4.33126 3.4128 3.26025 4.73395 3.26025H15.8973C17.2185 3.26025 18.2895 4.33126 18.2895 5.65241V16.8158C18.2895 18.1369 17.2185 19.208 15.8973 19.208H4.73395C3.4128 19.208 2.3418 18.1369 2.3418 16.8158V5.65241Z" fill="#495747"/>
<path fill-rule="evenodd" clip-rule="evenodd" d="M13.5054 1.66553C13.9458 1.66553 14.3028 2.02253 14.3028 2.46291V5.65245C14.3028 6.09283 13.9458 6.44984 13.5054 6.44984C13.065 6.44984 12.708 6.09283 12.708 5.65245V2.46291C12.708 2.02253 13.065 1.66553 13.5054 1.66553Z" fill="#495747"/>
<path fill-rule="evenodd" clip-rule="evenodd" d="M7.126 1.66553C7.56638 1.66553 7.92338 2.02253 7.92338 2.46291V5.65245C7.92338 6.09283 7.56638 6.44984 7.126 6.44984C6.68561 6.44984 6.32861 6.09283 6.32861 5.65245V2.46291C6.32861 2.02253 6.68561 1.66553 7.126 1.66553Z" fill="#495747"/>
<path fill-rule="evenodd" clip-rule="evenodd" d="M2.3418 8.84231C2.3418 8.40192 2.6988 8.04492 3.13918 8.04492H17.4921C17.9325 8.04492 18.2895 8.40192 18.2895 8.84231C18.2895 9.28269 17.9325 9.63969 17.4921 9.63969H3.13918C2.6988 9.63969 2.3418 9.28269 2.3418 8.84231Z" fill="#495747"/>
</svg>
