<svg width="20" height="21" viewBox="0 0 20 21" fill="none" xmlns="http://www.w3.org/2000/svg">
<path fill-rule="evenodd" clip-rule="evenodd" d="M9.927 3.25981C5.96354 3.25981 2.75053 6.47282 2.75053 10.4363C2.75053 14.3997 5.96354 17.6127 9.927 17.6127C13.8904 17.6127 17.1035 14.3997 17.1035 10.4363C17.1035 6.47282 13.8904 3.25981 9.927 3.25981ZM1.15576 10.4363C1.15576 5.59205 5.08278 1.66504 9.927 1.66504C14.7712 1.66504 18.6982 5.59205 18.6982 10.4363C18.6982 15.2805 14.7712 19.2075 9.927 19.2075C5.08278 19.2075 1.15576 15.2805 1.15576 10.4363Z" fill="#495747"/>
<path fill-rule="evenodd" clip-rule="evenodd" d="M9.92727 4.85474C10.3677 4.85474 10.7247 5.21174 10.7247 5.65212V9.94362L13.4734 11.318C13.8673 11.5149 14.027 11.9939 13.83 12.3878C13.6331 12.7817 13.1541 12.9413 12.7602 12.7444L9.57067 11.1496C9.30053 11.0146 9.12988 10.7385 9.12988 10.4364V5.65212C9.12988 5.21174 9.48688 4.85474 9.92727 4.85474Z" fill="#495747"/>
</svg>
