<svg width="18" height="19" viewBox="0 0 18 19" fill="none" xmlns="http://www.w3.org/2000/svg">
<path fill-rule="evenodd" clip-rule="evenodd" d="M8.927 2.26079C4.96354 2.26079 1.75053 5.4738 1.75053 9.43725C1.75053 13.4007 4.96354 16.6137 8.927 16.6137C12.8904 16.6137 16.1035 13.4007 16.1035 9.43725C16.1035 5.4738 12.8904 2.26079 8.927 2.26079ZM0.155762 9.43725C0.155762 4.59303 4.08278 0.666016 8.927 0.666016C13.7712 0.666016 17.6982 4.59303 17.6982 9.43725C17.6982 14.2815 13.7712 18.2085 8.927 18.2085C4.08278 18.2085 0.155762 14.2815 0.155762 9.43725Z" fill="#495747"/>
<path fill-rule="evenodd" clip-rule="evenodd" d="M8.92727 3.85547C9.36765 3.85547 9.72465 4.21247 9.72465 4.65285V8.94435L12.4734 10.3187C12.8673 10.5157 13.027 10.9946 12.83 11.3885C12.6331 11.7824 12.1541 11.9421 11.7602 11.7451L8.57067 10.1504C8.30053 10.0153 8.12988 9.73919 8.12988 9.43716V4.65285C8.12988 4.21247 8.48688 3.85547 8.92727 3.85547Z" fill="#495747"/>
</svg>
