<svg height='100px' width='100px'  fill="#495747" xmlns:dc="http://purl.org/dc/elements/1.1/" xmlns:cc="http://creativecommons.org/ns#" xmlns:rdf="http://www.w3.org/1999/02/22-rdf-syntax-ns#" xmlns:svg="http://www.w3.org/2000/svg" xmlns="http://www.w3.org/2000/svg" xmlns:sodipodi="http://sodipodi.sourceforge.net/DTD/sodipodi-0.dtd" xmlns:inkscape="http://www.inkscape.org/namespaces/inkscape" version="1.1" x="0px" y="0px" viewBox="0 0 100 100">
  <g transform="translate(0,-952.36218)">
    <path d="m 76.8701,975.49204 c -1.56215,-1.5621 -4.09479,-1.562 -5.65687,0 l -21.21326,21.2133 -21.21321,-21.2132 c -1.56206,-1.5621 -4.0947,-1.5621 -5.65685,0 -1.56215,1.5622 -1.56208,4.0948 10e-6,5.6569 l 21.21319,21.21316 -21.21313,21.2131 c -1.56207,1.5621 -1.56215,4.0947 0,5.6569 1.56214,1.5621 4.09478,1.562 5.65686,0 l 21.21313,-21.2132 21.21321,21.2132 c 1.56206,1.5621 4.0947,1.5622 5.65685,0 1.56214,-1.5621 1.56207,-4.0947 -1e-5,-5.6568 l -21.2132,-21.2132 21.21328,-21.21326 c 1.56206,-1.5621 1.56214,-4.0947 0,-5.6569 z" style="text-indent:0;text-transform:none;direction:ltr;block-progression:tb;baseline-shift:baseline;color:#495747;enable-background:accumulate;"  fill-opacity="1" marker="none" visibility="visible" display="inline" overflow="visible">
    </path>
  </g>
</svg>
