<svg width="13" height="18" viewBox="0 0 13 18" fill="none" xmlns="http://www.w3.org/2000/svg">
<path d="M5.79088 10.35C4.72724 10.35 3.66361 10.35 2.71815 10.35C2.36361 10.35 2.12724 10.35 1.7727 10.35C1.29997 10.4625 1.06361 10.125 1.18179 9.675C1.53633 8.775 1.7727 7.9875 2.12724 7.0875C2.71815 5.2875 3.42724 3.375 4.01815 1.575C4.13633 1.2375 4.3727 1.125 4.72724 1.125C6.61815 1.125 8.39088 1.125 10.2818 1.125C10.4 1.125 10.6363 1.125 10.7545 1.2375C10.8727 1.4625 10.8727 1.575 10.7545 1.8C10.1636 2.8125 9.5727 3.7125 8.98179 4.725C8.50906 5.625 7.91815 6.525 7.44543 7.425C7.44543 7.425 7.44543 7.5375 7.32724 7.65C7.44543 7.65 7.44543 7.65 7.56361 7.65C8.74543 7.65 9.92724 7.65 11.1091 7.65C11.2272 7.65 11.2272 7.65 11.3454 7.65C11.5818 7.65 11.7 7.7625 11.8182 7.875C11.9363 8.1 11.8182 8.2125 11.7 8.325C11.3454 8.775 10.8727 9.225 10.5182 9.675C8.39088 11.925 6.26361 14.2875 4.13633 16.5375C4.01815 16.7625 3.78179 16.875 3.66361 16.875C3.30906 16.9875 2.95452 16.5375 3.19088 16.2C3.30906 15.75 3.54543 15.3 3.78179 14.85C4.3727 13.3875 5.08179 12.0375 5.6727 10.575C5.6727 10.4625 5.79088 10.4625 5.79088 10.35Z" fill="white" stroke="#495747" stroke-miterlimit="10" stroke-linecap="round" stroke-linejoin="round"/>
</svg>
