<svg width="55" height="46" viewBox="0 0 55 46" fill="none" xmlns="http://www.w3.org/2000/svg">
<path d="M27.1355 6.20245C28.2864 4.70963 29.6017 3.4742 31.191 2.44467C33.712 0.797417 36.5071 0.0767466 39.6309 0.1797C43.5769 0.334129 46.92 1.72399 49.6054 4.3493C52.0168 6.66574 53.3869 9.54842 53.8802 12.74C54.757 17.9906 53.0581 22.572 49.6602 26.6901C46.5911 30.3964 42.8644 33.5365 39.0829 36.5736C35.9042 39.1989 32.6707 41.7212 29.4373 44.3465C27.7383 45.6849 26.3682 45.6849 24.6692 44.3465C20.1753 40.6917 15.6813 37.1398 11.2421 33.4335C8.39224 31.0141 5.65201 28.4403 3.45982 25.4032C0.609971 21.491 -0.595734 17.2184 0.281141 12.4826C1.21282 7.38641 4.00786 3.42272 9.1595 1.31218C14.366 -0.84983 20.2849 -0.180636 24.7789 3.83453C25.6009 4.5552 26.3134 5.37883 27.1355 6.20245Z" fill="#DCF1E1"/>
</svg>
