<svg width="20" height="26" viewBox="0 0 20 26" fill="none" xmlns="http://www.w3.org/2000/svg">
<g clip-path="url(#clip0)">
<mask id="path-1-outside-1" maskUnits="userSpaceOnUse" x="-0.421875" y="-0.386902" width="20" height="27" fill="black">
<rect fill="white" x="-0.421875" y="-0.386902" width="20" height="27"/>
<path d="M9.99773 1.46973C11.6138 1.51135 13.1507 2.17774 14.2849 3.32863C15.4313 4.40651 16.1034 5.89427 16.1542 7.46617C16.1542 7.93732 16.1542 8.41704 16.1542 8.91388V10.807H18.2206V12.8287C18.2206 16.2895 18.2206 19.7474 18.2206 23.2025C18.2394 23.3827 18.2178 23.5647 18.1572 23.7354C18.0967 23.9061 17.9987 24.0611 17.8706 24.1892C17.7424 24.3173 17.5872 24.4151 17.4163 24.4756C17.2455 24.5361 17.0633 24.5577 16.883 24.5389H2.77808C2.59779 24.5577 2.41557 24.5361 2.24471 24.4756C2.07385 24.4151 1.91867 24.3173 1.79049 24.1892C1.66231 24.0611 1.56437 23.9061 1.50382 23.7354C1.44326 23.5647 1.42162 23.3827 1.44048 23.2025V10.7728H3.49833V8.06582C3.48067 7.2334 3.6203 6.40512 3.9099 5.62441C4.21602 4.78333 4.70339 4.01974 5.33756 3.38765C5.97172 2.75557 6.73717 2.27043 7.57975 1.96658C8.34995 1.65927 9.16865 1.49105 9.99773 1.46973ZM9.99773 0.613098C9.05919 0.621726 8.12983 0.798719 7.25392 1.13564C6.30349 1.48277 5.44083 2.03394 4.72676 2.7503C4.01268 3.46667 3.46457 4.33079 3.12106 5.28175C2.78599 6.16209 2.62299 7.09845 2.64089 8.04012V9.89045H1.27756C0.763099 9.89045 0.583037 10.0703 0.583037 10.5929V23.1683C0.562722 23.4615 0.605572 23.7556 0.708699 24.0309C0.811825 24.3062 0.97283 24.5562 1.18086 24.764C1.38888 24.9718 1.6391 25.1327 1.91463 25.2357C2.19015 25.3387 2.48459 25.3816 2.77808 25.3613H16.9344C17.2279 25.3816 17.5224 25.3387 17.7979 25.2357C18.0734 25.1327 18.3236 24.9718 18.5316 24.764C18.7397 24.5562 18.9007 24.3062 19.0038 24.0309C19.1069 23.7556 19.1498 23.4615 19.1295 23.1683C19.1295 18.9879 19.1295 14.8047 19.1295 10.6186C19.1295 10.0875 18.9494 9.91615 18.4092 9.91615H17.0716V9.55636C17.0716 8.82822 17.0716 8.10008 17.0716 7.38051C16.9995 5.60993 16.2325 3.93891 14.9366 2.72898C13.6357 1.39818 11.8595 0.637242 9.99773 0.613098Z"/>
<path d="M9.29463 21.6777H8.92593C8.77743 21.6837 8.62938 21.6577 8.49181 21.6016C8.35423 21.5454 8.23034 21.4604 8.12851 21.3522C8.0338 21.2327 7.96507 21.0949 7.92668 20.9474C7.8883 20.7999 7.88111 20.646 7.90558 20.4956L7.9999 19.6903C8.05992 19.1164 8.11994 18.5424 8.18853 17.9771C7.93451 17.7312 7.73233 17.4371 7.59391 17.1119C7.45548 16.7868 7.38361 16.4372 7.38254 16.0839C7.38478 15.7521 7.45519 15.4242 7.58941 15.1207C7.72362 14.8172 7.91879 14.5444 8.16281 14.3192C8.41247 14.0918 8.70453 13.9157 9.02232 13.8011C9.3401 13.6864 9.67737 13.6355 10.0149 13.6511C10.3542 13.6752 10.6851 13.7681 10.9874 13.9242C11.2896 14.0804 11.5568 14.2964 11.7726 14.5591C12.173 15.0391 12.3755 15.6533 12.3388 16.2771C12.3022 16.9008 12.0292 17.4872 11.5754 17.9171L11.5325 18.0285C11.6011 18.5853 11.6697 19.1507 11.7298 19.7417L11.8155 20.547C11.8483 20.6964 11.8455 20.8514 11.8073 20.9996C11.7691 21.1477 11.6966 21.2849 11.5957 21.3999C11.4947 21.5149 11.3681 21.6046 11.2261 21.6618C11.0841 21.719 10.9306 21.7421 10.778 21.7291C10.5636 21.7291 10.3493 21.7291 10.1349 21.7291H9.29463V21.6777ZM9.86054 14.4734C9.4484 14.4752 9.05259 14.6346 8.75444 14.9189C8.59125 15.064 8.46094 15.2422 8.37222 15.4416C8.2835 15.6411 8.23842 15.8571 8.23998 16.0753C8.23923 16.3018 8.2853 16.526 8.37531 16.7338C8.46531 16.9417 8.5973 17.1287 8.76302 17.2832C8.87511 17.3802 8.96011 17.5046 9.00971 17.6442C9.0593 17.7839 9.0718 17.934 9.04597 18.0799C8.97738 18.6452 8.90878 19.2106 8.84876 19.7931L8.76302 20.6069C8.74841 20.6689 8.74841 20.7334 8.76302 20.7954C8.76302 20.7954 8.81446 20.7954 8.93451 20.7954C9.05455 20.7954 9.34608 20.7954 9.55186 20.7954H10.1521C10.3664 20.7954 10.5722 20.7954 10.778 20.7954C10.9838 20.7954 10.9666 20.7954 10.9666 20.7954C10.9826 20.7336 10.9826 20.6687 10.9666 20.6069L10.8723 19.7931C10.8123 19.2278 10.7523 18.6709 10.6837 18.0799C10.655 17.9233 10.6675 17.762 10.7202 17.6118C10.7728 17.4616 10.8636 17.3277 10.9838 17.2232C11.2816 16.9455 11.4617 16.5645 11.4872 16.1583C11.5127 15.7521 11.3817 15.3515 11.121 15.0388C10.9774 14.8651 10.8 14.7224 10.5996 14.6193C10.3991 14.5162 10.1798 14.455 9.95486 14.4392L9.86054 14.4734ZM14.4393 10.3359H5.30753V8.89675C5.30753 8.46843 5.30753 8.04012 5.30753 7.59467C5.36457 6.56336 5.77318 5.58263 6.46546 4.8155C7.15773 4.04838 8.09196 3.54107 9.11283 3.37793C10.1337 3.21478 11.1797 3.40563 12.077 3.91873C12.9742 4.43183 13.6687 5.23629 14.0448 6.19835C14.2553 6.73357 14.3881 7.29606 14.4393 7.86879C14.4393 8.3485 14.4393 8.82822 14.4393 9.29937C14.4393 9.49639 14.4393 9.70199 14.4393 9.90758V10.3359ZM6.19927 9.47926H13.5818V9.28224C13.5818 8.81109 13.5818 8.3742 13.5818 7.93732C13.5562 7.4481 13.4668 6.96431 13.316 6.49817C13.0068 5.72041 12.4411 5.0714 11.7125 4.65847C10.9839 4.24553 10.136 4.09342 9.30912 4.22727C8.48223 4.36113 7.72584 4.77294 7.16504 5.3946C6.60423 6.01626 6.2726 6.81053 6.22499 7.64606C6.22499 8.05725 6.22499 8.5027 6.22499 8.89675L6.19927 9.47926Z"/>
</mask>
<path d="M9.99773 1.46973C11.6138 1.51135 13.1507 2.17774 14.2849 3.32863C15.4313 4.40651 16.1034 5.89427 16.1542 7.46617C16.1542 7.93732 16.1542 8.41704 16.1542 8.91388V10.807H18.2206V12.8287C18.2206 16.2895 18.2206 19.7474 18.2206 23.2025C18.2394 23.3827 18.2178 23.5647 18.1572 23.7354C18.0967 23.9061 17.9987 24.0611 17.8706 24.1892C17.7424 24.3173 17.5872 24.4151 17.4163 24.4756C17.2455 24.5361 17.0633 24.5577 16.883 24.5389H2.77808C2.59779 24.5577 2.41557 24.5361 2.24471 24.4756C2.07385 24.4151 1.91867 24.3173 1.79049 24.1892C1.66231 24.0611 1.56437 23.9061 1.50382 23.7354C1.44326 23.5647 1.42162 23.3827 1.44048 23.2025V10.7728H3.49833V8.06582C3.48067 7.2334 3.6203 6.40512 3.9099 5.62441C4.21602 4.78333 4.70339 4.01974 5.33756 3.38765C5.97172 2.75557 6.73717 2.27043 7.57975 1.96658C8.34995 1.65927 9.16865 1.49105 9.99773 1.46973ZM9.99773 0.613098C9.05919 0.621726 8.12983 0.798719 7.25392 1.13564C6.30349 1.48277 5.44083 2.03394 4.72676 2.7503C4.01268 3.46667 3.46457 4.33079 3.12106 5.28175C2.78599 6.16209 2.62299 7.09845 2.64089 8.04012V9.89045H1.27756C0.763099 9.89045 0.583037 10.0703 0.583037 10.5929V23.1683C0.562722 23.4615 0.605572 23.7556 0.708699 24.0309C0.811825 24.3062 0.97283 24.5562 1.18086 24.764C1.38888 24.9718 1.6391 25.1327 1.91463 25.2357C2.19015 25.3387 2.48459 25.3816 2.77808 25.3613H16.9344C17.2279 25.3816 17.5224 25.3387 17.7979 25.2357C18.0734 25.1327 18.3236 24.9718 18.5316 24.764C18.7397 24.5562 18.9007 24.3062 19.0038 24.0309C19.1069 23.7556 19.1498 23.4615 19.1295 23.1683C19.1295 18.9879 19.1295 14.8047 19.1295 10.6186C19.1295 10.0875 18.9494 9.91615 18.4092 9.91615H17.0716V9.55636C17.0716 8.82822 17.0716 8.10008 17.0716 7.38051C16.9995 5.60993 16.2325 3.93891 14.9366 2.72898C13.6357 1.39818 11.8595 0.637242 9.99773 0.613098Z" fill="#495747"/>
<path d="M9.29463 21.6777H8.92593C8.77743 21.6837 8.62938 21.6577 8.49181 21.6016C8.35423 21.5454 8.23034 21.4604 8.12851 21.3522C8.0338 21.2327 7.96507 21.0949 7.92668 20.9474C7.8883 20.7999 7.88111 20.646 7.90558 20.4956L7.9999 19.6903C8.05992 19.1164 8.11994 18.5424 8.18853 17.9771C7.93451 17.7312 7.73233 17.4371 7.59391 17.1119C7.45548 16.7868 7.38361 16.4372 7.38254 16.0839C7.38478 15.7521 7.45519 15.4242 7.58941 15.1207C7.72362 14.8172 7.91879 14.5444 8.16281 14.3192C8.41247 14.0918 8.70453 13.9157 9.02232 13.8011C9.3401 13.6864 9.67737 13.6355 10.0149 13.6511C10.3542 13.6752 10.6851 13.7681 10.9874 13.9242C11.2896 14.0804 11.5568 14.2964 11.7726 14.5591C12.173 15.0391 12.3755 15.6533 12.3388 16.2771C12.3022 16.9008 12.0292 17.4872 11.5754 17.9171L11.5325 18.0285C11.6011 18.5853 11.6697 19.1507 11.7298 19.7417L11.8155 20.547C11.8483 20.6964 11.8455 20.8514 11.8073 20.9996C11.7691 21.1477 11.6966 21.2849 11.5957 21.3999C11.4947 21.5149 11.3681 21.6046 11.2261 21.6618C11.0841 21.719 10.9306 21.7421 10.778 21.7291C10.5636 21.7291 10.3493 21.7291 10.1349 21.7291H9.29463V21.6777ZM9.86054 14.4734C9.4484 14.4752 9.05259 14.6346 8.75444 14.9189C8.59125 15.064 8.46094 15.2422 8.37222 15.4416C8.2835 15.6411 8.23842 15.8571 8.23998 16.0753C8.23923 16.3018 8.2853 16.526 8.37531 16.7338C8.46531 16.9417 8.5973 17.1287 8.76302 17.2832C8.87511 17.3802 8.96011 17.5046 9.00971 17.6442C9.0593 17.7839 9.0718 17.934 9.04597 18.0799C8.97738 18.6452 8.90878 19.2106 8.84876 19.7931L8.76302 20.6069C8.74841 20.6689 8.74841 20.7334 8.76302 20.7954C8.76302 20.7954 8.81446 20.7954 8.93451 20.7954C9.05455 20.7954 9.34608 20.7954 9.55186 20.7954H10.1521C10.3664 20.7954 10.5722 20.7954 10.778 20.7954C10.9838 20.7954 10.9666 20.7954 10.9666 20.7954C10.9826 20.7336 10.9826 20.6687 10.9666 20.6069L10.8723 19.7931C10.8123 19.2278 10.7523 18.6709 10.6837 18.0799C10.655 17.9233 10.6675 17.762 10.7202 17.6118C10.7728 17.4616 10.8636 17.3277 10.9838 17.2232C11.2816 16.9455 11.4617 16.5645 11.4872 16.1583C11.5127 15.7521 11.3817 15.3515 11.121 15.0388C10.9774 14.8651 10.8 14.7224 10.5996 14.6193C10.3991 14.5162 10.1798 14.455 9.95486 14.4392L9.86054 14.4734ZM14.4393 10.3359H5.30753V8.89675C5.30753 8.46843 5.30753 8.04012 5.30753 7.59467C5.36457 6.56336 5.77318 5.58263 6.46546 4.8155C7.15773 4.04838 8.09196 3.54107 9.11283 3.37793C10.1337 3.21478 11.1797 3.40563 12.077 3.91873C12.9742 4.43183 13.6687 5.23629 14.0448 6.19835C14.2553 6.73357 14.3881 7.29606 14.4393 7.86879C14.4393 8.3485 14.4393 8.82822 14.4393 9.29937C14.4393 9.49639 14.4393 9.70199 14.4393 9.90758V10.3359ZM6.19927 9.47926H13.5818V9.28224C13.5818 8.81109 13.5818 8.3742 13.5818 7.93732C13.5562 7.4481 13.4668 6.96431 13.316 6.49817C13.0068 5.72041 12.4411 5.0714 11.7125 4.65847C10.9839 4.24553 10.136 4.09342 9.30912 4.22727C8.48223 4.36113 7.72584 4.77294 7.16504 5.3946C6.60423 6.01626 6.2726 6.81053 6.22499 7.64606C6.22499 8.05725 6.22499 8.5027 6.22499 8.89675L6.19927 9.47926Z" fill="#495747"/>
<path d="M9.99773 1.46973C11.6138 1.51135 13.1507 2.17774 14.2849 3.32863C15.4313 4.40651 16.1034 5.89427 16.1542 7.46617C16.1542 7.93732 16.1542 8.41704 16.1542 8.91388V10.807H18.2206V12.8287C18.2206 16.2895 18.2206 19.7474 18.2206 23.2025C18.2394 23.3827 18.2178 23.5647 18.1572 23.7354C18.0967 23.9061 17.9987 24.0611 17.8706 24.1892C17.7424 24.3173 17.5872 24.4151 17.4163 24.4756C17.2455 24.5361 17.0633 24.5577 16.883 24.5389H2.77808C2.59779 24.5577 2.41557 24.5361 2.24471 24.4756C2.07385 24.4151 1.91867 24.3173 1.79049 24.1892C1.66231 24.0611 1.56437 23.9061 1.50382 23.7354C1.44326 23.5647 1.42162 23.3827 1.44048 23.2025V10.7728H3.49833V8.06582C3.48067 7.2334 3.6203 6.40512 3.9099 5.62441C4.21602 4.78333 4.70339 4.01974 5.33756 3.38765C5.97172 2.75557 6.73717 2.27043 7.57975 1.96658C8.34995 1.65927 9.16865 1.49105 9.99773 1.46973ZM9.99773 0.613098C9.05919 0.621726 8.12983 0.798719 7.25392 1.13564C6.30349 1.48277 5.44083 2.03394 4.72676 2.7503C4.01268 3.46667 3.46457 4.33079 3.12106 5.28175C2.78599 6.16209 2.62299 7.09845 2.64089 8.04012V9.89045H1.27756C0.763099 9.89045 0.583037 10.0703 0.583037 10.5929V23.1683C0.562722 23.4615 0.605572 23.7556 0.708699 24.0309C0.811825 24.3062 0.97283 24.5562 1.18086 24.764C1.38888 24.9718 1.6391 25.1327 1.91463 25.2357C2.19015 25.3387 2.48459 25.3816 2.77808 25.3613H16.9344C17.2279 25.3816 17.5224 25.3387 17.7979 25.2357C18.0734 25.1327 18.3236 24.9718 18.5316 24.764C18.7397 24.5562 18.9007 24.3062 19.0038 24.0309C19.1069 23.7556 19.1498 23.4615 19.1295 23.1683C19.1295 18.9879 19.1295 14.8047 19.1295 10.6186C19.1295 10.0875 18.9494 9.91615 18.4092 9.91615H17.0716V9.55636C17.0716 8.82822 17.0716 8.10008 17.0716 7.38051C16.9995 5.60993 16.2325 3.93891 14.9366 2.72898C13.6357 1.39818 11.8595 0.637242 9.99773 0.613098Z" stroke="#495747" stroke-width="0.742857" mask="url(#path-1-outside-1)"/>
<path d="M9.29463 21.6777H8.92593C8.77743 21.6837 8.62938 21.6577 8.49181 21.6016C8.35423 21.5454 8.23034 21.4604 8.12851 21.3522C8.0338 21.2327 7.96507 21.0949 7.92668 20.9474C7.8883 20.7999 7.88111 20.646 7.90558 20.4956L7.9999 19.6903C8.05992 19.1164 8.11994 18.5424 8.18853 17.9771C7.93451 17.7312 7.73233 17.4371 7.59391 17.1119C7.45548 16.7868 7.38361 16.4372 7.38254 16.0839C7.38478 15.7521 7.45519 15.4242 7.58941 15.1207C7.72362 14.8172 7.91879 14.5444 8.16281 14.3192C8.41247 14.0918 8.70453 13.9157 9.02232 13.8011C9.3401 13.6864 9.67737 13.6355 10.0149 13.6511C10.3542 13.6752 10.6851 13.7681 10.9874 13.9242C11.2896 14.0804 11.5568 14.2964 11.7726 14.5591C12.173 15.0391 12.3755 15.6533 12.3388 16.2771C12.3022 16.9008 12.0292 17.4872 11.5754 17.9171L11.5325 18.0285C11.6011 18.5853 11.6697 19.1507 11.7298 19.7417L11.8155 20.547C11.8483 20.6964 11.8455 20.8514 11.8073 20.9996C11.7691 21.1477 11.6966 21.2849 11.5957 21.3999C11.4947 21.5149 11.3681 21.6046 11.2261 21.6618C11.0841 21.719 10.9306 21.7421 10.778 21.7291C10.5636 21.7291 10.3493 21.7291 10.1349 21.7291H9.29463V21.6777ZM9.86054 14.4734C9.4484 14.4752 9.05259 14.6346 8.75444 14.9189C8.59125 15.064 8.46094 15.2422 8.37222 15.4416C8.2835 15.6411 8.23842 15.8571 8.23998 16.0753C8.23923 16.3018 8.2853 16.526 8.37531 16.7338C8.46531 16.9417 8.5973 17.1287 8.76302 17.2832C8.87511 17.3802 8.96011 17.5046 9.00971 17.6442C9.0593 17.7839 9.0718 17.934 9.04597 18.0799C8.97738 18.6452 8.90878 19.2106 8.84876 19.7931L8.76302 20.6069C8.74841 20.6689 8.74841 20.7334 8.76302 20.7954C8.76302 20.7954 8.81446 20.7954 8.93451 20.7954C9.05455 20.7954 9.34608 20.7954 9.55186 20.7954H10.1521C10.3664 20.7954 10.5722 20.7954 10.778 20.7954C10.9838 20.7954 10.9666 20.7954 10.9666 20.7954C10.9826 20.7336 10.9826 20.6687 10.9666 20.6069L10.8723 19.7931C10.8123 19.2278 10.7523 18.6709 10.6837 18.0799C10.655 17.9233 10.6675 17.762 10.7202 17.6118C10.7728 17.4616 10.8636 17.3277 10.9838 17.2232C11.2816 16.9455 11.4617 16.5645 11.4872 16.1583C11.5127 15.7521 11.3817 15.3515 11.121 15.0388C10.9774 14.8651 10.8 14.7224 10.5996 14.6193C10.3991 14.5162 10.1798 14.455 9.95486 14.4392L9.86054 14.4734ZM14.4393 10.3359H5.30753V8.89675C5.30753 8.46843 5.30753 8.04012 5.30753 7.59467C5.36457 6.56336 5.77318 5.58263 6.46546 4.8155C7.15773 4.04838 8.09196 3.54107 9.11283 3.37793C10.1337 3.21478 11.1797 3.40563 12.077 3.91873C12.9742 4.43183 13.6687 5.23629 14.0448 6.19835C14.2553 6.73357 14.3881 7.29606 14.4393 7.86879C14.4393 8.3485 14.4393 8.82822 14.4393 9.29937C14.4393 9.49639 14.4393 9.70199 14.4393 9.90758V10.3359ZM6.19927 9.47926H13.5818V9.28224C13.5818 8.81109 13.5818 8.3742 13.5818 7.93732C13.5562 7.4481 13.4668 6.96431 13.316 6.49817C13.0068 5.72041 12.4411 5.0714 11.7125 4.65847C10.9839 4.24553 10.136 4.09342 9.30912 4.22727C8.48223 4.36113 7.72584 4.77294 7.16504 5.3946C6.60423 6.01626 6.2726 6.81053 6.22499 7.64606C6.22499 8.05725 6.22499 8.5027 6.22499 8.89675L6.19927 9.47926Z" stroke="#495747" stroke-width="0.742857" mask="url(#path-1-outside-1)"/>
</g>
<defs>
<clipPath id="clip0">
<rect width="19.8095" height="26" fill="white"/>
</clipPath>
</defs>
</svg>
