<svg width="41" height="45" viewBox="0 0 41 45" fill="none" xmlns="http://www.w3.org/2000/svg">
<g clip-path="url(#clip0)">
<path d="M7.49998 44.2C6.79998 44.2 6.09998 43.7 5.99998 43.1L-1.5121e-05 16.1C-0.100015 15.7 -1.51247e-05 15.4 0.199985 15.1C0.399985 14.8 0.799985 14.5 1.19998 14.5L13.7 12.3C13.8 12.3 13.9 12.3 13.9 12.2L22.4 6.9C22.7 6.7 23.2 6.6 23.6 6.7L33.7 8.5C34.3 8.6 34.8 9 34.9 9.6L40.4 34.5C40.5 34.9 40.4 35.3 40.1 35.6C39.8 36 39.4 36.2 38.9 36.2L30 36.3C29.9 36.3 29.8 36.3 29.7 36.4L21 41.8C20.8 41.9 20.6 42 20.4 42L7.79998 44.2C7.69999 44.2 7.59998 44.2 7.49998 44.2ZM23.4 7.5C23.3 7.5 23.1 7.5 23 7.6L14.5 12.9C14.3 13 14.1 13.1 13.9 13.1L1.39998 15.3C1.19998 15.3 1.09998 15.4 0.999985 15.5C0.999985 15.6 0.899985 15.7 0.899985 15.8L6.79998 42.8C6.89998 43.1 7.19998 43.2 7.49998 43.2L20.2 41C20.3 41 20.4 41 20.4 40.9L29.1 35.5C29.3 35.3 29.6 35.3 29.9 35.3L39 35.2C39.2 35.2 39.4 35.1 39.5 35C39.6 34.9 39.6 34.8 39.6 34.7L34.1 9.7C34.1 9.5 33.9 9.4 33.6 9.3L23.5 7.5H23.4Z" fill="#495747"/>
<path d="M23.1904 7.07775L22.3131 7.27863L28.8975 36.0352L29.7748 35.8343L23.1904 7.07775Z" fill="#495747"/>
<path d="M14.5342 12.4954L13.6512 12.6696L19.3818 41.7102L20.2648 41.5359L14.5342 12.4954Z" fill="#495747"/>
<path d="M11.8 39.7C11.6 39.7 11.4 39.5 11.3 39.3C11.3 39.3 11.3 38.9 11.2 38.3C11.2 38 11.4 37.8 11.7 37.8C12 37.8 12.2 38 12.2 38.3C12.2 38.9 12.3 39.2 12.3 39.2C12.3 39.5 12.1 39.7 11.8 39.7Z" fill="#495747"/>
<path d="M11.7 36.7999C11.4 36.7999 11.2 36.5999 11.2 36.2999C11.2 35.5999 11.3 34.9999 11.3 34.2999C11.3 33.9999 11.6 33.9 11.8 33.9C12.1 33.9 12.2 34.1999 12.2 34.4C12.1 35 12.1 35.6999 12.1 36.2999C12.2 36.5999 12 36.7999 11.7 36.7999ZM12.2 32.9999C12.1 32.9999 12.1 32.9999 12.2 32.9999C11.9 32.8999 11.7 32.6999 11.7 32.4C11.8 31.7 12 31.0999 12.2 30.4999C12.3 30.1999 12.5 30.0999 12.8 30.1999C13 30.2999 13.2 30.4999 13.1 30.7999C12.9 31.3999 12.8 31.9999 12.6 32.6999C12.6 32.7999 12.4 32.9999 12.2 32.9999ZM13.3 29.1999C13.2 29.1999 13.2 29.1999 13.1 29.1999C12.9 29.0999 12.8 28.7999 12.9 28.5999C13.2 27.9999 13.5 27.3999 13.8 26.7999C13.9 26.5999 14.2 26.4999 14.5 26.5999C14.7 26.6999 14.8 26.9999 14.7 27.2999C14.4 27.7999 14.1 28.3999 13.8 28.9999C13.6 29.0999 13.5 29.1999 13.3 29.1999ZM15.4 25.8999C15.3 25.8999 15.2 25.8999 15.1 25.7999C14.9 25.5999 14.9 25.2999 15.1 25.0999C15.6 24.5999 16.1 24.0999 16.6 23.6999C16.8 23.4999 17.1 23.5999 17.3 23.7999C17.5 23.9999 17.4 24.2999 17.2 24.4999C16.7 24.8999 16.3 25.2999 15.8 25.7999C15.6 25.8999 15.5 25.8999 15.4 25.8999ZM18.4 23.5999C18.2 23.5999 18.1 23.4999 18 23.2999C17.9 23.0999 18 22.7999 18.2 22.6999C18.5 22.5999 18.7 22.4999 19 22.2999C19.4 22.1999 19.7 21.9999 20 21.8999C20.2 21.7999 20.5 21.8999 20.6 22.1999C20.7 22.3999 20.6 22.6999 20.3 22.7999C20 22.8999 19.6 23.0999 19.3 23.1999C19.1 23.2999 18.8 23.3999 18.6 23.4999C18.6 23.4999 18.5 23.5999 18.4 23.5999ZM22 22.0999C21.8 22.0999 21.6 21.9999 21.6 21.7999C21.5 21.5999 21.6 21.2999 21.9 21.1999C22.6 20.8999 23.2 20.6999 23.7 20.4999C23.9 20.3999 24.2 20.4999 24.3 20.7999C24.4 20.9999 24.3 21.2999 24 21.3999C23.4 21.5999 22.8 21.8999 22.2 22.0999C22.1 21.9999 22.1 22.0999 22 22.0999ZM25.6 20.4999C25.4 20.4999 25.3 20.3999 25.2 20.1999C25.1 19.9999 25.2 19.6999 25.4 19.5999C26.1 19.2999 26.6 18.9999 27.1 18.6999C27.3 18.5999 27.6 18.5999 27.8 18.8999C27.9 19.0999 27.9 19.3999 27.6 19.4999C27.1 19.7999 26.5 20.0999 25.8 20.3999C25.8 20.4999 25.7 20.4999 25.6 20.4999ZM28.9 18.3999C28.8 18.3999 28.7 18.3999 28.6 18.2999C28.4 18.0999 28.4 17.7999 28.6 17.5999C29 17.1999 29.3 16.6999 29.6 16.0999C29.7 15.8999 30 15.7999 30.2 15.8999C30.4 15.9999 30.5 16.2999 30.4 16.4999C30.1 17.1999 29.7 17.6999 29.2 18.1999C29.1 18.3999 29 18.3999 28.9 18.3999Z" fill="#495747"/>
<path d="M30.7 15H30.6C30.4 14.9 30.2 14.7 30.3 14.4C30.4 14.1 30.5 13.8 30.6 13.5C30.7 13.2 30.9 13.1 31.2 13.2C31.5 13.3 31.6 13.5 31.5 13.8C31.4 14.1 31.3 14.4 31.2 14.7C31.1 14.9 30.9 15 30.7 15Z" fill="#495747"/>
<path d="M31 0C29.8 0 25.5 0.6 25.5 5.9C25.5 9.6 29.2 12.9 30.5 13.9C30.8 14.1 31.1 14.1 31.4 13.9C32.7 12.9 36.4 9.6 36.4 5.9C36.4 0.6 32.1 0 31 0ZM31.3 6.5C30.1 6.7 29.1 5.7 29.4 4.6C29.5 4 30 3.4 30.6 3.3C31.8 3.1 32.8 4.1 32.5 5.2C32.5 5.9 31.9 6.4 31.3 6.5Z" fill="#AFD0B8"/>
</g>
<defs>
<clipPath id="clip0">
<rect width="40.6" height="44.2" fill="white"/>
</clipPath>
</defs>
</svg>
