<svg width="22" height="27" viewBox="0 0 22 27" fill="none" xmlns="http://www.w3.org/2000/svg">
<path d="M11.1009 0C8.6789 0 0 1.15302 0 11.3381C0 18.4484 7.46789 24.79 10.0917 26.7117C10.6972 27.0961 11.3028 27.0961 11.9083 26.7117C14.5321 24.79 22 18.4484 22 11.3381C22 1.15302 13.3211 0 11.1009 0ZM11.7064 12.4911C9.2844 12.8754 7.26605 10.9537 7.87156 8.83986C8.07339 7.68683 9.08257 6.53381 10.2936 6.34164C12.7156 5.9573 14.7339 7.879 14.1284 9.99288C14.1284 11.3381 12.9174 12.2989 11.7064 12.4911Z" fill="#AFD0B8"/>
</svg>
