<svg width="23" height="19" viewBox="0 0 23 19" fill="none" xmlns="http://www.w3.org/2000/svg">
<path d="M15.3149 14.8934C14.9832 14.8934 14.762 15.1124 14.762 15.4409V16.9193C14.762 17.4669 14.4303 17.9049 14.0433 17.9049H1.82452C1.4375 17.9049 1.10577 17.4669 1.10577 16.9193V2.08069C1.10577 1.53314 1.4375 1.0951 1.82452 1.0951H14.0986C14.4856 1.0951 14.8173 1.53314 14.8173 2.08069V3.44957C14.8173 3.7781 15.0385 3.99712 15.3702 3.99712C15.7019 3.99712 15.9231 3.7781 15.9231 3.44957V2.08069C15.9231 0.930836 15.0938 0 14.0986 0H1.82452C0.829327 0 0 0.930836 0 2.08069V16.9193C0 18.0692 0.829327 19 1.82452 19H14.0986C15.0938 19 15.9231 18.0692 15.9231 16.9193V15.4409C15.8678 15.1124 15.6466 14.8934 15.3149 14.8934Z" fill="#495747"/>
<path d="M22.8342 9.08933L18.0241 4.32564C17.8029 4.10662 17.4712 4.10662 17.25 4.32564C17.0289 4.54466 17.0289 4.87319 17.25 5.09221L21.1202 8.92506H8.56973C8.238 8.92506 8.01685 9.14408 8.01685 9.47262C8.01685 9.80115 8.238 10.0202 8.56973 10.0202H21.0649L17.1947 13.853C16.9736 14.072 16.9736 14.4006 17.1947 14.6196C17.3053 14.7291 17.4712 14.7839 17.5817 14.7839C17.6923 14.7839 17.8582 14.7291 17.9688 14.6196L22.7789 9.8559C22.8894 9.74639 22.9447 9.63688 22.9447 9.47262C22.9447 9.30835 22.9447 9.19884 22.8342 9.08933Z" fill="#495747"/>
</svg>
