<svg width="32" height="40" viewBox="0 0 32 40" fill="none" xmlns="http://www.w3.org/2000/svg">
<g >
<path d="M24.968 39.8224C24.879 39.8224 24.7454 39.8224 24.6564 39.778L4.71762 36.404C3.69398 36.2264 3.02638 35.2497 3.1599 34.2286L8.32263 3.99556C8.41164 3.50721 8.67868 3.06326 9.07923 2.79689C9.47979 2.48612 9.96936 2.39733 10.5034 2.48612L30.4422 5.86015C31.4659 6.03773 32.1335 7.01443 32 8.03552L26.7927 38.2686C26.6592 39.2009 25.8581 39.8224 24.968 39.8224ZM10.1919 3.28524C9.96936 3.28524 9.79133 3.32963 9.61331 3.46282C9.39078 3.596 9.25726 3.86237 9.21275 4.08435L4.05003 34.4062C3.96101 34.939 4.31706 35.4717 4.85114 35.5605L24.7899 38.9345C25.324 39.0233 25.8581 38.6681 25.9471 38.1354L31.1098 7.85793C31.1988 7.32519 30.8428 6.79245 30.3087 6.70366L10.3699 3.32963C10.3254 3.28524 10.2364 3.28524 10.1919 3.28524Z" fill="#495747"/>
<path d="M24.1224 3.06402C23.6773 2.97522 23.3213 2.62006 23.2768 2.17611C23.1433 1.11063 22.2977 0.178333 21.185 0.00075252C20.0723 -0.176828 19.0042 0.400309 18.5146 1.377C18.2921 1.77656 17.847 1.99853 17.402 1.90974L16.4228 1.77656C15.9333 1.68777 15.4882 1.99853 15.3992 2.48688L14.9541 5.19498C14.8651 5.68333 15.1767 6.12728 15.6662 6.21607L24.3894 7.68111C24.879 7.7699 25.3241 7.45913 25.4131 6.97079L25.8582 4.26268C25.9472 3.77434 25.6356 3.33039 25.1461 3.2416L24.1224 3.06402Z" fill="#AFD0B8"/>
<path d="M20.8734 2.35294C21.1437 2.35294 21.3629 2.1343 21.3629 1.8646C21.3629 1.59489 21.1437 1.37625 20.8734 1.37625C20.603 1.37625 20.3838 1.59489 20.3838 1.8646C20.3838 2.1343 20.603 2.35294 20.8734 2.35294Z" fill="white"/>
<path d="M28.6621 11.2764C28.6176 11.2764 28.6176 11.2764 28.5731 11.2764L10.4146 8.16871C10.192 8.12431 10.014 7.90234 10.0585 7.63597C10.103 7.41399 10.3255 7.23641 10.5926 7.2808L28.7511 10.3885C28.9737 10.4329 29.1517 10.6548 29.1072 10.9212C29.0627 11.1432 28.8847 11.2764 28.6621 11.2764Z" fill="#495747"/>
<path d="M26.6148 23.3962C26.5702 23.3962 26.5702 23.3962 26.5257 23.3962L8.36719 20.2886C8.14466 20.2442 7.96663 20.0222 8.01114 19.7558C8.05564 19.5339 8.27818 19.3563 8.54521 19.4007L26.7038 22.5083C26.9263 22.5527 27.1043 22.7747 27.0598 23.0411C27.0153 23.2187 26.7928 23.3962 26.6148 23.3962Z" fill="#495747"/>
<path d="M24.523 35.5161C24.4785 35.5161 24.4785 35.5161 24.4339 35.5161L6.27539 32.4084C6.05286 32.364 5.87483 32.1421 5.91934 31.8757C5.96385 31.6537 6.18638 31.4761 6.45342 31.5205L24.612 34.6282C24.8345 34.6726 25.0125 34.8945 24.968 35.1609C24.9235 35.3385 24.7455 35.5161 24.523 35.5161Z" fill="#495747"/>
<path d="M21.8081 14.2508C21.7636 14.2508 21.7636 14.2508 21.7191 14.2508L9.74695 12.2087C9.52442 12.1643 9.34639 11.9423 9.3909 11.6759C9.43541 11.4539 9.65794 11.2764 9.92497 11.3208L21.8972 13.3629C22.1197 13.4073 22.2977 13.6293 22.2532 13.8957C22.2087 14.1176 22.0307 14.2508 21.8081 14.2508Z" fill="#495747"/>
<path d="M27.9945 15.3163C27.95 15.3163 27.95 15.3163 27.9055 15.3163L23.3658 14.5616C23.1433 14.5172 22.9653 14.2952 23.0098 14.0288C23.0543 13.8069 23.2768 13.6293 23.5439 13.6737L28.039 14.4284C28.2615 14.4728 28.4396 14.6948 28.3951 14.9611C28.3951 15.1831 28.1725 15.3163 27.9945 15.3163Z" fill="#495747"/>
<path d="M11.9723 16.7369C11.9277 16.7369 11.9277 16.7369 11.8832 16.7369L9.07935 16.2486C8.85681 16.2042 8.67879 15.9822 8.7233 15.7159C8.7678 15.4939 8.99033 15.3163 9.25737 15.3607L12.0613 15.849C12.2838 15.8934 12.4618 16.1154 12.4173 16.3818C12.3728 16.6038 12.1503 16.7369 11.9723 16.7369Z" fill="#495747"/>
<path d="M27.2824 19.3562C27.2379 19.3562 27.2379 19.3562 27.1934 19.3562L13.619 17.0477C13.3965 17.0033 13.2185 16.7813 13.263 16.515C13.3075 16.293 13.53 16.1154 13.797 16.1598L27.3715 18.4683C27.594 18.5127 27.772 18.7347 27.7275 19.0011C27.683 19.2231 27.505 19.3562 27.2824 19.3562Z" fill="#495747"/>
<path d="M19.7163 26.3707C19.6718 26.3707 19.6718 26.3707 19.6273 26.3707L7.65515 24.3285C7.43262 24.2841 7.2546 24.0622 7.2991 23.7958C7.34361 23.5738 7.56614 23.3962 7.83318 23.4406L19.8054 25.4828C20.0279 25.5272 20.2059 25.7492 20.1614 26.0155C20.1169 26.2375 19.9389 26.3707 19.7163 26.3707Z" fill="#495747"/>
<path d="M25.9027 27.4362C25.8582 27.4362 25.8582 27.4362 25.8137 27.4362L21.274 26.6371C21.0515 26.5927 20.8735 26.3707 20.918 26.1043C20.9625 25.8823 21.185 25.7048 21.4521 25.7492L25.9917 26.5039C26.2142 26.5483 26.3923 26.7702 26.3478 27.0366C26.3033 27.2586 26.1252 27.4362 25.9027 27.4362Z" fill="#495747"/>
<path d="M9.88046 28.8568C9.83595 28.8568 9.83595 28.8568 9.79144 28.8568L6.98755 28.3685C6.76502 28.3241 6.58699 28.1021 6.6315 27.8357C6.67601 27.6138 6.89854 27.4362 7.16557 27.4806L9.96947 27.9689C10.192 28.0133 10.37 28.2353 10.3255 28.5017C10.281 28.6792 10.103 28.8568 9.88046 28.8568Z" fill="#495747"/>
<path d="M25.2351 31.4761C25.1906 31.4761 25.1906 31.4761 25.1461 31.4761L11.5717 29.1676C11.3491 29.1232 11.1711 28.9012 11.2156 28.6348C11.2601 28.4129 11.4826 28.2353 11.7497 28.2797L25.3241 30.5882C25.5466 30.6326 25.7246 30.8546 25.6801 31.121C25.6356 31.2985 25.4131 31.4761 25.2351 31.4761Z" fill="#495747"/>
<path d="M2.93742 20.5549L1.95828 19.0899C1.86927 18.9567 1.64674 18.9567 1.60223 19.1343L1.06816 20.8213L0.489575 22.6859C0.445068 22.8191 0.445068 22.9523 0.445068 23.1299L2.67038 38.9789C2.71489 39.3785 3.07094 39.6448 3.47149 39.6004L5.78582 39.2897C6.18638 39.2453 6.45341 38.8901 6.40891 38.4906L4.18359 22.6415C4.18359 22.5083 4.09458 22.3307 4.00557 22.1976L2.93742 20.5549Z" fill="white"/>
<path d="M3.38248 40C3.11544 40 2.89291 39.9556 2.67038 39.778C2.40334 39.6004 2.26982 39.3341 2.22532 39.0233L2.48104e-06 23.1742C-0.0445038 22.9523 2.48104e-06 22.7303 0.0445087 22.5083L1.15717 18.9567C1.24618 18.7347 1.4242 18.5571 1.69124 18.5128C1.95828 18.4684 2.18081 18.6015 2.31433 18.7791L4.36162 21.8868C4.49513 22.0644 4.53964 22.2863 4.58415 22.5083L6.80946 38.3574C6.85397 38.6681 6.76495 38.9789 6.58693 39.2009C6.4089 39.4229 6.14187 39.6004 5.83032 39.6448L3.5605 40C3.516 40 3.42698 40 3.38248 40ZM1.86927 19.7558L0.934634 22.8191C0.890128 22.9079 0.890128 22.9967 0.890128 23.0855L3.11544 38.9345C3.11544 39.0233 3.15995 39.0677 3.20445 39.1121C3.24896 39.1565 3.33797 39.1565 3.38248 39.1565L5.6968 38.8457C5.78582 38.8457 5.83032 38.8013 5.87483 38.7569C5.91933 38.7125 5.91933 38.6237 5.91933 38.5793L3.69402 22.7303C3.69402 22.6415 3.64952 22.5527 3.60501 22.4639L1.86927 19.7558Z" fill="#495747"/>
<path d="M1.15723 20.4217L2.67044 20.2441L1.91383 19.0899L1.15723 20.4217Z" fill="#495747"/>
<path d="M0.756592 20.7325L1.86925 18.6459L3.02641 20.4217L0.756592 20.7325ZM1.91375 19.4894L1.5577 20.1554L2.2698 20.0666L1.91375 19.4894Z" fill="#495747"/>
</g>
<defs>
<clipPath id="clip0">
<rect width="32" height="40" fill="white"/>
</clipPath>
</defs>
</svg>
