<svg width="40" height="48" viewBox="0 0 40 48" fill="none" xmlns="http://www.w3.org/2000/svg">
<g clip-path="url(#clip0)" filter="url(#filter0_d)">
<path d="M28.968 39.8224C28.879 39.8224 28.7454 39.8224 28.6564 39.778L8.71762 36.404C7.69398 36.2264 7.02638 35.2497 7.1599 34.2286L12.3226 3.99556C12.4116 3.50721 12.6787 3.06326 13.0792 2.79689C13.4798 2.48612 13.9694 2.39733 14.5034 2.48612L34.4422 5.86015C35.4659 6.03773 36.1335 7.01443 36 8.03552L30.7927 38.2686C30.6592 39.2009 29.8581 39.8224 28.968 39.8224ZM14.1919 3.28524C13.9694 3.28524 13.7913 3.32963 13.6133 3.46282C13.3908 3.596 13.2573 3.86237 13.2128 4.08435L8.05003 34.4062C7.96101 34.939 8.31706 35.4717 8.85114 35.5605L28.7899 38.9345C29.324 39.0233 29.8581 38.6681 29.9471 38.1354L35.1098 7.85793C35.1988 7.32519 34.8428 6.79245 34.3087 6.70366L14.3699 3.32963C14.3254 3.28524 14.2364 3.28524 14.1919 3.28524Z" fill="#495747"/>
<path d="M28.1224 3.06402C27.6773 2.97523 27.3213 2.62007 27.2768 2.17612C27.1433 1.11064 26.2977 0.178341 25.185 0.000760149C24.0723 -0.17682 23.0042 0.400316 22.5146 1.37701C22.2921 1.77656 21.847 1.99854 21.402 1.90975L20.4228 1.77656C19.9333 1.68777 19.4882 1.99854 19.3992 2.48689L18.9541 5.19499C18.8651 5.68333 19.1767 6.12729 19.6662 6.21608L28.3894 7.68111C28.879 7.76991 29.3241 7.45914 29.4131 6.97079L29.8582 4.26269C29.9472 3.77434 29.6356 3.33039 29.1461 3.2416L28.1224 3.06402Z" fill="#AFD0B8"/>
<path d="M24.8734 2.35294C25.1437 2.35294 25.3629 2.1343 25.3629 1.8646C25.3629 1.59489 25.1437 1.37625 24.8734 1.37625C24.603 1.37625 24.3838 1.59489 24.3838 1.8646C24.3838 2.1343 24.603 2.35294 24.8734 2.35294Z" fill="white"/>
<path d="M32.6621 11.2764C32.6176 11.2764 32.6176 11.2764 32.5731 11.2764L14.4146 8.1687C14.192 8.1243 14.014 7.90233 14.0585 7.63596C14.103 7.41398 14.3255 7.2364 14.5926 7.2808L32.7511 10.3885C32.9737 10.4329 33.1517 10.6548 33.1072 10.9212C33.0627 11.1432 32.8847 11.2764 32.6621 11.2764Z" fill="#495747"/>
<path d="M30.6148 23.3962C30.5702 23.3962 30.5702 23.3962 30.5257 23.3962L12.3672 20.2886C12.1447 20.2442 11.9666 20.0222 12.0111 19.7558C12.0556 19.5339 12.2782 19.3563 12.5452 19.4007L30.7038 22.5083C30.9263 22.5527 31.1043 22.7747 31.0598 23.0411C31.0153 23.2186 30.7928 23.3962 30.6148 23.3962Z" fill="#495747"/>
<path d="M28.523 35.5161C28.4785 35.5161 28.4785 35.5161 28.4339 35.5161L10.2754 32.4084C10.0529 32.364 9.87483 32.1421 9.91934 31.8757C9.96385 31.6537 10.1864 31.4761 10.4534 31.5205L28.612 34.6282C28.8345 34.6726 29.0125 34.8946 28.968 35.1609C28.9235 35.3385 28.7455 35.5161 28.523 35.5161Z" fill="#495747"/>
<path d="M25.8081 14.2508C25.7636 14.2508 25.7636 14.2508 25.7191 14.2508L13.7469 12.2087C13.5244 12.1643 13.3464 11.9423 13.3909 11.6759C13.4354 11.4539 13.6579 11.2764 13.925 11.3208L25.8972 13.3629C26.1197 13.4073 26.2977 13.6293 26.2532 13.8957C26.2087 14.1176 26.0307 14.2508 25.8081 14.2508Z" fill="#495747"/>
<path d="M31.9945 15.3163C31.95 15.3163 31.95 15.3163 31.9055 15.3163L27.3658 14.5616C27.1433 14.5172 26.9653 14.2952 27.0098 14.0288C27.0543 13.8069 27.2768 13.6293 27.5439 13.6737L32.039 14.4284C32.2615 14.4728 32.4396 14.6948 32.3951 14.9611C32.3951 15.1831 32.1725 15.3163 31.9945 15.3163Z" fill="#495747"/>
<path d="M15.9723 16.737C15.9277 16.737 15.9277 16.737 15.8832 16.737L13.0793 16.2486C12.8568 16.2042 12.6788 15.9822 12.7233 15.7159C12.7678 15.4939 12.9903 15.3163 13.2574 15.3607L16.0613 15.8491C16.2838 15.8935 16.4618 16.1154 16.4173 16.3818C16.3728 16.6038 16.1503 16.737 15.9723 16.737Z" fill="#495747"/>
<path d="M31.2824 19.3563C31.2379 19.3563 31.2379 19.3563 31.1934 19.3563L17.619 17.0477C17.3965 17.0033 17.2185 16.7814 17.263 16.515C17.3075 16.293 17.53 16.1154 17.797 16.1598L31.3715 18.4684C31.594 18.5128 31.772 18.7347 31.7275 19.0011C31.683 19.2231 31.505 19.3563 31.2824 19.3563Z" fill="#495747"/>
<path d="M23.7163 26.3707C23.6718 26.3707 23.6718 26.3707 23.6273 26.3707L11.6552 24.3285C11.4326 24.2841 11.2546 24.0622 11.2991 23.7958C11.3436 23.5738 11.5661 23.3962 11.8332 23.4406L23.8054 25.4828C24.0279 25.5272 24.2059 25.7492 24.1614 26.0155C24.1169 26.2375 23.9389 26.3707 23.7163 26.3707Z" fill="#495747"/>
<path d="M29.9027 27.4362C29.8582 27.4362 29.8582 27.4362 29.8137 27.4362L25.274 26.6371C25.0515 26.5927 24.8735 26.3707 24.918 26.1043C24.9625 25.8824 25.185 25.7048 25.4521 25.7492L29.9917 26.5039C30.2142 26.5483 30.3923 26.7703 30.3478 27.0366C30.3033 27.2586 30.1252 27.4362 29.9027 27.4362Z" fill="#495747"/>
<path d="M13.8805 28.8568C13.836 28.8568 13.836 28.8568 13.7914 28.8568L10.9875 28.3685C10.765 28.3241 10.587 28.1021 10.6315 27.8357C10.676 27.6138 10.8985 27.4362 11.1656 27.4806L13.9695 27.9689C14.192 28.0133 14.37 28.2353 14.3255 28.5017C14.281 28.6793 14.103 28.8568 13.8805 28.8568Z" fill="#495747"/>
<path d="M29.2351 31.4761C29.1906 31.4761 29.1906 31.4761 29.1461 31.4761L15.5717 29.1676C15.3491 29.1232 15.1711 28.9012 15.2156 28.6349C15.2601 28.4129 15.4826 28.2353 15.7497 28.2797L29.3241 30.5882C29.5466 30.6326 29.7246 30.8546 29.6801 31.121C29.6356 31.2986 29.4131 31.4761 29.2351 31.4761Z" fill="#495747"/>
<path d="M6.93742 20.5549L5.95828 19.0899C5.86927 18.9567 5.64674 18.9567 5.60223 19.1343L5.06816 20.8213L4.48957 22.6859C4.44507 22.8191 4.44507 22.9523 4.44507 23.1299L6.67038 38.9789C6.71489 39.3785 7.07094 39.6448 7.47149 39.6004L9.78582 39.2897C10.1864 39.2453 10.4534 38.8901 10.4089 38.4906L8.18359 22.6415C8.18359 22.5083 8.09458 22.3307 8.00557 22.1976L6.93742 20.5549Z" fill="white"/>
<path d="M7.38248 40C7.11544 40 6.89291 39.9556 6.67038 39.778C6.40334 39.6004 6.26982 39.3341 6.22532 39.0233L4 23.1743C3.9555 22.9523 4 22.7303 4.04451 22.5083L5.15717 18.9567C5.24618 18.7347 5.4242 18.5572 5.69124 18.5128C5.95828 18.4684 6.18081 18.6016 6.31433 18.7791L8.36162 21.8868C8.49513 22.0644 8.53964 22.2864 8.58415 22.5083L10.8095 38.3574C10.854 38.6682 10.765 38.9789 10.5869 39.2009C10.4089 39.4229 10.1419 39.6005 9.83032 39.6448L7.5605 40C7.516 40 7.42698 40 7.38248 40ZM5.86927 19.7558L4.93463 22.8191C4.89013 22.9079 4.89013 22.9967 4.89013 23.0855L7.11544 38.9345C7.11544 39.0233 7.15995 39.0677 7.20445 39.1121C7.24896 39.1565 7.33797 39.1565 7.38248 39.1565L9.6968 38.8457C9.78582 38.8457 9.83032 38.8013 9.87483 38.7569C9.91933 38.7125 9.91933 38.6238 9.91933 38.5794L7.69402 22.7303C7.69402 22.6415 7.64952 22.5527 7.60501 22.4639L5.86927 19.7558Z" fill="#495747"/>
<path d="M5.15723 20.4218L6.67044 20.2442L5.91383 19.0899L5.15723 20.4218Z" fill="#495747"/>
<path d="M4.75659 20.7325L5.86925 18.646L7.02641 20.4218L4.75659 20.7325ZM5.91375 19.4895L5.5577 20.1554L6.2698 20.0666L5.91375 19.4895Z" fill="#495747"/>
</g>
<defs>
<filter id="filter0_d" x="0" y="0" width="40" height="48" filterUnits="userSpaceOnUse" color-interpolation-filters="sRGB">
<feFlood flood-opacity="0" result="BackgroundImageFix"/>
<feColorMatrix in="SourceAlpha" type="matrix" values="0 0 0 0 0 0 0 0 0 0 0 0 0 0 0 0 0 0 127 0"/>
<feOffset dy="4"/>
<feGaussianBlur stdDeviation="2"/>
<feColorMatrix type="matrix" values="0 0 0 0 0 0 0 0 0 0 0 0 0 0 0 0 0 0 0.25 0"/>
<feBlend mode="normal" in2="BackgroundImageFix" result="effect1_dropShadow"/>
<feBlend mode="normal" in="SourceGraphic" in2="effect1_dropShadow" result="shape"/>
</filter>
<clipPath id="clip0">
<rect width="32" height="40" fill="white" transform="translate(4)"/>
</clipPath>
</defs>
</svg>
