<svg width="55" height="31" viewBox="0 0 55 31" fill="none" xmlns="http://www.w3.org/2000/svg">
<g clip-path="url(#clip0)">
<path d="M53.5 30.8H1.00001C0.200009 30.8 -0.299991 30 0.100009 29.3L7.50001 16.4L14.6 2.5H38.8L54.2 29.2C54.7 30 54.2 30.8 53.5 30.8ZM1.10001 29.8H53.4L38.3 3.6H15.3L8.50001 16.9L1.10001 29.8Z" fill="#495747"/>
<path d="M30.1 30.8C29.9 30.8 29.7 30.7 29.6 30.5L13.1 0.800022C13 0.500022 13.1 0.200022 13.3 0.100022C13.6 2.14987e-05 13.9 0.100022 14 0.300022L30.5 30C30.6 30.3 30.5 30.6 30.3 30.7C30.2 30.8 30.2 30.8 30.1 30.8Z" fill="#495747"/>
<path d="M15 3.90002V17.5L14 18.3L7.5 23.7L8.1 30.3L15 17.5" fill="#495747"/>
<path d="M8.1 30.8H8C7.8 30.8 7.6 30.6 7.6 30.3L7 23.8C7 23.6 7.1 23.5 7.2 23.4L13.7 18L14.5 17.3V3.90002C14.5 3.60002 14.7 3.40002 15 3.40002C15.3 3.40002 15.5 3.60002 15.5 3.90002V17.5C15.5 17.6 15.5 17.7 15.4 17.7L8.6 30.5C8.5 30.7 8.3 30.8 8.1 30.8ZM8.1 24L8.5 28.5L13.2 19.7L8.1 24Z" fill="#495747"/>
<path d="M15 17.5L16 18.3L22.5 23.9L21.9 30.3L15 17.5Z" fill="#495747"/>
<path d="M21.9 30.8C21.7 30.8 21.5 30.7 21.4 30.5L14.5 17.7C14.4 17.5 14.4 17.2 14.6 17C14.8 16.8 15.1 16.8 15.3 17L16.3 17.9L22.9 23.5C23 23.6 23.1 23.8 23.1 24L22.5 30.4C22.5 30.6 22.3 30.8 22.1 30.9C21.9 30.8 21.9 30.8 21.9 30.8ZM16.8 19.7L21.5 28.5L21.9 24.1L16.8 19.7Z" fill="#495747"/>
<path d="M15.1 3.90003C15 3.90003 14.9 3.90003 14.8 3.80003C14.5 3.70003 14.5 3.30003 14.6 3.10003L16.2 0.30003C16.3 2.98023e-05 16.7 2.97874e-05 16.9 0.10003C17.2 0.20003 17.2 0.60003 17.1 0.80003L15.5 3.60003C15.4 3.80003 15.2 3.90003 15.1 3.90003Z" fill="#495747"/>
<path d="M38.6 4.10003L36.7 0.80003C36.6 0.50003 36.6 0.20003 36.9 0.10003C37.2 2.97874e-05 37.5 2.98023e-05 37.6 0.30003L38.6 2.10003L39.7 0.30003C39.9 0.10003 40.2 2.97874e-05 40.4 0.10003C40.6 0.30003 40.7 0.60003 40.6 0.80003L38.6 4.10003Z" fill="#495747"/>
</g>
<defs>
<clipPath id="clip0">
<rect width="54.5" height="30.8" fill="white"/>
</clipPath>
</defs>
</svg>
