<svg width="18" height="18" viewBox="0 0 18 18" fill="none" xmlns="http://www.w3.org/2000/svg">
<path d="M1.55482 8.90044C1.57286 9.45135 1.71646 9.99087 1.97468 10.4778C2.2329 10.9648 2.59892 11.3864 3.04482 11.7104L3.84482 12.3904C4.1936 12.6861 4.46643 13.061 4.64042 13.4838C4.81442 13.9066 4.88451 14.365 4.84482 14.8204C4.84482 15.2004 4.78482 15.5804 4.74482 15.9604C4.65482 16.6304 4.74482 16.7004 5.38482 16.7004L12.9348 16.7504C13.1013 16.7603 13.2683 16.7603 13.4348 16.7504C13.8248 16.7504 13.9448 16.5504 13.7548 16.2104C13.2587 15.1496 13.0484 13.9776 13.1448 12.8104C13.13 12.6845 13.16 12.5574 13.2294 12.4514C13.2989 12.3454 13.4035 12.2671 13.5248 12.2304C14.1694 11.9868 14.7402 11.5807 15.1817 11.0516C15.6232 10.5225 15.9205 9.88826 16.0448 9.21044C16.0587 9.07528 16.1229 8.95031 16.2248 8.86044C16.3909 8.76081 16.5175 8.60685 16.5831 8.42461C16.6487 8.24238 16.6493 8.04307 16.5848 7.86044C16.4348 7.40044 16.0548 7.31044 15.5848 7.30044H15.2448H7.11482C6.18482 7.30044 6.18482 7.30044 6.11482 8.21044C6.11482 8.21044 6.11482 8.26044 6.06482 8.31044H5.69482C5.69482 8.26044 5.69482 8.24044 5.69482 8.21044C5.69482 6.32044 5.69482 4.43044 5.69482 2.54044C5.69482 2.43044 5.86482 2.33044 5.95482 2.22044C6.04482 2.11044 6.15482 2.00044 6.17482 1.88044C6.19482 1.76044 6.17482 1.36044 6.17482 1.10044C6.17482 0.84044 6.02482 0.57044 5.67482 0.56044H0.964824C0.824824 0.56044 0.584824 0.64044 0.574824 0.71044C0.501697 1.11271 0.478187 1.52244 0.504823 1.93044C0.504823 2.08044 0.794823 2.21044 1.01482 2.40044C1.01482 4.32044 1.01482 6.33044 1.01482 8.34044C1.04482 8.65044 1.10482 8.90044 1.55482 8.90044Z" fill="white"/>
<path d="M13.2348 17.2504H12.9848L5.44479 17.2004C5.26703 17.2303 5.08483 17.2198 4.9117 17.1696C4.73858 17.1193 4.579 17.0308 4.44479 16.9104C4.34807 16.7649 4.28374 16.6004 4.25613 16.4278C4.22853 16.2553 4.2383 16.0789 4.28479 15.9104C4.28479 15.5404 4.35479 15.1704 4.3848 14.8004C4.41425 14.4223 4.35136 14.0427 4.20155 13.6943C4.05173 13.3459 3.81948 13.0392 3.52479 12.8004L3.11479 12.4404L2.7248 12.1204C2.2796 11.7955 1.9054 11.3831 1.62513 10.9086C1.34485 10.434 1.16439 9.90719 1.09479 9.36044C0.980939 9.3117 0.876132 9.24409 0.784795 9.16044C0.682401 9.04178 0.605577 8.90327 0.559121 8.75358C0.512665 8.60389 0.497575 8.44623 0.514795 8.29044C0.514795 6.80044 0.514795 5.29044 0.514795 3.85044V2.57044C0.38776 2.50691 0.276775 2.41542 0.190175 2.30284C0.103576 2.19026 0.0436136 2.05952 0.0147945 1.92044C-0.0187371 1.47261 0.0047863 1.02234 0.0847961 0.580443C0.154796 0.110443 0.764796 0.000442575 0.974796 0.000442575H5.2348H5.68479C5.82669 -0.00365897 5.96796 0.0207825 6.10023 0.0723162C6.2325 0.12385 6.35308 0.201426 6.45479 0.300443C6.54522 0.409094 6.61158 0.535681 6.6495 0.671854C6.68742 0.808028 6.69604 0.950694 6.67479 1.09044V1.38044C6.68972 1.55012 6.68972 1.72077 6.67479 1.89044C6.63968 2.08215 6.54931 2.25941 6.4148 2.40044L6.20479 2.63044C6.20479 4.04044 6.20479 5.44044 6.20479 6.85044C6.50257 6.76015 6.81458 6.72623 7.12479 6.75044H15.2648H15.6748C15.9765 6.72192 16.2791 6.79498 16.5345 6.95803C16.79 7.12108 16.9836 7.36478 17.0848 7.65044C17.1851 7.92911 17.1872 8.23368 17.0908 8.51373C16.9945 8.79377 16.8053 9.03252 16.5548 9.19044C16.4367 9.96769 16.113 10.6992 15.6172 11.3093C15.1214 11.9194 14.4715 12.3859 13.7348 12.6604L13.6448 12.7104C13.5806 13.8089 13.7939 14.9059 14.2648 15.9004C14.3494 16.0219 14.4005 16.1635 14.4128 16.311C14.4251 16.4585 14.3982 16.6067 14.3348 16.7404C14.2538 16.8748 14.1393 16.9859 14.0027 17.063C13.866 17.1401 13.7117 17.1806 13.5548 17.1804L13.2348 17.2504ZM5.2348 16.2004H5.4148L13.0848 16.2504H13.2348C12.77 15.1662 12.5678 13.9876 12.6448 12.8104C12.6341 12.5911 12.6958 12.3744 12.8205 12.1936C12.9452 12.0129 13.1259 11.8783 13.3348 11.8104C13.9102 11.599 14.4199 11.2402 14.813 10.7698C15.2061 10.2995 15.4688 9.73419 15.5748 9.13044C15.6044 8.87199 15.7335 8.63524 15.9348 8.47044C16.2048 8.26044 16.1648 8.15044 16.1248 8.03044C16.0848 7.91044 16.0448 7.81044 15.6548 7.81044H15.2448H7.10479H6.67479C6.66306 7.95354 6.66306 8.09735 6.67479 8.24044C6.66 8.338 6.62962 8.43254 6.5848 8.52044C6.53887 8.60456 6.47282 8.67599 6.39255 8.72834C6.31228 8.78069 6.22029 8.81233 6.12479 8.82044H5.75479C5.65833 8.82145 5.56379 8.79337 5.48352 8.73985C5.40325 8.68634 5.34097 8.60988 5.3048 8.52044C5.24526 8.43179 5.21389 8.32723 5.2148 8.22044V7.51044C5.2148 5.86044 5.2148 4.20044 5.2148 2.51044C5.22144 2.40098 5.25169 2.29426 5.30348 2.19759C5.35526 2.10093 5.42735 2.01662 5.51479 1.95044L5.6548 1.79044L5.7148 1.72044V1.42044C5.7148 1.30044 5.7148 1.17044 5.7148 1.05044H5.25479H1.0648C1.04484 1.28335 1.04484 1.51754 1.0648 1.75044L1.1548 1.81044L1.4148 2.01044C1.46877 2.05785 1.51189 2.11634 1.54122 2.18191C1.57056 2.24748 1.58542 2.31861 1.5848 2.39044V3.81044C1.5848 5.27044 1.5848 6.81044 1.5848 8.26044C1.57877 8.32363 1.57877 8.38725 1.5848 8.45044C1.69084 8.44975 1.794 8.48495 1.87751 8.55031C1.96102 8.61566 2.01998 8.70734 2.0448 8.81044C2.05859 9.30481 2.18896 9.78893 2.4253 10.2234C2.66163 10.6578 2.99724 11.0303 3.4048 11.3104L3.77479 11.6304L4.20479 11.9904C4.6142 12.3311 4.93593 12.7649 5.14299 13.2556C5.35006 13.7463 5.4364 14.2795 5.3948 14.8104C5.3948 15.2004 5.3448 15.5904 5.2948 15.9804C5.28479 16.0904 5.28479 16.1504 5.27479 16.2004H5.2348Z" fill="#495747"/>
<path d="M1.55478 8.90045C1.10478 8.90045 1.02478 8.65045 1.03478 8.27045C1.03478 6.27045 1.03478 4.27045 1.03478 2.33045C0.814782 2.14045 0.544782 2.01045 0.524782 1.86045C0.498145 1.45245 0.521654 1.04272 0.594781 0.640448C0.594781 0.570448 0.844783 0.490448 0.984783 0.490448H5.69478C6.04478 0.490448 6.22478 0.660448 6.19478 1.03045C6.16478 1.40045 6.19478 1.55045 6.19478 1.81045C6.19478 2.07045 6.05478 2.04045 5.97478 2.15045C5.89478 2.26045 5.71478 2.36045 5.71478 2.47045C5.71478 4.36045 5.71478 6.25045 5.71478 8.14045C5.71478 8.14045 5.71478 8.14045 5.71478 8.24045H6.08478C6.08478 8.19045 6.13478 8.16045 6.13478 8.14045C6.13478 7.22045 6.13478 7.22045 7.13478 7.23045H15.2648H15.6748C16.0948 7.23045 16.4748 7.33045 16.6748 7.79045C16.7393 7.97308 16.7386 8.17239 16.673 8.35462C16.6074 8.53686 16.4809 8.69082 16.3148 8.79045C16.2129 8.88032 16.1486 9.00529 16.1348 9.14045C16.0134 9.8259 15.7152 10.4678 15.2698 11.0027C14.8243 11.5376 14.2469 11.947 13.5948 12.1904C13.4734 12.2271 13.3689 12.3054 13.2994 12.4114C13.2299 12.5174 13.2 12.6445 13.2148 12.7704C13.1441 13.9295 13.3749 15.0871 13.8848 16.1304C14.0748 16.4704 13.9548 16.6304 13.5648 16.6704C13.3983 16.6804 13.2313 16.6804 13.0648 16.6704L5.51478 16.6204C4.83478 16.6204 4.78478 16.5504 4.87478 15.8804C4.87478 15.5004 4.94478 15.1204 4.97478 14.7404C5.01447 14.285 4.94438 13.8266 4.77038 13.4038C4.59639 12.981 4.32356 12.6061 3.97478 12.3104L3.04478 11.7104C2.59888 11.3864 2.23286 10.9648 1.97464 10.4779C1.71642 9.99087 1.57282 9.45136 1.55478 8.90045Z" fill="white"/>
<path d="M13.2348 17.2504H12.9848L5.44479 17.2004C5.26703 17.2303 5.08483 17.2198 4.9117 17.1696C4.73858 17.1193 4.579 17.0308 4.44479 16.9104C4.34807 16.7649 4.28374 16.6004 4.25613 16.4278C4.22853 16.2553 4.2383 16.0789 4.28479 15.9104C4.28479 15.5404 4.35479 15.1704 4.3848 14.8004C4.41425 14.4223 4.35136 14.0427 4.20155 13.6943C4.05173 13.3459 3.81948 13.0392 3.52479 12.8004L3.11479 12.4404L2.7248 12.1204C2.2796 11.7955 1.9054 11.3831 1.62513 10.9086C1.34485 10.434 1.16439 9.90719 1.09479 9.36044C0.980939 9.3117 0.876132 9.24409 0.784795 9.16044C0.682401 9.04178 0.605577 8.90327 0.559121 8.75358C0.512665 8.60389 0.497575 8.44623 0.514795 8.29044C0.514795 6.80044 0.514795 5.29044 0.514795 3.85044V2.57044C0.38776 2.50691 0.276775 2.41542 0.190175 2.30284C0.103576 2.19026 0.0436136 2.05952 0.0147945 1.92044C-0.0187371 1.47261 0.0047863 1.02234 0.0847961 0.580443C0.154796 0.110443 0.764796 0.000442575 0.974796 0.000442575H5.2348H5.68479C5.82669 -0.00365897 5.96796 0.0207825 6.10023 0.0723162C6.2325 0.12385 6.35308 0.201426 6.45479 0.300443C6.54522 0.409094 6.61158 0.535681 6.6495 0.671854C6.68742 0.808028 6.69604 0.950694 6.67479 1.09044V1.38044C6.68972 1.55012 6.68972 1.72077 6.67479 1.89044C6.63968 2.08215 6.54931 2.25941 6.4148 2.40044L6.20479 2.63044C6.20479 4.04044 6.20479 5.44044 6.20479 6.85044C6.50257 6.76015 6.81458 6.72623 7.12479 6.75044H15.2648H15.6748C15.9765 6.72192 16.2791 6.79498 16.5345 6.95803C16.79 7.12108 16.9836 7.36478 17.0848 7.65044C17.1851 7.92911 17.1872 8.23368 17.0908 8.51373C16.9945 8.79377 16.8053 9.03252 16.5548 9.19044C16.4367 9.96769 16.113 10.6992 15.6172 11.3093C15.1214 11.9194 14.4715 12.3859 13.7348 12.6604L13.6448 12.7104C13.5806 13.8089 13.7939 14.9059 14.2648 15.9004C14.3494 16.0219 14.4005 16.1635 14.4128 16.311C14.4251 16.4585 14.3982 16.6067 14.3348 16.7404C14.2538 16.8748 14.1393 16.9859 14.0027 17.063C13.866 17.1401 13.7117 17.1806 13.5548 17.1804L13.2348 17.2504ZM5.2348 16.2004H5.4148L13.0848 16.2504H13.2348C12.77 15.1662 12.5678 13.9876 12.6448 12.8104C12.6341 12.5911 12.6958 12.3744 12.8205 12.1936C12.9452 12.0129 13.1259 11.8783 13.3348 11.8104C13.9102 11.599 14.4199 11.2402 14.813 10.7698C15.2061 10.2995 15.4688 9.73419 15.5748 9.13044C15.6044 8.87199 15.7335 8.63524 15.9348 8.47044C16.2048 8.26044 16.1648 8.15044 16.1248 8.03044C16.0848 7.91044 16.0448 7.81044 15.6548 7.81044H15.2448H7.10479H6.67479C6.66306 7.95354 6.66306 8.09735 6.67479 8.24044C6.66 8.338 6.62962 8.43254 6.5848 8.52044C6.53887 8.60456 6.47282 8.67599 6.39255 8.72834C6.31228 8.78069 6.22029 8.81233 6.12479 8.82044H5.75479C5.65833 8.82145 5.56379 8.79337 5.48352 8.73985C5.40325 8.68634 5.34097 8.60988 5.3048 8.52044C5.24526 8.43179 5.21389 8.32723 5.2148 8.22044V7.51044C5.2148 5.86044 5.2148 4.20044 5.2148 2.51044C5.22144 2.40098 5.25169 2.29426 5.30348 2.19759C5.35526 2.10093 5.42735 2.01662 5.51479 1.95044L5.6548 1.79044L5.7148 1.72044V1.42044C5.7148 1.30044 5.7148 1.17044 5.7148 1.05044H5.25479H1.0648C1.04484 1.28335 1.04484 1.51754 1.0648 1.75044L1.1548 1.81044L1.4148 2.01044C1.46877 2.05785 1.51189 2.11634 1.54122 2.18191C1.57056 2.24748 1.58542 2.31861 1.5848 2.39044V3.81044C1.5848 5.27044 1.5848 6.81044 1.5848 8.26044C1.57877 8.32363 1.57877 8.38725 1.5848 8.45044C1.69084 8.44975 1.794 8.48495 1.87751 8.55031C1.96102 8.61566 2.01998 8.70734 2.0448 8.81044C2.05859 9.30481 2.18896 9.78893 2.4253 10.2234C2.66163 10.6578 2.99724 11.0303 3.4048 11.3104L3.77479 11.6304L4.20479 11.9904C4.6142 12.3311 4.93593 12.7649 5.14299 13.2556C5.35006 13.7463 5.4364 14.2795 5.3948 14.8104C5.3948 15.2004 5.3448 15.5904 5.2948 15.9804C5.28479 16.0904 5.28479 16.1504 5.27479 16.2004H5.2348Z" fill="#495747"/>
</svg>
