<svg width="17" height="20" viewBox="0 0 17 20" fill="none" xmlns="http://www.w3.org/2000/svg">
<g clip-path="url(#clip0)">
<path d="M15.0971 19.3399C15.9217 19.3399 16.556 18.5478 16.4291 17.7557C15.7314 13.9274 12.4963 11.0231 8.56347 11.0231C4.63064 11.0231 1.39556 13.9274 0.634369 17.7557C0.507504 18.6138 1.14183 19.3399 1.96646 19.3399H15.0971Z" fill="white"/>
<path d="M15.097 20H1.96643C1.39553 20 0.824638 19.736 0.444041 19.2739C0.0634438 18.8119 -0.0634219 18.2178 0.0634438 17.6238C0.824638 13.3993 4.44031 10.363 8.56344 10.363C12.6866 10.363 16.2388 13.3993 17.0634 17.6238C17.1903 18.2178 17 18.8119 16.6828 19.2739C16.2388 19.736 15.6679 20 15.097 20ZM8.50001 11.6832C5.01121 11.6832 1.96643 14.2574 1.26867 17.8878C1.20523 18.1518 1.3321 18.3498 1.39553 18.4158C1.5224 18.6139 1.7127 18.6799 1.96643 18.6799H15.097C15.2873 18.6799 15.4776 18.6139 15.6679 18.4158C15.7314 18.3498 15.8582 18.1518 15.7948 17.8878C15.097 14.3234 12.0522 11.6832 8.50001 11.6832Z" fill="#495747"/>
<path d="M8.5001 8.84485C10.6721 8.84485 12.4329 7.01262 12.4329 4.75244C12.4329 2.49227 10.6721 0.660034 8.5001 0.660034C6.32805 0.660034 4.56726 2.49227 4.56726 4.75244C4.56726 7.01262 6.32805 8.84485 8.5001 8.84485Z" fill="white"/>
<path d="M8.50003 9.43894C6.02614 9.43894 3.93286 7.32673 3.93286 4.68647C3.93286 2.0462 6.02614 0 8.50003 0C10.9739 0 13.0672 2.11221 13.0672 4.75248C13.0672 7.39274 11.0373 9.43894 8.50003 9.43894ZM8.50003 1.32013C6.72391 1.32013 5.20152 2.83828 5.20152 4.75248C5.20152 6.66667 6.66047 8.18482 8.50003 8.18482C10.3396 8.18482 11.7985 6.66667 11.7985 4.75248C11.7985 2.83828 10.3396 1.32013 8.50003 1.32013Z" fill="#495747"/>
</g>
<defs>
<clipPath id="clip0">
<rect width="17" height="20" fill="white"/>
</clipPath>
</defs>
</svg>
