<svg width="16" height="19" viewBox="0 0 16 19" fill="none" xmlns="http://www.w3.org/2000/svg">
<path d="M7.99996 17.1576C4.75837 17.1576 2.06724 14.7394 1.94491 11.6879C1.88375 10.8242 2.1284 9.96061 2.49537 9.21213C3.53513 6.85152 4.94186 4.66364 6.65439 2.70607C6.71556 2.59092 6.77672 2.53334 6.83788 2.47576C7.63299 1.6697 8.36693 1.61213 9.10088 2.47576C10.0795 3.62728 10.9357 4.77879 11.792 6.04546C12.5871 7.25455 13.2599 8.52122 13.7492 9.84546C14.8501 12.8394 12.7094 16.4667 9.03972 17.0424C8.67274 17.1 8.36693 17.1 7.99996 17.1576Z" fill="white" stroke="#495747" stroke-miterlimit="10" stroke-linecap="round"/>
<path d="M8.67279 14.0485C8.67279 14.0485 10.8746 13.9909 11.1193 11.2849L8.67279 14.0485Z" fill="white"/>
<path d="M8.67279 14.0485C8.67279 14.0485 10.8746 13.9909 11.1193 11.2849" stroke="#495747" stroke-miterlimit="10" stroke-linecap="round"/>
</svg>
