<svg width="71" height="45" viewBox="0 0 71 45" fill="none" xmlns="http://www.w3.org/2000/svg">
<path d="M29.4734 14.1341C27.186 14.1341 25.3384 12.2848 25.3384 9.99514C25.3384 7.70552 27.186 5.8562 29.4734 5.8562C31.7609 5.8562 33.6085 7.70552 33.6085 9.99514C33.6085 12.2848 31.7609 14.1341 29.4734 14.1341ZM29.4734 6.78086C27.6699 6.78086 26.2182 8.23389 26.2182 10.0392C26.2182 11.8445 27.6699 13.2975 29.4734 13.2975C31.277 13.2975 32.7287 11.8445 32.7287 10.0392C32.7287 8.23389 31.277 6.78086 29.4734 6.78086Z" fill="#495747"/>
<path d="M29.4734 14.3542C27.098 14.3542 25.1184 12.4168 25.1184 9.99509C25.1184 7.57336 27.054 5.63599 29.4734 5.63599C31.8489 5.63599 33.8284 7.57336 33.8284 9.99509C33.8284 12.4168 31.8929 14.3542 29.4734 14.3542ZM29.4734 6.12033C27.3179 6.12033 25.5583 7.88158 25.5583 10.0391C25.5583 12.1967 27.3179 13.9579 29.4734 13.9579C31.6289 13.9579 33.3885 12.1967 33.3885 10.0391C33.3885 7.88158 31.6289 6.12033 29.4734 6.12033ZM29.4734 13.4736C27.5819 13.4736 25.9982 11.9325 25.9982 9.99509C25.9982 8.05771 27.5379 6.51661 29.4734 6.51661C31.365 6.51661 32.9486 8.05771 32.9486 9.99509C32.9486 11.9325 31.409 13.4736 29.4734 13.4736ZM29.4734 7.00096C27.8018 7.00096 26.4381 8.36593 26.4381 10.0391C26.4381 11.7123 27.8018 13.0773 29.4734 13.0773C31.1451 13.0773 32.5087 11.7123 32.5087 10.0391C32.5087 8.36593 31.1451 7.00096 29.4734 7.00096Z" fill="#495747"/>
<path d="M70.34 43.9873H0.659668V44.4276H70.34V43.9873Z" fill="#495747"/>
<path d="M70.3402 44.6478H0.659872C0.395931 44.6478 0.219971 44.4717 0.219971 44.2075C0.219971 43.9433 0.395931 43.7672 0.659872 43.7672H70.3402C70.6041 43.7672 70.7801 43.9433 70.7801 44.2075C70.7801 44.4717 70.6041 44.6478 70.3402 44.6478Z" fill="#495747"/>
<path d="M70.3401 44.8679H0.659851C0.307931 44.8679 0 44.5597 0 44.2075C0 43.8552 0.307931 43.547 0.659851 43.547H70.3401C70.6921 43.547 71 43.8552 71 44.2075C71 44.5597 70.6921 44.8679 70.3401 44.8679ZM0.659851 43.9873C0.527881 43.9873 0.439901 44.0754 0.439901 44.2075C0.439901 44.3396 0.527881 44.4276 0.659851 44.4276H70.3401C70.4721 44.4276 70.5601 44.3396 70.5601 44.2075C70.5601 44.0754 70.4721 43.9873 70.3401 43.9873H0.659851Z" fill="#495747"/>
<path d="M67.9207 44.6477H23.9307L30.4852 33.3317L36.0719 22.4559H55.1196L67.9207 44.6477ZM25.4703 43.7671H66.3811L54.5918 23.3366H36.5998L31.277 33.772L25.4703 43.7671Z" fill="#495747"/>
<path d="M68.3168 44.8679H23.5789L30.3093 33.1996L35.9401 22.1918H55.2517L55.2957 22.2798L68.3168 44.8679ZM24.3267 44.4276H67.525L54.9878 22.6761H36.204L30.7053 33.4198L24.3267 44.4276ZM66.7771 43.9873H25.1185L31.1012 33.6399L36.5119 23.1164H54.7678L54.8118 23.2045L66.7771 43.9873ZM25.8663 43.547H66.0293L54.5039 23.5127H36.7319L31.4531 33.816L25.8663 43.547Z" fill="#495747"/>
<path d="M47.9932 44.3395L35.0161 20.9588L35.412 20.7827L48.3451 44.1193L47.9932 44.3395Z" fill="#495747"/>
<path d="M48.1691 44.6477C47.9931 44.6477 47.8611 44.5597 47.7732 44.4276L34.8401 21.091C34.7081 20.8708 34.7961 20.6066 35.016 20.4745C35.236 20.3424 35.4999 20.4305 35.6319 20.6507L48.565 44.0313C48.697 44.2514 48.609 44.5156 48.389 44.6477C48.301 44.6477 48.2571 44.6477 48.1691 44.6477Z" fill="#495747"/>
<path d="M48.1692 44.8679C47.9493 44.8679 47.7293 44.7358 47.5973 44.5156L34.6202 21.179C34.5323 21.0469 34.5323 20.8268 34.5763 20.6947C34.6202 20.5186 34.7522 20.3865 34.8842 20.2984C35.0162 20.2104 35.2361 20.2104 35.3681 20.2544C35.544 20.2984 35.676 20.4305 35.764 20.5626L48.6971 43.9432C48.7851 44.0753 48.7851 44.2955 48.7411 44.4276C48.6971 44.6037 48.5651 44.7358 48.4331 44.8239C48.3892 44.8679 48.3012 44.8679 48.1692 44.8679ZM35.1921 20.6507C35.1481 20.6507 35.1041 20.6507 35.1041 20.6947C35.0602 20.7387 35.0162 20.7828 35.0162 20.8268C35.0162 20.8708 35.0162 20.9589 35.0162 21.0029L47.9493 44.3835C47.9932 44.4716 48.1252 44.5156 48.2572 44.4716C48.3012 44.4276 48.3452 44.3835 48.3452 44.3395C48.3452 44.2955 48.3452 44.2074 48.3452 44.1634L35.4121 20.7828C35.3681 20.7387 35.3241 20.6947 35.2801 20.6947C35.2361 20.6507 35.2361 20.6507 35.1921 20.6507Z" fill="#495747"/>
<path d="M14.2085 17.0402H13.7686V44.2075H14.2085V17.0402Z" fill="#495747"/>
<path d="M13.9887 44.6478C13.7248 44.6478 13.5488 44.4717 13.5488 44.2075V17.0402C13.5488 16.776 13.7248 16.5999 13.9887 16.5999C14.2527 16.5999 14.4286 16.776 14.4286 17.0402V44.2075C14.4286 44.4717 14.2087 44.6478 13.9887 44.6478Z" fill="#495747"/>
<path d="M13.9887 44.8679C13.6368 44.8679 13.3289 44.5597 13.3289 44.2074V17.0401C13.3289 16.6879 13.6368 16.3796 13.9887 16.3796C14.3406 16.3796 14.6486 16.6879 14.6486 17.0401V44.2074C14.6486 44.6037 14.3406 44.8679 13.9887 44.8679ZM13.9887 16.82C13.8567 16.82 13.7688 16.908 13.7688 17.0401V44.2074C13.7688 44.3395 13.8567 44.4276 13.9887 44.4276C14.1207 44.4276 14.2087 44.3395 14.2087 44.2074V17.0401C14.2087 16.908 14.0767 16.82 13.9887 16.82Z" fill="#495747"/>
<path d="M18.784 22.8963C18.652 22.8963 18.5201 22.8523 18.4321 22.7202L13.9891 17.2603L9.50209 22.7202C9.37012 22.8963 9.06219 22.9404 8.88623 22.7642C8.71027 22.5881 8.66628 22.3239 8.84224 22.1478L13.9891 15.8513L19.1359 22.1478C19.2679 22.3239 19.2679 22.6321 19.0919 22.7642C19.004 22.8523 18.916 22.8963 18.784 22.8963Z" fill="#495747"/>
<path d="M18.784 23.1165C18.564 23.1165 18.3881 23.0284 18.2561 22.8963L13.9451 17.6126L9.63405 22.8963C9.50208 23.0284 9.37011 23.1165 9.19415 23.1165C9.01819 23.1165 8.84222 23.0724 8.71025 22.9844C8.44631 22.7642 8.40232 22.3239 8.62227 22.0597L13.9451 15.5431L19.3119 22.0157C19.5318 22.2799 19.4878 22.7202 19.2239 22.9403C19.0919 23.0724 18.9599 23.1165 18.784 23.1165ZM13.9891 16.9081L18.652 22.5881C18.696 22.6762 18.828 22.7202 18.9599 22.6321C19.0479 22.5441 19.0479 22.412 19.0039 22.3239L13.9891 16.2036L8.9742 22.3239C8.88622 22.412 8.93021 22.5441 9.01819 22.6321C9.06218 22.6762 9.10617 22.6762 9.19415 22.6762C9.23814 22.6762 9.32612 22.6321 9.32612 22.5881L13.9891 16.9081Z" fill="#495747"/>
<path d="M19.9715 29.2809C19.8395 29.2809 19.7075 29.2368 19.6196 29.1048L13.9888 22.1918L8.3141 29.1048C8.18213 29.2809 7.8742 29.3249 7.69824 29.1488C7.52228 29.0167 7.47829 28.7085 7.65425 28.5324L13.9888 20.7828L20.3234 28.5324C20.4554 28.7085 20.4554 29.0167 20.2794 29.1488C20.1914 29.2368 20.0595 29.2809 19.9715 29.2809Z" fill="#495747"/>
<path d="M7.9623 29.501C7.83033 29.501 7.65437 29.457 7.56639 29.3689C7.43442 29.2368 7.34644 29.1047 7.34644 28.9286C7.34644 28.7525 7.39043 28.5764 7.47841 28.4443L13.9889 20.4746L20.4995 28.4443C20.7194 28.7085 20.6754 29.1488 20.4115 29.3689C20.1476 29.5891 19.7077 29.5451 19.4877 29.2809L13.9889 22.5441L8.49018 29.2368C8.35821 29.3689 8.22624 29.457 8.05028 29.457C8.00629 29.501 8.00629 29.501 7.9623 29.501ZM13.9889 21.1791L7.83033 28.7085C7.78634 28.7525 7.78634 28.7965 7.78634 28.8846C7.78634 28.9286 7.83033 29.0167 7.87432 29.0167C7.91831 29.0607 7.9623 29.0607 8.05028 29.0607C8.09427 29.0607 8.18225 29.0167 8.18225 28.9727L14.0329 21.8396L19.7956 28.9727C19.8396 29.0607 19.9716 29.1047 20.1036 29.0167C20.1915 28.9286 20.1915 28.7965 20.1476 28.7085L13.9889 21.1791Z" fill="#495747"/>
<path d="M20.5872 35.4452C20.4553 35.4452 20.3233 35.4012 20.2353 35.2691L13.9887 27.6076L7.69814 35.2691C7.56617 35.4452 7.25824 35.4892 7.08228 35.3131C6.90632 35.181 6.86233 34.8728 7.03829 34.6967L13.9887 26.1986L20.9391 34.6967C21.0711 34.8728 21.0711 35.181 20.8952 35.3131C20.8072 35.4012 20.7192 35.4452 20.5872 35.4452Z" fill="#495747"/>
<path d="M7.34633 35.6653C7.21436 35.6653 7.0384 35.6213 6.95042 35.5332C6.81845 35.4011 6.73047 35.269 6.73047 35.0929C6.73047 34.9168 6.77446 34.7407 6.86244 34.6086L13.9888 25.8904L21.1152 34.5645C21.2472 34.6966 21.2912 34.8728 21.2472 35.0489C21.2472 35.225 21.1592 35.4011 21.0272 35.4892C20.7633 35.7094 20.3234 35.6653 20.1035 35.4011L13.9888 27.9158L7.87421 35.4011C7.74224 35.5332 7.61027 35.6213 7.43431 35.6213C7.39032 35.6653 7.39032 35.6653 7.34633 35.6653ZM13.9888 26.5509L7.17037 34.8287C7.08239 34.9168 7.12638 35.0489 7.21436 35.137C7.25835 35.181 7.30234 35.181 7.39032 35.181C7.43431 35.181 7.52229 35.1369 7.52229 35.0929L13.9888 27.2113L20.4554 35.0929C20.4994 35.181 20.6313 35.225 20.7633 35.137C20.8513 35.0489 20.8513 34.9168 20.8073 34.8287L13.9888 26.5509Z" fill="#495747"/>
<path d="M36.3355 23.5128V34.1684L35.5877 34.8289L30.4849 39.0999L30.9248 44.2075L36.3355 34.1684" fill="#495747"/>
<path d="M30.7488 45.0001L30.2209 39.0118L35.4118 34.6968L36.1156 34.0803V23.5128H36.5555V34.2565L36.5115 34.3005L30.7488 45.0001ZM30.7048 39.188L31.1008 43.459L35.5877 35.0931L30.7048 39.188Z" fill="#495747"/>
<path d="M30.925 44.6479C30.881 44.6479 30.881 44.6479 30.837 44.6479C30.661 44.6038 30.4851 44.4277 30.4851 44.2516L30.0452 39.0999C30.0452 38.9678 30.0892 38.8357 30.2211 38.7036L35.9398 33.9042V23.5128C35.9398 23.2486 36.1158 23.0725 36.3797 23.0725C36.6437 23.0725 36.8196 23.2486 36.8196 23.5128V34.1684C36.8196 34.2565 36.8196 34.3005 36.7756 34.3886L31.3649 44.4717C31.2329 44.6038 31.1009 44.6479 30.925 44.6479ZM30.925 39.276L31.2329 42.7105L34.8401 36.0177L30.925 39.276Z" fill="#495747"/>
<path d="M30.9249 44.868C30.881 44.868 30.837 44.868 30.793 44.868C30.529 44.8239 30.3091 44.5597 30.2651 44.2955L29.8252 39.1439C29.8252 38.9237 29.9132 38.7036 30.0451 38.5715L35.6759 33.8601V23.5128C35.6759 23.1605 35.9838 22.8523 36.3357 22.8523C36.6876 22.8523 36.9956 23.1605 36.9956 23.5128V34.1683C36.9956 34.2564 36.9516 34.3885 36.9076 34.4766L31.4968 44.5597C31.4088 44.7359 31.1889 44.868 30.9249 44.868ZM36.3357 23.2926C36.2038 23.2926 36.1158 23.3807 36.1158 23.5128V34.0803L30.3531 38.9237C30.3091 38.9678 30.2651 39.0558 30.2651 39.0999L30.705 44.2515C30.705 44.3396 30.793 44.4276 30.881 44.4276C30.9689 44.4276 31.0569 44.3836 31.1009 44.2955L36.5117 34.2564C36.5117 34.2124 36.5557 34.1683 36.5557 34.1683V23.5128C36.5557 23.3807 36.4677 23.2926 36.3357 23.2926ZM31.1009 43.4589L30.705 39.1879L35.5879 35.137L31.1009 43.4589ZM31.1449 39.364L31.3648 41.9619L34.0922 36.8983L31.1449 39.364Z" fill="#495747"/>
<path d="M36.3354 34.1682L37.0833 34.8287L42.2301 39.2318L41.7462 44.2074L36.3354 34.1682Z" fill="#495747"/>
<path d="M41.8783 44.9559L35.5437 33.1996L37.2153 34.6966L42.4501 39.1438L41.8783 44.9559ZM37.0834 35.137L41.5703 43.5029L42.0102 39.3199L37.0834 35.137Z" fill="#495747"/>
<path d="M41.7462 44.6477C41.5702 44.6477 41.4383 44.5596 41.3503 44.4275L35.9395 34.3884C35.8515 34.2123 35.8955 33.9481 36.0715 33.816C36.2474 33.6839 36.4674 33.6839 36.6433 33.816L37.3912 34.4765L42.538 38.8796C42.626 38.9677 42.714 39.0997 42.67 39.2759L42.1421 44.2954C42.1421 44.4716 41.9661 44.6477 41.7902 44.6917C41.7902 44.6477 41.7902 44.6477 41.7462 44.6477ZM37.8311 36.0616L41.4383 42.7543L41.7902 39.408L37.8311 36.0616Z" fill="#495747"/>
<path d="M41.7461 44.8679C41.4822 44.8679 41.2622 44.7358 41.1742 44.5156L35.7635 34.4765C35.6315 34.2123 35.6755 33.8601 35.9394 33.6399C36.2034 33.4197 36.5553 33.4638 36.7752 33.6399L37.5231 34.3004L42.6699 38.7475C42.8459 38.8796 42.9339 39.0998 42.8899 39.3199L42.362 44.3395C42.318 44.6477 42.098 44.8679 41.8341 44.9119C41.8341 44.8679 41.7901 44.8679 41.7461 44.8679ZM36.3353 33.9481C36.2913 33.9481 36.2474 33.9481 36.2034 33.9922C36.1154 34.0802 36.1154 34.1683 36.1594 34.2563L41.5702 44.3395C41.6142 44.4276 41.7461 44.4716 41.7901 44.4716C41.8781 44.4716 41.9661 44.3835 41.9661 44.2955L42.494 39.2759C42.494 39.1878 42.494 39.1438 42.406 39.0998L36.4673 33.9922C36.4233 33.9481 36.3793 33.9481 36.3353 33.9481ZM41.6142 43.5029L37.1272 35.137L42.0541 39.3199L41.6142 43.5029ZM38.5788 36.9863L41.3062 42.0058L41.5702 39.4961L38.5788 36.9863Z" fill="#495747"/>
<path d="M37.4676 20.7428L36.2029 22.9608L36.5849 23.1791L37.8497 20.9611L37.4676 20.7428Z" fill="#495747"/>
<path d="M36.3796 23.5127C36.2916 23.5127 36.2476 23.5127 36.1596 23.4687C35.9397 23.3366 35.8957 23.0724 35.9836 22.8522L37.2594 20.6507C37.3913 20.4305 37.6553 20.3865 37.8752 20.4745C38.0952 20.6066 38.1392 20.8708 38.0512 21.091L36.7755 23.2925C36.6875 23.4687 36.5555 23.5127 36.3796 23.5127Z" fill="#495747"/>
<path d="M36.3796 23.7329C36.2476 23.7329 36.1597 23.6888 36.0717 23.6448C35.9397 23.5567 35.8077 23.4246 35.7638 23.2485C35.7198 23.0724 35.7198 22.8963 35.8077 22.7642L37.0835 20.5626C37.1714 20.4305 37.3034 20.2984 37.4794 20.2544C37.6553 20.2104 37.8313 20.2104 37.9633 20.2984C38.0952 20.3865 38.2272 20.5186 38.2712 20.6947C38.3152 20.8708 38.3152 21.0469 38.2272 21.179L36.9515 23.3806C36.8635 23.6008 36.6436 23.7329 36.3796 23.7329ZM37.6553 20.6507H37.6113C37.5673 20.6507 37.5234 20.6947 37.4794 20.7387L36.2037 22.9403C36.1597 22.9843 36.1597 23.0724 36.2037 23.1164C36.2476 23.1605 36.2476 23.2045 36.2916 23.2485C36.3796 23.2925 36.5556 23.2485 36.5996 23.1605L37.8753 20.9589C37.9193 20.9149 37.9193 20.8268 37.8753 20.7828C37.8313 20.7387 37.8313 20.6947 37.7873 20.6947C37.7433 20.6507 37.6993 20.6507 37.6553 20.6507Z" fill="#495747"/>
<path d="M54.8558 23.7329L53.3601 21.0469C53.2281 20.8268 53.3161 20.5626 53.5361 20.4305C53.756 20.2984 54.02 20.3865 54.1519 20.6066L54.8998 21.9716L55.7796 20.5626C55.9115 20.3424 56.1755 20.2984 56.3954 20.4305C56.6154 20.5626 56.6594 20.8268 56.5274 21.0469L54.8558 23.7329Z" fill="#495747"/>
<path d="M54.8117 24.1731L53.1401 21.179C52.9641 20.8708 53.0961 20.4745 53.404 20.2984C53.712 20.1222 54.1079 20.2543 54.2838 20.5626L54.8557 21.6193L55.5156 20.5626C55.6915 20.2543 56.1314 20.1663 56.4393 20.3424C56.7473 20.5185 56.8353 20.9588 56.6593 21.2671L54.8117 24.1731ZM53.712 20.6506C53.668 20.6506 53.624 20.6506 53.624 20.6947C53.536 20.7387 53.492 20.8708 53.536 21.0029L54.8557 23.3365L56.3074 21.0029C56.3514 20.9148 56.3514 20.7827 56.2194 20.6947C56.1314 20.6506 55.9994 20.6506 55.9115 20.7827L54.8557 22.4999L53.8879 20.8267C53.8879 20.6947 53.7999 20.6506 53.712 20.6506Z" fill="#495747"/>
<path d="M29.4733 4.31513C29.2094 4.31513 29.0334 4.139 29.0334 3.87481V0.660528C29.0334 0.39634 29.2094 0.220215 29.4733 0.220215C29.7373 0.220215 29.9132 0.39634 29.9132 0.660528V3.87481C29.9132 4.139 29.7373 4.31513 29.4733 4.31513Z" fill="#495747"/>
<path d="M29.4733 4.53523C29.1214 4.53523 28.8135 4.22701 28.8135 3.87476V0.66047C28.8135 0.308219 29.1214 0 29.4733 0C29.8252 0 30.1332 0.308219 30.1332 0.66047V3.87476C30.1332 4.27104 29.8692 4.53523 29.4733 4.53523ZM29.4733 0.440313C29.3414 0.440313 29.2534 0.528376 29.2534 0.66047V3.87476C29.2534 4.00685 29.3414 4.09491 29.4733 4.09491C29.6053 4.09491 29.6933 4.00685 29.6933 3.87476V0.66047C29.6933 0.528376 29.6053 0.440313 29.4733 0.440313Z" fill="#495747"/>
<path d="M29.4733 19.8141C29.2094 19.8141 29.0334 19.638 29.0334 19.3738V16.1596C29.0334 15.8954 29.2094 15.7192 29.4733 15.7192C29.7373 15.7192 29.9132 15.8954 29.9132 16.1596V19.3738C29.9132 19.638 29.7373 19.8141 29.4733 19.8141Z" fill="#495747"/>
<path d="M29.4733 20.0342C29.1214 20.0342 28.8135 19.726 28.8135 19.3738V16.1595C28.8135 15.8072 29.1214 15.499 29.4733 15.499C29.8252 15.499 30.1332 15.8072 30.1332 16.1595V19.3738C30.1332 19.7701 29.8692 20.0342 29.4733 20.0342ZM29.4733 15.9393C29.3414 15.9393 29.2534 16.0274 29.2534 16.1595V19.3738C29.2534 19.5059 29.3414 19.5939 29.4733 19.5939C29.6053 19.5939 29.6933 19.5059 29.6933 19.3738V16.1595C29.6933 16.0274 29.6053 15.9393 29.4733 15.9393Z" fill="#495747"/>
<path d="M38.7115 10.4795H35.5002C35.2363 10.4795 35.0603 10.3034 35.0603 10.0392C35.0603 9.775 35.2363 9.59888 35.5002 9.59888H38.7115C38.9754 9.59888 39.1514 9.775 39.1514 10.0392C39.1514 10.3034 38.9314 10.4795 38.7115 10.4795Z" fill="#495747"/>
<path d="M38.7115 10.6996H35.5002C35.1483 10.6996 34.8403 10.3914 34.8403 10.0391C34.8403 9.68688 35.1483 9.37866 35.5002 9.37866H38.7115C39.0634 9.37866 39.3713 9.68688 39.3713 10.0391C39.3713 10.3914 39.0634 10.6996 38.7115 10.6996ZM35.4562 9.81898C35.3242 9.81898 35.2362 9.90704 35.2362 10.0391C35.2362 10.1712 35.3242 10.2593 35.4562 10.2593H38.7115C38.8434 10.2593 38.9314 10.1712 38.9314 10.0391C38.9314 9.90704 38.8434 9.81898 38.7115 9.81898H35.4562Z" fill="#495747"/>
<path d="M23.1827 10.4795H19.9714C19.7075 10.4795 19.5315 10.3034 19.5315 10.0392C19.5315 9.775 19.7075 9.59888 19.9714 9.59888H23.1827C23.4466 9.59888 23.6226 9.775 23.6226 10.0392C23.6226 10.3034 23.4466 10.4795 23.1827 10.4795Z" fill="#495747"/>
<path d="M23.1827 10.6996H19.9714C19.6195 10.6996 19.3115 10.3914 19.3115 10.0391C19.3115 9.68688 19.6195 9.37866 19.9714 9.37866H23.1827C23.5346 9.37866 23.8425 9.68688 23.8425 10.0391C23.8425 10.3914 23.5786 10.6996 23.1827 10.6996ZM19.9714 9.81898C19.8394 9.81898 19.7514 9.90704 19.7514 10.0391C19.7514 10.1712 19.8394 10.2593 19.9714 10.2593H23.1827C23.3146 10.2593 23.4026 10.1712 23.4026 10.0391C23.4026 9.90704 23.3146 9.81898 23.1827 9.81898H19.9714Z" fill="#495747"/>
<path d="M33.8725 6.25241C33.7405 6.25241 33.6526 6.20838 33.5646 6.12032C33.3886 5.94419 33.3886 5.68 33.5646 5.50388L35.8521 3.21425C36.028 3.03812 36.292 3.03812 36.4679 3.21425C36.6439 3.39037 36.6439 3.65456 36.4679 3.83069L34.1804 6.12032C34.0925 6.20838 34.0045 6.25241 33.8725 6.25241Z" fill="#495747"/>
<path d="M33.8725 6.47259C33.6966 6.47259 33.5206 6.38452 33.3886 6.29646C33.1247 6.03227 33.1247 5.63599 33.3886 5.3718L35.6761 3.08217C35.9401 2.81799 36.336 2.81799 36.5999 3.08217C36.8638 3.34636 36.8638 3.74264 36.5999 4.00683L34.3124 6.29646C34.2244 6.38452 34.0485 6.47259 33.8725 6.47259ZM36.16 3.30233C36.116 3.30233 36.028 3.30233 35.984 3.34636L33.6966 5.63599C33.6086 5.72405 33.6086 5.85615 33.6966 5.94421C33.7845 6.03227 33.9165 6.03227 34.0045 5.94421L36.292 3.65458C36.38 3.56652 36.38 3.43442 36.292 3.34636C36.292 3.30233 36.204 3.30233 36.16 3.30233Z" fill="#495747"/>
<path d="M22.9189 17.2163C22.7869 17.2163 22.699 17.1722 22.611 17.0842C22.435 16.9081 22.435 16.6439 22.611 16.4677L24.8985 14.1781C25.0744 14.002 25.3384 14.002 25.5143 14.1781C25.6903 14.3542 25.6903 14.6184 25.5143 14.7946L23.2268 17.0842C23.1389 17.1722 23.0509 17.2163 22.9189 17.2163Z" fill="#495747"/>
<path d="M22.9189 17.4365C22.7429 17.4365 22.567 17.3484 22.435 17.2603C22.1711 16.9961 22.1711 16.5999 22.435 16.3357L24.7225 14.046C24.9864 13.7819 25.3824 13.7819 25.6463 14.046C25.9102 14.3102 25.9102 14.7065 25.6463 14.9707L23.3588 17.2603C23.2708 17.3484 23.0949 17.4365 22.9189 17.4365ZM25.2064 14.2662C25.1624 14.2662 25.0744 14.2662 25.0304 14.3102L22.7429 16.5999C22.655 16.6879 22.655 16.82 22.7429 16.9081C22.8309 16.9961 22.9629 16.9961 23.0509 16.9081L25.3384 14.6184C25.4263 14.5304 25.4263 14.3983 25.3384 14.3102C25.3384 14.2662 25.2504 14.2662 25.2064 14.2662Z" fill="#495747"/>
<path d="M36.0719 17.0841C35.9399 17.0841 35.8519 17.04 35.7639 16.952L33.4765 14.6624C33.3005 14.4862 33.3005 14.222 33.4765 14.0459C33.6524 13.8698 33.9164 13.8698 34.0923 14.0459L36.3798 16.3355C36.5558 16.5117 36.5558 16.7759 36.3798 16.952C36.2918 17.04 36.1598 17.0841 36.0719 17.0841Z" fill="#495747"/>
<path d="M36.0719 17.3042C35.8959 17.3042 35.72 17.2162 35.588 17.1281L33.3005 14.8385C33.0366 14.5743 33.0366 14.178 33.3005 13.9138C33.5644 13.6497 33.9603 13.6497 34.2243 13.9138L36.5118 16.2035C36.7757 16.4677 36.7757 16.8639 36.5118 17.1281C36.3798 17.2162 36.2478 17.3042 36.0719 17.3042ZM33.7844 14.134C33.7404 14.134 33.6524 14.134 33.6084 14.178C33.5204 14.2661 33.5204 14.3982 33.6084 14.4862L35.8959 16.7759C35.9839 16.8639 36.1159 16.8639 36.2038 16.7759C36.2918 16.6878 36.2918 16.5557 36.2038 16.4677L33.9164 14.178C33.8724 14.178 33.8284 14.134 33.7844 14.134Z" fill="#495747"/>
<path d="M25.1185 6.12033C24.9865 6.12033 24.8985 6.0763 24.8106 5.98823L22.5231 3.69861C22.3471 3.52248 22.3471 3.25829 22.5231 3.08217C22.699 2.90604 22.963 2.90604 23.1389 3.08217L25.4264 5.37179C25.6024 5.54792 25.6024 5.81211 25.4264 5.98823C25.3384 6.0763 25.2065 6.12033 25.1185 6.12033Z" fill="#495747"/>
<path d="M25.1185 6.3405C24.9425 6.3405 24.7666 6.25244 24.6346 6.16438L22.3471 3.87475C22.0832 3.61056 22.0832 3.21428 22.3471 2.95009C22.6111 2.68591 23.007 2.68591 23.2709 2.95009L25.5584 5.23972C25.8223 5.50391 25.8223 5.90019 25.5584 6.16438C25.4264 6.29647 25.2945 6.3405 25.1185 6.3405ZM22.831 3.17025C22.787 3.17025 22.699 3.17025 22.6551 3.21428C22.5671 3.30234 22.5671 3.43444 22.6551 3.5225L24.9425 5.81213C25.0305 5.90019 25.1625 5.90019 25.2505 5.81213C25.3385 5.72407 25.3385 5.59197 25.2505 5.50391L22.963 3.21428C22.919 3.21428 22.875 3.17025 22.831 3.17025Z" fill="#495747"/>
</svg>
