<svg viewBox="0 0 35 28" fill="none" xmlns="http://www.w3.org/2000/svg">
<path d="M31.7187 0H3.28127C1.47187 0 0 1.56999 0 3.50002V24.5C0 26.43 1.47187 28 3.28127 28H31.7187C33.5281 28 35 26.43 35 24.5V3.50002C35 1.56999 33.5281 0 31.7187 0ZM31.7187 2.33332C31.8673 2.33332 32.0087 2.36621 32.1379 2.42364L17.5 15.9562L2.86198 2.42364C2.99122 2.36629 3.1326 2.33332 3.2812 2.33332H31.7187ZM31.7187 25.6666H3.28127C2.6778 25.6666 2.18749 25.1437 2.18749 24.4999V4.88882L16.7833 18.3818C16.9895 18.572 17.2447 18.6666 17.5 18.6666C17.7553 18.6666 18.0105 18.5721 18.2167 18.3818L32.8125 4.88882V24.5C32.8124 25.1437 32.3222 25.6666 31.7187 25.6666Z" fill="#495747"/>
</svg>
