<svg viewBox="0 0 36 36" fill="none" xmlns="http://www.w3.org/2000/svg">
<path d="M18 0C8.055 0 0 8.26422 0 18.4568C0 26.613 5.157 33.5296 12.3075 35.9682C13.2075 36.1419 13.5375 35.5706 13.5375 35.0807C13.5375 34.6424 13.5225 33.4811 13.515 31.9425C8.508 33.0553 7.452 29.4663 7.452 29.4663C6.633 27.3361 5.4495 26.7664 5.4495 26.7664C3.819 25.6222 5.5755 25.6457 5.5755 25.6457C7.383 25.774 8.3325 27.5474 8.3325 27.5474C9.9375 30.3695 12.546 29.554 13.575 29.0829C13.737 27.8886 14.2005 27.0763 14.715 26.6146C10.7175 26.1528 6.516 24.5657 6.516 17.4942C6.516 15.4798 7.2135 13.8332 8.3685 12.5419C8.166 12.0755 7.5585 10.1988 8.526 7.65693C8.526 7.65693 10.0335 7.16233 13.476 9.54925C14.916 9.13917 16.446 8.93569 17.976 8.9263C19.506 8.93569 21.036 9.13917 22.476 9.54925C25.896 7.16233 27.4035 7.65693 27.4035 7.65693C28.371 10.1988 27.7635 12.0755 27.5835 12.5419C28.731 13.8332 29.4285 15.4798 29.4285 17.4942C29.4285 24.5845 25.221 26.145 21.216 26.5989C21.846 27.153 22.431 28.2846 22.431 30.0142C22.431 32.484 22.4085 34.4687 22.4085 35.0682C22.4085 35.5518 22.7235 36.1294 23.646 35.9447C30.8475 33.5218 36 26.6005 36 18.4568C36 8.26422 27.9405 0 18 0Z" fill="#495747"/>
</svg>
