<svg width="14" height="19" viewBox="0 0 14 19" fill="none" xmlns="http://www.w3.org/2000/svg">
<path d="M6.41069 10.9271C5.24446 10.9271 4.07822 10.9271 3.04156 10.9271C2.65282 10.9271 2.39365 10.9271 2.00491 10.9271C1.48658 11.0505 1.22741 10.6804 1.357 10.187C1.74574 9.2002 2.00491 8.33673 2.39365 7.34992C3.04156 5.37628 3.81905 3.2793 4.46696 1.30566C4.59655 0.935608 4.85571 0.812256 5.24446 0.812256C7.31777 0.812256 9.2615 0.812256 11.3348 0.812256C11.4644 0.812256 11.7236 0.812256 11.8531 0.935608C11.9827 1.18231 11.9827 1.30566 11.8531 1.55237C11.2052 2.66254 10.5573 3.64935 9.90941 4.75952C9.39108 5.74634 8.74317 6.73316 8.22484 7.71997C8.22484 7.71997 8.22484 7.84333 8.09526 7.96668C8.22484 7.96668 8.22484 7.96668 8.35442 7.96668C9.65024 7.96668 10.9461 7.96668 12.2419 7.96668C12.3715 7.96668 12.3715 7.96668 12.501 7.96668C12.7602 7.96668 12.8898 8.09003 13.0194 8.21338C13.149 8.46009 13.0194 8.58344 12.8898 8.70679C12.501 9.2002 11.9827 9.69361 11.594 10.187C9.2615 12.6541 6.92902 15.2444 4.59655 17.7115C4.46696 17.9582 4.2078 18.0815 4.07822 18.0815C3.68947 18.2049 3.30073 17.7115 3.55989 17.3414C3.68947 16.848 3.94864 16.3546 4.2078 15.8612C4.85571 14.2576 5.6332 12.7774 6.28111 11.1738C6.28111 11.0505 6.41069 11.0505 6.41069 10.9271Z" stroke="#495747" stroke-width="1.09646" stroke-miterlimit="10" stroke-linecap="round" stroke-linejoin="round"/>
</svg>
