<svg viewBox="0 0 35 35" fill="none" xmlns="http://www.w3.org/2000/svg">
<g clip-path="url(#clip0)">
<path d="M34.8694 18.2836C34.8694 23.7687 34.8694 29.2537 34.8694 34.7388C34.8694 34.8694 34.8694 34.8694 34.7388 34.8694C29.2537 34.8694 23.7686 34.8694 18.153 34.8694C18.153 34.7388 18.2836 34.7388 18.2836 34.7388C20.5037 34.6082 22.5933 34.0858 24.5522 33.1716C25.4664 32.7799 26.25 32.2575 27.0336 31.7351C27.1642 31.6045 27.1642 31.6045 27.0336 31.4739C25.597 30.0373 24.291 28.7313 22.8545 27.2948C22.7239 27.1642 22.5933 27.1642 22.4627 27.2948C21.2873 27.9478 19.9813 28.3396 18.6754 28.4701C17.8918 28.6007 17.2388 28.6007 16.4552 28.4701C15.541 28.4701 14.7574 28.209 13.9739 27.9478C13.0597 27.9478 12.0149 27.4254 10.9701 26.7724C10.3171 26.3806 9.79476 25.8582 9.27237 25.2052C8.35819 24.291 7.70521 23.2463 7.18282 22.0709C6.66043 21.0261 6.39924 19.9813 6.26864 18.806C6.13804 18.0224 6.13804 17.3694 6.26864 16.5858C6.26864 15.6716 6.52983 14.8881 6.79103 13.9739C7.05222 13.0597 7.57461 12.0149 8.22759 10.9701C8.74998 10.4478 9.14177 9.79478 9.79476 9.27239C10.7089 8.48881 11.7537 7.70522 12.9291 7.18284C13.9739 6.66045 15.0186 6.39925 16.194 6.26866C16.9776 6.13806 17.6306 6.13806 18.4142 6.26866C19.3283 6.26866 20.2425 6.52985 21.0261 6.79104C21.6791 6.92164 22.2015 7.18284 22.7239 7.57463C22.9851 7.70522 22.9851 7.70522 23.1157 7.57463C24.5522 6.13806 25.8582 4.83209 27.2948 3.39552C27.4254 3.26493 27.4254 3.26493 27.2948 3.13433C25.3358 1.82836 23.2463 1.04478 21.0261 0.522388C20.2425 0.391791 19.3283 0.261194 18.4142 0.261194C18.0224 0.261194 17.6306 0.261194 17.2388 0.261194C15.6716 0.261194 14.1045 0.522388 12.5373 0.914179C11.4925 1.17537 10.4477 1.56716 9.40297 2.08955C8.22759 2.74254 7.18282 3.39552 6.26864 4.1791C5.87685 4.5709 5.48506 4.83209 5.22386 5.22388C4.57088 5.87687 3.91789 6.52985 3.3955 7.31343C2.74252 8.22761 2.22013 9.01119 1.69774 10.056C0.914161 11.6231 0.391773 13.3209 0.261176 15.0187C0.130579 16.0634 -1.82092e-05 16.9776 0.130579 18.0224C0.130579 19.5896 0.391773 21.0261 0.783564 22.4627C1.04476 23.5075 1.43655 24.5522 1.95894 25.4664C2.61192 26.6418 3.26491 27.8172 4.17909 28.7313C4.44028 29.1231 4.83207 29.3843 5.09327 29.7761C5.74625 30.4291 6.52983 31.0821 7.18282 31.6045C7.9664 32.2575 8.88058 32.6493 9.79476 33.1716C10.9701 33.8246 12.2761 34.2164 13.5821 34.4776C14.3657 34.6082 15.2798 34.7388 16.0634 34.8694C16.194 34.8694 16.3246 34.8694 16.4552 34.8694C16.4552 34.8694 16.5858 34.8694 16.5858 35C10.9701 35 5.48506 35 -0.130615 35V34.8694C-1.82092e-05 23.2463 -1.82092e-05 11.7537 -1.82092e-05 0.130597C-1.82092e-05 0 -1.82092e-05 0 0.130579 0C11.7537 0 23.2463 0 34.7388 0C34.8694 0 34.8694 0 34.8694 0.130597C34.8694 5.61567 34.8694 11.1007 34.8694 16.5858C34.7388 16.5858 34.7388 16.4552 34.7388 16.4552C34.6082 14.7575 34.347 13.1903 33.8246 11.6231C33.4328 10.3172 32.7798 9.14179 31.9963 7.96642C32.1269 7.96642 31.9963 7.83582 31.9963 7.83582C31.8657 7.70522 31.8657 7.70522 31.7351 7.83582C30.2985 9.27239 28.9925 10.5784 27.556 12.0149C27.4254 12.1455 27.4254 12.0149 27.4254 12.2761C28.0783 13.5821 28.4701 14.8881 28.6007 16.3246C28.6007 16.847 28.7313 17.3694 28.6007 17.8918C28.4701 19.3284 28.2089 20.7649 27.6866 22.0709C27.556 22.3321 27.4254 22.5933 27.2948 22.8545C27.2948 22.9851 27.2948 22.9851 27.2948 23.1157C27.2948 23.1157 27.2948 23.1157 27.4254 23.2463C28.7313 24.5522 30.1679 25.9888 31.4739 27.2948C31.6045 27.4254 31.6045 27.4254 31.7351 27.2948C31.9963 26.903 32.2574 26.5112 32.388 26.1194C33.4328 24.1604 34.2164 22.0709 34.4776 19.8507C34.4776 19.459 34.6082 18.9366 34.6082 18.5448C34.8694 18.4142 34.8694 18.2836 34.8694 18.2836Z" fill="#FEFEFE"/>
<path d="M16.7165 34.8694C16.4553 34.7388 16.1941 34.8694 15.9329 34.8694C14.7575 34.7388 13.5821 34.6082 12.4068 34.2164C10.5784 33.694 9.01125 32.9104 7.44409 31.8657C6.66051 31.3433 6.00752 30.8209 5.35454 30.1679C3.91797 28.6007 2.612 26.903 1.69782 24.944C1.04483 23.5075 0.522446 21.9403 0.261252 20.2425C0.130655 19.5896 0.130655 18.9366 5.83027e-05 18.2836C-0.130539 15.4104 0.391849 12.7985 1.56722 10.1866C2.22021 8.75 3.13439 7.31343 4.17916 6.13806C5.87692 4.3097 7.83588 2.74254 10.056 1.69776C11.4926 1.04478 13.0598 0.522388 14.7575 0.261194C15.8023 0.130597 16.9777 0 18.153 0C19.7202 0 21.1568 0.261194 22.5933 0.783582C24.2911 1.30597 25.8583 2.08955 27.2948 3.00373C27.4254 3.13433 27.4254 3.13433 27.2948 3.26493C25.8583 4.70149 24.4217 6.13806 22.9851 7.57463C22.8545 7.70522 22.8545 7.70522 22.7239 7.57463C21.5486 6.92164 20.3732 6.52985 19.0672 6.39925C18.153 6.26866 17.2389 6.26866 16.1941 6.39925C14.4963 6.52985 12.7986 7.18284 11.2314 8.22761C9.14185 9.53358 7.70528 11.3619 6.9217 13.7127C6.52991 14.6269 6.39931 15.6716 6.26872 16.7164C6.13812 19.3284 6.66051 21.6791 8.09707 23.7687C9.40304 25.8582 11.362 27.1642 13.5821 28.0784C14.4963 28.4701 15.5411 28.6007 16.5859 28.7313C18.6754 28.8619 20.765 28.4701 22.5933 27.4254C22.7239 27.2948 22.8545 27.4254 22.9851 27.4254C24.4217 28.8619 25.8583 30.2985 27.1642 31.6045C27.2948 31.7351 27.2948 31.7351 27.1642 31.8657C25.3359 33.1716 23.2463 33.9552 21.0262 34.4776C20.112 34.7388 19.1978 34.7388 18.2836 34.8694H18.153C17.7613 34.8694 17.2389 34.8694 16.7165 34.8694Z" fill="#495747"/>
<path d="M34.8694 18.2836V18.4142C34.8694 19.3284 34.7388 20.1119 34.6082 21.0261C34.2164 22.7239 33.694 24.291 32.9104 25.7276C32.6492 26.25 32.2574 26.7724 31.9962 27.2948C31.8656 27.4254 31.8656 27.4254 31.735 27.2948C30.2985 25.8582 28.8619 24.4216 27.4253 22.9851C27.2947 22.8545 27.2947 22.8545 27.4253 22.7239C27.9477 21.8097 28.3395 20.7649 28.4701 19.7202C28.6007 18.806 28.7313 18.0224 28.7313 17.1082C28.7313 15.6716 28.4701 14.3657 27.9477 13.0597C27.8171 12.6679 27.6865 12.4067 27.4253 12.0149C27.4253 11.8843 27.4253 11.8843 27.4253 11.8843C27.9477 11.3619 28.3395 10.9702 28.8619 10.4478C29.7761 9.53359 30.8209 8.48881 31.735 7.57463C31.8656 7.44404 31.8656 7.44404 31.9962 7.57463C32.2574 8.09702 32.6492 8.48881 32.9104 9.0112C33.694 10.3172 34.2164 11.7537 34.4776 13.3209C34.6082 14.1045 34.7388 14.7575 34.8694 15.541C34.8694 15.8022 35 16.194 35 16.4552V16.5858C34.8694 17.2388 34.8694 17.7612 34.8694 18.2836Z" fill="#AFD0B8"/>
</g>
<defs>
<clipPath id="clip0">
<rect width="35" height="35" fill="white"/>
</clipPath>
</defs>
</svg>
