<svg width="65" height="38" viewBox="0 0 65 38" fill="none" xmlns="http://www.w3.org/2000/svg">

<path d="M63.5198 37.1024H1.55531C0.611092 37.1024 0.0209544 36.1582 0.493065 35.332L9.2271 20.1065L17.6071 3.70064H46.1697L64.346 35.214C64.9361 36.1582 64.346 37.1024 63.5198 37.1024ZM1.67334 35.9222H63.4017L45.5796 4.99894H18.4333L10.4074 20.6966L1.67334 35.9222Z" fill="#F9F5EE"/>
<path d="M35.9013 37.1024C35.6652 37.1024 35.4292 36.9844 35.3111 36.7484L15.8366 1.69418C15.7186 1.3401 15.8366 0.986016 16.0726 0.867989C16.4267 0.749961 16.7808 0.867989 16.8988 1.10404L36.3734 36.1582C36.4914 36.5123 36.3734 36.8664 36.1373 36.9844C36.0193 37.1024 36.0193 37.1024 35.9013 37.1024Z" fill="#F9F5EE"/>
<path d="M18.0792 5.35303V21.4048L16.899 22.349L9.22717 28.7225L9.93534 36.5123L18.0792 21.4048" fill="#F9F5EE"/>
<path d="M9.93527 37.1024H9.81724C9.58118 37.1024 9.34513 36.8664 9.34513 36.5123L8.63696 28.8405C8.63696 28.6045 8.75499 28.4864 8.87302 28.3684L16.5448 21.9949L17.489 21.1687V5.35305C17.489 4.99896 17.7251 4.76291 18.0792 4.76291C18.4332 4.76291 18.6693 4.99896 18.6693 5.35305V21.4048C18.6693 21.5228 18.6693 21.6408 18.5513 21.6408L10.5254 36.7484C10.4074 36.9844 10.1713 37.1024 9.93527 37.1024ZM9.93527 29.0766L10.4074 34.3878L15.9547 24.0014L9.93527 29.0766Z" fill="#F9F5EE"/>
<path d="M18.0789 21.4047L19.2591 22.349L26.9309 28.9585L26.2228 36.5123L18.0789 21.4047Z" fill="#F9F5EE"/>
<path d="M26.2229 37.1024C25.9869 37.1024 25.7508 36.9844 25.6328 36.7483L17.4889 21.6408C17.3709 21.4048 17.3709 21.0507 17.6069 20.8146C17.843 20.5786 18.1971 20.5786 18.4331 20.8146L19.6134 21.8769L27.4032 28.4864C27.5212 28.6044 27.6393 28.8405 27.6393 29.0766L26.9311 36.6303C26.9311 36.8664 26.6951 37.1024 26.459 37.2205C26.2229 37.1024 26.2229 37.1024 26.2229 37.1024ZM20.2035 24.0014L25.7508 34.3878L26.2229 29.1946L20.2035 24.0014Z" fill="#F9F5EE"/>
<path d="M18.1972 5.35306C18.0792 5.35306 17.9612 5.35306 17.8431 5.23503C17.4891 5.117 17.4891 4.64489 17.6071 4.40884L19.4955 1.10407C19.6136 0.749986 20.0857 0.749986 20.3217 0.868014C20.6758 0.986041 20.6758 1.45815 20.5578 1.69421L18.6693 4.99898C18.5513 5.23503 18.3153 5.35306 18.1972 5.35306Z" fill="#F9F5EE"/>
<path d="M45.9336 5.58911L43.6911 1.69421C43.573 1.34012 43.573 0.986041 43.9271 0.868014C44.2812 0.749986 44.6353 0.749986 44.7533 1.10407L45.9336 3.22856L47.2319 1.10407C47.468 0.868014 47.822 0.749986 48.0581 0.868014C48.2941 1.10407 48.4122 1.45815 48.2941 1.69421L45.9336 5.58911Z" fill="#F9F5EE"/>
<defs>
<rect width="64.325" height="36.3525" fill="white" transform="translate(0.375 0.75)"/>
</defs>
</svg>
