<svg width="10" height="10" viewBox="0 0 10 10" fill="none" xmlns="http://www.w3.org/2000/svg">
<path fill-rule="evenodd" clip-rule="evenodd" d="M9.51134 0.442289C9.82274 0.753687 9.82274 1.25856 9.51134 1.56996L1.53749 9.54381C1.22609 9.85521 0.721216 9.85521 0.409818 9.54381C0.09842 9.23241 0.09842 8.72754 0.409818 8.41614L8.38367 0.442289C8.69507 0.130891 9.19994 0.130891 9.51134 0.442289Z" fill="#495747"/>
<path fill-rule="evenodd" clip-rule="evenodd" d="M0.17627 1.00613C0.17627 0.565742 0.533271 0.20874 0.973654 0.20874H8.9475C9.38789 0.20874 9.74489 0.565742 9.74489 1.00613V8.97997C9.74489 9.42036 9.38789 9.77736 8.9475 9.77736C8.50712 9.77736 8.15012 9.42036 8.15012 8.97997V1.80351H0.973654C0.533271 1.80351 0.17627 1.44651 0.17627 1.00613Z" fill="#495747"/>
</svg>
