<svg width="356" height="156" viewBox="0 0 356 156" fill="none" xmlns="http://www.w3.org/2000/svg">
<path d="M353.91 156H62.0901C61.5358 156 61.0041 155.789 60.6122 155.414C60.2202 155.039 60 154.53 60 154C60 153.47 60.2202 152.961 60.6122 152.586C61.0041 152.211 61.5358 152 62.0901 152H353.91C354.464 152 354.996 152.211 355.388 152.586C355.78 152.961 356 153.47 356 154C356 154.53 355.78 155.039 355.388 155.414C354.996 155.789 354.464 156 353.91 156Z" fill="#495747"/>
<path d="M35.5 155C34.837 155 34.2011 154.791 33.7322 154.419C33.2634 154.046 33 153.541 33 153.015V21.9853C33 21.4588 33.2634 20.9538 33.7322 20.5815C34.2011 20.2092 34.837 20 35.5 20C36.163 20 36.7989 20.2092 37.2678 20.5815C37.7366 20.9538 38 21.4588 38 21.9853V153.015C38 153.541 37.7366 154.046 37.2678 154.419C36.7989 154.791 36.163 155 35.5 155Z" fill="#495747"/>
<path d="M60.0059 50C59.6948 50.001 59.3875 49.9363 59.1065 49.8106C58.8254 49.685 58.5778 49.5016 58.3818 49.2739L35.6033 23.0783L12.6998 49.2739C12.5262 49.4737 12.3125 49.6392 12.071 49.7611C11.8295 49.8829 11.5649 49.9588 11.2923 49.9843C11.0196 50.0098 10.7444 49.9845 10.4822 49.9097C10.2199 49.835 9.9759 49.7123 9.76399 49.5487C9.55208 49.385 9.37644 49.1837 9.24711 48.9561C9.11777 48.7285 9.03728 48.4791 9.01021 48.2222C8.98314 47.9653 9.01003 47.7059 9.08935 47.4587C9.16867 47.2116 9.29886 46.9816 9.47249 46.7819L33.8751 18.7222C34.0704 18.4965 34.3165 18.3146 34.5956 18.1897C34.8747 18.0648 35.1798 18 35.4888 18C35.7978 18 36.1029 18.0648 36.382 18.1897C36.6611 18.3146 36.9072 18.4965 37.1024 18.7222L61.5259 46.7819C61.7 46.9814 61.8306 47.2114 61.9102 47.4586C61.9899 47.7057 62.0169 47.9653 61.9898 48.2224C61.9627 48.4794 61.8821 48.7289 61.7524 48.9565C61.6228 49.1841 61.4467 49.3853 61.2344 49.5487C60.8876 49.8205 60.4565 49.9789 60.0059 50Z" fill="#495747"/>
<path d="M5.07426 80.9056C4.68091 80.9031 4.29629 80.7937 3.96471 80.5899C3.63313 80.386 3.36806 80.0961 3.20005 79.7536C3.03203 79.411 2.96791 79.0297 3.01505 78.6536C3.06219 78.2774 3.21869 77.9218 3.46651 77.6276L35.4546 40L67.5262 77.708C67.8778 78.1214 68.0446 78.6523 67.9898 79.1841C67.9349 79.7159 67.663 80.2049 67.2339 80.5436C66.8047 80.8823 66.2534 81.0429 65.7013 80.9901C65.1492 80.9373 64.6414 80.6755 64.2898 80.2621L35.4546 46.3551L6.5985 80.2219C6.40752 80.4314 6.17339 80.6004 5.91099 80.7181C5.64859 80.8358 5.36366 80.8996 5.07426 80.9056Z" fill="#495747"/>
<path d="M68.9101 110C68.6038 109.998 68.3018 109.932 68.0256 109.805C67.7495 109.679 67.5062 109.496 67.3133 109.269L35.5 72.2998L3.666 109.269C3.31787 109.67 2.81764 109.924 2.27399 109.976C1.73034 110.028 1.1872 109.873 0.762583 109.546C0.551068 109.381 0.37572 109.179 0.246598 108.95C0.117477 108.721 0.0371236 108.47 0.0101481 108.211C-0.0168273 107.952 0.0101053 107.691 0.0894026 107.442C0.1687 107.193 0.298803 106.962 0.472242 106.761L35.5 66L70.5278 106.682C70.7012 106.883 70.8313 107.114 70.9106 107.363C70.9899 107.612 71.0168 107.873 70.9898 108.132C70.9629 108.391 70.8825 108.642 70.7534 108.871C70.6243 109.1 70.4489 109.302 70.2374 109.467C69.8761 109.79 69.4053 109.979 68.9101 110Z" fill="#495747"/>
<path d="M127.892 156C127.633 155.999 127.376 155.959 127.13 155.88L83.358 139.875C82.8334 139.684 82.4105 139.304 82.1824 138.818C81.9542 138.332 81.9396 137.78 82.1416 137.284C82.3436 136.788 82.7457 136.388 83.2595 136.172C83.7733 135.957 84.3567 135.943 84.8813 136.134L128.654 152.139C129.174 152.331 129.594 152.71 129.82 153.194C130.045 153.678 130.06 154.226 129.859 154.72C129.706 155.096 129.436 155.419 129.085 155.647C128.734 155.876 128.318 155.999 127.892 156Z" fill="#495747"/>
<path d="M84.1081 156C83.6819 155.999 83.2661 155.876 82.915 155.647C82.5639 155.419 82.294 155.096 82.1406 154.72C81.9402 154.226 81.9545 153.678 82.1805 153.194C82.4064 152.71 82.8256 152.331 83.3465 152.139L127.119 136.134C127.643 135.943 128.227 135.957 128.741 136.172C129.254 136.388 129.656 136.788 129.858 137.284C130.06 137.78 130.046 138.332 129.818 138.818C129.589 139.304 129.167 139.684 128.642 139.875L84.8697 155.88C84.6244 155.959 84.3672 155.999 84.1081 156Z" fill="#495747"/>
<path d="M106.043 137.998C102.464 138.043 98.9242 137.279 95.7119 135.768C92.4997 134.256 89.7053 132.04 87.5562 129.3C85.4071 126.56 83.9638 123.373 83.3438 119.998C82.7238 116.623 82.9446 113.155 83.9881 109.877C85.6141 104.529 87.7611 99.3196 89.5538 93.911C89.6405 93.3885 89.8515 92.8921 90.1704 92.46C90.4893 92.028 90.9077 91.6718 91.3932 91.4192C91.8786 91.1665 92.4183 91.0241 92.9705 91.0028C93.5226 90.9815 94.0724 91.082 94.5776 91.2965C97.84 92.1497 100.886 93.6327 103.528 95.6542C106.17 97.6757 108.352 100.193 109.941 103.052C111.483 105.546 112.546 105.606 114.256 103.351C115.241 102.021 116.61 100.994 118.195 100.397C122.364 98.7807 124.449 99.6589 125.992 103.631C128.576 110.237 130.473 116.803 127.451 123.848C125.777 127.991 122.841 131.556 119.023 134.08C115.205 136.603 110.682 137.969 106.043 137.998Z" fill="#ED7F69"/>
<path d="M112.924 139C112.373 139 111.845 138.807 111.456 138.463C111.067 138.119 110.848 137.653 110.848 137.167C110.848 134.087 108.668 131.667 105.99 131.667C103.311 131.667 101.152 134.178 101.152 137.167C101.152 137.653 100.934 138.119 100.544 138.463C100.155 138.807 99.6267 139 99.0761 139C98.5255 139 97.9974 138.807 97.6081 138.463C97.2187 138.119 97 137.653 97 137.167C97 132.052 101.028 128 105.99 128C110.952 128 115 132.143 115 137.167C115 137.653 114.781 138.119 114.392 138.463C114.003 138.807 113.474 139 112.924 139Z" fill="white"/>
<path d="M48.9058 156H13.0942C12.5388 156 12.0061 155.789 11.6134 155.414C11.2206 155.039 11 154.53 11 154C11 153.47 11.2206 152.961 11.6134 152.586C12.0061 152.211 12.5388 152 13.0942 152H48.9058C49.4612 152 49.9939 152.211 50.3866 152.586C50.7794 152.961 51 153.47 51 154C51 154.53 50.7794 155.039 50.3866 155.414C49.9939 155.789 49.4612 156 48.9058 156Z" fill="#495747"/>
<path d="M144 43C139.451 43 135.004 41.7391 131.222 39.3766C127.44 37.0142 124.492 33.6563 122.751 29.7277C121.01 25.7991 120.554 21.4761 121.442 17.3056C122.329 13.135 124.52 9.30405 127.737 6.29722C130.953 3.29039 135.051 1.2427 139.513 0.413121C143.975 -0.416461 148.599 0.00932968 152.802 1.63661C157.004 3.2639 160.597 6.01959 163.124 9.55525C165.651 13.0909 167 17.2477 167 21.5C166.994 27.2006 164.569 32.6661 160.257 36.697C155.945 40.7279 150.098 42.9948 144 43ZM144 3.93054C140.283 3.93054 136.649 4.96098 133.558 6.89154C130.467 8.8221 128.058 11.5661 126.635 14.7765C125.213 17.9869 124.841 21.5195 125.566 24.9276C126.291 28.3358 128.081 31.4664 130.71 33.9235C133.338 36.3806 136.687 38.054 140.333 38.7319C143.979 39.4098 147.758 39.0618 151.193 37.7321C154.627 36.4023 157.562 34.1504 159.628 31.2611C161.693 28.3718 162.795 24.9749 162.795 21.5C162.79 16.8419 160.808 12.376 157.284 9.08225C153.761 5.78847 148.983 3.93574 144 3.93054Z" fill="#495747"/>
<path d="M351 156H128L161.1 101.496L189.39 49H286.013L351 156ZM135.235 152.025H343.765L283.609 52.9755H191.962L164.78 103.404L135.235 152.025Z" fill="#495747"/>
<path d="M250.919 156C250.545 156.003 250.177 155.91 249.854 155.732C249.53 155.553 249.263 155.295 249.08 154.984L183.262 41.9638C183.129 41.735 183.045 41.4834 183.013 41.2233C182.982 40.9633 183.005 40.7 183.081 40.4484C183.157 40.1968 183.284 39.9619 183.455 39.7571C183.626 39.5523 183.837 39.3817 184.078 39.2549C184.56 38.9968 185.13 38.9316 185.663 39.0735C186.196 39.2154 186.648 39.5528 186.92 40.0118L252.738 153.032C252.871 153.261 252.955 153.513 252.987 153.773C253.018 154.033 252.995 154.296 252.919 154.548C252.843 154.799 252.716 155.034 252.545 155.239C252.374 155.444 252.163 155.614 251.922 155.741C251.618 155.912 251.272 156.001 250.919 156Z" fill="#495747"/>
<path d="M190 54V105.431L186.23 108.67L161 129.179L163.221 154L190 105.431" fill="#495747"/>
<path d="M163.254 156H162.847C162.418 155.916 162.027 155.698 161.734 155.38C161.441 155.061 161.262 154.658 161.222 154.231L159.008 129.404C158.979 129.087 159.029 128.768 159.153 128.474C159.277 128.18 159.471 127.92 159.719 127.714L184.89 107.141L187.937 104.537V53.9878C187.937 53.4606 188.151 52.955 188.532 52.5822C188.913 52.2094 189.43 52 189.968 52C190.507 52 191.024 52.2094 191.405 52.5822C191.786 52.955 192 53.4606 192 53.9878V105.391C191.996 105.715 191.92 106.034 191.777 106.326L165.082 154.887C164.914 155.221 164.654 155.503 164.331 155.7C164.008 155.897 163.634 156.001 163.254 156ZM163.152 130.06L164.676 147.214L182.96 113.82L163.152 130.06Z" fill="#495747"/>
<path d="M190 105L193.878 108.268L220 129.66L217.415 154L190 105Z" fill="#495747"/>
<path d="M217.362 156C216.987 155.999 216.619 155.9 216.297 155.713C215.976 155.526 215.713 155.258 215.537 154.938L188.255 105.966C188.019 105.55 187.944 105.067 188.042 104.603C188.14 104.138 188.406 103.722 188.791 103.429C189.177 103.136 189.658 102.984 190.149 103.001C190.639 103.018 191.107 103.202 191.471 103.521L195.309 106.788L221.283 128.148C221.536 128.359 221.732 128.626 221.855 128.926C221.977 129.226 222.023 129.55 221.989 129.871L219.437 154.197C219.392 154.623 219.207 155.025 218.908 155.342C218.609 155.66 218.213 155.876 217.777 155.96L217.362 156ZM197.238 113.56L215.91 147.203L217.673 130.432L197.238 113.56Z" fill="#495747"/>
<path d="M190.963 54C190.617 53.9963 190.279 53.8988 189.982 53.7172C189.533 53.4508 189.205 53.0124 189.069 52.4978C188.933 51.9832 189 51.4341 189.256 50.9703L195.299 40.0836C195.422 39.8422 195.591 39.6289 195.796 39.4564C196 39.2839 196.237 39.1559 196.491 39.08C196.745 39.0041 197.012 38.9819 197.274 39.0147C197.537 39.0476 197.791 39.1348 198.02 39.2711C198.249 39.4074 198.449 39.59 198.608 39.808C198.766 40.0259 198.881 40.2747 198.944 40.5393C199.007 40.8039 199.017 41.0788 198.974 41.3476C198.931 41.6164 198.836 41.8735 198.694 42.1034L192.67 52.9699C192.5 53.2819 192.252 53.5417 191.952 53.7227C191.652 53.9037 191.311 53.9994 190.963 54Z" fill="#495747"/>
<path d="M284.581 55L277.272 42.0649C277 41.5944 276.929 41.0364 277.073 40.5136C277.217 39.9908 277.565 39.546 278.04 39.2771C278.515 39.0083 279.078 38.9374 279.606 39.0799C280.134 39.2225 280.583 39.5669 280.855 40.0374L284.786 46.9916L289.209 39.9563C289.496 39.4993 289.956 39.1742 290.486 39.0525C291.016 38.9308 291.573 39.0226 292.034 39.3076C292.496 39.5926 292.824 40.0474 292.947 40.5721C293.07 41.0968 292.977 41.6484 292.689 42.1054L284.581 55Z" fill="#495747"/>
</svg>
