<svg width="264" height="190" viewBox="0 0 264 190" fill="none" xmlns="http://www.w3.org/2000/svg">
<path d="M218.89 92.1346C216.233 91.8264 213.562 92.5862 211.465 94.2469C209.368 95.9075 208.016 98.3331 207.707 100.99L227.745 103.319C228.054 100.661 227.294 97.9904 225.633 95.8931C223.973 93.7958 221.547 92.4439 218.89 92.1346Z" fill="white"/>
<path d="M229.496 105.528L205.498 102.742L205.717 100.752C206.096 97.5732 207.717 94.674 210.226 92.6868C212.735 90.6995 215.929 89.7856 219.109 90.1445C220.685 90.3273 222.209 90.8188 223.595 91.5908C224.981 92.3628 226.201 93.4003 227.186 94.644C228.171 95.8877 228.901 97.3132 229.335 98.8392C229.769 100.365 229.898 101.962 229.715 103.538L229.496 105.528ZM210.154 99.2789L225.755 101.09C225.519 99.3021 224.692 97.6445 223.407 96.3797C222.122 95.1148 220.451 94.3151 218.66 94.1072C216.869 93.8993 215.06 94.2951 213.519 95.2319C211.978 96.1687 210.794 97.5929 210.154 99.2789Z" fill="#495747"/>
<path d="M67.8153 186.383C66.3708 186.42 64.9565 185.965 63.8036 185.094C62.6506 184.223 61.8271 182.987 61.4674 181.587L36.4342 68.1545C36.2744 67.4112 36.2679 66.6431 36.415 65.8972C36.5622 65.1512 36.8598 64.4432 37.2899 63.8162C37.7781 63.0928 38.4098 62.4775 39.1458 62.0085C39.8818 61.5395 40.7063 61.2268 41.5682 61.0898L94.3609 51.856C94.7226 51.8054 95.069 51.6763 95.3757 51.4779L131.234 28.9505C132.682 28.05 134.411 27.7169 136.09 28.0152L178.773 35.6172C179.992 35.805 181.128 36.3493 182.038 37.1815C182.948 38.0137 183.592 39.0966 183.887 40.2938L207.11 145.249C207.287 146.069 207.279 146.917 207.086 147.733C206.893 148.549 206.521 149.312 205.996 149.965C205.381 150.732 204.603 151.352 203.718 151.779C202.833 152.206 201.864 152.429 200.881 152.433L162.536 153.05C162.015 153.045 161.503 153.19 161.063 153.468L124.369 176.115C123.632 176.571 122.815 176.882 121.961 177.03L69.0092 186.264C68.6162 186.343 68.2162 186.383 67.8153 186.383ZM134.776 31.8958C134.236 31.8879 133.705 32.0328 133.244 32.3137L97.4054 54.7814C96.6656 55.2459 95.8401 55.5572 94.9777 55.6968L42.2647 64.9306C41.9316 64.977 41.6115 65.0909 41.3241 65.2654C41.0366 65.4399 40.7879 65.6714 40.5931 65.9455C40.4617 66.1271 40.3706 66.3347 40.326 66.5544C40.2814 66.774 40.2843 67.0007 40.3344 67.2192L65.3478 180.652C65.5489 181.244 65.9656 181.739 66.5151 182.038C67.0646 182.336 67.7064 182.417 68.3128 182.264L121.285 173.11C121.637 173.047 121.974 172.919 122.279 172.732L158.874 150.065C159.931 149.425 161.141 149.081 162.376 149.07L200.722 148.453C201.103 148.446 201.478 148.358 201.822 148.193C202.165 148.028 202.469 147.791 202.712 147.498C202.876 147.309 202.993 147.085 203.055 146.843C203.117 146.602 203.123 146.349 203.07 146.105L179.888 41.1495C179.757 40.7117 179.497 40.3235 179.142 40.0359C178.787 39.7483 178.353 39.5746 177.898 39.5376L135.214 31.9356L134.776 31.8958Z" fill="#495747"/>
<path d="M213.1 185.627C236.333 185.627 255.167 166.792 255.167 143.557C255.167 120.323 236.333 101.488 213.1 101.488C189.867 101.488 171.033 120.323 171.033 143.557C171.033 166.792 189.867 185.627 213.1 185.627Z" fill="white"/>
<path d="M213.179 187.637C211.457 187.636 209.736 187.537 208.025 187.339C199.37 186.336 191.206 182.79 184.566 177.148C177.926 171.505 173.108 164.021 170.721 155.64C168.334 147.259 168.486 138.359 171.157 130.065C173.828 121.77 178.898 114.454 185.727 109.042C192.556 103.629 200.836 100.363 209.52 99.6567C218.205 98.9501 226.904 100.835 234.518 105.072C242.131 109.31 248.318 115.71 252.294 123.464C256.271 131.217 257.859 139.976 256.858 148.632C255.62 159.356 250.488 169.252 242.436 176.442C234.384 183.632 223.974 187.616 213.179 187.637ZM213.02 103.478C205.294 103.495 197.738 105.745 191.261 109.956C184.784 114.168 179.662 120.162 176.512 127.217C173.363 134.272 172.319 142.088 173.508 149.722C174.696 157.356 178.065 164.485 183.21 170.248C188.355 176.012 195.057 180.166 202.507 182.21C209.958 184.253 217.84 184.1 225.206 181.767C232.571 179.435 239.106 175.023 244.022 169.063C248.939 163.103 252.028 155.849 252.918 148.174C254.128 137.616 251.102 127.008 244.503 118.678C237.904 110.347 228.271 104.974 217.716 103.737C216.157 103.562 214.589 103.475 213.02 103.478Z" fill="#495747"/>
<path d="M134.14 30.1816L130.261 31.0701L158 152.193L161.879 151.304L134.14 30.1816Z" fill="#495747"/>
<path d="M97.6027 52.7698L93.6982 53.5401L117.816 175.801L121.721 175.03L97.6027 52.7698Z" fill="#495747"/>
<path d="M238.551 189.15H43.5383C43.0105 189.15 42.5044 188.94 42.1312 188.567C41.758 188.193 41.5483 187.687 41.5483 187.159C41.5483 186.632 41.758 186.125 42.1312 185.752C42.5044 185.379 43.0105 185.169 43.5383 185.169H238.551C239.078 185.169 239.585 185.379 239.958 185.752C240.331 186.125 240.541 186.632 240.541 187.159C240.541 187.687 240.331 188.193 239.958 188.567C239.585 188.94 239.078 189.15 238.551 189.15Z" fill="#495747"/>
<path d="M30.9022 188.533H2.84429C2.31653 188.533 1.81039 188.323 1.43721 187.95C1.06402 187.577 0.85437 187.07 0.85437 186.543C0.85437 186.015 1.06402 185.509 1.43721 185.135C1.81039 184.762 2.31653 184.553 2.84429 184.553H30.9022C31.43 184.553 31.9361 184.762 32.3093 185.135C32.6825 185.509 32.8921 186.015 32.8921 186.543C32.8921 187.07 32.6825 187.577 32.3093 187.95C31.9361 188.323 31.43 188.533 30.9022 188.533Z" fill="#495747"/>
<path d="M86.0032 167.617C85.5113 167.62 85.0357 167.441 84.6682 167.114C84.3007 166.787 84.0674 166.335 84.0133 165.846C84.0133 165.846 83.8541 164.294 83.7347 161.766C83.7229 161.505 83.7628 161.244 83.8519 160.998C83.9411 160.752 84.0778 160.526 84.2542 160.333C84.4307 160.14 84.6435 159.983 84.8804 159.873C85.1173 159.762 85.3738 159.699 85.6351 159.687C85.8964 159.675 86.1575 159.715 86.4034 159.804C86.6493 159.893 86.8753 160.03 87.0684 160.206C87.2615 160.383 87.4179 160.596 87.5288 160.833C87.6397 161.07 87.7028 161.326 87.7145 161.587C87.7145 163.975 87.9732 165.388 87.9732 165.408C88.0292 165.93 87.8765 166.453 87.5485 166.863C87.2205 167.273 86.7437 167.537 86.2221 167.597L86.0032 167.617Z" fill="#495747"/>
<path d="M85.6848 155.438C85.157 155.438 84.6509 155.228 84.2777 154.855C83.9045 154.482 83.6949 153.976 83.6949 153.448C83.6949 150.622 83.9735 147.816 84.2719 145.09C84.2994 144.828 84.378 144.575 84.5034 144.344C84.6287 144.113 84.7983 143.909 85.0025 143.744C85.2067 143.578 85.4415 143.455 85.6934 143.38C85.9453 143.306 86.2095 143.281 86.4708 143.309C86.7321 143.336 86.9855 143.415 87.2164 143.54C87.4473 143.666 87.6513 143.835 87.8167 144.039C87.9821 144.244 88.1056 144.478 88.1803 144.73C88.2549 144.982 88.2792 145.246 88.2518 145.508C87.9533 148.135 87.7742 150.861 87.6747 153.468C87.6695 153.992 87.4575 154.493 87.0849 154.862C86.7123 155.231 86.2091 155.438 85.6848 155.438ZM87.4757 139.1H87.0976C86.8323 139.057 86.5784 138.961 86.3513 138.817C86.1241 138.674 85.9284 138.486 85.7759 138.264C85.6234 138.043 85.5173 137.793 85.4641 137.53C85.4108 137.266 85.4114 136.995 85.4659 136.732C85.9886 133.973 86.6528 131.243 87.4558 128.553C87.5309 128.301 87.655 128.067 87.8209 127.864C87.9867 127.661 88.1911 127.492 88.4223 127.369C88.6534 127.245 88.9068 127.168 89.1678 127.142C89.4289 127.116 89.6924 127.143 89.9432 127.219C90.2066 127.277 90.4555 127.388 90.6748 127.545C90.8941 127.702 91.0791 127.902 91.2187 128.133C91.3583 128.364 91.4495 128.62 91.4868 128.888C91.5241 129.155 91.5067 129.427 91.4357 129.687C90.6994 132.174 90.0427 134.781 89.4457 137.488C89.3568 137.948 89.1085 138.362 88.7445 138.656C88.3805 138.951 87.9242 139.108 87.4558 139.1H87.4757ZM92.2515 123.378C91.9776 123.386 91.7056 123.331 91.4556 123.219C91.2146 123.115 90.9966 122.965 90.814 122.776C90.6314 122.588 90.4879 122.365 90.3917 122.121C90.2955 121.877 90.2486 121.616 90.2536 121.354C90.2586 121.091 90.3154 120.833 90.4208 120.592C91.5668 117.993 92.8968 115.48 94.4007 113.07C94.5372 112.846 94.7168 112.651 94.929 112.496C95.1412 112.342 95.3818 112.231 95.6371 112.17C95.8923 112.109 96.1571 112.099 96.4162 112.141C96.6753 112.183 96.9236 112.275 97.1467 112.413C97.3692 112.551 97.5622 112.732 97.7147 112.945C97.8671 113.158 97.9761 113.399 98.0352 113.654C98.0944 113.909 98.1026 114.174 98.0594 114.432C98.0162 114.69 97.9225 114.937 97.7835 115.159C96.3766 117.416 95.1331 119.77 94.0624 122.204C93.9054 122.553 93.6511 122.85 93.3299 123.058C93.0087 123.266 92.6343 123.378 92.2515 123.378ZM100.947 109.448C100.585 109.438 100.231 109.329 99.9261 109.133C99.6207 108.937 99.3748 108.661 99.215 108.335C99.0551 108.009 98.9874 107.646 99.0192 107.284C99.051 106.923 99.1811 106.577 99.3954 106.284C101.304 104.098 103.416 102.099 105.703 100.314C105.91 100.153 106.146 100.034 106.398 99.965C106.65 99.8955 106.914 99.8764 107.173 99.9088C107.433 99.9411 107.684 100.024 107.911 100.153C108.139 100.283 108.339 100.456 108.499 100.662C108.66 100.868 108.778 101.104 108.848 101.357C108.917 101.609 108.937 101.872 108.904 102.132C108.872 102.392 108.789 102.642 108.659 102.87C108.53 103.097 108.357 103.297 108.151 103.458C106.076 105.058 104.157 106.85 102.42 108.811C102.238 109.025 102.012 109.197 101.758 109.317C101.505 109.437 101.228 109.502 100.947 109.508V109.448ZM113.862 99.4978C113.417 99.4951 112.985 99.343 112.636 99.0658C112.287 98.7885 112.041 98.4022 111.938 97.9687C111.835 97.5352 111.88 97.0796 112.067 96.6749C112.253 96.2702 112.57 95.9397 112.967 95.7366C114.041 95.1993 115.156 94.7017 116.25 94.244L120.668 92.4331C121.158 92.2352 121.708 92.2403 122.195 92.4475C122.682 92.6546 123.067 93.0467 123.264 93.5376C123.462 94.0284 123.457 94.5778 123.25 95.0648C123.043 95.5519 122.651 95.9367 122.16 96.1346L117.762 97.9256C116.728 98.3436 115.772 98.8013 114.758 99.2988C114.48 99.4408 114.174 99.5158 113.862 99.5177V99.4978ZM129.045 93.1893C128.58 93.1952 128.127 93.0378 127.766 92.7445C127.405 92.4512 127.158 92.0405 127.068 91.5839C126.978 91.1272 127.051 90.6535 127.274 90.2451C127.497 89.8368 127.856 89.5195 128.289 89.3485C131.055 88.254 133.562 87.2192 135.891 86.2639C136.132 86.1646 136.391 86.1139 136.653 86.1147C136.914 86.1154 137.172 86.1677 137.414 86.2684C137.655 86.3691 137.874 86.5163 138.058 86.7016C138.242 86.887 138.388 87.1068 138.487 87.3485C138.587 87.5903 138.637 87.8492 138.637 88.1105C138.636 88.3719 138.584 88.6305 138.483 88.8717C138.382 89.1128 138.235 89.3318 138.05 89.516C137.864 89.7003 137.645 89.8462 137.403 89.9455L129.781 93.05C129.548 93.1495 129.299 93.2035 129.045 93.2092V93.1893ZM144.189 86.8411C143.733 86.8435 143.291 86.6897 142.935 86.4054C142.579 86.121 142.332 85.7232 142.234 85.2784C142.136 84.8337 142.194 84.3688 142.398 83.9614C142.601 83.5541 142.938 83.2289 143.353 83.0401C145.784 81.9518 148.149 80.7225 150.437 79.3585C150.876 79.1904 151.361 79.1836 151.805 79.3392C152.249 79.4948 152.624 79.8027 152.863 80.2083C153.101 80.614 153.188 81.091 153.109 81.5547C153.029 82.0185 152.787 82.439 152.427 82.7416C150.017 84.2216 147.519 85.5509 144.945 86.7216C144.705 86.8211 144.448 86.8686 144.189 86.861V86.8411ZM157.879 77.9654C157.376 77.9637 156.893 77.7717 156.526 77.4281C156.34 77.2431 156.192 77.023 156.09 76.7805C155.989 76.538 155.937 76.2779 155.937 76.0152C155.937 75.7525 155.989 75.4924 156.09 75.2499C156.192 75.0073 156.34 74.7873 156.526 74.6023C158.265 72.7443 159.708 70.63 160.804 68.3336C161.049 67.8778 161.461 67.5351 161.954 67.378C162.446 67.221 162.981 67.2619 163.444 67.4921C163.907 67.7224 164.262 68.1239 164.434 68.6116C164.607 69.0992 164.582 69.6348 164.366 70.1047C163.1 72.7506 161.436 75.1869 159.431 77.3286C159.236 77.545 158.996 77.7159 158.728 77.8294C158.46 77.9429 158.17 77.9961 157.879 77.9853V77.9654Z" fill="#495747"/>
<path d="M165.52 63.4779C165.318 63.4753 165.116 63.4418 164.924 63.3784C164.674 63.2992 164.442 63.1715 164.241 63.0025C164.041 62.8335 163.876 62.6265 163.756 62.3935C163.635 62.1605 163.563 61.906 163.541 61.6447C163.519 61.3834 163.55 61.1205 163.63 60.8709C164.008 59.6968 164.386 58.443 164.764 57.1296C164.908 56.6237 165.246 56.1954 165.705 55.9381C166.163 55.6808 166.705 55.6155 167.212 55.7565C167.718 55.9003 168.146 56.2384 168.403 56.6971C168.661 57.1557 168.726 57.6976 168.585 58.2042C168.207 59.5774 167.809 60.8709 167.431 62.0848C167.303 62.4908 167.049 62.8451 166.705 63.0958C166.361 63.3465 165.946 63.4804 165.52 63.4779Z" fill="#495747"/>
<path d="M166.675 0.353516C161.74 0.353516 143.611 2.98038 143.611 25.0898C143.611 40.7316 159.193 54.4033 164.744 58.7814C165.293 59.2172 165.974 59.4545 166.675 59.4545C167.376 59.4545 168.056 59.2172 168.605 58.7814C174.157 54.4033 189.738 40.7316 189.738 25.0898C189.738 2.98038 171.61 0.353516 166.675 0.353516ZM168.028 27.8361C166.57 28.1276 165.058 27.9424 163.714 27.3079C162.37 26.6735 161.265 25.6234 160.564 24.3129C159.863 23.0025 159.602 21.5011 159.82 20.0308C160.037 18.5605 160.722 17.1992 161.773 16.1482C162.824 15.0972 164.185 14.4122 165.655 14.1945C167.126 13.9768 168.627 14.2379 169.937 14.9392C171.248 15.6406 172.298 16.7449 172.932 18.0891C173.567 19.4332 173.752 20.9458 173.46 22.4033C173.192 23.744 172.533 24.9754 171.566 25.9422C170.6 26.909 169.368 27.568 168.028 27.8361Z" fill="#ED7F69"/>
<path d="M213.1 178.045C232.145 178.045 247.585 162.604 247.585 143.558C247.585 124.511 232.145 109.07 213.1 109.07C194.054 109.07 178.614 124.511 178.614 143.558C178.614 162.604 194.054 178.045 213.1 178.045Z" fill="white"/>
<path d="M213.159 180.035C211.736 180.034 210.315 179.955 208.901 179.796C199.453 178.711 190.8 173.986 184.778 166.624C178.757 159.262 175.842 149.843 176.651 140.367C177.46 130.891 181.931 122.103 189.113 115.869C196.295 109.635 205.624 106.446 215.12 106.978C224.615 107.511 233.529 111.723 239.97 118.721C246.41 125.719 249.87 134.951 249.615 144.459C249.36 153.966 245.41 163 238.603 169.642C231.797 176.285 222.669 180.013 213.159 180.035ZM213.04 111.06C204.571 111.068 196.438 114.377 190.368 120.284C184.298 126.19 180.769 134.23 180.53 142.697C180.29 151.163 183.359 159.39 189.086 165.63C194.812 171.87 202.745 175.634 211.2 176.12C219.655 176.607 227.967 173.78 234.372 168.238C240.777 162.697 244.77 154.877 245.504 146.439C246.238 138.001 243.655 129.609 238.304 123.045C232.952 116.48 225.253 112.259 216.841 111.279C215.579 111.137 214.31 111.064 213.04 111.06Z" fill="#495747"/>
<path d="M185.062 142.761H184.843L178.574 142.105C178.047 142.044 177.565 141.776 177.234 141.36C176.904 140.944 176.753 140.414 176.813 139.886C176.874 139.358 177.142 138.876 177.558 138.546C177.974 138.215 178.504 138.064 179.032 138.125L185.3 138.861C185.562 138.877 185.817 138.944 186.053 139.058C186.288 139.173 186.499 139.332 186.672 139.528C186.846 139.724 186.98 139.952 187.065 140.2C187.151 140.447 187.187 140.709 187.171 140.97C187.155 141.232 187.088 141.487 186.974 141.723C186.859 141.958 186.699 142.169 186.504 142.343C186.308 142.516 186.08 142.65 185.832 142.735C185.585 142.821 185.323 142.857 185.062 142.841V142.761Z" fill="#495747"/>
<path d="M205.06 160.015C204.697 160.012 204.341 159.916 204.025 159.737C203.726 159.555 203.48 159.297 203.313 158.989C203.145 158.682 203.061 158.336 203.07 157.985L203.309 138.881C203.31 138.528 203.404 138.182 203.582 137.878C203.761 137.574 204.017 137.322 204.324 137.15H204.523L221.039 127.916C221.342 127.741 221.685 127.649 222.034 127.649C222.384 127.649 222.727 127.741 223.029 127.916C223.329 128.094 223.577 128.347 223.748 128.651C223.919 128.955 224.008 129.298 224.004 129.647L223.746 148.771C223.733 149.116 223.63 149.451 223.449 149.744C223.268 150.037 223.013 150.278 222.711 150.443L222.452 150.562L206.015 159.757C205.726 159.927 205.396 160.016 205.06 160.015ZM207.289 140.115L207.09 154.642L219.786 147.538L219.985 133.01L207.289 140.115Z" fill="#495747"/>
<path d="M206.349 137.197L204.309 140.614L220.745 150.428L222.785 147.011L206.349 137.197Z" fill="#495747"/>
<path d="M246.908 151.04H246.65L240.521 150.344C240.26 150.314 240.009 150.233 239.78 150.106C239.551 149.979 239.349 149.808 239.187 149.603C239.024 149.397 238.903 149.162 238.832 148.91C238.76 148.658 238.739 148.395 238.77 148.135C238.799 147.874 238.88 147.623 239.007 147.394C239.134 147.165 239.305 146.963 239.51 146.8C239.716 146.638 239.951 146.517 240.203 146.446C240.455 146.374 240.718 146.353 240.978 146.383L247.107 147.1C247.635 147.131 248.129 147.371 248.479 147.767C248.83 148.163 249.009 148.681 248.978 149.209C248.946 149.737 248.706 150.231 248.311 150.581C247.915 150.932 247.396 151.112 246.869 151.08L246.908 151.04Z" fill="#495747"/>
<path d="M216.506 114.239C216.586 114.249 216.647 114.283 216.691 114.341C216.734 114.4 216.751 114.469 216.742 114.549L216.406 117.444C216.396 117.53 216.358 117.6 216.291 117.652C216.229 117.702 216.154 117.722 216.068 117.712C216.022 117.707 215.976 117.695 215.931 117.676C215.89 117.654 215.861 117.629 215.844 117.6L214.29 115.074L214.044 117.195C214.035 117.275 214.001 117.338 213.942 117.385C213.886 117.432 213.817 117.451 213.734 117.441C213.654 117.432 213.593 117.398 213.549 117.339C213.506 117.28 213.489 117.211 213.498 117.132L213.834 114.236C213.844 114.15 213.88 114.082 213.943 114.032C214.01 113.98 214.086 113.958 214.172 113.968C214.222 113.974 214.269 113.99 214.313 114.015C214.36 114.041 214.393 114.071 214.413 114.107L215.953 116.621L216.201 114.486C216.21 114.406 216.243 114.343 216.298 114.296C216.358 114.249 216.427 114.23 216.506 114.239Z" fill="#2C3630"/>
<path d="M210.225 167.157C210.311 167.167 210.379 167.205 210.429 167.271C210.482 167.334 210.504 167.404 210.495 167.48C210.485 167.563 210.448 167.627 210.382 167.673C210.319 167.719 210.245 167.738 210.159 167.728L208.495 167.535C208.409 167.525 208.34 167.488 208.287 167.425C208.237 167.359 208.217 167.283 208.227 167.196L208.561 164.326C208.571 164.24 208.607 164.172 208.67 164.122C208.736 164.069 208.813 164.048 208.899 164.058L210.563 164.251C210.649 164.261 210.717 164.297 210.766 164.36C210.82 164.42 210.842 164.493 210.832 164.579C210.822 164.662 210.786 164.727 210.723 164.773C210.661 164.816 210.586 164.833 210.496 164.822L209.15 164.666L209.052 165.51L210.175 165.641C210.261 165.651 210.329 165.687 210.379 165.75C210.432 165.81 210.454 165.883 210.444 165.969C210.434 166.052 210.398 166.116 210.336 166.163C210.274 166.206 210.198 166.222 210.109 166.212L208.986 166.081L208.879 167L210.225 167.157Z" fill="#2C3630"/>
<path d="M248.64 189.15C248.112 189.15 247.606 188.94 247.232 188.567C246.859 188.193 246.65 187.687 246.65 187.159C246.65 186.632 246.859 186.125 247.232 185.752C247.606 185.379 248.112 185.169 248.64 185.169H261.415C261.943 185.169 262.449 185.379 262.822 185.752C263.195 186.125 263.405 186.632 263.405 187.159C263.405 187.687 263.195 188.193 262.822 188.567C262.449 188.94 261.943 189.15 261.415 189.15H248.64Z" fill="#495747"/>
</svg>
