<svg width="180" height="181" viewBox="0 0 180 181" fill="none" xmlns="http://www.w3.org/2000/svg">
<path d="M177.485 180.049H29.213C28.6856 180.049 28.1798 179.84 27.8068 179.467C27.4339 179.093 27.2244 178.587 27.2244 178.059C27.2244 177.532 27.4339 177.025 27.8068 176.652C28.1798 176.279 28.6856 176.069 29.213 176.069H177.485C178.012 176.069 178.518 176.279 178.891 176.652C179.264 177.025 179.474 177.532 179.474 178.059C179.474 178.587 179.264 179.093 178.891 179.467C178.518 179.84 178.012 180.049 177.485 180.049Z" fill="#495747"/>
<path d="M17.7982 180.149H1.98863C1.46121 180.149 0.955402 179.939 0.582462 179.566C0.209522 179.193 0 178.687 0 178.159C0 177.631 0.209522 177.125 0.582462 176.752C0.955402 176.379 1.46121 176.169 1.98863 176.169H17.7982C18.3256 176.169 18.8315 176.379 19.2044 176.752C19.5773 177.125 19.7868 177.631 19.7868 178.159C19.7868 178.687 19.5773 179.193 19.2044 179.566C18.8315 179.939 18.3256 180.149 17.7982 180.149Z" fill="#495747"/>
<path d="M126.417 179.333C125.937 179.333 125.458 179.293 124.985 179.214L35.9742 164.05C34.886 163.866 33.8446 163.47 32.9096 162.884C31.9746 162.297 31.1644 161.532 30.5253 160.632C29.8862 159.732 29.4308 158.714 29.1851 157.638C28.9394 156.561 28.9083 155.447 29.0936 154.358L52.1815 18.5968C52.5547 16.3975 53.7849 14.4363 55.602 13.144C56.5103 12.4942 57.5402 12.0342 58.6301 11.7915C59.7201 11.5487 60.8477 11.5282 61.9457 11.7311L150.957 26.8754C152.046 27.0609 153.087 27.4593 154.023 28.0478C154.958 28.6362 155.768 29.4033 156.407 30.305C157.046 31.2068 157.501 32.2257 157.746 33.3036C157.992 34.3814 158.023 35.497 157.837 36.5868L134.749 172.348C134.567 173.437 134.169 174.479 133.578 175.412C132.987 176.346 132.216 177.151 131.309 177.781C129.887 178.81 128.172 179.355 126.417 179.333ZM60.4542 15.5719C59.5433 15.583 58.6566 15.8672 57.9088 16.3878C56.9508 17.075 56.3009 18.1113 56.0991 19.2734L33.0112 155.035C32.8209 156.19 33.0945 157.373 33.7724 158.328C34.4504 159.282 35.4776 159.929 36.6305 160.129L125.582 175.253C126.154 175.35 126.739 175.334 127.305 175.204C127.87 175.075 128.404 174.835 128.877 174.498C129.35 174.162 129.752 173.736 130.06 173.244C130.368 172.752 130.576 172.204 130.673 171.632L153.84 35.95C154.041 34.7948 153.776 33.6072 153.104 32.6465C152.422 31.6922 151.395 31.0424 150.241 30.8356L61.2099 15.6515C60.962 15.5956 60.7084 15.5689 60.4542 15.5719Z" fill="#495747"/>
<path d="M122.698 14.6165C121.714 14.4546 120.807 13.9803 120.113 13.2637C119.418 12.5471 118.972 11.626 118.84 10.6364C118.53 8.2318 117.456 5.99076 115.775 4.24413C114.095 2.49749 111.898 1.33782 109.508 0.936339C107.119 0.534854 104.664 0.912824 102.506 2.01445C100.347 3.11608 98.6003 4.88298 97.5223 7.0543C97.0753 7.94216 96.3538 8.66192 95.4653 9.10652C94.5767 9.55113 93.5684 9.69683 92.5905 9.52196L88.1956 8.78564C87.1631 8.63045 86.111 8.8878 85.2664 9.50213C84.4218 10.1165 83.8525 11.0385 83.6814 12.0692L81.6928 24.2682C81.5363 25.2927 81.7854 26.3379 82.387 27.1815C82.9886 28.0251 83.8953 28.6006 84.9144 28.7856L123.812 35.3528C124.836 35.5094 125.88 35.2601 126.723 34.6581C127.566 34.056 128.141 33.1487 128.326 32.1289L130.315 19.9299C130.472 18.9083 130.225 17.8657 129.628 17.0226C129.03 16.1795 128.128 15.6021 127.113 15.4125L122.698 14.6165Z" fill="#ED7F69"/>
<path d="M143.002 51.3725H142.664L61.6076 37.5018C61.0802 37.4121 60.61 37.1164 60.3005 36.6797C59.9909 36.2431 59.8674 35.7013 59.9571 35.1735C60.0467 34.6457 60.3422 34.1751 60.7786 33.8654C61.2149 33.5556 61.7564 33.432 62.2838 33.5217L143.34 47.3526C143.868 47.3974 144.356 47.6501 144.697 48.0551C145.038 48.46 145.205 48.984 145.16 49.5118C145.115 50.0396 144.862 50.5279 144.458 50.8694C144.053 51.2109 143.53 51.3775 143.002 51.3327V51.3725Z" fill="#495747"/>
<path d="M133.755 105.602H133.417L52.3606 91.6713C51.8414 91.5836 51.3781 91.2934 51.0724 90.8644C50.7668 90.4354 50.6436 89.9026 50.7299 89.3828C50.7732 89.1235 50.8674 88.8754 51.007 88.6528C51.1466 88.4302 51.3289 88.2374 51.5434 88.0857C51.7579 87.934 52.0003 87.8263 52.2566 87.7688C52.5129 87.7114 52.778 87.7053 53.0367 87.7509L134.073 101.681C134.601 101.724 135.09 101.974 135.433 102.377C135.776 102.78 135.945 103.303 135.903 103.831C135.861 104.358 135.611 104.848 135.208 105.191C134.805 105.534 134.282 105.704 133.755 105.661V105.602Z" fill="#495747"/>
<path d="M124.488 159.89H124.15L43.0936 145.96C42.5662 145.87 42.096 145.574 41.7864 145.138C41.4769 144.701 41.3534 144.159 41.443 143.631C41.5327 143.104 41.8282 142.633 42.2645 142.323C42.7009 142.014 43.2423 141.89 43.7697 141.98L124.826 155.91C125.354 155.955 125.842 156.208 126.183 156.613C126.524 157.017 126.691 157.541 126.646 158.069C126.601 158.597 126.348 159.085 125.944 159.427C125.539 159.768 125.016 159.935 124.488 159.89Z" fill="#495747"/>
<path d="M112.357 64.7453H112.019L58.5253 55.611C58.268 55.5654 58.0222 55.4694 57.802 55.3287C57.5818 55.188 57.3915 55.0052 57.2419 54.7908C57.0923 54.5764 56.9864 54.3346 56.9302 54.0793C56.874 53.8239 56.8687 53.56 56.9145 53.3025C57.0068 52.7866 57.2987 52.328 57.7269 52.0262C58.1551 51.7244 58.6849 51.6038 59.2014 51.6906L112.676 60.8249C112.937 60.8458 113.191 60.918 113.425 61.0373C113.658 61.1566 113.865 61.3208 114.035 61.5204C114.205 61.7199 114.334 61.951 114.415 62.2005C114.495 62.4499 114.526 62.7128 114.505 62.9742C114.484 63.2355 114.412 63.4902 114.293 63.7236C114.174 63.957 114.01 64.1647 113.81 64.3347C113.611 64.5047 113.38 64.6338 113.131 64.7145C112.881 64.7952 112.619 64.8259 112.357 64.805V64.7453Z" fill="#495747"/>
<path d="M139.92 69.4621H139.582L119.218 65.9596C118.702 65.8629 118.245 65.5659 117.947 65.1334C117.649 64.701 117.534 64.1682 117.627 63.6512C117.72 63.1352 118.011 62.6766 118.44 62.3748C118.868 62.073 119.398 61.9524 119.914 62.0392L140.278 65.5019C140.805 65.5468 141.293 65.7995 141.634 66.2044C141.976 66.6093 142.142 67.1333 142.097 67.6611C142.053 68.1889 141.8 68.6773 141.395 69.0187C140.991 69.3602 140.467 69.5269 139.94 69.482L139.92 69.4621Z" fill="#495747"/>
<path d="M68.3093 75.7507H67.9116L55.4429 73.7606C55.1818 73.7162 54.9319 73.6207 54.7076 73.4797C54.4834 73.3386 54.289 73.1547 54.1358 72.9385C53.9825 72.7223 53.8733 72.478 53.8144 72.2196C53.7555 71.9611 53.748 71.6936 53.7924 71.4323C53.8368 71.1709 53.9322 70.9209 54.0731 70.6964C54.2141 70.472 54.3978 70.2775 54.6139 70.1242C54.8299 69.9708 55.0741 69.8615 55.3323 69.8025C55.5906 69.7436 55.8579 69.7361 56.1191 69.7805L68.6474 71.9298C69.1748 71.9746 69.6628 72.2273 70.0041 72.6322C70.3453 73.0372 70.5118 73.5612 70.467 74.089C70.4222 74.6168 70.1697 75.1051 69.765 75.4466C69.3604 75.7881 68.8368 75.9547 68.3093 75.9099V75.7507Z" fill="#495747"/>
<path d="M136.838 87.5513H136.499L75.8662 77.1633C75.3388 77.0762 74.8675 76.783 74.5561 76.3482C74.2447 75.9134 74.1186 75.3727 74.2057 74.8449C74.2927 74.3171 74.5857 73.8455 75.0201 73.5339C75.4546 73.2222 75.995 73.0961 76.5224 73.1832L137.116 83.5314C137.643 83.5763 138.131 83.829 138.473 84.2339C138.814 84.6389 138.98 85.1628 138.936 85.6906C138.891 86.2184 138.638 86.7068 138.234 87.0483C137.829 87.3897 137.305 87.5564 136.778 87.5115L136.838 87.5513Z" fill="#495747"/>
<path d="M103.09 119.014H102.752L49.2782 109.84C48.7508 109.753 48.2796 109.46 47.9682 109.025C47.6568 108.59 47.5307 108.049 47.6177 107.522C47.7047 106.994 47.9977 106.522 48.4322 106.211C48.8667 105.899 49.4071 105.773 49.9345 105.86L103.429 114.994C103.956 115.039 104.444 115.292 104.785 115.697C105.126 116.102 105.293 116.626 105.248 117.153C105.203 117.681 104.951 118.17 104.546 118.511C104.142 118.853 103.618 119.019 103.09 118.974V119.014Z" fill="#495747"/>
<path d="M130.653 123.731H130.335L109.971 120.208C109.452 120.121 108.989 119.831 108.683 119.402C108.377 118.973 108.254 118.44 108.34 117.92C108.384 117.661 108.478 117.413 108.617 117.19C108.757 116.967 108.939 116.775 109.154 116.623C109.368 116.471 109.611 116.363 109.867 116.306C110.123 116.248 110.389 116.242 110.647 116.288L130.991 119.771C131.51 119.858 131.973 120.149 132.279 120.578C132.585 121.007 132.708 121.539 132.622 122.059C132.546 122.527 132.306 122.952 131.945 123.258C131.584 123.565 131.126 123.732 130.653 123.731Z" fill="#495747"/>
<path d="M59.0424 130.099H58.7242L46.1958 127.949C45.6684 127.862 45.1971 127.569 44.8857 127.134C44.5743 126.7 44.4483 126.159 44.5353 125.631C44.6223 125.103 44.9153 124.632 45.3498 124.32C45.7843 124.008 46.3246 123.882 46.8521 123.969L59.3804 126.119C59.9078 126.163 60.3958 126.416 60.7371 126.821C61.0783 127.226 61.2448 127.75 61.2 128.278C61.1552 128.806 60.9027 129.294 60.498 129.635C60.0934 129.977 59.5698 130.144 59.0424 130.099Z" fill="#495747"/>
<path d="M127.57 141.821H127.232L66.6588 131.473C66.1314 131.383 65.6612 131.087 65.3516 130.65C65.0421 130.214 64.9186 129.672 65.0082 129.144C65.0979 128.616 65.3934 128.146 65.8298 127.836C66.2661 127.526 66.8075 127.403 67.3349 127.492L127.909 137.841C128.428 137.928 128.891 138.219 129.197 138.648C129.502 139.077 129.626 139.609 129.539 140.129C129.468 140.6 129.23 141.03 128.868 141.341C128.507 141.651 128.047 141.821 127.57 141.821Z" fill="#495747"/>
<path d="M27.9999 92.845L23.7044 86.2779C23.6067 86.1307 23.4693 86.0143 23.3081 85.9421C23.147 85.8698 22.9687 85.8448 22.7939 85.8698C22.6191 85.8947 22.455 85.9688 22.3205 86.0833C22.186 86.1977 22.0867 86.348 22.034 86.5167L17.1022 102.397C16.9085 103.042 16.8542 103.72 16.9431 104.387L26.8862 175.352C27.0095 176.192 27.4586 176.949 28.1362 177.46C28.8138 177.97 29.6651 178.193 30.5056 178.079L40.747 176.626C41.1628 176.57 41.5633 176.432 41.9257 176.22C42.288 176.008 42.6048 175.727 42.8581 175.392C43.1113 175.058 43.2958 174.676 43.4011 174.27C43.5064 173.863 43.5302 173.44 43.4714 173.024L33.5283 102.059C33.4359 101.349 33.1844 100.668 32.7925 100.069L27.9999 92.845Z" fill="white"/>
<path d="M30.1278 180.149C28.8788 180.151 27.6711 179.701 26.728 178.882C25.7849 178.062 25.17 176.929 24.9971 175.691L15.054 104.726C14.9133 103.745 14.9949 102.746 15.2926 101.801L20.2045 85.8803C20.3698 85.3521 20.6814 84.8817 21.1031 84.5237C21.5248 84.1657 22.0393 83.9347 22.587 83.8576C23.1346 83.7805 23.6928 83.8605 24.1969 84.0882C24.701 84.3158 25.1301 84.6819 25.4346 85.144L34.5425 99.0743C35.0833 99.9033 35.4362 100.841 35.5766 101.821L45.5197 172.786C45.7069 174.147 45.3474 175.527 44.5199 176.624C43.6925 177.72 42.4646 178.444 41.105 178.636L30.8635 180.089C30.6202 180.128 30.3742 180.148 30.1278 180.149ZM23.267 89.2634L19.0113 102.975C18.9225 103.368 18.9225 103.776 19.0113 104.169L28.9545 175.134C29.0037 175.451 29.1746 175.737 29.4308 175.93C29.687 176.123 30.0083 176.209 30.3266 176.169L40.5681 174.716C40.7253 174.697 40.8771 174.646 41.0146 174.567C41.152 174.488 41.2724 174.382 41.3687 174.257C41.4649 174.131 41.5352 173.987 41.5753 173.833C41.6153 173.68 41.6245 173.52 41.6021 173.363L31.659 102.398C31.601 102.001 31.4586 101.621 31.2414 101.283L23.267 89.2634Z" fill="#495747"/>
<path d="M20.1647 92.4077L26.8465 91.4724L23.4459 86.2783L20.1647 92.4077Z" fill="#495747"/>
<path d="M18.3749 93.6609L23.3465 84.3076L28.5368 92.2678L18.3749 93.6609ZM23.5254 88.2081L21.9743 91.1335L25.1561 90.6957L23.5254 88.2081Z" fill="#495747"/>
</svg>
